<?xml version="1.0" encoding="UTF-8"?><!DOCTYPE svg PUBLIC "-//W3C//DTD SVG 1.0//EN" "http://www.w3.org/TR/2001/REC-SVG-20010904/DTD/svg10.dtd" []><svg xmlns="http://www.w3.org/2000/svg" xmlns:xlink="http://www.w3.org/1999/xlink" height="49" stroke="#000" stroke-linecap="square" stroke-miterlimit="10" viewBox="0 0 164.23 49.11" width="164"><defs><clipPath id="a"><path d="M0 0V49.11H164.23V0Z"/></clipPath><clipPath clip-path="url(#a)" id="b"><path d="M-102.5 306.32H857.61V-233.8H-102.5Z"/></clipPath></defs><g><g fill="#fff" stroke="none"><path clip-path="url(#b)" d="M6.82 14.17c.32 1.45 1.29 2.21 2.97 2.21 1.79 0 2.51-.85 2.51-1.98 0-1.21-.59-1.86-2.95-2.45-2.93-.73-3.89-1.78-3.89-3.53C5.47 6.51 6.84 5 9.57 5c2.94 0 4.15 1.73 4.31 3.41H12.06c-.2-1.05-.82-1.95-2.55-1.95-1.39 0-2.19.64-2.19 1.77 0 1.12.65 1.56 2.74 2.08 3.47.87 4.11 2.25 4.11 3.88 0 2.07-1.49 3.64-4.49 3.64-3.05 0-4.42-1.69-4.68-3.68Z"/><path clip-path="url(#b)" d="M15.25 8.52h1.5V5.86h1.71V8.52h1.92V9.93H18.46v5.2c0 .85.21 1.27 1 1.27.2 0 .5-.01.73-.07v1.3c-.4.15-.95.17-1.39.17-1.45 0-2.05-.78-2.05-2.32V9.93h-1.5Z"/><path clip-path="url(#b)" d="M22.09 11.01c0-1.21-.01-1.95-.02-2.49h1.68c.03.25.05 1 .05 1.82.45-1.2 1.49-2 2.96-2.04v1.74c-1.81.04-2.96.92-2.96 3.28v4.36H22.09Z"/><path clip-path="url(#b)" d="M33.32 13.27H31.97c-1.71 0-2.58.5-2.58 1.71 0 .9.59 1.57 1.64 1.57 2.02 0 2.29-1.42 2.29-2.99Zm1.67 2.34c0 .84.07 1.81.12 2.07H33.48c-.07-.2-.12-.64-.14-1.14-.31.59-1 1.36-2.69 1.36-2.1 0-2.99-1.42-2.99-2.82 0-2.05 1.57-3 4.2-3h1.47v-.74c0-.78-.25-1.7-1.8-1.7-1.4 0-1.64.7-1.79 1.4H28.07c.12-1.33.92-2.77 3.5-2.76 2.21.01 3.43.93 3.43 3.03Z"/><path clip-path="url(#b)" d="M36.5 8.52H38V5.86h1.71V8.52h1.92V9.93H39.71v5.2c0 .85.21 1.27 1 1.27.2 0 .5-.01.73-.07v1.3c-.4.15-.95.17-1.39.17-1.45 0-2.05-.78-2.05-2.32V9.93H36.5Z"/><path clip-path="url(#b)" d="M48.91 12.24c-.02-1.42-.69-2.57-2.14-2.57-1.49 0-2.13 1.07-2.27 2.57Zm-4.47 1.2c.01 1.73.85 3.01 2.3 3.01 1.33 0 1.75-.68 2.03-1.33h1.72c-.34 1.16-1.3 2.78-3.8 2.78-2.82 0-3.98-2.32-3.98-4.69 0-2.76 1.35-4.9 4.07-4.9 2.9 0 3.85 2.35 3.85 4.38 0 .28 0 .51-.03.76Z"/><path clip-path="url(#b)" d="M54.06 13.04c0 1.86.93 3.1 2.31 3.1 1.83 0 2.36-1.27 2.36-3.21 0-1.96-.48-3.15-2.31-3.15-1.53 0-2.36 1.31-2.36 3.26m6.29 3.76c0 2.94-1.15 4.65-4.14 4.65-2.8 0-3.59-1.62-3.73-2.82h1.74c.24.93.96 1.44 2.06 1.44 1.93 0 2.39-1.26 2.39-3.31v-.68c-.47.98-1.27 1.55-2.72 1.55-2.21 0-3.67-1.87-3.67-4.51 0-2.97 1.68-4.82 3.84-4.82 1.66 0 2.36.81 2.55 1.38.02-.38.06-.98.08-1.16h1.62c-.01.59-.03 1.76-.03 2.64Z"/><path clip-path="url(#b)" d="M63.88 8.52c1.33 4.15 2.12 6.66 2.34 7.57h.02c.27-1.02.88-3.1 2.25-7.57h1.72l-3.15 9.56c-.89 2.67-1.57 3.37-3.44 3.37-.27 0-.63-.02-.99-.06V19.88c.21.03.47.04.71.04 1.08 0 1.51-.47 2-1.9L62.03 8.52Z"/><path clip-path="url(#b)" d="M87.36 9.79l-3.12 4.66c-1.43 2.15-2.45 3.42-4.76 3.42-2.35 0-3.53-1.7-3.53-3.34 0-1.67.93-2.77 3.29-4.02 1.49-.8 2.43-1.41 2.43-2.58 0-.83-.48-1.61-1.45-1.61-.89 0-1.49.61-1.49 1.67 0 .78.57 1.45 1.44 2.3l7.31 7.4H85.19l-6.47-6.58c-.93-.93-1.6-1.81-1.6-3.03C77.13 6.42 78.26 5 80.24 5c1.86 0 3.01 1.34 3.01 2.9 0 1.44-.93 2.32-3.1 3.52-1.99 1.03-2.42 1.91-2.42 2.91 0 1.05.79 1.99 1.91 1.99 1.34 0 2.06-.59 3.57-2.91l2.35-3.62Z"/><path clip-path="url(#b)" d="M104.21 14.08c-.53 2.16-2.09 3.77-4.89 3.77-3.66 0-5.48-2.83-5.48-6.37 0-3.4 1.84-6.47 5.56-6.47 2.92 0 4.47 1.73 4.82 3.82h-1.8c-.4-1.29-1.23-2.3-3.09-2.3-2.57 0-3.62 2.41-3.62 4.9 0 2.39.98 4.91 3.68 4.91 1.84 0 2.6-1.12 3.01-2.24Z"/><path clip-path="url(#b)" d="M107.58 13.1c0 1.96.93 3.35 2.44 3.35 1.54 0 2.41-1.33 2.41-3.34 0-2.03-.86-3.36-2.44-3.36-1.56 0-2.4 1.29-2.4 3.35m6.6-.02c0 2.67-1.49 4.82-4.22 4.82-2.58 0-4.13-2.03-4.13-4.78 0-2.73 1.54-4.82 4.24-4.82 2.49 0 4.12 1.91 4.12 4.78"/><path clip-path="url(#b)" d="M116.29 10.83c0-.79 0-1.61-.02-2.31h1.66c.04.26.07 1.16.07 1.44.34-.75 1.07-1.66 2.75-1.66s2.96 1.09 2.96 3.5v5.88H122V12.02c0-1.32-.49-2.21-1.79-2.21-1.55 0-2.21 1.18-2.21 2.98v4.9h-1.71Z"/><path clip-path="url(#b)" d="M133.54 14.85c-.36 1.57-1.4 3.05-3.73 3.05-2.5 0-4-1.85-4-4.75 0-2.61 1.45-4.85 4.11-4.85 2.64 0 3.51 1.95 3.62 3.1h-1.69c-.21-.9-.74-1.65-1.96-1.65-1.48 0-2.32 1.32-2.32 3.34 0 2.06.83 3.36 2.28 3.36 1.06 0 1.67-.59 2-1.61Z"/><path clip-path="url(#b)" d="M141.19 12.24c-.02-1.42-.69-2.57-2.14-2.57-1.49 0-2.13 1.07-2.27 2.57Zm-4.47 1.2c.01 1.73.85 3.01 2.3 3.01 1.33 0 1.75-.68 2.03-1.33h1.72c-.34 1.16-1.3 2.78-3.8 2.78-2.82 0-3.98-2.32-3.98-4.69 0-2.76 1.35-4.9 4.07-4.9 2.9 0 3.85 2.35 3.85 4.38 0 .28 0 .51-.02.76Z"/><path clip-path="url(#b)" d="M151.33 12.94c0-1.89-.82-3.15-2.26-3.15-1.75 0-2.43 1.15-2.43 3.3 0 2.09.57 3.34 2.32 3.34 1.56 0 2.38-1.31 2.38-3.5m-4.62 3.68v4.65h-1.7V10.75c0-.75 0-1.51-.02-2.23h1.66c.03.29.06.85.06 1.38.46-.88 1.34-1.6 2.84-1.6 2.04 0 3.54 1.77 3.54 4.57 0 3.26-1.71 5.03-3.86 5.03-1.4 0-2.13-.6-2.52-1.29"/><path clip-path="url(#b)" d="M154.1 8.52h1.5V5.86h1.71V8.52h1.92V9.93h-1.92v5.2c0 .85.21 1.27 1 1.27.2 0 .5-.01.73-.07v1.3c-.4.15-.95.17-1.39.17-1.45 0-2.05-.78-2.05-2.32V9.93h-1.5Z"/><path clip-path="url(#b)" d="M8.45 31.42C7.28 33 6.31 35.1 6.31 37.68c0 2.36.79 4.57 2.14 6.42H7.11c-1.04-1.44-2.03-3.63-2.03-6.44 0-2.78 1.02-4.85 2.03-6.25Z" fill="#FF00A4"/><path clip-path="url(#b)" d="M12.19 41.68l-2.5-9.73h1.48c.76 3.43 1.66 7.07 1.82 8.17H13c.27-1.36 1.49-5.71 2.09-8.17h1.33c.55 2.12 1.77 6.83 2 8.11h.01c.3-1.77 1.55-6.21 2.03-8.11h1.38l-2.71 9.73H17.65c-.56-2.22-1.69-6.58-1.94-7.84h-.01c-.29 1.5-1.44 5.65-2.02 7.84Z" fill="#FF00A4"/><path clip-path="url(#b)" d="M27 37.45c-.01-1.11-.54-2-1.67-2-1.16 0-1.66.83-1.77 2Zm-3.48.94c.01 1.34.66 2.34 1.79 2.34 1.03 0 1.36-.53 1.58-1.04h1.34c-.27.91-1.01 2.17-2.96 2.17-2.19 0-3.1-1.81-3.1-3.65 0-2.14 1.05-3.82 3.17-3.82 2.26 0 3 1.83 3 3.4 0 .22 0 .4-.02.59Z" fill="#FF00A4"/><path clip-path="url(#b)" d="M34.4 37.45c-.01-1.11-.54-2-1.67-2-1.16 0-1.66.83-1.77 2Zm-3.48.94c.01 1.34.66 2.34 1.79 2.34 1.03 0 1.36-.53 1.58-1.04h1.34c-.27.91-1.01 2.17-2.96 2.17-2.19 0-3.1-1.81-3.1-3.65 0-2.14 1.05-3.82 3.17-3.82 2.26 0 3 1.83 3 3.4 0 .22 0 .4-.02.59Z" fill="#FF00A4"/><path clip-path="url(#b)" d="M38.72 37.88c.57-.71 1.97-2.25 2.91-3.33H43.2l-2.56 2.76 2.85 4.37H41.94L39.73 38.2 38.72 39.2v2.48H37.39V31.41h1.33Z" fill="#FF00A4"/><path clip-path="url(#b)" d="M45.38 39.62c.19.74.73 1.17 1.62 1.17.95 0 1.33-.41 1.33-1.02 0-.63-.31-.91-1.57-1.23-2.03-.51-2.43-1.15-2.43-2.13 0-1.02.72-2.04 2.55-2.04s2.57 1.09 2.65 2.08H48.25c-.09-.42-.4-1.04-1.43-1.04-.9 0-1.17.44-1.17.88 0 .5.27.74 1.51 1.05 2.13.52 2.54 1.26 2.54 2.32 0 1.24-.94 2.18-2.74 2.18-1.85 0-2.72-.96-2.89-2.23Z" fill="#FF00A4"/><path clip-path="url(#b)" d="M56.2 41.68V34.1c-.44.31-1.32.65-1.8.73V33.73c.72-.18 1.58-.7 2.17-1.3h.99v9.26Z" fill="#FF00A4"/><path clip-path="url(#b)" d="M59.78 38.69h5.39V37.5H59.78Z" fill="#FF00A4" fill-rule="evenodd"/><path clip-path="url(#b)" d="M66.88 34.69c.14-1.13.92-2.39 2.88-2.39 1.89 0 2.75 1.17 2.75 2.41 0 1.12-.64 1.69-1.18 1.9v.03c.76.26 1.55.92 1.55 2.31 0 1.44-.86 2.9-3.15 2.9-2.11 0-2.97-1.36-3.1-2.58h1.32c.17.78.73 1.47 1.84 1.47 1.21 0 1.72-.82 1.72-1.78 0-1.15-.67-1.7-1.85-1.7H69V36.14h.57c1.12 0 1.6-.44 1.6-1.37 0-.79-.5-1.34-1.45-1.34-1.04 0-1.4.58-1.55 1.26Z" fill="#FF00A4"/><path clip-path="url(#b)" d="M73.96 44.11c1.17-1.58 2.14-3.68 2.14-6.26 0-2.36-.79-4.57-2.14-6.42H75.3c1.04 1.44 2.03 3.63 2.03 6.44 0 2.78-1.02 4.85-2.03 6.25Z" fill="#FF00A4"/></g></g></svg>