<?xml version="1.0" encoding="UTF-8"?><!DOCTYPE svg PUBLIC "-//W3C//DTD SVG 1.0//EN" "http://www.w3.org/TR/2001/REC-SVG-20010904/DTD/svg10.dtd" []><svg xmlns="http://www.w3.org/2000/svg" xmlns:xlink="http://www.w3.org/1999/xlink" height="31" stroke="#000" stroke-linecap="square" stroke-miterlimit="10" viewBox="0 0 122.44 31.34" width="122"><g><g fill="#FF00A4" stroke="none"><path d="M11.44 10.66c-.51 1.58-1.59 2.48-3.37 2.48-1.8 0-2.76-1.15-2.76-3.06 0-1.98 1.1-4.74 3.95-4.74 1.65 0 2.66.91 2.71 2.51H10.4c-.03-.63-.29-1.27-1.3-1.27-1.45 0-2.17 1.93-2.17 3.49 0 1.03.33 1.83 1.33 1.83.86 0 1.31-.51 1.62-1.24Z"/><path d="M15.79 10.47c-.36 0-.67.03-.95.07-.81.12-1.13.4-1.13.88 0 .33.21.58.67.58 1 0 1.25-.84 1.39-1.44Zm1.2 1.16c-.12.59-.24 1.23-.25 1.39H15.33c.01-.16.05-.46.08-.64-.27.36-.64.75-1.67.75-1.09 0-1.54-.79-1.54-1.46 0-1.59 1.34-2.01 2.56-2.15.46-.04.89-.04 1.23-.06l.05-.27c.08-.41.08-.95-.7-.95-.69 0-.81.39-.94.66H12.93c.21-.91.82-1.7 2.53-1.7 1.34 0 2.33.57 2.02 2.07Z"/><path d="M18.2 13.03L19.85 5h1.45l-1.64 8.03Z"/><path d="M26.17 11.17c-.3 1.08-1.04 1.97-2.67 1.97-1.39 0-2.13-.85-2.13-2.21 0-1.66.92-3.71 2.96-3.71 1.79 0 2.24 1.3 2.16 2.03H25.08c-.01-.44-.15-.88-.8-.88-1.02 0-1.42 1.59-1.42 2.49 0 .8.31 1.15.83 1.15.49 0 .82-.28 1.04-.84Z"/><path d="M31.89 11.51c-.11.51-.21 1.06-.29 1.52H30.18c.01-.16.07-.58.11-.79-.41.62-1.01.9-1.74.9-1.02 0-1.61-.71-1.35-2.01l.78-3.79h1.44l-.74 3.6c-.12.59-.03.98.58.98.63 0 1.18-.51 1.44-1.78l.58-2.79h1.45Z"/><path d="M33.06 13.03L34.7 5h1.45l-1.64 8.03Z"/><path d="M39.56 10.47c-.36 0-.67.03-.95.07-.81.12-1.13.4-1.13.88 0 .33.21.58.67.58 1 0 1.25-.84 1.39-1.44Zm1.2 1.16c-.12.59-.24 1.23-.25 1.39H39.11c.01-.16.05-.46.08-.64-.27.36-.64.75-1.67.75-1.09 0-1.54-.79-1.54-1.46 0-1.59 1.34-2.01 2.56-2.15.46-.04.89-.04 1.23-.06l.05-.27c.08-.41.08-.95-.7-.95-.69 0-.82.39-.94.66H36.7c.21-.91.82-1.7 2.53-1.7 1.34 0 2.33.57 2.02 2.07Z"/><path d="M42.46 7.34h.82L43.6 5.8h1.44l-.31 1.54h1.04l-.25 1.14H44.48l-.58 2.87c-.07.35-.04.59.39.59.17 0 .31-.01.47-.04l-.22 1.08c-.32.11-.68.11-.98.11-1.15 0-1.33-.68-1.13-1.68l.59-2.93h-.82Z"/><path d="M49.61 9.52c.02-.11.02-.19.02-.25 0-.5-.21-.92-.85-.92-.66 0-1.07.44-1.26 1.18Zm-2.28 1c-.02.12-.04.22-.04.34 0 .6.22 1.12.87 1.12.59 0 .85-.33 1.03-.69H50.7c-.31.84-1.01 1.85-2.66 1.85-1.48 0-2.21-.96-2.21-2.34 0-1.5.8-3.58 2.99-3.58 1.62 0 2.19 1.02 2.19 2.19 0 .46-.06.79-.15 1.11Z"/><path d="M62.17 8.54l-2.21 2.61c-.99 1.16-1.57 2-3.23 2-1.42 0-2.2-.94-2.2-2.05 0-1.14.68-1.88 2.49-2.56.96-.38 1.45-.85 1.45-1.46 0-.31-.14-.67-.59-.67-.49 0-.71.4-.71.79 0 .36.12.74.59 1.18l3.87 4.64h-1.8L56.48 9.09c-.37-.48-.68-1.02-.68-1.7 0-1.15.71-2.06 2.11-2.06 1.37 0 1.89.92 1.89 1.75 0 .98-.52 1.59-2.17 2.26-1.3.53-1.6.97-1.6 1.53 0 .47.35.91.98.91.7 0 1.15-.35 2.05-1.43l1.52-1.82Z"/><path d="M67.89 6.72H65.74l.27-1.27h5.78l-.27 1.27H69.39L68.1 13.03H66.6Z"/><path d="M71.37 9.02c.12-.56.23-1.16.32-1.69h1.4c-.01.14-.06.57-.16 1.04.38-.68.88-1.15 1.84-1.15l-.3 1.5c-1.01.01-1.71.59-1.97 1.83l-.51 2.47H70.55Z"/><path d="M78.14 10.47c-.36 0-.67.03-.95.07-.81.12-1.13.4-1.13.88 0 .33.21.58.67.58 1 0 1.25-.84 1.39-1.44Zm1.2 1.16c-.12.59-.24 1.23-.25 1.39H77.69c.01-.16.05-.46.08-.64-.27.36-.64.75-1.67.75-1.09 0-1.54-.79-1.54-1.46 0-1.59 1.34-2.01 2.56-2.15.46-.04.89-.04 1.23-.06l.05-.27c.08-.41.08-.95-.7-.95-.69 0-.81.39-.94.66H75.29c.21-.91.82-1.7 2.53-1.7 1.34 0 2.33.57 2.02 2.07Z"/><path d="M85.6 11.17c-.3 1.08-1.04 1.97-2.67 1.97-1.39 0-2.13-.85-2.13-2.21 0-1.66.92-3.71 2.96-3.71 1.79 0 2.24 1.3 2.16 2.03H84.51c-.01-.44-.15-.88-.8-.88-1.02 0-1.42 1.59-1.42 2.49 0 .8.31 1.15.82 1.15.49 0 .82-.28 1.04-.84Z"/><path d="M88.45 9.66c.52-.54 1.6-1.59 2.35-2.32h1.74c-.78.76-1.58 1.51-2.34 2.22l1.28 3.47H89.85l-.78-2.53-.93.74-.36 1.79H86.33L87.98 5h1.45Z"/><path d="M101.07 13.03H99.89c-.01-.19.03-.6.07-.82-.5.68-1.14.93-2.05.93-1.72 0-2.59-1.3-2.59-3.07 0-2.24 1.29-4.74 4.01-4.74 1.74 0 2.75 1.04 2.76 2.44h-1.51c-.04-.56-.39-1.2-1.43-1.2-1.59 0-2.27 1.9-2.27 3.39 0 1.16.45 1.93 1.48 1.93 1.24 0 1.61-.84 1.79-1.74l.01-.03h-1.7l.28-1.36h3.12Z"/><path d="M104.22 5.44h1.5l-.61 2.94h2.86l.61-2.94h1.5l-1.56 7.59h-1.5l.69-3.37h-2.86l-.7 3.37h-1.5Z"/><path d="M116.43 13.03h-1.18c-.01-.19.03-.6.07-.82-.5.68-1.14.93-2.05.93-1.72 0-2.59-1.3-2.59-3.07 0-2.24 1.29-4.74 4.01-4.74 1.74 0 2.75 1.04 2.76 2.44h-1.51c-.03-.56-.38-1.2-1.43-1.2-1.59 0-2.27 1.9-2.27 3.39 0 1.16.45 1.93 1.48 1.93 1.24 0 1.61-.84 1.79-1.74l.01-.03h-1.69l.28-1.36h3.12Z"/><path d="M10.46 22.91H7.15l-.42 2.05H10.5l-.44 1.27H5l1.56-7.59h4.93l-.26 1.27H7.77l-.35 1.73h3.3Z"/><path d="M12.16 22.13c.11-.54.22-1.09.31-1.6h1.42c-.02.13-.06.44-.11.66.36-.46.77-.77 1.53-.77.78 0 1.15.36 1.26.91.39-.5.93-.91 1.8-.91.94 0 1.64.55 1.32 2.1l-.76 3.71H17.52l.72-3.52c.1-.51.08-1.04-.6-1.04-.66 0-.96.49-1.13 1.36l-.66 3.21H14.42l.73-3.54c.11-.55.02-1.01-.59-1.01-.65 0-.98.47-1.17 1.43l-.64 3.12H11.32Z"/><path d="M22.08 18.2h1.45l-.29 1.41H21.79Zm-.48 2.34h1.45l-1.17 5.69H20.44Z"/><path d="M24.85 24.47c.04.49.35.76.95.76.57 0 .79-.27.79-.64 0-.36-.29-.54-.98-.77-1.29-.41-1.69-.87-1.69-1.58 0-1.03.78-1.82 2.24-1.82 1.53 0 2.22.8 2.18 1.71H26.89c-.02-.31-.17-.61-.79-.61-.36 0-.72.12-.72.52 0 .31.29.42.97.64 1.29.42 1.74.94 1.74 1.73 0 1.31-1.14 1.91-2.45 1.91-1.47 0-2.32-.68-2.26-1.87Z"/><path d="M30.29 24.47c.04.49.35.76.95.76.57 0 .8-.27.8-.64 0-.36-.29-.54-.98-.77-1.29-.41-1.69-.87-1.69-1.58 0-1.03.78-1.82 2.24-1.82 1.54 0 2.22.8 2.18 1.71H32.33c-.02-.31-.17-.61-.79-.61-.36 0-.72.12-.72.52 0 .31.29.42.97.64 1.29.42 1.73.94 1.73 1.73 0 1.31-1.14 1.91-2.45 1.91-1.47 0-2.32-.68-2.26-1.87Z"/><path d="M35.94 18.2h1.45l-.29 1.41H35.65Zm-.48 2.34h1.45l-1.17 5.69H34.3Z"/><path d="M38.96 24c0 .79.32 1.18.88 1.18 1.04 0 1.45-1.49 1.45-2.46 0-.74-.3-1.13-.9-1.13-1 0-1.43 1.48-1.43 2.41m3.83-1.13c0 1.34-.76 3.47-3.09 3.47-1.54 0-2.24-.96-2.24-2.35 0-1.53.94-3.56 3.05-3.56 1.32 0 2.29.77 2.29 2.44"/><path d="M44.24 21.98c.1-.48.2-.96.27-1.44h1.42c-.01.16-.08.57-.11.71.26-.34.74-.82 1.66-.82 1.08 0 1.71.68 1.36 2.36l-.7 3.44H46.71l.7-3.46c.14-.64 0-1.1-.62-1.1-.71 0-1.15.55-1.37 1.61l-.6 2.95H43.37Z"/><path d="M51.03 24.47c.04.49.35.76.95.76.57 0 .8-.27.8-.64 0-.36-.29-.54-.98-.77-1.29-.41-1.69-.87-1.69-1.58 0-1.03.78-1.82 2.24-1.82 1.54 0 2.22.8 2.18 1.71H53.07c-.02-.31-.17-.61-.79-.61-.36 0-.72.12-.72.52 0 .31.29.42.97.64 1.29.42 1.74.94 1.74 1.73 0 1.31-1.14 1.91-2.45 1.91-1.47 0-2.32-.68-2.26-1.87Z"/></g></g></svg>