<?xml version="1.0" encoding="UTF-8"?><!DOCTYPE svg PUBLIC "-//W3C//DTD SVG 1.0//EN" "http://www.w3.org/TR/2001/REC-SVG-20010904/DTD/svg10.dtd" []><svg xmlns="http://www.w3.org/2000/svg" xmlns:xlink="http://www.w3.org/1999/xlink" height="21" stroke="#000" stroke-linecap="square" stroke-miterlimit="10" viewBox="0 0 177.72 21.44" width="178"><defs><clipPath id="a"><path d="M0 0V21.44H177.72V0Z"/></clipPath><clipPath clip-path="url(#a)" id="b"><path d="M-391.45 339.07H568.67v-540H-391.45Z"/></clipPath></defs><g><g fill="#fff" stroke="none" stroke-linecap="butt"><path clip-path="url(#b)" d="M6.68 13.15c.29 1.29 1.18 1.97 2.73 1.97 1.65 0 2.31-.76 2.31-1.76 0-1.08-.55-1.66-2.71-2.18-2.7-.65-3.57-1.59-3.57-3.14C5.43 6.34 6.69 5 9.2 5c2.71 0 3.81 1.54 3.96 3.03H11.49c-.18-.93-.76-1.73-2.34-1.73-1.28 0-2.01.57-2.01 1.58 0 .99.6 1.39 2.52 1.85 3.18.77 3.77 2 3.77 3.45 0 1.84-1.37 3.24-4.13 3.24-2.8 0-4.06-1.5-4.3-3.27Z"/><path clip-path="url(#b)" d="M15.67 16.28h1.65V5.16H15.67Z" fill-rule="evenodd"/><path clip-path="url(#b)" d="M20.44 16.28V5.16h2.15c1.55 2.58 4.85 7.91 5.45 9.12h.02c-.11-1.38-.1-3.16-.1-4.98V5.16h1.54V16.28H27.49c-1.42-2.37-4.89-8.17-5.56-9.42h-.02c.08 1.21.09 3.17.09 5.17v4.25Z"/><path clip-path="url(#b)" d="M41.68 16.28H40.43c-.08-.24-.12-.71-.15-1.43-.51.8-1.49 1.59-3.41 1.59-3.21 0-4.93-2.43-4.93-5.6C31.93 7.51 33.78 5 37.16 5c2.64 0 4.27 1.44 4.58 3.41H40.09c-.35-1.15-1.18-2.06-2.96-2.06-2.52 0-3.48 2.03-3.48 4.41 0 2.22.98 4.31 3.43 4.31 2.41 0 2.98-1.61 2.98-3.32v-.11h-3v-1.4h4.61Z"/><path clip-path="url(#b)" d="M50.25 11.69c-1.01-2.81-1.58-4.36-1.82-5.23h-.02c-.27.97-.9 2.82-1.72 5.23Zm-3.96 1.4l-1.13 3.19H43.52L47.44 5.16h2.04l4.09 11.12H51.83l-1.17-3.19Z"/><path clip-path="url(#b)" d="M57.08 10.42h2.43c1.44 0 2.21-.68 2.21-1.95 0-1.32-.9-1.95-2.15-1.95H57.08ZM55.42 5.16h4.29c2.2 0 3.7 1.23 3.7 3.27 0 2.21-1.61 3.35-3.79 3.35H57.08v4.49H55.42Z"/><path clip-path="url(#b)" d="M66.87 10.67c0 2.36 1.18 4.38 3.49 4.38 2.5 0 3.47-2.06 3.47-4.36 0-2.34-1.11-4.29-3.48-4.29-2.42 0-3.48 1.95-3.48 4.28m8.68-.01c0 3.06-1.74 5.78-5.26 5.78-3.31 0-5.14-2.53-5.14-5.72S67.04 5 70.42 5c3.15 0 5.13 2.34 5.13 5.66"/><path clip-path="url(#b)" d="M79.61 10.1h2.34c1.63 0 2.33-.61 2.33-1.8 0-1.13-.74-1.77-2.18-1.77H79.61Zm0 1.37v4.81H77.98V5.16h4.45c2.31 0 3.54 1.26 3.54 2.99 0 1.45-.83 2.32-1.84 2.62.84.24 1.64.89 1.64 2.83v.49c0 .76-.03 1.71.15 2.19H84.32c-.2-.48-.2-1.34-.2-2.41v-.22c0-1.51-.42-2.18-2.38-2.18Z"/><path clip-path="url(#b)" d="M95.65 11.16H90.17v3.72H96.2l-.21 1.4H88.55V5.16h7.36v1.4H90.17v3.2h5.49Z"/><path clip-path="url(#b)" d="M105.17 6.18c-1.95 1.83-2.93 3.62-2.93 6.18 0 1.18.3 2.78.81 3.8h-.67c-.48-1.02-.82-2.4-.82-3.81 0-2.58 1.09-4.65 2.81-6.17Z"/><path clip-path="url(#b)" d="M107.65 6.6h.74l-.69 3.24h4.18l.69-3.24h.74l-1.62 7.68h-.74l.8-3.8h-4.18l-.8 3.8h-.74Z"/><path clip-path="url(#b)" d="M118.66 10.99c.03-.15.04-.31.04-.46 0-.86-.41-1.3-1.27-1.3-.91 0-1.6.64-1.91 1.76Zm-3.27.58c-.03.26-.05.39-.05.6 0 1.06.53 1.6 1.35 1.6.89 0 1.3-.5 1.58-1.01h.72c-.38.87-1.04 1.62-2.4 1.62s-1.96-.91-1.96-2.17c0-1.6.87-3.58 2.86-3.58 1.43 0 1.9.96 1.9 1.92 0 .31-.03.63-.14 1.02Z"/><path clip-path="url(#b)" d="M124.74 11.49c-.27.01-.66.01-1.2.06-.93.09-1.91.32-1.91 1.37 0 .46.31.85.97.85 1.29 0 1.85-.99 2.12-2.19Zm.38 1.41c-.09.42-.23 1.13-.26 1.38h-.69c.02-.22.09-.58.17-.94-.28.48-.79 1.05-1.95 1.05-1.12 0-1.51-.72-1.51-1.38 0-1.59 1.53-1.91 2.6-2.01.62-.05 1.13-.05 1.38-.06l.08-.42c.11-.57.06-1.3-1.1-1.3-1.02 0-1.33.53-1.51 1.01h-.71c.18-.8.79-1.6 2.29-1.6 1.24 0 1.99.58 1.73 1.86Z"/><path clip-path="url(#b)" d="M128.28 12.19c0 1.07.48 1.56 1.26 1.56 1.25 0 1.89-1.14 2.15-2.41.26-1.24-.12-2.06-1.28-2.06-1.4 0-2.12 1.62-2.12 2.92m5.16-6.01l-1.38 6.54c-.11.53-.22 1.06-.31 1.56h-.68c.01-.15.09-.58.17-.96-.37.61-.93 1.07-1.92 1.07-1.19 0-1.77-.91-1.77-2.14 0-1.6.95-3.62 2.88-3.62.99 0 1.48.57 1.59.96l.72-3.41Z"/><path clip-path="url(#b)" d="M139.5 11.27c0 1.36.67 2.47 2.19 2.47 2.1 0 3.14-2.14 3.14-4.11 0-1.5-.74-2.5-2.16-2.5-2.16 0-3.17 2.29-3.17 4.15m6.1-1.62c0 2.2-1.24 4.73-4.01 4.73-1.83 0-2.86-1.27-2.86-3.09 0-2.26 1.33-4.81 3.99-4.81 1.84 0 2.88 1.19 2.88 3.17"/><path clip-path="url(#b)" d="M149.14 9.35l-1.04 4.93h-.69l1.04-4.93h-.92l.14-.6h.92l.19-.9c.21-1 .65-1.76 1.73-1.76.18 0 .47.03.58.08l-.14.62c-.12-.04-.33-.05-.47-.05-.56 0-.85.38-1.01 1.12l-.19.9h2.14l.19-.9c.22-1 .64-1.76 1.72-1.76.18 0 .47.03.58.08l-.14.62c-.12-.04-.33-.05-.47-.05-.56 0-.85.38-1.01 1.12l-.19.9h1.16l-.13.6h-1.16l-1.04 4.93h-.7l1.04-4.93Z"/><path clip-path="url(#b)" d="M155.7 6.18h.7l-.23 1.13h-.7Zm-.54 2.56h.7l-1.17 5.54h-.7Z"/><path clip-path="url(#b)" d="M161.76 12.68c-.41 1.06-1.19 1.71-2.38 1.71-1.34 0-1.96-.91-1.96-2.17 0-1.69.93-3.58 2.82-3.58 1.47 0 1.91 1.07 1.85 1.84h-.69c-.03-.7-.35-1.24-1.22-1.24-1.38 0-2.03 1.6-2.03 2.92 0 1.15.53 1.63 1.34 1.63.69 0 1.22-.43 1.56-1.11Z"/><path clip-path="url(#b)" d="M167.72 10.99c.03-.15.04-.31.04-.46 0-.86-.41-1.3-1.27-1.3-.91 0-1.59.64-1.91 1.76Zm-3.27.58c-.03.26-.05.39-.05.6 0 1.06.53 1.6 1.35 1.6.89 0 1.3-.5 1.58-1.01h.72c-.38.87-1.04 1.62-2.4 1.62s-1.96-.91-1.96-2.17c0-1.6.87-3.58 2.86-3.58 1.43 0 1.9.96 1.9 1.92 0 .31-.03.63-.14 1.02Z"/><path clip-path="url(#b)" d="M169.11 16.16c1.95-1.83 2.93-3.62 2.93-6.18 0-1.18-.3-2.78-.81-3.8h.67c.48 1.03.82 2.4.82 3.81 0 2.58-1.09 4.65-2.81 6.17Z"/></g></g></svg>