<?xml version="1.0" encoding="UTF-8"?><!DOCTYPE svg PUBLIC "-//W3C//DTD SVG 1.0//EN" "http://www.w3.org/TR/2001/REC-SVG-20010904/DTD/svg10.dtd" []><svg xmlns="http://www.w3.org/2000/svg" xmlns:xlink="http://www.w3.org/1999/xlink" height="36" stroke="#000" stroke-linecap="square" stroke-miterlimit="10" viewBox="0 0 197.69 35.84" width="198"><g><g fill="#fff" stroke="none"><path d="M20.15 20.05c-2.78-7.44-4.22-11.03-4.72-12.74h-.04c-.61 1.92-2.22 6.37-4.47 12.74ZM10.23 21.9L7.05 30.55H5L14.23 5.36h2.4l9.63 25.19h-2.2L20.81 21.9Z"/><path d="M31.06 5.36h2.02V28.69H46.59l-.36 1.86H31.06Z"/><path d="M50.83 5.36h2.02V28.69H66.35l-.36 1.86H50.83Z"/><path d="M70.59 30.55h2.02V5.36H70.59Z" fill-rule="evenodd"/><path d="M92.66 20.05c-2.78-7.44-4.22-11.03-4.72-12.74H87.9c-.61 1.92-2.22 6.37-4.47 12.74ZM82.73 21.9l-3.18 8.65H77.5L86.74 5.36h2.4l9.63 25.19h-2.2L93.32 21.9Z"/><path d="M103.57 30.55V5.36h2.96c3.9 6.04 13.04 20.02 14.62 22.76h.04c-.22-3.61-.18-7.33-.18-11.44V5.36h2.04V30.55H120.3c-3.72-5.81-13.01-20.39-14.8-23.17h-.04c.18 3.29.15 6.99.15 11.56V30.55Z"/><path d="M149.47 23.8c-1.18 4.01-4.15 7.04-9.49 7.04-7.25 0-11.06-5.75-11.06-12.85 0-6.8 3.75-12.99 11.1-12.99 5.46 0 8.66 3.04 9.49 7.25h-2.02c-1.14-3.25-3.25-5.4-7.58-5.4-6.22 0-8.83 5.68-8.83 11.1 0 5.37 2.57 11.03 8.98 11.03 4.09 0 6.16-2.13 7.4-5.19Z"/><path d="M170.11 18.2H157.28V28.69h14.05l-.3 1.86H155.26V5.36h15.49V7.22H157.28v9.13h12.83Z"/><path d="M177.12 23.77c.75 3.33 2.97 5.29 7.09 5.29 4.57 0 6.32-2.28 6.32-4.99 0-2.83-1.26-4.57-6.77-5.93-5.36-1.34-7.65-3.08-7.65-6.71 0-3.33 2.43-6.43 7.84-6.43 5.57 0 7.91 3.39 8.24 6.46h-2.09c-.57-2.67-2.31-4.61-6.26-4.61-3.6 0-5.57 1.68-5.57 4.46 0 2.75 1.64 3.82 6.27 4.97 7.09 1.76 8.15 4.6 8.15 7.64 0 3.73-2.72 6.93-8.56 6.93-6.3 0-8.62-3.66-9.1-7.07Z"/></g></g></svg>