<?xml version="1.0" encoding="UTF-8"?><!DOCTYPE svg PUBLIC "-//W3C//DTD SVG 1.0//EN" "http://www.w3.org/TR/2001/REC-SVG-20010904/DTD/svg10.dtd" []><svg xmlns="http://www.w3.org/2000/svg" xmlns:xlink="http://www.w3.org/1999/xlink" height="136" stroke="#000" stroke-linecap="square" stroke-miterlimit="10" viewBox="0 0 492.5 136.2" width="493"><defs><clipPath id="a"><path d="M0 0V136.2H492.5V0Z"/></clipPath><clipPath clip-path="url(#a)" id="b"><path d="M-329.43 257.71H630.69v-540H-329.43Z"/></clipPath></defs><g><g fill="#fff" stroke="none"><path clip-path="url(#b)" d="M21.78 131.2H162.23V28.74H21.78Zm139.45-1H22.78V29.74H161.23Z"/><path clip-path="url(#b)" d="M38.38 83.84h-3.8v3.23h4.16l-.08.55H34v-7.7h4.57v.55H34.57v2.82h3.8Z"/><path clip-path="url(#b)" d="M44.03 86.01c-.26.97-.87 1.75-2.07 1.75-1.33 0-2.28-1.02-2.28-2.86 0-1.51.78-2.9 2.34-2.9 1.35 0 1.91.99 2 1.76h-.54c-.16-.64-.56-1.24-1.47-1.24-1.13 0-1.77.99-1.77 2.37 0 1.31.6 2.36 1.71 2.36.78 0 1.25-.41 1.52-1.23Z"/><path clip-path="url(#b)" d="M45.57 84.88c0 1.31.68 2.37 1.81 2.37 1.15 0 1.8-.98 1.8-2.37 0-1.3-.64-2.36-1.82-2.36-1.21 0-1.79 1.04-1.79 2.36m4.17-.01c0 1.53-.82 2.89-2.41 2.89-1.44 0-2.33-1.22-2.33-2.88 0-1.57.84-2.88 2.38-2.88 1.42 0 2.36 1.14 2.36 2.87"/><path clip-path="url(#b)" d="M51.13 85.08h2.68v-.54H51.13Z" fill-rule="evenodd"/><path clip-path="url(#b)" d="M59.44 86.01c-.26.97-.87 1.75-2.07 1.75-1.33 0-2.28-1.02-2.28-2.86 0-1.51.78-2.9 2.34-2.9 1.35 0 1.91.99 2 1.76h-.54c-.16-.64-.56-1.24-1.47-1.24-1.13 0-1.77.99-1.77 2.37 0 1.31.6 2.36 1.71 2.36.78 0 1.25-.41 1.52-1.23Z"/><path clip-path="url(#b)" d="M60.97 84.88c0 1.31.68 2.37 1.81 2.37 1.15 0 1.8-.98 1.8-2.37 0-1.3-.64-2.36-1.82-2.36-1.21 0-1.79 1.04-1.79 2.36m4.18-.01c0 1.53-.82 2.89-2.41 2.89-1.44 0-2.33-1.22-2.33-2.88 0-1.57.84-2.88 2.39-2.88 1.42 0 2.35 1.14 2.35 2.87"/><path clip-path="url(#b)" d="M66.57 83.51c0-.48 0-.95-.01-1.39h.52c.02.18.03.89.02 1.04.23-.56.67-1.18 1.77-1.18.95 0 1.79.55 1.79 2.07v3.57h-.53V84.15c0-.98-.39-1.62-1.32-1.62-1.27 0-1.7 1.09-1.7 2.29v2.81h-.53Z"/><path clip-path="url(#b)" d="M72.49 86.11c.18.71.67 1.14 1.51 1.14.95 0 1.33-.45 1.33-1.07 0-.63-.26-.93-1.45-1.23-1.37-.34-1.71-.77-1.71-1.5 0-.76.55-1.46 1.76-1.46s1.78.76 1.86 1.54h-.53c-.1-.46-.45-1.03-1.35-1.03-.93 0-1.19.47-1.19.91 0 .51.25.76 1.31 1.02 1.5.37 1.88.88 1.88 1.71 0 1-.79 1.62-1.91 1.62-1.21 0-1.9-.66-2.04-1.65Z"/><path clip-path="url(#b)" d="M81.24 86.01c-.26.97-.87 1.75-2.07 1.75-1.33 0-2.28-1.02-2.28-2.86 0-1.51.78-2.9 2.34-2.9 1.35 0 1.91.99 2 1.76H80.7c-.16-.64-.56-1.24-1.47-1.24-1.13 0-1.77.99-1.77 2.37 0 1.31.6 2.36 1.71 2.36.78 0 1.25-.41 1.52-1.23Z"/><path clip-path="url(#b)" d="M82.72 82.13h.53v5.5h-.53Zm0-2.61h.53v1.07h-.53Z"/><path clip-path="url(#b)" d="M85.25 84.88c0 1.31.68 2.37 1.81 2.37 1.15 0 1.8-.98 1.8-2.37 0-1.3-.64-2.36-1.82-2.36-1.21 0-1.79 1.04-1.79 2.36m4.17-.01c0 1.53-.82 2.89-2.41 2.89-1.44 0-2.33-1.22-2.33-2.88 0-1.57.84-2.88 2.39-2.88 1.42 0 2.35 1.14 2.35 2.87"/><path clip-path="url(#b)" d="M94.83 86.02c0 .54.01 1.4.01 1.61h-.51c-.02-.14-.03-.51-.03-.96-.22.65-.77 1.09-1.71 1.09-.77 0-1.75-.31-1.75-1.99V82.13h.52v3.51c0 .8.24 1.58 1.3 1.58 1.19 0 1.64-.69 1.64-2.27V82.13h.53Z"/><path clip-path="url(#b)" d="M96.63 86.11c.18.71.67 1.14 1.51 1.14.95 0 1.33-.45 1.33-1.07 0-.63-.26-.93-1.45-1.23-1.38-.34-1.71-.77-1.71-1.5 0-.76.55-1.46 1.76-1.46s1.78.76 1.86 1.54h-.53c-.1-.46-.45-1.03-1.35-1.03-.93 0-1.19.47-1.19.91 0 .51.25.76 1.31 1.02 1.5.37 1.88.88 1.88 1.71 0 1-.79 1.62-1.91 1.62-1.21 0-1.9-.66-2.04-1.65Z"/><path clip-path="url(#b)" d="M108.31 84.75c0-1.28-.6-2.23-1.65-2.23-1.29 0-1.82.84-1.82 2.33 0 1.47.42 2.39 1.75 2.39 1.11 0 1.73-.97 1.73-2.49m-3.44 2.06v3.01h-.53V83.48c0-.45 0-.94-.01-1.35h.52c.02.21.02.54.02.99.33-.66.92-1.12 1.87-1.12 1.26 0 2.13 1.09 2.13 2.74 0 1.98-1.02 3.03-2.31 3.03-.94 0-1.43-.43-1.69-.95"/><path clip-path="url(#b)" d="M110.31 87.63h.53V79.52h-.53Z" fill-rule="evenodd"/><path clip-path="url(#b)" d="M115.76 84.82h-1.04c-1.18 0-1.92.32-1.92 1.26 0 .69.48 1.17 1.23 1.17 1.52 0 1.74-1.04 1.74-2.23Zm.52 1.76c0 .48.04.87.08 1.04h-.51c-.04-.13-.07-.37-.1-.85-.18.41-.65.98-1.75.98-1.23 0-1.77-.83-1.77-1.65 0-1.21.9-1.76 2.5-1.76h1.01v-.56c0-.55-.16-1.29-1.37-1.29-1.07 0-1.23.58-1.35 1.03h-.53c.06-.6.43-1.54 1.9-1.54 1.21 0 1.9.53 1.9 1.74Z"/><path clip-path="url(#b)" d="M118.14 83.51c0-.48 0-.95-.01-1.39h.52c.02.18.03.89.02 1.04.24-.56.67-1.18 1.77-1.18.95 0 1.79.55 1.79 2.07v3.57h-.53V84.15c0-.98-.39-1.62-1.32-1.62-1.27 0-1.7 1.09-1.7 2.29v2.81h-.53Z"/><path clip-path="url(#b)" d="M124.09 83.51c0-.48 0-.95-.01-1.39h.52c.02.18.03.89.02 1.04.24-.56.67-1.18 1.77-1.18.95 0 1.79.55 1.79 2.07v3.57h-.53V84.15c0-.98-.39-1.62-1.32-1.62-1.27 0-1.71 1.09-1.71 2.29v2.81h-.53Z"/><path clip-path="url(#b)" d="M130.03 82.13h.53v5.5h-.53Zm0-2.61h.53v1.07h-.53Z"/><path clip-path="url(#b)" d="M132.42 83.51c0-.48 0-.95-.01-1.39h.52c.02.18.03.89.02 1.04.23-.56.67-1.18 1.77-1.18.95 0 1.79.55 1.79 2.07v3.57h-.53V84.15c0-.98-.4-1.62-1.32-1.62-1.27 0-1.7 1.09-1.7 2.29v2.81h-.53Z"/><path clip-path="url(#b)" d="M138.5 84.85c0 1.31.67 2.26 1.69 2.26 1.33 0 1.74-.91 1.74-2.34 0-1.45-.43-2.26-1.7-2.26-1.23 0-1.73 1.09-1.73 2.34m3.93 2.4c0 1.76-.76 2.69-2.3 2.69-1.39 0-1.96-.8-2.09-1.64h.54c.19.76.8 1.12 1.57 1.12 1.39 0 1.77-.92 1.77-2.32v-.57c-.29.71-.81 1.1-1.78 1.1-1.25 0-2.21-1.04-2.21-2.75 0-1.85 1.02-2.88 2.28-2.88 1.09 0 1.55.53 1.7.97.01-.32.02-.7.03-.84h.5c0 .2-.02 1.07-.02 1.6Z"/><path clip-path="url(#b)" d="M37.32 97.66c-.01-1.09-.59-1.95-1.63-1.95-1.1 0-1.6.79-1.72 1.95Zm-3.38.48c.01 1.42.7 2.3 1.73 2.3 1 0 1.34-.58 1.53-1.03h.54c-.22.73-.79 1.55-2.1 1.55-1.62 0-2.25-1.44-2.25-2.84 0-1.57.76-2.93 2.31-2.93 1.64 0 2.16 1.46 2.16 2.5 0 .15 0 .31-.01.45Z"/><path clip-path="url(#b)" d="M39.28 96.75c0-.47 0-.99-.01-1.42h.52c.01.19.03.66.02.98.22-.55.71-1.11 1.6-1.11.75 0 1.33.39 1.54 1.09.27-.57.8-1.09 1.74-1.09.82 0 1.67.48 1.67 2.01v3.62h-.53V97.27c0-.74-.26-1.54-1.25-1.54-1.03 0-1.5.86-1.5 1.93v3.17h-.52V97.29c0-.8-.23-1.55-1.21-1.55-1.03 0-1.53.95-1.53 2.07v3.02h-.53Z"/><path clip-path="url(#b)" d="M52.19 97.97c0-1.38-.66-2.26-1.67-2.26-1.33 0-1.8.94-1.8 2.38 0 1.3.42 2.35 1.74 2.35 1.08 0 1.74-.92 1.74-2.48m-3.97-5.25h.53v3.53c.26-.55.78-1.06 1.82-1.06 1.26 0 2.18 1.07 2.18 2.76 0 1.74-.83 3-2.32 3-.89 0-1.41-.37-1.68-1 0 .35-.01.71-.02.87h-.52c.01-.63.01-1.25.01-1.88Z"/><path clip-path="url(#b)" d="M57.74 97.66c-.01-1.09-.59-1.95-1.63-1.95-1.1 0-1.6.79-1.71 1.95Zm-3.38.48c.01 1.42.7 2.3 1.73 2.3 1 0 1.34-.58 1.53-1.03h.54c-.22.73-.79 1.55-2.1 1.55-1.62 0-2.25-1.44-2.25-2.84 0-1.57.76-2.93 2.31-2.93 1.64 0 2.16 1.46 2.16 2.5 0 .15 0 .31-.01.45Z"/><path clip-path="url(#b)" d="M59.9 98.12c0 1.51.76 2.32 1.67 2.32 1.4 0 1.79-1 1.79-2.5 0-1.42-.33-2.23-1.69-2.23-1.05 0-1.77.87-1.77 2.41m3.97-5.4v6.52c0 .53 0 1.03.01 1.58h-.51c-.02-.13-.03-.65-.03-.92-.27.67-.86 1.06-1.79 1.06-1.38 0-2.21-1.17-2.21-2.82 0-1.69.9-2.95 2.35-2.95 1.07 0 1.49.47 1.65.82v-3.3Z"/><path clip-path="url(#b)" d="M65.86 98.12c0 1.51.76 2.32 1.67 2.32 1.41 0 1.79-1 1.79-2.5 0-1.42-.33-2.23-1.69-2.23-1.05 0-1.77.87-1.77 2.41m3.97-5.4v6.52c0 .53 0 1.03.01 1.58h-.51c-.02-.13-.03-.65-.03-.92-.27.67-.86 1.06-1.79 1.06-1.38 0-2.21-1.17-2.21-2.82 0-1.69.9-2.95 2.35-2.95 1.06 0 1.49.47 1.65.82v-3.3Z"/><path clip-path="url(#b)" d="M75.18 97.66c-.01-1.09-.59-1.95-1.63-1.95-1.1 0-1.6.79-1.71 1.95Zm-3.38.48c.01 1.42.7 2.3 1.73 2.3 1 0 1.34-.58 1.53-1.03h.54c-.22.73-.79 1.55-2.1 1.55-1.62 0-2.25-1.44-2.25-2.84 0-1.57.76-2.93 2.31-2.93 1.64 0 2.16 1.46 2.16 2.5 0 .15 0 .31-.01.45Z"/><path clip-path="url(#b)" d="M77.33 98.12c0 1.51.76 2.32 1.67 2.32 1.41 0 1.79-1 1.79-2.5 0-1.42-.33-2.23-1.69-2.23-1.06 0-1.77.87-1.77 2.41m3.97-5.4v6.52c0 .53 0 1.03.01 1.58h-.51c-.02-.13-.03-.65-.03-.92-.27.67-.86 1.06-1.79 1.06-1.38 0-2.21-1.17-2.21-2.82 0-1.69.9-2.95 2.35-2.95 1.07 0 1.49.47 1.65.82v-3.3Z"/><path clip-path="url(#b)" d="M86.17 100.83V95.84h-.92v-.52h.92v-.78c0-.92.26-1.94 1.45-1.94.16 0 .39.03.52.08v.53c-.16-.04-.42-.07-.58-.07-.63 0-.86.46-.86 1.42v.76h1.16v.52H86.71v4.98Z"/><path clip-path="url(#b)" d="M88.87 96.82c0-.92-.01-1.32-.01-1.5h.52c.01.18.02.53.02 1.23.31-.82.99-1.32 1.85-1.36v.59c-1.11.08-1.85.87-1.85 2.18v2.86h-.53Z"/><path clip-path="url(#b)" d="M92.48 98.08c0 1.31.68 2.37 1.81 2.37 1.15 0 1.8-.98 1.8-2.37 0-1.3-.64-2.37-1.82-2.37-1.21 0-1.79 1.05-1.79 2.37m4.18-.01c0 1.53-.82 2.89-2.41 2.89-1.44 0-2.33-1.22-2.33-2.88 0-1.57.84-2.88 2.39-2.88 1.42 0 2.35 1.14 2.35 2.87"/><path clip-path="url(#b)" d="M98.08 96.75c0-.47 0-.99-.01-1.42h.52c.01.19.03.66.02.98.22-.55.71-1.11 1.6-1.11.75 0 1.33.39 1.54 1.09.27-.57.8-1.09 1.74-1.09.82 0 1.67.48 1.67 2.01v3.62h-.53V97.27c0-.74-.26-1.54-1.25-1.54-1.03 0-1.5.86-1.5 1.93v3.17h-.52V97.29c0-.8-.23-1.55-1.21-1.55-1.03 0-1.53.95-1.53 2.07v3.02h-.53Z"/><path clip-path="url(#b)" d="M113.82 99.21c-.26.97-.87 1.75-2.07 1.75-1.33 0-2.28-1.02-2.28-2.86 0-1.51.78-2.9 2.34-2.9 1.35 0 1.91.99 2 1.76h-.54c-.16-.64-.56-1.24-1.47-1.24-1.13 0-1.77.99-1.77 2.37 0 1.31.6 2.37 1.71 2.37.78 0 1.25-.41 1.52-1.23Z"/><path clip-path="url(#b)" d="M115.35 98.08c0 1.31.68 2.37 1.81 2.37 1.15 0 1.8-.98 1.8-2.37 0-1.3-.64-2.37-1.82-2.37-1.21 0-1.79 1.05-1.79 2.37m4.17-.01c0 1.53-.82 2.89-2.41 2.89-1.44 0-2.33-1.22-2.33-2.88 0-1.57.84-2.88 2.39-2.88 1.42 0 2.35 1.14 2.35 2.87"/><path clip-path="url(#b)" d="M120.96 96.71c0-.48 0-.95-.01-1.39h.52c.02.18.03.89.02 1.04.23-.56.67-1.18 1.77-1.18.95 0 1.79.55 1.79 2.07v3.57h-.53V97.35c0-.98-.4-1.62-1.32-1.62-1.27 0-1.7 1.09-1.7 2.29v2.81h-.53Z"/><path clip-path="url(#b)" d="M130.82 99.21c-.26.97-.87 1.75-2.07 1.75-1.33 0-2.28-1.02-2.28-2.86 0-1.51.78-2.9 2.34-2.9 1.35 0 1.91.99 2 1.76h-.54c-.16-.64-.56-1.24-1.47-1.24-1.13 0-1.77.99-1.77 2.37 0 1.31.6 2.37 1.71 2.37.78 0 1.25-.41 1.52-1.23Z"/><path clip-path="url(#b)" d="M135.71 97.66c-.01-1.09-.59-1.95-1.63-1.95-1.1 0-1.6.79-1.71 1.95Zm-3.38.48c.01 1.42.7 2.3 1.73 2.3 1 0 1.34-.58 1.53-1.03h.54c-.22.73-.79 1.55-2.1 1.55-1.62 0-2.25-1.44-2.25-2.84 0-1.57.76-2.93 2.31-2.93 1.64 0 2.16 1.46 2.16 2.5 0 .15 0 .31-.01.45Z"/><path clip-path="url(#b)" d="M141.64 97.96c0-1.28-.6-2.23-1.65-2.23-1.29 0-1.82.84-1.82 2.33 0 1.47.42 2.39 1.75 2.39 1.11 0 1.73-.97 1.73-2.49m-3.44 2.06v3.01h-.53V96.68c0-.45 0-.93-.01-1.35h.52c.02.21.02.54.02.99.33-.66.92-1.12 1.87-1.12 1.26 0 2.13 1.09 2.13 2.74 0 1.98-1.02 3.03-2.31 3.03-.94 0-1.43-.43-1.69-.95"/><path clip-path="url(#b)" d="M142.85 95.33h.99V93.61h.53v1.72h1.27v.52h-1.27v3.58c0 .62.13.97.64.97.16 0 .38-.01.55-.07v.48c-.18.08-.44.1-.66.1-.68 0-1.07-.35-1.07-1.23V95.84h-.99Z"/><path clip-path="url(#b)" d="M33.03 108.53h.99v-1.72h.53v1.72h1.27v.52H34.55v3.58c0 .62.13.97.64.97.16 0 .38-.01.55-.07V114c-.18.08-.44.1-.66.1-.68 0-1.07-.35-1.07-1.23v-3.83h-.99Z"/><path clip-path="url(#b)" d="M37.09 111.28c0 1.31.68 2.36 1.81 2.36 1.15 0 1.8-.98 1.8-2.36 0-1.3-.64-2.37-1.82-2.37-1.21 0-1.79 1.04-1.79 2.37m4.18-.01c0 1.53-.82 2.89-2.41 2.89-1.44 0-2.33-1.22-2.33-2.88 0-1.57.84-2.88 2.39-2.88 1.42 0 2.35 1.14 2.35 2.87"/><path clip-path="url(#b)" d="M49.06 110.86c-.01-1.09-.59-1.95-1.63-1.95-1.1 0-1.6.79-1.71 1.95Zm-3.38.48c.01 1.42.7 2.3 1.73 2.3 1 0 1.34-.58 1.53-1.03h.54c-.22.73-.79 1.55-2.1 1.55-1.62 0-2.25-1.44-2.25-2.84 0-1.57.76-2.93 2.31-2.93 1.64 0 2.16 1.46 2.16 2.5 0 .15 0 .31-.01.45Z"/><path clip-path="url(#b)" d="M50.99 108.53c.88 1.35 1.27 1.96 1.48 2.29h.01c.26-.37.79-1.17 1.56-2.29h.61l-1.85 2.66 1.88 2.84h-.64c-.77-1.18-1.32-2.01-1.58-2.4h-.01c-.2.32-.68 1.07-1.55 2.4h-.62l1.89-2.79-1.8-2.71Z"/><path clip-path="url(#b)" d="M59.14 110.86c-.01-1.09-.59-1.95-1.63-1.95-1.1 0-1.6.79-1.71 1.95Zm-3.38.48c.01 1.42.7 2.3 1.73 2.3 1 0 1.34-.58 1.53-1.03h.54c-.22.73-.79 1.55-2.1 1.55-1.62 0-2.25-1.44-2.25-2.84 0-1.57.76-2.93 2.31-2.93 1.64 0 2.16 1.46 2.16 2.5 0 .15 0 .31-.01.45Z"/><path clip-path="url(#b)" d="M65.07 112.41c-.26.97-.87 1.75-2.07 1.75-1.33 0-2.28-1.02-2.28-2.86 0-1.51.78-2.9 2.34-2.9 1.35 0 1.91.99 2 1.76h-.54c-.16-.64-.56-1.24-1.47-1.24-1.13 0-1.77.99-1.77 2.37 0 1.31.6 2.37 1.71 2.37.78 0 1.25-.41 1.52-1.23Z"/><path clip-path="url(#b)" d="M70.35 112.42c0 .54.01 1.4.01 1.61h-.51c-.02-.14-.03-.5-.03-.96-.22.65-.77 1.09-1.71 1.09-.77 0-1.75-.31-1.75-1.99v-3.64h.52v3.51c0 .8.24 1.58 1.3 1.58 1.19 0 1.64-.69 1.64-2.27v-2.83h.53Z"/><path clip-path="url(#b)" d="M71.53 108.53h.99v-1.72h.53v1.72h1.27v.52H73.05v3.58c0 .62.13.97.64.97.16 0 .38-.01.55-.07V114c-.18.08-.44.1-.66.1-.68 0-1.07-.35-1.07-1.23v-3.83h-.99Z"/><path clip-path="url(#b)" d="M75.51 108.53h.53v5.5h-.53Zm0-2.61h.53v1.07h-.53Z"/><path clip-path="url(#b)" d="M78.04 111.28c0 1.31.68 2.36 1.81 2.36 1.15 0 1.8-.98 1.8-2.36 0-1.3-.64-2.37-1.82-2.37-1.21 0-1.79 1.04-1.79 2.37m4.17-.01c0 1.53-.82 2.89-2.41 2.89-1.44 0-2.33-1.22-2.33-2.88 0-1.57.84-2.88 2.38-2.88 1.42 0 2.36 1.14 2.36 2.87"/><path clip-path="url(#b)" d="M83.64 109.91c0-.48 0-.95-.01-1.39h.52c.02.18.03.89.02 1.04.23-.56.67-1.18 1.77-1.18.95 0 1.79.55 1.79 2.07v3.57H87.2v-3.48c0-.98-.4-1.62-1.32-1.62-1.27 0-1.7 1.09-1.7 2.29v2.81h-.53Z"/><path clip-path="url(#b)" d="M89.21 114.03h.53v-1.42h-.53Z" fill-rule="evenodd"/><path clip-path="url(#b)" d="M34.64 53.43c.06.76.53 1.25 1.46 1.25.8 0 1.25-.3 1.25-.99 0-.59-.35-.9-1.33-1.25-1.5-.53-2.05-1.15-2.05-2.1 0-1.22.84-2.27 2.7-2.27 1.7 0 2.63.91 2.66 2.24H37.8c-.03-.46-.23-1.03-1.2-1.03-.62 0-1.08.29-1.08.88 0 .42.23.69 1.18 1.03 1.49.54 2.23 1.15 2.23 2.3 0 1.21-.71 2.38-2.97 2.38-1.83 0-2.8-.96-2.84-2.44Z" fill="#FF00A4"/><path clip-path="url(#b)" d="M44.61 54.24c-.11.5-.21 1.06-.29 1.52H42.9c.01-.16.07-.58.11-.79-.41.62-1.01.9-1.74.9-1.02 0-1.61-.71-1.35-2.01l.78-3.79h1.44l-.74 3.6c-.12.59-.03.98.58.98.63 0 1.18-.51 1.44-1.78l.58-2.79h1.45Z" fill="#FF00A4"/><path clip-path="url(#b)" d="M47.2 54c.04.49.35.76.95.76.57 0 .79-.27.79-.64 0-.37-.29-.54-.98-.77-1.29-.41-1.69-.87-1.69-1.58 0-1.03.78-1.81 2.24-1.81 1.53 0 2.22.8 2.18 1.71H49.24c-.02-.31-.17-.61-.79-.61-.36 0-.72.12-.72.52 0 .31.29.42.97.64 1.29.42 1.74.94 1.74 1.73 0 1.31-1.14 1.91-2.45 1.91-1.47 0-2.32-.68-2.26-1.87Z" fill="#FF00A4"/><path clip-path="url(#b)" d="M51.6 50.07h.82l.32-1.54h1.44l-.31 1.54H54.9l-.25 1.14H53.62l-.58 2.87c-.07.35-.04.59.39.59.17 0 .31-.01.47-.04l-.22 1.08c-.32.11-.68.11-.98.11-1.15 0-1.33-.68-1.13-1.68l.59-2.93h-.82Z" fill="#FF00A4"/><path clip-path="url(#b)" d="M58.37 53.2c-.36 0-.67.03-.95.07-.81.12-1.13.4-1.13.88 0 .33.21.58.67.58 1 0 1.25-.84 1.39-1.44Zm1.2 1.16c-.12.59-.24 1.23-.25 1.4H57.91c.01-.16.05-.46.08-.64-.27.36-.64.75-1.67.75-1.09 0-1.54-.79-1.54-1.46 0-1.59 1.34-2.01 2.56-2.15.46-.04.89-.04 1.23-.06l.05-.27c.08-.41.08-.95-.7-.95-.69 0-.81.39-.94.66H55.51c.21-.91.82-1.7 2.53-1.7 1.34 0 2.33.57 2.02 2.07Z" fill="#FF00A4"/><path clip-path="url(#b)" d="M62.42 47.73h1.45l-.29 1.41H62.14Zm-.48 2.34H63.4l-1.17 5.69H60.78Z" fill="#FF00A4"/><path clip-path="url(#b)" d="M64.58 51.51c.1-.48.2-.97.27-1.45h1.42c-.01.16-.07.57-.11.71.26-.34.74-.82 1.66-.82 1.08 0 1.71.68 1.36 2.36l-.7 3.44H67.05l.7-3.46c.14-.64 0-1.1-.62-1.1-.71 0-1.15.55-1.37 1.61l-.6 2.95H63.71Z" fill="#FF00A4"/><path clip-path="url(#b)" d="M73.52 53.2c-.36 0-.67.03-.95.07-.81.12-1.13.4-1.13.88 0 .33.21.58.67.58 1 0 1.25-.84 1.39-1.44Zm1.2 1.16c-.12.59-.24 1.23-.25 1.4H73.06c.01-.16.05-.46.08-.64-.27.36-.64.75-1.67.75-1.09 0-1.54-.79-1.54-1.46 0-1.59 1.34-2.01 2.56-2.15.46-.04.89-.04 1.23-.06l.05-.27c.08-.41.08-.95-.7-.95-.69 0-.81.39-.94.66H70.65c.21-.91.82-1.7 2.53-1.7 1.34 0 2.33.57 2.02 2.07Z" fill="#FF00A4"/><path clip-path="url(#b)" d="M80.29 52.25c0-.71-.3-1.07-.91-1.07-.75 0-1.26.57-1.48 1.76-.21 1.11.04 1.7.85 1.7 1.12 0 1.54-1.46 1.54-2.4m-2.71-4.52h1.45l-.61 2.97c.34-.43.86-.74 1.61-.74 1.15 0 1.77.9 1.77 2.14 0 1.74-.93 3.78-2.97 3.78-.76 0-1.18-.3-1.35-.65-.04.16-.09.41-.14.54H75.93c.08-.38.19-.88.31-1.46Z" fill="#FF00A4"/><path clip-path="url(#b)" d="M84.01 47.73h1.45l-.29 1.41H83.72Zm-.48 2.34h1.45l-1.17 5.69H82.36Z" fill="#FF00A4"/><path clip-path="url(#b)" d="M85.29 55.76l1.64-8.03h1.45l-1.64 8.03Z" fill="#FF00A4"/><path clip-path="url(#b)" d="M89.88 47.73h1.45l-.29 1.41H89.59Zm-.48 2.34h1.45l-1.17 5.69H88.23Z" fill="#FF00A4"/><path clip-path="url(#b)" d="M91.76 50.07h.82l.32-1.54h1.44l-.31 1.54h1.04l-.25 1.14H93.78l-.58 2.87c-.07.35-.04.59.39.59.17 0 .31-.01.47-.04l-.22 1.08c-.32.11-.68.11-.98.11-1.15 0-1.33-.68-1.13-1.68l.59-2.93h-.82Z" fill="#FF00A4"/><path clip-path="url(#b)" d="M97.1 50.07c.2 2.43.29 3.88.31 4.48h.01c.27-.63.91-2.1 2.04-4.48h1.51l-3 5.95c-.93 1.85-1.54 2.04-2.68 2.04-.15 0-.52-.03-.73-.08l.26-1.23c.1.02.26.04.48.04.67 0 .87-.28 1.09-.69l-.73-6.03Z" fill="#FF00A4"/><path clip-path="url(#b)" d="M107.45 53.2c-.36 0-.67.03-.95.07-.81.12-1.13.4-1.13.88 0 .33.21.58.67.58 1 0 1.25-.84 1.39-1.44Zm1.2 1.16c-.12.59-.24 1.23-.25 1.4H107c.01-.16.05-.46.08-.64-.28.36-.64.75-1.67.75-1.09 0-1.54-.79-1.54-1.46 0-1.59 1.34-2.01 2.56-2.15.46-.04.89-.04 1.23-.06l.05-.27c.08-.41.08-.95-.7-.95-.69 0-.81.39-.94.66h-1.48c.21-.91.82-1.7 2.53-1.7 1.34 0 2.33.57 2.02 2.07Z" fill="#FF00A4"/><path clip-path="url(#b)" d="M111.23 54c.04.49.35.76.95.76.57 0 .79-.27.79-.64 0-.37-.29-.54-.98-.77-1.29-.41-1.69-.87-1.69-1.58 0-1.03.78-1.81 2.24-1.81 1.53 0 2.22.8 2.18 1.71h-1.47c-.02-.31-.17-.61-.79-.61-.36 0-.72.12-.72.52 0 .31.29.42.97.64 1.29.42 1.74.94 1.74 1.73 0 1.31-1.14 1.91-2.45 1.91-1.47 0-2.32-.68-2.26-1.87Z" fill="#FF00A4"/><path clip-path="url(#b)" d="M34.64 66.63c.06.76.53 1.25 1.46 1.25.8 0 1.25-.3 1.25-.99 0-.59-.35-.9-1.33-1.25-1.5-.53-2.05-1.15-2.05-2.1 0-1.22.84-2.27 2.7-2.27 1.7 0 2.63.91 2.66 2.24H37.8c-.03-.46-.23-1.03-1.2-1.03-.62 0-1.08.29-1.08.88 0 .42.23.69 1.18 1.03 1.49.54 2.23 1.15 2.23 2.3 0 1.21-.71 2.38-2.97 2.38-1.83 0-2.8-.96-2.84-2.44Z" fill="#FF00A4"/><path clip-path="url(#b)" d="M40.23 63.27h.82l.32-1.54h1.44l-.31 1.54h1.04l-.25 1.14H42.25l-.58 2.87c-.07.35-.04.59.39.59.17 0 .31-.01.47-.03l-.22 1.08c-.32.1-.68.11-.98.11-1.15 0-1.33-.68-1.13-1.67l.59-2.93h-.82Z" fill="#FF00A4"/><path clip-path="url(#b)" d="M47 66.4c-.36 0-.67.03-.95.07-.81.12-1.13.4-1.13.88 0 .33.21.58.67.58 1 0 1.25-.84 1.39-1.44Zm1.2 1.16c-.12.59-.24 1.23-.25 1.39H46.55c.01-.16.05-.46.08-.64-.27.36-.64.75-1.67.75-1.09 0-1.54-.79-1.54-1.46 0-1.59 1.34-2.01 2.56-2.14.46-.05.88-.05 1.23-.06l.05-.27c.08-.41.08-.95-.7-.95-.69 0-.81.39-.94.66H44.14c.21-.92.82-1.7 2.53-1.7 1.34 0 2.33.57 2.02 2.07Z" fill="#FF00A4"/><path clip-path="url(#b)" d="M50.28 64.71c.1-.48.2-.96.28-1.45h1.42c-.01.16-.08.57-.11.71.26-.35.74-.82 1.66-.82 1.08 0 1.71.68 1.36 2.36l-.7 3.44H52.75l.7-3.46c.14-.64 0-1.1-.62-1.1-.71 0-1.15.55-1.37 1.61l-.6 2.95H49.41Z" fill="#FF00A4"/><path clip-path="url(#b)" d="M57.43 66.65c0 .76.29 1.18.89 1.18.88 0 1.35-.78 1.56-1.93.18-.97-.08-1.5-.89-1.5-1.01 0-1.56 1.23-1.56 2.25m4.86-5.71l-1.32 6.49c-.11.52-.22 1.03-.31 1.54h-1.4c.01-.21.04-.39.09-.67-.35.51-.87.78-1.6.78-1.18 0-1.83-.87-1.83-2.26 0-1.74 1.02-3.66 2.93-3.66.79 0 1.29.33 1.41.6l.58-2.83Z" fill="#FF00A4"/><path clip-path="url(#b)" d="M65.74 66.4c-.36 0-.67.03-.95.07-.81.12-1.13.4-1.13.88 0 .33.21.58.67.58 1 0 1.25-.84 1.39-1.44Zm1.2 1.16c-.12.59-.24 1.23-.25 1.39H65.29c.01-.16.05-.46.08-.64-.27.36-.64.75-1.67.75-1.09 0-1.54-.79-1.54-1.46 0-1.59 1.34-2.01 2.56-2.14.46-.05.89-.05 1.23-.06l.05-.27c.08-.41.08-.95-.7-.95-.69 0-.82.39-.94.66H62.88c.21-.92.82-1.7 2.54-1.7 1.34 0 2.33.57 2.02 2.07Z" fill="#FF00A4"/><path clip-path="url(#b)" d="M68.98 64.95c.12-.56.23-1.16.32-1.69h1.4c-.01.14-.06.57-.16 1.03.38-.68.88-1.14 1.84-1.14l-.3 1.5c-1.01.01-1.71.59-1.97 1.83l-.51 2.47H68.15Z" fill="#FF00A4"/><path clip-path="url(#b)" d="M74.06 66.65c0 .76.29 1.18.9 1.18.88 0 1.35-.78 1.56-1.93.18-.97-.08-1.5-.89-1.5-1.01 0-1.56 1.23-1.56 2.25m4.86-5.71L77.6 67.42c-.1.52-.22 1.03-.31 1.54h-1.4c.01-.21.04-.39.09-.67-.35.51-.87.78-1.6.78-1.18 0-1.83-.87-1.83-2.26 0-1.74 1.02-3.66 2.93-3.66.79 0 1.29.33 1.42.6l.58-2.83Z" fill="#FF00A4"/><path clip-path="url(#b)" d="M184.42 131.2H324.87V28.74H184.42Zm139.45-1H185.42V29.74H323.87Z"/><path clip-path="url(#b)" d="M202.26 75.57c-.35 1.22-1.23 2.15-2.8 2.15-2.14 0-3.27-1.76-3.27-3.93 0-2.08 1.11-3.97 3.28-3.97 1.61 0 2.56.92 2.8 2.21h-.57c-.34-1-.97-1.66-2.26-1.66-1.85 0-2.63 1.75-2.63 3.41 0 1.65.77 3.39 2.67 3.39 1.21 0 1.83-.65 2.21-1.6Z"/><path clip-path="url(#b)" d="M203.61 73.62c0-.92-.01-1.32-.01-1.5h.52c.01.18.02.53.02 1.23.31-.82.99-1.32 1.85-1.36v.59c-1.11.08-1.85.87-1.85 2.18v2.86h-.53Z"/><path clip-path="url(#b)" d="M210.58 74.46c-.01-1.09-.59-1.95-1.63-1.95-1.1 0-1.6.79-1.71 1.95Zm-3.38.48c.01 1.42.7 2.3 1.72 2.3 1 0 1.34-.58 1.53-1.03H211c-.22.73-.79 1.55-2.1 1.55-1.62 0-2.25-1.44-2.25-2.84 0-1.57.76-2.93 2.31-2.93 1.64 0 2.16 1.46 2.16 2.5 0 .15 0 .31-.01.45Z"/><path clip-path="url(#b)" d="M215.67 74.82h-1.04c-1.18 0-1.92.32-1.92 1.26 0 .69.48 1.17 1.22 1.17 1.52 0 1.74-1.04 1.74-2.23Zm.52 1.76c0 .48.04.87.08 1.04h-.51c-.04-.13-.07-.37-.1-.85-.18.41-.65.98-1.75.98-1.23 0-1.77-.83-1.77-1.65 0-1.21.9-1.76 2.5-1.76h1.01v-.56c0-.55-.16-1.29-1.37-1.29-1.08 0-1.24.58-1.35 1.03h-.53c.06-.6.43-1.54 1.9-1.54 1.21 0 1.9.53 1.9 1.74Z"/><path clip-path="url(#b)" d="M217.2 72.13h.99V70.41h.53v1.72h1.27v.52h-1.27v3.58c0 .62.13.97.64.97.16 0 .38-.01.55-.07v.48c-.18.08-.44.1-.66.1-.68 0-1.07-.35-1.07-1.23V72.64h-.99Z"/><path clip-path="url(#b)" d="M221.19 72.13h.53v5.5h-.53Zm0-2.61h.53v1.07h-.53Z"/><path clip-path="url(#b)" d="M223.49 72.13c.86 2.52 1.46 4.24 1.66 4.94h.01c.12-.41.71-2.05 1.75-4.94h.56l-2.01 5.5h-.64l-1.9-5.5Z"/><path clip-path="url(#b)" d="M232.12 74.46c-.01-1.09-.59-1.95-1.63-1.95-1.1 0-1.6.79-1.71 1.95Zm-3.38.48c.01 1.42.7 2.3 1.72 2.3 1 0 1.34-.58 1.53-1.03h.54c-.22.73-.79 1.55-2.1 1.55-1.62 0-2.25-1.44-2.25-2.84 0-1.57.76-2.93 2.31-2.93 1.64 0 2.16 1.46 2.16 2.5 0 .15 0 .31-.01.45Z"/><path clip-path="url(#b)" d="M240.87 76.01c-.26.97-.87 1.75-2.07 1.75-1.33 0-2.28-1.02-2.28-2.86 0-1.51.78-2.9 2.34-2.9 1.35 0 1.91.99 2 1.76h-.54c-.16-.64-.56-1.24-1.47-1.24-1.13 0-1.77.99-1.77 2.37 0 1.31.6 2.36 1.71 2.36.78 0 1.25-.41 1.52-1.23Z"/><path clip-path="url(#b)" d="M242.41 74.88c0 1.31.68 2.37 1.81 2.37 1.15 0 1.8-.98 1.8-2.37 0-1.3-.64-2.36-1.82-2.36-1.21 0-1.79 1.04-1.79 2.36m4.17-.01c0 1.53-.82 2.89-2.41 2.89-1.44 0-2.33-1.22-2.33-2.88 0-1.57.84-2.88 2.39-2.88 1.42 0 2.35 1.14 2.35 2.87"/><path clip-path="url(#b)" d="M248.01 73.51c0-.48 0-.95-.01-1.39h.52c.02.18.03.89.02 1.04.23-.56.67-1.18 1.77-1.18.95 0 1.79.55 1.79 2.07v3.57h-.53V74.15c0-.98-.39-1.62-1.32-1.62-1.27 0-1.7 1.09-1.7 2.29v2.81h-.53Z"/><path clip-path="url(#b)" d="M257.87 76.01c-.26.97-.87 1.75-2.07 1.75-1.33 0-2.28-1.02-2.28-2.86 0-1.51.78-2.9 2.34-2.9 1.35 0 1.91.99 2 1.76h-.54c-.16-.64-.56-1.24-1.47-1.24-1.13 0-1.77.99-1.77 2.37 0 1.31.6 2.36 1.72 2.36.78 0 1.25-.41 1.52-1.23Z"/><path clip-path="url(#b)" d="M262.76 74.46c-.01-1.09-.59-1.95-1.63-1.95-1.1 0-1.6.79-1.71 1.95Zm-3.38.48c.01 1.42.7 2.3 1.73 2.3 1 0 1.34-.58 1.53-1.03h.54c-.22.73-.79 1.55-2.1 1.55-1.62 0-2.25-1.44-2.25-2.84 0-1.57.76-2.93 2.31-2.93 1.64 0 2.16 1.46 2.16 2.5 0 .15 0 .31-.01.45Z"/><path clip-path="url(#b)" d="M268.7 74.75c0-1.28-.6-2.23-1.65-2.23-1.29 0-1.82.84-1.82 2.33 0 1.47.41 2.39 1.75 2.39 1.11 0 1.73-.97 1.73-2.49m-3.44 2.06v3.01h-.53V73.48c0-.45 0-.94-.01-1.35h.52c.02.21.02.54.02.99.33-.66.92-1.12 1.88-1.12 1.26 0 2.13 1.09 2.13 2.74 0 1.98-1.02 3.03-2.31 3.03-.94 0-1.43-.43-1.69-.95"/><path clip-path="url(#b)" d="M269.9 72.13h.99V70.41h.53v1.72h1.27v.52h-1.27v3.58c0 .62.13.97.64.97.16 0 .38-.01.55-.07v.48c-.18.08-.44.1-.66.1-.68 0-1.07-.35-1.07-1.23V72.64h-.99Z"/><path clip-path="url(#b)" d="M274.07 76.11c.18.71.67 1.14 1.51 1.14.95 0 1.33-.45 1.33-1.07 0-.63-.26-.93-1.45-1.23-1.37-.34-1.72-.77-1.72-1.5 0-.76.55-1.46 1.76-1.46s1.78.76 1.86 1.54h-.53c-.1-.46-.45-1.03-1.35-1.03-.93 0-1.19.47-1.19.91 0 .51.26.76 1.31 1.02 1.5.37 1.88.88 1.88 1.71 0 1-.79 1.62-1.91 1.62-1.21 0-1.89-.66-2.04-1.65Z"/><path clip-path="url(#b)" d="M280.98 72.13h.99V70.41h.53v1.72h1.27v.52H282.5v3.58c0 .62.13.97.64.97.16 0 .38-.01.55-.07v.48c-.18.08-.44.1-.66.1-.68 0-1.07-.35-1.07-1.23V72.64h-.99Z"/><path clip-path="url(#b)" d="M284.96 72.13h.53v5.5h-.53Zm0-2.61h.53v1.07h-.53Z"/><path clip-path="url(#b)" d="M287.49 74.85c0 1.31.67 2.26 1.69 2.26 1.33 0 1.74-.91 1.74-2.34 0-1.45-.43-2.26-1.7-2.26-1.22 0-1.73 1.09-1.73 2.34m3.93 2.4c0 1.76-.76 2.69-2.3 2.69-1.39 0-1.96-.8-2.09-1.64h.54c.19.76.8 1.12 1.57 1.12 1.38 0 1.77-.92 1.77-2.32v-.57c-.29.71-.81 1.1-1.78 1.1-1.25 0-2.21-1.04-2.21-2.75 0-1.85 1.02-2.88 2.28-2.88 1.09 0 1.56.53 1.7.97.01-.32.02-.7.03-.84h.5c0 .2-.02 1.07-.02 1.6Z"/><path clip-path="url(#b)" d="M293.8 69.52v3.53c.3-.57.82-1.06 1.76-1.06.76 0 1.8.4 1.8 2.13v3.5h-.53V74.24c0-1.09-.48-1.71-1.36-1.71-1.06 0-1.66.67-1.66 2.02v3.07h-.53V69.52Z"/><path clip-path="url(#b)" d="M298.39 72.13h.99V70.41h.53v1.72h1.27v.52h-1.27v3.58c0 .62.13.97.64.97.16 0 .38-.01.55-.07v.48c-.18.08-.44.1-.66.1-.68 0-1.07-.35-1.07-1.23V72.64h-.99Z"/><path clip-path="url(#b)" d="M302.34 77.63h.53V69.52h-.53Z" fill-rule="evenodd"/><path clip-path="url(#b)" d="M304.69 72.13c1.08 3.15 1.54 4.45 1.73 5.04h.01c.21-.67.64-1.95 1.67-5.04h.55l-2 5.82c-.56 1.63-.95 1.99-1.91 1.99-.19 0-.32-.01-.49-.03v-.55c.16.02.31.03.48.03.77 0 1.01-.38 1.41-1.52l-2.03-5.74Z"/><path clip-path="url(#b)" d="M199.6 88.02h-1.04c-1.18 0-1.92.32-1.92 1.26 0 .69.48 1.17 1.23 1.17 1.52 0 1.74-1.05 1.74-2.23Zm.52 1.76c0 .48.04.87.08 1.04h-.51c-.04-.13-.07-.37-.1-.85-.18.41-.65.98-1.75.98-1.23 0-1.77-.82-1.77-1.65 0-1.21.9-1.76 2.5-1.76h1.01v-.56c0-.55-.16-1.29-1.37-1.29-1.08 0-1.23.58-1.35 1.03h-.53c.06-.6.43-1.54 1.9-1.54 1.21 0 1.89.53 1.89 1.74Z"/><path clip-path="url(#b)" d="M201.98 90.83h.53V82.72h-.53Z" fill-rule="evenodd"/><path clip-path="url(#b)" d="M204.37 85.33h.53v5.5h-.53Zm0-2.61h.53v1.07h-.53Z"/><path clip-path="url(#b)" d="M206.89 88.05c0 1.31.67 2.26 1.69 2.26 1.33 0 1.74-.91 1.74-2.34 0-1.45-.43-2.26-1.7-2.26-1.22 0-1.73 1.09-1.73 2.34m3.93 2.4c0 1.76-.76 2.68-2.3 2.68-1.39 0-1.96-.8-2.09-1.64h.54c.19.76.8 1.12 1.57 1.12 1.39 0 1.77-.92 1.77-2.32v-.57c-.29.72-.81 1.1-1.78 1.1-1.25 0-2.21-1.04-2.21-2.75 0-1.85 1.02-2.88 2.28-2.88 1.09 0 1.56.53 1.7.97.01-.32.02-.7.03-.84h.5c0 .2-.02 1.07-.02 1.6Z"/><path clip-path="url(#b)" d="M212.68 86.71c0-.48 0-.95-.01-1.39h.52c.02.18.03.89.02 1.05.23-.56.67-1.18 1.77-1.18.95 0 1.79.55 1.79 2.07v3.57h-.53V87.35c0-.98-.39-1.62-1.32-1.62-1.27 0-1.7 1.09-1.7 2.29v2.8h-.53Z"/><path clip-path="url(#b)" d="M222.11 87.66c-.01-1.09-.59-1.95-1.63-1.95-1.1 0-1.6.79-1.71 1.95Zm-3.38.48c.01 1.42.7 2.3 1.73 2.3 1 0 1.34-.58 1.53-1.03h.54c-.22.73-.79 1.55-2.1 1.55-1.62 0-2.25-1.44-2.25-2.84 0-1.57.76-2.93 2.31-2.93 1.64 0 2.16 1.46 2.16 2.5 0 .15 0 .31-.01.45Z"/><path clip-path="url(#b)" d="M224.27 88.12c0 1.51.76 2.32 1.67 2.32 1.4 0 1.79-1 1.79-2.5 0-1.42-.33-2.23-1.69-2.23-1.05 0-1.77.87-1.77 2.41m3.97-5.4v6.52c0 .53 0 1.03.01 1.58h-.51c-.02-.13-.03-.65-.03-.92-.27.67-.86 1.06-1.79 1.06-1.38 0-2.22-1.17-2.22-2.82 0-1.69.91-2.95 2.36-2.95 1.06 0 1.49.47 1.65.82v-3.3Z"/><path clip-path="url(#b)" d="M232.98 85.33c.79 2.84 1.25 4.47 1.33 4.95h.01c.08-.44.62-2.17 1.45-4.95h.57c.99 3.4 1.29 4.38 1.39 4.81h.01c.15-.61.39-1.43 1.37-4.81h.56L238 90.83h-.59c-.58-1.95-1.27-4.33-1.37-4.84h-.01c-.11.54-.71 2.51-1.41 4.84h-.64l-1.57-5.5Z"/><path clip-path="url(#b)" d="M240.92 85.33h.53v5.5h-.53Zm0-2.61h.53v1.07h-.53Z"/><path clip-path="url(#b)" d="M242.58 85.33h.99V83.61h.53v1.72h1.27v.52H244.1v3.58c0 .62.13.97.64.97.16 0 .38-.01.55-.07v.48c-.18.08-.44.1-.66.1-.68 0-1.07-.35-1.07-1.23V85.84h-.99Z"/><path clip-path="url(#b)" d="M247.06 82.72v3.53c.3-.57.82-1.06 1.76-1.06.76 0 1.8.4 1.8 2.13v3.5h-.53V87.44c0-1.09-.48-1.71-1.36-1.71-1.05 0-1.66.67-1.66 2.02v3.07h-.53V82.72Z"/><path clip-path="url(#b)" d="M259.32 87.97c0-1.38-.66-2.26-1.67-2.26-1.33 0-1.8.94-1.8 2.38 0 1.3.42 2.35 1.74 2.35 1.08 0 1.74-.92 1.74-2.48m-3.97-5.25h.53v3.53c.25-.55.78-1.06 1.82-1.06 1.26 0 2.18 1.07 2.18 2.76 0 1.74-.83 3-2.32 3-.9 0-1.41-.37-1.68-1 0 .35-.01.71-.02.87h-.52c.01-.63.01-1.25.01-1.88Z"/><path clip-path="url(#b)" d="M265.3 89.22c0 .54.01 1.4.01 1.61h-.51c-.02-.14-.03-.51-.03-.96-.22.65-.77 1.09-1.72 1.09-.77 0-1.75-.31-1.75-1.99V85.33h.52v3.51c0 .8.24 1.58 1.3 1.58 1.19 0 1.64-.69 1.64-2.27V85.33h.53Z"/><path clip-path="url(#b)" d="M267.09 89.31c.18.72.67 1.14 1.51 1.14.95 0 1.33-.45 1.33-1.07 0-.63-.26-.94-1.45-1.23-1.37-.34-1.72-.77-1.72-1.5 0-.76.55-1.46 1.76-1.46s1.78.76 1.86 1.54h-.53c-.1-.46-.45-1.03-1.35-1.03-.93 0-1.19.47-1.19.91 0 .51.26.76 1.31 1.02 1.5.37 1.88.88 1.88 1.71 0 1-.79 1.62-1.91 1.62-1.21 0-1.89-.66-2.04-1.65Z"/><path clip-path="url(#b)" d="M271.92 85.33h.53v5.5h-.53Zm0-2.61h.53v1.07h-.53Z"/><path clip-path="url(#b)" d="M274.31 86.71c0-.48 0-.95-.01-1.39h.52c.02.18.03.89.02 1.05.23-.56.67-1.18 1.77-1.18.95 0 1.79.55 1.79 2.07v3.57h-.53V87.35c0-.98-.39-1.62-1.32-1.62-1.27 0-1.7 1.09-1.7 2.29v2.8h-.53Z"/><path clip-path="url(#b)" d="M283.75 87.66c-.01-1.09-.59-1.95-1.63-1.95-1.1 0-1.6.79-1.71 1.95Zm-3.38.48c.01 1.42.7 2.3 1.72 2.3 1 0 1.34-.58 1.53-1.03h.54c-.22.73-.79 1.55-2.1 1.55-1.62 0-2.25-1.44-2.25-2.84 0-1.57.76-2.93 2.31-2.93 1.64 0 2.16 1.46 2.16 2.5 0 .15 0 .31-.01.45Z"/><path clip-path="url(#b)" d="M285.84 89.31c.18.72.67 1.14 1.51 1.14.95 0 1.33-.45 1.33-1.07 0-.63-.26-.94-1.45-1.23-1.37-.34-1.71-.77-1.71-1.5 0-.76.55-1.46 1.76-1.46s1.78.76 1.86 1.54h-.53c-.09-.46-.45-1.03-1.35-1.03-.93 0-1.19.47-1.19.91 0 .51.26.76 1.31 1.02 1.5.37 1.88.88 1.88 1.71 0 1-.79 1.62-1.91 1.62-1.21 0-1.9-.66-2.05-1.65Z"/><path clip-path="url(#b)" d="M290.8 89.31c.18.72.67 1.14 1.51 1.14.95 0 1.33-.45 1.33-1.07 0-.63-.26-.94-1.45-1.23-1.37-.34-1.71-.77-1.71-1.5 0-.76.55-1.46 1.76-1.46s1.78.76 1.86 1.54h-.53c-.1-.46-.45-1.03-1.35-1.03-.93 0-1.19.47-1.19.91 0 .51.26.76 1.31 1.02 1.5.37 1.88.88 1.88 1.71 0 1-.79 1.62-1.91 1.62-1.21 0-1.9-.66-2.04-1.65Z"/><path clip-path="url(#b)" d="M196.6 101.25c0 1.31.67 2.26 1.69 2.26 1.33 0 1.74-.91 1.74-2.34 0-1.45-.43-2.26-1.7-2.26-1.22 0-1.73 1.09-1.73 2.34m3.93 2.4c0 1.76-.76 2.69-2.3 2.69-1.38 0-1.96-.8-2.09-1.64h.54c.19.76.8 1.12 1.57 1.12 1.39 0 1.77-.92 1.77-2.32v-.57c-.29.71-.81 1.1-1.78 1.1-1.25 0-2.21-1.04-2.21-2.75 0-1.85 1.02-2.88 2.28-2.88 1.09 0 1.56.53 1.7.97.01-.32.02-.7.03-.84h.5c0 .2-.02 1.07-.02 1.6Z"/><path clip-path="url(#b)" d="M202.52 101.28c0 1.31.68 2.36 1.81 2.36 1.15 0 1.8-.98 1.8-2.36 0-1.3-.64-2.37-1.82-2.37-1.21 0-1.79 1.04-1.79 2.37m4.17-.01c0 1.53-.82 2.89-2.41 2.89-1.44 0-2.33-1.22-2.33-2.88 0-1.57.84-2.88 2.39-2.88 1.42 0 2.35 1.14 2.35 2.87"/><path clip-path="url(#b)" d="M211.26 101.22h-1.04c-1.18 0-1.92.32-1.92 1.26 0 .69.48 1.17 1.22 1.17 1.52 0 1.74-1.04 1.74-2.23Zm.52 1.76c0 .48.04.87.08 1.04h-.51c-.04-.13-.07-.37-.1-.85-.18.41-.65.98-1.75.98-1.23 0-1.77-.82-1.77-1.65 0-1.21.9-1.76 2.5-1.76h1.01v-.56c0-.55-.16-1.29-1.37-1.29-1.08 0-1.23.58-1.35 1.03h-.53c.06-.6.43-1.54 1.9-1.54 1.21 0 1.9.53 1.9 1.74Z"/><path clip-path="url(#b)" d="M213.65 104.03h.53V95.92h-.53Z" fill-rule="evenodd"/><path clip-path="url(#b)" d="M215.98 102.51c.18.71.67 1.14 1.51 1.14.95 0 1.33-.45 1.33-1.07 0-.63-.26-.93-1.45-1.23-1.37-.34-1.72-.77-1.72-1.5 0-.76.55-1.46 1.76-1.46s1.78.76 1.86 1.54h-.53c-.1-.46-.45-1.03-1.35-1.03-.93 0-1.19.47-1.19.91 0 .51.26.76 1.31 1.02 1.5.37 1.88.88 1.88 1.71 0 1-.79 1.62-1.91 1.62-1.21 0-1.9-.66-2.05-1.65Z"/><path clip-path="url(#b)" d="M220.72 104.03h.53v-1.42h-.53Z" fill-rule="evenodd"/><path clip-path="url(#b)" d="M197.28 53.43c.06.76.53 1.25 1.46 1.25.8 0 1.25-.3 1.25-.99 0-.59-.36-.9-1.33-1.25-1.49-.53-2.05-1.15-2.05-2.1 0-1.22.84-2.27 2.7-2.27 1.7 0 2.63.91 2.66 2.24h-1.53c-.03-.46-.23-1.03-1.2-1.03-.62 0-1.08.29-1.08.88 0 .42.23.69 1.18 1.03 1.49.54 2.23 1.15 2.23 2.3 0 1.21-.71 2.38-2.97 2.38-1.83 0-2.8-.96-2.84-2.44Z" fill="#FF00A4"/><path clip-path="url(#b)" d="M202.87 50.07h.82l.32-1.54h1.44l-.31 1.54h1.04l-.25 1.14h-1.04l-.58 2.87c-.07.35-.04.59.39.59.17 0 .31-.01.47-.04l-.22 1.08c-.32.11-.68.11-.98.11-1.15 0-1.33-.68-1.13-1.68l.59-2.93h-.82Z" fill="#FF00A4"/><path clip-path="url(#b)" d="M206.93 51.75c.11-.56.22-1.16.32-1.69h1.4c-.01.14-.06.57-.16 1.03.38-.68.88-1.14 1.84-1.14l-.3 1.5c-1.01.01-1.71.58-1.97 1.83l-.51 2.47h-1.45Z" fill="#FF00A4"/><path clip-path="url(#b)" d="M213.7 53.2c-.36 0-.67.03-.95.07-.81.12-1.13.4-1.13.88 0 .33.21.58.67.58 1 0 1.25-.84 1.39-1.44Zm1.2 1.16c-.12.59-.24 1.23-.25 1.4h-1.41c.01-.16.05-.46.08-.64-.28.36-.64.75-1.67.75-1.09 0-1.54-.79-1.54-1.46 0-1.59 1.34-2.01 2.56-2.15.46-.04.89-.04 1.23-.06l.05-.27c.08-.41.08-.95-.7-.95-.69 0-.81.39-.94.66h-1.48c.21-.91.82-1.7 2.54-1.7 1.34 0 2.33.57 2.02 2.07Z" fill="#FF00A4"/><path clip-path="url(#b)" d="M216.6 50.07h.82l.32-1.54h1.44l-.31 1.54h1.04l-.25 1.14h-1.04l-.58 2.87c-.07.35-.04.59.39.59.17 0 .31-.01.47-.04l-.22 1.08c-.32.11-.68.11-.98.11-1.15 0-1.33-.68-1.13-1.68l.59-2.93h-.82Z" fill="#FF00A4"/><path clip-path="url(#b)" d="M223.75 52.26c.02-.11.02-.19.02-.25 0-.5-.21-.92-.85-.92-.66 0-1.07.44-1.26 1.18Zm-2.28 1c-.02.12-.04.21-.04.34 0 .6.22 1.12.87 1.12.59 0 .85-.33 1.03-.69h1.51c-.31.84-1.01 1.85-2.66 1.85-1.48 0-2.21-.96-2.21-2.34 0-1.5.8-3.58 2.99-3.58 1.62 0 2.19 1.02 2.19 2.19 0 .46-.06.79-.15 1.11Z" fill="#FF00A4"/><path clip-path="url(#b)" d="M227.54 53.38c0 .7.29 1.11.9 1.11.77 0 1.24-.67 1.46-1.71.16-.77.12-1.61-.86-1.61-1.01 0-1.5 1.2-1.5 2.21m3.28 1.56c-.38 1.84-.87 3.12-3.02 3.12-2.07 0-2.25-1.14-2.26-1.81h1.47c.02.34.24.69.9.69.84 0 1.16-.53 1.43-1.74l.04-.17c-.36.47-.83.68-1.54.68-1.19 0-1.83-.9-1.83-2.21 0-1.68 1.05-3.53 2.8-3.53.85 0 1.31.32 1.46.68.05-.17.14-.45.19-.57h1.39c-.1.42-.21.94-.31 1.42Z" fill="#FF00A4"/><path clip-path="url(#b)" d="M233.79 47.73h1.45l-.29 1.41h-1.45Zm-.48 2.34h1.45l-1.17 5.69h-1.45Z" fill="#FF00A4"/><path clip-path="url(#b)" d="M240.12 53.9c-.3 1.08-1.04 1.97-2.67 1.97-1.39 0-2.13-.85-2.13-2.21 0-1.66.92-3.71 2.96-3.71 1.79 0 2.24 1.3 2.16 2.03h-1.41c-.01-.44-.15-.88-.8-.88-1.02 0-1.42 1.59-1.42 2.49 0 .8.31 1.15.82 1.15.49 0 .82-.28 1.04-.84Z" fill="#FF00A4"/><path clip-path="url(#b)" d="M247.97 52.69c-.17-1.56-.28-2.64-.31-3.33h-.01c-.34.76-.93 1.98-1.62 3.33Zm-2.53 1.27l-.91 1.8h-1.58l3.95-7.59h1.9l.95 7.59h-1.51l-.23-1.8Z" fill="#FF00A4"/><path clip-path="url(#b)" d="M250.68 55.76l1.64-8.03h1.45l-1.64 8.03Z" fill="#FF00A4"/><path clip-path="url(#b)" d="M255.27 47.73h1.45l-.29 1.41h-1.45Zm-.48 2.34h1.45l-1.17 5.69h-1.45Z" fill="#FF00A4"/><path clip-path="url(#b)" d="M258.31 53.38c0 .7.29 1.11.9 1.11.77 0 1.24-.67 1.46-1.71.16-.77.12-1.61-.86-1.61-1 0-1.5 1.2-1.5 2.21m3.28 1.56c-.38 1.84-.87 3.12-3.02 3.12-2.07 0-2.25-1.14-2.26-1.81h1.47c.02.34.24.69.9.69.83 0 1.16-.53 1.42-1.74l.04-.17c-.36.47-.83.68-1.54.68-1.19 0-1.83-.9-1.83-2.21 0-1.68 1.05-3.53 2.8-3.53.85 0 1.31.32 1.46.68.05-.17.14-.45.19-.57h1.39c-.1.42-.21.94-.31 1.42Z" fill="#FF00A4"/><path clip-path="url(#b)" d="M263.79 51.51c.1-.48.2-.97.28-1.45h1.42c-.01.16-.08.57-.11.71.26-.34.74-.82 1.66-.82 1.08 0 1.71.68 1.36 2.36l-.71 3.44h-1.44l.7-3.46c.14-.64 0-1.1-.62-1.1-.71 0-1.15.55-1.37 1.61l-.6 2.95h-1.45Z" fill="#FF00A4"/><path clip-path="url(#b)" d="M270.02 51.67c.11-.54.22-1.09.31-1.6h1.42c-.02.13-.06.44-.11.66.36-.46.77-.77 1.53-.77.78 0 1.15.36 1.26.91.39-.5.93-.91 1.8-.91.94 0 1.64.55 1.32 2.1l-.76 3.71h-1.41l.72-3.52c.1-.51.08-1.04-.6-1.04-.66 0-.96.49-1.13 1.36l-.66 3.21h-1.43l.73-3.54c.11-.55.03-1.01-.59-1.01-.65 0-.98.47-1.17 1.43l-.64 3.12h-1.43Z" fill="#FF00A4"/><path clip-path="url(#b)" d="M282.3 52.26c.02-.11.02-.19.02-.25 0-.5-.21-.92-.85-.92-.66 0-1.07.44-1.26 1.18Zm-2.28 1c-.02.12-.04.21-.04.34 0 .6.22 1.12.87 1.12.59 0 .85-.33 1.03-.69h1.51c-.31.84-1.01 1.85-2.66 1.85-1.48 0-2.21-.96-2.21-2.34 0-1.5.8-3.58 2.99-3.58 1.62 0 2.19 1.02 2.19 2.19 0 .46-.06.79-.15 1.11Z" fill="#FF00A4"/><path clip-path="url(#b)" d="M285.15 51.51c.1-.48.2-.97.28-1.45h1.42c-.01.16-.08.57-.11.71.26-.34.74-.82 1.66-.82 1.09 0 1.71.68 1.36 2.36l-.71 3.44h-1.44l.7-3.46c.14-.64 0-1.1-.62-1.1-.71 0-1.15.55-1.37 1.61l-.6 2.95h-1.45Z" fill="#FF00A4"/><path clip-path="url(#b)" d="M291.02 50.07h.82l.32-1.54h1.44l-.31 1.54h1.04l-.25 1.14h-1.04l-.58 2.87c-.07.35-.04.59.39.59.17 0 .31-.01.47-.04l-.22 1.08c-.32.11-.68.11-.98.11-1.15 0-1.33-.68-1.13-1.68l.59-2.93h-.82Z" fill="#FF00A4"/><path clip-path="url(#b)" d="M347.05 131.2H487.5V28.74H347.05Zm139.45-1H348.05V29.74H486.5Z"/><path clip-path="url(#b)" d="M364.89 75.57c-.35 1.22-1.22 2.15-2.8 2.15-2.14 0-3.27-1.76-3.27-3.93 0-2.08 1.11-3.97 3.28-3.97 1.61 0 2.56.92 2.8 2.21h-.58c-.34-1-.97-1.66-2.26-1.66-1.85 0-2.63 1.75-2.63 3.41 0 1.65.77 3.39 2.67 3.39 1.21 0 1.83-.65 2.21-1.6Z"/><path clip-path="url(#b)" d="M366.55 74.88c0 1.31.68 2.37 1.81 2.37 1.15 0 1.8-.98 1.8-2.37 0-1.3-.64-2.36-1.82-2.36-1.22 0-1.79 1.04-1.79 2.36m4.17-.01c0 1.53-.82 2.89-2.41 2.89-1.44 0-2.33-1.22-2.33-2.88 0-1.57.84-2.88 2.38-2.88 1.42 0 2.35 1.14 2.35 2.87"/><path clip-path="url(#b)" d="M372.15 77.63h.53V69.52h-.53Z" fill-rule="evenodd"/><path clip-path="url(#b)" d="M374.53 77.63h.53V69.52h-.53Z" fill-rule="evenodd"/><path clip-path="url(#b)" d="M379.98 74.82h-1.04c-1.18 0-1.92.32-1.92 1.26 0 .69.48 1.17 1.23 1.17 1.52 0 1.74-1.04 1.74-2.23Zm.52 1.76c0 .48.04.87.08 1.04h-.51c-.04-.13-.07-.37-.1-.85-.18.41-.65.98-1.75.98-1.23 0-1.77-.83-1.77-1.65 0-1.21.91-1.76 2.5-1.76h1.01v-.56c0-.55-.16-1.29-1.38-1.29-1.08 0-1.23.58-1.35 1.03h-.53c.07-.6.43-1.54 1.9-1.54 1.21 0 1.89.53 1.89 1.74Z"/><path clip-path="url(#b)" d="M386.34 74.77c0-1.38-.66-2.26-1.67-2.26-1.33 0-1.8.93-1.8 2.38 0 1.3.42 2.35 1.74 2.35 1.08 0 1.74-.92 1.74-2.47m-3.97-5.25h.53v3.53c.26-.55.78-1.06 1.82-1.06 1.26 0 2.18 1.07 2.18 2.76 0 1.74-.83 3-2.32 3-.89 0-1.41-.37-1.68-1 0 .35-.01.71-.02.87h-.52c.01-.63.01-1.25.01-1.88Z"/><path clip-path="url(#b)" d="M388.53 74.88c0 1.31.68 2.37 1.81 2.37 1.15 0 1.8-.98 1.8-2.37 0-1.3-.64-2.36-1.82-2.36-1.22 0-1.79 1.04-1.79 2.36m4.17-.01c0 1.53-.82 2.89-2.41 2.89-1.44 0-2.33-1.22-2.33-2.88 0-1.57.84-2.88 2.38-2.88 1.42 0 2.36 1.14 2.36 2.87"/><path clip-path="url(#b)" d="M394.14 73.62c0-.92-.01-1.32-.01-1.5h.52c.01.18.02.53.02 1.23.31-.82.99-1.32 1.85-1.36v.59c-1.11.08-1.85.87-1.85 2.18v2.86h-.53Z"/><path clip-path="url(#b)" d="M400.64 74.82H399.6c-1.18 0-1.92.32-1.92 1.26 0 .69.48 1.17 1.23 1.17 1.52 0 1.74-1.04 1.74-2.23Zm.52 1.76c0 .48.04.87.08 1.04h-.51c-.04-.13-.07-.37-.1-.85-.18.41-.65.98-1.75.98-1.24 0-1.77-.83-1.77-1.65 0-1.21.9-1.76 2.5-1.76h1.01v-.56c0-.55-.16-1.29-1.37-1.29-1.08 0-1.24.58-1.35 1.03h-.53c.06-.6.43-1.54 1.9-1.54 1.22 0 1.9.53 1.9 1.74Z"/><path clip-path="url(#b)" d="M402.18 72.13h.99V70.41h.53v1.72h1.27v.52H403.7v3.58c0 .62.13.97.64.97.16 0 .38-.01.56-.07v.48c-.18.08-.44.1-.66.1-.68 0-1.07-.35-1.07-1.23V72.64h-.99Z"/><path clip-path="url(#b)" d="M406.16 72.13h.53v5.5h-.53Zm0-2.61h.53v1.07h-.53Z"/><path clip-path="url(#b)" d="M408.46 72.13c.86 2.52 1.46 4.24 1.66 4.94h.01c.12-.41.71-2.05 1.75-4.94h.56l-2.01 5.5h-.64l-1.9-5.5Z"/><path clip-path="url(#b)" d="M417.09 74.46c-.01-1.09-.59-1.95-1.63-1.95-1.1 0-1.6.79-1.72 1.95Zm-3.38.48c.01 1.42.7 2.3 1.73 2.3 1 0 1.34-.58 1.53-1.03h.54c-.23.73-.79 1.55-2.1 1.55-1.62 0-2.25-1.44-2.25-2.84 0-1.57.76-2.93 2.31-2.93 1.64 0 2.16 1.46 2.16 2.5 0 .15 0 .31-.01.45Z"/><path clip-path="url(#b)" d="M418.41 78.88c.52-1.07.71-2.05.75-2.66h.53c-.07.91-.42 2-.8 2.66Z"/><path clip-path="url(#b)" d="M423.25 72.13h.99V70.41h.53v1.72h1.27v.52h-1.27v3.58c0 .62.13.97.64.97.16 0 .38-.01.55-.07v.48c-.18.08-.44.1-.66.1-.68 0-1.07-.35-1.07-1.23V72.64h-.99Z"/><path clip-path="url(#b)" d="M427.14 73.62c0-.92-.01-1.32-.01-1.5h.52c.01.18.02.53.02 1.23.31-.82.99-1.32 1.85-1.36v.59c-1.11.08-1.85.87-1.85 2.18v2.86h-.53Z"/><path clip-path="url(#b)" d="M433.64 74.82H432.6c-1.18 0-1.92.32-1.92 1.26 0 .69.48 1.17 1.23 1.17 1.52 0 1.74-1.04 1.74-2.23Zm.52 1.76c0 .48.04.87.08 1.04h-.51c-.04-.13-.08-.37-.1-.85-.18.41-.65.98-1.75.98-1.23 0-1.77-.83-1.77-1.65 0-1.21.91-1.76 2.5-1.76h1.01v-.56c0-.55-.16-1.29-1.38-1.29-1.07 0-1.23.58-1.35 1.03h-.53c.06-.6.43-1.54 1.9-1.54 1.21 0 1.89.53 1.89 1.74Z"/><path clip-path="url(#b)" d="M436.03 73.51c0-.48 0-.95-.01-1.39h.52c.02.18.03.89.02 1.04.23-.56.67-1.18 1.77-1.18.95 0 1.79.55 1.79 2.07v3.57h-.53V74.15c0-.98-.39-1.62-1.32-1.62-1.27 0-1.7 1.09-1.7 2.29v2.81h-.53Z"/><path clip-path="url(#b)" d="M441.94 76.11c.18.71.67 1.14 1.51 1.14.95 0 1.33-.45 1.33-1.07 0-.63-.26-.93-1.45-1.23-1.37-.34-1.72-.77-1.72-1.5 0-.76.55-1.46 1.76-1.46s1.78.76 1.86 1.54h-.53c-.1-.46-.45-1.03-1.35-1.03-.93 0-1.19.47-1.19.91 0 .51.26.76 1.31 1.02 1.5.37 1.88.88 1.88 1.71 0 1-.79 1.62-1.91 1.62-1.22 0-1.9-.66-2.05-1.65Z"/><path clip-path="url(#b)" d="M450.68 74.75c0-1.28-.6-2.23-1.65-2.23-1.29 0-1.82.84-1.82 2.33 0 1.47.42 2.39 1.75 2.39 1.11 0 1.73-.97 1.73-2.49m-3.44 2.06v3.01h-.53V73.48c0-.45 0-.94-.01-1.35h.52c.02.21.02.54.02.99.33-.66.92-1.12 1.88-1.12 1.26 0 2.13 1.09 2.13 2.74 0 1.98-1.02 3.03-2.31 3.03-.94 0-1.43-.43-1.69-.95"/><path clip-path="url(#b)" d="M455.81 74.82h-1.04c-1.18 0-1.92.32-1.92 1.26 0 .69.48 1.17 1.22 1.17 1.52 0 1.74-1.04 1.74-2.23Zm.52 1.76c0 .48.04.87.08 1.04h-.51c-.04-.13-.07-.37-.1-.85-.18.41-.65.98-1.75.98-1.24 0-1.77-.83-1.77-1.65 0-1.21.91-1.76 2.5-1.76h1.01v-.56c0-.55-.16-1.29-1.37-1.29-1.08 0-1.23.58-1.35 1.03h-.53c.06-.6.43-1.54 1.9-1.54 1.21 0 1.9.53 1.9 1.74Z"/><path clip-path="url(#b)" d="M458.2 73.62c0-.92-.01-1.32-.01-1.5h.52c.01.18.02.53.02 1.23.31-.82.99-1.32 1.85-1.36v.59c-1.11.08-1.85.87-1.85 2.18v2.86h-.53Z"/><path clip-path="url(#b)" d="M465.16 74.46c-.01-1.09-.59-1.95-1.63-1.95-1.1 0-1.6.79-1.71 1.95Zm-3.38.48c.01 1.42.7 2.3 1.72 2.3 1 0 1.34-.58 1.53-1.03h.54c-.22.73-.79 1.55-2.1 1.55-1.62 0-2.25-1.44-2.25-2.84 0-1.57.76-2.93 2.31-2.93 1.64 0 2.16 1.46 2.16 2.5 0 .15 0 .31-.01.45Z"/><path clip-path="url(#b)" d="M467.12 73.51c0-.48 0-.95-.01-1.39h.52c.02.18.03.89.02 1.04.23-.56.67-1.18 1.77-1.18.95 0 1.79.55 1.79 2.07v3.57h-.53V74.15c0-.98-.39-1.62-1.32-1.62-1.27 0-1.7 1.09-1.7 2.29v2.81h-.53Z"/><path clip-path="url(#b)" d="M472.24 72.13h.99V70.41h.53v1.72h1.27v.52h-1.27v3.58c0 .62.13.97.64.97.16 0 .38-.01.56-.07v.48c-.18.08-.44.1-.66.1-.68 0-1.07-.35-1.07-1.23V72.64h-.99Z"/><path clip-path="url(#b)" d="M362.23 88.02h-1.04c-1.18 0-1.92.32-1.92 1.26 0 .69.48 1.17 1.22 1.17 1.52 0 1.74-1.05 1.74-2.23Zm.52 1.76c0 .48.04.87.08 1.04h-.51c-.04-.13-.08-.37-.1-.85-.18.41-.65.98-1.75.98-1.23 0-1.77-.82-1.77-1.65 0-1.21.91-1.76 2.5-1.76h1.01v-.56c0-.55-.16-1.29-1.37-1.29-1.08 0-1.23.58-1.35 1.03h-.53c.06-.6.43-1.54 1.9-1.54 1.21 0 1.9.53 1.9 1.74Z"/><path clip-path="url(#b)" d="M368.59 87.96c0-1.28-.6-2.23-1.65-2.23-1.29 0-1.82.84-1.82 2.33 0 1.47.42 2.39 1.75 2.39 1.11 0 1.73-.97 1.73-2.49m-3.44 2.06v3.01h-.53V86.68c0-.45 0-.93-.01-1.35h.52c.02.21.02.54.02.99.33-.66.92-1.12 1.88-1.12 1.26 0 2.13 1.09 2.13 2.74 0 1.98-1.02 3.03-2.31 3.03-.94 0-1.43-.43-1.69-.95"/><path clip-path="url(#b)" d="M374.57 87.96c0-1.28-.6-2.23-1.65-2.23-1.29 0-1.82.84-1.82 2.33 0 1.47.41 2.39 1.75 2.39 1.11 0 1.73-.97 1.73-2.49m-3.44 2.06v3.01h-.53V86.68c0-.45 0-.93-.01-1.35h.52c.02.21.02.54.02.99.33-.66.92-1.12 1.88-1.12 1.26 0 2.13 1.09 2.13 2.74 0 1.98-1.02 3.03-2.31 3.03-.94 0-1.43-.43-1.69-.95"/><path clip-path="url(#b)" d="M376.57 86.82c0-.92-.01-1.32-.01-1.5h.52c.01.18.02.53.02 1.23.31-.82.99-1.32 1.85-1.36v.59c-1.11.08-1.85.87-1.85 2.18v2.86h-.53Z"/><path clip-path="url(#b)" d="M380.18 88.08c0 1.31.68 2.37 1.81 2.37 1.15 0 1.8-.98 1.8-2.37 0-1.3-.64-2.37-1.82-2.37-1.21 0-1.79 1.05-1.79 2.37m4.18-.01c0 1.53-.82 2.89-2.41 2.89-1.44 0-2.33-1.22-2.33-2.88 0-1.57.84-2.88 2.39-2.88 1.42 0 2.35 1.14 2.35 2.87"/><path clip-path="url(#b)" d="M388.92 88.02h-1.04c-1.18 0-1.92.32-1.92 1.26 0 .69.48 1.17 1.22 1.17 1.52 0 1.74-1.05 1.74-2.23Zm.52 1.76c0 .48.04.87.08 1.04H389c-.04-.13-.07-.37-.1-.85-.18.41-.65.98-1.75.98-1.23 0-1.77-.82-1.77-1.65 0-1.21.91-1.76 2.5-1.76h1.01v-.56c0-.55-.16-1.29-1.37-1.29-1.08 0-1.23.58-1.35 1.03h-.53c.07-.6.43-1.54 1.9-1.54 1.21 0 1.9.53 1.9 1.74Z"/><path clip-path="url(#b)" d="M395.22 89.21c-.26.97-.87 1.75-2.07 1.75-1.33 0-2.28-1.02-2.28-2.86 0-1.51.78-2.9 2.34-2.9 1.35 0 1.91.99 2 1.76h-.54c-.16-.64-.56-1.24-1.47-1.24-1.13 0-1.77.99-1.77 2.37 0 1.31.6 2.37 1.71 2.37.78 0 1.25-.41 1.52-1.23Z"/><path clip-path="url(#b)" d="M397.1 82.72v3.53c.3-.57.82-1.06 1.76-1.06.76 0 1.8.4 1.8 2.13v3.5h-.53V87.44c0-1.09-.48-1.71-1.36-1.71-1.05 0-1.66.67-1.66 2.02v3.07h-.53V82.72Z"/><path clip-path="url(#b)" d="M405.39 85.33c.79 2.84 1.25 4.47 1.33 4.95h.01c.08-.44.62-2.17 1.45-4.95h.58c.99 3.4 1.29 4.38 1.39 4.81h.01c.15-.61.39-1.43 1.37-4.81h.57l-1.68 5.5h-.59c-.58-1.95-1.27-4.33-1.37-4.84h-.01c-.11.54-.71 2.51-1.4 4.84h-.64l-1.57-5.5Z"/><path clip-path="url(#b)" d="M413.33 85.33h.53v5.5h-.53Zm0-2.61h.53v1.07h-.53Z"/><path clip-path="url(#b)" d="M414.99 85.33h.99V83.61h.53v1.72h1.27v.52h-1.27v3.58c0 .62.13.97.64.97.16 0 .38-.01.55-.07v.48c-.18.08-.44.1-.66.1-.68 0-1.07-.35-1.07-1.23V85.84h-.99Z"/><path clip-path="url(#b)" d="M419.48 82.72v3.53c.3-.57.82-1.06 1.76-1.06.76 0 1.8.4 1.8 2.13v3.5h-.53V87.44c0-1.09-.48-1.71-1.36-1.71-1.05 0-1.66.67-1.66 2.02v3.07h-.53V82.72Z"/><path clip-path="url(#b)" d="M362.23 101.22h-1.04c-1.18 0-1.92.32-1.92 1.26 0 .69.48 1.17 1.22 1.17 1.52 0 1.74-1.04 1.74-2.23Zm.52 1.76c0 .48.04.87.08 1.04h-.51c-.04-.13-.08-.37-.1-.85-.18.41-.65.98-1.75.98-1.23 0-1.77-.82-1.77-1.65 0-1.21.91-1.76 2.5-1.76h1.01v-.56c0-.55-.16-1.29-1.37-1.29-1.08 0-1.23.58-1.35 1.03h-.53c.06-.6.43-1.54 1.9-1.54 1.21 0 1.9.53 1.9 1.74Z"/><path clip-path="url(#b)" d="M368.54 102.41c-.26.97-.87 1.75-2.07 1.75-1.33 0-2.28-1.02-2.28-2.86 0-1.51.78-2.9 2.34-2.9 1.35 0 1.91.99 2 1.76h-.54c-.16-.64-.56-1.24-1.47-1.24-1.13 0-1.77.99-1.77 2.37 0 1.31.6 2.37 1.71 2.37.78 0 1.25-.41 1.52-1.23Z"/><path clip-path="url(#b)" d="M373.85 102.41c-.26.97-.87 1.75-2.07 1.75-1.33 0-2.28-1.02-2.28-2.86 0-1.51.78-2.9 2.34-2.9 1.35 0 1.91.99 2 1.76h-.54c-.16-.64-.56-1.24-1.47-1.24-1.13 0-1.77.99-1.77 2.37 0 1.31.6 2.37 1.71 2.37.78 0 1.25-.41 1.52-1.23Z"/><path clip-path="url(#b)" d="M375.39 101.28c0 1.31.68 2.36 1.81 2.36 1.15 0 1.8-.98 1.8-2.36 0-1.3-.64-2.37-1.82-2.37-1.21 0-1.79 1.04-1.79 2.37m4.17-.01c0 1.53-.82 2.89-2.41 2.89-1.44 0-2.33-1.22-2.33-2.88 0-1.57.84-2.88 2.39-2.88 1.42 0 2.35 1.14 2.35 2.87"/><path clip-path="url(#b)" d="M384.97 102.42c0 .54.01 1.4.01 1.61h-.51c-.02-.14-.03-.5-.03-.96-.22.65-.77 1.09-1.72 1.09-.77 0-1.75-.31-1.75-1.99V98.53h.52v3.51c0 .8.24 1.58 1.3 1.58 1.19 0 1.64-.69 1.64-2.27V98.53h.53Z"/><path clip-path="url(#b)" d="M386.83 99.91c0-.48 0-.95-.01-1.39h.52c.02.18.03.89.02 1.04.23-.56.67-1.18 1.77-1.18.95 0 1.79.55 1.79 2.07v3.57h-.53v-3.48c0-.98-.39-1.62-1.32-1.62-1.27 0-1.7 1.09-1.7 2.29v2.81h-.53Z"/><path clip-path="url(#b)" d="M391.94 98.53h.99V96.81h.53v1.72h1.27v.52h-1.27v3.58c0 .62.13.97.64.97.16 0 .38-.01.56-.07V104c-.18.08-.44.1-.66.1-.68 0-1.07-.35-1.07-1.23V99.04h-.99Z"/><path clip-path="url(#b)" d="M399.06 101.22h-1.04c-1.18 0-1.92.32-1.92 1.26 0 .69.48 1.17 1.22 1.17 1.52 0 1.74-1.04 1.74-2.23Zm.52 1.76c0 .48.04.87.08 1.04h-.51c-.04-.13-.08-.37-.1-.85-.18.41-.65.98-1.75.98-1.23 0-1.77-.82-1.77-1.65 0-1.21.91-1.76 2.5-1.76h1.01v-.56c0-.55-.16-1.29-1.38-1.29-1.08 0-1.23.58-1.35 1.03h-.53c.07-.6.43-1.54 1.9-1.54 1.21 0 1.89.53 1.89 1.74Z"/><path clip-path="url(#b)" d="M405.42 101.17c0-1.38-.66-2.25-1.67-2.25-1.33 0-1.8.93-1.8 2.38 0 1.3.42 2.35 1.74 2.35 1.08 0 1.74-.92 1.74-2.48m-3.97-5.25h.53v3.53c.26-.55.78-1.06 1.82-1.06 1.26 0 2.18 1.07 2.18 2.76 0 1.74-.83 3-2.32 3-.89 0-1.41-.37-1.68-1 0 .35-.01.72-.02.87h-.52c.01-.63.01-1.25.01-1.88Z"/><path clip-path="url(#b)" d="M407.45 98.53h.53v5.5h-.53Zm0-2.61h.53v1.07h-.53Z"/><path clip-path="url(#b)" d="M409.84 104.03h.53V95.92h-.53Z" fill-rule="evenodd"/><path clip-path="url(#b)" d="M412.22 98.53h.53v5.5h-.53Zm0-2.61h.53v1.07h-.53Z"/><path clip-path="url(#b)" d="M413.88 98.53h.99V96.81h.53v1.72h1.27v.52h-1.27v3.58c0 .62.13.97.64.97.16 0 .38-.01.55-.07V104c-.18.08-.44.1-.66.1-.68 0-1.07-.35-1.07-1.23V99.04h-.99Z"/><path clip-path="url(#b)" d="M418.05 98.53c1.08 3.15 1.54 4.44 1.73 5.04h.01c.21-.67.64-1.95 1.67-5.04h.55l-2 5.82c-.56 1.63-.95 1.99-1.91 1.99-.19 0-.32-.01-.49-.03v-.55c.16.02.31.03.48.03.77 0 1.01-.39 1.41-1.52l-2.03-5.74Z"/><path clip-path="url(#b)" d="M429.15 101.22H428.1c-1.18 0-1.92.32-1.92 1.26 0 .69.48 1.17 1.22 1.17 1.52 0 1.74-1.04 1.74-2.23Zm.52 1.76c0 .48.04.87.08 1.04h-.51c-.04-.13-.08-.37-.1-.85-.18.41-.65.98-1.75.98-1.23 0-1.77-.82-1.77-1.65 0-1.21.91-1.76 2.5-1.76h1.01v-.56c0-.55-.16-1.29-1.38-1.29-1.08 0-1.23.58-1.35 1.03h-.53c.07-.6.43-1.54 1.9-1.54 1.21 0 1.89.53 1.89 1.74Z"/><path clip-path="url(#b)" d="M430.68 98.53h.99V96.81h.53v1.72h1.27v.52H432.2v3.58c0 .62.13.97.64.97.16 0 .38-.01.55-.07V104c-.18.08-.44.1-.66.1-.68 0-1.07-.35-1.07-1.23V99.04h-.99Z"/><path clip-path="url(#b)" d="M441.04 100.86c-.01-1.09-.59-1.95-1.63-1.95-1.1 0-1.6.79-1.71 1.95Zm-3.38.48c.01 1.42.7 2.3 1.73 2.3 1 0 1.34-.58 1.53-1.03h.54c-.22.73-.79 1.55-2.1 1.55-1.62 0-2.25-1.44-2.25-2.84 0-1.57.76-2.93 2.31-2.93 1.64 0 2.16 1.46 2.16 2.5 0 .15 0 .31-.01.45Z"/><path clip-path="url(#b)" d="M443.02 98.53c.86 2.52 1.46 4.24 1.66 4.94h.01c.12-.41.71-2.05 1.75-4.94H447l-2.01 5.5h-.64l-1.9-5.5Z"/><path clip-path="url(#b)" d="M451.64 100.86c-.01-1.09-.59-1.95-1.63-1.95-1.1 0-1.6.79-1.71 1.95Zm-3.38.48c.01 1.42.7 2.3 1.73 2.3 1 0 1.34-.58 1.53-1.03h.54c-.22.73-.79 1.55-2.1 1.55-1.62 0-2.25-1.44-2.25-2.84 0-1.57.76-2.93 2.31-2.93 1.64 0 2.16 1.46 2.16 2.5 0 .15 0 .31-.01.45Z"/><path clip-path="url(#b)" d="M453.61 100.02c0-.92-.01-1.32-.01-1.5h.52c.01.18.02.53.02 1.23.31-.82.99-1.32 1.85-1.36v.59c-1.11.08-1.85.87-1.85 2.18v2.86h-.53Z"/><path clip-path="url(#b)" d="M457.36 98.53c1.07 3.15 1.54 4.44 1.73 5.04h.01c.21-.67.64-1.95 1.67-5.04h.55l-2 5.82c-.56 1.63-.95 1.99-1.91 1.99-.19 0-.32-.01-.49-.03v-.55c.16.02.31.03.48.03.77 0 1.01-.39 1.41-1.52l-2.03-5.74Z"/><path clip-path="url(#b)" d="M359.1 115.71c.18.71.67 1.14 1.51 1.14.95 0 1.33-.45 1.33-1.07 0-.63-.26-.93-1.45-1.23-1.37-.34-1.71-.77-1.71-1.5 0-.76.55-1.46 1.76-1.46s1.78.76 1.86 1.54h-.53c-.1-.46-.45-1.03-1.35-1.03-.93 0-1.19.47-1.19.91 0 .51.26.76 1.31 1.02 1.5.37 1.88.88 1.88 1.7 0 1-.79 1.62-1.91 1.62-1.21 0-1.9-.66-2.04-1.65Z"/><path clip-path="url(#b)" d="M363.11 111.73h.99v-1.72h.53v1.72h1.27v.52h-1.27v3.58c0 .62.13.97.64.97.16 0 .38-.01.55-.07v.48c-.18.08-.44.1-.66.1-.68 0-1.07-.35-1.07-1.23v-3.83h-.99Z"/><path clip-path="url(#b)" d="M370.22 114.42h-1.04c-1.18 0-1.92.32-1.92 1.26 0 .69.48 1.17 1.23 1.17 1.52 0 1.73-1.04 1.73-2.23Zm.52 1.76c0 .48.04.87.08 1.04h-.51c-.04-.13-.07-.37-.1-.85-.18.41-.65.98-1.75.98-1.23 0-1.77-.82-1.77-1.65 0-1.21.9-1.76 2.5-1.76h1.01v-.56c0-.55-.16-1.29-1.37-1.29-1.08 0-1.23.58-1.35 1.03h-.53c.07-.61.43-1.54 1.9-1.54 1.21 0 1.89.53 1.89 1.74Z"/><path clip-path="url(#b)" d="M372.74 114.46c0 1.31.67 2.25 1.69 2.25 1.33 0 1.74-.91 1.74-2.34 0-1.45-.43-2.25-1.7-2.25-1.23 0-1.73 1.09-1.73 2.34m3.93 2.4c0 1.76-.76 2.68-2.3 2.68-1.38 0-1.96-.8-2.09-1.64h.54c.19.76.8 1.12 1.56 1.12 1.39 0 1.77-.92 1.77-2.32v-.57c-.29.71-.81 1.1-1.78 1.1-1.25 0-2.2-1.04-2.2-2.75 0-1.85 1.02-2.88 2.28-2.88 1.09 0 1.55.53 1.7.97.01-.32.02-.7.03-.84h.5c0 .2-.02 1.07-.02 1.6Z"/><path clip-path="url(#b)" d="M382.02 114.06c-.01-1.09-.59-1.95-1.63-1.95-1.1 0-1.6.79-1.71 1.95Zm-3.38.48c.01 1.42.7 2.3 1.72 2.3 1 0 1.34-.58 1.53-1.03h.54c-.22.73-.79 1.55-2.1 1.55-1.62 0-2.25-1.44-2.25-2.84 0-1.57.76-2.93 2.31-2.93 1.64 0 2.16 1.46 2.16 2.5 0 .15 0 .31-.01.45Z"/><path clip-path="url(#b)" d="M383.75 117.23h.53v-1.42h-.53Z" fill-rule="evenodd"/><path clip-path="url(#b)" d="M361.09 49.45h-2.15l.27-1.27h5.78l-.27 1.27h-2.14l-1.29 6.31h-1.5Z" fill="#FF00A4"/><path clip-path="url(#b)" d="M364.57 51.75c.11-.56.22-1.16.32-1.69h1.4c-.01.14-.06.57-.16 1.03.38-.68.88-1.14 1.83-1.14l-.29 1.5c-1.01.01-1.72.58-1.97 1.83l-.51 2.47h-1.45Z" fill="#FF00A4"/><path clip-path="url(#b)" d="M372.9 54.24c-.11.5-.21 1.06-.29 1.52H371.2c.01-.16.07-.58.11-.79-.41.62-1.01.9-1.74.9-1.02 0-1.61-.71-1.35-2.01l.78-3.79h1.44l-.74 3.6c-.12.59-.03.98.58.98.63 0 1.18-.51 1.44-1.78l.58-2.79h1.45Z" fill="#FF00A4"/><path clip-path="url(#b)" d="M375.5 54c.04.49.35.76.96.76.57 0 .79-.27.79-.64 0-.37-.29-.54-.98-.77-1.29-.41-1.69-.87-1.69-1.58 0-1.03.78-1.81 2.24-1.81 1.53 0 2.22.8 2.18 1.71h-1.47c-.02-.31-.17-.61-.79-.61-.36 0-.72.12-.72.52 0 .31.29.42.97.64 1.29.42 1.74.94 1.74 1.73 0 1.31-1.14 1.91-2.45 1.91-1.47 0-2.32-.68-2.26-1.87Z" fill="#FF00A4"/><path clip-path="url(#b)" d="M379.89 50.07h.82l.32-1.54h1.44l-.31 1.54h1.04l-.25 1.14h-1.04l-.58 2.87c-.07.35-.04.59.39.59.17 0 .31-.01.47-.04l-.22 1.08c-.32.11-.68.11-.98.11-1.15 0-1.33-.68-1.13-1.68l.59-2.93h-.82Z" fill="#FF00A4"/><path clip-path="url(#b)" d="M387.05 52.26c.02-.11.02-.19.02-.25 0-.5-.21-.92-.85-.92-.66 0-1.07.44-1.26 1.18Zm-2.28 1c-.02.12-.03.21-.03.34 0 .6.22 1.12.87 1.12.59 0 .85-.33 1.03-.69h1.51c-.31.84-1.01 1.85-2.66 1.85-1.48 0-2.21-.96-2.21-2.34 0-1.5.8-3.58 2.99-3.58 1.62 0 2.19 1.02 2.19 2.19 0 .46-.06.79-.15 1.11Z" fill="#FF00A4"/><path clip-path="url(#b)" d="M390.75 53.45c0 .76.29 1.18.9 1.18.88 0 1.35-.78 1.56-1.93.18-.97-.08-1.5-.89-1.5-1.02 0-1.56 1.23-1.56 2.25m4.86-5.71l-1.32 6.49c-.11.52-.22 1.03-.31 1.54h-1.4c.01-.21.04-.39.09-.67-.35.51-.87.78-1.6.78-1.18 0-1.83-.87-1.83-2.26 0-1.74 1.02-3.66 2.93-3.66.79 0 1.29.33 1.42.6l.58-2.83Z" fill="#FF00A4"/><path clip-path="url(#b)" d="M400.83 51.68h1.13c.99 0 1.53-.38 1.53-1.26 0-.66-.37-1-1.16-1h-1.04Zm-.76-3.5h2.56c1.54 0 2.42.88 2.42 2.14 0 1.75-1.26 2.6-3.01 2.6h-1.47l-.58 2.84h-1.48Z" fill="#FF00A4"/><path clip-path="url(#b)" d="M408.68 53.2c-.36 0-.67.03-.95.07-.81.12-1.13.4-1.13.88 0 .33.21.58.67.58 1 0 1.25-.84 1.39-1.44Zm1.2 1.16c-.12.59-.24 1.23-.25 1.4h-1.41c.01-.16.05-.46.08-.64-.28.36-.64.75-1.67.75-1.09 0-1.54-.79-1.54-1.46 0-1.59 1.34-2.01 2.56-2.15.46-.04.89-.04 1.23-.06l.05-.27c.08-.41.08-.95-.7-.95-.69 0-.81.39-.94.66h-1.48c.21-.91.82-1.7 2.53-1.7 1.34 0 2.33.57 2.02 2.07Z" fill="#FF00A4"/><path clip-path="url(#b)" d="M411.92 51.75c.11-.56.22-1.16.32-1.69h1.4c-.01.14-.06.57-.16 1.03.38-.68.88-1.14 1.83-1.14l-.3 1.5c-1.01.01-1.71.58-1.97 1.83l-.51 2.47H411.1Z" fill="#FF00A4"/><path clip-path="url(#b)" d="M416.05 50.07h.82l.32-1.54h1.44l-.31 1.54h1.04l-.25 1.14h-1.04l-.58 2.87c-.07.35-.04.59.39.59.17 0 .31-.01.47-.04l-.22 1.08c-.32.11-.68.11-.98.11-1.15 0-1.33-.68-1.13-1.68l.59-2.93h-.82Z" fill="#FF00A4"/><path clip-path="url(#b)" d="M420.16 51.51c.1-.48.2-.97.28-1.45h1.42c-.01.16-.08.57-.11.71.26-.34.74-.82 1.66-.82 1.08 0 1.71.68 1.36 2.36l-.7 3.44h-1.44l.7-3.46c.14-.64 0-1.1-.62-1.1-.71 0-1.15.55-1.37 1.61l-.6 2.95h-1.45Z" fill="#FF00A4"/><path clip-path="url(#b)" d="M429.55 52.26c.02-.11.02-.19.02-.25 0-.5-.21-.92-.85-.92-.66 0-1.07.44-1.26 1.18Zm-2.28 1c-.02.12-.03.21-.03.34 0 .6.22 1.12.87 1.12.59 0 .85-.33 1.03-.69h1.51c-.31.84-1.01 1.85-2.66 1.85-1.48 0-2.21-.96-2.21-2.34 0-1.5.8-3.58 2.99-3.58 1.62 0 2.19 1.02 2.19 2.19 0 .46-.06.79-.15 1.11Z" fill="#FF00A4"/><path clip-path="url(#b)" d="M432.35 51.75c.12-.56.23-1.16.32-1.69h1.4c-.01.14-.06.57-.16 1.03.38-.68.88-1.14 1.84-1.14l-.3 1.5c-1.01.01-1.71.58-1.97 1.83l-.51 2.47h-1.45Z" fill="#FF00A4"/><path clip-path="url(#b)" d="M437.27 54c.04.49.35.76.95.76.57 0 .79-.27.79-.64 0-.37-.29-.54-.98-.77-1.29-.41-1.69-.87-1.69-1.58 0-1.03.78-1.81 2.24-1.81 1.53 0 2.22.8 2.18 1.71h-1.47c-.02-.31-.17-.61-.79-.61-.36 0-.72.12-.72.52 0 .31.29.42.97.64 1.29.42 1.74.94 1.74 1.73 0 1.31-1.14 1.91-2.45 1.91-1.47 0-2.32-.68-2.26-1.87Z" fill="#FF00A4"/><path clip-path="url(#b)" d="M444.32 47.73l-.62 3.06c.33-.42.81-.83 1.66-.83.97 0 1.71.56 1.39 2.16L446 55.76h-1.44l.69-3.43c.15-.74.02-1.12-.63-1.12-.72 0-1.13.55-1.29 1.33l-.66 3.22h-1.45l1.64-8.03Z" fill="#FF00A4"/><path clip-path="url(#b)" d="M449.14 47.73h1.45l-.29 1.41h-1.45Zm-.48 2.34h1.45l-1.17 5.69h-1.45Z" fill="#FF00A4"/><path clip-path="url(#b)" d="M454.82 52.35c0-.82-.36-1.16-.92-1.16-.79 0-1.31.75-1.51 1.75-.18.94-.04 1.71.87 1.71 1.09 0 1.56-1.34 1.56-2.3m-2.86 2.89l-.55 2.7h-1.44l1.28-6.23c.16-.77.26-1.28.31-1.65h1.44c0 .12-.07.5-.12.76.3-.43.83-.87 1.68-.87 1.11 0 1.77.87 1.77 2.23 0 1.78-1.05 3.69-3.02 3.69-.68 0-1.16-.3-1.35-.63" fill="#FF00A4"/><path clip-path="url(#b)" d="M9.49 17.24c0 4.41.57 8.69 4.09 8.69 3.47 0 3.99-4.04 3.99-8.78 0-4.59-.61-8.52-3.92-8.52-3.3 0-4.16 3.46-4.16 8.61m12.59-.12c0 6.29-1.87 12.43-8.55 12.43C6.96 29.55 5 23.69 5 17.27 5 10.92 7.17 5 13.64 5c6.32 0 8.44 5.62 8.44 12.12"/><path clip-path="url(#b)" d="M36.39 15.04c0-2.32.01-4.06.09-5.56-.92 1.93-4.41 7.05-6.67 10.38h6.58Zm0 14.08V23.53H25.88V19.6L35.75 5.43h4.7V19.86h2.83l-.41 3.67H40.44v5.59Z"/><path clip-path="url(#b)" d="M46.38 29.12h4.63V23.14H46.38Z" fill-rule="evenodd"/><path clip-path="url(#b)" d="M173.42 17.24c0 4.41.57 8.69 4.09 8.69 3.47 0 3.99-4.04 3.99-8.78 0-4.59-.61-8.52-3.92-8.52-3.3 0-4.16 3.46-4.16 8.61m12.59-.12c0 6.29-1.87 12.43-8.55 12.43-6.57 0-8.54-5.86-8.54-12.27 0-6.35 2.17-12.27 8.64-12.27 6.32 0 8.44 5.62 8.44 12.12"/><path clip-path="url(#b)" d="M205.13 9.14H195.8c-.17 1.48-.62 4.2-.8 5.28.9-.86 2.27-1.48 4.36-1.48 4.41 0 7.02 3.25 7.02 7.87 0 4.59-2.4 8.74-8.38 8.74-4.39 0-7.59-2.38-8.14-6.55h4.34c.47 1.81 1.71 3.05 3.9 3.05 2.62 0 3.9-1.97 3.9-4.89 0-2.67-1-4.63-3.82-4.63-2.35 0-3.31 1.04-3.93 2.62l-3.94-.58c.64-3.04 1.58-9.98 1.95-13.14h13.49Z"/><path clip-path="url(#b)" d="M210.06 29.12h4.63V23.14h-4.63Z" fill-rule="evenodd"/><path clip-path="url(#b)" d="M338.6 17.24c0 4.41.58 8.69 4.09 8.69 3.47 0 3.99-4.04 3.99-8.78 0-4.59-.61-8.52-3.92-8.52-3.3 0-4.16 3.46-4.16 8.61m12.59-.12c0 6.29-1.87 12.43-8.55 12.43-6.57 0-8.54-5.86-8.54-12.27 0-6.35 2.17-12.27 8.64-12.27 6.32 0 8.44 5.62 8.44 12.12"/><path clip-path="url(#b)" d="M367.29 21.16c0-2.39-.87-4.68-3.89-4.68-2.43 0-3.98 1.52-3.98 4.55 0 1.93.91 4.91 3.96 4.91 2.73 0 3.92-2.19 3.92-4.78m-.5-10.17c-.34-1.36-1.14-2.53-3.25-2.53-3.34 0-4.3 3.24-4.43 7.04.96-1.37 2.61-2.57 5.41-2.57 4.29 0 7.13 3.24 7.13 7.87 0 4.92-2.97 8.75-8.19 8.75-6.54 0-8.63-5.29-8.63-11.98 0-6.29 2.1-12.57 8.9-12.57 4.88 0 7.03 3.2 7.28 5.99Z"/><path clip-path="url(#b)" d="M375.03 29.12h4.63V23.14h-4.63Z" fill-rule="evenodd"/></g></g></svg>