<?xml version="1.0" encoding="UTF-8"?><!DOCTYPE svg PUBLIC "-//W3C//DTD SVG 1.0//EN" "http://www.w3.org/TR/2001/REC-SVG-20010904/DTD/svg10.dtd" []><svg xmlns="http://www.w3.org/2000/svg" xmlns:xlink="http://www.w3.org/1999/xlink" height="36" stroke="#000" stroke-linecap="square" stroke-miterlimit="10" viewBox="0 0 264.32 35.84" width="264"><g><g fill="#fff" stroke="none"><path d="M7.05 17.75h6.89c4.03 0 5.73-2.13 5.73-5.29 0-3.37-2.22-5.25-5.58-5.25H7.05ZM5 5.36h9.03c4.62 0 7.8 2.57 7.8 7.03 0 4.55-3.15 7.21-8.05 7.21H7.05V30.55H5Z"/><path d="M37.29 20.05c-2.78-7.44-4.22-11.03-4.72-12.74h-.04c-.61 1.92-2.22 6.37-4.47 12.74ZM27.36 21.9l-3.18 8.65H22.14L31.37 5.36h2.4L43.4 30.55H41.2L37.95 21.9Z"/><path d="M50.25 16.96H56.3c4.39 0 6.43-1.64 6.43-4.93 0-3.07-2-4.82-5.9-4.82H50.25Zm0 1.85V30.55H48.2V5.36h9.08c4.98 0 7.61 2.67 7.61 6.63 0 3.21-1.91 5.29-4.69 5.9 2.56.61 4.29 2.29 4.29 6.58v.98c0 1.76-.14 4.13.32 5.1H62.77c-.47-1.08-.36-3.09-.36-5.26v-.64c0-4.11-1.21-5.83-6.02-5.83Z"/><path d="M76.63 7.22H68.2V5.36H87.16V7.22H78.69V30.55H76.63Z"/><path d="M91.26 30.55V5.36h2.96c3.9 6.04 13.04 20.02 14.62 22.76h.04c-.22-3.61-.18-7.33-.18-11.44V5.36h2.04V30.55h-2.74c-3.72-5.81-13.01-20.39-14.8-23.17h-.04c.18 3.29.15 6.99.15 11.56V30.55Z"/><path d="M133.32 18.2H120.49V28.69h14.05l-.3 1.86H118.47V5.36h15.49V7.22H120.49v9.13h12.83Z"/><path d="M141.9 16.96h6.05c4.4 0 6.43-1.64 6.43-4.93 0-3.07-2-4.82-5.9-4.82H141.9Zm0 1.85V30.55h-2.05V5.36h9.08c4.98 0 7.61 2.67 7.61 6.63 0 3.21-1.91 5.29-4.69 5.9 2.56.61 4.29 2.29 4.29 6.58v.98c0 1.76-.14 4.13.33 5.1h-2.05c-.47-1.08-.36-3.09-.36-5.26v-.64c0-4.11-1.21-5.83-6.02-5.83Z"/><path d="M163.12 23.77c.75 3.33 2.97 5.29 7.08 5.29 4.57 0 6.32-2.28 6.32-4.99 0-2.83-1.26-4.57-6.77-5.93-5.36-1.34-7.65-3.08-7.65-6.71 0-3.33 2.43-6.43 7.84-6.43 5.57 0 7.91 3.39 8.24 6.46h-2.09c-.57-2.67-2.31-4.61-6.26-4.61-3.6 0-5.57 1.67-5.57 4.46 0 2.75 1.64 3.82 6.27 4.97 7.09 1.76 8.15 4.6 8.15 7.64 0 3.73-2.72 6.93-8.56 6.93-6.3 0-8.62-3.66-9.1-7.07Z"/><path d="M184.53 5.36h2.02V16.31h15.01V5.36h2.02V30.55h-2.02V18.17H186.55V30.55h-2.02Z"/><path d="M211.32 30.55h2.02V5.36h-2.02Z" fill-rule="evenodd"/><path d="M223.13 17.75h6.89c4.03 0 5.72-2.13 5.72-5.29 0-3.37-2.22-5.25-5.58-5.25h-7.03ZM221.07 5.36h9.03c4.62 0 7.8 2.57 7.8 7.03 0 4.55-3.15 7.21-8.05 7.21h-6.72V30.55h-2.05Z"/><path d="M243.75 23.77c.75 3.33 2.97 5.29 7.09 5.29 4.57 0 6.32-2.28 6.32-4.99 0-2.83-1.26-4.57-6.77-5.93-5.36-1.34-7.65-3.08-7.65-6.71 0-3.33 2.43-6.43 7.84-6.43 5.57 0 7.91 3.39 8.24 6.46h-2.09c-.57-2.67-2.31-4.61-6.26-4.61-3.6 0-5.57 1.67-5.57 4.46 0 2.75 1.64 3.82 6.27 4.97 7.09 1.76 8.15 4.6 8.15 7.64 0 3.73-2.71 6.93-8.56 6.93-6.3 0-8.62-3.66-9.1-7.07Z"/></g></g></svg>