<?xml version="1.0" encoding="UTF-8"?><!DOCTYPE svg PUBLIC "-//W3C//DTD SVG 1.0//EN" "http://www.w3.org/TR/2001/REC-SVG-20010904/DTD/svg10.dtd" []><svg xmlns="http://www.w3.org/2000/svg" xmlns:xlink="http://www.w3.org/1999/xlink" height="57" stroke="#000" stroke-linecap="square" stroke-miterlimit="10" viewBox="0 0 207.68 56.92" width="208"><defs><clipPath id="a"><path d="M0 0V56.92H207.68V0Z"/></clipPath><clipPath clip-path="url(#a)" id="b"><path d="M-140.99 430.42H819.13v-540H-140.99Z"/></clipPath><clipPath clip-path="url(#b)" id="c"><path d="M-140.99 430.42H819.02v-540H-140.99Z"/></clipPath></defs><g><g fill="#fff" stroke="none"><path clip-path="url(#c)" d="M12.81 29.16c3.65 0 5.93-2.32 6.51-4.48l.06-.21h-.75l-.04.11c-.64 1.87-2.76 3.76-5.58 3.76-4.49 0-4.49-5.12-4.49-7.87 0-3.98.36-7.87 4.65-7.87 1.06 0 1.87.24 2.71.61-1.53.66-1.7 1.87-1.7 2.39 0 1.35 1.05 2.41 2.39 2.41 1.32 0 2.39-1.05 2.39-2.35 0-2.1-2.72-3.88-5.94-3.88-4.64 0-8 3.65-8 8.69 0 4.95 3.36 8.68 7.81 8.68"/><path clip-path="url(#c)" d="M21.68 27.99H20.13v.66h6.21v-.66H24.75V18.55c0-2.31 1.32-4.54 3.21-5.55-.2.36-.31.77-.31 1.2 0 1.35 1.05 2.41 2.39 2.41s2.39-1.07 2.39-2.44c0-1.14-.82-2.38-2.61-2.38-2.03 0-4.05 1.54-5.06 3.77V12.3H20.1v.66h1.59Z"/><path clip-path="url(#c)" d="M40.12 12.61c1.96 0 4.06 2.07 4.11 6.61H35.92c.15-4.39 1.56-6.61 4.2-6.61m.48 16.55c2.92 0 6.27-1.39 7.17-4.51l.06-.22h-.76l-.04.11c-.65 1.89-2.76 3.79-6.03 3.79-4.71 0-5.1-3.77-5.1-8.32v-.15h11.8V19.7c0-4.74-2.82-7.92-7.02-7.92-4.72 0-8.29 3.73-8.29 8.68 0 5.03 3.45 8.69 8.19 8.69"/><path clip-path="url(#c)" d="M59.24 26.12c-1.31 1.07-3.36 1.7-4.62 1.7-1.71 0-2.81-1.17-2.81-2.97 0-1.72 1.01-3.1 2.71-3.68l1.49-.51c.44-.15.93-.29 1.4-.43.68-.2 1.34-.38 1.83-.61Zm2.42 3.03c1.87 0 2.99-1.26 2.99-2.47v-.17h-.65v.17c0 .74-.71 1.5-1.23 1.5-.31 0-.47-.21-.47-.63V17.27c0-3.43-3.33-5.48-6.54-5.48-3.44 0-6.7 2.21-6.7 4.55 0 1.35 1.05 2.41 2.39 2.41s2.39-1.06 2.39-2.41-1.05-2.41-2.39-2.41c-.08 0-.16.01-.24.01 1.06-.83 2.38-1.31 3.66-1.31 2.61 0 4.37 1.99 4.37 4.95v1.22c-.55.35-1.55.62-2.37.85-.27.07-.52.14-.71.2l-1.4.42c-2.89.87-6.21 2.25-6.21 5.25 0 2.17 1.76 3.63 4.39 3.63 1.83 0 4.52-.74 6.31-2.15.09 1.37.96 2.15 2.41 2.15"/><path clip-path="url(#c)" d="M66.5 22.75c0 4.61 1.02 6.41 3.66 6.41 2.78 0 3.82-1.97 3.82-3.21v-.17h-.65v.17c0 .5-.51 2.26-2.12 2.26-1.06 0-1.64-.88-1.64-5.53V12.96h3.49V12.3H69.57V6.7h-.49l-2.58.95V12.3H64.95v.66H66.5Z"/><path clip-path="url(#c)" d="M78.92 12.3H74.27v.66h1.59V27.99h-1.6l.06.66h6.19v-.66H78.92Z"/><path clip-path="url(#c)" d="M77.39 9.82c1.34 0 2.39-1.06 2.39-2.41C79.78 6.04 78.75 5 77.39 5S75 6.04 75 7.41c0 1.35 1.05 2.41 2.39 2.41"/><path clip-path="url(#c)" d="M96.84 12.95V12.3H92.7v.66l.17 0c.91.02 1.48.08 1.66.34.17.24.1.73-.23 1.67L90.26 25.18l-5.1-12.22h2.8V12.3H80.65v.66h1.2l6.53 15.69h1.27l5.34-13.45c.87-2.09 1.21-2.21 1.69-2.23Z"/><path clip-path="url(#c)" d="M103.9 12.61c1.96 0 4.06 2.07 4.11 6.61H99.7c.15-4.39 1.56-6.61 4.2-6.61m6.91 11.94c-.65 1.89-2.76 3.79-6.02 3.79-4.71 0-5.1-3.77-5.1-8.32v-.15h11.8V19.7c0-4.74-2.82-7.92-7.02-7.92-4.72 0-8.29 3.73-8.29 8.68 0 5.03 3.45 8.69 8.19 8.69 2.92 0 6.27-1.39 7.17-4.51l.06-.22h-.76Z"/><path clip-path="url(#c)" d="M123.02 26.12c-1.31 1.07-3.36 1.7-4.62 1.7-1.71 0-2.81-1.17-2.81-2.97 0-1.72 1.01-3.1 2.71-3.68l1.49-.51c.44-.15.93-.29 1.4-.43.68-.2 1.34-.38 1.83-.61Zm4.76.56c0 .74-.71 1.5-1.23 1.5-.31 0-.46-.21-.46-.63V17.27c0-3.43-3.33-5.48-6.54-5.48-3.45 0-6.7 2.21-6.7 4.55 0 1.35 1.05 2.41 2.39 2.41s2.39-1.06 2.39-2.41-1.05-2.41-2.39-2.41c-.08 0-.16.01-.24.01 1.06-.83 2.38-1.31 3.66-1.31 2.61 0 4.37 1.99 4.37 4.95v1.22c-.55.35-1.55.62-2.37.85-.27.07-.52.14-.71.2l-1.4.42c-2.89.87-6.21 2.25-6.21 5.25 0 2.17 1.76 3.63 4.39 3.63 1.83 0 4.52-.74 6.31-2.15.09 1.37.96 2.15 2.41 2.15 1.87 0 2.99-1.26 2.99-2.47v-.17h-.65Z"/><path clip-path="url(#c)" d="M137.1 25.95c0 .5-.51 2.26-2.11 2.26-1.06 0-1.64-.88-1.64-5.53V12.96h3.49V12.3h-3.49V6.7h-.49l-2.58.95V12.3h-1.55v.66h1.55v9.79c0 4.62 1.03 6.41 3.66 6.41 2.78 0 3.82-1.97 3.82-3.21v-.17h-.65Z"/><path clip-path="url(#c)" d="M146.09 12.61c1.96 0 4.06 2.07 4.11 6.61h-8.32c.15-4.39 1.56-6.61 4.2-6.61M153 24.55c-.65 1.89-2.76 3.79-6.03 3.79-4.71 0-5.1-3.77-5.1-8.32v-.15h11.8V19.7c0-4.74-2.82-7.92-7.02-7.92-4.73 0-8.29 3.73-8.29 8.68 0 5.03 3.45 8.69 8.19 8.69 2.92 0 6.27-1.39 7.17-4.51l.06-.22h-.76Z"/><path clip-path="url(#c)" d="M164.23 11.79c-2.03 0-4.05 1.54-5.06 3.77V12.3h-4.65v.66h1.59V27.99h-1.55v.66h6.21v-.66h-1.58V18.55c0-2.31 1.32-4.54 3.21-5.55-.2.36-.31.77-.31 1.2 0 1.35 1.05 2.41 2.39 2.41s2.39-1.07 2.39-2.44c0-1.15-.82-2.38-2.61-2.38"/><path clip-path="url(#c)" d="M171.79 12.3h-4.65v.66h1.59V27.99h-1.6l.07.66h6.19v-.66h-1.59Z"/><path clip-path="url(#c)" d="M170.26 9.82c1.34 0 2.39-1.06 2.39-2.41 0-1.37-1.03-2.41-2.39-2.41s-2.39 1.04-2.39 2.41c0 1.35 1.05 2.41 2.39 2.41"/><path clip-path="url(#c)" d="M181.86 12.61c1.96 0 4.06 2.07 4.11 6.61h-8.32c.15-4.39 1.56-6.61 4.2-6.61m6.91 11.94c-.65 1.89-2.76 3.79-6.03 3.79-4.71 0-5.1-3.77-5.1-8.32v-.15h11.8V19.7c0-4.74-2.82-7.92-7.02-7.92-4.73 0-8.29 3.73-8.29 8.68 0 5.03 3.45 8.69 8.19 8.69 2.92 0 6.27-1.39 7.17-4.51l.06-.22h-.76Z"/><path clip-path="url(#c)" d="M197.63 18.74c-2.13-.69-4.15-1.34-4.15-3.58 0-1.71 1.12-2.65 3.16-2.65 1.08 0 1.86.24 2.63.8 1.16.81 1.42 1.67 1.77 3.57l.03.14h.69l-.65-3.79-.05-.04c-.84-.64-2.34-1.41-4.7-1.41-4.38 0-5.94 2.57-5.94 4.97 0 3.1 2.48 3.97 4.88 4.81 2.28.8 4.44 1.56 4.44 4.15 0 1.16-.37 2.71-3.57 2.71-2.34 0-3.51-.83-4-1.32-.62-.69-.86-1.63-1.2-3.09l-.03-.13h-.68l.65 3.79.06.04c1.43.93 3.26 1.44 5.17 1.44 3.91 0 6.54-2.22 6.54-5.52 0-3.28-2.68-4.14-5.05-4.91"/><path clip-path="url(#c)" d="M13.9 44.66c-.33.97-1.57 2.42-3.6 2.42-1.5 0-2.88-.62-2.88-5.09 0-2.58.23-5.09 2.99-5.09.64 0 1.12.13 1.63.35-.92.45-1.03 1.22-1.03 1.56 0 .92.71 1.64 1.62 1.64.9 0 1.62-.71 1.62-1.59 0-1.41-1.81-2.6-3.95-2.6-3.07 0-5.3 2.41-5.3 5.74 0 3.27 2.22 5.74 5.17 5.74 2.42 0 3.94-1.54 4.32-2.98l.06-.21h-.61Z"/><path clip-path="url(#c)" d="M22.4 45.66c-.85.68-2.16 1.08-2.97 1.08-1.08 0-1.78-.74-1.78-1.89 0-1.1.65-1.98 1.73-2.36l.98-.34c.28-.1.6-.19.91-.28.41-.12.81-.23 1.13-.36Zm3.12.39c0 .48-.46.92-.74.92-.06 0-.25 0-.25-.36V39.89c0-2.28-2.21-3.65-4.34-3.65-2.29 0-4.45 1.48-4.45 3.04 0 .92.71 1.64 1.62 1.64s1.62-.72 1.62-1.64c0-.91-.7-1.62-1.59-1.64.65-.46 1.45-.73 2.21-.73 1.67 0 2.8 1.28 2.8 3.18v.77c-.36.22-1.02.4-1.51.53-.18.05-.34.09-.47.13l-.91.27c-1.23.37-4.11 1.24-4.11 3.49 0 1.46 1.18 2.43 2.93 2.43 1.18 0 2.9-.46 4.08-1.36.1.87.68 1.36 1.63 1.36 1.26 0 2.02-.85 2.02-1.68v-.17h-.54Z"/><path clip-path="url(#c)" d="M32.14 45.57c0 .4-.39 1.42-1.33 1.42-.56 0-1.01-.27-1.01-3.56V37.13h2.28v-.55H29.8V32.91h-.38l-1.75.64v3.03H26.66v.55h1.02v6.35c0 3.06.69 4.26 2.45 4.26 1.86 0 2.56-1.32 2.56-2.16V45.4h-.55Z"/><path clip-path="url(#c)" d="M38.6 36.9c1.25 0 2.58 1.32 2.63 4.21H35.9c.11-2.79 1.01-4.21 2.69-4.21m4.47 7.74c-.42 1.22-1.78 2.44-3.89 2.44-3.03 0-3.28-2.44-3.28-5.39v-.04h7.72v-.17c0-3.14-1.87-5.24-4.65-5.24-3.13 0-5.49 2.47-5.49 5.74 0 3.33 2.28 5.74 5.42 5.74 1.93 0 4.15-.92 4.75-2.99l.06-.21H43.1Z"/><path clip-path="url(#c)" d="M50.99 36.24c-1.28 0-2.55.92-3.26 2.27V36.58H44.57v.55h1.04v9.72H44.59v.55h4.18v-.55H47.73V40.73c0-1.43.77-2.8 1.91-3.49-.08.2-.13.42-.13.64 0 .92.71 1.64 1.62 1.64s1.62-.73 1.62-1.66c0-.78-.55-1.61-1.77-1.61"/><path clip-path="url(#c)" d="M67.52 40.5c-.02-2.74-1.2-4.26-3.32-4.26-1.46 0-2.64.73-3.51 2.18l.01-1.83H57.93v.71h.58l.05 9.55H56.51V36.58H53.35v.55h1.04v9.72H53.34l.05.55h8.34v-.55H60.69V39.57c.85-1.79 1.83-2.66 2.99-2.66.8 0 1.72.41 1.72 3.62v6.31H64.36v.55h4.18v-.55H67.52Z"/><path clip-path="url(#c)" d="M74.22 42.89c-1.51 0-1.72-1.46-1.72-3.04 0-1.5.2-3.04 1.72-3.04 1.5 0 1.7 1.54 1.7 3.04 0 1.58-.21 3.04-1.7 3.04m-.14 4.53c2.05.14 3.98.27 3.98 1.76 0 1.18-1.11 1.86-3.05 1.86-2.6 0-4.27-1.23-4.27-3.12 0-.39.07-.72.21-.97.87.31 2.02.39 3.13.47m4.85-12.39c-.75 0-1.33.41-1.63 1.15l-.35.84c-.71-.5-1.67-.78-2.73-.78-1.91 0-4.14.94-4.14 3.61 0 1.12.38 2.02 1.14 2.65-1.09.57-1.74 1.51-1.74 2.57 0 .67.28 1.19.82 1.57-.86.68-1.28 1.43-1.28 2.31 0 .89.48 2.98 4.94 2.98 3.5 0 5.42-1.27 5.42-3.58 0-2.9-3-3.17-5.42-3.38-1.59-.14-2.97-.26-2.97-1.08 0-.37.25-.72.74-1.02.67.39 1.54.6 2.47.6 1.9 0 4.11-.94 4.11-3.61 0-.99-.3-1.8-.9-2.43l.16-.39c.2.62.77 1.06 1.45 1.06.84 0 1.52-.69 1.52-1.53 0-.74-.57-1.53-1.62-1.53"/></g></g></svg>