<?xml version="1.0" encoding="UTF-8"?><!DOCTYPE svg PUBLIC "-//W3C//DTD SVG 1.0//EN" "http://www.w3.org/TR/2001/REC-SVG-20010904/DTD/svg10.dtd" []><svg xmlns="http://www.w3.org/2000/svg" xmlns:xlink="http://www.w3.org/1999/xlink" height="36" stroke="#000" stroke-linecap="square" stroke-miterlimit="10" viewBox="0 0 170.02 35.84" width="170"><g><g fill="#FF00A4" stroke="none"><path d="M25.56 23.8c-1.19 4.01-4.15 7.04-9.49 7.04C8.81 30.84 5 25.08 5 17.99 5 11.19 8.75 5 16.1 5c5.46 0 8.66 3.04 9.49 7.25H23.57c-1.14-3.25-3.25-5.4-7.58-5.4-6.22 0-8.83 5.68-8.83 11.1 0 5.37 2.57 11.03 8.97 11.03 4.09 0 6.16-2.13 7.4-5.19Z"/><path d="M33.4 16.96h6.05c4.39 0 6.43-1.64 6.43-4.93 0-3.07-2-4.82-5.9-4.82H33.4Zm0 1.85V30.55H31.35V5.36h9.07c4.98 0 7.61 2.67 7.61 6.63 0 3.21-1.91 5.29-4.69 5.9 2.56.61 4.29 2.29 4.29 6.58v.98c0 1.76-.14 4.13.32 5.1H45.91c-.47-1.08-.36-3.09-.36-5.26v-.64c0-4.11-1.21-5.83-6.02-5.83Z"/><path d="M69.37 18.2H56.54V28.69H70.6l-.3 1.86H54.53V5.36H70.02V7.22H56.54v9.13H69.37Z"/><path d="M89.01 20.05C86.23 12.61 84.8 9.01 84.29 7.31h-.04c-.61 1.92-2.22 6.37-4.47 12.74ZM79.09 21.9l-3.18 8.65H73.86L83.09 5.36h2.4l9.63 25.19h-2.2L89.67 21.9Z"/><path d="M101.9 7.21H93.46V5.36h18.96V7.21h-8.47V30.55H101.9Z"/><path d="M116.52 30.55h2.02V5.36h-2.02Z" fill-rule="evenodd"/><path d="M132.24 30.55L122.89 5.36h2.17l4.87 13.14c1.4 3.81 2.96 7.99 3.51 10.12h.07c.54-1.88 2.25-6.28 3.65-9.98l5.05-13.28h2.13l-9.7 25.19Z"/><path d="M163.8 18.2H150.97V28.69h14.05l-.3 1.86H148.96V5.36h15.49V7.22H150.97v9.13H163.8Z"/></g></g></svg>