<?xml version="1.0" encoding="UTF-8"?><!DOCTYPE svg PUBLIC "-//W3C//DTD SVG 1.0//EN" "http://www.w3.org/TR/2001/REC-SVG-20010904/DTD/svg10.dtd" []><svg xmlns="http://www.w3.org/2000/svg" xmlns:xlink="http://www.w3.org/1999/xlink" height="306" stroke="#000" stroke-linecap="square" stroke-miterlimit="10" viewBox="0 0 469.32 306.26" width="469"><g><g fill="#fff" stroke="#fff" stroke-linecap="butt"><path d="M53.88 106.82H463.82V21.24H53.88Z" fill="none"/><path d="M5 64.31H81.53V5H5Z" fill="#FB03A0" fill-rule="evenodd" stroke="none"/><path d="M126.11 51.74c-.98 3.02-3.04 4.73-6.43 4.73-3.43 0-5.28-2.2-5.28-5.84 0-3.77 2.1-9.05 7.54-9.05 3.15 0 5.07 1.74 5.16 4.79h-2.99c-.06-1.21-.56-2.42-2.49-2.42-2.77 0-4.15 3.68-4.15 6.65 0 1.96.63 3.5 2.54 3.5 1.64 0 2.5-.98 3.09-2.36Z" stroke="none"/><path d="M135.03 49.57c.04-.2.05-.35.05-.48 0-.95-.4-1.76-1.62-1.76-1.27 0-2.04.84-2.4 2.24Zm-4.35 1.9c-.04.23-.07.41-.07.65 0 1.15.42 2.14 1.67 2.14 1.12 0 1.62-.62 1.97-1.32h2.88c-.59 1.61-1.93 3.52-5.08 3.52-2.83 0-4.22-1.83-4.22-4.46 0-2.87 1.52-6.83 5.71-6.83 3.1 0 4.18 1.95 4.18 4.18 0 .88-.11 1.5-.28 2.11Z" stroke="none"/><path d="M140.38 48.62c.22-1.07.43-2.21.61-3.22h2.67c-.02.27-.12 1.09-.3 1.97.72-1.31 1.67-2.18 3.5-2.18l-.57 2.87c-1.92.03-3.27 1.11-3.76 3.49l-.97 4.72H138.8Z" stroke="none"/><path d="M148.26 45.4h1.56l.61-2.93h2.75l-.6 2.93h1.98l-.47 2.18h-1.98l-1.1 5.47c-.14.68-.08 1.12.75 1.12.32 0 .59-.02.9-.07l-.42 2.07c-.62.2-1.29.21-1.87.21-2.19 0-2.53-1.3-2.15-3.2l1.13-5.6h-1.56Z" stroke="none"/><path d="M157.49 40.94h2.76l-.55 2.68h-2.77Zm-.91 4.46h2.76l-2.23 10.87h-2.77Z" stroke="none"/><path d="M160.45 56.27l1.76-8.69h-1.48l.47-2.18h1.48l.22-1.05c.47-2.24 1.7-3.62 3.85-3.62.49 0 1.17.07 1.41.15l-.47 2.28c-.16-.03-.46-.05-.67-.05-.81 0-1.21.45-1.38 1.28l-.21 1.01h1.77l-.47 2.18h-1.77l-1.76 8.69Z" stroke="none"/><path d="M170.06 40.94h2.77l-.55 2.68h-2.77Zm-.91 4.46h2.76l-2.23 10.87h-2.76Z" stroke="none"/><path d="M180.16 49.57c.04-.2.04-.35.04-.48 0-.95-.4-1.76-1.62-1.76-1.27 0-2.04.84-2.4 2.24Zm-4.35 1.9c-.04.23-.07.41-.07.65 0 1.15.42 2.14 1.66 2.14 1.12 0 1.62-.62 1.97-1.32h2.88c-.59 1.61-1.93 3.52-5.08 3.52-2.83 0-4.21-1.83-4.21-4.46 0-2.87 1.52-6.83 5.71-6.83 3.1 0 4.18 1.95 4.18 4.18 0 .88-.11 1.5-.28 2.11Z" stroke="none"/><path d="M187.22 51.85c0 1.44.55 2.26 1.71 2.26 1.69 0 2.57-1.48 2.97-3.68.35-1.85-.16-2.87-1.7-2.87-1.94 0-2.98 2.35-2.98 4.29m9.28-10.91l-2.53 12.38c-.2.99-.43 1.96-.59 2.94h-2.67c.02-.4.07-.75.17-1.29-.67.98-1.66 1.5-3.05 1.5-2.25 0-3.5-1.65-3.5-4.31 0-3.32 1.94-6.98 5.59-6.98 1.5 0 2.46.62 2.7 1.14l1.12-5.39Z" stroke="none"/><path d="M204.77 51.82c.11 1.46 1.01 2.38 2.79 2.38 1.52 0 2.38-.57 2.38-1.89 0-1.12-.68-1.71-2.55-2.38-2.86-1.01-3.91-2.19-3.91-4.02 0-2.33 1.59-4.33 5.15-4.33 3.25 0 5.03 1.73 5.08 4.27h-2.91c-.06-.88-.44-1.96-2.29-1.96-1.19 0-2.07.56-2.07 1.68 0 .8.45 1.31 2.25 1.96 2.84 1.03 4.26 2.21 4.26 4.39 0 2.3-1.35 4.54-5.68 4.54-3.5 0-5.34-1.83-5.42-4.66Z" stroke="none"/><path d="M223.8 53.36c-.2.96-.4 2.03-.55 2.9h-2.71c.02-.3.13-1.11.22-1.5-.79 1.18-1.92 1.71-3.33 1.71-1.96 0-3.08-1.35-2.57-3.84l1.5-7.24h2.74l-1.42 6.86c-.24 1.13-.06 1.87 1.11 1.87 1.21 0 2.25-.98 2.75-3.4l1.11-5.33h2.77Z" stroke="none"/><path d="M228.75 52.9c.07.94.67 1.45 1.82 1.45 1.08 0 1.52-.51 1.52-1.23 0-.7-.56-1.04-1.87-1.47-2.47-.78-3.22-1.67-3.22-3.01 0-1.97 1.49-3.46 4.28-3.46 2.93 0 4.24 1.54 4.17 3.27h-2.8c-.03-.58-.32-1.17-1.51-1.17-.68 0-1.37.24-1.37 1 0 .58.56.8 1.85 1.23 2.46.8 3.32 1.8 3.32 3.31 0 2.5-2.18 3.65-4.67 3.65-2.81 0-4.43-1.31-4.32-3.57Z" stroke="none"/><path d="M237.15 45.4h1.56l.61-2.93h2.75l-.6 2.93h1.98l-.47 2.18H241l-1.1 5.47c-.14.68-.08 1.12.75 1.12.32 0 .59-.02.9-.07l-.42 2.07c-.62.2-1.29.21-1.87.21-2.19 0-2.53-1.3-2.15-3.2l1.13-5.6h-1.56Z" stroke="none"/><path d="M250.07 51.38c-.68 0-1.27.06-1.82.12-1.55.24-2.16.77-2.16 1.69 0 .63.4 1.11 1.29 1.11 1.91 0 2.39-1.6 2.65-2.76Zm2.3 2.22c-.23 1.12-.46 2.34-.47 2.66h-2.69c.02-.31.09-.88.15-1.23-.53.69-1.22 1.44-3.18 1.44-2.07 0-2.95-1.51-2.95-2.79 0-3.03 2.57-3.83 4.89-4.09.88-.09 1.69-.09 2.35-.11l.09-.51c.15-.78.16-1.81-1.34-1.81-1.32 0-1.55.74-1.79 1.26h-2.82c.4-1.75 1.57-3.24 4.84-3.24 2.56 0 4.45 1.09 3.86 3.94Z" stroke="none"/><path d="M257.81 40.94h2.77l-.55 2.68h-2.77Zm-.91 4.46h2.76l-2.23 10.87h-2.76Z" stroke="none"/><path d="M261.93 48.16c.18-.92.38-1.84.53-2.76h2.71c-.02.3-.14 1.09-.21 1.36.49-.66 1.42-1.57 3.18-1.57 2.07 0 3.26 1.3 2.6 4.51l-1.35 6.57h-2.75l1.34-6.59c.26-1.22 0-2.09-1.19-2.09-1.35 0-2.2 1.06-2.61 3.07l-1.15 5.62h-2.76Z" stroke="none"/><path d="M278.99 51.38c-.68 0-1.27.06-1.82.12-1.55.24-2.16.77-2.16 1.69 0 .63.4 1.11 1.29 1.11 1.91 0 2.39-1.6 2.65-2.76Zm2.3 2.22c-.23 1.12-.46 2.34-.47 2.66h-2.69c.02-.31.09-.88.15-1.23-.53.69-1.22 1.44-3.18 1.44-2.08 0-2.95-1.51-2.95-2.79 0-3.03 2.57-3.83 4.89-4.09.88-.09 1.69-.09 2.35-.11l.09-.51c.15-.78.16-1.81-1.34-1.81-1.32 0-1.55.74-1.79 1.26h-2.82c.4-1.75 1.57-3.24 4.84-3.24 2.56 0 4.45 1.09 3.86 3.94Z" stroke="none"/><path d="M291.93 49.57c0-1.35-.58-2.03-1.74-2.03-1.44 0-2.4 1.09-2.83 3.37-.4 2.12.08 3.24 1.62 3.24 2.14 0 2.95-2.79 2.95-4.57m-5.18-8.64h2.77l-1.17 5.66c.65-.82 1.64-1.41 3.08-1.41 2.2 0 3.39 1.73 3.39 4.08 0 3.32-1.78 7.21-5.67 7.21-1.45 0-2.25-.56-2.58-1.23-.07.3-.18.79-.26 1.02h-2.71c.15-.73.36-1.69.59-2.78Z" stroke="none"/><path d="M295.86 56.26l3.14-15.33h2.76l-3.14 15.33Z" stroke="none"/><path d="M309.09 49.57c.04-.2.05-.35.05-.48 0-.95-.4-1.76-1.62-1.76-1.27 0-2.04.84-2.4 2.24Zm-4.35 1.9c-.04.23-.07.41-.07.65 0 1.15.42 2.14 1.66 2.14 1.12 0 1.62-.62 1.97-1.32h2.88c-.59 1.61-1.93 3.52-5.08 3.52-2.83 0-4.21-1.83-4.21-4.46 0-2.87 1.52-6.83 5.71-6.83 3.1 0 4.18 1.95 4.18 4.18 0 .88-.11 1.5-.28 2.11Z" stroke="none"/><path d="M321.1 56.26l-1.88-14.48h2.85l.73 6.69c.23 2.04.36 4.28.38 5.13h.04c.54-1.35 1.48-3.22 2.58-5.25l3.53-6.56h2.96l-7.95 14.48Z" stroke="none"/><path d="M338.17 49.57c.04-.2.05-.35.05-.48 0-.95-.4-1.76-1.62-1.76-1.27 0-2.04.84-2.4 2.24Zm-4.35 1.9c-.04.23-.07.41-.07.65 0 1.15.42 2.14 1.66 2.14 1.12 0 1.62-.62 1.97-1.32h2.88c-.59 1.61-1.93 3.52-5.08 3.52-2.83 0-4.21-1.83-4.21-4.46 0-2.87 1.52-6.83 5.71-6.83 3.1 0 4.18 1.95 4.18 4.18 0 .88-.11 1.5-.28 2.11Z" stroke="none"/><path d="M343.6 48.16c.18-.92.38-1.84.53-2.76h2.71c-.02.3-.14 1.09-.21 1.36.49-.66 1.42-1.57 3.18-1.57 2.07 0 3.26 1.3 2.6 4.51l-1.35 6.57h-2.75l1.34-6.59c.26-1.22 0-2.09-1.19-2.09-1.35 0-2.2 1.06-2.61 3.07l-1.15 5.62h-2.77Z" stroke="none"/><path d="M363.47 53.36c-.2.96-.4 2.03-.55 2.9h-2.71c.02-.3.13-1.11.22-1.5-.79 1.18-1.92 1.71-3.33 1.71-1.96 0-3.08-1.35-2.57-3.84l1.5-7.24h2.74l-1.42 6.86c-.24 1.13-.06 1.87 1.11 1.87 1.21 0 2.25-.98 2.75-3.4l1.11-5.33h2.76Z" stroke="none"/><path d="M373.35 49.57c.04-.2.05-.35.05-.48 0-.95-.4-1.76-1.62-1.76-1.27 0-2.04.84-2.4 2.24ZM369 51.48c-.04.23-.07.41-.07.65 0 1.15.42 2.14 1.66 2.14 1.12 0 1.62-.62 1.97-1.32h2.88c-.59 1.61-1.93 3.52-5.08 3.52-2.83 0-4.21-1.83-4.21-4.46 0-2.87 1.52-6.83 5.71-6.83 3.1 0 4.18 1.95 4.18 4.18 0 .88-.11 1.5-.28 2.11Z" stroke="none"/><path d="M379.85 52.9c.07.94.67 1.45 1.82 1.45 1.09 0 1.52-.51 1.52-1.23 0-.7-.56-1.04-1.87-1.47-2.47-.78-3.22-1.67-3.22-3.01 0-1.97 1.49-3.46 4.29-3.46 2.93 0 4.24 1.54 4.17 3.27h-2.8c-.03-.58-.32-1.17-1.51-1.17-.68 0-1.37.24-1.37 1 0 .58.56.8 1.85 1.23 2.46.8 3.32 1.8 3.32 3.31 0 2.5-2.18 3.65-4.67 3.65-2.81 0-4.43-1.31-4.32-3.57Z" stroke="none"/><path d="M121.99 75.61c-.32-2.98-.53-5.05-.6-6.36h-.02c-.65 1.44-1.78 3.77-3.09 6.36Zm-4.83 2.43l-1.73 3.43h-3.02l7.55-14.48h3.63l1.82 14.48h-2.88l-.43-3.43Z" stroke="none"/><path d="M128.93 73.36c.18-.92.38-1.84.53-2.76h2.71c-.02.3-.14 1.09-.21 1.36.49-.66 1.42-1.57 3.18-1.57 2.07 0 3.26 1.3 2.6 4.51l-1.35 6.57h-2.75l1.34-6.6c.26-1.22 0-2.09-1.19-2.09-1.35 0-2.2 1.05-2.61 3.07l-1.15 5.62h-2.76Z" stroke="none"/><path d="M142.58 77.04c0 1.44.55 2.26 1.71 2.26 1.69 0 2.57-1.48 2.97-3.68.35-1.85-.15-2.86-1.7-2.86-1.94 0-2.98 2.35-2.98 4.29m9.28-10.9l-2.53 12.38c-.2.99-.43 1.96-.59 2.94h-2.67c.02-.4.08-.75.17-1.29-.67.98-1.66 1.5-3.05 1.5-2.25 0-3.5-1.65-3.5-4.31 0-3.32 1.94-6.98 5.59-6.98 1.5 0 2.46.62 2.7 1.14l1.12-5.39Z" stroke="none"/><path d="M169.71 76.94c-.98 3.02-3.04 4.73-6.43 4.73-3.43 0-5.28-2.2-5.28-5.84 0-3.77 2.1-9.05 7.54-9.05 3.15 0 5.08 1.74 5.17 4.79h-2.99c-.06-1.21-.56-2.42-2.49-2.42-2.77 0-4.15 3.68-4.15 6.65 0 1.96.63 3.5 2.54 3.5 1.64 0 2.5-.98 3.09-2.36Z" stroke="none"/><path d="M178 76.58c-.68 0-1.27.06-1.82.12-1.55.24-2.16.77-2.16 1.69 0 .63.4 1.11 1.29 1.11 1.91 0 2.39-1.6 2.65-2.76Zm2.3 2.22c-.23 1.12-.46 2.34-.47 2.66h-2.69c.02-.31.09-.88.15-1.23-.53.69-1.22 1.44-3.18 1.44-2.08 0-2.95-1.51-2.95-2.79 0-3.03 2.57-3.83 4.89-4.09.88-.09 1.69-.09 2.35-.11l.09-.51c.15-.79.16-1.81-1.34-1.81-1.32 0-1.55.74-1.79 1.27h-2.82c.4-1.75 1.57-3.24 4.84-3.24 2.56 0 4.45 1.09 3.86 3.95Z" stroke="none"/><path d="M183.52 70.6h1.56l.61-2.93h2.75l-.6 2.93h1.98l-.47 2.18h-1.98l-1.1 5.47c-.14.68-.08 1.12.75 1.12.32 0 .59-.02.9-.07l-.42 2.07c-.62.2-1.29.2-1.87.2-2.19 0-2.53-1.3-2.15-3.2l1.13-5.6h-1.56Z" stroke="none"/><path d="M197.18 74.77c.04-.2.05-.36.05-.48 0-.95-.4-1.76-1.62-1.76-1.27 0-2.04.84-2.4 2.24Zm-4.35 1.9c-.04.23-.07.41-.07.65 0 1.15.42 2.14 1.66 2.14 1.12 0 1.62-.62 1.97-1.32h2.88c-.59 1.61-1.93 3.52-5.08 3.52-2.83 0-4.21-1.83-4.21-4.46 0-2.86 1.52-6.83 5.71-6.83 3.1 0 4.18 1.95 4.18 4.18 0 .88-.11 1.5-.28 2.11Z" stroke="none"/><path d="M202.53 73.82c.22-1.07.43-2.22.61-3.22h2.67c-.02.27-.12 1.09-.3 1.97.72-1.3 1.67-2.18 3.51-2.18l-.57 2.87c-1.92.03-3.27 1.11-3.76 3.49l-.97 4.72h-2.77Z" stroke="none"/><path d="M216.52 74.77c.04-.2.05-.36.05-.48 0-.95-.4-1.76-1.62-1.76-1.27 0-2.04.84-2.4 2.24Zm-4.35 1.9c-.04.23-.07.41-.07.65 0 1.15.42 2.14 1.66 2.14 1.12 0 1.62-.62 1.97-1.32h2.88c-.59 1.61-1.93 3.52-5.08 3.52-2.83 0-4.22-1.83-4.22-4.46 0-2.86 1.52-6.83 5.71-6.83 3.1 0 4.18 1.95 4.18 4.18 0 .88-.11 1.5-.28 2.11Z" stroke="none"/><path d="M221.87 73.82c.22-1.07.43-2.22.61-3.22h2.67c-.02.27-.12 1.09-.3 1.97.72-1.3 1.67-2.18 3.5-2.18l-.57 2.87c-1.92.03-3.27 1.11-3.76 3.49l-.97 4.72h-2.77Z" stroke="none"/><path d="M231.25 78.1c.07.94.67 1.45 1.82 1.45 1.08 0 1.52-.51 1.52-1.23 0-.7-.56-1.04-1.87-1.47-2.47-.78-3.22-1.67-3.22-3.01 0-1.97 1.49-3.46 4.28-3.46 2.93 0 4.24 1.54 4.17 3.27h-2.8c-.03-.58-.32-1.17-1.51-1.17-.68 0-1.37.24-1.37 1 0 .58.55.8 1.85 1.23 2.46.8 3.32 1.8 3.32 3.31 0 2.5-2.18 3.65-4.67 3.65-2.81 0-4.43-1.3-4.31-3.57Z" stroke="none"/><path d="M19.66 27.25c0 4.41.57 8.69 4.09 8.69 3.47 0 3.99-4.04 3.99-8.78 0-4.59-.61-8.52-3.92-8.52-3.3 0-4.16 3.46-4.16 8.61m12.59-.12c0 6.29-1.87 12.43-8.55 12.43-6.57 0-8.54-5.86-8.54-12.27 0-6.35 2.17-12.27 8.64-12.27 6.32 0 8.44 5.62 8.44 12.12" stroke="none"/><path d="M40.17 39.13V20.67c-1.09.63-3.17 1.24-4.35 1.38V18.64c2.04-.44 4.24-1.74 5.64-3.25h3.11V39.13Z" stroke="none"/><path d="M49.51 39.13h4.63V33.15H49.51Z" fill-rule="evenodd" stroke="none"/><path d="M53.88 203.79H463.82V118.21H53.88Z" fill="none"/><path d="M5 161.28H81.53V101.97H5Z" fill="#FB03A0" fill-rule="evenodd" stroke="none"/><path d="M125.47 153.24h-2.25c-.03-.36.05-1.14.13-1.58-.95 1.3-2.17 1.78-3.92 1.78-3.29 0-4.95-2.48-4.95-5.85 0-4.28 2.47-9.04 7.66-9.04 3.32 0 5.25 1.98 5.27 4.66h-2.87c-.07-1.06-.73-2.29-2.74-2.29-3.04 0-4.34 3.63-4.34 6.46 0 2.21.86 3.68 2.82 3.68 2.37 0 3.08-1.61 3.42-3.31l.02-.07h-3.24l.54-2.59h5.95Z" stroke="none"/><path d="M129.83 145.58c.22-1.07.43-2.22.61-3.22h2.67c-.02.27-.12 1.09-.3 1.97.72-1.31 1.67-2.18 3.5-2.18l-.57 2.87c-1.92.03-3.27 1.12-3.76 3.49l-.97 4.72h-2.76Z" stroke="none"/><path d="M143.82 146.54c.04-.2.05-.35.05-.49 0-.95-.4-1.76-1.62-1.76-1.27 0-2.04.84-2.4 2.24Zm-4.35 1.9c-.04.23-.07.41-.07.65 0 1.15.42 2.14 1.66 2.14 1.12 0 1.62-.62 1.97-1.32h2.88c-.59 1.61-1.93 3.52-5.08 3.52-2.83 0-4.21-1.83-4.21-4.46 0-2.86 1.52-6.83 5.71-6.83 3.1 0 4.18 1.95 4.18 4.18 0 .88-.11 1.5-.28 2.11Z" stroke="none"/><path d="M155.16 146.54c.04-.2.04-.35.04-.49 0-.95-.4-1.76-1.62-1.76-1.27 0-2.04.84-2.4 2.24Zm-4.35 1.9c-.04.23-.07.41-.07.65 0 1.15.42 2.14 1.66 2.14 1.12 0 1.62-.62 1.97-1.32h2.88c-.59 1.61-1.93 3.52-5.08 3.52-2.83 0-4.21-1.83-4.21-4.46 0-2.86 1.52-6.83 5.71-6.83 3.1 0 4.18 1.95 4.18 4.18 0 .88-.11 1.5-.28 2.11Z" stroke="none"/><path d="M160.59 145.13c.18-.92.38-1.84.53-2.76h2.71c-.02.3-.14 1.09-.21 1.36.49-.66 1.42-1.57 3.18-1.57 2.07 0 3.26 1.29 2.6 4.51l-1.35 6.57H165.3l1.34-6.6c.26-1.22 0-2.09-1.19-2.09-1.35 0-2.2 1.05-2.61 3.07l-1.15 5.62h-2.77Z" stroke="none"/><path d="M179.25 138.76h2.86l-2.47 12.05h6.73l-.81 2.43h-9.29Z" stroke="none"/><path d="M190.72 148.97c0 1.51.61 2.25 1.69 2.25 1.98 0 2.77-2.84 2.77-4.69 0-1.41-.57-2.16-1.72-2.16-1.92 0-2.73 2.82-2.73 4.59m7.31-2.15c0 2.56-1.44 6.62-5.91 6.62-2.93 0-4.28-1.84-4.28-4.49 0-2.92 1.8-6.8 5.82-6.8 2.53 0 4.37 1.47 4.37 4.67" stroke="none"/><path d="M202.56 148.68c0 1.34.55 2.11 1.71 2.11 1.47 0 2.38-1.28 2.8-3.27.31-1.47.22-3.07-1.65-3.07-1.92 0-2.86 2.29-2.86 4.23m6.27 2.97c-.72 3.51-1.66 5.95-5.77 5.95-3.95 0-4.29-2.18-4.31-3.45h2.8c.04.66.45 1.31 1.72 1.31 1.6 0 2.22-1.01 2.72-3.33l.07-.33c-.7.89-1.59 1.3-2.94 1.3-2.27 0-3.49-1.71-3.49-4.21 0-3.2 2-6.74 5.34-6.74 1.62 0 2.51.62 2.79 1.29.09-.33.27-.86.36-1.09h2.65c-.18.81-.41 1.8-.59 2.71Z" stroke="none"/><path d="M214.5 137.91h2.76l-.55 2.68h-2.77Zm-.91 4.46h2.76l-2.23 10.87h-2.76Z" stroke="none"/><path d="M219.78 149.87c.07.94.67 1.45 1.82 1.45 1.08 0 1.52-.51 1.52-1.23 0-.7-.56-1.04-1.87-1.47-2.47-.78-3.22-1.67-3.22-3.01 0-1.97 1.49-3.46 4.28-3.46 2.93 0 4.24 1.54 4.17 3.27h-2.8c-.03-.58-.32-1.17-1.51-1.17-.68 0-1.37.24-1.37 1 0 .58.55.8 1.85 1.23 2.46.8 3.32 1.8 3.32 3.31 0 2.5-2.18 3.65-4.67 3.65-2.81 0-4.43-1.3-4.31-3.57Z" stroke="none"/><path d="M228.18 142.37h1.56l.61-2.93h2.75l-.6 2.93h1.98l-.47 2.18h-1.98l-1.11 5.47c-.14.68-.08 1.12.75 1.12.32 0 .59-.02.9-.07l-.42 2.07c-.62.2-1.29.2-1.87.2-2.19 0-2.53-1.29-2.15-3.2l1.13-5.6h-1.56Z" stroke="none"/><path d="M237.42 137.91h2.76l-.55 2.68h-2.77Zm-.91 4.46h2.76l-2.23 10.87h-2.76Z" stroke="none"/><path d="M249.49 149.68c-.58 2.05-1.99 3.76-5.11 3.76-2.66 0-4.07-1.62-4.07-4.21 0-3.16 1.76-7.08 5.66-7.08 3.42 0 4.27 2.49 4.13 3.87h-2.69c-.02-.84-.28-1.69-1.52-1.69-1.95 0-2.72 3.03-2.72 4.76 0 1.52.59 2.19 1.58 2.19.93 0 1.56-.53 1.98-1.6Z" stroke="none"/><path d="M253.68 149.87c.07.94.67 1.45 1.82 1.45 1.08 0 1.52-.51 1.52-1.23 0-.7-.56-1.04-1.87-1.47-2.47-.78-3.22-1.67-3.22-3.01 0-1.97 1.49-3.46 4.28-3.46 2.93 0 4.24 1.54 4.17 3.27h-2.8c-.03-.58-.33-1.17-1.51-1.17-.68 0-1.37.24-1.37 1 0 .58.55.8 1.85 1.23 2.46.8 3.32 1.8 3.32 3.31 0 2.5-2.18 3.65-4.67 3.65-2.81 0-4.43-1.3-4.31-3.57Z" stroke="none"/><path d="M274.95 147.38c-.32-2.98-.53-5.04-.6-6.36h-.02c-.65 1.44-1.78 3.77-3.09 6.36Zm-4.83 2.43l-1.73 3.43h-3.02l7.55-14.48h3.63l1.82 14.48H275.5l-.44-3.43Z" stroke="none"/><path d="M281.9 145.13c.18-.92.38-1.84.53-2.76h2.71c-.02.3-.14 1.09-.21 1.36.49-.66 1.42-1.57 3.18-1.57 2.07 0 3.26 1.29 2.6 4.51l-1.35 6.57h-2.75l1.34-6.6c.26-1.22 0-2.09-1.19-2.09-1.35 0-2.2 1.05-2.61 3.07L283 153.24h-2.76Z" stroke="none"/><path d="M295.55 148.81c0 1.44.55 2.26 1.71 2.26 1.69 0 2.57-1.48 2.97-3.68.35-1.85-.16-2.86-1.7-2.86-1.94 0-2.98 2.35-2.98 4.29m9.28-10.9l-2.53 12.38c-.2.99-.42 1.96-.59 2.94h-2.67c.02-.4.08-.75.17-1.29-.67.98-1.66 1.5-3.05 1.5-2.25 0-3.5-1.65-3.5-4.31 0-3.32 1.94-6.98 5.59-6.98 1.5 0 2.46.62 2.7 1.14l1.12-5.39Z" stroke="none"/><path d="M322.73 147.8c.5-2.47 1.13-5.37 1.51-7h-.08c-1.23 2.93-3.51 7.91-5.67 12.44H316c-.19-3.56-.53-9.73-.52-12.47h-.09c-.22 1.68-.81 4.8-1.32 7.28L313 153.24h-2.65l2.97-14.48h4.33c.22 3.52.44 8.47.45 10.62h.02c.74-1.96 3.09-6.67 4.93-10.62h4.33l-2.97 14.48h-2.79Z" stroke="none"/><path d="M334.38 148.35c-.68 0-1.27.06-1.82.12-1.55.24-2.16.77-2.16 1.69 0 .63.4 1.11 1.29 1.11 1.91 0 2.39-1.6 2.65-2.76Zm2.3 2.22c-.23 1.12-.46 2.34-.47 2.66h-2.69c.02-.31.09-.88.15-1.23-.53.69-1.22 1.44-3.18 1.44-2.08 0-2.95-1.51-2.95-2.79 0-3.03 2.57-3.83 4.89-4.09.88-.09 1.69-.09 2.35-.11l.09-.51c.15-.79.16-1.81-1.34-1.81-1.32 0-1.55.74-1.79 1.27h-2.82c.4-1.75 1.57-3.24 4.84-3.24 2.56 0 4.45 1.09 3.86 3.94Z" stroke="none"/><path d="M339.91 142.37h1.56l.62-2.93h2.75l-.6 2.93h1.98l-.47 2.18h-1.98l-1.1 5.47c-.14.68-.08 1.12.75 1.12.32 0 .59-.02.9-.07l-.42 2.07c-.62.2-1.29.2-1.87.2-2.19 0-2.53-1.29-2.15-3.2l1.13-5.6h-1.56Z" stroke="none"/><path d="M353.56 146.54c.04-.2.04-.35.04-.49 0-.95-.4-1.76-1.62-1.76-1.27 0-2.04.84-2.4 2.24Zm-4.35 1.9c-.04.23-.07.41-.07.65 0 1.15.42 2.14 1.67 2.14 1.12 0 1.62-.62 1.97-1.32h2.88c-.59 1.61-1.93 3.52-5.08 3.52-2.83 0-4.22-1.83-4.22-4.46 0-2.86 1.52-6.83 5.71-6.83 3.1 0 4.18 1.95 4.18 4.18 0 .88-.11 1.5-.28 2.11Z" stroke="none"/><path d="M358.91 145.58c.22-1.07.43-2.22.61-3.22h2.67c-.02.27-.12 1.09-.3 1.97.72-1.31 1.67-2.18 3.51-2.18l-.57 2.87c-1.92.03-3.27 1.12-3.76 3.49l-.97 4.72h-2.76Z" stroke="none"/><path d="M368.32 137.91h2.76l-.55 2.68h-2.77Zm-.91 4.46h2.76l-2.23 10.87h-2.76Z" stroke="none"/><path d="M377.6 148.35c-.68 0-1.27.06-1.82.12-1.55.24-2.16.77-2.16 1.69 0 .63.4 1.11 1.28 1.11 1.91 0 2.39-1.6 2.65-2.76Zm2.3 2.22c-.23 1.12-.46 2.34-.47 2.66h-2.69c.02-.31.09-.88.15-1.23-.53.69-1.22 1.44-3.18 1.44-2.08 0-2.95-1.51-2.95-2.79 0-3.03 2.57-3.83 4.89-4.09.88-.09 1.69-.09 2.35-.11l.09-.51c.15-.79.16-1.81-1.34-1.81-1.32 0-1.55.74-1.79 1.27h-2.82c.4-1.75 1.57-3.24 4.84-3.24 2.56 0 4.45 1.09 3.86 3.94Z" stroke="none"/><path d="M382.2 153.24l3.14-15.33h2.76l-3.14 15.33Z" stroke="none"/><path d="M390.63 149.87c.07.94.67 1.45 1.82 1.45 1.08 0 1.52-.51 1.52-1.23 0-.7-.56-1.04-1.87-1.47-2.47-.78-3.22-1.67-3.22-3.01 0-1.97 1.49-3.46 4.28-3.46 2.93 0 4.24 1.54 4.17 3.27h-2.8c-.03-.58-.32-1.17-1.51-1.17-.68 0-1.37.24-1.37 1 0 .58.56.8 1.85 1.23 2.46.8 3.32 1.8 3.32 3.31 0 2.5-2.18 3.65-4.67 3.65-2.81 0-4.43-1.3-4.32-3.57Z" stroke="none"/><path d="M116.53 173.99c.11 1.46 1.01 2.38 2.79 2.38 1.52 0 2.38-.57 2.38-1.9 0-1.12-.68-1.71-2.55-2.38-2.86-1.01-3.91-2.19-3.91-4.01 0-2.33 1.6-4.33 5.15-4.33 3.25 0 5.03 1.73 5.08 4.28h-2.91c-.06-.88-.44-1.96-2.29-1.96-1.19 0-2.07.56-2.07 1.68 0 .8.45 1.31 2.25 1.96 2.84 1.03 4.26 2.21 4.26 4.39 0 2.31-1.35 4.54-5.68 4.54-3.5 0-5.34-1.83-5.42-4.66Z" stroke="none"/><path d="M135.56 175.53c-.2.96-.4 2.03-.55 2.9h-2.71c.02-.3.13-1.11.22-1.5-.79 1.18-1.92 1.71-3.33 1.71-1.96 0-3.08-1.35-2.57-3.84l1.5-7.24h2.74l-1.42 6.86c-.24 1.13-.06 1.87 1.11 1.87 1.21 0 2.25-.98 2.75-3.4l1.11-5.33h2.76Z" stroke="none"/><path d="M146.21 171.92c0-1.56-.7-2.21-1.76-2.21-1.5 0-2.51 1.43-2.89 3.34-.35 1.8-.08 3.27 1.66 3.27 2.07 0 2.98-2.56 2.98-4.4m-5.45 5.52l-1.06 5.16h-2.75l2.43-11.88c.3-1.47.49-2.44.59-3.15h2.74c0 .23-.13.96-.22 1.45.58-.83 1.58-1.66 3.22-1.66 2.13 0 3.37 1.66 3.37 4.25 0 3.4-2.01 7.03-5.76 7.03-1.31 0-2.21-.58-2.57-1.21" stroke="none"/><path d="M158.57 171.92c0-1.56-.7-2.21-1.76-2.21-1.5 0-2.51 1.43-2.89 3.34-.35 1.8-.08 3.27 1.66 3.27 2.07 0 2.98-2.56 2.98-4.4m-5.45 5.52l-1.06 5.16h-2.75l2.43-11.88c.3-1.47.49-2.44.59-3.15h2.74c0 .23-.13.96-.22 1.45.58-.83 1.58-1.66 3.22-1.66 2.13 0 3.37 1.66 3.37 4.25 0 3.4-2.01 7.03-5.76 7.03-1.3 0-2.21-.58-2.57-1.21" stroke="none"/><path d="M162.53 178.43l3.14-15.33h2.76l-3.14 15.33Z" stroke="none"/><path d="M171.28 163.11h2.76l-.55 2.68h-2.77Zm-.91 4.46h2.76l-2.23 10.87h-2.77Z" stroke="none"/><path d="M181.38 171.74c.04-.2.04-.35.04-.48 0-.95-.4-1.76-1.62-1.76-1.27 0-2.04.84-2.4 2.24Zm-4.35 1.9c-.04.23-.07.41-.07.65 0 1.15.42 2.15 1.66 2.15 1.12 0 1.62-.62 1.97-1.32h2.88c-.59 1.6-1.93 3.52-5.08 3.52-2.83 0-4.22-1.83-4.22-4.46 0-2.87 1.52-6.83 5.71-6.83 3.1 0 4.18 1.95 4.18 4.18 0 .88-.11 1.5-.28 2.11Z" stroke="none"/><path d="M186.73 170.78c.22-1.06.43-2.21.61-3.22H190c-.02.27-.12 1.09-.3 1.97.72-1.31 1.67-2.18 3.5-2.18l-.57 2.87c-1.92.03-3.27 1.11-3.76 3.49l-.97 4.72h-2.77Z" stroke="none"/><path d="M196.11 175.07c.07.94.67 1.45 1.82 1.45 1.09 0 1.52-.51 1.52-1.23 0-.7-.56-1.04-1.87-1.47-2.47-.78-3.22-1.67-3.22-3.01 0-1.97 1.49-3.46 4.29-3.46 2.93 0 4.24 1.54 4.17 3.27h-2.8c-.03-.58-.32-1.17-1.51-1.17-.68 0-1.37.24-1.37 1 0 .58.56.8 1.85 1.23 2.46.8 3.32 1.8 3.32 3.31 0 2.5-2.18 3.65-4.67 3.65-2.81 0-4.43-1.31-4.32-3.57Z" stroke="none"/><path d="M19.66 124.22c0 4.4.57 8.69 4.09 8.69 3.47 0 3.99-4.04 3.99-8.78 0-4.59-.61-8.52-3.92-8.52-3.3 0-4.16 3.46-4.16 8.61m12.59-.12c0 6.29-1.87 12.43-8.55 12.43-6.57 0-8.54-5.86-8.54-12.27 0-6.35 2.17-12.28 8.64-12.28 6.32 0 8.44 5.62 8.44 12.12" stroke="none"/><path d="M35.8 136.1v-.28c0-3.89 1.93-7.3 6.81-11.03 3.39-2.6 4.38-3.47 4.38-5.72 0-2.16-1.05-3.54-3.26-3.54-2.43 0-3.41 1.45-3.78 3.79h-4.2c.36-4.06 2.91-7.34 7.98-7.34 5.64 0 7.65 3.55 7.65 7.02 0 3.49-1.45 5.07-5.68 8.24-2.94 2.21-4.27 3.75-4.72 5.07H52.24l-.56 3.78Z" stroke="none"/><path d="M56.51 136.1h4.63v-5.98H56.51Z" fill-rule="evenodd" stroke="none"/><path d="M53.88 300.76H463.82V215.18H53.88Z" fill="none"/><path d="M5 258.25H81.53V198.94H5Z" fill="#FB03A0" fill-rule="evenodd" stroke="none"/><path d="M126.11 245.67c-.98 3.02-3.04 4.73-6.43 4.73-3.43 0-5.28-2.2-5.28-5.84 0-3.77 2.1-9.05 7.54-9.05 3.15 0 5.07 1.74 5.16 4.79h-2.99c-.06-1.21-.56-2.42-2.49-2.42-2.77 0-4.15 3.68-4.15 6.65 0 1.96.63 3.5 2.54 3.5 1.64 0 2.5-.98 3.09-2.36Z" stroke="none"/><path d="M134.4 245.32c-.68 0-1.27.06-1.82.12-1.55.24-2.16.77-2.16 1.69 0 .63.4 1.11 1.29 1.11 1.91 0 2.39-1.6 2.65-2.76Zm2.3 2.22c-.23 1.12-.46 2.34-.47 2.66h-2.69c.02-.31.09-.88.15-1.23-.53.69-1.22 1.44-3.18 1.44-2.07 0-2.95-1.51-2.95-2.79 0-3.03 2.57-3.83 4.89-4.09.88-.09 1.69-.09 2.35-.11l.09-.51c.15-.79.16-1.81-1.34-1.81-1.32 0-1.55.74-1.79 1.27h-2.82c.4-1.75 1.57-3.24 4.84-3.24 2.56 0 4.45 1.09 3.86 3.94Z" stroke="none"/><path d="M140.58 242.55c.22-1.07.43-2.22.61-3.22h2.67c-.02.27-.12 1.09-.3 1.97.72-1.31 1.67-2.18 3.5-2.18l-.57 2.87c-1.92.03-3.27 1.12-3.76 3.49l-.97 4.72H139Z" stroke="none"/><path d="M155.35 243.51c0-1.35-.58-2.03-1.74-2.03-1.44 0-2.4 1.09-2.83 3.37-.41 2.12.08 3.24 1.62 3.24 2.14 0 2.95-2.79 2.95-4.57m-5.18-8.63h2.77l-1.17 5.66c.66-.82 1.64-1.41 3.08-1.41 2.2 0 3.39 1.73 3.39 4.08 0 3.32-1.78 7.2-5.66 7.2-1.45 0-2.25-.57-2.58-1.23-.07.3-.18.79-.26 1.02h-2.71c.15-.73.36-1.69.6-2.78Z" stroke="none"/><path d="M162.59 245.94c0 1.51.61 2.25 1.69 2.25 1.98 0 2.77-2.84 2.77-4.69 0-1.41-.57-2.16-1.72-2.16-1.92 0-2.73 2.82-2.73 4.59m7.31-2.15c0 2.56-1.44 6.62-5.91 6.62-2.93 0-4.28-1.84-4.28-4.49 0-2.92 1.8-6.8 5.82-6.8 2.53 0 4.37 1.47 4.37 4.66" stroke="none"/><path d="M172.67 242.1c.18-.92.38-1.84.53-2.76h2.71c-.02.3-.14 1.09-.21 1.36.49-.66 1.42-1.57 3.18-1.57 2.07 0 3.26 1.29 2.6 4.51l-1.35 6.57h-2.75l1.34-6.6c.26-1.22 0-2.09-1.19-2.09-1.35 0-2.2 1.06-2.61 3.07l-1.15 5.62h-2.76Z" stroke="none"/><path d="M193.33 238.15h-4.1l.51-2.43h11.04l-.51 2.43h-4.08l-2.47 12.05h-2.86Z" stroke="none"/><path d="M199.99 242.55c.22-1.07.43-2.22.61-3.22h2.67c-.02.27-.12 1.09-.3 1.97.72-1.31 1.67-2.18 3.51-2.18l-.57 2.87c-1.92.03-3.27 1.12-3.76 3.49l-.97 4.72h-2.76Z" stroke="none"/><path d="M212.92 245.32c-.68 0-1.27.06-1.82.12-1.55.24-2.16.77-2.16 1.69 0 .63.4 1.11 1.29 1.11 1.91 0 2.39-1.6 2.65-2.76Zm2.3 2.22c-.23 1.12-.46 2.34-.47 2.66h-2.69c.02-.31.09-.88.15-1.23-.53.69-1.22 1.44-3.18 1.44-2.08 0-2.95-1.51-2.95-2.79 0-3.03 2.57-3.83 4.89-4.09.88-.09 1.69-.09 2.35-.11l.09-.51c.15-.79.16-1.81-1.34-1.81-1.32 0-1.55.74-1.79 1.27h-2.82c.4-1.75 1.57-3.24 4.84-3.24 2.56 0 4.45 1.09 3.86 3.94Z" stroke="none"/><path d="M227.14 246.65c-.58 2.05-1.99 3.76-5.11 3.76-2.66 0-4.07-1.62-4.07-4.21 0-3.16 1.76-7.08 5.66-7.08 3.42 0 4.27 2.49 4.13 3.87h-2.69c-.03-.84-.28-1.69-1.53-1.69-1.95 0-2.71 3.03-2.71 4.76 0 1.52.59 2.19 1.57 2.19.93 0 1.56-.53 1.98-1.6Z" stroke="none"/><path d="M232.58 243.77c1-1.03 3.06-3.04 4.48-4.43h3.33c-1.48 1.46-3.01 2.88-4.47 4.24l2.45 6.63h-3.1l-1.49-4.84-1.77 1.42-.69 3.42h-2.76l3.14-15.33h2.76Z" stroke="none"/><path d="M242.78 234.88h2.77l-.55 2.68h-2.77Zm-.91 4.46h2.76l-2.23 10.87h-2.76Z" stroke="none"/><path d="M246.9 242.1c.18-.92.38-1.84.53-2.76h2.71c-.02.3-.14 1.09-.21 1.36.49-.66 1.42-1.57 3.18-1.57 2.07 0 3.26 1.29 2.6 4.51l-1.34 6.57h-2.75l1.34-6.6c.26-1.22 0-2.09-1.19-2.09-1.35 0-2.2 1.06-2.61 3.07l-1.15 5.62h-2.77Z" stroke="none"/><path d="M260.54 245.65c0 1.34.56 2.11 1.71 2.11 1.46 0 2.38-1.28 2.8-3.27.31-1.47.22-3.07-1.65-3.07-1.92 0-2.86 2.29-2.86 4.23m6.27 2.97c-.73 3.51-1.66 5.95-5.77 5.95-3.95 0-4.29-2.18-4.31-3.45h2.8c.03.66.45 1.31 1.72 1.31 1.6 0 2.22-1.02 2.72-3.33l.07-.33c-.69.89-1.59 1.3-2.94 1.3-2.27 0-3.49-1.71-3.49-4.21 0-3.2 2-6.74 5.34-6.74 1.63 0 2.51.62 2.79 1.29.09-.33.27-.86.36-1.09h2.65c-.18.81-.41 1.8-.59 2.71Z" stroke="none"/><path d="M282.93 244.35c-.32-2.98-.53-5.04-.6-6.36h-.02c-.65 1.44-1.78 3.77-3.09 6.36Zm-4.83 2.43l-1.73 3.43h-3.02l7.55-14.48h3.63l1.82 14.48h-2.88l-.43-3.43Z" stroke="none"/><path d="M289.87 242.1c.18-.92.38-1.84.53-2.76h2.71c-.02.3-.14 1.09-.21 1.36.49-.66 1.42-1.57 3.18-1.57 2.07 0 3.26 1.29 2.6 4.51l-1.35 6.57h-2.75l1.34-6.6c.26-1.22 0-2.09-1.19-2.09-1.35 0-2.2 1.06-2.61 3.07l-1.15 5.62h-2.76Z" stroke="none"/><path d="M303.52 245.78c0 1.44.55 2.26 1.71 2.26 1.69 0 2.57-1.48 2.97-3.68.35-1.85-.16-2.86-1.7-2.86-1.94 0-2.98 2.35-2.98 4.29m9.28-10.9l-2.53 12.38c-.2.99-.42 1.96-.59 2.94h-2.67c.02-.4.08-.75.17-1.29-.67.98-1.66 1.5-3.05 1.5-2.25 0-3.5-1.65-3.5-4.31 0-3.32 1.94-6.98 5.59-6.98 1.5 0 2.46.62 2.7 1.14l1.11-5.39Z" stroke="none"/><path d="M321.97 244.47c0 2.19.96 3.57 2.93 3.57 3.15 0 4.42-3.52 4.42-6.54 0-2.12-.82-3.62-2.87-3.62-2.98 0-4.48 3.52-4.48 6.58m10.29-2.93c0 4.45-2.4 8.87-7.74 8.87-3.73 0-5.53-2.54-5.53-5.83 0-4.3 2.55-9.07 7.63-9.07 3.87 0 5.64 2.66 5.64 6.03" stroke="none"/><path d="M338.28 241.52l-1.76 8.69h-2.75l1.76-8.69h-1.5l.47-2.18h1.48l.22-1.09c.46-2.25 1.64-3.58 3.79-3.58.47 0 1.06.06 1.3.15l-.47 2.27c-.16-.03-.4-.05-.61-.05-.83 0-1.15.55-1.28 1.24l-.21 1.06h3.35l.23-1.09c.46-2.25 1.63-3.58 3.78-3.58.47 0 1.06.06 1.3.15l-.47 2.27c-.15-.03-.4-.05-.61-.05-.83 0-1.11.55-1.26 1.24l-.23 1.06h1.79l-.47 2.18h-1.77l-1.76 8.69h-2.78l1.76-8.69Z" stroke="none"/><path d="M349.28 246.84c.07.94.67 1.45 1.82 1.45 1.09 0 1.52-.51 1.52-1.23 0-.7-.56-1.04-1.87-1.47-2.47-.78-3.22-1.67-3.22-3.01 0-1.97 1.49-3.46 4.28-3.46 2.93 0 4.24 1.54 4.17 3.27h-2.8c-.03-.58-.32-1.17-1.51-1.17-.68 0-1.37.24-1.37 1 0 .58.56.8 1.85 1.23 2.46.8 3.32 1.8 3.32 3.31 0 2.5-2.18 3.65-4.67 3.65-2.81 0-4.43-1.31-4.32-3.57Z" stroke="none"/><path d="M364.4 243.51c.04-.2.05-.35.05-.49 0-.95-.4-1.76-1.62-1.76-1.27 0-2.04.84-2.4 2.24Zm-4.35 1.9c-.04.23-.07.41-.07.65 0 1.15.42 2.14 1.66 2.14 1.12 0 1.62-.62 1.97-1.32h2.88c-.59 1.61-1.93 3.52-5.08 3.52-2.83 0-4.22-1.83-4.22-4.46 0-2.86 1.52-6.83 5.71-6.83 3.1 0 4.18 1.95 4.18 4.18 0 .88-.11 1.5-.28 2.11Z" stroke="none"/><path d="M369.17 239.34h1.56l.62-2.93h2.75l-.6 2.93h1.98l-.47 2.18h-1.98l-1.1 5.47c-.14.68-.08 1.12.75 1.12.32 0 .59-.02.9-.07l-.42 2.07c-.62.2-1.29.2-1.87.2-2.19 0-2.53-1.29-2.15-3.2l1.13-5.6H368.7Z" stroke="none"/><path d="M118.22 267.61h2.16c1.9 0 2.92-.73 2.92-2.4 0-1.26-.7-1.91-2.21-1.91h-1.98Zm-1.45-6.68h4.9c2.94 0 4.63 1.69 4.63 4.09 0 3.34-2.41 4.96-5.75 4.96h-2.81l-1.1 5.43H113.8Z" stroke="none"/><path d="M133.22 270.52c-.68 0-1.27.06-1.82.12-1.55.24-2.16.77-2.16 1.69 0 .63.4 1.11 1.29 1.11 1.91 0 2.39-1.6 2.65-2.76Zm2.3 2.22c-.23 1.12-.46 2.34-.47 2.66h-2.69c.02-.31.09-.88.15-1.23-.53.69-1.22 1.44-3.18 1.44-2.08 0-2.95-1.51-2.95-2.79 0-3.03 2.57-3.83 4.89-4.09.88-.09 1.69-.09 2.35-.11l.09-.51c.15-.79.16-1.81-1.34-1.81-1.32 0-1.55.74-1.79 1.26h-2.82c.4-1.75 1.57-3.24 4.84-3.24 2.56 0 4.45 1.09 3.86 3.94Z" stroke="none"/><path d="M139.4 267.75c.22-1.07.43-2.22.61-3.22h2.67c-.02.27-.12 1.09-.3 1.97.72-1.31 1.67-2.18 3.5-2.18l-.57 2.87c-1.92.03-3.27 1.11-3.76 3.49l-.97 4.72h-2.76Z" stroke="none"/><path d="M147.28 264.54h1.56l.61-2.93h2.75l-.6 2.93h1.98l-.47 2.18h-1.98l-1.11 5.47c-.14.68-.08 1.12.75 1.12.32 0 .59-.02.9-.07l-.42 2.07c-.62.2-1.29.2-1.87.2-2.19 0-2.53-1.3-2.15-3.2l1.13-5.6h-1.56Z" stroke="none"/><path d="M155.12 267.29c.18-.92.38-1.84.53-2.76h2.71c-.02.3-.14 1.09-.21 1.36.49-.66 1.42-1.57 3.18-1.57 2.07 0 3.26 1.29 2.6 4.51l-1.34 6.57h-2.75l1.34-6.59c.26-1.22 0-2.09-1.19-2.09-1.35 0-2.2 1.06-2.61 3.07l-1.15 5.62h-2.76Z" stroke="none"/><path d="M173.06 268.71c.04-.2.05-.36.05-.49 0-.95-.4-1.76-1.62-1.76-1.27 0-2.04.84-2.4 2.24Zm-4.35 1.9c-.04.23-.07.41-.07.65 0 1.15.42 2.14 1.66 2.14 1.12 0 1.62-.62 1.97-1.32h2.88c-.59 1.61-1.93 3.52-5.08 3.52-2.83 0-4.21-1.83-4.21-4.46 0-2.86 1.52-6.83 5.71-6.83 3.1 0 4.18 1.95 4.18 4.18 0 .88-.11 1.5-.28 2.11Z" stroke="none"/><path d="M178.41 267.75c.22-1.07.43-2.22.61-3.22h2.67c-.02.27-.12 1.09-.3 1.97.72-1.31 1.67-2.18 3.51-2.18l-.57 2.87c-1.92.03-3.27 1.11-3.76 3.49l-.97 4.72h-2.76Z" stroke="none"/><path d="M187.79 272.04c.07.94.67 1.45 1.82 1.45 1.09 0 1.52-.51 1.52-1.23 0-.7-.56-1.04-1.87-1.47-2.47-.78-3.22-1.67-3.22-3.01 0-1.97 1.49-3.46 4.28-3.46 2.93 0 4.24 1.53 4.17 3.27h-2.8c-.03-.58-.33-1.17-1.51-1.17-.68 0-1.37.24-1.37 1 0 .58.55.8 1.85 1.23 2.46.8 3.32 1.8 3.32 3.31 0 2.5-2.18 3.65-4.67 3.65-2.81 0-4.43-1.31-4.31-3.57Z" stroke="none"/><path d="M19.66 221.19c0 4.41.57 8.69 4.09 8.69 3.47 0 3.99-4.04 3.99-8.78 0-4.59-.61-8.52-3.92-8.52-3.3 0-4.16 3.46-4.16 8.61m12.59-.11c0 6.29-1.87 12.43-8.55 12.43-6.57 0-8.54-5.86-8.54-12.27 0-6.35 2.17-12.27 8.64-12.27 6.32 0 8.44 5.62 8.44 12.12" stroke="none"/><path d="M35.99 215.32c.33-2.92 2.33-6.36 7.78-6.36 5.13 0 7.42 3.07 7.42 6.34 0 2.87-1.61 4.26-2.91 4.84v.1c1.68.6 3.84 2.17 3.84 5.8 0 3.54-2.1 7.47-8.39 7.47-5.85 0-7.99-3.69-8.26-6.83H39.7c.36 1.78 1.6 3.33 4.16 3.33 2.64 0 3.86-1.78 3.86-4.03 0-2.52-1.35-3.88-4.17-3.88H41.63v-3.5H43.3c2.53 0 3.59-.93 3.59-3.08 0-1.8-1.09-3.02-3.26-3.02-2.47 0-3.19 1.4-3.5 2.82Z" stroke="none"/><path d="M56.02 233.07h4.63v-5.98H56.02Z" fill-rule="evenodd" stroke="none"/></g></g></svg>