<?xml version="1.0" encoding="UTF-8"?><!DOCTYPE svg PUBLIC "-//W3C//DTD SVG 1.0//EN" "http://www.w3.org/TR/2001/REC-SVG-20010904/DTD/svg10.dtd" []><svg xmlns="http://www.w3.org/2000/svg" xmlns:xlink="http://www.w3.org/1999/xlink" height="35" stroke="#000" stroke-linecap="square" stroke-miterlimit="10" viewBox="0 0 143.3 35.19" width="143"><defs><clipPath id="a"><path d="M0 0V35.19H143.3V0Z"/></clipPath><clipPath clip-path="url(#a)" id="b"><path d="M-630.87 271.15H329.25V-268.97H-630.87Z"/></clipPath></defs><g><g fill="#FF00A4" stroke="none"><path clip-path="url(#b)" d="M6.95 28.33H12.8c6.41 0 9.56-4.65 9.56-10.85 0-5.51-2.84-10.63-9.56-10.63H6.95ZM5 5h8.12c6.7 0 11.34 4.82 11.34 12.38 0 7.52-4.53 12.81-11.38 12.81H5Z"/><path clip-path="url(#b)" d="M44.55 17.84H32.12V28.33H45.73l-.29 1.86H30.17V5h15V6.86H32.12v9.13H44.55Z"/><path clip-path="url(#b)" d="M50.88 5h1.95V28.33H65.92l-.35 1.86H50.88Z"/><path clip-path="url(#b)" d="M70.02 30.19h1.95V5H70.02Z" fill-rule="evenodd"/><path clip-path="url(#b)" d="M85.24 30.19L76.19 5h2.1L83 18.14c1.35 3.81 2.87 7.99 3.4 10.12h.07c.52-1.88 2.18-6.28 3.54-9.98L94.9 5h2.06l-9.4 25.19Z"/><path clip-path="url(#b)" d="M115.8 17.84H103.38V28.33h13.61l-.29 1.86H101.43V5h15V6.86H103.38v9.13H115.8Z"/><path clip-path="url(#b)" d="M124.12 16.6h5.86c4.26 0 6.23-1.65 6.23-4.93 0-3.07-1.94-4.82-5.71-4.82h-6.37Zm0 1.85V30.19h-1.99V5h8.79c4.82 0 7.37 2.67 7.37 6.63 0 3.21-1.85 5.29-4.54 5.9 2.48.61 4.16 2.29 4.16 6.58v.98c0 1.76-.14 4.13.31 5.1h-1.98c-.45-1.08-.35-3.09-.35-5.26v-.64c0-4.11-1.17-5.83-5.83-5.83Z"/></g></g></svg>