<?xml version="1.0" encoding="UTF-8"?><!DOCTYPE svg PUBLIC "-//W3C//DTD SVG 1.0//EN" "http://www.w3.org/TR/2001/REC-SVG-20010904/DTD/svg10.dtd" []><svg xmlns="http://www.w3.org/2000/svg" xmlns:xlink="http://www.w3.org/1999/xlink" height="21" stroke="#000" stroke-linecap="square" stroke-miterlimit="10" viewBox="0 0 151.82 21.44" width="152"><defs><clipPath id="a"><path d="M0 0V21.44H151.82V0Z"/></clipPath><clipPath clip-path="url(#a)" id="b"><path d="M-392.25 275.07H567.87v-540H-392.25Z"/></clipPath></defs><g><g fill="#fff" stroke="none" stroke-linecap="butt"><path clip-path="url(#b)" d="M5 5.16H6.65V9.74h5.54V5.16h1.65V16.28H12.19V11.14H6.65v5.14H5Z"/><path clip-path="url(#b)" d="M17.99 10.67c0 2.36 1.18 4.38 3.49 4.38 2.5 0 3.47-2.06 3.47-4.36 0-2.34-1.11-4.29-3.48-4.29-2.42 0-3.48 1.95-3.48 4.28m8.68-.01c0 3.06-1.74 5.78-5.27 5.78-3.31 0-5.14-2.53-5.14-5.72S18.16 5 21.54 5c3.15 0 5.13 2.34 5.13 5.66"/><path clip-path="url(#b)" d="M29.1 16.28V5.16h2.15c1.55 2.58 4.85 7.91 5.46 9.12h.02c-.11-1.38-.1-3.16-.1-4.98V5.16h1.54V16.28H36.14c-1.42-2.37-4.89-8.17-5.56-9.42h-.02c.08 1.21.09 3.17.09 5.17v4.25Z"/><path clip-path="url(#b)" d="M50.33 16.28H49.08c-.08-.24-.12-.71-.15-1.43-.51.8-1.49 1.59-3.41 1.59-3.21 0-4.93-2.43-4.93-5.6C40.59 7.51 42.43 5 45.82 5c2.64 0 4.27 1.44 4.58 3.41H48.75c-.35-1.15-1.18-2.06-2.96-2.06-2.52 0-3.48 2.03-3.48 4.41 0 2.22.98 4.31 3.43 4.31 2.41 0 2.98-1.61 2.98-3.32v-.11h-3v-1.4h4.61Z"/><path clip-path="url(#b)" d="M57.25 5.16h1.64v5.36c.81-.86 3.53-3.6 5.22-5.36h2.03L61.42 9.84l4.94 6.44h-2l-4.1-5.37-1.38 1.26v4.12H57.25Z"/><path clip-path="url(#b)" d="M68.59 10.67c0 2.36 1.18 4.38 3.49 4.38 2.5 0 3.47-2.06 3.47-4.36 0-2.34-1.11-4.29-3.48-4.29-2.42 0-3.48 1.95-3.48 4.28m8.68-.01c0 3.06-1.74 5.78-5.26 5.78-3.31 0-5.14-2.53-5.14-5.72S68.76 5 72.14 5c3.15 0 5.13 2.34 5.13 5.66"/><path clip-path="url(#b)" d="M79.7 16.28V5.16h2.15c1.56 2.58 4.85 7.91 5.46 9.12h.02c-.11-1.38-.1-3.16-.1-4.98V5.16h1.54V16.28H86.75c-1.42-2.37-4.89-8.17-5.56-9.42h-.02c.08 1.21.09 3.17.09 5.17v4.25Z"/><path clip-path="url(#b)" d="M100.94 16.28H99.68c-.08-.24-.12-.71-.15-1.43-.51.8-1.49 1.59-3.41 1.59-3.21 0-4.93-2.43-4.93-5.6C91.19 7.51 93.04 5 96.42 5c2.64 0 4.27 1.44 4.58 3.41H99.35C99 7.26 98.17 6.35 96.39 6.35c-2.52 0-3.48 2.03-3.48 4.41 0 2.22.98 4.31 3.43 4.31 2.41 0 2.98-1.61 2.98-3.32v-.11h-3v-1.4h4.61Z"/><path clip-path="url(#b)" d="M107.33 12.88h4.25V11.47h-4.25Z" fill-rule="evenodd"/><path clip-path="url(#b)" d="M123.52 12.05c-.55 1.39-1.49 2.31-3.29 2.31-1.97 0-2.76-1.42-2.76-3.08 0-2.36 1.29-4.8 3.85-4.8 1.61 0 2.58.92 2.66 2.4h-.76c-.09-1.07-.73-1.76-1.97-1.76-1.96 0-2.98 2.06-2.98 4.14 0 1.33.59 2.47 2.08 2.47 1.06 0 1.87-.5 2.4-1.67Z"/><path clip-path="url(#b)" d="M127.58 6.18l-.75 3.52c.4-.61.99-1.07 1.91-1.07.76 0 1.75.36 1.4 2.08l-.75 3.57h-.69l.73-3.44c.22-1.02-.03-1.56-.91-1.56-1 0-1.75.83-2 1.98l-.65 3.03h-.7l1.71-8.09Z"/><path clip-path="url(#b)" d="M133.71 6.18h.7l-.23 1.13h-.7Zm-.54 2.56h.7l-1.17 5.54H132Z"/><path clip-path="url(#b)" d="M136.18 10.15c.1-.48.19-.95.28-1.41h.68c-.02.18-.15.89-.19 1.04.34-.57.89-1.15 1.93-1.15s1.72.59 1.38 2.14l-.73 3.51h-.69l.73-3.46c.2-.92-.01-1.54-.94-1.54-1.15 0-1.79 1.1-2.04 2.27L136 14.28h-.7Z"/><path clip-path="url(#b)" d="M145.89 11.49c-.27.01-.67.01-1.2.06-.93.09-1.91.32-1.91 1.37 0 .46.31.85.97.85 1.29 0 1.85-.99 2.12-2.19Zm.38 1.41c-.09.42-.23 1.13-.26 1.38h-.69c.02-.22.09-.58.17-.94-.28.48-.79 1.05-1.95 1.05-1.12 0-1.51-.72-1.51-1.38 0-1.59 1.53-1.91 2.6-2.01.62-.05 1.13-.05 1.38-.06l.08-.42c.11-.57.06-1.3-1.1-1.3-1.02 0-1.33.53-1.51 1.01h-.71c.18-.8.79-1.6 2.29-1.6 1.24 0 1.99.58 1.73 1.86Z"/></g></g></svg>