<?xml version="1.0" encoding="UTF-8"?><!DOCTYPE svg PUBLIC "-//W3C//DTD SVG 1.0//EN" "http://www.w3.org/TR/2001/REC-SVG-20010904/DTD/svg10.dtd" []><svg xmlns="http://www.w3.org/2000/svg" xmlns:xlink="http://www.w3.org/1999/xlink" height="85" stroke="#000" stroke-linecap="square" stroke-miterlimit="10" viewBox="0 0 166.63 84.97" width="167"><defs><clipPath id="a"><path d="M0 0V84.97H166.63V0Z"/></clipPath><clipPath clip-path="url(#a)" id="b"><path d="M-501.22 247.94H458.9V-292.18H-501.22Z"/></clipPath></defs><g><g fill="#fff" stroke="none" stroke-linecap="butt"><path clip-path="url(#b)" d="M6.38 11.14c0 2.5 1.29 4.79 3.77 4.79 2.67 0 3.76-2.26 3.76-4.79 0-2.51-1.24-4.68-3.74-4.68-2.63 0-3.79 2.23-3.79 4.69m8.7-.02c0 3.06-1.62 5.82-4.99 5.82-3.11 0-4.88-2.54-4.88-5.75 0-3.18 1.76-5.75 5-5.75 3 0 4.87 2.39 4.87 5.68"/><path clip-path="url(#b)" d="M23.01 12.58c0-1.8-.82-3.09-2.26-3.09-1.76 0-2.48 1.15-2.48 3.23 0 2.04.57 3.3 2.37 3.3 1.53 0 2.37-1.32 2.37-3.44m-4.69 3.09v4.3H17.29V10.7c0-.66 0-1.35-.02-1.97h1.01c.03.29.04.77.04 1.37.45-.9 1.28-1.56 2.65-1.56 1.82 0 3.11 1.58 3.11 4.01 0 2.89-1.5 4.43-3.39 4.43-1.32 0-2.01-.59-2.38-1.29"/><path clip-path="url(#b)" d="M31.23 12.08c-.02-1.47-.77-2.64-2.21-2.64-1.5 0-2.17 1.08-2.33 2.64Zm-4.58.83c.01 1.88.93 3.11 2.34 3.11 1.36 0 1.81-.76 2.08-1.39h1.05c-.32 1.05-1.15 2.33-3.17 2.33-2.41 0-3.36-2.09-3.36-4.15 0-2.34 1.14-4.29 3.45-4.29 2.45 0 3.24 2.12 3.24 3.72 0 .23 0 .45-.02.66Z"/><path clip-path="url(#b)" d="M34.28 10.91c0-1.25-.01-1.86-.02-2.19h1.02c.02.24.04.81.04 1.73.43-1.15 1.4-1.87 2.67-1.92V9.64c-1.61.08-2.67 1.11-2.67 3.08v4.06H34.28Z"/><path clip-path="url(#b)" d="M43.94 12.75H42.53c-1.65 0-2.61.46-2.61 1.73 0 .93.63 1.59 1.67 1.59 2.07 0 2.35-1.43 2.35-3.04Zm1.01 2.39c0 .72.06 1.39.11 1.63h-.99c-.06-.19-.11-.55-.14-1.15-.27.57-.92 1.35-2.49 1.35-1.82 0-2.6-1.22-2.6-2.44 0-1.78 1.34-2.6 3.67-2.6h1.41v-.76c0-.76-.23-1.74-1.86-1.74-1.45 0-1.68.77-1.84 1.41H39.21c.1-.99.69-2.32 2.88-2.32 1.84 0 2.86.79 2.86 2.59Z"/><path clip-path="url(#b)" d="M46.38 8.72h1.4V6.27h1.04V8.72h1.79v.93H48.82v5c0 .85.19 1.31.91 1.31.21 0 .52-.01.75-.08v.86c-.3.12-.71.15-1.06.15-1.1 0-1.65-.58-1.65-1.89V9.65h-1.4Z"/><path clip-path="url(#b)" d="M52.27 8.72h1.04v8.05H52.27Zm0-3.72h1.04V6.64H52.27Z"/><path clip-path="url(#b)" d="M56.4 12.75c0 1.85.93 3.28 2.47 3.28 1.57 0 2.45-1.34 2.45-3.27 0-1.86-.87-3.28-2.48-3.28-1.63 0-2.44 1.39-2.44 3.28m6-.02c0 2.28-1.24 4.24-3.59 4.24-2.16 0-3.49-1.79-3.49-4.21 0-2.34 1.27-4.22 3.57-4.22 2.11 0 3.51 1.68 3.51 4.2"/><path clip-path="url(#b)" d="M64.4 10.75c0-.7 0-1.4-.02-2.03H65.4c.03.25.05 1.21.04 1.44.33-.76.97-1.63 2.53-1.63 1.42 0 2.61.86 2.61 3.04v5.2H69.54V11.73c0-1.33-.52-2.22-1.8-2.22-1.68 0-2.3 1.39-2.3 3.09v4.18H64.4Z"/><path clip-path="url(#b)" d="M73.41 14.52c.25.97.92 1.55 2.08 1.55 1.28 0 1.79-.59 1.79-1.42 0-.84-.37-1.25-1.99-1.65-2.11-.53-2.59-1.19-2.59-2.27 0-1.12.81-2.2 2.68-2.2s2.71 1.15 2.82 2.29H77.17c-.13-.61-.58-1.39-1.85-1.39-1.23 0-1.6.62-1.6 1.22 0 .68.35 1.01 1.84 1.39 2.27.56 2.78 1.34 2.78 2.54 0 1.44-1.12 2.4-2.9 2.4-1.89 0-2.88-1.01-3.09-2.45Z"/><path clip-path="url(#b)" d="M84.48 10.91c0-1.25-.01-1.86-.02-2.19h1.02c.02.24.04.81.04 1.73.43-1.15 1.4-1.87 2.67-1.92V9.64c-1.61.08-2.67 1.11-2.67 3.08v4.06H84.48Z"/><path clip-path="url(#b)" d="M95.74 14.43c0 .79.01 1.97.02 2.35h-1c-.03-.21-.05-.72-.05-1.31-.35.92-1.13 1.51-2.44 1.51-1.21 0-2.56-.55-2.56-2.93V8.72h1.02V13.8c0 1.12.34 2.19 1.77 2.19 1.6 0 2.21-.93 2.21-3.1V8.72h1.04Z"/><path clip-path="url(#b)" d="M98.34 10.75c0-.7 0-1.4-.02-2.03h1.01c.03.25.05 1.21.04 1.44.33-.76.97-1.63 2.53-1.63 1.42 0 2.61.86 2.61 3.04v5.2h-1.04V11.73c0-1.33-.52-2.22-1.8-2.22-1.68 0-2.3 1.39-2.3 3.09v4.18H98.34Z"/><path clip-path="url(#b)" d="M111.54 14.52c.25.97.92 1.55 2.08 1.55 1.28 0 1.79-.59 1.79-1.42 0-.84-.37-1.25-1.99-1.65-2.11-.53-2.59-1.19-2.59-2.27 0-1.12.81-2.2 2.68-2.2s2.71 1.15 2.82 2.29H115.3c-.13-.61-.58-1.39-1.85-1.39-1.24 0-1.6.62-1.6 1.22 0 .68.35 1.01 1.84 1.39 2.27.56 2.78 1.34 2.78 2.54 0 1.44-1.12 2.4-2.9 2.4-1.89 0-2.88-1.01-3.09-2.45Z"/><path clip-path="url(#b)" d="M119.39 5v5c.42-.78 1.16-1.47 2.51-1.47 1.17 0 2.63.64 2.63 3.12v5.13H123.5V11.84c0-1.49-.64-2.33-1.86-2.33-1.48 0-2.24.97-2.24 2.81v4.45h-1.04V5Z"/><path clip-path="url(#b)" d="M132.17 12.08c-.02-1.47-.77-2.64-2.21-2.64-1.5 0-2.17 1.08-2.33 2.64Zm-4.58.83c.01 1.88.93 3.11 2.35 3.11 1.36 0 1.81-.76 2.08-1.39h1.05c-.32 1.05-1.15 2.33-3.16 2.33-2.41 0-3.36-2.09-3.36-4.15 0-2.34 1.13-4.29 3.45-4.29 2.45 0 3.24 2.12 3.24 3.72 0 .23 0 .45-.02.66Z"/><path clip-path="url(#b)" d="M140.35 12.08c-.02-1.47-.77-2.64-2.21-2.64-1.5 0-2.17 1.08-2.33 2.64Zm-4.58.83c.01 1.88.93 3.11 2.34 3.11 1.36 0 1.81-.76 2.08-1.39h1.05c-.32 1.05-1.15 2.33-3.16 2.33-2.41 0-3.36-2.09-3.36-4.15 0-2.34 1.14-4.29 3.45-4.29 2.45 0 3.24 2.12 3.24 3.72 0 .23 0 .45-.02.66Z"/><path clip-path="url(#b)" d="M142.41 8.72h1.4V6.27h1.04V8.72h1.79v.93h-1.79v5c0 .85.18 1.31.91 1.31.21 0 .52-.01.75-.08v.86c-.3.12-.71.15-1.06.15-1.1 0-1.65-.58-1.65-1.89V9.65h-1.4Z"/><path clip-path="url(#b)" d="M147.78 18.61c.78-1.66 1.04-3.07 1.09-4.02h1.05c-.12 1.38-.62 2.99-1.26 4.02Z"/><path clip-path="url(#b)" d="M5.59 31.91c0-1.25-.01-1.86-.02-2.19H6.59c.02.24.04.81.04 1.73.43-1.15 1.4-1.87 2.67-1.92v1.11c-1.61.08-2.67 1.11-2.67 3.08v4.06H5.59Z"/><path clip-path="url(#b)" d="M15.88 33.08c-.02-1.47-.77-2.64-2.21-2.64-1.5 0-2.17 1.08-2.33 2.64Zm-4.58.83c.01 1.88.93 3.11 2.35 3.11 1.36 0 1.81-.76 2.08-1.39h1.05c-.32 1.05-1.15 2.33-3.16 2.33-2.41 0-3.36-2.09-3.36-4.15 0-2.34 1.13-4.29 3.45-4.29 2.45 0 3.24 2.12 3.24 3.72 0 .23 0 .45-.02.66Z"/><path clip-path="url(#b)" d="M20.01 26v5c.42-.78 1.16-1.47 2.51-1.47 1.17 0 2.63.64 2.63 3.12v5.13H24.12V32.84c0-1.49-.64-2.33-1.86-2.33-1.48 0-2.24.97-2.24 2.81v4.45H18.98V26Z"/><path clip-path="url(#b)" d="M32.79 33.08c-.02-1.47-.77-2.64-2.21-2.64-1.5 0-2.17 1.08-2.33 2.64Zm-4.58.83c.01 1.88.93 3.11 2.35 3.11 1.36 0 1.81-.76 2.08-1.39h1.05c-.32 1.05-1.15 2.33-3.17 2.33-2.41 0-3.36-2.09-3.36-4.15 0-2.34 1.14-4.29 3.45-4.29 2.45 0 3.24 2.12 3.24 3.72 0 .23 0 .45-.02.66Z"/><path clip-path="url(#b)" d="M40.37 33.75H38.97c-1.65 0-2.61.46-2.61 1.73 0 .93.64 1.59 1.67 1.59 2.07 0 2.35-1.43 2.35-3.04Zm1.02 2.39c0 .72.06 1.39.11 1.63H40.5c-.06-.19-.11-.55-.13-1.15-.27.57-.93 1.35-2.49 1.35-1.82 0-2.6-1.22-2.6-2.44 0-1.78 1.34-2.6 3.67-2.6h1.41v-.76c0-.76-.23-1.74-1.86-1.74-1.45 0-1.68.77-1.84 1.41H35.65c.1-.99.69-2.32 2.88-2.32 1.84 0 2.86.79 2.86 2.59Z"/><path clip-path="url(#b)" d="M44 31.91c0-1.25-.01-1.86-.02-2.19H45c.02.24.04.81.04 1.73.43-1.15 1.4-1.87 2.67-1.92v1.11c-1.61.08-2.67 1.11-2.67 3.08v4.06H44Z"/><path clip-path="url(#b)" d="M49.72 35.52c.25.97.92 1.55 2.08 1.55 1.28 0 1.79-.59 1.79-1.42 0-.84-.37-1.25-1.99-1.65-2.11-.53-2.59-1.19-2.59-2.27 0-1.12.81-2.2 2.68-2.2s2.71 1.15 2.82 2.29H53.48c-.13-.61-.58-1.39-1.85-1.39-1.23 0-1.6.62-1.6 1.22 0 .68.35 1.01 1.84 1.39 2.27.56 2.79 1.34 2.79 2.54 0 1.44-1.12 2.4-2.9 2.4-1.89 0-2.88-1.01-3.09-2.45Z"/><path clip-path="url(#b)" d="M61.26 33.75H59.85c-1.65 0-2.61.46-2.61 1.73 0 .93.63 1.59 1.67 1.59 2.07 0 2.35-1.43 2.35-3.04Zm1.02 2.39c0 .72.06 1.39.11 1.63h-.99c-.06-.19-.11-.55-.14-1.15-.27.57-.92 1.35-2.49 1.35-1.82 0-2.6-1.22-2.6-2.44 0-1.78 1.34-2.6 3.67-2.6h1.41v-.76c0-.76-.23-1.74-1.86-1.74-1.45 0-1.68.77-1.84 1.41H56.53c.1-.99.69-2.32 2.88-2.32 1.84 0 2.86.79 2.86 2.59Z"/><path clip-path="url(#b)" d="M64.88 37.78h1.04V26H64.88Z" fill-rule="evenodd"/><path clip-path="url(#b)" d="M68.75 35.52c.25.97.92 1.55 2.08 1.55 1.28 0 1.79-.59 1.79-1.42 0-.84-.37-1.25-1.99-1.65-2.11-.53-2.59-1.19-2.59-2.27 0-1.12.81-2.2 2.68-2.2s2.71 1.15 2.82 2.29H72.51c-.13-.61-.58-1.39-1.85-1.39-1.23 0-1.6.62-1.6 1.22 0 .68.35 1.01 1.84 1.39 2.27.56 2.79 1.34 2.79 2.54 0 1.44-1.12 2.4-2.9 2.4-1.89 0-2.88-1.01-3.09-2.45Z"/><path clip-path="url(#b)" d="M74.73 39.61c.78-1.66 1.04-3.07 1.09-4.02h1.05c-.12 1.38-.62 2.99-1.26 4.02Z"/><path clip-path="url(#b)" d="M83.6 33.75c0 1.85.93 3.28 2.47 3.28 1.57 0 2.45-1.34 2.45-3.27 0-1.86-.87-3.28-2.48-3.28-1.63 0-2.44 1.39-2.44 3.28m6-.02c0 2.28-1.24 4.24-3.59 4.24-2.16 0-3.49-1.79-3.49-4.21 0-2.34 1.27-4.22 3.57-4.22 2.11 0 3.51 1.68 3.51 4.2"/><path clip-path="url(#b)" d="M91.6 31.75c0-.7 0-1.4-.02-2.03H92.6c.03.25.05 1.21.04 1.44.33-.76.97-1.63 2.53-1.63 1.42 0 2.61.86 2.61 3.04v5.2H96.74V32.73c0-1.33-.52-2.22-1.8-2.22-1.68 0-2.3 1.39-2.3 3.09v4.18H91.6Z"/><path clip-path="url(#b)" d="M99.93 34.18h3.98V33.18H99.93Z" fill-rule="evenodd"/><path clip-path="url(#b)" d="M106.55 35.52c.25.97.92 1.55 2.07 1.55 1.28 0 1.79-.59 1.79-1.42 0-.84-.37-1.25-1.99-1.65-2.11-.53-2.59-1.19-2.59-2.27 0-1.12.81-2.2 2.68-2.2s2.71 1.15 2.82 2.29h-1.02c-.13-.61-.58-1.39-1.85-1.39-1.23 0-1.6.62-1.6 1.22 0 .68.35 1.01 1.84 1.39 2.27.56 2.79 1.34 2.79 2.54 0 1.44-1.12 2.4-2.9 2.4-1.89 0-2.88-1.01-3.09-2.45Z"/><path clip-path="url(#b)" d="M113.49 29.72h1.04v8.05h-1.04Zm0-3.72h1.04v1.64h-1.04Z"/><path clip-path="url(#b)" d="M116.13 29.72h1.4V27.27h1.04v2.45h1.79v.93h-1.79v5c0 .85.19 1.31.91 1.31.21 0 .52-.01.75-.08v.86c-.3.12-.71.15-1.06.15-1.1 0-1.65-.58-1.65-1.89V30.65h-1.4Z"/><path clip-path="url(#b)" d="M126.99 33.08c-.02-1.47-.77-2.64-2.21-2.64-1.5 0-2.17 1.08-2.33 2.64Zm-4.58.83c.01 1.88.93 3.11 2.35 3.11 1.36 0 1.81-.76 2.08-1.39h1.05c-.32 1.05-1.15 2.33-3.17 2.33-2.41 0-3.36-2.09-3.36-4.15 0-2.34 1.14-4.29 3.45-4.29 2.45 0 3.24 2.12 3.24 3.72 0 .23 0 .45-.02.66Z"/><path clip-path="url(#b)" d="M5.59 52.8c0-.69 0-1.44-.02-2.08H6.58c.02.26.05.91.04 1.35.34-.77 1.04-1.54 2.31-1.54 1.1 0 1.91.57 2.21 1.53.4-.8 1.16-1.53 2.51-1.53 1.23 0 2.45.74 2.45 2.95v5.3H15.08V53.61c0-1.01-.35-2.1-1.7-2.1-1.4 0-2.02 1.14-2.02 2.64v4.63H10.34V53.64c0-1.11-.32-2.13-1.65-2.13-1.39 0-2.07 1.23-2.07 2.82v4.44H5.59Z"/><path clip-path="url(#b)" d="M23.16 54.75H21.75c-1.65 0-2.61.46-2.61 1.73 0 .93.64 1.59 1.67 1.59 2.07 0 2.35-1.43 2.35-3.04Zm1.02 2.39c0 .72.06 1.39.11 1.63h-.99c-.06-.19-.11-.55-.14-1.15-.27.57-.92 1.35-2.49 1.35-1.82 0-2.6-1.22-2.6-2.44 0-1.78 1.34-2.6 3.67-2.6h1.41v-.76c0-.76-.23-1.74-1.86-1.74-1.45 0-1.68.77-1.84 1.41H18.43c.1-.99.69-2.32 2.88-2.32 1.84 0 2.86.79 2.86 2.59Z"/><path clip-path="url(#b)" d="M26.79 52.75c0-.7 0-1.4-.02-2.03h1.01c.03.25.05 1.21.04 1.44.33-.76.97-1.63 2.53-1.63 1.42 0 2.61.86 2.61 3.04v5.2H31.93V53.73c0-1.33-.52-2.22-1.8-2.22-1.68 0-2.3 1.39-2.3 3.09v4.18H26.79Z"/><path clip-path="url(#b)" d="M40 54.75H38.6c-1.65 0-2.62.46-2.62 1.73 0 .93.64 1.59 1.67 1.59 2.07 0 2.35-1.43 2.35-3.04Zm1.02 2.39c0 .72.06 1.39.11 1.63h-.99c-.06-.19-.11-.55-.14-1.15-.27.57-.92 1.35-2.49 1.35-1.82 0-2.6-1.22-2.6-2.44 0-1.78 1.34-2.6 3.67-2.6h1.41v-.76c0-.76-.23-1.74-1.86-1.74-1.45 0-1.68.77-1.84 1.41H35.28c.1-.99.69-2.32 2.88-2.32 1.84 0 2.86.79 2.86 2.59Z"/><path clip-path="url(#b)" d="M44.12 54.71c0 1.82.92 3.1 2.32 3.1 1.83 0 2.37-1.26 2.37-3.21 0-1.98-.55-3.11-2.33-3.11-1.63 0-2.36 1.44-2.36 3.23m5.67 3.44c0 2.58-1.07 3.99-3.46 3.99-2.18 0-2.97-1.26-3.14-2.43h1.06c.26 1.01 1.05 1.51 2.12 1.51 1.91 0 2.41-1.27 2.41-3.22v-.75c-.42.98-1.16 1.52-2.53 1.52-1.87 0-3.23-1.57-3.23-4 0-2.67 1.49-4.22 3.35-4.22 1.54 0 2.2.75 2.4 1.34.02-.42.04-.97.05-1.15h.98c0 .37-.03 1.56-.03 2.33Z"/><path clip-path="url(#b)" d="M57.44 54.08c-.02-1.47-.77-2.64-2.21-2.64-1.5 0-2.17 1.08-2.33 2.64Zm-4.58.83c.01 1.88.93 3.11 2.34 3.11 1.36 0 1.81-.76 2.08-1.39h1.05c-.32 1.05-1.15 2.33-3.17 2.33-2.41 0-3.36-2.09-3.36-4.15 0-2.34 1.14-4.29 3.45-4.29 2.45 0 3.24 2.12 3.24 3.72 0 .23 0 .45-.02.66Z"/><path clip-path="url(#b)" d="M60.48 52.8c0-.69 0-1.44-.02-2.08h1.01c.02.26.05.91.04 1.35.34-.77 1.04-1.54 2.31-1.54 1.1 0 1.91.57 2.21 1.53.4-.8 1.16-1.53 2.51-1.53 1.23 0 2.45.74 2.45 2.95v5.3H69.97V53.61c0-1.01-.35-2.1-1.7-2.1-1.4 0-2.02 1.14-2.02 2.64v4.63H65.24V53.64c0-1.11-.32-2.13-1.65-2.13-1.39 0-2.07 1.23-2.07 2.82v4.44H60.48Z"/><path clip-path="url(#b)" d="M78.65 54.08c-.02-1.47-.77-2.64-2.21-2.64-1.5 0-2.17 1.08-2.33 2.64Zm-4.58.83c.01 1.88.93 3.11 2.35 3.11 1.36 0 1.81-.76 2.08-1.39h1.05c-.32 1.05-1.15 2.33-3.17 2.33-2.41 0-3.36-2.09-3.36-4.15 0-2.34 1.14-4.29 3.45-4.29 2.45 0 3.24 2.12 3.24 3.72 0 .23 0 .45-.02.66Z"/><path clip-path="url(#b)" d="M81.7 52.75c0-.7 0-1.4-.02-2.03h1.01c.03.25.05 1.21.04 1.44.33-.76.97-1.63 2.53-1.63 1.42 0 2.61.86 2.61 3.04v5.2H86.84V53.73c0-1.33-.52-2.22-1.8-2.22-1.68 0-2.3 1.39-2.3 3.09v4.18H81.7Z"/><path clip-path="url(#b)" d="M89.31 50.72h1.4V48.27h1.04v2.45h1.79v.93H91.75v5c0 .85.19 1.31.92 1.31.21 0 .52-.01.75-.08v.86c-.3.12-.71.15-1.06.15-1.1 0-1.65-.58-1.65-1.89V51.65h-1.4Z"/><path clip-path="url(#b)" d="M94.68 60.61c.78-1.66 1.04-3.07 1.09-4.02h1.05c-.12 1.38-.62 2.99-1.26 4.02Z"/><path clip-path="url(#b)" d="M103.06 52.91c0-1.25-.01-1.86-.02-2.19h1.02c.02.24.04.81.04 1.73.43-1.15 1.4-1.87 2.67-1.92v1.11c-1.61.08-2.67 1.11-2.67 3.08v4.06h-1.04Z"/><path clip-path="url(#b)" d="M113.36 54.08c-.02-1.47-.77-2.64-2.21-2.64-1.5 0-2.17 1.08-2.33 2.64Zm-4.58.83c.01 1.88.93 3.11 2.35 3.11 1.36 0 1.81-.76 2.08-1.39h1.05c-.32 1.05-1.15 2.33-3.16 2.33-2.41 0-3.36-2.09-3.36-4.15 0-2.34 1.13-4.29 3.45-4.29 2.45 0 3.24 2.12 3.24 3.72 0 .23 0 .45-.02.66Z"/><path clip-path="url(#b)" d="M120.94 54.75h-1.41c-1.65 0-2.61.46-2.61 1.73 0 .93.64 1.59 1.67 1.59 2.07 0 2.35-1.43 2.35-3.04Zm1.02 2.39c0 .72.06 1.39.11 1.63h-.99c-.06-.19-.11-.55-.14-1.15-.27.57-.92 1.35-2.49 1.35-1.82 0-2.6-1.22-2.6-2.44 0-1.78 1.34-2.6 3.67-2.6h1.41v-.76c0-.76-.23-1.74-1.86-1.74-1.45 0-1.68.77-1.84 1.41h-1.02c.1-.99.69-2.32 2.88-2.32 1.84 0 2.86.79 2.86 2.59Z"/><path clip-path="url(#b)" d="M124.57 58.78h1.04V47h-1.04Z" fill-rule="evenodd"/><path clip-path="url(#b)" d="M127.81 55.18h3.98V54.18h-3.98Z" fill-rule="evenodd"/><path clip-path="url(#b)" d="M132.86 50.72h1.4V48.27h1.04v2.45h1.79v.93H135.3v5c0 .85.19 1.31.91 1.31.21 0 .52-.01.75-.08v.86c-.29.12-.71.15-1.06.15-1.1 0-1.65-.58-1.65-1.89V51.65h-1.4Z"/><path clip-path="url(#b)" d="M138.76 50.72h1.04v8.05h-1.04Zm0-3.72h1.04v1.64h-1.04Z"/><path clip-path="url(#b)" d="M142.4 52.8c0-.69 0-1.44-.02-2.08h1.01c.02.26.05.91.04 1.35.34-.77 1.04-1.54 2.31-1.54 1.1 0 1.91.57 2.21 1.53.4-.8 1.16-1.53 2.51-1.53 1.23 0 2.45.74 2.45 2.95v5.3h-1.03V53.61c0-1.01-.35-2.1-1.7-2.1-1.4 0-2.03 1.14-2.03 2.64v4.63h-1.02V53.64c0-1.11-.32-2.13-1.65-2.13-1.39 0-2.07 1.23-2.07 2.82v4.44H142.4Z"/><path clip-path="url(#b)" d="M160.57 54.08c-.02-1.47-.77-2.64-2.21-2.64-1.5 0-2.17 1.08-2.33 2.64Zm-4.58.83c.01 1.88.93 3.11 2.35 3.11 1.36 0 1.81-.76 2.08-1.39h1.05c-.32 1.05-1.15 2.33-3.16 2.33-2.41 0-3.36-2.09-3.36-4.15 0-2.34 1.13-4.29 3.45-4.29 2.45 0 3.24 2.12 3.24 3.72 0 .23 0 .45-.02.66Z"/><path clip-path="url(#b)" d="M11.51 77.36c-.35 1.4-1.26 2.61-3.11 2.61-2.04 0-3.4-1.54-3.4-4.18 0-2.24 1.19-4.26 3.49-4.26 2.1 0 2.9 1.54 3.02 2.63H10.47c-.21-.88-.76-1.69-2-1.69-1.53 0-2.39 1.35-2.39 3.28 0 1.88.82 3.28 2.33 3.28 1.06 0 1.7-.57 2.06-1.67Z"/><path clip-path="url(#b)" d="M13.96 75.75c0 1.85.93 3.28 2.47 3.28 1.57 0 2.45-1.34 2.45-3.27 0-1.86-.87-3.28-2.48-3.28-1.63 0-2.44 1.39-2.44 3.28m6-.02c0 2.28-1.24 4.24-3.59 4.24-2.16 0-3.49-1.79-3.49-4.21 0-2.34 1.27-4.22 3.57-4.22 2.12 0 3.51 1.68 3.51 4.2"/><path clip-path="url(#b)" d="M22.55 75.75c0 1.85.93 3.28 2.47 3.28 1.57 0 2.45-1.34 2.45-3.27 0-1.86-.87-3.28-2.48-3.28-1.63 0-2.44 1.39-2.44 3.28m6-.02c0 2.28-1.24 4.24-3.59 4.24-2.16 0-3.49-1.79-3.49-4.21 0-2.34 1.27-4.22 3.57-4.22 2.11 0 3.51 1.68 3.51 4.2"/><path clip-path="url(#b)" d="M30.55 73.91c0-1.25-.01-1.86-.02-2.19h1.02c.02.24.04.81.04 1.73.43-1.15 1.4-1.87 2.67-1.92v1.11c-1.61.08-2.67 1.11-2.67 3.08v4.06H30.55Z"/><path clip-path="url(#b)" d="M36.3 75.8c0 2.09 1.01 3.21 2.3 3.21 1.95 0 2.44-1.43 2.44-3.43 0-1.95-.43-3.11-2.31-3.11-1.47 0-2.42 1.21-2.42 3.32M42.03 68v9.48c0 .76 0 1.51.02 2.3h-1c-.03-.2-.05-.89-.06-1.26-.39.92-1.22 1.45-2.54 1.45-2.02 0-3.24-1.69-3.24-4.13 0-2.48 1.33-4.31 3.46-4.31 1.48 0 2.1.64 2.32 1.13V68Z"/><path clip-path="url(#b)" d="M44.62 71.72h1.04v8.05H44.62Zm0-3.72h1.04v1.64H44.62Z"/><path clip-path="url(#b)" d="M48.26 73.75c0-.7 0-1.4-.02-2.03h1.01c.03.25.05 1.21.04 1.44.33-.76.97-1.63 2.53-1.63 1.42 0 2.61.86 2.61 3.04v5.2H53.4V74.73c0-1.33-.52-2.22-1.8-2.22-1.68 0-2.3 1.39-2.3 3.09v4.18H48.26Z"/><path clip-path="url(#b)" d="M61.48 75.75H60.07c-1.65 0-2.61.46-2.61 1.73 0 .93.64 1.59 1.67 1.59 2.07 0 2.35-1.43 2.35-3.04Zm1.02 2.39c0 .72.06 1.39.11 1.63h-.99c-.06-.19-.11-.55-.13-1.15-.27.57-.93 1.35-2.49 1.35-1.82 0-2.6-1.22-2.6-2.44 0-1.78 1.34-2.6 3.67-2.6h1.41v-.76c0-.76-.23-1.74-1.86-1.74-1.45 0-1.68.77-1.84 1.41H56.75c.1-.99.69-2.32 2.88-2.32 1.84 0 2.86.79 2.86 2.59Z"/><path clip-path="url(#b)" d="M63.92 71.72h1.4V69.27h1.04v2.45h1.79v.93H66.36v5c0 .85.19 1.31.92 1.31.21 0 .52-.01.75-.08v.86c-.3.12-.71.15-1.06.15-1.1 0-1.65-.58-1.65-1.89V72.65h-1.4Z"/><path clip-path="url(#b)" d="M69.81 71.72h1.04v8.05H69.81Zm0-3.72h1.04v1.64H69.81Z"/><path clip-path="url(#b)" d="M73.94 75.75c0 1.85.93 3.28 2.47 3.28 1.57 0 2.45-1.34 2.45-3.27 0-1.86-.87-3.28-2.48-3.28-1.63 0-2.44 1.39-2.44 3.28m6-.02c0 2.28-1.24 4.24-3.59 4.24-2.16 0-3.49-1.79-3.49-4.21 0-2.34 1.27-4.22 3.57-4.22 2.11 0 3.51 1.68 3.51 4.2"/><path clip-path="url(#b)" d="M81.94 73.75c0-.7 0-1.4-.02-2.03h1.01c.03.25.05 1.21.04 1.44.33-.76.97-1.63 2.53-1.63 1.42 0 2.61.86 2.61 3.04v5.2H87.08V74.73c0-1.33-.52-2.22-1.8-2.22-1.68 0-2.3 1.39-2.3 3.09v4.18H81.94Z"/><path clip-path="url(#b)" d="M90.2 79.78h1.07v-2.2H90.2Z" fill-rule="evenodd"/></g></g></svg>