<?xml version="1.0" encoding="UTF-8"?><!DOCTYPE svg PUBLIC "-//W3C//DTD SVG 1.0//EN" "http://www.w3.org/TR/2001/REC-SVG-20010904/DTD/svg10.dtd" []><svg xmlns="http://www.w3.org/2000/svg" xmlns:xlink="http://www.w3.org/1999/xlink" height="26" stroke="#000" stroke-linecap="square" stroke-miterlimit="10" viewBox="0 0 88.34 26.39" width="88"><g><g fill="#fff" stroke="none"><path d="M8.41 18.16V14.58h4.65c.52 0 .98.2 1.32.51s.55.76.55 1.27-.21.95-.55 1.28-.8.52-1.32.52Zm0-6.45V8.28h3.88c.5 0 .93.18 1.24.48s.51.73.51 1.23-.2.93-.51 1.23c-.31.31-.76.5-1.24.5Zm37.07 1.5c0-.23-.01-.47-.03-.69s-.05-.46-.08-.68H39.03l-.97 1.52-.97 1.51h4.9c-.29.99-.85 1.84-1.61 2.44s-1.71.97-2.82.97c-1.38 0-2.61-.57-3.51-1.5s-1.45-2.19-1.45-3.59c0-1.37.55-2.62 1.46-3.54.9-.91 2.15-1.49 3.54-1.49.6 0 1.16.09 1.68.27.52.17.99.43 1.41.74l.85-1.36.85-1.36c-.65-.46-1.38-.82-2.19-1.06-.8-.25-1.67-.37-2.58-.37-1.23 0-2.34.22-3.32.63s-1.85.99-2.58 1.72c-1.74 1.74-2.23 3.5-2.57 5.11-.35 1.62-.55 3.1-1.74 4.27-.5.5-1.03.88-1.63 1.12s-1.24.38-1.93.38c-1.42 0-2.7-.59-3.64-1.51-.93-.93-1.5-2.19-1.5-3.57 0-1.35.57-2.6 1.5-3.52s2.21-1.52 3.64-1.53c.6.01 1.15.1 1.66.26s.98.4 1.4.72L28.62 6.4c-.65-.46-1.38-.81-2.18-1.04S24.77 5 23.86 5c-1.41 0-2.73.34-3.88.94S17.85 7.39 17.1 8.41c-.29-.9-.89-1.67-1.71-2.21-.82-.55-1.87-.86-3.04-.86H5V21.06h8.1c1.02 0 1.93-.25 2.69-.67s1.36-1.02 1.77-1.72c.76.84 1.67 1.51 2.72 1.98s2.21.73 3.46.73c1.46 0 2.81-.34 3.97-.95s2.14-1.49 2.9-2.57c.72 1.07 1.7 1.95 2.87 2.56 1.16.61 2.53.97 4 .97 2.26 0 4.26-.91 5.69-2.4 1.44-1.46 2.31-3.51 2.31-5.77"/><path d="M51.29 6.84c.14 0 .27-.05.37-.14s.14-.21.14-.35-.05-.26-.14-.35-.22-.14-.37-.14h-.81v.98Zm.09 1.5c.16 0 .29-.05.39-.16.09-.09.16-.22.16-.37s-.05-.27-.16-.36-.23-.14-.39-.14h-.9V8.33Zm3.59.05c-.35 0-.67-.14-.89-.38s-.36-.56-.36-.91.14-.69.36-.91c.22-.24.55-.38.89-.38.35 0 .67.14.9.38.22.23.37.56.37.91 0 .37-.14.69-.37.91-.23.25-.55.38-.9.38m10.33 0c-.35 0-.67-.14-.89-.38s-.37-.56-.37-.91.14-.69.37-.91c.22-.24.55-.38.89-.38.35 0 .67.14.9.38.22.23.37.56.37.91 0 .37-.14.69-.37.91-.23.25-.55.38-.9.38M51.29 5.37c.31 0 .57.1.77.26.2.17.31.4.31.67 0 .16-.04.29-.11.4-.08.12-.17.22-.3.29.17.08.31.2.4.34s.14.31.14.5c0 .29-.12.54-.31.72s-.47.29-.8.29H49.92V5.34Zm11.83 0v.52h-1.1V8.85h-.57V5.89H60.36V5.37Zm5.51 0l.81 1.32L70.25 8V5.37h.54V8.85h-.65L68.46 6.16v2.7h-.52V5.38ZM54.97 8.92c.51 0 .97-.21 1.31-.54.33-.33.54-.78.54-1.28s-.21-.95-.54-1.29c-.33-.33-.78-.54-1.31-.54-.51 0-.97.21-1.29.54s-.54.78-.54 1.29c0 .5.21.95.54 1.28.33.34.78.54 1.29.54m3.62 0c.39 0 .69-.1.9-.3s.33-.46.33-.76c0-.33-.13-.55-.33-.69s-.46-.24-.73-.33c-.22-.07-.42-.12-.55-.21-.13-.08-.21-.18-.21-.35 0-.14.05-.26.14-.35.11-.09.25-.14.46-.14.13 0 .26.03.39.07s.26.1.39.2l.29-.44c-.14-.11-.3-.18-.47-.24-.18-.05-.37-.09-.58-.09-.36 0-.67.1-.86.29s-.31.44-.31.74c0 .34.13.55.33.69s.46.23.73.31c.22.07.42.13.55.21s.21.18.21.35c0 .14-.05.27-.17.37-.1.09-.27.14-.5.14-.18 0-.34-.04-.5-.09-.16-.07-.31-.14-.46-.23l-.14.22-.14.22c.14.1.31.21.52.29.2.09.43.13.7.13m6.71 0c.51 0 .97-.21 1.3-.54.33-.33.54-.78.54-1.28s-.21-.95-.54-1.29c-.33-.33-.78-.54-1.3-.54-.51 0-.97.21-1.29.54s-.54.78-.54 1.29c0 .5.21.95.54 1.28.33.34.78.54 1.29.54m-10.22 5.6c-.35 0-.67-.14-.89-.38s-.37-.56-.37-.91c0-.37.14-.69.37-.91.22-.23.55-.38.89-.38.35 0 .67.14.9.38.22.24.36.56.36.91 0 .37-.14.69-.36.91-.24.23-.55.38-.9.38m3.17.44h-.54V11.48h.69l.81 1.32.81 1.32V11.48h.54v3.49h-.65l-.84-1.35-.83-1.35v2.69Zm10.92-.52h1.72v.52H68.6V11.48h.56ZM73.54 12h-1.1v2.96h-.58V12H70.78v-.52h2.76Zm3.19 2.96h-.54V11.48h.69l.81 1.32.81 1.32V11.48h.53v3.49h-.65l-.84-1.35-.83-1.35v2.69Zm-1.78 0h-.56V11.48h.56ZM49.73 13.23c0 .51.21.97.54 1.29.34.33.8.54 1.32.54.25 0 .46-.04.65-.1s.35-.16.52-.29l-.14-.22-.14-.22c-.13.1-.27.18-.42.23s-.31.08-.48.08c-.34 0-.65-.14-.88-.38s-.36-.56-.36-.93.13-.69.36-.93c.22-.23.54-.38.88-.38.18 0 .34.03.48.08s.29.13.42.23l.14-.22.14-.22c-.16-.12-.33-.22-.52-.29s-.4-.11-.65-.11c-.52 0-.98.2-1.32.54-.33.33-.54.78-.54 1.29m5.34 1.82c.51 0 .97-.21 1.3-.54.33-.33.54-.78.54-1.28s-.21-.95-.54-1.29c-.34-.33-.8-.54-1.3-.54s-.97.21-1.29.54-.54.78-.54 1.29c0 .5.21.95.54 1.28s.78.54 1.29.54m7.61 0c.39 0 .69-.12.9-.3.21-.2.33-.46.33-.76 0-.33-.13-.55-.33-.69-.2-.16-.46-.24-.73-.33-.22-.07-.42-.12-.55-.21-.13-.08-.21-.18-.21-.35 0-.14.05-.26.14-.35.11-.09.25-.14.46-.14.13 0 .26.03.39.07s.26.1.39.2l.14-.22.14-.22c-.14-.1-.3-.18-.47-.24-.18-.05-.37-.09-.57-.09-.36 0-.67.11-.86.29s-.31.44-.31.75c0 .34.13.55.33.69s.46.24.73.31c.22.07.42.13.55.21s.21.18.21.35c0 .14-.05.28-.17.37-.1.09-.27.14-.5.14-.18 0-.34-.04-.5-.09-.16-.07-.31-.14-.46-.23l-.14.22-.14.22c.14.11.31.21.52.29.2.08.43.13.71.13m2.6-3.57v2.14c0 .25.09.48.25.64s.38.26.64.26.48-.11.64-.26.25-.39.25-.64V11.48h.55v2.14c0 .4-.16.76-.41 1.02-.26.25-.61.4-1.03.4s-.77-.16-1.03-.4-.42-.6-.42-1.02V11.48Zm18.03 1.57c.01.03.01.07.01.11s.01.09.01.13c0 .5-.17.93-.47 1.24s-.73.51-1.23.51c-.51 0-.95-.2-1.28-.54-.33-.33-.52-.78-.52-1.29s.2-.97.54-1.29c.33-.33.78-.54 1.29-.54.21 0 .4.03.59.08s.35.13.51.25l-.29.44c-.12-.09-.25-.16-.38-.2s-.28-.07-.43-.07c-.35 0-.67.14-.89.37-.22.24-.37.56-.37.93s.13.69.35.93.52.38.88.38c.33 0 .59-.11.78-.27s.31-.42.37-.69H81.61l.31-.5ZM55.44 19.31c.18 0 .33-.05.44-.16.11-.1.17-.25.17-.44 0-.18-.07-.34-.17-.44s-.26-.17-.44-.17h-.85v1.21Zm11.54.05c.18 0 .34-.07.46-.17s.18-.26.18-.46-.07-.34-.18-.46c-.12-.1-.27-.17-.46-.17h-.8v1.25Zm-7.86 1.27c-.35 0-.67-.14-.89-.38s-.37-.56-.37-.91.14-.68.37-.91.55-.38.89-.38c.35 0 .67.14.9.38.22.24.37.56.37.91 0 .37-.14.69-.37.91-.22.24-.54.38-.9.38m7.86-3.04c.37 0 .67.13.89.33.21.21.33.48.33.81 0 .31-.12.6-.33.81s-.52.33-.89.33h-.8v1.21h-.56V17.59Zm-11.54 0c.37 0 .67.12.88.33.21.2.33.48.33.8 0 .26-.08.48-.21.67s-.33.31-.58.37l.84 1.33h-.65l-.78-1.25h-.67v1.25h-.56V17.59Zm6.84 0v2.14c0 .25.09.48.25.64s.38.26.64.26.48-.1.64-.26.25-.39.25-.64V17.59h.55v2.14c0 .4-.16.76-.4 1.02-.26.25-.61.4-1.03.4s-.77-.16-1.03-.4-.42-.6-.42-1.02V17.59Zm-3.16 3.57c.51 0 .97-.21 1.31-.54.33-.33.54-.78.54-1.28s-.21-.95-.54-1.28-.8-.54-1.31-.54-.97.21-1.29.54-.54.78-.54 1.28.21.95.54 1.28.78.54 1.29.54m-5.9-2c.01.03.01.07.01.1s.01.09.01.13c0 .5-.17.93-.47 1.24s-.73.5-1.23.5-.95-.2-1.28-.54c-.33-.33-.52-.78-.52-1.29s.21-.97.54-1.29.78-.54 1.29-.54c.21 0 .4.03.59.08s.35.13.51.25l-.14.22-.14.22c-.12-.09-.25-.16-.38-.2s-.27-.07-.43-.07c-.35 0-.67.14-.89.37s-.36.55-.36.93c0 .37.13.69.35.93s.52.38.88.38c.33 0 .59-.1.78-.27s.31-.42.36-.69H51.51l.16-.25.16-.25Z"/></g></g></svg>