<?xml version="1.0" encoding="UTF-8"?><!DOCTYPE svg PUBLIC "-//W3C//DTD SVG 1.0//EN" "http://www.w3.org/TR/2001/REC-SVG-20010904/DTD/svg10.dtd" []><svg xmlns="http://www.w3.org/2000/svg" xmlns:xlink="http://www.w3.org/1999/xlink" height="23" stroke="#000" stroke-linecap="square" stroke-miterlimit="10" viewBox="0 0 276.92 23" width="277"><defs><clipPath id="a"><path d="M0 0V23H276.92V0Z"/></clipPath><clipPath clip-path="url(#a)" id="b"><path d="M-393.37 400.59H566.75v-540H-393.37Z"/></clipPath></defs><g><g fill="#FF00A4" stroke="none"><path clip-path="url(#b)" d="M8.41 15.23V11.81c0-.11-.02-.21-.08-.31L5 5.57H7.36c.75 1.46 1.72 3.39 2.2 4.44.42-1.01 1.48-3.05 2.21-4.44h2.18l-3.37 5.9c-.04.07-.08.11-.08.31v3.44Z"/><path clip-path="url(#b)" d="M15.13 11.6c0 1.39.6 2.22 1.57 2.22.98 0 1.53-.83 1.53-2.21 0-1.52-.56-2.23-1.56-2.23-.93 0-1.54.69-1.54 2.22m5.13-.02c0 2.2-1.31 3.81-3.61 3.81-2.25 0-3.56-1.61-3.56-3.77 0-2.24 1.35-3.82 3.65-3.82 2.14 0 3.52 1.51 3.52 3.78"/><path clip-path="url(#b)" d="M28.16 13.12c0 .7 0 1.46.01 2.11H26.21c-.03-.2-.04-.58-.05-.84-.43.73-1.07 1-2 1-1.48 0-2.42-.9-2.42-2.7V7.98h2.01V12.3c0 .8.25 1.46 1.12 1.46.92 0 1.29-.49 1.29-1.92V7.98h2.01Z"/><path clip-path="url(#b)" d="M30.11 9.94c0-.72 0-1.36-.01-1.97h1.97c.03.16.05.88.05 1.27.32-.83 1.09-1.43 2.33-1.44V9.72c-1.46-.04-2.33.35-2.33 2.34v3.16H30.11Z"/><path clip-path="url(#b)" d="M43.68 10.8c-.01-.85-.35-1.56-1.33-1.56-.96 0-1.35.66-1.43 1.56Zm-2.8 1.23c0 .91.46 1.79 1.46 1.79.84 0 1.07-.34 1.26-.77h2.01c-.26.89-1.05 2.35-3.33 2.35-2.39 0-3.42-1.79-3.42-3.69 0-2.27 1.17-3.9 3.5-3.9 2.49 0 3.34 1.8 3.34 3.61 0 .25 0 .4-.03.61Z"/><path clip-path="url(#b)" d="M48.62 7.98c.69 2.45 1.27 4.6 1.41 5.48h.01c.2-1.2.91-3.38 1.55-5.48h2l-2.56 7.25H48.91L46.46 7.98Z"/><path clip-path="url(#b)" d="M58.99 10.8c-.01-.85-.35-1.56-1.33-1.56-.96 0-1.35.66-1.43 1.56Zm-2.8 1.23c0 .91.46 1.79 1.45 1.79.84 0 1.07-.34 1.27-.77h2.01c-.26.89-1.05 2.35-3.33 2.35-2.39 0-3.42-1.79-3.42-3.69 0-2.27 1.17-3.9 3.5-3.9 2.49 0 3.34 1.8 3.34 3.61 0 .25 0 .4-.03.61Z"/><path clip-path="url(#b)" d="M62.55 9.8c0-.62 0-1.29-.01-1.83h1.95c.04.19.07.69.08.92.25-.46.83-1.09 2.1-1.09 1.46 0 2.4.98 2.4 2.81v4.61H67.06V10.83c0-.81-.27-1.4-1.16-1.4-.85 0-1.34.47-1.34 1.76v4.04H62.55Z"/><path clip-path="url(#b)" d="M70.14 7.98h1.12V6.01h2.01V7.98h1.42V9.48H73.26v3.58c0 .55.17.76.77.76.11 0 .31 0 .46-.02v1.38c-.4.14-.95.14-1.35.14-1.41 0-1.88-.76-1.88-2.02V9.48H70.14Z"/><path clip-path="url(#b)" d="M77.49 13.05c.15.58.62.9 1.37.9s1.01-.27 1.01-.71c0-.46-.31-.65-1.35-.9-2.36-.58-2.75-1.31-2.75-2.34 0-1.07.75-2.2 2.94-2.2 2.2 0 2.94 1.2 3.01 2.18H79.81c-.06-.27-.24-.77-1.19-.77-.66 0-.88.29-.88.62 0 .36.23.54 1.4.81 2.42.56 2.76 1.39 2.76 2.45 0 1.2-.91 2.29-3.12 2.29-2.2 0-3.11-1.06-3.27-2.35Z"/><path clip-path="url(#b)" d="M88.55 11.61c0 1.41.55 2.18 1.53 2.18 1.38 0 1.54-1.15 1.54-2.19 0-1.24-.17-2.18-1.49-2.18-1.05 0-1.58.82-1.58 2.19m5-6.61v8.23c0 .66 0 1.33.01 1.99H91.64c-.04-.22-.08-.59-.09-.76-.35.57-.97.93-2.06.93-1.83 0-3-1.47-3-3.73 0-2.23 1.24-3.85 3.29-3.85 1.04 0 1.6.37 1.77.69V5Z"/><path clip-path="url(#b)" d="M99.87 10.8c-.01-.85-.35-1.56-1.33-1.56-.96 0-1.35.66-1.43 1.56Zm-2.8 1.23c0 .91.46 1.79 1.46 1.79.84 0 1.07-.34 1.26-.77h2.01c-.26.89-1.05 2.35-3.33 2.35-2.39 0-3.42-1.79-3.42-3.69 0-2.27 1.17-3.9 3.5-3.9 2.49 0 3.34 1.8 3.34 3.61 0 .25 0 .4-.03.61Z"/><path clip-path="url(#b)" d="M104.87 13.05c.15.58.62.9 1.37.9s1.01-.27 1.01-.71c0-.46-.31-.65-1.35-.9-2.36-.58-2.75-1.31-2.75-2.34 0-1.07.75-2.2 2.94-2.2 2.2 0 2.94 1.2 3.01 2.18h-1.91c-.06-.27-.24-.77-1.19-.77-.66 0-.88.29-.88.62 0 .36.23.54 1.4.81 2.42.56 2.76 1.39 2.76 2.45 0 1.2-.91 2.29-3.12 2.29-2.2 0-3.11-1.06-3.27-2.35Z"/><path clip-path="url(#b)" d="M115.21 10.8c-.01-.85-.35-1.56-1.33-1.56-.96 0-1.35.66-1.43 1.56Zm-2.8 1.23c0 .91.46 1.79 1.45 1.79.84 0 1.07-.34 1.27-.77h2.01c-.26.89-1.05 2.35-3.33 2.35-2.39 0-3.42-1.79-3.42-3.69 0-2.27 1.17-3.9 3.5-3.9 2.49 0 3.34 1.8 3.34 3.61 0 .25 0 .4-.03.61Z"/><path clip-path="url(#b)" d="M118.76 9.94c0-.72 0-1.36-.02-1.97h1.97c.03.16.05.88.05 1.27.32-.83 1.09-1.43 2.33-1.44V9.72c-1.46-.04-2.33.35-2.33 2.34v3.16h-2.01Z"/><path clip-path="url(#b)" d="M126.12 7.98c.69 2.45 1.27 4.6 1.41 5.48h.01c.2-1.2.91-3.38 1.55-5.48h2l-2.56 7.25h-2.11l-2.46-7.25Z"/><path clip-path="url(#b)" d="M136.49 10.8c-.01-.85-.35-1.56-1.33-1.56-.96 0-1.35.66-1.43 1.56Zm-2.8 1.23c0 .91.46 1.79 1.46 1.79.84 0 1.07-.34 1.27-.77h2.01c-.26.89-1.05 2.35-3.33 2.35-2.39 0-3.42-1.79-3.42-3.69 0-2.27 1.17-3.9 3.5-3.9 2.49 0 3.34 1.8 3.34 3.61 0 .25 0 .4-.03.61Z"/><path clip-path="url(#b)" d="M142.7 7.98h1.12V6.01h2.01V7.98h1.42V9.48h-1.42v3.58c0 .55.17.76.77.76.11 0 .31 0 .46-.02v1.38c-.4.14-.95.14-1.35.14-1.42 0-1.88-.76-1.88-2.02V9.48H142.7Z"/><path clip-path="url(#b)" d="M150.53 5V8.83c.32-.47.91-1.02 2.08-1.02 1.35 0 2.43.8 2.43 2.77v4.65h-1.99V10.87c0-.94-.33-1.44-1.18-1.44-1.12 0-1.34.83-1.34 1.95v3.85h-2.01V5Z"/><path clip-path="url(#b)" d="M161.38 10.8c-.01-.85-.35-1.56-1.33-1.56-.96 0-1.35.66-1.43 1.56Zm-2.8 1.23c0 .91.46 1.79 1.45 1.79.84 0 1.07-.34 1.27-.77h2.01c-.26.89-1.05 2.35-3.33 2.35-2.39 0-3.42-1.79-3.42-3.69 0-2.27 1.17-3.9 3.5-3.9 2.49 0 3.34 1.8 3.34 3.61 0 .25 0 .4-.03.61Z"/><path clip-path="url(#b)" d="M169.77 13.05c.15.58.62.9 1.37.9s1.01-.27 1.01-.71c0-.46-.31-.65-1.35-.9-2.36-.58-2.75-1.31-2.75-2.34 0-1.07.75-2.2 2.94-2.2 2.2 0 2.94 1.2 3.01 2.18h-1.91c-.06-.27-.24-.77-1.19-.77-.66 0-.88.29-.88.62 0 .36.22.54 1.4.81 2.42.56 2.76 1.39 2.76 2.45 0 1.2-.91 2.29-3.12 2.29-2.2 0-3.11-1.06-3.27-2.35Z"/><path clip-path="url(#b)" d="M179.77 11.92h-.82c-1.21 0-1.66.37-1.66 1.07 0 .53.32.97 1.04.97 1.28 0 1.43-.89 1.43-1.85Zm1.96 1.43c0 .69.06 1.7.1 1.87h-1.92c-.06-.14-.1-.53-.1-.71-.26.41-.76.88-2.04.88-1.75 0-2.49-1.15-2.49-2.27 0-1.65 1.33-2.41 3.45-2.41h1.03v-.44c0-.52-.18-1.02-1.12-1.02-.85 0-1.03.36-1.13.89h-1.91c.11-1.29.9-2.33 3.11-2.32 1.94.01 3 .77 3 2.5Z"/><path clip-path="url(#b)" d="M183.68 9.84c0-.63 0-1.25-.01-1.87h1.92c.03.18.07.58.08.86.37-.54.95-1.03 2.01-1.03 1.04 0 1.61.54 1.87 1.1.42-.59 1.05-1.1 2.23-1.1 1.26 0 2.3.78 2.3 2.66v4.76h-1.96V10.71c0-.65-.24-1.3-1.06-1.3-.85 0-1.19.55-1.19 1.66v4.15h-1.97V10.79c0-.75-.18-1.36-1.04-1.36-.82 0-1.2.5-1.2 1.75v4.05h-1.98Z"/><path clip-path="url(#b)" d="M200.41 10.8c-.01-.85-.35-1.56-1.33-1.56-.96 0-1.35.66-1.43 1.56Zm-2.8 1.23c0 .91.46 1.79 1.45 1.79.84 0 1.07-.34 1.27-.77h2.01c-.26.89-1.05 2.35-3.33 2.35-2.39 0-3.42-1.79-3.42-3.69 0-2.27 1.17-3.9 3.5-3.9 2.49 0 3.34 1.8 3.34 3.61 0 .25 0 .4-.03.61Z"/><path clip-path="url(#b)" d="M211.38 11.92h-.82c-1.21 0-1.66.37-1.66 1.07 0 .53.32.97 1.04.97 1.28 0 1.43-.89 1.43-1.85Zm1.96 1.43c0 .69.06 1.7.1 1.87h-1.92c-.06-.14-.1-.53-.1-.71-.26.41-.76.88-2.04.88-1.75 0-2.49-1.15-2.49-2.27 0-1.65 1.33-2.41 3.45-2.41h1.04v-.44c0-.52-.18-1.02-1.12-1.02-.85 0-1.03.36-1.13.89h-1.91c.11-1.29.91-2.33 3.11-2.32 1.94.01 3 .77 3 2.5Z"/><path clip-path="url(#b)" d="M220.24 11.5c0-1.33-.54-2.08-1.49-2.08-1.14 0-1.54.73-1.54 2.19 0 1.38.37 2.19 1.46 2.19 1.06 0 1.58-.83 1.58-2.3m-2.96 3.09V18h-1.99V9.72c0-.59 0-1.17-.02-1.75h1.95c.03.19.07.64.07.9.31-.53.96-1.07 2.11-1.07 1.63 0 2.89 1.36 2.89 3.61 0 2.56-1.41 3.98-3.16 3.98-1.02 0-1.56-.39-1.83-.81"/><path clip-path="url(#b)" d="M228.76 11.5c0-1.33-.54-2.08-1.49-2.08-1.14 0-1.54.73-1.54 2.19 0 1.38.37 2.19 1.46 2.19 1.06 0 1.58-.83 1.58-2.3m-2.96 3.09V18H223.8V9.72c0-.59 0-1.17-.02-1.75h1.95c.03.19.07.64.07.9.31-.53.96-1.07 2.11-1.07 1.63 0 2.89 1.36 2.89 3.61 0 2.56-1.41 3.98-3.16 3.98-1.02 0-1.56-.39-1.83-.81"/><path clip-path="url(#b)" d="M232.31 9.94c0-.72 0-1.36-.01-1.97h1.97c.03.16.05.88.05 1.27.32-.83 1.09-1.43 2.33-1.44V9.72c-1.46-.04-2.33.35-2.33 2.34v3.16h-2.01Z"/><path clip-path="url(#b)" d="M239.46 11.6c0 1.39.6 2.22 1.57 2.22.98 0 1.53-.83 1.53-2.21 0-1.52-.56-2.23-1.56-2.23-.93 0-1.54.69-1.54 2.22m5.13-.02c0 2.2-1.31 3.81-3.61 3.81-2.25 0-3.56-1.61-3.56-3.77 0-2.24 1.35-3.82 3.65-3.82 2.14 0 3.52 1.51 3.52 3.78"/><path clip-path="url(#b)" d="M250.12 11.92h-.82c-1.21 0-1.66.37-1.66 1.07 0 .53.32.97 1.04.97 1.28 0 1.43-.89 1.43-1.85Zm1.96 1.43c0 .69.06 1.7.1 1.87h-1.92c-.06-.14-.1-.53-.1-.71-.26.41-.76.88-2.04.88-1.75 0-2.49-1.15-2.49-2.27 0-1.65 1.33-2.41 3.45-2.41h1.03v-.44c0-.52-.18-1.02-1.12-1.02-.85 0-1.03.36-1.13.89h-1.91c.11-1.29.9-2.33 3.11-2.32 1.94.01 3 .77 3 2.5Z"/><path clip-path="url(#b)" d="M260.26 12.88c-.25 1.21-1.1 2.51-3.26 2.51-2.26 0-3.42-1.56-3.42-3.74 0-2.14 1.31-3.85 3.51-3.85 2.44 0 3.12 1.75 3.16 2.57H258.3c-.12-.59-.46-1-1.24-1-.92 0-1.44.8-1.44 2.21 0 1.54.55 2.25 1.43 2.25.69 0 1.06-.41 1.24-.95Z"/><path clip-path="url(#b)" d="M263.64 5V8.83c.32-.47.91-1.02 2.08-1.02 1.35 0 2.43.8 2.43 2.77v4.65h-1.99V10.87c0-.94-.33-1.44-1.18-1.44-1.12 0-1.34.83-1.34 1.95v3.85h-2.01V5Z"/><path clip-path="url(#b)" d="M269.76 15.23h2.16V12.76h-2.16Z" fill-rule="evenodd"/></g></g></svg>