<?xml version="1.0" encoding="UTF-8"?><!DOCTYPE svg PUBLIC "-//W3C//DTD SVG 1.0//EN" "http://www.w3.org/TR/2001/REC-SVG-20010904/DTD/svg10.dtd" []><svg xmlns="http://www.w3.org/2000/svg" xmlns:xlink="http://www.w3.org/1999/xlink" height="41" stroke="#000" stroke-linecap="square" stroke-miterlimit="10" viewBox="0 0 526.52 41.17" width="527"><g><g fill="#FB03A0" stroke="none"><path d="M14.02 15.39h-1.3c-.07-.26-.12-.63-.14-1.08-.48.71-1.36 1.23-2.8 1.23-2.72 0-4.21-2.12-4.21-4.88 0-2.91 1.61-5.1 4.52-5.1 2.33 0 3.74 1.34 3.98 3.02H12.3C12.07 7.78 11.48 7 10.05 7 8.04 7 7.39 8.71 7.39 10.57c0 1.78.71 3.5 2.66 3.5 1.86 0 2.25-1.31 2.25-2.44v-.09H10.04V10.03h3.98Z"/><path d="M17.34 11.79c0 1.45.64 2.38 1.68 2.38 1.06 0 1.65-.91 1.65-2.37 0-1.54-.6-2.39-1.67-2.39-1.03 0-1.65.82-1.65 2.38m5.04-.01c0 2.14-1.23 3.78-3.41 3.78-2.11 0-3.35-1.59-3.35-3.75 0-2.19 1.26-3.79 3.44-3.79 2.01 0 3.32 1.5 3.32 3.75"/><path d="M27.83 12.03h-.9c-1.24 0-1.78.38-1.78 1.18 0 .6.37 1.07 1.12 1.07 1.38 0 1.56-.98 1.56-2.05Zm1.64 1.59c0 .67.05 1.58.1 1.76H27.96c-.05-.15-.1-.52-.1-.78-.25.43-.75.95-2.03.95-1.67 0-2.38-1.13-2.38-2.24 0-1.63 1.26-2.38 3.31-2.38h1.06v-.5c0-.55-.18-1.15-1.22-1.15-.93 0-1.12.44-1.22.97H23.79c.1-1.18.81-2.26 2.89-2.24 1.81.01 2.8.75 2.8 2.44Z"/><path d="M31.47 15.39h1.69V5.14H31.47Z" fill-rule="evenodd"/><path d="M35.51 13.15h1.75v2.23H35.51Zm0-4.92h1.75v2.23H35.51Z"/><path d="M47 6.28H43.82v-.7h7.14v.7h-3.2v9.11H47Z" fill="#fff"/><path d="M50.99 11.88c0 1.67.87 3.01 2.31 3.01 1.46 0 2.29-1.25 2.29-3.01 0-1.65-.81-3.01-2.32-3.01-1.55 0-2.28 1.33-2.28 3.01m5.32-.01c0 1.95-1.04 3.68-3.06 3.68-1.83 0-2.97-1.56-2.97-3.67 0-2 1.07-3.67 3.04-3.67 1.8 0 3 1.46 3 3.66" fill="#fff"/><path d="M68.5 11.73c0-1.62-.76-2.84-2.1-2.84-1.64 0-2.32 1.06-2.32 2.97 0 1.88.53 3.04 2.23 3.04 1.41 0 2.2-1.23 2.2-3.16m-4.38 2.62v3.84h-.68V10.1c0-.57 0-1.19-.01-1.72h.67c.03.27.03.69.03 1.26.42-.84 1.17-1.43 2.39-1.43 1.6 0 2.71 1.39 2.71 3.49 0 2.52-1.3 3.85-2.94 3.85-1.19 0-1.82-.55-2.16-1.21" fill="#fff"/><path d="M71.05 10.29c0-1.18-.01-1.68-.01-1.9h.66c.01.22.03.67.03 1.57.39-1.05 1.26-1.68 2.36-1.74v.76c-1.41.1-2.36 1.11-2.36 2.77v3.64h-.68Z" fill="#fff"/><path d="M75.64 11.88c0 1.67.87 3.01 2.31 3.01 1.46 0 2.29-1.25 2.29-3.01 0-1.65-.81-3.01-2.32-3.01-1.55 0-2.28 1.33-2.28 3.01m5.32-.01c0 1.95-1.04 3.68-3.06 3.68-1.83 0-2.97-1.56-2.97-3.67 0-2 1.07-3.67 3.04-3.67 1.8 0 3 1.46 3 3.66" fill="#fff"/><path d="M82.68 8.38c1.1 3.21 1.86 5.39 2.12 6.29h.01c.15-.52.91-2.61 2.22-6.29h.72l-2.56 7h-.81l-2.42-7Z" fill="#fff"/><path d="M89.26 8.38h.68v7h-.68Zm0-3.32h.68V6.42h-.68Z" fill="#fff"/><path d="M92.47 11.94c0 1.92.96 2.96 2.13 2.96 1.79 0 2.28-1.27 2.28-3.18 0-1.81-.42-2.84-2.16-2.84-1.34 0-2.25 1.11-2.25 3.07m5.06-6.88v8.31c0 .67 0 1.32.01 2.02h-.65c-.03-.17-.04-.83-.04-1.18-.34.85-1.1 1.35-2.28 1.35-1.76 0-2.82-1.49-2.82-3.59 0-2.16 1.15-3.75 3-3.75 1.36 0 1.9.6 2.1 1.05V5.06Z" fill="#fff"/><path d="M104.33 11.35c-.01-1.39-.75-2.48-2.07-2.48-1.4 0-2.03 1.01-2.18 2.48Zm-4.3.62c.01 1.81.9 2.93 2.2 2.93 1.28 0 1.71-.74 1.96-1.32h.69c-.28.92-1 1.98-2.67 1.98-2.06 0-2.86-1.84-2.86-3.61 0-2 .96-3.73 2.94-3.73 2.09 0 2.75 1.86 2.75 3.18 0 .2 0 .39-.01.57Z" fill="#fff"/><path d="M112.83 5.06v4.5c.38-.73 1.05-1.35 2.24-1.35.96 0 2.29.5 2.29 2.72v4.46h-.68V11.07c0-1.39-.61-2.17-1.74-2.17-1.34 0-2.12.86-2.12 2.58v3.91h-.68V5.06Z" fill="#fff"/><path d="M119.71 8.38h.68v7h-.68Zm0-3.32h.68V6.42h-.68Z" fill="#fff"/><path d="M122.93 11.85c0 1.67.85 2.87 2.16 2.87 1.7 0 2.21-1.16 2.21-2.98 0-1.85-.54-2.87-2.17-2.87-1.56 0-2.2 1.39-2.2 2.98m5.01 3.05c0 2.24-.96 3.42-2.93 3.42-1.76 0-2.5-1.02-2.66-2.09h.69c.25.97 1.02 1.43 1.99 1.43 1.76 0 2.25-1.18 2.25-2.96v-.73c-.37.91-1.03 1.4-2.26 1.4-1.59 0-2.81-1.33-2.81-3.5 0-2.35 1.3-3.67 2.9-3.67 1.38 0 1.98.67 2.17 1.23.01-.4.03-.9.04-1.06h.64c0 .25-.03 1.36-.03 2.03Z" fill="#fff"/><path d="M130.97 5.06v4.5c.38-.73 1.04-1.35 2.24-1.35.96 0 2.29.5 2.29 2.72v4.46h-.68V11.07c0-1.39-.61-2.17-1.74-2.17-1.34 0-2.12.86-2.12 2.58v3.91h-.68V5.06Z" fill="#fff"/><path d="M137.43 12.15h3.42v-.69h-3.42Z" fill="#fff" fill-rule="evenodd"/><path d="M143.2 11.92c0 1.53.71 2.97 2.2 2.97 1.68 0 2.23-1.16 2.23-3.05 0-1.85-.46-2.96-2.17-2.96-1.45 0-2.25 1.27-2.25 3.04m4.4 2.27c-.33.8-.96 1.36-2.32 1.36-1.56 0-2.79-1.33-2.79-3.59 0-2.42 1.38-3.75 2.97-3.75 1.38 0 1.98.7 2.14 1.22-.01-.31.01-.69.03-1.05h.65c-.01.83-.01 1.3-.01 1.95v7.86h-.66Z" fill="#fff"/><path d="M155.68 13.34c0 .69.01 1.78.01 2.05h-.65c-.03-.18-.04-.65-.04-1.22-.29.83-.98 1.39-2.18 1.39-.98 0-2.22-.39-2.22-2.54V8.38h.66v4.47c0 1.02.31 2.02 1.65 2.02 1.52 0 2.09-.88 2.09-2.89V8.38h.68Z" fill="#fff"/><path d="M162.03 11.81H160.7c-1.51 0-2.44.41-2.44 1.61 0 .88.61 1.49 1.56 1.49 1.94 0 2.21-1.33 2.21-2.84Zm.67 2.24c0 .62.05 1.11.09 1.33h-.65c-.05-.17-.09-.48-.12-1.08-.23.52-.83 1.25-2.22 1.25-1.57 0-2.25-1.05-2.25-2.1 0-1.54 1.15-2.24 3.19-2.24h1.29V10.5c0-.7-.2-1.64-1.75-1.64-1.37 0-1.57.74-1.72 1.32h-.68c.08-.77.54-1.96 2.41-1.96 1.55 0 2.42.67 2.42 2.21Z" fill="#fff"/><path d="M165.06 15.39h.68V5.06h-.68Z" fill="#fff" fill-rule="evenodd"/><path d="M168.1 8.38h.68v7h-.68Zm0-3.32h.68V6.42h-.68Z" fill="#fff"/><path d="M170.21 8.38h1.26V6.2h.68V8.38h1.61v.66h-1.61v4.55c0 .78.16 1.23.81 1.23.2 0 .49-.01.71-.08v.62c-.23.1-.56.13-.84.13-.87 0-1.36-.45-1.36-1.57V9.04h-1.26Z" fill="#fff"/><path d="M175.52 8.38c1.37 4.01 1.97 5.66 2.2 6.42h.01c.27-.86.81-2.48 2.13-6.42h.71l-2.55 7.41c-.72 2.07-1.21 2.54-2.43 2.54-.24 0-.41-.01-.62-.04v-.7c.2.03.39.04.61.04.98 0 1.29-.49 1.79-1.93l-2.59-7.31Z" fill="#fff"/><path d="M180.34 16.98c.66-1.36.91-2.61.95-3.39h.68c-.1 1.16-.53 2.55-1.02 3.39Z" fill="#fff"/><path d="M188.16 8.38h1.26V6.2h.68V8.38h1.61v.66H190.1v4.55c0 .78.16 1.23.81 1.23.2 0 .49-.01.71-.08v.62c-.23.1-.56.13-.84.13-.87 0-1.36-.45-1.36-1.57V9.04h-1.26Z" fill="#fff"/><path d="M197.22 11.81h-1.33c-1.51 0-2.44.41-2.44 1.61 0 .88.61 1.49 1.56 1.49 1.94 0 2.21-1.33 2.21-2.84Zm.66 2.24c0 .62.05 1.11.1 1.33h-.65c-.05-.17-.09-.48-.12-1.08-.23.52-.83 1.25-2.22 1.25-1.57 0-2.25-1.05-2.25-2.1 0-1.54 1.15-2.24 3.19-2.24h1.29V10.5c0-.7-.2-1.64-1.75-1.64-1.37 0-1.57.74-1.72 1.32h-.68c.08-.77.54-1.96 2.41-1.96 1.55 0 2.41.67 2.41 2.21Z" fill="#fff"/><path d="M200.25 8.38h.68v7h-.68Zm0-3.32h.68V6.42h-.68Z" fill="#fff"/><path d="M203.29 15.39h.68V5.06h-.68Z" fill="#fff" fill-rule="evenodd"/><path d="M206.5 11.88c0 1.67.87 3.01 2.31 3.01 1.46 0 2.29-1.25 2.29-3.01 0-1.65-.81-3.01-2.32-3.01-1.55 0-2.28 1.33-2.28 3.01m5.32-.01c0 1.95-1.04 3.68-3.06 3.68-1.83 0-2.97-1.56-2.97-3.67 0-2 1.07-3.67 3.04-3.67 1.8 0 3 1.46 3 3.66" fill="#fff"/><path d="M213.63 10.29c0-1.18-.01-1.68-.01-1.9h.66c.01.22.03.67.03 1.57.39-1.05 1.26-1.68 2.36-1.74v.76c-1.41.1-2.36 1.11-2.36 2.77v3.64h-.68Z" fill="#fff"/><path d="M222.5 11.35c-.01-1.39-.75-2.48-2.08-2.48-1.4 0-2.03 1.01-2.18 2.48Zm-4.3.62c.01 1.81.9 2.93 2.2 2.93 1.27 0 1.71-.74 1.95-1.32h.69c-.29.92-1 1.98-2.67 1.98-2.06 0-2.86-1.84-2.86-3.61 0-2 .96-3.73 2.94-3.73 2.09 0 2.75 1.86 2.75 3.18 0 .2 0 .39-.01.57Z" fill="#fff"/><path d="M225.24 11.94c0 1.92.96 2.96 2.13 2.96 1.79 0 2.28-1.27 2.28-3.18 0-1.81-.42-2.84-2.16-2.84-1.34 0-2.25 1.11-2.25 3.07m5.06-6.88v8.31c0 .67 0 1.32.01 2.02h-.65c-.03-.17-.04-.83-.04-1.18-.34.85-1.1 1.35-2.28 1.35-1.76 0-2.82-1.49-2.82-3.59 0-2.16 1.15-3.75 3-3.75 1.36 0 1.9.6 2.1 1.05V5.06Z" fill="#fff"/><path d="M242.97 13.33c-.33 1.23-1.11 2.23-2.63 2.23-1.7 0-2.9-1.3-2.9-3.64 0-1.92.99-3.7 2.98-3.7 1.72 0 2.43 1.26 2.55 2.24h-.69c-.2-.81-.72-1.58-1.87-1.58-1.44 0-2.25 1.26-2.25 3.01 0 1.67.76 3.01 2.18 3.01.99 0 1.59-.52 1.94-1.57Z" fill="#fff"/><path d="M244.67 10.29c0-1.18-.01-1.68-.01-1.9h.67c.01.22.03.67.03 1.57.39-1.05 1.26-1.68 2.36-1.74v.76c-1.41.1-2.36 1.11-2.36 2.77v3.64h-.68Z" fill="#fff"/><path d="M253.54 11.35c-.01-1.39-.75-2.48-2.07-2.48-1.4 0-2.04 1.01-2.18 2.48Zm-4.3.62c.01 1.81.9 2.93 2.2 2.93 1.28 0 1.71-.74 1.95-1.32h.69c-.29.92-1 1.98-2.67 1.98-2.06 0-2.86-1.84-2.86-3.61 0-2 .96-3.73 2.94-3.73 2.09 0 2.75 1.86 2.75 3.18 0 .2 0 .39-.01.57Z" fill="#fff"/><path d="M260.02 11.81h-1.33c-1.51 0-2.44.41-2.44 1.61 0 .88.61 1.49 1.56 1.49 1.94 0 2.21-1.33 2.21-2.84Zm.66 2.24c0 .62.05 1.11.1 1.33h-.65c-.05-.17-.09-.48-.12-1.08-.23.52-.83 1.25-2.22 1.25-1.57 0-2.25-1.05-2.25-2.1 0-1.54 1.15-2.24 3.19-2.24h1.29V10.5c0-.7-.2-1.64-1.75-1.64-1.37 0-1.57.74-1.72 1.32h-.68c.08-.77.54-1.96 2.41-1.96 1.55 0 2.41.67 2.41 2.21Z" fill="#fff"/><path d="M261.97 8.38h1.26V6.2h.68V8.38h1.61v.66h-1.61v4.55c0 .78.16 1.23.81 1.23.2 0 .49-.01.71-.08v.62c-.23.1-.56.13-.84.13-.87 0-1.36-.45-1.36-1.57V9.04h-1.26Z" fill="#fff"/><path d="M267.04 8.38h.68v7h-.68Zm0-3.32h.68V6.42h-.68Z" fill="#fff"/><path d="M269.97 8.38c1.1 3.21 1.86 5.39 2.11 6.29h.01c.15-.52.91-2.61 2.22-6.29h.72l-2.56 7h-.81l-2.41-7Z" fill="#fff"/><path d="M280.95 11.35c-.01-1.39-.75-2.48-2.08-2.48-1.4 0-2.03 1.01-2.18 2.48Zm-4.3.62c.01 1.81.9 2.93 2.2 2.93 1.28 0 1.71-.74 1.96-1.32h.69c-.29.92-1 1.98-2.67 1.98-2.06 0-2.86-1.84-2.86-3.61 0-2 .96-3.73 2.94-3.73 2.09 0 2.75 1.86 2.75 3.18 0 .2 0 .39-.01.57Z" fill="#fff"/><path d="M288.95 11.88c0 1.67.87 3.01 2.31 3.01 1.47 0 2.29-1.25 2.29-3.01 0-1.65-.81-3.01-2.32-3.01-1.55 0-2.28 1.33-2.28 3.01m5.32-.01c0 1.95-1.04 3.68-3.06 3.68-1.83 0-2.97-1.56-2.97-3.67 0-2 1.07-3.67 3.04-3.67 1.8 0 3 1.46 3 3.66" fill="#fff"/><path d="M301.15 13.34c0 .69.01 1.78.01 2.05h-.65c-.03-.18-.04-.65-.04-1.22-.28.83-.98 1.39-2.18 1.39-.98 0-2.22-.39-2.22-2.54V8.38h.66v4.47c0 1.02.31 2.02 1.65 2.02 1.52 0 2.09-.88 2.09-2.89V8.38h.68Z" fill="#fff"/><path d="M302.65 8.38h1.26V6.2h.68V8.38h1.62v.66h-1.62v4.55c0 .78.16 1.23.81 1.23.2 0 .49-.01.71-.08v.62c-.23.1-.56.13-.84.13-.87 0-1.36-.45-1.36-1.57V9.04h-1.26Z" fill="#fff"/><path d="M312.66 11.73c0-1.62-.76-2.84-2.1-2.84-1.64 0-2.32 1.06-2.32 2.97 0 1.88.53 3.04 2.22 3.04 1.41 0 2.2-1.23 2.2-3.16m-4.38 2.62v3.84h-.68V10.1c0-.57 0-1.19-.01-1.72h.67c.03.27.03.69.03 1.26.42-.84 1.17-1.43 2.39-1.43 1.6 0 2.71 1.39 2.71 3.49 0 2.52-1.3 3.85-2.94 3.85-1.19 0-1.82-.55-2.16-1.21" fill="#fff"/><path d="M320.28 13.34c0 .69.01 1.78.01 2.05h-.65c-.03-.18-.04-.65-.04-1.22-.28.83-.98 1.39-2.18 1.39-.98 0-2.23-.39-2.23-2.54V8.38h.67v4.47c0 1.02.31 2.02 1.65 2.02 1.52 0 2.09-.88 2.09-2.89V8.38h.68Z" fill="#fff"/><path d="M321.78 8.38h1.26V6.2h.68V8.38h1.61v.66h-1.61v4.55c0 .78.16 1.23.81 1.23.2 0 .49-.01.71-.08v.62c-.23.1-.56.13-.84.13-.87 0-1.36-.45-1.36-1.57V9.04h-1.26Z" fill="#fff"/><path d="M336.16 11.81h-1.33c-1.51 0-2.44.41-2.44 1.61 0 .88.61 1.49 1.56 1.49 1.94 0 2.21-1.33 2.21-2.84Zm.66 2.24c0 .62.05 1.11.09 1.33h-.65c-.05-.17-.09-.48-.12-1.08-.23.52-.83 1.25-2.22 1.25-1.58 0-2.25-1.05-2.25-2.1 0-1.54 1.15-2.24 3.19-2.24h1.29V10.5c0-.7-.2-1.64-1.75-1.64-1.37 0-1.57.74-1.72 1.32H332c.08-.77.54-1.96 2.42-1.96 1.55 0 2.41.67 2.41 2.21Z" fill="#fff"/><path d="M338.11 8.38h1.26V6.2h.68V8.38h1.61v.66h-1.61v4.55c0 .78.16 1.23.81 1.23.2 0 .49-.01.71-.08v.62c-.23.1-.56.13-.84.13-.87 0-1.36-.45-1.36-1.57V9.04h-1.26Z" fill="#fff"/><path d="M352.95 11.35c-.01-1.39-.75-2.48-2.08-2.48-1.4 0-2.03 1.01-2.18 2.48Zm-4.3.62c.01 1.81.9 2.93 2.2 2.93 1.28 0 1.71-.74 1.96-1.32h.69c-.29.92-1 1.98-2.67 1.98-2.06 0-2.86-1.84-2.86-3.61 0-2 .96-3.73 2.94-3.73 2.09 0 2.75 1.86 2.75 3.18 0 .2 0 .39-.01.57Z" fill="#fff"/><path d="M355.47 8.38c1.1 3.21 1.86 5.39 2.12 6.29h.01c.15-.52.91-2.61 2.22-6.29h.72l-2.56 7h-.81l-2.41-7Z" fill="#fff"/><path d="M366.46 11.35c-.01-1.39-.75-2.48-2.08-2.48-1.4 0-2.04 1.01-2.18 2.48Zm-4.3.62c.01 1.81.9 2.93 2.2 2.93 1.28 0 1.71-.74 1.95-1.32H367c-.28.92-1 1.98-2.67 1.98-2.06 0-2.86-1.84-2.86-3.61 0-2 .96-3.73 2.94-3.73 2.09 0 2.75 1.86 2.75 3.18 0 .2 0 .39-.01.57Z" fill="#fff"/><path d="M368.95 10.29c0-1.18-.01-1.68-.01-1.9h.66c.01.22.03.67.03 1.57.39-1.05 1.26-1.68 2.36-1.74v.76c-1.41.1-2.36 1.11-2.36 2.77v3.64h-.68Z" fill="#fff"/><path d="M373.72 8.38c1.37 4.01 1.97 5.66 2.2 6.42h.01c.27-.86.81-2.48 2.13-6.42h.71l-2.55 7.41c-.72 2.07-1.21 2.54-2.43 2.54-.24 0-.41-.01-.62-.04v-.7c.2.03.39.04.61.04.98 0 1.29-.49 1.79-1.93l-2.59-7.31Z" fill="#fff"/><path d="M385.52 13.45c.23.91.85 1.46 1.93 1.46 1.21 0 1.7-.58 1.7-1.36 0-.8-.33-1.19-1.85-1.57-1.75-.43-2.18-.98-2.18-1.9 0-.97.71-1.86 2.24-1.86s2.27.97 2.37 1.96h-.68c-.12-.59-.57-1.32-1.72-1.32-1.18 0-1.52.6-1.52 1.16 0 .64.33.97 1.67 1.3 1.91.48 2.39 1.12 2.39 2.17 0 1.27-1 2.06-2.43 2.06-1.55 0-2.41-.84-2.6-2.1Z" fill="#fff"/><path d="M396.67 13.33c-.33 1.23-1.11 2.23-2.63 2.23-1.7 0-2.9-1.3-2.9-3.64 0-1.92.99-3.7 2.98-3.7 1.72 0 2.43 1.26 2.55 2.24h-.69c-.2-.81-.72-1.58-1.87-1.58-1.44 0-2.25 1.26-2.25 3.01 0 1.67.76 3.01 2.18 3.01.99 0 1.59-.52 1.94-1.57Z" fill="#fff"/><path d="M402.42 11.81h-1.33c-1.51 0-2.44.41-2.44 1.61 0 .88.61 1.49 1.56 1.49 1.94 0 2.21-1.33 2.21-2.84Zm.66 2.24c0 .62.05 1.11.09 1.33h-.65c-.05-.17-.09-.48-.12-1.08-.23.52-.83 1.25-2.22 1.25-1.57 0-2.25-1.05-2.25-2.1 0-1.54 1.15-2.24 3.19-2.24h1.29V10.5c0-.7-.2-1.64-1.75-1.64-1.37 0-1.57.74-1.72 1.32h-.68c.08-.77.54-1.96 2.42-1.96 1.55 0 2.41.67 2.41 2.21Z" fill="#fff"/><path d="M405.45 15.39h.68V5.06h-.68Z" fill="#fff" fill-rule="evenodd"/><path d="M412.94 11.35c-.01-1.39-.75-2.48-2.07-2.48-1.4 0-2.03 1.01-2.18 2.48Zm-4.3.62c.01 1.81.89 2.93 2.2 2.93 1.28 0 1.71-.74 1.95-1.32h.69c-.28.92-1 1.98-2.67 1.98-2.06 0-2.86-1.84-2.86-3.61 0-2 .96-3.73 2.94-3.73 2.09 0 2.75 1.86 2.75 3.18 0 .2 0 .39-.01.57Z" fill="#fff"/><path d="M420.45 12.15h9.98v-.69h-9.98Z" fill="#fff" fill-rule="evenodd"/><path d="M437.87 15.39V9.52h-1.05V8.18h1.05V7.48c0-1.43.64-2.48 2.16-2.48.3 0 .68.03.85.09v1.4c-.13-.03-.31-.04-.48-.04-.62 0-.85.29-.85 1.16v.58h1.28V9.52h-1.28v5.86Z" fill="#fff"/><path d="M441.91 10.14c0-.81 0-1.43-.01-1.95h1.65c.02.17.05.84.05 1.33.33-.87 1.1-1.49 2.28-1.5V9.7c-1.41-.01-2.28.51-2.28 2.43v3.26h-1.69Z" fill="#fff"/><path d="M448.35 11.79c0 1.45.64 2.38 1.68 2.38 1.05 0 1.65-.91 1.65-2.37 0-1.54-.59-2.39-1.67-2.39-1.03 0-1.65.82-1.65 2.38m5.04-.01c0 2.14-1.23 3.78-3.41 3.78-2.11 0-3.35-1.59-3.35-3.75 0-2.19 1.26-3.79 3.44-3.79 2.01 0 3.32 1.5 3.32 3.75" fill="#fff"/><path d="M454.94 10.04c0-.62 0-1.25-.01-1.86h1.62c.02.19.06.63.07.94.34-.57.92-1.11 1.97-1.11 1 0 1.59.53 1.84 1.16.4-.62 1.02-1.16 2.17-1.16 1.19 0 2.21.74 2.21 2.64v4.73h-1.65V10.87c0-.71-.25-1.43-1.14-1.43-.92 0-1.3.66-1.3 1.82v4.12h-1.66V10.93c0-.81-.2-1.48-1.12-1.48-.9 0-1.33.65-1.33 1.93v4.01h-1.67Z" fill="#fff"/><path d="M477.67 13.1c-.26 1.21-1.07 2.45-3.05 2.45-2.09 0-3.23-1.51-3.23-3.72 0-2.1 1.21-3.82 3.32-3.82 2.24 0 2.9 1.65 2.96 2.51h-1.65c-.14-.63-.5-1.12-1.34-1.12-1 0-1.57.9-1.57 2.37 0 1.57.58 2.4 1.55 2.4.73 0 1.14-.43 1.35-1.08Z" fill="#fff"/><path d="M480.45 11.79c0 1.45.64 2.38 1.68 2.38 1.06 0 1.65-.91 1.65-2.37 0-1.54-.59-2.39-1.67-2.39-1.03 0-1.65.82-1.65 2.38m5.04-.01c0 2.14-1.22 3.78-3.41 3.78-2.11 0-3.35-1.59-3.35-3.75 0-2.19 1.26-3.79 3.44-3.79 2.01 0 3.32 1.5 3.32 3.75" fill="#fff"/><path d="M487.04 10c0-.62 0-1.27-.01-1.81h1.64c.04.2.06.78.07 1.01.25-.51.82-1.17 2.08-1.17 1.37 0 2.32.93 2.32 2.77v4.6h-1.69v-4.4c0-.9-.31-1.54-1.23-1.54-.99 0-1.48.66-1.48 1.99v3.95h-1.69Z" fill="#fff"/><path d="M500.94 13.1c-.26 1.21-1.07 2.45-3.05 2.45-2.09 0-3.23-1.51-3.23-3.72 0-2.1 1.21-3.82 3.32-3.82 2.24 0 2.9 1.65 2.96 2.51h-1.65c-.14-.63-.5-1.12-1.34-1.12-1 0-1.57.9-1.57 2.37 0 1.57.58 2.4 1.55 2.4.73 0 1.14-.43 1.35-1.08Z" fill="#fff"/><path d="M506.73 11.04c-.01-.95-.42-1.74-1.45-1.74s-1.46.73-1.55 1.74Zm-3.04 1.11c0 1.09.53 2.02 1.57 2.02.91 0 1.18-.42 1.37-.89h1.69c-.26.9-1.01 2.27-3.11 2.27-2.26 0-3.22-1.8-3.22-3.67 0-2.22 1.09-3.86 3.29-3.86 2.35 0 3.13 1.81 3.13 3.52 0 .23 0 .4-.02.6Z" fill="#fff"/><path d="M514.82 11.67c0-1.39-.57-2.23-1.58-2.23-1.21 0-1.66.8-1.66 2.35 0 1.49.4 2.36 1.58 2.36 1.11 0 1.66-.91 1.66-2.48m-3.17 2.99v3.5h-1.68V9.93c0-.58 0-1.17-.01-1.74h1.63c.03.21.06.65.06.98.33-.59.98-1.14 2.11-1.14 1.58 0 2.78 1.37 2.78 3.59 0 2.55-1.35 3.95-3.04 3.95-1.03 0-1.57-.42-1.85-.89" fill="#fff"/><path d="M517.3 8.18h1.12V6.18h1.69V8.18h1.42V9.52H520.1V13.3c0 .6.16.86.76.86.13 0 .34 0 .5-.03v1.22c-.36.13-.84.14-1.21.14-1.27 0-1.73-.69-1.73-1.93V9.52H517.3Z" fill="#fff"/><path d="M6.81 26.18c.76 2.61 1.35 4.76 1.52 5.64h.01c.19-1.06.89-3.22 1.64-5.64h1.69l-2.5 7.2H7.39L5 26.18Z" fill="#fff"/><path d="M12.86 26.18h1.69v7.2H12.86Zm0-3.05h1.69v1.7H12.86Z" fill="#fff"/><path d="M17.59 31.26c.16.65.65 1.02 1.45 1.02.82 0 1.12-.33 1.12-.84 0-.53-.31-.76-1.42-1.04-2.18-.55-2.56-1.25-2.56-2.25 0-1.04.72-2.13 2.72-2.13s2.73 1.15 2.8 2.14H20.1c-.07-.33-.3-.89-1.27-.89-.75 0-.99.36-.99.73 0 .42.24.62 1.42.91 2.26.55 2.62 1.34 2.62 2.4 0 1.21-.91 2.25-2.9 2.25-2.01 0-2.89-1.02-3.05-2.3Z" fill="#fff"/><path d="M29.23 31.29c0 .7 0 1.52.01 2.09H27.59c-.03-.19-.04-.6-.05-.91-.39.75-1.02 1.08-1.98 1.08-1.34 0-2.32-.8-2.32-2.66v-4.7h1.68v4.35c0 .85.26 1.58 1.2 1.58 1.02 0 1.42-.57 1.42-2.12V26.18h1.69Z" fill="#fff"/><path d="M35.14 30.03h-.9c-1.24 0-1.78.38-1.78 1.18 0 .6.37 1.07 1.12 1.07 1.38 0 1.56-.98 1.56-2.05Zm1.64 1.59c0 .68.05 1.58.09 1.76H35.27c-.05-.15-.09-.52-.1-.78-.25.43-.75.95-2.02.95-1.67 0-2.38-1.13-2.38-2.24 0-1.63 1.26-2.38 3.31-2.38h1.06v-.5c0-.55-.18-1.15-1.22-1.15-.93 0-1.12.44-1.22.97H31.09c.1-1.18.81-2.26 2.89-2.24 1.81.01 2.8.75 2.8 2.44Z" fill="#fff"/><path d="M38.78 33.39h1.69V23.14H38.78Z" fill="#fff" fill-rule="evenodd"/><path d="M42.44 26.18h1.69v7.2H42.44Zm0-3.05h1.69v1.7H42.44Z" fill="#fff"/><path d="M45.59 32.05l3.64-4.47H45.77v-1.4h5.37v1.38l-3.58 4.42h3.8l-.22 1.4H45.59Z" fill="#fff"/><path d="M56.68 30.03h-.9c-1.24 0-1.78.38-1.78 1.18 0 .6.37 1.07 1.12 1.07 1.38 0 1.56-.98 1.56-2.05Zm1.64 1.59c0 .68.05 1.58.09 1.76H56.81c-.05-.15-.1-.52-.1-.78-.25.43-.75.95-2.02.95-1.67 0-2.38-1.13-2.38-2.24 0-1.63 1.26-2.38 3.31-2.38h1.06v-.5c0-.55-.18-1.15-1.22-1.15-.93 0-1.12.44-1.22.97H52.64c.1-1.18.81-2.26 2.89-2.24 1.81.01 2.8.75 2.8 2.44Z" fill="#fff"/><path d="M59.45 26.18h1.12V24.18h1.69v2.01h1.42v1.34H62.26V31.3c0 .6.16.86.76.86.13 0 .33 0 .5-.03v1.22c-.35.13-.84.14-1.21.14-1.27 0-1.73-.69-1.73-1.93V27.52H59.45Z" fill="#fff"/><path d="M64.96 26.18h1.69v7.2H64.96Zm0-3.05h1.69v1.7H64.96Z" fill="#fff"/><path d="M69.9 29.79c0 1.45.64 2.38 1.68 2.38 1.05 0 1.64-.91 1.64-2.37 0-1.54-.59-2.39-1.67-2.39-1.03 0-1.65.82-1.65 2.38m5.04-.01c0 2.14-1.23 3.78-3.41 3.78-2.11 0-3.35-1.59-3.35-3.75 0-2.19 1.26-3.79 3.44-3.79 2.01 0 3.32 1.5 3.32 3.75" fill="#fff"/><path d="M76.49 28c0-.62 0-1.27-.01-1.81h1.64c.04.2.06.78.07 1.01.25-.51.82-1.17 2.08-1.17 1.37 0 2.32.93 2.32 2.77v4.6H80.89v-4.4c0-.9-.31-1.54-1.24-1.54-.99 0-1.48.66-1.48 1.99v3.95H76.49Z" fill="#fff"/><path d="M87.26 26.18h1.12V24.18h1.69v2.01h1.42v1.34H90.06V31.3c0 .6.16.86.76.86.13 0 .34 0 .5-.03v1.22c-.36.13-.84.14-1.21.14-1.27 0-1.73-.69-1.73-1.93V27.52H87.26Z" fill="#fff"/><path d="M94.02 29.79c0 1.45.64 2.38 1.68 2.38 1.06 0 1.65-.91 1.65-2.37 0-1.54-.6-2.39-1.67-2.39-1.03 0-1.65.82-1.65 2.38m5.04-.01c0 2.14-1.23 3.78-3.41 3.78-2.11 0-3.35-1.59-3.35-3.75 0-2.19 1.26-3.79 3.44-3.79 2.01 0 3.32 1.5 3.32 3.75" fill="#fff"/><path d="M105.35 29.79c0 1.45.64 2.38 1.68 2.38 1.06 0 1.65-.91 1.65-2.37 0-1.54-.6-2.39-1.67-2.39-1.03 0-1.65.82-1.65 2.38m5.04-.01c0 2.14-1.23 3.78-3.41 3.78-2.11 0-3.35-1.59-3.35-3.75 0-2.19 1.26-3.79 3.44-3.79 2.01 0 3.32 1.5 3.32 3.75" fill="#fff"/><path d="M111.95 28c0-.62 0-1.27-.01-1.81h1.64c.04.2.06.78.06 1.01.25-.51.82-1.17 2.08-1.17 1.37 0 2.32.93 2.32 2.77v4.6h-1.69v-4.4c0-.9-.31-1.54-1.23-1.54-.99 0-1.48.66-1.48 1.99v3.95h-1.69Z" fill="#fff"/><path d="M119.77 30.55h3.7V29.02h-3.7Z" fill="#fff" fill-rule="evenodd"/><path d="M126.59 31.26c.16.65.65 1.02 1.45 1.02.82 0 1.12-.33 1.12-.84 0-.53-.31-.76-1.42-1.04-2.18-.55-2.56-1.25-2.56-2.25 0-1.04.72-2.13 2.72-2.13s2.73 1.15 2.8 2.14H129.1c-.07-.33-.3-.89-1.27-.89-.75 0-.99.36-.99.73 0 .42.24.62 1.42.91 2.26.55 2.62 1.34 2.62 2.4 0 1.21-.91 2.25-2.9 2.25-2.01 0-2.89-1.02-3.05-2.3Z" fill="#fff"/><path d="M132.38 26.18h1.69v7.2h-1.69Zm0-3.05h1.69v1.7h-1.69Z" fill="#fff"/><path d="M135.32 26.18h1.12V24.18h1.69v2.01h1.42v1.34h-1.42V31.3c0 .6.16.86.75.86.13 0 .34 0 .5-.03v1.22c-.36.13-.84.14-1.21.14-1.27 0-1.73-.69-1.73-1.93V27.52h-1.12Z" fill="#fff"/><path d="M145.1 29.04c-.01-.95-.42-1.74-1.45-1.74s-1.45.73-1.55 1.74Zm-3.04 1.11c0 1.09.53 2.02 1.57 2.02.9 0 1.18-.42 1.37-.89h1.69c-.26.9-1.01 2.27-3.11 2.27-2.26 0-3.22-1.8-3.22-3.67 0-2.22 1.1-3.86 3.3-3.86 2.35 0 3.13 1.81 3.13 3.52 0 .23 0 .4-.02.6Z" fill="#fff"/><path d="M156.54 29.67c0-1.39-.57-2.23-1.58-2.23-1.21 0-1.66.8-1.66 2.35 0 1.49.39 2.36 1.58 2.36 1.11 0 1.66-.91 1.66-2.48m-3.17 2.99v3.5h-1.68V27.93c0-.58 0-1.17-.01-1.74h1.64c.03.21.05.65.05.98.33-.59.98-1.14 2.11-1.14 1.58 0 2.78 1.37 2.78 3.59 0 2.55-1.35 3.95-3.04 3.95-1.03 0-1.57-.42-1.85-.89" fill="#fff"/><path d="M159.79 28.14c0-.81 0-1.43-.01-1.95h1.65c.02.17.05.84.05 1.33.33-.87 1.1-1.49 2.27-1.5V27.7c-1.41-.01-2.27.51-2.27 2.43v3.26h-1.69Z" fill="#fff"/><path d="M166.24 29.79c0 1.45.64 2.38 1.68 2.38 1.05 0 1.65-.91 1.65-2.37 0-1.54-.6-2.39-1.67-2.39-1.03 0-1.65.82-1.65 2.38m5.04-.01c0 2.14-1.23 3.78-3.41 3.78-2.11 0-3.35-1.59-3.35-3.75 0-2.19 1.26-3.79 3.44-3.79 2.01 0 3.32 1.5 3.32 3.75" fill="#fff"/><path d="M174.21 29.8c0 1.52.62 2.34 1.62 2.34 1.43 0 1.65-1.18 1.65-2.39 0-1.36-.22-2.31-1.59-2.31-1.09 0-1.68.88-1.68 2.37m4.89-6.66v8.25c0 .66 0 1.33.01 2h-1.62c-.04-.21-.07-.64-.08-.84-.34.63-.97 1.01-2.05 1.01-1.77 0-2.89-1.47-2.89-3.7 0-2.22 1.19-3.83 3.15-3.83 1.08 0 1.62.42 1.79.77V23.14Z" fill="#fff"/><path d="M187.01 31.29c0 .7 0 1.52.01 2.09h-1.65c-.03-.19-.04-.6-.05-.91-.39.75-1.02 1.08-1.98 1.08-1.34 0-2.32-.8-2.32-2.66v-4.7h1.68v4.35c0 .85.25 1.58 1.2 1.58 1.01 0 1.42-.57 1.42-2.12V26.18h1.69Z" fill="#fff"/><path d="M194.88 31.1c-.26 1.21-1.07 2.45-3.05 2.45-2.09 0-3.23-1.51-3.23-3.72 0-2.1 1.21-3.82 3.32-3.82 2.24 0 2.9 1.65 2.96 2.51h-1.65c-.14-.63-.5-1.12-1.34-1.12-1 0-1.57.9-1.57 2.37 0 1.57.58 2.4 1.55 2.4.73 0 1.14-.43 1.35-1.08Z" fill="#fff"/><path d="M195.66 26.18h1.12V24.18h1.68v2.01h1.42v1.34h-1.42V31.3c0 .6.17.86.76.86.13 0 .34 0 .5-.03v1.22c-.36.13-.84.14-1.21.14-1.27 0-1.73-.69-1.73-1.93V27.52h-1.12Z" fill="#fff"/><path d="M201.17 26.18h1.69v7.2h-1.69Zm0-3.05h1.69v1.7h-1.69Z" fill="#fff"/><path d="M206.11 29.79c0 1.45.64 2.38 1.68 2.38 1.05 0 1.64-.91 1.64-2.37 0-1.54-.59-2.39-1.67-2.39-1.03 0-1.65.82-1.65 2.38m5.04-.01c0 2.14-1.23 3.78-3.41 3.78-2.11 0-3.35-1.59-3.35-3.75 0-2.19 1.26-3.79 3.44-3.79 2.01 0 3.32 1.5 3.32 3.75" fill="#fff"/><path d="M212.7 28c0-.62 0-1.27-.01-1.81h1.64c.04.2.06.78.07 1.01.25-.51.82-1.17 2.08-1.17 1.37 0 2.32.93 2.32 2.77v4.6H217.1v-4.4c0-.9-.31-1.54-1.24-1.54-.99 0-1.48.66-1.48 1.99v3.95H212.7Z" fill="#fff"/><path d="M220.4 33.39h1.8V31.06h-1.8Z" fill="#fff" fill-rule="evenodd"/></g></g></svg>