<?xml version="1.0" encoding="UTF-8"?><!DOCTYPE svg PUBLIC "-//W3C//DTD SVG 1.0//EN" "http://www.w3.org/TR/2001/REC-SVG-20010904/DTD/svg10.dtd" []><svg xmlns="http://www.w3.org/2000/svg" xmlns:xlink="http://www.w3.org/1999/xlink" height="20" stroke="#000" stroke-linecap="square" stroke-miterlimit="10" viewBox="0 0 170.93 20.49" width="171"><g><g fill="#fff" stroke="none"><path d="M8.19 6.22H5v-.7h7.14v.7H8.93v9.1H8.19Z"/><path d="M14.02 5V9.5c.38-.73 1.04-1.35 2.24-1.35.96 0 2.29.5 2.29 2.72v4.45h-.68V11.01c0-1.39-.61-2.17-1.74-2.17-1.34 0-2.12.85-2.12 2.58v3.91h-.68V5Z"/><path d="M20.9 8.32h.68v7H20.9ZM20.9 5h.68V6.36H20.9Z"/><path d="M23.87 13.39c.23.91.86 1.46 1.93 1.46 1.21 0 1.7-.57 1.7-1.36 0-.8-.33-1.19-1.85-1.57-1.75-.43-2.18-.98-2.18-1.9 0-.97.71-1.86 2.24-1.86s2.27.97 2.37 1.96H27.4c-.12-.59-.57-1.32-1.72-1.32-1.18 0-1.52.6-1.52 1.16 0 .64.33.97 1.67 1.3 1.91.48 2.39 1.12 2.39 2.17 0 1.27-1 2.06-2.43 2.06-1.55 0-2.42-.84-2.6-2.1Z"/><path d="M33.69 8.32h.68v7h-.68Zm0-3.32h.68V6.36h-.68Z"/><path d="M36.73 10.08c0-.62 0-1.2-.01-1.77h.66c.03.22.04 1.13.03 1.33.3-.71.85-1.5 2.25-1.5 1.21 0 2.28.7 2.28 2.63v4.54h-.68V10.9c0-1.25-.5-2.06-1.68-2.06-1.61 0-2.17 1.39-2.17 2.91v3.57h-.68Z"/><path d="M49.28 13.26c-.33 1.23-1.11 2.23-2.63 2.23-1.7 0-2.9-1.3-2.9-3.64 0-1.92.99-3.7 2.98-3.7 1.72 0 2.43 1.26 2.55 2.24h-.69c-.21-.81-.72-1.58-1.87-1.58-1.44 0-2.25 1.26-2.25 3.01 0 1.67.76 3.01 2.18 3.01.99 0 1.59-.52 1.94-1.57Z"/><path d="M50.99 15.32h.68V5h-.68Z" fill-rule="evenodd"/><path d="M59.1 13.28c0 .69.01 1.78.01 2.04h-.65c-.03-.18-.04-.65-.04-1.22-.28.83-.98 1.39-2.18 1.39-.98 0-2.22-.39-2.22-2.54V8.32h.66v4.47c0 1.02.31 2.02 1.65 2.02 1.52 0 2.09-.88 2.09-2.88V8.32h.68Z"/><path d="M61.63 11.88c0 1.92.96 2.96 2.13 2.96 1.79 0 2.28-1.27 2.28-3.18 0-1.81-.42-2.84-2.16-2.84-1.34 0-2.25 1.11-2.25 3.07M66.69 5v8.31c0 .67 0 1.32.01 2.02h-.65c-.03-.17-.04-.83-.04-1.18-.34.85-1.1 1.34-2.28 1.34-1.76 0-2.82-1.48-2.82-3.59 0-2.16 1.15-3.75 3-3.75 1.36 0 1.9.6 2.1 1.05V5Z"/><path d="M73.5 11.29c-.01-1.39-.75-2.48-2.07-2.48-1.4 0-2.03 1.01-2.18 2.48Zm-4.3.62c.01 1.81.9 2.93 2.2 2.93 1.28 0 1.71-.74 1.95-1.32h.69c-.29.92-1 1.97-2.67 1.97-2.06 0-2.86-1.84-2.86-3.61 0-2 .96-3.73 2.94-3.73 2.09 0 2.75 1.86 2.75 3.18 0 .2 0 .39-.01.57Z"/><path d="M76.15 13.39c.23.91.85 1.46 1.93 1.46 1.21 0 1.7-.57 1.7-1.36 0-.8-.33-1.19-1.85-1.57-1.75-.43-2.18-.98-2.18-1.9 0-.97.71-1.86 2.24-1.86s2.27.97 2.37 1.96h-.68c-.12-.59-.57-1.32-1.72-1.32-1.18 0-1.52.6-1.52 1.16 0 .64.33.97 1.67 1.3 1.91.48 2.39 1.12 2.39 2.17 0 1.27-1 2.06-2.43 2.06-1.55 0-2.41-.84-2.6-2.1Z"/><path d="M89.95 11.75H88.62c-1.51 0-2.44.41-2.44 1.61 0 .88.61 1.49 1.56 1.49 1.94 0 2.21-1.33 2.21-2.84Zm.66 2.24c0 .62.06 1.11.1 1.33h-.65c-.05-.17-.09-.48-.12-1.08-.23.52-.83 1.25-2.22 1.25-1.58 0-2.25-1.05-2.25-2.1 0-1.54 1.15-2.24 3.19-2.24h1.29v-.71c0-.7-.2-1.64-1.75-1.64-1.37 0-1.57.74-1.72 1.32h-.68c.08-.77.54-1.96 2.41-1.96 1.55 0 2.41.67 2.41 2.21Z"/><path d="M92.99 15.32h.68V5h-.68Z" fill-rule="evenodd"/><path d="M96.03 15.32h.68V5h-.68Z" fill-rule="evenodd"/><path d="M99.06 8.32h.68v7h-.68Zm0-3.32h.68V6.36h-.68Z"/><path d="M105.99 11.75h-1.33c-1.51 0-2.44.41-2.44 1.61 0 .88.61 1.49 1.56 1.49 1.94 0 2.21-1.33 2.21-2.84Zm.66 2.24c0 .62.05 1.11.1 1.33h-.65c-.05-.17-.09-.48-.12-1.08-.23.52-.83 1.25-2.22 1.25-1.58 0-2.25-1.05-2.25-2.1 0-1.54 1.15-2.24 3.19-2.24h1.29v-.71c0-.7-.2-1.64-1.75-1.64-1.37 0-1.57.74-1.72 1.32h-.68c.08-.77.54-1.96 2.41-1.96 1.55 0 2.41.67 2.41 2.21Z"/><path d="M109.03 10.08c0-.62 0-1.2-.01-1.77h.66c.03.22.04 1.13.03 1.33.3-.71.85-1.5 2.25-1.5 1.21 0 2.28.7 2.28 2.63v4.54h-.68V10.9c0-1.25-.5-2.06-1.68-2.06-1.61 0-2.17 1.39-2.17 2.91v3.57h-.68Z"/><path d="M121.58 13.26c-.32 1.23-1.11 2.23-2.63 2.23-1.69 0-2.9-1.3-2.9-3.64 0-1.92.99-3.7 2.98-3.7 1.72 0 2.43 1.26 2.55 2.24h-.69c-.2-.81-.72-1.58-1.87-1.58-1.44 0-2.25 1.26-2.25 3.01 0 1.67.76 3.01 2.18 3.01.99 0 1.59-.52 1.94-1.57Z"/><path d="M127.81 11.29c-.01-1.39-.75-2.48-2.07-2.48-1.4 0-2.04 1.01-2.18 2.48Zm-4.3.62c.01 1.81.89 2.93 2.2 2.93 1.28 0 1.71-.74 1.95-1.32h.69c-.29.92-1 1.97-2.67 1.97-2.06 0-2.86-1.84-2.86-3.61 0-2 .96-3.73 2.94-3.73 2.09 0 2.75 1.86 2.75 3.18 0 .2 0 .39-.01.57Z"/><path d="M130.46 13.39c.23.91.85 1.46 1.93 1.46 1.21 0 1.69-.57 1.69-1.36 0-.8-.33-1.19-1.85-1.57-1.75-.43-2.18-.98-2.18-1.9 0-.97.71-1.86 2.24-1.86s2.27.97 2.37 1.96h-.68c-.12-.59-.57-1.32-1.72-1.32-1.18 0-1.52.6-1.52 1.16 0 .64.33.97 1.67 1.3 1.91.48 2.39 1.12 2.39 2.17 0 1.27-1 2.06-2.43 2.06-1.55 0-2.41-.84-2.6-2.1Z"/><path d="M140.29 8.32c1 3.61 1.59 5.69 1.7 6.3H142c.11-.56.79-2.76 1.85-6.3h.73c1.26 4.33 1.64 5.57 1.76 6.12h.01c.19-.77.5-1.82 1.75-6.12h.72l-2.14 7h-.75c-.73-2.48-1.61-5.52-1.75-6.16h-.01c-.13.69-.91 3.19-1.79 6.16h-.81l-1.99-7Z"/><path d="M150.39 8.32h.68v7h-.68Zm0-3.32h.68V6.36h-.68Z"/><path d="M152.51 8.32h1.26V6.13h.68V8.32h1.61v.66h-1.61v4.55c0 .79.16 1.23.82 1.23.2 0 .49-.01.71-.09v.62c-.23.1-.56.13-.84.13-.87 0-1.35-.45-1.35-1.57V8.98h-1.26Z"/><path d="M158.21 5V9.5c.38-.73 1.04-1.35 2.24-1.35.96 0 2.29.5 2.29 2.72v4.45h-.68V11.01c0-1.39-.61-2.17-1.74-2.17-1.34 0-2.11.85-2.11 2.58v3.91h-.68V5Z"/><path d="M165.28 13.5h.65v1.82h-.65Zm0-5.18h.65v1.81h-.65Z"/></g></g></svg>