<?xml version="1.0" encoding="UTF-8"?><!DOCTYPE svg PUBLIC "-//W3C//DTD SVG 1.0//EN" "http://www.w3.org/TR/2001/REC-SVG-20010904/DTD/svg10.dtd" []><svg xmlns="http://www.w3.org/2000/svg" xmlns:xlink="http://www.w3.org/1999/xlink" height="37" stroke="#000" stroke-linecap="square" stroke-miterlimit="10" viewBox="0 0 191.86 36.95" width="192"><g><g fill="#fff" stroke="none"><path d="M7.02 29.67h6.04c6.62 0 9.87-4.65 9.87-10.85 0-5.51-2.93-10.63-9.87-10.63H7.02ZM5 6.33h8.38c6.92 0 11.7 4.82 11.7 12.38 0 7.52-4.68 12.81-11.74 12.81H5Z"/><path d="M40.99 22.36H37.5c-3.98 0-6.43 1.04-6.43 4.11 0 2.25 1.6 3.79 4.11 3.79 5.11 0 5.82-3.39 5.82-7.25Zm1.83 5.71c0 1.59.15 2.88.25 3.45h-1.8c-.14-.43-.25-1.23-.32-2.75-.61 1.32-2.19 3.18-5.89 3.18-4.18 0-5.98-2.7-5.98-5.41 0-3.96 3.07-5.77 8.47-5.77h3.4V18.96c0-1.79-.54-4.18-4.61-4.18-3.6 0-4.14 1.89-4.53 3.36H29.95c.22-2.01 1.46-5.06 6.44-5.06 4.12 0 6.44 1.73 6.44 5.7Z"/><path d="M46.24 13.51h3.34V7.91h1.87v5.6h4.27v1.74H51.45V26.9c0 2 .43 3.14 2.15 3.14.53 0 1.29-.04 1.86-.21v1.63c-.62.25-1.5.33-2.26.33-2.33 0-3.63-1.17-3.63-4.06V15.25H46.24Z"/><path d="M70.33 22.36h-3.5c-3.98 0-6.43 1.04-6.43 4.11 0 2.25 1.6 3.79 4.11 3.79 5.11 0 5.82-3.39 5.82-7.25Zm1.83 5.71c0 1.59.14 2.88.25 3.45h-1.8c-.14-.43-.25-1.23-.32-2.75-.61 1.32-2.19 3.18-5.89 3.18-4.18 0-5.98-2.7-5.98-5.41 0-3.96 3.07-5.77 8.47-5.77h3.4V18.96c0-1.79-.54-4.18-4.6-4.18-3.6 0-4.14 1.89-4.54 3.36H59.29c.22-2.01 1.46-5.06 6.44-5.06 4.12 0 6.44 1.73 6.44 5.7Z"/><path d="M77.33 23.24h9.09V21.41H77.33Z" fill-rule="evenodd"/><path d="M94.1 29.67h6.04c6.62 0 9.87-4.65 9.87-10.85 0-5.51-2.93-10.63-9.87-10.63H94.1ZM92.08 6.33h8.38c6.92 0 11.7 4.82 11.7 12.38 0 7.52-4.68 12.81-11.74 12.81H92.08Z"/><path d="M117.5 18.41c0-3-.04-4.3-.04-4.9h1.83c.04.57.07 1.74.07 4.01 1.04-2.69 3.34-4.3 6.26-4.45v2.01c-3.74.25-6.26 2.8-6.26 7.1v9.33H117.5Z"/><path d="M129.3 13.51h1.87V31.52H129.3Zm0-8.51h1.87V8.52H129.3Z"/><path d="M137.2 13.51c2.89 8.2 4.9 13.82 5.57 16.12h.04c.4-1.37 2.41-6.74 5.86-16.12h1.98l-6.8 18.01h-2.23l-6.4-18.01Z"/><path d="M166.3 21.14c-.04-3.53-1.96-6.32-5.46-6.32-3.68 0-5.36 2.57-5.75 6.32Zm-11.32 1.62c.04 4.59 2.35 7.46 5.79 7.46 3.36 0 4.5-1.89 5.14-3.35h1.91c-.75 2.37-2.67 5.1-7.12 5.1-5.49 0-7.62-4.71-7.62-9.29 0-5.16 2.57-9.58 7.84-9.58 5.56 0 7.33 4.78 7.33 8.2 0 .51 0 1.01-.04 1.48Z"/><path d="M172.97 18.05c0-1.58 0-3.1-.04-4.54h1.83c.07.57.11 2.89.08 3.4.79-1.82 2.26-3.83 5.96-3.83 3.21 0 6.05 1.82 6.05 6.78V31.52h-1.87V20.15c0-3.18-1.32-5.26-4.43-5.26-4.24 0-5.71 3.51-5.71 7.42v9.2h-1.87Z"/></g></g></svg>