<?xml version="1.0" encoding="UTF-8"?><!DOCTYPE svg PUBLIC "-//W3C//DTD SVG 1.0//EN" "http://www.w3.org/TR/2001/REC-SVG-20010904/DTD/svg10.dtd" []><svg xmlns="http://www.w3.org/2000/svg" xmlns:xlink="http://www.w3.org/1999/xlink" height="71" stroke="#000" stroke-linecap="square" stroke-miterlimit="10" viewBox="0 0 177.81 71.21" width="178"><defs><clipPath id="a"><path d="M0 0V71.21H177.81V0Z"/></clipPath><clipPath clip-path="url(#a)" id="b"><path d="M-414.8 439.56H545.32v-540H-414.8Z"/></clipPath><clipPath clip-path="url(#b)" id="c"><path d="M-414.8 439.56H545.21v-540H-414.8Z"/></clipPath></defs><g><g fill="#fff" stroke="none"><path clip-path="url(#c)" d="M36.2 58.07C21.8 58.07 10.13 46.4 10.13 32S21.8 5.94 36.2 5.94 62.26 17.61 62.26 32 50.6 58.07 36.2 58.07M35.6 5C18.7 5 5 18.7 5 35.61s13.7 30.6 30.6 30.6 30.6-13.7 30.6-30.6S52.51 5 35.6 5"/><path clip-path="url(#c)" d="M53.75 33.26c-.77-5.08-1.71-.82-2.93 1.49-4.07 7.7-10.87 11.15-15.11 11.48-8.05.64-14.63-6.64-14.63-14.84s6.05-14.43 14.14-14.43c1.82 0 5.57.53 7.17 1.15 1.38-.23-2.3-2.3-6.4-2.47-9.98-.42-18.33 7.34-18.33 17.47 0 5.34 2.18 9.73 5.77 13.08 3.22 3.01 8.44 5.6 13.17 5.68 11.13.2 18.69-8.6 17.16-18.62"/><path clip-path="url(#c)" d="M43.6 29.72c.08.01.14.08.17 0 .4-.83 2.34-4.49 7.05-7.6 5.35-3.54 8.72-4.25 12.56-4.52 3.65-.25 5.87.46 5.67-.2 0 0-2.57-1.26-8.58-1.03-6.08.24-9.8 2.33-12.25 4.32s-3.55 3.45-4.32 5.01c-1.52 3.07-.76 3.95-.3 4"/><path clip-path="url(#c)" d="M83.51 41.68c.66-.39 1.17-.93 1.55-1.62s.56-1.48.56-2.36-.19-1.67-.56-2.36-.89-1.23-1.55-1.62-1.39-.58-2.21-.58-1.55.19-2.21.58-1.17.93-1.55 1.62-.56 1.48-.56 2.36.19 1.67.56 2.36.89 1.23 1.55 1.62 1.39.58 2.21.58 1.55-.19 2.21-.58m-6.08 2.43c-1.15-.64-2.05-1.52-2.7-2.64s-.98-2.38-.98-3.77.32-2.65.98-3.77 1.55-2 2.7-2.64 2.44-.96 3.87-.96 2.72.32 3.86.96 2.04 1.52 2.7 2.64.99 2.38.99 3.77-.33 2.66-.99 3.77-1.56 2-2.7 2.64-2.43.96-3.86.96-2.72-.32-3.87-.96"/><path clip-path="url(#c)" d="M99.73 33.9c-.5-.43-1.23-.64-2.19-.64h-2.6v4.96h2.6c.96 0 1.69-.22 2.19-.65s.75-1.04.75-1.83c0-.8-.25-1.42-.75-1.84m.81 10.92l-2.66-3.97H94.94v3.97H91.75V30.58h5.97c1.22 0 2.28.21 3.18.63s1.59 1.02 2.08 1.79.73 1.69.73 2.75-.25 1.97-.74 2.74-1.19 1.35-2.1 1.76l3.09 4.58Z"/><path clip-path="url(#c)" d="M114.8 39.27l-2.19-5.45-2.19 5.45Zm1 2.5h-6.4l-1.22 3.05h-3.27l6.15-14.24h3.15l6.17 14.24h-3.35Z"/><path clip-path="url(#c)" d="M134.96 30.58V44.82h-2.62l-6.88-8.65v8.65h-3.15V30.58h2.64l6.86 8.65V30.58Z"/><path clip-path="url(#c)" d="M148.05 37.47h2.92v5.78c-.75.58-1.62 1.03-2.6 1.34s-1.98.47-2.98.47c-1.43 0-2.72-.32-3.86-.95s-2.04-1.51-2.69-2.62-.98-2.38-.98-3.79.33-2.68.98-3.8 1.55-1.99 2.71-2.63 2.46-.95 3.9-.95c1.21 0 2.3.21 3.29.63s1.81 1.03 2.48 1.83l-2.05 1.95c-.98-1.07-2.17-1.61-3.57-1.61-.88 0-1.66.19-2.35.57s-1.22.92-1.6 1.61-.57 1.48-.57 2.38c0 .88.19 1.67.57 2.36s.91 1.23 1.59 1.62 1.45.58 2.32.58c.92 0 1.75-.2 2.48-.61Z"/><path clip-path="url(#c)" d="M165.1 42.18v2.65H154.41V30.58h10.42v2.64h-7.25v3.09h6.4v2.56h-6.4v3.3Z"/><path clip-path="url(#c)" d="M77.41 62.37c-1.14-.63-2.03-1.51-2.68-2.62s-.98-2.38-.98-3.8.32-2.68.98-3.79 1.54-2 2.68-2.62 2.41-.95 3.83-.95c1.2 0 2.28.22 3.24.65s1.78 1.06 2.43 1.87l-2.05 1.95c-.93-1.11-2.09-1.67-3.47-1.67-.85 0-1.62.19-2.29.58s-1.19.93-1.57 1.62-.56 1.48-.56 2.36.19 1.67.56 2.36.9 1.23 1.57 1.62 1.43.58 2.29.58c1.38 0 2.53-.56 3.47-1.69l2.05 1.95c-.66.83-1.47 1.46-2.44 1.89s-2.06.65-3.25.65c-1.41 0-2.68-.32-3.81-.95"/><path clip-path="url(#c)" d="M89.36 48.82h3.19V60.38h6.92v2.69H89.36Z"/><path clip-path="url(#c)" d="M110.21 59.92c.66-.39 1.17-.93 1.55-1.62s.56-1.48.56-2.36-.19-1.67-.56-2.36-.89-1.23-1.55-1.62-1.39-.58-2.21-.58-1.55.19-2.21.58-1.17.93-1.55 1.62-.56 1.48-.56 2.36.19 1.67.56 2.36.89 1.23 1.55 1.62 1.39.58 2.21.58 1.55-.19 2.21-.58m-6.08 2.43c-1.15-.64-2.05-1.52-2.7-2.64s-.98-2.38-.98-3.77.33-2.65.98-3.77 1.55-2 2.7-2.64 2.44-.96 3.87-.96 2.72.32 3.86.96 2.04 1.52 2.7 2.64.99 2.38.99 3.77-.33 2.66-.99 3.77-1.56 2-2.7 2.64-2.43.96-3.86.96-2.72-.32-3.87-.96"/><path clip-path="url(#c)" d="M131.06 48.82l-5.97 14.24h-3.15l-5.95-14.24h3.45L123.63 59l4.26-10.17Z"/><path clip-path="url(#c)" d="M143.18 60.42v2.65H132.5V48.82h10.42v2.65h-7.25v3.09h6.41v2.56h-6.41v3.3Z"/><path clip-path="url(#c)" d="M145.26 39.12h5.71V36.39h-5.71Z" fill-rule="evenodd"/><path clip-path="url(#c)" d="M169.95 31.19c-1.24 0-2.25 1.01-2.25 2.25s1.01 2.25 2.25 2.25 2.25-1.01 2.25-2.25-1.01-2.25-2.25-2.25m0 5.11c-1.58 0-2.86-1.28-2.86-2.86s1.28-2.86 2.86-2.86 2.86 1.28 2.86 2.86-1.28 2.86-2.86 2.86"/><path clip-path="url(#c)" d="M170.46 32.59c-.1-.09-.25-.13-.44-.13h-.52v1h.52c.19 0 .34-.04.44-.13s.15-.21.15-.37-.05-.28-.15-.37m.16 2.19l-.53-.8h-.59v.8h-.64V31.92h1.2c.24 0 .46.04.64.13s.32.2.42.36.15.34.15.55-.05.4-.15.55-.24.27-.42.35l.62.92Z"/></g></g></svg>