<?xml version="1.0" encoding="UTF-8"?><!DOCTYPE svg PUBLIC "-//W3C//DTD SVG 1.0//EN" "http://www.w3.org/TR/2001/REC-SVG-20010904/DTD/svg10.dtd" []><svg xmlns="http://www.w3.org/2000/svg" xmlns:xlink="http://www.w3.org/1999/xlink" height="21" stroke="#000" stroke-linecap="square" stroke-miterlimit="10" viewBox="0 0 89.93 21.12" width="90"><defs><clipPath id="a"><path d="M0 0V21.12H89.93V0Z"/></clipPath><clipPath clip-path="url(#a)" id="b"><path d="M-390.94 210.91H569.18v-540H-390.94Z"/></clipPath></defs><g><g fill="#fff" stroke="none" stroke-linecap="butt"><path clip-path="url(#b)" d="M8.55 6.4H5V5h8.76V6.4H10.21v9.72H8.55Z"/><path clip-path="url(#b)" d="M15.49 5h1.65V9.58h5.54V5h1.65V16.12H22.68V10.98H17.14v5.14H15.49Z"/><path clip-path="url(#b)" d="M32.98 11.53C31.97 8.72 31.4 7.18 31.16 6.3h-.02c-.27.97-.9 2.82-1.72 5.23Zm-3.96 1.4l-1.13 3.19H26.25L30.17 5h2.04l4.09 11.12H34.56l-1.17-3.19Z"/><path clip-path="url(#b)" d="M38.14 16.12h1.65V5H38.14Z" fill-rule="evenodd"/><path clip-path="url(#b)" d="M42.91 5h1.65v9.72h5.75l-.22 1.4H42.91Z"/><path clip-path="url(#b)" d="M58.27 11.53C57.26 8.72 56.7 7.18 56.45 6.3h-.02c-.27.97-.9 2.82-1.72 5.23Zm-3.96 1.4l-1.13 3.19H51.54L55.46 5h2.04L61.6 16.12H59.85l-1.17-3.19Z"/><path clip-path="url(#b)" d="M63.44 16.12V5h2.15c1.56 2.58 4.85 7.91 5.46 9.12h.02c-.11-1.38-.1-3.16-.1-4.98V5H72.5V16.12H70.48c-1.42-2.37-4.89-8.17-5.56-9.42H64.9c.08 1.21.09 3.17.09 5.18v4.25Z"/><path clip-path="url(#b)" d="M77.27 14.74H79.5c2.52 0 3.71-1.82 3.71-4.27 0-2.12-1.09-4.09-3.71-4.09H77.27ZM75.61 5h4.06c3.15 0 5.26 2.13 5.26 5.44 0 3.28-2.06 5.68-5.32 5.68h-4Z"/></g></g></svg>