<?xml version="1.0" encoding="UTF-8"?><!DOCTYPE svg PUBLIC "-//W3C//DTD SVG 1.0//EN" "http://www.w3.org/TR/2001/REC-SVG-20010904/DTD/svg10.dtd" []><svg xmlns="http://www.w3.org/2000/svg" xmlns:xlink="http://www.w3.org/1999/xlink" height="137" stroke="#000" stroke-linecap="square" stroke-miterlimit="10" viewBox="0 0 492.5 136.61" width="493"><defs><clipPath id="a"><path d="M0 0V136.61H492.5V0Z"/></clipPath><clipPath clip-path="url(#a)" id="b"><path d="M-329.43 411.96H630.69v-540H-329.43Z"/></clipPath></defs><g><g fill="#fff" stroke="none"><path clip-path="url(#b)" d="M21.78 131.61H162.23V29.15H21.78Zm139.45-1H22.78V30.15H161.23Z"/><path clip-path="url(#b)" d="M34 88.04v-7.7h.85c1.16 1.85 3.89 6.15 4.35 6.99h.01c-.07-1.11-.05-2.24-.05-3.5V80.34h.58v7.7h-.79c-1.11-1.78-3.88-6.26-4.41-7.11h-.01c.05 1.01.04 2.13.04 3.53v3.58Z"/><path clip-path="url(#b)" d="M41.91 85.29c0 1.31.68 2.37 1.81 2.37 1.15 0 1.8-.98 1.8-2.37 0-1.3-.64-2.36-1.82-2.36-1.21 0-1.79 1.05-1.79 2.36m4.18-.01c0 1.53-.82 2.89-2.41 2.89-1.44 0-2.33-1.22-2.33-2.88 0-1.57.84-2.88 2.39-2.88 1.42 0 2.35 1.14 2.35 2.87"/><path clip-path="url(#b)" d="M50.39 79.93h.53v1.07h-.53Zm.53 2.61v5.89c0 1.48-.36 1.92-1.3 1.92-.02 0-.23-.01-.3-.02v-.52c.09.01.18.01.25.01.76 0 .82-.44.82-1.33V82.54Z"/><path clip-path="url(#b)" d="M56.76 86.43c0 .54.01 1.4.01 1.61h-.51c-.02-.14-.03-.51-.03-.96-.22.65-.77 1.09-1.71 1.09-.77 0-1.75-.31-1.75-1.99V82.54h.52v3.51c0 .8.24 1.58 1.3 1.58 1.19 0 1.64-.69 1.64-2.27V82.54h.53Z"/><path clip-path="url(#b)" d="M58.62 83.92c0-.48 0-.95-.01-1.39h.52c.02.18.03.89.02 1.05.23-.56.67-1.18 1.77-1.18.95 0 1.79.55 1.79 2.07v3.57h-.53V84.56c0-.98-.39-1.62-1.32-1.62-1.27 0-1.7 1.09-1.7 2.29v2.8h-.53Z"/><path clip-path="url(#b)" d="M64.56 82.54h.53v5.5h-.53Zm0-2.61h.53v1.07h-.53Z"/><path clip-path="url(#b)" d="M67.09 85.29c0 1.31.68 2.37 1.81 2.37 1.15 0 1.8-.98 1.8-2.37 0-1.3-.64-2.36-1.82-2.36-1.21 0-1.79 1.05-1.79 2.36m4.17-.01c0 1.53-.82 2.89-2.41 2.89-1.44 0-2.33-1.22-2.33-2.88 0-1.57.84-2.88 2.39-2.88 1.42 0 2.35 1.14 2.35 2.87"/><path clip-path="url(#b)" d="M72.69 84.03c0-.92-.01-1.32-.01-1.5h.52c.01.18.02.53.02 1.23.31-.82.99-1.32 1.85-1.36V83c-1.11.08-1.85.87-1.85 2.18v2.86h-.53Z"/><path clip-path="url(#b)" d="M79.12 88.04h.53V79.93h-.53Z" fill-rule="evenodd"/><path clip-path="url(#b)" d="M84.57 85.23H83.52c-1.18 0-1.92.32-1.92 1.26 0 .69.48 1.17 1.23 1.17 1.52 0 1.74-1.05 1.74-2.23Zm.52 1.76c0 .48.04.87.08 1.04h-.51c-.04-.13-.07-.37-.1-.85-.18.41-.65.98-1.75.98-1.23 0-1.77-.82-1.77-1.65 0-1.21.9-1.76 2.5-1.76h1.01V84.2c0-.55-.16-1.29-1.37-1.29-1.08 0-1.24.58-1.35 1.03h-.53c.07-.61.43-1.54 1.9-1.54 1.21 0 1.89.53 1.89 1.74Z"/><path clip-path="url(#b)" d="M86.76 82.54c1.08 3.15 1.55 4.45 1.73 5.04h.01c.21-.67.64-1.95 1.67-5.04h.55l-2 5.82c-.56 1.63-.95 1.99-1.91 1.99-.19 0-.32-.01-.49-.03v-.55c.16.02.31.03.48.03.77 0 1.01-.39 1.41-1.52l-2.04-5.74Z"/><path clip-path="url(#b)" d="M95.4 84.87c-.01-1.09-.59-1.95-1.63-1.95-1.1 0-1.6.79-1.71 1.95Zm-3.38.48c.01 1.42.7 2.3 1.73 2.3 1 0 1.34-.58 1.53-1.03h.54c-.22.73-.79 1.55-2.1 1.55-1.62 0-2.25-1.44-2.25-2.84 0-1.57.76-2.93 2.31-2.93 1.64 0 2.16 1.46 2.16 2.5 0 .15 0 .31-.01.45Z"/><path clip-path="url(#b)" d="M97.36 84.03c0-.92-.01-1.32-.01-1.5h.52c.01.18.02.53.02 1.23.31-.82.99-1.32 1.85-1.36V83c-1.11.08-1.85.87-1.85 2.18v2.86h-.53Z"/><path clip-path="url(#b)" d="M100.96 86.52c.18.71.67 1.14 1.51 1.14.95 0 1.33-.45 1.33-1.07 0-.63-.26-.93-1.45-1.23-1.37-.34-1.71-.77-1.71-1.5 0-.76.55-1.46 1.76-1.46s1.78.76 1.87 1.54h-.53c-.1-.46-.45-1.03-1.35-1.03-.93 0-1.19.47-1.19.91 0 .51.26.76 1.31 1.02 1.5.37 1.88.88 1.88 1.71 0 1-.79 1.62-1.91 1.62-1.21 0-1.9-.66-2.04-1.65Z"/><path clip-path="url(#b)" d="M108.44 85.49h7.84v-.54h-7.84Z" fill-rule="evenodd"/><path clip-path="url(#b)" d="M120.78 82.54c.79 2.84 1.25 4.47 1.33 4.95h.01c.08-.44.62-2.17 1.45-4.95h.58c.99 3.4 1.29 4.38 1.39 4.81h.01c.15-.61.39-1.43 1.37-4.81h.56l-1.68 5.5h-.59c-.57-1.95-1.27-4.33-1.37-4.84h-.01c-.11.54-.71 2.51-1.4 4.84h-.64l-1.57-5.5Z"/><path clip-path="url(#b)" d="M128.82 85.29c0 1.31.68 2.37 1.81 2.37 1.15 0 1.8-.98 1.8-2.37 0-1.3-.64-2.36-1.82-2.36-1.21 0-1.79 1.05-1.79 2.36m4.18-.01c0 1.53-.82 2.89-2.41 2.89-1.44 0-2.33-1.22-2.33-2.88 0-1.57.84-2.88 2.39-2.88 1.42 0 2.35 1.14 2.35 2.87"/><path clip-path="url(#b)" d="M134.43 84.03c0-.92-.01-1.32-.01-1.5h.52c.01.18.02.53.02 1.23.31-.82.99-1.32 1.85-1.36V83c-1.11.08-1.85.87-1.85 2.18v2.86h-.53Z"/><path clip-path="url(#b)" d="M138.52 85.37c.49-.54 1.98-2.1 2.7-2.84h.68l-2.11 2.19 2.38 3.31h-.66l-2.1-2.96-.89.88v2.08h-.53V79.93h.53Z"/><path clip-path="url(#b)" d="M33.97 98.53c0 1.51.76 2.32 1.67 2.32 1.4 0 1.79-1 1.79-2.5 0-1.42-.33-2.23-1.69-2.23-1.05 0-1.77.87-1.77 2.41m3.97-5.4v6.52c0 .53 0 1.03.01 1.59h-.51c-.02-.13-.03-.65-.03-.93-.27.67-.86 1.06-1.79 1.06-1.38 0-2.21-1.17-2.21-2.82 0-1.69.91-2.95 2.35-2.95 1.07 0 1.49.47 1.65.82v-3.3Z"/><path clip-path="url(#b)" d="M39.8 95.74h.53v5.5H39.8Zm0-2.61h.53V94.2H39.8Z"/><path clip-path="url(#b)" d="M42.18 97.23c0-.92-.01-1.32-.01-1.5h.52c.01.18.02.53.02 1.23.31-.83.99-1.32 1.85-1.36v.59c-1.11.08-1.85.87-1.85 2.18v2.86h-.53Z"/><path clip-path="url(#b)" d="M49.15 98.07c-.01-1.09-.59-1.95-1.63-1.95-1.1 0-1.6.79-1.72 1.95Zm-3.38.48c.01 1.42.7 2.3 1.73 2.3 1 0 1.34-.58 1.53-1.03h.54c-.22.73-.79 1.55-2.1 1.55-1.62 0-2.25-1.44-2.25-2.84 0-1.57.76-2.93 2.31-2.93 1.64 0 2.16 1.46 2.16 2.5 0 .15 0 .31-.01.45Z"/><path clip-path="url(#b)" d="M55.08 99.62c-.26.97-.87 1.75-2.07 1.75-1.33 0-2.28-1.02-2.28-2.86 0-1.51.78-2.9 2.34-2.9 1.35 0 1.91.99 2 1.76h-.54c-.16-.64-.56-1.24-1.47-1.24-1.13 0-1.77.99-1.77 2.37 0 1.31.6 2.36 1.71 2.36.78 0 1.25-.41 1.52-1.23Z"/><path clip-path="url(#b)" d="M55.75 95.74h.99V94.02h.53v1.72h1.27v.52H57.27v3.58c0 .62.13.97.64.97.16 0 .38-.01.55-.07v.48c-.18.08-.44.1-.66.1-.68 0-1.07-.35-1.07-1.23V96.25h-.99Z"/><path clip-path="url(#b)" d="M59.7 101.24h.53V93.13H59.7Z" fill-rule="evenodd"/><path clip-path="url(#b)" d="M62.06 95.74c1.08 3.15 1.55 4.45 1.73 5.04h.01c.21-.67.64-1.95 1.67-5.04h.56l-2 5.82c-.57 1.63-.95 1.99-1.91 1.99-.19 0-.32-.01-.49-.03v-.55c.16.02.31.03.48.03.77 0 1.01-.38 1.41-1.52l-2.04-5.74Z"/><path clip-path="url(#b)" d="M70.04 95.74c.79 2.84 1.25 4.47 1.33 4.95h.01c.09-.44.62-2.17 1.45-4.95h.57c.99 3.4 1.29 4.38 1.38 4.81h.01c.15-.6.39-1.43 1.37-4.81h.56l-1.68 5.5h-.59c-.58-1.95-1.27-4.34-1.37-4.84h-.01c-.11.54-.71 2.51-1.41 4.84h-.64l-1.57-5.5Z"/><path clip-path="url(#b)" d="M77.97 95.74h.53v5.5h-.53Zm0-2.61h.53V94.2h-.53Z"/><path clip-path="url(#b)" d="M79.63 95.74h.99V94.02h.53v1.72h1.27v.52H81.16v3.58c0 .62.13.97.64.97.16 0 .38-.01.55-.07v.48c-.18.08-.44.1-.66.1-.68 0-1.07-.35-1.07-1.23V96.25h-.99Z"/><path clip-path="url(#b)" d="M84.12 93.13v3.53c.3-.57.82-1.06 1.76-1.06.76 0 1.8.4 1.8 2.13v3.5h-.53V97.85c0-1.09-.48-1.71-1.36-1.71-1.06 0-1.66.67-1.66 2.02v3.07h-.53V93.13Z"/><path clip-path="url(#b)" d="M95.9 98.07c-.01-1.09-.59-1.95-1.63-1.95-1.1 0-1.6.79-1.71 1.95Zm-3.38.48c.01 1.42.7 2.3 1.73 2.3 1 0 1.34-.58 1.53-1.03h.54c-.22.73-.79 1.55-2.1 1.55-1.62 0-2.25-1.44-2.25-2.84 0-1.57.76-2.93 2.31-2.93 1.64 0 2.16 1.46 2.16 2.5 0 .15 0 .31-.01.45Z"/><path clip-path="url(#b)" d="M97.83 95.74c.88 1.35 1.27 1.96 1.48 2.29h.01c.26-.38.79-1.17 1.55-2.29h.61L99.63 98.4l1.88 2.84h-.64c-.77-1.18-1.32-2.01-1.58-2.4h-.01c-.2.32-.68 1.07-1.56 2.4h-.62L99 98.44l-1.8-2.71Z"/><path clip-path="url(#b)" d="M106.53 98.36c0-1.28-.6-2.23-1.65-2.23-1.29 0-1.82.84-1.82 2.33 0 1.47.42 2.39 1.75 2.39 1.11 0 1.73-.97 1.73-2.49m-3.44 2.06v3.01h-.53V97.09c0-.45 0-.93-.01-1.35h.52c.02.21.02.54.02.99.33-.66.92-1.12 1.87-1.12 1.26 0 2.13 1.09 2.13 2.74 0 1.98-1.02 3.02-2.31 3.02-.94 0-1.43-.43-1.69-.94"/><path clip-path="url(#b)" d="M112.09 98.07c-.01-1.09-.59-1.95-1.63-1.95-1.1 0-1.6.79-1.71 1.95Zm-3.38.48c.01 1.42.7 2.3 1.73 2.3 1 0 1.34-.58 1.53-1.03h.54c-.22.73-.79 1.55-2.1 1.55-1.62 0-2.25-1.44-2.25-2.84 0-1.57.76-2.93 2.31-2.93 1.64 0 2.16 1.46 2.16 2.5 0 .15 0 .31-.01.45Z"/><path clip-path="url(#b)" d="M114.05 97.23c0-.92-.01-1.32-.01-1.5h.52c.01.18.02.53.02 1.23.31-.83.99-1.32 1.85-1.36v.59c-1.11.08-1.85.87-1.85 2.18v2.86h-.53Z"/><path clip-path="url(#b)" d="M117.52 95.74h.53v5.5h-.53Zm0-2.61h.53V94.2h-.53Z"/><path clip-path="url(#b)" d="M123.4 98.07c-.01-1.09-.59-1.95-1.63-1.95-1.1 0-1.6.79-1.71 1.95Zm-3.38.48c.01 1.42.7 2.3 1.73 2.3 1 0 1.34-.58 1.53-1.03h.54c-.22.73-.79 1.55-2.1 1.55-1.62 0-2.25-1.44-2.25-2.84 0-1.57.76-2.93 2.31-2.93 1.64 0 2.16 1.46 2.16 2.5 0 .15 0 .31-.01.45Z"/><path clip-path="url(#b)" d="M125.36 97.12c0-.48 0-.95-.01-1.39h.52c.02.18.03.89.02 1.04.23-.56.67-1.18 1.77-1.18.95 0 1.79.55 1.79 2.07v3.57h-.53V97.76c0-.98-.39-1.62-1.32-1.62-1.27 0-1.7 1.09-1.7 2.29v2.81h-.53Z"/><path clip-path="url(#b)" d="M135.23 99.62c-.26.97-.87 1.75-2.07 1.75-1.33 0-2.28-1.02-2.28-2.86 0-1.51.78-2.9 2.34-2.9 1.35 0 1.91.99 2 1.76h-.54c-.16-.64-.56-1.24-1.47-1.24-1.13 0-1.77.99-1.77 2.37 0 1.31.6 2.36 1.71 2.36.78 0 1.25-.41 1.52-1.23Z"/><path clip-path="url(#b)" d="M140.12 98.07c-.01-1.09-.59-1.95-1.63-1.95-1.1 0-1.6.79-1.72 1.95Zm-3.38.48c.01 1.42.7 2.3 1.72 2.3 1 0 1.34-.58 1.53-1.03h.54c-.22.73-.79 1.55-2.1 1.55-1.62 0-2.25-1.44-2.25-2.84 0-1.57.76-2.93 2.31-2.93 1.64 0 2.16 1.46 2.16 2.5 0 .15 0 .31-.01.45Z"/><path clip-path="url(#b)" d="M142.27 98.53c0 1.51.76 2.32 1.67 2.32 1.4 0 1.79-1 1.79-2.5 0-1.42-.33-2.23-1.69-2.23-1.05 0-1.77.87-1.77 2.41m3.97-5.4v6.52c0 .53 0 1.03.01 1.59h-.51c-.02-.13-.03-.65-.03-.93-.27.67-.86 1.06-1.79 1.06-1.38 0-2.21-1.17-2.21-2.82 0-1.69.9-2.95 2.35-2.95 1.06 0 1.49.47 1.65.82v-3.3Z"/><path clip-path="url(#b)" d="M37.8 111.57c0-1.28-.6-2.23-1.65-2.23-1.29 0-1.82.84-1.82 2.33 0 1.47.41 2.39 1.75 2.39 1.11 0 1.73-.97 1.73-2.49m-3.44 2.06v3.01h-.53v-6.35c0-.45 0-.93-.01-1.35h.52c.02.21.02.54.02.99.33-.66.92-1.12 1.88-1.12 1.26 0 2.13 1.09 2.13 2.74 0 1.98-1.02 3.02-2.31 3.02-.94 0-1.43-.43-1.69-.95"/><path clip-path="url(#b)" d="M39.81 110.43c0-.92-.01-1.32-.01-1.5h.52c.01.18.02.53.02 1.23.31-.83.99-1.32 1.85-1.36v.59c-1.11.08-1.85.87-1.85 2.18v2.86h-.53Z"/><path clip-path="url(#b)" d="M43.42 111.69c0 1.31.68 2.37 1.81 2.37 1.15 0 1.8-.98 1.8-2.37 0-1.3-.64-2.36-1.82-2.36-1.21 0-1.79 1.05-1.79 2.36m4.18-.01c0 1.53-.82 2.89-2.41 2.89-1.44 0-2.33-1.22-2.33-2.88 0-1.57.84-2.88 2.38-2.88 1.42 0 2.36 1.14 2.36 2.87"/><path clip-path="url(#b)" d="M49.24 114.44v-4.98h-.92v-.52h.92v-.78c0-.92.26-1.94 1.45-1.94.16 0 .39.03.52.08v.53c-.16-.04-.42-.07-.57-.07-.63 0-.86.46-.86 1.42v.76h1.16v.52H49.78v4.98Z"/><path clip-path="url(#b)" d="M55.38 111.27c-.01-1.09-.59-1.95-1.63-1.95-1.1 0-1.6.79-1.72 1.95Zm-3.38.48c.01 1.42.7 2.3 1.73 2.3 1 0 1.34-.58 1.53-1.03h.54c-.22.73-.79 1.55-2.1 1.55-1.62 0-2.25-1.44-2.25-2.84 0-1.57.76-2.93 2.31-2.93 1.64 0 2.16 1.46 2.16 2.5 0 .15 0 .31-.01.45Z"/><path clip-path="url(#b)" d="M57.47 112.92c.18.72.67 1.14 1.51 1.14.95 0 1.33-.45 1.33-1.07s-.26-.93-1.45-1.23c-1.38-.34-1.71-.77-1.71-1.5 0-.76.55-1.46 1.76-1.46s1.78.76 1.86 1.54h-.53c-.1-.46-.45-1.03-1.35-1.03-.93 0-1.19.47-1.19.91 0 .51.25.76 1.31 1.02 1.5.37 1.87.88 1.87 1.71 0 1-.79 1.62-1.91 1.62-1.21 0-1.9-.66-2.05-1.65Z"/><path clip-path="url(#b)" d="M62.43 112.92c.18.72.67 1.14 1.51 1.14.95 0 1.33-.45 1.33-1.07s-.26-.93-1.45-1.23c-1.38-.34-1.71-.77-1.71-1.5 0-.76.55-1.46 1.76-1.46s1.78.76 1.86 1.54H65.2c-.1-.46-.45-1.03-1.35-1.03-.93 0-1.19.47-1.19.91 0 .51.26.76 1.31 1.02 1.5.37 1.87.88 1.87 1.71 0 1-.79 1.62-1.91 1.62-1.21 0-1.89-.66-2.04-1.65Z"/><path clip-path="url(#b)" d="M67.27 108.94h.53v5.5h-.53Zm0-2.61h.53v1.07h-.53Z"/><path clip-path="url(#b)" d="M69.79 111.69c0 1.31.68 2.37 1.81 2.37 1.15 0 1.8-.98 1.8-2.37 0-1.3-.64-2.36-1.82-2.36-1.21 0-1.79 1.05-1.79 2.36m4.17-.01c0 1.53-.82 2.89-2.41 2.89-1.44 0-2.33-1.22-2.33-2.88 0-1.57.84-2.88 2.38-2.88 1.42 0 2.35 1.14 2.35 2.87"/><path clip-path="url(#b)" d="M75.39 110.32c0-.48 0-.95-.01-1.39h.52c.02.18.03.89.02 1.05.23-.56.67-1.18 1.77-1.18.95 0 1.79.55 1.79 2.07v3.57h-.53v-3.48c0-.98-.4-1.62-1.32-1.62-1.27 0-1.7 1.09-1.7 2.29v2.8h-.53Z"/><path clip-path="url(#b)" d="M84.41 111.63H83.36c-1.18 0-1.92.32-1.92 1.27 0 .69.48 1.17 1.23 1.17 1.52 0 1.73-1.04 1.73-2.23Zm.52 1.76c0 .48.04.87.08 1.04h-.51c-.04-.13-.07-.37-.1-.85-.18.41-.65.98-1.75.98-1.24 0-1.77-.83-1.77-1.65 0-1.21.9-1.76 2.5-1.76h1.01v-.56c0-.55-.16-1.29-1.37-1.29-1.08 0-1.24.58-1.35 1.03h-.53c.06-.61.43-1.54 1.9-1.54 1.21 0 1.9.53 1.9 1.74Z"/><path clip-path="url(#b)" d="M86.79 114.44h.53v-8.11h-.53Z" fill-rule="evenodd"/><path clip-path="url(#b)" d="M89.13 112.92c.18.72.67 1.14 1.51 1.14.95 0 1.33-.45 1.33-1.07s-.26-.93-1.45-1.23c-1.37-.34-1.71-.77-1.71-1.5 0-.76.55-1.46 1.76-1.46s1.78.76 1.86 1.54H91.9c-.1-.46-.45-1.03-1.35-1.03-.93 0-1.19.47-1.19.91 0 .51.25.76 1.31 1.02 1.5.37 1.88.88 1.88 1.71 0 1-.79 1.62-1.91 1.62-1.21 0-1.9-.66-2.05-1.65Z"/><path clip-path="url(#b)" d="M93.87 114.44h.53v-1.42h-.53Z" fill-rule="evenodd"/><path clip-path="url(#b)" d="M34.97 54.93h1.14c1.59 0 2.59-1.16 2.59-3.09 0-1.34-.63-2.01-1.75-2.01h-.94Zm-.2-6.34h2.37c1.92 0 3.15 1.19 3.15 3.22 0 2.45-1.53 4.36-4.22 4.36H33.21Z" fill="#FF00A4"/><path clip-path="url(#b)" d="M42.46 48.14h1.45l-.29 1.41H42.17Zm-.48 2.34h1.45l-1.17 5.7H40.82Z" fill="#FF00A4"/><path clip-path="url(#b)" d="M44.57 52.16c.12-.56.23-1.16.32-1.69h1.4c-.01.14-.06.57-.16 1.03.38-.68.88-1.14 1.84-1.14l-.3 1.5c-1.01.01-1.71.58-1.97 1.83l-.51 2.47H43.75Z" fill="#FF00A4"/><path clip-path="url(#b)" d="M51.9 52.66c.02-.11.02-.19.02-.25 0-.5-.21-.92-.85-.92-.66 0-1.07.44-1.26 1.17Zm-2.28 1c-.02.12-.04.22-.04.34 0 .6.22 1.12.87 1.12.59 0 .85-.33 1.03-.69H53c-.31.84-1.01 1.85-2.66 1.85-1.48 0-2.21-.96-2.21-2.34 0-1.5.8-3.58 2.99-3.58 1.62 0 2.19 1.02 2.19 2.19 0 .46-.06.79-.15 1.11Z" fill="#FF00A4"/><path clip-path="url(#b)" d="M58.88 54.31c-.3 1.08-1.04 1.97-2.67 1.97-1.39 0-2.13-.85-2.13-2.21 0-1.66.92-3.71 2.96-3.71 1.79 0 2.24 1.3 2.16 2.03H57.79c-.01-.44-.15-.88-.8-.88-1.02 0-1.42 1.59-1.42 2.49 0 .8.31 1.15.82 1.15.49 0 .82-.28 1.04-.84Z" fill="#FF00A4"/><path clip-path="url(#b)" d="M60.16 50.48h.82l.32-1.54h1.44l-.31 1.54h1.04l-.25 1.14H62.18l-.58 2.87c-.07.35-.04.59.39.59.17 0 .31-.01.47-.04l-.22 1.08c-.32.11-.68.11-.98.11-1.15 0-1.33-.68-1.13-1.68l.59-2.93h-.82Z" fill="#FF00A4"/><path clip-path="url(#b)" d="M70.46 53.1c-.17-1.56-.28-2.64-.31-3.33h-.01c-.34.76-.93 1.98-1.61 3.33Zm-2.53 1.27l-.91 1.8H65.45l3.95-7.58h1.9l.95 7.58H70.75l-.23-1.8Z" fill="#FF00A4"/><path clip-path="url(#b)" d="M78.09 54.31c-.3 1.08-1.04 1.97-2.68 1.97-1.39 0-2.13-.85-2.13-2.21 0-1.66.92-3.71 2.96-3.71 1.79 0 2.24 1.3 2.16 2.03H77c-.01-.44-.15-.88-.8-.88-1.02 0-1.42 1.59-1.42 2.49 0 .8.31 1.15.82 1.15.49 0 .82-.28 1.04-.84Z" fill="#FF00A4"/><path clip-path="url(#b)" d="M83.87 54.31c-.3 1.08-1.04 1.97-2.68 1.97-1.39 0-2.13-.85-2.13-2.21 0-1.66.92-3.71 2.96-3.71 1.79 0 2.24 1.3 2.16 2.03H82.78c-.01-.44-.15-.88-.8-.88-1.02 0-1.42 1.59-1.42 2.49 0 .8.31 1.15.83 1.15.49 0 .82-.28 1.04-.84Z" fill="#FF00A4"/><path clip-path="url(#b)" d="M88.62 52.66c.02-.11.02-.19.02-.25 0-.5-.21-.92-.85-.92-.66 0-1.07.44-1.26 1.17Zm-2.28 1c-.02.12-.04.22-.04.34 0 .6.22 1.12.87 1.12.59 0 .85-.33 1.03-.69h1.51c-.31.84-1.01 1.85-2.66 1.85-1.48 0-2.21-.96-2.21-2.34 0-1.5.8-3.58 2.99-3.58 1.62 0 2.19 1.02 2.19 2.19 0 .46-.06.79-.15 1.11Z" fill="#FF00A4"/><path clip-path="url(#b)" d="M92.03 54.41c.04.49.35.76.95.76.57 0 .8-.27.8-.64 0-.36-.29-.55-.98-.77-1.29-.41-1.69-.87-1.69-1.58 0-1.03.78-1.81 2.24-1.81 1.54 0 2.22.8 2.18 1.71H94.07c-.02-.31-.17-.61-.79-.61-.36 0-.72.12-.72.52 0 .31.29.42.97.64 1.29.42 1.74.94 1.74 1.73 0 1.31-1.14 1.91-2.45 1.91-1.47 0-2.32-.68-2.26-1.87Z" fill="#FF00A4"/><path clip-path="url(#b)" d="M97.47 54.41c.04.49.35.76.95.76.57 0 .79-.27.79-.64 0-.36-.29-.55-.98-.77-1.29-.41-1.69-.87-1.69-1.58 0-1.03.78-1.81 2.24-1.81 1.54 0 2.22.8 2.18 1.71H99.51c-.02-.31-.17-.61-.79-.61-.36 0-.72.12-.72.52 0 .31.29.42.97.64 1.29.42 1.74.94 1.74 1.73 0 1.31-1.14 1.91-2.45 1.91-1.47 0-2.32-.68-2.26-1.87Z" fill="#FF00A4"/><path clip-path="url(#b)" d="M104.78 50.48h.82l.32-1.54h1.44l-.31 1.54h1.04l-.25 1.14H106.8l-.58 2.87c-.07.35-.04.59.39.59.17 0 .31-.01.47-.04l-.22 1.08c-.32.11-.68.11-.98.11-1.15 0-1.33-.68-1.13-1.68l.59-2.93h-.82Z" fill="#FF00A4"/><path clip-path="url(#b)" d="M109.67 53.94c0 .79.32 1.18.89 1.18 1.04 0 1.45-1.49 1.45-2.46 0-.74-.3-1.13-.9-1.13-1 0-1.43 1.48-1.43 2.41m3.83-1.13c0 1.34-.76 3.47-3.09 3.47-1.53 0-2.24-.96-2.24-2.35 0-1.53.94-3.56 3.05-3.56 1.32 0 2.29.77 2.29 2.44" fill="#FF00A4"/><path clip-path="url(#b)" d="M34.64 67.04c.06.77.53 1.25 1.46 1.25.8 0 1.25-.3 1.25-.99 0-.59-.35-.9-1.33-1.25-1.5-.53-2.05-1.15-2.05-2.1 0-1.22.84-2.27 2.7-2.27 1.7 0 2.63.91 2.66 2.24H37.8c-.03-.46-.23-1.03-1.2-1.03-.62 0-1.08.29-1.08.88 0 .42.23.69 1.18 1.03 1.49.54 2.23 1.15 2.23 2.3 0 1.21-.71 2.38-2.97 2.38-1.83 0-2.8-.96-2.84-2.44Z" fill="#FF00A4"/><path clip-path="url(#b)" d="M43.69 65.86c.02-.11.02-.19.02-.25 0-.5-.21-.92-.85-.92-.66 0-1.07.44-1.26 1.17Zm-2.28 1c-.02.12-.04.22-.04.34 0 .6.22 1.12.87 1.12.59 0 .85-.33 1.03-.69h1.51c-.31.84-1.01 1.84-2.66 1.84-1.48 0-2.21-.96-2.21-2.34 0-1.5.8-3.58 2.99-3.58 1.62 0 2.19 1.02 2.19 2.19 0 .46-.06.79-.15 1.11Z" fill="#FF00A4"/><path clip-path="url(#b)" d="M46.54 65.12c.1-.48.2-.96.27-1.44h1.42c-.01.16-.07.57-.11.71.26-.35.74-.83 1.66-.83 1.08 0 1.71.68 1.36 2.36l-.7 3.44H49l.7-3.46c.14-.64 0-1.1-.62-1.1-.71 0-1.15.55-1.37 1.61l-.6 2.95H45.67Z" fill="#FF00A4"/><path clip-path="url(#b)" d="M53.57 61.34h1.45l-.29 1.41H53.28Zm-.48 2.34h1.45l-1.17 5.7H51.93Z" fill="#FF00A4"/><path clip-path="url(#b)" d="M56.6 67.14c0 .79.32 1.18.88 1.18 1.04 0 1.45-1.49 1.45-2.46 0-.74-.3-1.13-.9-1.13-1 0-1.43 1.48-1.43 2.41m3.83-1.13c0 1.34-.76 3.47-3.09 3.47-1.53 0-2.24-.96-2.24-2.35 0-1.53.94-3.56 3.05-3.56 1.32 0 2.29.77 2.29 2.44" fill="#FF00A4"/><path clip-path="url(#b)" d="M61.83 65.36c.12-.56.22-1.16.32-1.69h1.4c-.01.14-.06.57-.16 1.03.38-.68.88-1.14 1.83-1.14l-.3 1.5c-1.01.01-1.71.58-1.97 1.83l-.51 2.47H61Z" fill="#FF00A4"/><path clip-path="url(#b)" d="M69.45 67.04c.06.77.53 1.25 1.46 1.25.8 0 1.25-.3 1.25-.99 0-.59-.36-.9-1.33-1.25-1.49-.53-2.05-1.15-2.05-2.1 0-1.22.84-2.27 2.7-2.27 1.7 0 2.63.91 2.66 2.24H72.61c-.03-.46-.23-1.03-1.2-1.03-.62 0-1.08.29-1.08.88 0 .42.23.69 1.18 1.03 1.49.54 2.23 1.15 2.23 2.3 0 1.21-.71 2.38-2.97 2.38-1.83 0-2.8-.96-2.84-2.44Z" fill="#FF00A4"/><path clip-path="url(#b)" d="M75.04 63.68h.82l.32-1.54h1.44l-.31 1.54h1.04l-.25 1.14H77.06l-.58 2.87c-.07.35-.04.59.39.59.17 0 .31-.01.47-.04l-.22 1.08c-.32.11-.68.11-.98.11-1.15 0-1.33-.68-1.13-1.67l.59-2.93H74.8Z" fill="#FF00A4"/><path clip-path="url(#b)" d="M79.11 65.36c.12-.56.22-1.16.32-1.69h1.4c-.01.14-.06.57-.16 1.03.38-.68.88-1.14 1.84-1.14l-.3 1.5c-1.01.01-1.71.58-1.97 1.83l-.51 2.47H78.28Z" fill="#FF00A4"/><path clip-path="url(#b)" d="M85.88 66.81c-.36 0-.67.03-.95.07-.81.12-1.13.4-1.13.88 0 .33.21.58.67.58 1 0 1.25-.84 1.39-1.44Zm1.2 1.16c-.12.59-.24 1.23-.25 1.4H85.43c.01-.16.05-.46.08-.64-.27.36-.64.75-1.67.75-1.09 0-1.54-.79-1.54-1.46 0-1.58 1.34-2.01 2.56-2.14.46-.05.89-.05 1.23-.06l.05-.27c.08-.41.08-.95-.7-.95-.69 0-.82.39-.94.66H83.02c.21-.91.82-1.7 2.54-1.7 1.34 0 2.33.57 2.02 2.07Z" fill="#FF00A4"/><path clip-path="url(#b)" d="M88.77 63.68h.82l.32-1.54h1.44l-.31 1.54h1.04l-.25 1.14H90.79l-.58 2.87c-.07.35-.04.59.39.59.17 0 .31-.01.47-.04l-.22 1.08c-.32.11-.68.11-.98.11-1.15 0-1.33-.68-1.13-1.67l.59-2.93h-.82Z" fill="#FF00A4"/><path clip-path="url(#b)" d="M95.93 65.86c.02-.11.02-.19.02-.25 0-.5-.21-.92-.85-.92-.66 0-1.07.44-1.26 1.17Zm-2.28 1c-.02.12-.04.22-.04.34 0 .6.22 1.12.87 1.12.59 0 .85-.33 1.03-.69h1.51c-.31.84-1.01 1.84-2.66 1.84-1.48 0-2.21-.96-2.21-2.34 0-1.5.8-3.58 2.99-3.58 1.62 0 2.19 1.02 2.19 2.19 0 .46-.06.79-.15 1.11Z" fill="#FF00A4"/><path clip-path="url(#b)" d="M99.72 66.98c0 .7.29 1.11.9 1.11.77 0 1.24-.67 1.46-1.71.16-.77.12-1.61-.86-1.61-1.01 0-1.5 1.2-1.5 2.21M103 68.54c-.38 1.84-.87 3.12-3.02 3.12-2.07 0-2.25-1.14-2.26-1.81h1.47c.02.34.24.69.9.69.84 0 1.16-.53 1.43-1.74l.04-.17c-.36.47-.83.68-1.54.68-1.19 0-1.83-.9-1.83-2.21 0-1.68 1.05-3.53 2.8-3.53.85 0 1.31.33 1.46.68.05-.17.15-.45.19-.57h1.39c-.1.42-.21.94-.31 1.42Z" fill="#FF00A4"/><path clip-path="url(#b)" d="M105.97 61.34h1.45l-.29 1.41h-1.45Zm-.48 2.34h1.45l-1.17 5.7h-1.45Z" fill="#FF00A4"/><path clip-path="url(#b)" d="M108.74 67.61c.04.49.35.76.95.76.57 0 .79-.27.79-.64 0-.36-.29-.54-.98-.77-1.29-.41-1.69-.87-1.69-1.58 0-1.03.78-1.82 2.24-1.82 1.54 0 2.22.81 2.18 1.71h-1.47c-.02-.31-.17-.61-.79-.61-.36 0-.72.12-.72.52 0 .3.29.42.97.64 1.29.42 1.73.94 1.73 1.73 0 1.31-1.14 1.91-2.45 1.91-1.47 0-2.32-.68-2.26-1.87Z" fill="#FF00A4"/><path clip-path="url(#b)" d="M113.14 63.68h.82l.32-1.54h1.44l-.31 1.54h1.04l-.25 1.14h-1.04l-.58 2.87c-.07.35-.04.59.39.59.17 0 .31-.01.47-.04l-.22 1.08c-.32.11-.68.11-.98.11-1.15 0-1.33-.68-1.13-1.67l.59-2.93h-.82Z" fill="#FF00A4"/><path clip-path="url(#b)" d="M117.88 67.61c.04.49.35.76.95.76.57 0 .79-.27.79-.64 0-.36-.29-.54-.98-.77-1.29-.41-1.69-.87-1.69-1.58 0-1.03.78-1.82 2.24-1.82 1.53 0 2.22.81 2.18 1.71h-1.47c-.02-.31-.17-.61-.79-.61-.36 0-.72.12-.72.52 0 .3.29.42.97.64 1.29.42 1.74.94 1.74 1.73 0 1.31-1.14 1.91-2.45 1.91-1.47 0-2.32-.68-2.26-1.87Z" fill="#FF00A4"/><path clip-path="url(#b)" d="M184.42 131.61H324.87V29.15H184.42Zm139.45-1H185.42V30.15H323.87Z"/><path clip-path="url(#b)" d="M196.69 85.97c.22 1.02.88 1.63 2.11 1.63 1.36 0 1.89-.7 1.89-1.54 0-.87-.37-1.41-2.01-1.83-1.58-.41-2.26-.93-2.26-2.05 0-1.01.71-1.96 2.31-1.96 1.64 0 2.33 1.04 2.43 1.97h-.6c-.17-.83-.69-1.42-1.86-1.42-1.08 0-1.66.52-1.66 1.38 0 .85.49 1.18 1.86 1.53 2.1.54 2.41 1.41 2.41 2.33 0 1.13-.8 2.11-2.52 2.11-1.86 0-2.54-1.12-2.68-2.16Z"/><path clip-path="url(#b)" d="M206.36 84.87c-.01-1.09-.59-1.95-1.63-1.95-1.1 0-1.6.79-1.72 1.95Zm-3.38.48c.01 1.42.7 2.3 1.73 2.3 1 0 1.34-.58 1.53-1.03h.54c-.22.73-.79 1.55-2.1 1.55-1.62 0-2.25-1.44-2.25-2.84 0-1.57.76-2.93 2.31-2.93 1.64 0 2.16 1.46 2.16 2.5 0 .15 0 .31-.01.45Z"/><path clip-path="url(#b)" d="M211.45 85.23h-1.04c-1.18 0-1.92.32-1.92 1.26 0 .69.48 1.17 1.22 1.17 1.52 0 1.73-1.05 1.73-2.23Zm.52 1.76c0 .48.04.87.07 1.04h-.51c-.04-.13-.07-.37-.1-.85-.18.41-.65.98-1.75.98-1.23 0-1.77-.82-1.77-1.65 0-1.21.91-1.76 2.5-1.76h1.01V84.2c0-.55-.16-1.29-1.37-1.29-1.08 0-1.23.58-1.35 1.03h-.53c.06-.61.43-1.54 1.9-1.54 1.21 0 1.9.53 1.9 1.74Z"/><path clip-path="url(#b)" d="M213.84 83.95c0-.47 0-.99-.01-1.42h.52c.01.19.03.66.02.98.22-.55.71-1.11 1.6-1.11.75 0 1.33.39 1.54 1.09.27-.57.8-1.09 1.74-1.09.82 0 1.67.48 1.67 2.01v3.62h-.53V84.48c0-.74-.26-1.54-1.25-1.54-1.03 0-1.5.86-1.5 1.92v3.17h-.52V84.49c0-.8-.23-1.55-1.21-1.55-1.03 0-1.53.95-1.53 2.07v3.03h-.53Z"/><path clip-path="url(#b)" d="M222.78 88.04h.53V79.93h-.53Z" fill-rule="evenodd"/><path clip-path="url(#b)" d="M228.65 84.87c-.01-1.09-.59-1.95-1.63-1.95-1.1 0-1.6.79-1.72 1.95Zm-3.38.48c.01 1.42.7 2.3 1.73 2.3 1 0 1.34-.58 1.53-1.03h.54c-.22.73-.79 1.55-2.1 1.55-1.62 0-2.25-1.44-2.25-2.84 0-1.57.76-2.93 2.31-2.93 1.64 0 2.16 1.46 2.16 2.5 0 .15 0 .31-.01.45Z"/><path clip-path="url(#b)" d="M230.74 86.52c.18.71.67 1.14 1.51 1.14.95 0 1.33-.45 1.33-1.07 0-.63-.26-.93-1.45-1.23-1.37-.34-1.71-.77-1.71-1.5 0-.76.55-1.46 1.76-1.46s1.78.76 1.87 1.54h-.53c-.1-.46-.45-1.03-1.35-1.03-.93 0-1.19.47-1.19.91 0 .51.26.76 1.31 1.02 1.5.37 1.87.88 1.87 1.71 0 1-.79 1.62-1.91 1.62-1.21 0-1.9-.66-2.04-1.65Z"/><path clip-path="url(#b)" d="M235.71 86.52c.18.71.67 1.14 1.51 1.14.95 0 1.33-.45 1.33-1.07 0-.63-.26-.93-1.45-1.23-1.37-.34-1.71-.77-1.71-1.5 0-.76.55-1.46 1.76-1.46s1.78.76 1.86 1.54h-.53c-.1-.46-.45-1.03-1.35-1.03-.93 0-1.19.47-1.19.91 0 .51.26.76 1.31 1.02 1.5.37 1.88.88 1.88 1.71 0 1-.79 1.62-1.91 1.62-1.21 0-1.9-.66-2.04-1.65Z"/><path clip-path="url(#b)" d="M243.42 82.54h.53v5.5h-.53Zm0-2.61h.53v1.07h-.53Z"/><path clip-path="url(#b)" d="M245.8 83.92c0-.48 0-.95-.01-1.39h.52c.02.18.03.89.02 1.05.23-.56.67-1.18 1.77-1.18.95 0 1.79.55 1.79 2.07v3.57h-.53V84.56c0-.98-.4-1.62-1.32-1.62-1.27 0-1.7 1.09-1.7 2.29v2.8h-.53Z"/><path clip-path="url(#b)" d="M250.92 82.54h.99V80.82h.53v1.72h1.27v.52h-1.27v3.58c0 .62.13.97.64.97.16 0 .38-.01.55-.07v.48c-.18.08-.44.1-.66.1-.68 0-1.07-.35-1.07-1.23V83.05h-.99Z"/><path clip-path="url(#b)" d="M258.33 84.87c-.01-1.09-.59-1.95-1.63-1.95-1.1 0-1.6.79-1.72 1.95Zm-3.38.48c.01 1.42.7 2.3 1.73 2.3 1 0 1.34-.58 1.53-1.03h.54c-.22.73-.79 1.55-2.1 1.55-1.62 0-2.25-1.44-2.25-2.84 0-1.57.76-2.93 2.31-2.93 1.64 0 2.16 1.46 2.16 2.5 0 .15 0 .31-.01.45Z"/><path clip-path="url(#b)" d="M260.55 85.26c0 1.31.67 2.26 1.69 2.26 1.33 0 1.74-.91 1.74-2.34 0-1.45-.43-2.26-1.7-2.26-1.23 0-1.73 1.09-1.73 2.34m3.93 2.4c0 1.76-.76 2.68-2.3 2.68-1.38 0-1.96-.8-2.09-1.64h.54c.19.76.8 1.12 1.57 1.12 1.39 0 1.77-.92 1.77-2.32v-.57c-.29.72-.81 1.1-1.78 1.1-1.25 0-2.2-1.04-2.2-2.75 0-1.85 1.02-2.88 2.28-2.88 1.09 0 1.55.53 1.7.97.01-.32.02-.7.03-.84h.5c0 .2-.02 1.07-.02 1.6Z"/><path clip-path="url(#b)" d="M266.33 84.03c0-.92-.01-1.32-.01-1.5h.52c.01.18.02.53.02 1.23.31-.82.99-1.32 1.85-1.36V83c-1.11.08-1.85.87-1.85 2.18v2.86h-.53Z"/><path clip-path="url(#b)" d="M272.84 85.23H271.8c-1.18 0-1.92.32-1.92 1.26 0 .69.48 1.17 1.22 1.17 1.52 0 1.73-1.05 1.73-2.23Zm.52 1.76c0 .48.04.87.08 1.04h-.51c-.04-.13-.07-.37-.1-.85-.18.41-.65.98-1.75.98-1.23 0-1.77-.82-1.77-1.65 0-1.21.91-1.76 2.5-1.76h1.01V84.2c0-.55-.16-1.29-1.37-1.29-1.08 0-1.23.58-1.35 1.03h-.53c.07-.61.43-1.54 1.9-1.54 1.21 0 1.9.53 1.9 1.74Z"/><path clip-path="url(#b)" d="M274.37 82.54h.99V80.82h.53v1.72h1.27v.52H275.9v3.58c0 .62.13.97.64.97.16 0 .38-.01.55-.07v.48c-.18.08-.44.1-.66.1-.68 0-1.07-.35-1.07-1.23V83.05h-.99Z"/><path clip-path="url(#b)" d="M278.36 82.54h.53v5.5h-.53Zm0-2.61h.53v1.07h-.53Z"/><path clip-path="url(#b)" d="M280.88 85.29c0 1.31.68 2.37 1.81 2.37 1.15 0 1.8-.98 1.8-2.37 0-1.3-.64-2.36-1.82-2.36-1.21 0-1.79 1.05-1.79 2.36m4.18-.01c0 1.53-.82 2.89-2.41 2.89-1.44 0-2.33-1.22-2.33-2.88 0-1.57.84-2.88 2.39-2.88 1.42 0 2.36 1.14 2.36 2.87"/><path clip-path="url(#b)" d="M286.49 83.92c0-.48 0-.95-.01-1.39H287c.02.18.03.89.02 1.05.23-.56.67-1.18 1.77-1.18.95 0 1.79.55 1.79 2.07v3.57h-.53V84.56c0-.98-.4-1.62-1.32-1.62-1.27 0-1.7 1.09-1.7 2.29v2.8h-.53Z"/><path clip-path="url(#b)" d="M295.44 85.29c0 1.31.68 2.37 1.81 2.37 1.15 0 1.8-.98 1.8-2.37 0-1.3-.64-2.36-1.82-2.36-1.22 0-1.79 1.05-1.79 2.36m4.18-.01c0 1.53-.82 2.89-2.41 2.89-1.44 0-2.33-1.22-2.33-2.88 0-1.57.84-2.88 2.39-2.88 1.42 0 2.35 1.14 2.35 2.87"/><path clip-path="url(#b)" d="M301.27 88.04V83.05h-.92v-.52h.92v-.78c0-.92.26-1.94 1.45-1.94.16 0 .39.03.52.08v.53c-.16-.04-.42-.07-.58-.07-.63 0-.86.46-.86 1.42v.76h1.16v.52H301.8v4.98Z"/><path clip-path="url(#b)" d="M199.96 98.07c-.01-1.09-.59-1.95-1.63-1.95-1.1 0-1.6.79-1.71 1.95Zm-3.38.48c.01 1.42.7 2.3 1.72 2.3 1 0 1.34-.58 1.53-1.03h.54c-.22.73-.79 1.55-2.1 1.55-1.62 0-2.25-1.44-2.25-2.84 0-1.57.76-2.93 2.31-2.93 1.64 0 2.16 1.46 2.16 2.5 0 .15 0 .31-.01.45Z"/><path clip-path="url(#b)" d="M201.94 95.74c.86 2.52 1.46 4.24 1.66 4.94h.01c.12-.41.71-2.05 1.75-4.94h.56l-2.01 5.5h-.64l-1.9-5.5Z"/><path clip-path="url(#b)" d="M210.57 98.07c-.01-1.09-.59-1.95-1.63-1.95-1.1 0-1.6.79-1.71 1.95Zm-3.38.48c.01 1.42.7 2.3 1.73 2.3 1 0 1.34-.58 1.53-1.03h.54c-.22.73-.79 1.55-2.1 1.55-1.62 0-2.25-1.44-2.25-2.84 0-1.57.76-2.93 2.31-2.93 1.64 0 2.16 1.46 2.16 2.5 0 .15 0 .31-.01.45Z"/><path clip-path="url(#b)" d="M212.53 97.12c0-.48 0-.95-.01-1.39h.52c.02.18.03.89.02 1.04.24-.56.67-1.18 1.77-1.18.95 0 1.79.55 1.79 2.07v3.57h-.53V97.76c0-.98-.39-1.62-1.32-1.62-1.27 0-1.7 1.09-1.7 2.29v2.81h-.53Z"/><path clip-path="url(#b)" d="M217.64 95.74h.99V94.02h.53v1.72h1.27v.52h-1.27v3.58c0 .62.13.97.64.97.16 0 .38-.01.55-.07v.48c-.18.08-.44.1-.66.1-.68 0-1.07-.35-1.07-1.23V96.25h-.99Z"/><path clip-path="url(#b)" d="M223.7 95.74h.99V94.02h.53v1.72h1.27v.52h-1.27v3.58c0 .62.13.97.64.97.16 0 .38-.01.55-.07v.48c-.18.08-.44.1-.66.1-.68 0-1.07-.35-1.07-1.23V96.25h-.99Z"/><path clip-path="url(#b)" d="M231.12 98.07c-.01-1.09-.59-1.95-1.63-1.95-1.1 0-1.6.79-1.71 1.95Zm-3.38.48c.01 1.42.7 2.3 1.73 2.3 1 0 1.34-.58 1.53-1.03h.54c-.22.73-.79 1.55-2.1 1.55-1.62 0-2.25-1.44-2.25-2.84 0-1.57.76-2.93 2.31-2.93 1.64 0 2.16 1.46 2.16 2.5 0 .15 0 .31-.01.45Z"/><path clip-path="url(#b)" d="M237.05 99.62c-.26.97-.87 1.75-2.07 1.75-1.33 0-2.28-1.02-2.28-2.86 0-1.51.78-2.9 2.34-2.9 1.35 0 1.91.99 2 1.76h-.54c-.16-.64-.56-1.24-1.47-1.24-1.13 0-1.77.99-1.77 2.37 0 1.31.6 2.36 1.71 2.36.78 0 1.25-.41 1.52-1.23Z"/><path clip-path="url(#b)" d="M238.92 93.13v3.53c.3-.57.82-1.06 1.76-1.06.76 0 1.8.4 1.8 2.13v3.5h-.53V97.85c0-1.09-.48-1.71-1.36-1.71-1.05 0-1.66.67-1.66 2.02v3.07h-.53V93.13Z"/><path clip-path="url(#b)" d="M247.35 101.24V96.25h-.92v-.52h.92v-.78c0-.92.26-1.94 1.45-1.94.16 0 .4.03.52.08v.53c-.16-.04-.42-.07-.58-.07-.63 0-.86.46-.86 1.42v.76h1.16v.52h-1.16v4.98Z"/><path clip-path="url(#b)" d="M250.13 98.49c0 1.31.68 2.36 1.81 2.36 1.15 0 1.8-.98 1.8-2.36 0-1.3-.64-2.36-1.82-2.36-1.21 0-1.79 1.04-1.79 2.36m4.17-.01c0 1.53-.82 2.89-2.41 2.89-1.44 0-2.33-1.22-2.33-2.88 0-1.57.84-2.88 2.39-2.88 1.42 0 2.35 1.14 2.35 2.87"/><path clip-path="url(#b)" d="M255.74 97.23c0-.92-.01-1.32-.01-1.5h.52c.01.18.02.53.02 1.23.31-.83.99-1.32 1.85-1.36v.59c-1.11.08-1.85.87-1.85 2.18v2.86h-.53Z"/><path clip-path="url(#b)" d="M199.96 111.27c-.01-1.09-.59-1.95-1.63-1.95-1.1 0-1.6.79-1.71 1.95Zm-3.38.48c.01 1.42.7 2.3 1.72 2.3 1 0 1.34-.58 1.53-1.03h.54c-.22.73-.79 1.55-2.1 1.55-1.62 0-2.25-1.44-2.25-2.84 0-1.57.76-2.93 2.31-2.93 1.64 0 2.16 1.46 2.16 2.5 0 .15 0 .31-.01.45Z"/><path clip-path="url(#b)" d="M201.92 110.32c0-.48 0-.95-.01-1.39h.52c.02.18.03.89.02 1.05.24-.56.67-1.18 1.77-1.18.95 0 1.79.55 1.79 2.07v3.57h-.53v-3.48c0-.98-.39-1.62-1.32-1.62-1.27 0-1.7 1.09-1.7 2.29v2.8h-.53Z"/><path clip-path="url(#b)" d="M208 111.66c0 1.31.67 2.25 1.69 2.25 1.33 0 1.74-.91 1.74-2.34 0-1.45-.43-2.26-1.7-2.26-1.23 0-1.73 1.09-1.73 2.34m3.93 2.4c0 1.76-.76 2.68-2.3 2.68-1.38 0-1.96-.8-2.09-1.64h.54c.19.76.8 1.12 1.57 1.12 1.39 0 1.77-.92 1.77-2.32v-.57c-.29.71-.81 1.1-1.78 1.1-1.25 0-2.2-1.04-2.2-2.75 0-1.85 1.02-2.88 2.28-2.88 1.09 0 1.55.53 1.7.97.01-.32.02-.7.03-.84h.5c0 .2-.02 1.07-.02 1.6Z"/><path clip-path="url(#b)" d="M216.82 111.63h-1.04c-1.18 0-1.92.32-1.92 1.27 0 .69.48 1.17 1.23 1.17 1.52 0 1.74-1.04 1.74-2.23Zm.52 1.76c0 .48.04.87.08 1.04h-.51c-.04-.13-.07-.37-.1-.85-.18.41-.65.98-1.75.98-1.23 0-1.77-.83-1.77-1.65 0-1.21.9-1.76 2.5-1.76h1.01v-.56c0-.55-.16-1.29-1.37-1.29-1.07 0-1.23.58-1.35 1.03h-.53c.06-.61.43-1.54 1.9-1.54 1.21 0 1.89.53 1.89 1.74Z"/><path clip-path="url(#b)" d="M219.35 111.66c0 1.31.67 2.25 1.69 2.25 1.33 0 1.74-.91 1.74-2.34 0-1.45-.43-2.26-1.7-2.26-1.23 0-1.73 1.09-1.73 2.34m3.93 2.4c0 1.76-.76 2.68-2.3 2.68-1.38 0-1.96-.8-2.09-1.64h.54c.19.76.8 1.12 1.57 1.12 1.39 0 1.77-.92 1.77-2.32v-.57c-.29.71-.81 1.1-1.78 1.1-1.25 0-2.2-1.04-2.2-2.75 0-1.85 1.02-2.88 2.28-2.88 1.09 0 1.55.53 1.7.97.01-.32.02-.7.03-.84h.5c0 .2-.02 1.07-.02 1.6Z"/><path clip-path="url(#b)" d="M228.62 111.27c-.01-1.09-.59-1.95-1.63-1.95-1.1 0-1.6.79-1.72 1.95Zm-3.38.48c.01 1.42.7 2.3 1.73 2.3 1 0 1.34-.58 1.53-1.03h.54c-.22.73-.79 1.55-2.1 1.55-1.62 0-2.25-1.44-2.25-2.84 0-1.57.76-2.93 2.31-2.93 1.64 0 2.16 1.46 2.16 2.5 0 .15 0 .31-.01.45Z"/><path clip-path="url(#b)" d="M230.58 110.35c0-.47 0-.99-.01-1.42h.52c.01.19.03.66.02.98.22-.55.71-1.11 1.6-1.11.75 0 1.33.39 1.54 1.09.27-.57.8-1.09 1.74-1.09.82 0 1.67.48 1.67 2.01v3.62h-.53v-3.55c0-.74-.26-1.54-1.25-1.54-1.03 0-1.5.86-1.5 1.92v3.17h-.52v-3.54c0-.8-.23-1.55-1.22-1.55-1.03 0-1.53.95-1.53 2.07v3.03h-.53Z"/><path clip-path="url(#b)" d="M243.01 111.27c-.01-1.09-.59-1.95-1.63-1.95-1.1 0-1.6.79-1.71 1.95Zm-3.38.48c.01 1.42.7 2.3 1.73 2.3 1 0 1.34-.58 1.53-1.03h.54c-.22.73-.79 1.55-2.1 1.55-1.62 0-2.25-1.44-2.25-2.84 0-1.57.76-2.93 2.31-2.93 1.64 0 2.16 1.46 2.16 2.5 0 .15 0 .31-.01.45Z"/><path clip-path="url(#b)" d="M244.97 110.32c0-.48 0-.95-.01-1.39h.52c.02.18.03.89.02 1.05.23-.56.67-1.18 1.77-1.18.95 0 1.79.55 1.79 2.07v3.57h-.53v-3.48c0-.98-.4-1.62-1.32-1.62-1.27 0-1.7 1.09-1.7 2.29v2.8h-.53Z"/><path clip-path="url(#b)" d="M250.09 108.94h.99v-1.72h.53v1.72h1.27v.52h-1.27v3.58c0 .62.13.97.64.97.16 0 .38-.01.55-.07v.48c-.18.08-.44.1-.66.1-.68 0-1.07-.35-1.07-1.23v-3.83h-.99Z"/><path clip-path="url(#b)" d="M263.18 109.49l-1.85 2.97c-.91 1.44-1.55 2.09-2.75 2.09-1.21 0-1.93-1-1.93-1.96 0-.93.42-1.65 1.99-2.53 1.09-.73 1.49-1.03 1.49-1.74 0-.61-.37-1.19-1.09-1.19-.67 0-1.14.43-1.14 1.23 0 .49.33.96.97 1.58l4.41 4.49h-.8l-4.03-4.1c-.69-.68-1.1-1.19-1.1-1.97 0-.87.56-1.74 1.7-1.74.96 0 1.62.75 1.62 1.69 0 .75-.39 1.23-1.7 2.07-1.5.88-1.76 1.42-1.76 2.16 0 .79.66 1.46 1.35 1.46.86 0 1.44-.31 2.4-1.89l1.59-2.63Z"/><path clip-path="url(#b)" d="M267.59 108.94h.53v5.5h-.53Zm0-2.61h.53v1.07h-.53Z"/><path clip-path="url(#b)" d="M269.98 110.32c0-.48 0-.95-.01-1.39h.52c.02.18.03.89.02 1.05.23-.56.67-1.18 1.77-1.18.95 0 1.79.55 1.79 2.07v3.57h-.53v-3.48c0-.98-.4-1.62-1.32-1.62-1.27 0-1.7 1.09-1.7 2.29v2.8h-.53Z"/><path clip-path="url(#b)" d="M275.89 112.92c.18.72.67 1.14 1.51 1.14.95 0 1.33-.45 1.33-1.07s-.26-.93-1.45-1.23c-1.37-.34-1.72-.77-1.72-1.5 0-.76.55-1.46 1.76-1.46s1.78.76 1.86 1.54h-.53c-.1-.46-.45-1.03-1.35-1.03-.93 0-1.19.47-1.19.91 0 .51.26.76 1.31 1.02 1.5.37 1.88.88 1.88 1.71 0 1-.79 1.62-1.91 1.62-1.21 0-1.9-.66-2.05-1.65Z"/><path clip-path="url(#b)" d="M280.72 108.94h.53v5.5h-.53Zm0-2.61h.53v1.07h-.53Z"/><path clip-path="url(#b)" d="M283.25 111.66c0 1.31.67 2.25 1.69 2.25 1.33 0 1.74-.91 1.74-2.34 0-1.45-.43-2.26-1.7-2.26-1.23 0-1.73 1.09-1.73 2.34m3.93 2.4c0 1.76-.76 2.68-2.3 2.68-1.38 0-1.96-.8-2.09-1.64h.54c.19.76.8 1.12 1.57 1.12 1.39 0 1.77-.92 1.77-2.32v-.57c-.29.71-.81 1.1-1.78 1.1-1.25 0-2.2-1.04-2.2-2.75 0-1.85 1.02-2.88 2.28-2.88 1.09 0 1.55.53 1.7.97.01-.32.02-.7.03-.84h.5c0 .2-.02 1.07-.02 1.6Z"/><path clip-path="url(#b)" d="M289.56 106.33v3.53c.3-.57.82-1.06 1.76-1.06.76 0 1.8.4 1.8 2.13v3.5h-.53v-3.39c0-1.09-.48-1.71-1.36-1.71-1.05 0-1.66.67-1.66 2.02v3.07h-.53v-8.11Z"/><path clip-path="url(#b)" d="M294.14 108.94h.99v-1.72h.53v1.72h1.27v.52h-1.27v3.58c0 .62.13.97.64.97.16 0 .38-.01.55-.07v.48c-.18.08-.44.1-.66.1-.68 0-1.07-.35-1.07-1.23v-3.83h-.99Z"/><path clip-path="url(#b)" d="M298.31 112.92c.18.72.67 1.14 1.51 1.14.95 0 1.33-.45 1.33-1.07s-.26-.93-1.45-1.23c-1.37-.34-1.71-.77-1.71-1.5 0-.76.55-1.46 1.76-1.46s1.78.76 1.86 1.54h-.53c-.09-.46-.45-1.03-1.35-1.03-.93 0-1.19.47-1.19.91 0 .51.26.76 1.31 1.02 1.5.37 1.88.88 1.88 1.71 0 1-.79 1.62-1.91 1.62-1.21 0-1.9-.66-2.05-1.65Z"/><path clip-path="url(#b)" d="M303.05 114.44h.53v-1.42h-.53Z" fill-rule="evenodd"/><path clip-path="url(#b)" d="M198.45 49.86h-2.15l.27-1.27h5.78l-.27 1.27h-2.14l-1.29 6.31h-1.5Z" fill="#FF00A4"/><path clip-path="url(#b)" d="M204.99 52.66c.02-.11.02-.19.02-.25 0-.5-.21-.92-.85-.92-.66 0-1.07.44-1.26 1.17Zm-2.28 1c-.02.12-.04.22-.04.34 0 .6.22 1.12.87 1.12.59 0 .85-.33 1.03-.69h1.51c-.31.84-1.01 1.85-2.66 1.85-1.48 0-2.21-.96-2.21-2.34 0-1.5.8-3.58 2.99-3.58 1.62 0 2.19 1.02 2.19 2.19 0 .46-.06.79-.15 1.11Z" fill="#FF00A4"/><path clip-path="url(#b)" d="M211.97 54.31c-.3 1.08-1.04 1.97-2.67 1.97-1.39 0-2.13-.85-2.13-2.21 0-1.66.92-3.71 2.96-3.71 1.79 0 2.24 1.3 2.16 2.03h-1.41c-.01-.44-.15-.88-.8-.88-1.02 0-1.42 1.59-1.42 2.49 0 .8.31 1.15.82 1.15.49 0 .82-.28 1.04-.84Z" fill="#FF00A4"/><path clip-path="url(#b)" d="M215.81 48.14l-.62 3.06c.33-.42.81-.83 1.66-.83.97 0 1.71.56 1.39 2.16l-.74 3.64h-1.44l.69-3.43c.15-.74.02-1.12-.63-1.12-.72 0-1.13.55-1.29 1.33l-.66 3.22h-1.45l1.64-8.03Z" fill="#FF00A4"/><path clip-path="url(#b)" d="M219.85 51.92c.1-.48.2-.96.28-1.45h1.42c-.01.16-.08.57-.11.71.26-.35.74-.82 1.66-.82 1.08 0 1.71.68 1.36 2.36l-.71 3.44h-1.44l.7-3.46c.14-.64 0-1.1-.62-1.1-.71 0-1.15.55-1.37 1.61l-.6 2.95h-1.45Z" fill="#FF00A4"/><path clip-path="url(#b)" d="M226.98 53.94c0 .79.32 1.18.89 1.18 1.04 0 1.45-1.49 1.45-2.46 0-.74-.3-1.13-.9-1.13-1 0-1.43 1.48-1.43 2.41m3.83-1.13c0 1.34-.76 3.47-3.09 3.47-1.53 0-2.24-.96-2.24-2.35 0-1.53.94-3.56 3.05-3.56 1.32 0 2.29.77 2.29 2.44" fill="#FF00A4"/><path clip-path="url(#b)" d="M231.39 56.17l1.64-8.03h1.45l-1.64 8.03Z" fill="#FF00A4"/><path clip-path="url(#b)" d="M236.06 53.94c0 .79.32 1.18.89 1.18 1.04 0 1.45-1.49 1.45-2.46 0-.74-.3-1.13-.9-1.13-1 0-1.43 1.48-1.43 2.41m3.83-1.13c0 1.34-.76 3.47-3.09 3.47-1.53 0-2.24-.96-2.24-2.35 0-1.53.94-3.56 3.05-3.56 1.32 0 2.29.77 2.29 2.44" fill="#FF00A4"/><path clip-path="url(#b)" d="M242.26 53.79c0 .7.29 1.1.9 1.1.77 0 1.24-.67 1.46-1.71.16-.77.12-1.61-.86-1.61-1.01 0-1.5 1.2-1.5 2.22m3.28 1.56c-.38 1.84-.87 3.12-3.02 3.12-2.07 0-2.25-1.14-2.26-1.81h1.47c.02.34.24.69.9.69.84 0 1.16-.53 1.42-1.74l.04-.17c-.36.47-.83.68-1.54.68-1.19 0-1.83-.9-1.83-2.21 0-1.68 1.05-3.53 2.8-3.53.85 0 1.31.32 1.46.68.05-.17.14-.45.19-.57h1.39c-.1.42-.21.94-.31 1.42Z" fill="#FF00A4"/><path clip-path="url(#b)" d="M248.88 50.48c.2 2.43.29 3.88.31 4.48h.01c.28-.63.91-2.1 2.04-4.48h1.51l-3 5.95c-.93 1.85-1.53 2.03-2.68 2.03-.15 0-.52-.03-.73-.07l.26-1.23c.1.02.26.05.48.05.67 0 .87-.28 1.09-.69l-.73-6.03Z" fill="#FF00A4"/><path clip-path="url(#b)" d="M258.35 49.86H256.2l.27-1.27h5.78l-.26 1.27h-2.14l-1.29 6.31h-1.5Z" fill="#FF00A4"/><path clip-path="url(#b)" d="M264.73 48.14l-.62 3.06c.33-.42.81-.83 1.66-.83.97 0 1.71.56 1.39 2.16l-.74 3.64h-1.44l.69-3.43c.15-.74.01-1.12-.63-1.12-.72 0-1.13.55-1.29 1.33l-.67 3.22h-1.45l1.64-8.03Z" fill="#FF00A4"/><path clip-path="url(#b)" d="M271.44 53.61c-.36 0-.67.03-.95.07-.81.12-1.13.4-1.13.88 0 .33.21.58.67.58 1 0 1.25-.84 1.39-1.44Zm1.2 1.16c-.12.59-.24 1.23-.25 1.39h-1.41c.01-.16.05-.46.08-.64-.28.36-.64.75-1.67.75-1.09 0-1.54-.79-1.54-1.46 0-1.59 1.34-2.01 2.56-2.15.46-.04.88-.04 1.23-.06l.05-.27c.08-.41.08-.95-.7-.95-.69 0-.81.39-.94.66h-1.48c.21-.92.82-1.7 2.54-1.7 1.34 0 2.33.57 2.02 2.07Z" fill="#FF00A4"/><path clip-path="url(#b)" d="M274.33 50.48h.82l.32-1.54h1.44l-.31 1.54h1.04l-.25 1.14h-1.04l-.58 2.87c-.07.35-.04.59.39.59.17 0 .31-.01.47-.04l-.22 1.08c-.32.11-.68.11-.98.11-1.15 0-1.33-.68-1.13-1.68l.59-2.93h-.82Z" fill="#FF00A4"/><path clip-path="url(#b)" d="M201.3 66.05H198l-.42 2.04h3.76l-.43 1.27h-5.06l1.56-7.58h4.93l-.26 1.27h-3.45l-.35 1.73h3.3Z" fill="#FF00A4"/><path clip-path="url(#b)" d="M203.03 65.12c.1-.48.2-.96.28-1.44h1.42c-.01.16-.08.57-.11.71.26-.35.74-.83 1.66-.83 1.09 0 1.71.68 1.36 2.36l-.71 3.44H205.5l.7-3.46c.14-.64 0-1.1-.62-1.1-.71 0-1.15.55-1.37 1.61l-.6 2.95h-1.45Z" fill="#FF00A4"/><path clip-path="url(#b)" d="M211.52 61.34l-.62 3.06c.33-.42.81-.83 1.66-.83.97 0 1.71.56 1.39 2.16l-.74 3.64h-1.44l.69-3.43c.15-.74.02-1.12-.63-1.12-.72 0-1.13.55-1.29 1.33l-.66 3.22h-1.45l1.64-8.03Z" fill="#FF00A4"/><path clip-path="url(#b)" d="M218.23 66.81c-.36 0-.67.03-.95.07-.81.12-1.13.4-1.13.88 0 .33.21.58.67.58 1 0 1.25-.84 1.39-1.44Zm1.2 1.16c-.12.59-.24 1.23-.25 1.4h-1.41c.01-.16.05-.46.08-.64-.28.36-.64.75-1.67.75-1.09 0-1.54-.79-1.54-1.46 0-1.58 1.34-2.01 2.56-2.14.46-.05.89-.05 1.23-.06l.05-.27c.08-.41.08-.95-.7-.95-.69 0-.81.39-.94.66h-1.48c.21-.91.82-1.7 2.53-1.7 1.34 0 2.33.57 2.02 2.07Z" fill="#FF00A4"/><path clip-path="url(#b)" d="M221.52 65.12c.1-.48.2-.96.28-1.44h1.42c-.01.16-.08.57-.11.71.26-.35.74-.83 1.66-.83 1.09 0 1.71.68 1.36 2.36l-.7 3.44h-1.44l.7-3.46c.14-.64 0-1.1-.62-1.1-.71 0-1.15.55-1.37 1.61l-.6 2.95h-1.45Z" fill="#FF00A4"/><path clip-path="url(#b)" d="M231.95 67.51c-.3 1.08-1.04 1.97-2.67 1.97-1.39 0-2.13-.85-2.13-2.21 0-1.66.92-3.71 2.96-3.71 1.79 0 2.24 1.3 2.16 2.03h-1.41c-.01-.44-.15-.89-.8-.89-1.02 0-1.42 1.59-1.42 2.49 0 .8.31 1.15.83 1.15.49 0 .82-.28 1.04-.84Z" fill="#FF00A4"/><path clip-path="url(#b)" d="M236.69 65.86c.02-.11.02-.19.02-.25 0-.5-.21-.92-.85-.92-.66 0-1.07.44-1.26 1.17Zm-2.28 1c-.02.12-.04.22-.04.34 0 .6.22 1.12.87 1.12.59 0 .85-.33 1.03-.69h1.51c-.31.84-1.01 1.84-2.66 1.84-1.48 0-2.21-.96-2.21-2.34 0-1.5.8-3.58 2.99-3.58 1.62 0 2.19 1.02 2.19 2.19 0 .46-.06.79-.15 1.11Z" fill="#FF00A4"/><path clip-path="url(#b)" d="M240.1 67.61c.04.49.35.76.95.76.57 0 .79-.27.79-.64 0-.36-.29-.54-.98-.77-1.29-.41-1.69-.87-1.69-1.58 0-1.03.78-1.82 2.24-1.82 1.53 0 2.22.81 2.18 1.71h-1.47c-.02-.31-.17-.61-.79-.61-.36 0-.72.12-.72.52 0 .3.29.42.97.64 1.29.42 1.74.94 1.74 1.73 0 1.31-1.14 1.91-2.45 1.91-1.47 0-2.32-.68-2.26-1.87Z" fill="#FF00A4"/><path clip-path="url(#b)" d="M347.05 131.61H487.5V29.15H347.05Zm139.45-1H348.05V30.15H486.5Z"/><path clip-path="url(#b)" d="M359.27 80.33h4.52v.55h-3.94v2.91h3.7v.55h-3.7v3.7h-.57Z"/><path clip-path="url(#b)" d="M364.95 88.04h.53V79.93h-.53Z" fill-rule="evenodd"/><path clip-path="url(#b)" d="M370.83 84.87c-.01-1.09-.59-1.95-1.63-1.95-1.1 0-1.6.79-1.71 1.95Zm-3.38.48c.01 1.42.7 2.3 1.73 2.3 1 0 1.34-.58 1.53-1.03h.54c-.22.73-.79 1.55-2.1 1.55-1.62 0-2.25-1.44-2.25-2.84 0-1.57.76-2.93 2.31-2.93 1.64 0 2.16 1.46 2.16 2.5 0 .15 0 .31-.01.45Z"/><path clip-path="url(#b)" d="M372.76 82.54c.88 1.35 1.27 1.96 1.48 2.29h.01c.26-.38.79-1.17 1.55-2.29h.61l-1.85 2.66 1.89 2.84h-.64c-.77-1.18-1.32-2.01-1.58-2.4h-.01c-.2.32-.68 1.07-1.56 2.4h-.62l1.89-2.79-1.8-2.71Z"/><path clip-path="url(#b)" d="M377.58 82.54h.53v5.5h-.53Zm0-2.61h.53v1.07h-.53Z"/><path clip-path="url(#b)" d="M383.94 85.18c0-1.38-.66-2.26-1.67-2.26-1.33 0-1.8.93-1.8 2.38 0 1.3.42 2.35 1.74 2.35 1.08 0 1.74-.92 1.74-2.48m-3.97-5.25h.53v3.53c.26-.55.78-1.06 1.82-1.06 1.26 0 2.18 1.07 2.18 2.76 0 1.74-.83 3-2.32 3-.89 0-1.41-.37-1.68-1 0 .35-.01.72-.02.87h-.52c.01-.63.01-1.25.01-1.88Z"/><path clip-path="url(#b)" d="M385.93 88.04h.53V79.93h-.53Z" fill-rule="evenodd"/><path clip-path="url(#b)" d="M391.81 84.87c-.01-1.09-.59-1.95-1.63-1.95-1.1 0-1.6.79-1.71 1.95Zm-3.38.48c.01 1.42.7 2.3 1.72 2.3 1 0 1.34-.58 1.53-1.03h.54c-.22.73-.79 1.55-2.1 1.55-1.62 0-2.25-1.44-2.25-2.84 0-1.57.76-2.93 2.31-2.93 1.64 0 2.16 1.46 2.16 2.5 0 .15 0 .31-.01.45Z"/><path clip-path="url(#b)" d="M393.13 89.29c.52-1.07.71-2.05.75-2.66h.53c-.07.91-.41 2-.8 2.66Z"/><path clip-path="url(#b)" d="M398.77 84.03c0-.92-.01-1.32-.01-1.5h.52c.01.18.02.53.02 1.23.31-.82.99-1.32 1.85-1.36V83c-1.11.08-1.85.87-1.85 2.18v2.86h-.53Z"/><path clip-path="url(#b)" d="M405.73 84.87c-.01-1.09-.59-1.95-1.63-1.95-1.1 0-1.6.79-1.71 1.95Zm-3.38.48c.01 1.42.7 2.3 1.72 2.3 1 0 1.34-.58 1.53-1.03h.54c-.22.73-.79 1.55-2.1 1.55-1.62 0-2.25-1.44-2.25-2.84 0-1.57.76-2.93 2.31-2.93 1.64 0 2.16 1.46 2.16 2.5 0 .15 0 .31-.01.45Z"/><path clip-path="url(#b)" d="M407.82 86.52c.18.71.67 1.14 1.51 1.14.95 0 1.33-.45 1.33-1.07 0-.63-.26-.93-1.45-1.23-1.37-.34-1.71-.77-1.71-1.5 0-.76.55-1.46 1.76-1.46s1.78.76 1.86 1.54h-.53c-.1-.46-.45-1.03-1.35-1.03-.93 0-1.19.47-1.19.91 0 .51.26.76 1.31 1.02 1.5.37 1.88.88 1.88 1.71 0 1-.79 1.62-1.91 1.62-1.21 0-1.9-.66-2.04-1.65Z"/><path clip-path="url(#b)" d="M416.56 85.16c0-1.28-.6-2.23-1.65-2.23-1.29 0-1.82.84-1.82 2.33 0 1.47.42 2.39 1.75 2.39 1.11 0 1.73-.97 1.73-2.49m-3.44 2.06v3.01h-.53V83.89c0-.45 0-.93-.01-1.35h.52c.02.21.02.54.02.99.33-.66.92-1.12 1.87-1.12 1.26 0 2.13 1.09 2.13 2.74 0 1.98-1.02 3.03-2.31 3.03-.94 0-1.43-.43-1.69-.95"/><path clip-path="url(#b)" d="M418.76 85.29c0 1.31.68 2.37 1.81 2.37 1.15 0 1.8-.98 1.8-2.37 0-1.3-.64-2.36-1.82-2.36-1.21 0-1.79 1.05-1.79 2.36m4.18-.01c0 1.53-.82 2.89-2.41 2.89-1.44 0-2.33-1.22-2.33-2.88 0-1.57.84-2.88 2.39-2.88 1.42 0 2.35 1.14 2.35 2.87"/><path clip-path="url(#b)" d="M424.37 83.92c0-.48 0-.95-.01-1.39h.52c.02.18.03.89.02 1.05.23-.56.67-1.18 1.77-1.18.95 0 1.79.55 1.79 2.07v3.57h-.53V84.56c0-.98-.39-1.62-1.32-1.62-1.27 0-1.7 1.09-1.7 2.29v2.8h-.53Z"/><path clip-path="url(#b)" d="M430.28 86.52c.18.71.67 1.14 1.51 1.14.95 0 1.33-.45 1.33-1.07 0-.63-.26-.93-1.45-1.23-1.37-.34-1.72-.77-1.72-1.5 0-.76.55-1.46 1.76-1.46s1.78.76 1.86 1.54h-.53c-.1-.46-.45-1.03-1.35-1.03-.93 0-1.19.47-1.19.91 0 .51.26.76 1.31 1.02 1.5.37 1.88.88 1.88 1.71 0 1-.79 1.62-1.91 1.62-1.22 0-1.9-.66-2.04-1.65Z"/><path clip-path="url(#b)" d="M435.11 82.54h.53v5.5h-.53Zm0-2.61h.53v1.07h-.53Z"/><path clip-path="url(#b)" d="M437.42 82.54c.86 2.52 1.46 4.24 1.66 4.94h.01c.12-.41.71-2.05 1.75-4.94h.56l-2.01 5.5h-.64l-1.9-5.5Z"/><path clip-path="url(#b)" d="M446.04 84.87c-.01-1.09-.59-1.95-1.63-1.95-1.1 0-1.6.79-1.72 1.95Zm-3.38.48c.01 1.42.7 2.3 1.73 2.3 1 0 1.34-.58 1.53-1.03h.54c-.23.73-.79 1.55-2.1 1.55-1.62 0-2.25-1.44-2.25-2.84 0-1.57.76-2.93 2.31-2.93 1.64 0 2.16 1.46 2.16 2.5 0 .15 0 .31-.01.45Z"/><path clip-path="url(#b)" d="M447.36 89.29c.52-1.07.71-2.05.75-2.66h.53c-.07.91-.42 2-.8 2.66Z"/><path clip-path="url(#b)" d="M363.07 98.36c0-1.28-.6-2.23-1.65-2.23-1.29 0-1.82.84-1.82 2.33 0 1.47.42 2.39 1.75 2.39 1.11 0 1.73-.97 1.73-2.49m-3.44 2.06v3.01h-.53V97.09c0-.45 0-.93-.01-1.35h.52c.02.21.02.54.02.99.33-.66.92-1.12 1.88-1.12 1.26 0 2.13 1.09 2.13 2.74 0 1.98-1.02 3.02-2.31 3.02-.94 0-1.43-.43-1.69-.94"/><path clip-path="url(#b)" d="M368.63 98.07c-.01-1.09-.59-1.95-1.63-1.95-1.1 0-1.6.79-1.72 1.95Zm-3.38.48c.01 1.42.7 2.3 1.73 2.3 1 0 1.34-.58 1.53-1.03h.54c-.22.73-.79 1.55-2.1 1.55-1.62 0-2.25-1.44-2.25-2.84 0-1.57.76-2.93 2.31-2.93 1.64 0 2.16 1.46 2.16 2.5 0 .15 0 .31-.01.45Z"/><path clip-path="url(#b)" d="M370.6 97.23c0-.92-.01-1.32-.01-1.5h.52c.01.18.02.53.02 1.23.31-.83.99-1.32 1.85-1.36v.59c-1.11.08-1.85.87-1.85 2.18v2.86h-.53Z"/><path clip-path="url(#b)" d="M374.19 99.72c.18.71.67 1.14 1.51 1.14.95 0 1.33-.45 1.33-1.07 0-.63-.26-.93-1.45-1.23-1.37-.34-1.71-.77-1.71-1.5 0-.76.55-1.46 1.76-1.46s1.78.76 1.86 1.54h-.53c-.1-.46-.45-1.03-1.35-1.03-.93 0-1.19.47-1.19.91 0 .51.26.76 1.31 1.02 1.5.37 1.88.88 1.88 1.7 0 1-.79 1.62-1.91 1.62-1.22 0-1.9-.66-2.05-1.65Z"/><path clip-path="url(#b)" d="M379.17 98.49c0 1.31.68 2.36 1.81 2.36 1.15 0 1.8-.98 1.8-2.36 0-1.3-.64-2.36-1.82-2.36-1.21 0-1.79 1.04-1.79 2.36m4.18-.01c0 1.53-.82 2.89-2.41 2.89-1.44 0-2.33-1.22-2.33-2.88 0-1.57.84-2.88 2.39-2.88 1.42 0 2.36 1.14 2.36 2.87"/><path clip-path="url(#b)" d="M384.77 97.12c0-.48 0-.95-.01-1.39h.52c.02.18.03.89.02 1.04.23-.56.67-1.18 1.77-1.18.95 0 1.79.55 1.79 2.07v3.57h-.53V97.76c0-.98-.39-1.62-1.32-1.62-1.27 0-1.7 1.09-1.7 2.29v2.81h-.53Z"/><path clip-path="url(#b)" d="M393.78 98.43h-1.04c-1.18 0-1.92.32-1.92 1.27 0 .69.48 1.17 1.23 1.17 1.52 0 1.74-1.04 1.74-2.23Zm.52 1.76c0 .48.04.87.07 1.05h-.51c-.04-.13-.07-.37-.1-.85-.18.41-.65.98-1.75.98-1.24 0-1.77-.83-1.77-1.65 0-1.21.9-1.76 2.5-1.76h1.01V97.4c0-.55-.16-1.29-1.37-1.29-1.08 0-1.24.58-1.35 1.03h-.53c.06-.6.43-1.54 1.9-1.54 1.22 0 1.9.53 1.9 1.74Z"/><path clip-path="url(#b)" d="M396.17 101.24h.53V93.13h-.53Z" fill-rule="evenodd"/><path clip-path="url(#b)" d="M398.56 95.74h.53v5.5h-.53Zm0-2.61h.53V94.2h-.53Z"/><path clip-path="url(#b)" d="M400.39 100.73l3.36-4.48h-3.19v-.52h3.81v.53l-3.32 4.46h3.44l-.13.52h-3.97Z"/><path clip-path="url(#b)" d="M409.15 98.07c-.01-1.09-.59-1.95-1.63-1.95-1.1 0-1.6.79-1.71 1.95Zm-3.38.48c.01 1.42.7 2.3 1.72 2.3 1 0 1.34-.58 1.53-1.03h.54c-.22.73-.79 1.55-2.1 1.55-1.62 0-2.25-1.44-2.25-2.84 0-1.57.76-2.93 2.31-2.93 1.64 0 2.16 1.46 2.16 2.5 0 .15 0 .31-.01.45Z"/><path clip-path="url(#b)" d="M411.31 98.53c0 1.51.76 2.32 1.67 2.32 1.41 0 1.79-1 1.79-2.5 0-1.42-.33-2.23-1.69-2.23-1.05 0-1.77.87-1.77 2.41m3.97-5.4v6.52c0 .53 0 1.03.01 1.59h-.51c-.02-.13-.03-.65-.03-.93-.27.67-.86 1.06-1.79 1.06-1.38 0-2.22-1.17-2.22-2.82 0-1.69.91-2.95 2.35-2.95 1.07 0 1.49.47 1.65.82v-3.3Z"/><path clip-path="url(#b)" d="M420.01 99.72c.18.71.67 1.14 1.51 1.14.95 0 1.33-.45 1.33-1.07 0-.63-.26-.93-1.45-1.23-1.38-.34-1.72-.77-1.72-1.5 0-.76.55-1.46 1.76-1.46s1.78.76 1.87 1.54h-.53c-.1-.46-.45-1.03-1.35-1.03-.93 0-1.19.47-1.19.91 0 .51.25.76 1.31 1.02 1.5.37 1.87.88 1.87 1.7 0 1-.79 1.62-1.91 1.62-1.21 0-1.89-.66-2.04-1.65Z"/><path clip-path="url(#b)" d="M428.34 98.07c-.01-1.09-.59-1.95-1.63-1.95-1.1 0-1.6.79-1.72 1.95Zm-3.38.48c.01 1.42.7 2.3 1.73 2.3 1 0 1.34-.58 1.53-1.03h.54c-.22.73-.79 1.55-2.1 1.55-1.62 0-2.25-1.44-2.25-2.84 0-1.57.76-2.93 2.31-2.93 1.64 0 2.16 1.46 2.16 2.5 0 .15 0 .31-.01.45Z"/><path clip-path="url(#b)" d="M430.3 97.23c0-.92-.01-1.32-.01-1.5h.52c.01.18.02.53.02 1.23.31-.83.99-1.32 1.85-1.36v.59c-1.11.08-1.85.87-1.85 2.18v2.86h-.53Z"/><path clip-path="url(#b)" d="M434.07 95.74c.86 2.52 1.46 4.24 1.66 4.94h.01c.12-.41.71-2.05 1.75-4.94h.56l-2.01 5.5h-.64l-1.9-5.5Z"/><path clip-path="url(#b)" d="M439.24 95.74h.53v5.5h-.53Zm0-2.61h.53V94.2h-.53Z"/><path clip-path="url(#b)" d="M445.54 99.62c-.26.97-.87 1.75-2.07 1.75-1.33 0-2.28-1.02-2.28-2.86 0-1.51.78-2.9 2.34-2.9 1.35 0 1.91.99 2 1.76H445c-.16-.64-.56-1.24-1.47-1.24-1.13 0-1.77.99-1.77 2.37 0 1.31.6 2.36 1.72 2.36.78 0 1.25-.41 1.52-1.23Z"/><path clip-path="url(#b)" d="M450.43 98.07c-.01-1.09-.59-1.95-1.63-1.95-1.1 0-1.6.79-1.71 1.95Zm-3.38.48c.01 1.42.7 2.3 1.72 2.3 1 0 1.34-.58 1.53-1.03h.54c-.22.73-.79 1.55-2.1 1.55-1.62 0-2.25-1.44-2.25-2.84 0-1.57.76-2.93 2.31-2.93 1.64 0 2.16 1.46 2.16 2.5 0 .15 0 .31-.01.45Z"/><path clip-path="url(#b)" d="M455.28 95.74c.79 2.84 1.25 4.47 1.33 4.95h.01c.09-.44.62-2.17 1.45-4.95h.57c.99 3.4 1.29 4.38 1.39 4.81h.01c.15-.6.39-1.43 1.37-4.81h.56l-1.68 5.5h-.59c-.58-1.95-1.27-4.34-1.37-4.84h-.01c-.11.54-.71 2.51-1.41 4.84h-.64l-1.57-5.5Z"/><path clip-path="url(#b)" d="M463.21 95.74h.53v5.5h-.53Zm0-2.61h.53V94.2h-.53Z"/><path clip-path="url(#b)" d="M464.88 95.74h.99V94.02h.53v1.72h1.27v.52H466.4v3.58c0 .62.13.97.64.97.16 0 .38-.01.55-.07v.48c-.18.08-.44.1-.66.1-.68 0-1.07-.35-1.07-1.23V96.25h-.99Z"/><path clip-path="url(#b)" d="M469.36 93.13v3.53c.3-.57.82-1.06 1.76-1.06.76 0 1.8.4 1.8 2.13v3.5h-.53V97.85c0-1.09-.48-1.71-1.36-1.71-1.05 0-1.66.67-1.66 2.02v3.07h-.53V93.13Z"/><path clip-path="url(#b)" d="M359.11 108.94c.79 2.84 1.25 4.47 1.33 4.95h.01c.09-.44.62-2.17 1.45-4.95h.57c.99 3.4 1.29 4.38 1.39 4.81h.01c.15-.61.39-1.43 1.37-4.81h.56l-1.68 5.5h-.59c-.58-1.95-1.27-4.33-1.37-4.84h-.01c-.11.54-.72 2.51-1.41 4.84h-.64l-1.57-5.5Z"/><path clip-path="url(#b)" d="M367.15 111.69c0 1.31.68 2.37 1.81 2.37 1.15 0 1.8-.98 1.8-2.37 0-1.3-.64-2.36-1.82-2.36-1.22 0-1.79 1.05-1.79 2.36m4.17-.01c0 1.53-.82 2.89-2.41 2.89-1.44 0-2.33-1.22-2.33-2.88 0-1.57.84-2.88 2.38-2.88 1.42 0 2.35 1.14 2.35 2.87"/><path clip-path="url(#b)" d="M372.76 110.43c0-.92-.01-1.32-.01-1.5h.52c.01.18.02.53.02 1.23.31-.83.99-1.32 1.85-1.36v.59c-1.11.08-1.85.87-1.85 2.18v2.86h-.53Z"/><path clip-path="url(#b)" d="M376.31 114.44h.53v-8.11h-.53Z" fill-rule="evenodd"/><path clip-path="url(#b)" d="M378.84 111.73c0 1.51.76 2.32 1.67 2.32 1.41 0 1.79-1 1.79-2.5 0-1.42-.33-2.23-1.69-2.23-1.05 0-1.77.87-1.77 2.41m3.97-5.4v6.52c0 .53 0 1.03.01 1.58h-.51c-.02-.13-.03-.65-.03-.92-.27.67-.86 1.06-1.79 1.06-1.38 0-2.21-1.17-2.21-2.82 0-1.69.9-2.95 2.35-2.95 1.06 0 1.49.47 1.65.83v-3.3Z"/><path clip-path="url(#b)" d="M384.36 111.89h2.68v-.54h-2.68Z" fill-rule="evenodd"/><path clip-path="url(#b)" d="M392.67 112.82c-.26.97-.87 1.75-2.07 1.75-1.33 0-2.28-1.02-2.28-2.86 0-1.51.78-2.9 2.34-2.9 1.35 0 1.91.99 2 1.76h-.54c-.16-.64-.56-1.24-1.47-1.24-1.13 0-1.77.99-1.77 2.37 0 1.31.59 2.37 1.71 2.37.78 0 1.25-.41 1.52-1.23Z"/><path clip-path="url(#b)" d="M394.01 114.44h.53v-8.11h-.53Z" fill-rule="evenodd"/><path clip-path="url(#b)" d="M399.45 111.63H398.4c-1.18 0-1.92.32-1.92 1.27 0 .69.48 1.17 1.22 1.17 1.52 0 1.74-1.04 1.74-2.23Zm.52 1.76c0 .48.04.87.08 1.04h-.51c-.04-.13-.07-.37-.1-.85-.18.41-.65.98-1.75.98-1.24 0-1.77-.83-1.77-1.65 0-1.21.9-1.76 2.5-1.76h1.01v-.56c0-.55-.16-1.29-1.37-1.29-1.08 0-1.24.58-1.35 1.03h-.53c.06-.61.43-1.54 1.9-1.54 1.22 0 1.9.53 1.9 1.74Z"/><path clip-path="url(#b)" d="M401.78 112.92c.18.72.67 1.14 1.51 1.14.95 0 1.33-.45 1.33-1.07s-.26-.93-1.45-1.23c-1.38-.34-1.72-.77-1.72-1.5 0-.76.55-1.46 1.76-1.46s1.78.76 1.86 1.54h-.53c-.1-.46-.45-1.03-1.35-1.03-.93 0-1.19.47-1.19.91 0 .51.26.76 1.31 1.02 1.5.37 1.87.88 1.87 1.71 0 1-.79 1.62-1.91 1.62-1.21 0-1.89-.66-2.04-1.65Z"/><path clip-path="url(#b)" d="M406.75 112.92c.18.72.67 1.14 1.51 1.14.95 0 1.33-.45 1.33-1.07s-.26-.93-1.45-1.23c-1.37-.34-1.72-.77-1.72-1.5 0-.76.55-1.46 1.76-1.46s1.78.76 1.86 1.54h-.53c-.1-.46-.45-1.03-1.35-1.03-.93 0-1.19.47-1.19.91 0 .51.26.76 1.31 1.02 1.5.37 1.88.88 1.88 1.71 0 1-.79 1.62-1.91 1.62-1.22 0-1.9-.66-2.04-1.65Z"/><path clip-path="url(#b)" d="M414.6 111.73c0 1.51.76 2.32 1.67 2.32 1.4 0 1.79-1 1.79-2.5 0-1.42-.33-2.23-1.69-2.23-1.05 0-1.77.87-1.77 2.41m3.97-5.4v6.52c0 .53 0 1.03.01 1.58h-.51c-.02-.13-.03-.65-.03-.92-.27.67-.86 1.06-1.79 1.06-1.38 0-2.22-1.17-2.22-2.82 0-1.69.91-2.95 2.35-2.95 1.07 0 1.49.47 1.65.83v-3.3Z"/><path clip-path="url(#b)" d="M423.92 111.27c-.01-1.09-.59-1.95-1.63-1.95-1.1 0-1.6.79-1.72 1.95Zm-3.38.48c.01 1.42.7 2.3 1.73 2.3 1 0 1.34-.58 1.53-1.03h.54c-.22.73-.79 1.55-2.1 1.55-1.62 0-2.25-1.44-2.25-2.84 0-1.57.76-2.93 2.31-2.93 1.64 0 2.16 1.46 2.16 2.5 0 .15 0 .31-.01.45Z"/><path clip-path="url(#b)" d="M425.92 114.44h.53v-8.11h-.53Z" fill-rule="evenodd"/><path clip-path="url(#b)" d="M428.31 108.94h.53v5.5h-.53Zm0-2.61h.53v1.07h-.53Z"/><path clip-path="url(#b)" d="M430.61 108.94c.86 2.52 1.46 4.24 1.66 4.94h.01c.12-.41.71-2.05 1.75-4.94h.56l-2.01 5.5h-.64l-1.9-5.5Z"/><path clip-path="url(#b)" d="M439.24 111.27c-.01-1.09-.59-1.95-1.63-1.95-1.1 0-1.6.79-1.72 1.95Zm-3.38.48c.01 1.42.7 2.3 1.73 2.3 1 0 1.34-.58 1.53-1.03h.54c-.22.73-.79 1.55-2.1 1.55-1.62 0-2.25-1.44-2.25-2.84 0-1.57.76-2.93 2.31-2.93 1.64 0 2.16 1.46 2.16 2.5 0 .15 0 .31-.01.45Z"/><path clip-path="url(#b)" d="M441.2 110.43c0-.92-.01-1.32-.01-1.5h.52c.01.18.02.53.02 1.23.31-.83.99-1.32 1.85-1.36v.59c-1.11.08-1.85.87-1.85 2.18v2.86h-.53Z"/><path clip-path="url(#b)" d="M444.94 108.94c1.08 3.15 1.54 4.45 1.73 5.04h.01c.21-.67.64-1.95 1.67-5.04h.55l-2 5.82c-.56 1.63-.95 1.99-1.91 1.99-.19 0-.32-.01-.49-.03v-.55c.16.02.31.03.48.03.77 0 1.01-.39 1.41-1.52l-2.03-5.74Z"/><path clip-path="url(#b)" d="M449.17 114.44h.53v-1.42h-.53Z" fill-rule="evenodd"/><path clip-path="url(#b)" d="M362.17 51.61c.74 0 1.3-.27 1.3-.99 0-.67-.5-.83-.98-.83h-1.23l-.37 1.82Zm-1.97 3.36h1.45c.82 0 1.41-.38 1.42-1.18 0-.61-.33-.98-1.23-.98h-1.19Zm-.17-6.38h2.8c1.47 0 2.18.82 2.18 1.88 0 .84-.45 1.55-1.3 1.84.51.22.93.81.93 1.49 0 1.53-1.16 2.37-2.87 2.37h-3.29Z" fill="#FF00A4"/><path clip-path="url(#b)" d="M367.11 53.94c0 .79.32 1.18.88 1.18 1.04 0 1.45-1.49 1.45-2.46 0-.74-.3-1.13-.9-1.13-1 0-1.43 1.48-1.43 2.41m3.83-1.13c0 1.34-.76 3.47-3.09 3.47-1.54 0-2.24-.96-2.24-2.35 0-1.53.94-3.56 3.05-3.56 1.32 0 2.29.77 2.29 2.44" fill="#FF00A4"/><path clip-path="url(#b)" d="M376.53 54.65c-.11.5-.21 1.06-.29 1.52h-1.42c.01-.16.07-.58.12-.79-.41.62-1.01.9-1.74.9-1.02 0-1.61-.71-1.35-2.01l.78-3.79h1.44l-.74 3.6c-.12.59-.03.98.58.98.63 0 1.18-.52 1.44-1.78l.58-2.79h1.45Z" fill="#FF00A4"/><path clip-path="url(#b)" d="M378.38 50.48h.82l.32-1.54h1.44l-.31 1.54h1.04l-.25 1.14H380.4l-.58 2.87c-.07.35-.04.59.39.59.17 0 .31-.01.47-.04l-.22 1.08c-.32.11-.68.11-.98.11-1.15 0-1.33-.68-1.13-1.68l.59-2.93h-.82Z" fill="#FF00A4"/><path clip-path="url(#b)" d="M383.22 48.14h1.45l-.29 1.41h-1.45Zm-.48 2.34h1.45l-1.17 5.7h-1.45Z" fill="#FF00A4"/><path clip-path="url(#b)" d="M386.26 53.94c0 .7.27 1.13.85 1.13.88 0 1.34-.77 1.56-1.9.18-.92.06-1.61-.82-1.61-1.06 0-1.6 1.36-1.6 2.38m1.91 1.58c-.44.56-.94.76-1.65.76-.94 0-1.78-.61-1.78-2.19 0-1.9 1.19-3.73 2.89-3.73.9 0 1.29.32 1.43.62.07-.25.11-.4.15-.52h1.43c-.09.38-.22.98-.4 1.84l-1.25 6.03h-1.4Z" fill="#FF00A4"/><path clip-path="url(#b)" d="M395.99 54.65c-.11.5-.21 1.06-.29 1.52h-1.42c.01-.16.07-.58.11-.79-.41.62-1.01.9-1.74.9-1.02 0-1.61-.71-1.35-2.01l.78-3.79h1.44l-.74 3.6c-.12.59-.03.98.58.98.63 0 1.18-.52 1.44-1.78l.58-2.79h1.45Z" fill="#FF00A4"/><path clip-path="url(#b)" d="M401.16 52.66c.02-.11.02-.19.02-.25 0-.5-.21-.92-.85-.92-.66 0-1.07.44-1.26 1.17Zm-2.28 1c-.02.12-.03.22-.03.34 0 .6.22 1.12.87 1.12.59 0 .84-.33 1.03-.69h1.51c-.31.84-1.01 1.85-2.66 1.85-1.48 0-2.21-.96-2.21-2.34 0-1.5.8-3.58 2.99-3.58 1.62 0 2.19 1.02 2.19 2.19 0 .46-.06.79-.15 1.11Z" fill="#FF00A4"/><path clip-path="url(#b)" d="M410.2 53.1c-.17-1.56-.28-2.64-.31-3.33h-.01c-.34.76-.93 1.98-1.62 3.33Zm-2.53 1.27l-.91 1.8h-1.58l3.95-7.58h1.9l.95 7.58h-1.51l-.23-1.8Z" fill="#FF00A4"/><path clip-path="url(#b)" d="M414.6 53.79c0 .7.29 1.1.9 1.1.77 0 1.24-.67 1.46-1.71.16-.77.12-1.61-.86-1.61-1.01 0-1.5 1.2-1.5 2.22m3.28 1.56c-.38 1.84-.87 3.12-3.02 3.12-2.07 0-2.25-1.14-2.26-1.81h1.47c.02.34.24.69.9.69.84 0 1.16-.53 1.43-1.74l.04-.17c-.36.47-.83.68-1.54.68-1.19 0-1.83-.9-1.83-2.21 0-1.68 1.05-3.53 2.8-3.53.85 0 1.31.32 1.46.68.05-.17.14-.45.19-.57h1.39c-.1.42-.21.94-.31 1.42Z" fill="#FF00A4"/><path clip-path="url(#b)" d="M420.85 48.14h1.45l-.29 1.41h-1.45Zm-.48 2.34h1.45l-1.17 5.7h-1.45Z" fill="#FF00A4"/><path clip-path="url(#b)" d="M422.14 56.17l1.64-8.03h1.45l-1.64 8.03Z" fill="#FF00A4"/><path clip-path="url(#b)" d="M426.72 48.14h1.45l-.29 1.41h-1.45Zm-.48 2.34h1.45l-1.17 5.7h-1.45Z" fill="#FF00A4"/><path clip-path="url(#b)" d="M428.61 50.48h.82l.32-1.54h1.44l-.31 1.54h1.04l-.25 1.14h-1.04l-.58 2.87c-.07.35-.04.59.39.59.17 0 .31-.01.47-.04l-.22 1.08c-.32.11-.68.11-.98.11-1.15 0-1.33-.68-1.13-1.68l.59-2.93h-.82Z" fill="#FF00A4"/><path clip-path="url(#b)" d="M433.95 50.48c.2 2.43.29 3.88.31 4.48h.01c.27-.63.91-2.1 2.04-4.48h1.51l-3 5.95c-.93 1.85-1.53 2.03-2.68 2.03-.15 0-.53-.03-.73-.07l.26-1.23c.1.02.26.05.48.05.67 0 .87-.28 1.09-.69l-.73-6.03Z" fill="#FF00A4"/><path clip-path="url(#b)" d="M436.39 57.35c.73-1.1 1.19-2.43 1.35-3.11h1.49c-.27 1.14-.93 2.4-1.6 3.11Z" fill="#FF00A4"/><path clip-path="url(#b)" d="M364.59 69.37h-1.18c-.01-.19.03-.6.07-.83-.5.68-1.14.93-2.05.93-1.72 0-2.59-1.3-2.59-3.07 0-2.24 1.29-4.74 4.01-4.74 1.74 0 2.75 1.04 2.76 2.44H364.1c-.04-.56-.39-1.2-1.43-1.2-1.59 0-2.27 1.9-2.27 3.39 0 1.16.45 1.93 1.48 1.93 1.24 0 1.61-.84 1.79-1.74l.01-.03h-1.7l.28-1.36h3.12Z" fill="#FF00A4"/><path clip-path="url(#b)" d="M366.07 69.37l1.64-8.03h1.45l-1.64 8.03Z" fill="#FF00A4"/><path clip-path="url(#b)" d="M370.73 67.14c0 .79.32 1.18.89 1.18 1.04 0 1.45-1.49 1.45-2.46 0-.74-.3-1.13-.9-1.13-1 0-1.43 1.48-1.43 2.41m3.83-1.13c0 1.34-.76 3.47-3.09 3.47-1.53 0-2.24-.96-2.24-2.35 0-1.53.94-3.56 3.05-3.56 1.32 0 2.29.77 2.29 2.44" fill="#FF00A4"/><path clip-path="url(#b)" d="M379.51 65.86c0-.71-.3-1.07-.91-1.07-.75 0-1.26.57-1.48 1.77-.21 1.11.04 1.7.85 1.7 1.12 0 1.54-1.46 1.54-2.39m-2.71-4.52h1.45l-.61 2.97c.34-.43.86-.74 1.61-.74 1.15 0 1.77.9 1.77 2.14 0 1.74-.93 3.77-2.97 3.77-.76 0-1.18-.3-1.35-.64-.04.16-.09.41-.14.54h-1.42c.08-.38.19-.88.31-1.46Z" fill="#FF00A4"/><path clip-path="url(#b)" d="M385.19 66.81c-.36 0-.67.03-.95.07-.81.12-1.13.4-1.13.88 0 .33.21.58.67.58 1 0 1.25-.84 1.39-1.44Zm1.2 1.16c-.12.59-.24 1.23-.25 1.4h-1.41c.01-.16.05-.46.08-.64-.28.36-.64.75-1.67.75-1.09 0-1.54-.79-1.54-1.46 0-1.58 1.34-2.01 2.56-2.14.46-.05.89-.05 1.23-.06l.05-.27c.08-.41.08-.95-.7-.95-.69 0-.81.39-.94.66h-1.48c.21-.91.82-1.7 2.54-1.7 1.34 0 2.33.57 2.02 2.07Z" fill="#FF00A4"/><path clip-path="url(#b)" d="M387.61 69.37l1.64-8.03h1.45l-1.64 8.03Z" fill="#FF00A4"/><path clip-path="url(#b)" d="M395 67.04c.06.77.53 1.25 1.46 1.25.8 0 1.25-.3 1.25-.99 0-.59-.35-.9-1.33-1.25-1.49-.53-2.05-1.15-2.05-2.1 0-1.22.84-2.27 2.7-2.27 1.7 0 2.63.91 2.66 2.24h-1.53c-.03-.46-.23-1.03-1.2-1.03-.62 0-1.08.29-1.08.88 0 .42.23.69 1.18 1.03 1.49.54 2.23 1.15 2.23 2.3 0 1.21-.71 2.38-2.97 2.38-1.83 0-2.8-.96-2.84-2.44Z" fill="#FF00A4"/><path clip-path="url(#b)" d="M400.59 63.68h.82l.32-1.54h1.44l-.31 1.54h1.04l-.25 1.14h-1.04l-.58 2.87c-.07.35-.04.59.39.59.17 0 .31-.01.47-.04l-.22 1.08c-.32.11-.68.11-.98.11-1.15 0-1.33-.68-1.13-1.67l.59-2.93h-.82Z" fill="#FF00A4"/><path clip-path="url(#b)" d="M407.36 66.81c-.36 0-.67.03-.95.07-.81.12-1.13.4-1.13.88 0 .33.21.58.67.58 1 0 1.25-.84 1.39-1.44Zm1.2 1.16c-.12.59-.24 1.23-.25 1.4h-1.41c.01-.16.05-.46.08-.64-.28.36-.64.75-1.67.75-1.09 0-1.54-.79-1.54-1.46 0-1.58 1.34-2.01 2.56-2.14.46-.05.89-.05 1.23-.06l.05-.27c.08-.41.08-.95-.7-.95-.69 0-.81.39-.94.66H404.5c.21-.91.82-1.7 2.53-1.7 1.34 0 2.33.57 2.02 2.07Z" fill="#FF00A4"/><path clip-path="url(#b)" d="M410.64 65.12c.1-.48.2-.96.28-1.44h1.42c-.01.16-.08.57-.11.71.26-.35.74-.83 1.66-.83 1.09 0 1.71.68 1.36 2.36l-.7 3.44h-1.44l.7-3.46c.14-.64 0-1.1-.62-1.1-.71 0-1.15.55-1.37 1.61l-.6 2.95h-1.45Z" fill="#FF00A4"/><path clip-path="url(#b)" d="M417.79 67.05c0 .76.29 1.18.9 1.18.88 0 1.35-.77 1.56-1.93.18-.97-.08-1.5-.89-1.5-1.02 0-1.56 1.23-1.56 2.25m4.86-5.71l-1.32 6.49c-.11.52-.22 1.03-.31 1.54h-1.4c.01-.21.04-.39.09-.67-.35.51-.87.78-1.6.78-1.18 0-1.83-.86-1.83-2.26 0-1.74 1.02-3.66 2.93-3.66.79 0 1.29.33 1.42.6l.58-2.82Z" fill="#FF00A4"/><path clip-path="url(#b)" d="M426.1 66.81c-.36 0-.67.03-.95.07-.81.12-1.13.4-1.13.88 0 .33.21.58.67.58 1 0 1.25-.84 1.39-1.44Zm1.2 1.16c-.12.59-.24 1.23-.25 1.4h-1.41c.01-.16.05-.46.08-.64-.28.36-.64.75-1.67.75-1.09 0-1.54-.79-1.54-1.46 0-1.58 1.34-2.01 2.56-2.14.46-.05.89-.05 1.23-.06l.05-.27c.08-.41.08-.95-.7-.95-.69 0-.82.39-.94.66h-1.48c.21-.91.82-1.7 2.53-1.7 1.34 0 2.33.57 2.02 2.07Z" fill="#FF00A4"/><path clip-path="url(#b)" d="M429.34 65.36c.12-.56.22-1.16.32-1.69h1.4c-.01.14-.06.57-.16 1.03.38-.68.88-1.14 1.84-1.14l-.3 1.5c-1.01.01-1.71.58-1.97 1.83l-.51 2.47h-1.45Z" fill="#FF00A4"/><path clip-path="url(#b)" d="M434.42 67.05c0 .76.29 1.18.9 1.18.88 0 1.35-.77 1.56-1.93.18-.97-.08-1.5-.89-1.5-1.01 0-1.56 1.23-1.56 2.25m4.86-5.71l-1.32 6.49c-.11.52-.22 1.03-.31 1.54h-1.4c.01-.21.04-.39.09-.67-.35.51-.87.78-1.6.78-1.18 0-1.83-.86-1.83-2.26 0-1.74 1.02-3.66 2.93-3.66.79 0 1.29.33 1.42.6l.58-2.82Z" fill="#FF00A4"/><path clip-path="url(#b)" d="M440.63 67.61c.04.49.35.76.95.76.57 0 .79-.27.79-.64 0-.36-.29-.54-.98-.77-1.29-.41-1.69-.87-1.69-1.58 0-1.03.78-1.82 2.24-1.82 1.53 0 2.22.81 2.18 1.71h-1.47c-.02-.31-.17-.61-.79-.61-.36 0-.72.12-.72.52 0 .3.29.42.97.64 1.29.42 1.73.94 1.73 1.73 0 1.31-1.14 1.91-2.45 1.91-1.47 0-2.32-.68-2.26-1.87Z" fill="#FF00A4"/><path clip-path="url(#b)" d="M9.49 17.23c0 4.41.57 8.69 4.09 8.69 3.47 0 3.99-4.04 3.99-8.78 0-4.59-.61-8.52-3.92-8.52-3.3 0-4.16 3.46-4.16 8.61m12.59-.11c0 6.29-1.87 12.43-8.55 12.43C6.96 29.55 5 23.69 5 17.27 5 10.92 7.17 5 13.64 5c6.32 0 8.44 5.62 8.44 12.12"/><path clip-path="url(#b)" d="M30 29.12V10.65c-1.09.63-3.17 1.24-4.35 1.38V8.63c2.04-.44 4.24-1.74 5.64-3.25h3.11V29.12Z"/><path clip-path="url(#b)" d="M39.34 29.12h4.63V23.14H39.34Z" fill-rule="evenodd"/><path clip-path="url(#b)" d="M173.42 17.23c0 4.41.57 8.69 4.09 8.69 3.47 0 3.99-4.04 3.99-8.78 0-4.59-.61-8.52-3.92-8.52-3.3 0-4.16 3.46-4.16 8.61m12.59-.11c0 6.29-1.87 12.43-8.55 12.43-6.57 0-8.54-5.86-8.54-12.27 0-6.35 2.17-12.27 8.64-12.27 6.32 0 8.44 5.62 8.44 12.12"/><path clip-path="url(#b)" d="M189.56 29.12v-.29c0-3.89 1.93-7.3 6.81-11.03 3.39-2.6 4.38-3.47 4.38-5.73 0-2.16-1.05-3.54-3.27-3.54-2.43 0-3.41 1.45-3.78 3.79h-4.2c.36-4.06 2.91-7.34 7.98-7.34 5.64 0 7.65 3.55 7.65 7.02 0 3.49-1.45 5.07-5.68 8.24-2.94 2.21-4.27 3.75-4.72 5.07H206l-.56 3.78Z"/><path clip-path="url(#b)" d="M210.27 29.12h4.63V23.14h-4.63Z" fill-rule="evenodd"/><path clip-path="url(#b)" d="M338.6 17.23c0 4.41.58 8.69 4.09 8.69 3.47 0 3.99-4.04 3.99-8.78 0-4.59-.61-8.52-3.92-8.52-3.3 0-4.16 3.46-4.16 8.61m12.59-.11c0 6.29-1.87 12.43-8.55 12.43-6.57 0-8.54-5.86-8.54-12.27 0-6.35 2.17-12.27 8.64-12.27 6.32 0 8.44 5.62 8.44 12.12"/><path clip-path="url(#b)" d="M354.93 11.36c.34-2.92 2.33-6.36 7.78-6.36 5.13 0 7.42 3.07 7.42 6.34 0 2.86-1.61 4.26-2.91 4.84v.1c1.68.6 3.84 2.17 3.84 5.8 0 3.54-2.1 7.47-8.39 7.47-5.84 0-7.98-3.69-8.26-6.83h4.23c.36 1.78 1.6 3.33 4.16 3.33 2.64 0 3.86-1.78 3.86-4.03 0-2.52-1.35-3.88-4.17-3.88h-1.92v-3.5h1.67c2.53 0 3.59-.93 3.59-3.08 0-1.8-1.09-3.02-3.26-3.02-2.47 0-3.18 1.4-3.5 2.82Z"/><path clip-path="url(#b)" d="M374.96 29.12h4.63V23.14h-4.63Z" fill-rule="evenodd"/></g></g></svg>