<?xml version="1.0" encoding="UTF-8"?><!DOCTYPE svg PUBLIC "-//W3C//DTD SVG 1.0//EN" "http://www.w3.org/TR/2001/REC-SVG-20010904/DTD/svg10.dtd" []><svg xmlns="http://www.w3.org/2000/svg" xmlns:xlink="http://www.w3.org/1999/xlink" height="36" stroke="#000" stroke-linecap="square" stroke-miterlimit="10" viewBox="0 0 281.49 35.84" width="281"><g><g fill="#FF00A4" stroke="none"><path d="M7.09 23.77c.75 3.33 2.97 5.29 7.09 5.29 4.57 0 6.32-2.28 6.32-4.99 0-2.83-1.26-4.57-6.77-5.93-5.36-1.34-7.65-3.08-7.65-6.71C6.07 8.09 8.5 5 13.91 5c5.57 0 7.91 3.39 8.24 6.46H20.06c-.57-2.67-2.31-4.61-6.26-4.61-3.6 0-5.57 1.67-5.57 4.46 0 2.75 1.64 3.82 6.27 4.97 7.09 1.76 8.15 4.6 8.15 7.64 0 3.73-2.72 6.93-8.56 6.93-6.3 0-8.62-3.66-9.1-7.07Z"/><path d="M29.73 5.36V20.61c0 6.65 3.75 8.38 7.29 8.38 4.19 0 7.29-1.76 7.29-8.38V5.36h2.05V20.5c0 7.9-4.19 10.34-9.42 10.34-4.98 0-9.31-2.69-9.31-10.02V5.36Z"/><path d="M53.06 23.77c.75 3.33 2.97 5.29 7.08 5.29 4.57 0 6.32-2.28 6.32-4.99 0-2.83-1.26-4.57-6.77-5.93-5.36-1.34-7.65-3.08-7.65-6.71C52.05 8.09 54.48 5 59.88 5c5.57 0 7.91 3.39 8.24 6.46H66.03c-.57-2.67-2.31-4.61-6.26-4.61-3.6 0-5.57 1.67-5.57 4.46 0 2.75 1.64 3.82 6.27 4.97 7.09 1.76 8.15 4.6 8.15 7.64 0 3.73-2.71 6.93-8.56 6.93-6.3 0-8.62-3.66-9.1-7.07Z"/><path d="M79.48 7.22H71.04V5.36H90V7.22H81.53V30.55H79.48Z"/><path d="M103.82 20.05c-2.78-7.44-4.22-11.03-4.72-12.74h-.04c-.61 1.92-2.22 6.37-4.47 12.74ZM93.89 21.9l-3.18 8.65H88.66L97.9 5.36h2.4l9.63 25.19h-2.2l-3.25-8.65Z"/><path d="M114.73 30.55h2.02V5.36h-2.02Z" fill-rule="evenodd"/><path d="M124.48 30.55V5.36h2.96c3.9 6.04 13.04 20.02 14.62 22.76h.04c-.22-3.61-.18-7.33-.18-11.44V5.36h2.04V30.55h-2.74c-3.72-5.81-13.01-20.39-14.8-23.17h-.04c.18 3.29.15 6.99.15 11.56V30.55Z"/><path d="M164.01 20.05c-2.78-7.44-4.22-11.03-4.72-12.74h-.04c-.61 1.92-2.22 6.37-4.47 12.74Zm-9.93 1.86l-3.18 8.65h-2.05l9.23-25.19h2.4l9.63 25.19h-2.2l-3.25-8.65Z"/><path d="M176.9 28.7h7.04c3.3 0 6.04-1.65 6.04-5.32 0-3.18-2.04-5.35-7.06-5.35H176.9Zm6.2-12.53c4.32 0 5.96-1.61 5.96-4.5 0-2.47-1.72-4.46-5.22-4.46H176.9v8.96ZM174.92 5.36h8.83c4.85 0 7.43 2.57 7.43 6.19 0 2.98-1.79 4.92-3.87 5.51 1.8.51 4.77 2.27 4.77 6.21 0 5.02-3.77 7.27-8.18 7.27h-8.98Z"/><path d="M198.17 30.55h2.02V5.36h-2.02Z" fill-rule="evenodd"/><path d="M207.93 5.36h2.02V28.69h13.51l-.36 1.86H207.93Z"/><path d="M227.69 30.55h2.02V5.36h-2.02Z" fill-rule="evenodd"/><path d="M242.48 7.22h-8.44V5.36h18.97V7.22h-8.47V30.55h-2.05Z"/><path d="M264.95 30.55V21.1c0-.22-.07-.47-.15-.58L255.81 5.36h2.35c2.51 4.27 6.86 11.67 7.94 13.56 1.08-1.89 5.47-9.22 8.15-13.56h2.23l-9.38 15.3c-.07.14-.11.29-.11.54v9.35Z"/></g></g></svg>