<?xml version="1.0" encoding="UTF-8"?><!DOCTYPE svg PUBLIC "-//W3C//DTD SVG 1.0//EN" "http://www.w3.org/TR/2001/REC-SVG-20010904/DTD/svg10.dtd" []><svg xmlns="http://www.w3.org/2000/svg" xmlns:xlink="http://www.w3.org/1999/xlink" height="21" stroke="#000" stroke-linecap="square" stroke-miterlimit="10" viewBox="0 0 81.23 20.65" width="81"><g><g fill="#fff" fill-rule="evenodd" stroke="none"><path d="M17.46 13.54H12.84L12.87 5h4.55ZM8.99 5c.55.04 1.03.59 1.22 1.11l2.37 7.43H8.58c-.52-.11-1-.55-1.18-1.04L5 5.04V5Z"/><path d="M24.92 5.15l-2.48 7.61c-.22.41-.63.63-1 .78H17.38L19.82 6c.15-.41.52-.85.96-.96L21.23 5h3.73Z"/><path d="M64.77 12.21c-.74.59-2.07.7-2.88.18-.11-.18-.19-.37-.11-.59.18-.41.63-.44 1-.55.85-.07 1.74-.07 2.55-.37.07.52-.07 1.07-.55 1.33m1.52-4.25c-1.51-.81-3.84-.78-5.36.07-.55.37-.85.96-.89 1.59l1.85-.04.11-.33c.15-.48.67-.55 1.04-.67.85-.07 1.85-.15 2.29.63.11.22-.04.41-.15.55-.89.44-2 .37-3.03.52-.78.11-1.59.22-2.14.85-.26.37-.26.89-.19 1.29.26.92 1.26 1.18 2.07 1.29 1.22.07 2.51.07 3.4-.78.07.19.04.41.04.59h1.81c-.04-1.52.04-3.11-.04-4.62-.11-.37-.44-.74-.81-.96M56.64 9.4c.37.67.37 1.7-.07 2.29-.67.85-1.92.85-2.85.55-.44-.15-.89-.63-.96-1.07-.15-.63-.07-1.37.3-1.85.67-.85 1.92-.89 2.85-.55.3.15.59.37.74.63m-.52-2c-1.18-.11-2.44-.07-3.4.63-.04-.15 0-.33 0-.52H50.91v8.13h1.81V13.02c.37.33.81.52 1.29.59 1.55.11 3.25.15 4.29-1.11.67-1 .67-2.48.26-3.59-.44-.96-1.48-1.4-2.44-1.51M30.8 9.29c.11.18.15.41.18.67H26.92c.04-.44.33-.81.67-1.07.96-.52 2.51-.56 3.22.41m-.15-1.77c-1.81-.41-3.88-.18-5.1 1.33-.63.89-.7 2.37-.15 3.29 1.11 1.74 3.36 1.7 5.21 1.4.92-.18 2-.85 2.14-1.85l-1.88-.04-.04.15c-.59.85-1.81.85-2.77.63-.48-.11-1-.52-1.15-1.04 0-.15-.07-.3 0-.41l5.99-.04c.07-.78-.07-1.52-.44-2.11-.41-.7-1.11-1.11-1.81-1.33m42.58-.07c-1.85-.11-3.81.07-4.69 1.81-.37.89-.33 2.18.22 2.99 1.11 1.51 3.03 1.63 4.8 1.4 1.15-.15 2.4-.85 2.66-2.07H74.27c-.11.29-.44.63-.78.7-.96.29-2.29.33-2.99-.48-.48-.67-.44-1.66-.04-2.33.44-.56 1.03-.78 1.74-.81.81.04 1.66.11 1.99.93h2l-.07-.41c-.52-1.11-1.74-1.63-2.88-1.74m-34.74 0c-1.22-.07-2.55-.07-3.55.59-.67.41-.81 1.18-.7 1.92.11.41.52.74.89.85 1.07.3 2.18.33 3.29.52.33.04.7.04.96.37.11.15 0 .33-.04.48-.52.63-1.44.48-2.22.44-.48-.11-1.15-.37-1.26-.96H34.09v.22c.52 1.48 2.18 1.74 3.59 1.81 1.37 0 2.92-.11 3.47-1.48.07-.55.07-1.22-.44-1.59-1.22-.63-2.77-.55-4.18-.81-.18-.07-.44-.11-.55-.33-.07-.18 0-.41.11-.56.63-.59 1.74-.52 2.51-.29.3.18.67.52.67.89h1.77c0-.18-.04-.41-.11-.59-.44-.96-1.48-1.33-2.44-1.48ZM44.7 5.81H42.81V7.44c-.22.11-.55.04-.81.07V8.77h.81c.04 1.04-.04 2.14.07 3.14.11.78.85 1.4 1.59 1.55 1.37.33 3.18.41 4.36-.44.59-.41.74-1.03.7-1.74H47.76c.04.33-.07.59-.26.81-.44.55-1.26.44-1.88.37-.41-.07-.85-.44-.89-.85L44.7 8.81l.04-.04h4.88V7.51H44.73l-.04-.07Z"/></g></g></svg>