<?xml version="1.0" encoding="UTF-8"?><!DOCTYPE svg PUBLIC "-//W3C//DTD SVG 1.0//EN" "http://www.w3.org/TR/2001/REC-SVG-20010904/DTD/svg10.dtd" []><svg xmlns="http://www.w3.org/2000/svg" xmlns:xlink="http://www.w3.org/1999/xlink" height="20" stroke="#000" stroke-linecap="square" stroke-miterlimit="10" viewBox="0 0 381.52 20.42" width="382"><defs><clipPath id="a"><path d="M0 0V20.42H381.52V0Z"/></clipPath><clipPath clip-path="url(#a)" id="b"><path d="M-394.12 94.87H566v-540H-394.12Z"/></clipPath></defs><g><g fill="#fff" stroke="none"><path clip-path="url(#b)" d="M11.4 13.11h-.49c-.05-.09-.07-.48-.08-1.23-.28.53-.88 1.32-2.49 1.32C6.13 13.2 5 11.51 5 9.32 5 7.02 6.21 5.3 8.47 5.3c1.66 0 2.76.87 3 2.29h-.59C10.55 6.5 9.79 5.85 8.44 5.85c-1.93 0-2.81 1.5-2.81 3.44 0 1.76.85 3.36 2.73 3.36 1.93 0 2.46-1.25 2.46-2.96V9.6H8.34V9.05H11.4Z"/><path clip-path="url(#b)" d="M13.27 13.11h.55V5h-.55Z" fill-rule="evenodd"/><path clip-path="url(#b)" d="M15.88 10.36c0 1.31.7 2.36 1.87 2.36 1.19 0 1.86-.98 1.86-2.36 0-1.3-.66-2.37-1.88-2.37-1.25 0-1.85 1.05-1.85 2.37m4.31-.01c0 1.53-.85 2.89-2.49 2.89-1.48 0-2.41-1.22-2.41-2.88 0-1.57.87-2.88 2.46-2.88 1.46 0 2.43 1.15 2.43 2.87"/><path clip-path="url(#b)" d="M25.77 10.25c0-1.38-.68-2.26-1.73-2.26-1.38 0-1.86.94-1.86 2.38 0 1.3.43 2.36 1.79 2.36 1.11 0 1.79-.93 1.79-2.48M21.67 5h.55V8.53c.26-.55.8-1.06 1.88-1.06 1.3 0 2.26 1.07 2.26 2.76 0 1.74-.86 3-2.4 3-.92 0-1.45-.37-1.74-1 0 .35-.01.71-.02.87h-.54c.01-.63.01-1.25.01-1.88Z"/><path clip-path="url(#b)" d="M31.06 10.3H29.98c-1.22 0-1.98.32-1.98 1.27 0 .69.5 1.17 1.27 1.17 1.57 0 1.79-1.04 1.79-2.23Zm.54 1.76c0 .48.04.87.08 1.04h-.53c-.04-.13-.08-.37-.1-.85-.19.41-.67.98-1.8.98-1.28 0-1.83-.83-1.83-1.65 0-1.21.94-1.76 2.58-1.76h1.05V9.27c0-.55-.16-1.29-1.42-1.29-1.11 0-1.27.58-1.4 1.03h-.55c.07-.6.44-1.54 1.96-1.54 1.25 0 1.96.53 1.96 1.74Z"/><path clip-path="url(#b)" d="M33.52 13.11h.55V5h-.55Z" fill-rule="evenodd"/><path clip-path="url(#b)" d="M42.19 10.3H41.11c-1.22 0-1.98.32-1.98 1.27 0 .69.49 1.17 1.27 1.17 1.57 0 1.79-1.04 1.79-2.23Zm.54 1.76c0 .48.04.87.08 1.04h-.53c-.04-.13-.08-.37-.1-.85-.19.41-.67.98-1.8.98-1.28 0-1.83-.83-1.83-1.65 0-1.21.94-1.76 2.59-1.76h1.05V9.27c0-.55-.17-1.29-1.42-1.29-1.11 0-1.27.58-1.4 1.03h-.55c.07-.6.44-1.54 1.96-1.54 1.25 0 1.96.53 1.96 1.74Z"/><path clip-path="url(#b)" d="M44.8 10.34c0 1.31.69 2.26 1.75 2.26 1.38 0 1.79-.91 1.79-2.34 0-1.45-.44-2.26-1.76-2.26-1.26 0-1.78 1.09-1.78 2.34m4.06 2.4c0 1.76-.78 2.69-2.38 2.69-1.43 0-2.02-.8-2.16-1.64h.56c.2.76.83 1.12 1.62 1.12 1.43 0 1.83-.92 1.83-2.32v-.57c-.3.72-.84 1.1-1.84 1.1-1.29 0-2.28-1.04-2.28-2.75 0-1.85 1.06-2.88 2.35-2.88 1.12 0 1.61.53 1.76.97.01-.32.02-.7.03-.84h.52c0 .2-.02 1.07-.02 1.6Z"/><path clip-path="url(#b)" d="M54.38 9.94c-.01-1.09-.61-1.95-1.68-1.95-1.13 0-1.65.79-1.77 1.95Zm-3.49.48c.01 1.42.72 2.3 1.78 2.3 1.03 0 1.39-.58 1.58-1.03h.56c-.23.73-.81 1.55-2.17 1.55-1.67 0-2.32-1.44-2.32-2.84 0-1.57.78-2.93 2.39-2.93 1.69 0 2.23 1.46 2.23 2.5 0 .15 0 .31-.01.45Z"/><path clip-path="url(#b)" d="M56.4 8.99c0-.48 0-.95-.01-1.39h.54c.02.18.03.89.02 1.05.24-.56.69-1.18 1.83-1.18.98 0 1.85.55 1.85 2.07v3.56h-.55V9.63c0-.98-.41-1.62-1.37-1.62-1.31 0-1.76 1.09-1.76 2.29v2.8H56.4Z"/><path clip-path="url(#b)" d="M66.59 11.49c-.27.97-.9 1.75-2.14 1.75-1.38 0-2.35-1.02-2.35-2.86 0-1.51.8-2.9 2.42-2.9 1.4 0 1.97.99 2.07 1.76h-.56c-.17-.64-.58-1.24-1.52-1.24-1.17 0-1.83.99-1.83 2.37 0 1.31.62 2.36 1.77 2.36.8 0 1.29-.41 1.57-1.23Z"/><path clip-path="url(#b)" d="M68.09 7.61c1.11 3.15 1.6 4.44 1.78 5.04h.01c.22-.67.66-1.95 1.73-5.04h.57l-2.07 5.82c-.58 1.63-.98 1.99-1.97 1.99-.2 0-.33-.01-.51-.03v-.55c.17.02.32.03.5.03.79 0 1.05-.39 1.45-1.52l-2.1-5.74Z"/><path clip-path="url(#b)" d="M76.31 11.59c.19.72.69 1.14 1.56 1.14.98 0 1.38-.45 1.38-1.07 0-.63-.26-.93-1.5-1.23-1.42-.34-1.77-.77-1.77-1.5 0-.76.57-1.46 1.82-1.46s1.84.76 1.93 1.54h-.55c-.1-.46-.46-1.03-1.4-1.03-.96 0-1.23.47-1.23.91 0 .51.26.76 1.35 1.02 1.55.37 1.94.88 1.94 1.71 0 1-.82 1.62-1.97 1.62-1.25 0-1.96-.66-2.11-1.65Z"/><path clip-path="url(#b)" d="M80.45 7.61h1.02V5.89h.55V7.61h1.31v.52H82.02V11.7c0 .62.13.97.66.97.17 0 .4-.01.57-.07v.48c-.19.08-.45.1-.68.1-.7 0-1.1-.35-1.1-1.23V8.13H80.45Z"/><path clip-path="url(#b)" d="M87.8 10.3H86.72c-1.22 0-1.98.32-1.98 1.27 0 .69.5 1.17 1.27 1.17 1.57 0 1.79-1.04 1.79-2.23Zm.54 1.76c0 .48.04.87.08 1.04h-.53c-.04-.13-.08-.37-.1-.85-.19.41-.67.98-1.8.98-1.28 0-1.83-.83-1.83-1.65 0-1.21.94-1.76 2.58-1.76h1.05V9.27c0-.55-.17-1.29-1.42-1.29-1.11 0-1.28.58-1.4 1.03h-.55c.07-.6.44-1.54 1.96-1.54 1.25 0 1.96.53 1.96 1.74Z"/><path clip-path="url(#b)" d="M90.26 8.99c0-.48 0-.95-.01-1.39h.54c.02.18.03.89.02 1.05.24-.56.69-1.18 1.83-1.18.98 0 1.85.55 1.85 2.07v3.56h-.55V9.63c0-.98-.41-1.62-1.36-1.62-1.31 0-1.76 1.09-1.76 2.29v2.8h-.55Z"/><path clip-path="url(#b)" d="M96.54 10.4c0 1.51.78 2.32 1.73 2.32 1.45 0 1.85-1 1.85-2.5 0-1.42-.34-2.23-1.75-2.23-1.09 0-1.83.87-1.83 2.41m4.1-5.4v6.52c0 .53 0 1.03.01 1.58h-.53c-.02-.13-.03-.65-.03-.92-.28.67-.89 1.06-1.85 1.06-1.43 0-2.29-1.17-2.29-2.82 0-1.69.94-2.95 2.43-2.95 1.1 0 1.54.47 1.7.83V5Z"/><path clip-path="url(#b)" d="M105.72 10.3h-1.08c-1.22 0-1.98.32-1.98 1.27 0 .69.5 1.17 1.27 1.17 1.57 0 1.79-1.04 1.79-2.23Zm.54 1.76c0 .48.04.87.08 1.04h-.53c-.04-.13-.08-.37-.1-.85-.19.41-.67.98-1.8.98-1.28 0-1.83-.83-1.83-1.65 0-1.21.94-1.76 2.59-1.76h1.05V9.27c0-.55-.17-1.29-1.42-1.29-1.11 0-1.27.58-1.4 1.03h-.55c.07-.6.44-1.54 1.96-1.54 1.25 0 1.96.53 1.96 1.74Z"/><path clip-path="url(#b)" d="M108.18 9.1c0-.92-.01-1.32-.01-1.5h.54c.01.18.02.53.02 1.23.32-.83 1.02-1.32 1.91-1.36v.59c-1.14.08-1.91.87-1.91 2.18v2.86h-.55Z"/><path clip-path="url(#b)" d="M111.91 10.4c0 1.51.78 2.32 1.73 2.32 1.45 0 1.85-1 1.85-2.5 0-1.42-.34-2.23-1.75-2.23-1.09 0-1.83.87-1.83 2.41m4.1-5.4v6.52c0 .53 0 1.03.01 1.58h-.53c-.02-.13-.03-.65-.03-.92-.28.67-.89 1.06-1.85 1.06-1.43 0-2.29-1.17-2.29-2.82 0-1.69.94-2.95 2.43-2.95 1.1 0 1.54.47 1.71.83V5Z"/><path clip-path="url(#b)" d="M117.87 11.59c.19.72.69 1.14 1.56 1.14.98 0 1.38-.45 1.38-1.07 0-.63-.27-.93-1.5-1.23-1.42-.34-1.77-.77-1.77-1.5 0-.76.57-1.46 1.82-1.46s1.84.76 1.92 1.54h-.55c-.1-.46-.46-1.03-1.4-1.03-.96 0-1.23.47-1.23.91 0 .51.26.76 1.35 1.02 1.55.37 1.94.88 1.94 1.71 0 1-.82 1.62-1.97 1.62-1.25 0-1.96-.66-2.11-1.65Z"/><path clip-path="url(#b)" d="M125.85 7.61c.81 2.84 1.29 4.47 1.38 4.95h.01c.09-.44.64-2.17 1.5-4.95h.59c1.02 3.4 1.33 4.38 1.43 4.81h.01c.15-.61.41-1.43 1.42-4.81h.58l-1.74 5.5h-.61c-.59-1.95-1.31-4.33-1.42-4.84h-.01c-.11.54-.74 2.51-1.45 4.84h-.66l-1.62-5.5Z"/><path clip-path="url(#b)" d="M134.04 7.61h.55v5.5h-.55Zm0-2.61h.55V6.07h-.55Z"/><path clip-path="url(#b)" d="M135.76 7.61h1.02V5.89h.55V7.61h1.31v.52h-1.31V11.7c0 .62.13.97.66.97.16 0 .4-.01.57-.07v.48c-.19.08-.45.1-.68.1-.7 0-1.1-.35-1.1-1.23V8.13h-1.02Z"/><path clip-path="url(#b)" d="M140.39 5V8.53c.31-.57.85-1.06 1.82-1.06.78 0 1.86.4 1.86 2.13v3.5h-.55V9.72c0-1.09-.49-1.7-1.41-1.7-1.09 0-1.72.67-1.72 2.02v3.07h-.55V5Z"/><path clip-path="url(#b)" d="M153.05 10.25c0-1.38-.68-2.26-1.73-2.26-1.38 0-1.86.94-1.86 2.38 0 1.3.43 2.36 1.79 2.36 1.11 0 1.79-.93 1.79-2.48M148.95 5h.55V8.53c.26-.55.8-1.06 1.88-1.06 1.3 0 2.26 1.07 2.26 2.76 0 1.74-.86 3-2.4 3-.92 0-1.45-.37-1.74-1 0 .35-.01.71-.02.87h-.54c.01-.63.01-1.25.01-1.88Z"/><path clip-path="url(#b)" d="M155.31 10.36c0 1.31.7 2.36 1.87 2.36 1.19 0 1.86-.98 1.86-2.36 0-1.3-.66-2.37-1.88-2.37-1.25 0-1.85 1.05-1.85 2.37m4.31-.01c0 1.53-.85 2.89-2.49 2.89-1.49 0-2.41-1.22-2.41-2.88 0-1.57.87-2.88 2.46-2.88 1.46 0 2.43 1.15 2.43 2.87"/><path clip-path="url(#b)" d="M165.22 11.5c0 .54.01 1.4.01 1.61h-.53c-.02-.14-.03-.51-.03-.96-.23.65-.79 1.09-1.77 1.09-.79 0-1.8-.31-1.8-1.99V7.61h.54v3.51c0 .8.25 1.58 1.34 1.58 1.23 0 1.69-.69 1.69-2.27V7.61h.55Z"/><path clip-path="url(#b)" d="M166.43 7.61h1.02V5.89h.55V7.61h1.31v.52h-1.31V11.7c0 .62.13.97.66.97.17 0 .4-.01.57-.07v.48c-.19.08-.45.1-.68.1-.7 0-1.1-.35-1.1-1.23V8.13h-1.02Z"/><path clip-path="url(#b)" d="M170.55 7.61h.55v5.5h-.55Zm0-2.61h.55V6.07h-.55Z"/><path clip-path="url(#b)" d="M173.16 10.39c0 1.2.57 2.33 1.78 2.33 1.36 0 1.8-.91 1.8-2.4 0-1.45-.37-2.32-1.76-2.32-1.18 0-1.83 1-1.83 2.39m3.57 1.78c-.26.63-.78 1.07-1.88 1.07-1.27 0-2.27-1.05-2.27-2.82 0-1.9 1.12-2.95 2.41-2.95 1.12 0 1.61.55 1.74.96-.01-.24.01-.54.02-.82h.53c-.01.65-.01 1.02-.01 1.53v6.17h-.54Z"/><path clip-path="url(#b)" d="M183.29 11.5c0 .54.01 1.4.01 1.61h-.53c-.02-.14-.03-.51-.03-.96-.23.65-.79 1.09-1.77 1.09-.79 0-1.8-.31-1.8-1.99V7.61h.54v3.51c0 .8.25 1.58 1.34 1.58 1.23 0 1.69-.69 1.69-2.27V7.61h.55Z"/><path clip-path="url(#b)" d="M188.81 9.94c-.01-1.09-.61-1.95-1.68-1.95-1.13 0-1.65.79-1.77 1.95Zm-3.49.48c.01 1.42.73 2.3 1.78 2.3 1.03 0 1.39-.58 1.58-1.03h.56c-.23.73-.82 1.55-2.17 1.55-1.67 0-2.32-1.44-2.32-2.84 0-1.57.78-2.93 2.39-2.93 1.69 0 2.23 1.46 2.23 2.5 0 .15 0 .31-.01.45Z"/><path clip-path="url(#b)" d="M197.04 10.3h-1.08c-1.22 0-1.98.32-1.98 1.27 0 .69.49 1.17 1.27 1.17 1.57 0 1.79-1.04 1.79-2.23Zm.54 1.76c0 .48.04.87.08 1.04h-.53c-.04-.13-.08-.37-.1-.85-.19.41-.67.98-1.8.98-1.28 0-1.83-.83-1.83-1.65 0-1.21.94-1.76 2.59-1.76h1.05V9.27c0-.55-.16-1.29-1.42-1.29-1.11 0-1.28.58-1.4 1.03h-.55c.07-.6.44-1.54 1.96-1.54 1.25 0 1.96.53 1.96 1.74Z"/><path clip-path="url(#b)" d="M199.64 10.34c0 1.31.69 2.26 1.75 2.26 1.38 0 1.79-.91 1.79-2.34 0-1.45-.44-2.26-1.76-2.26-1.26 0-1.78 1.09-1.78 2.34m4.06 2.4c0 1.76-.78 2.69-2.38 2.69-1.43 0-2.03-.8-2.16-1.64h.56c.2.76.83 1.12 1.62 1.12 1.43 0 1.83-.92 1.83-2.32v-.57c-.3.72-.84 1.1-1.84 1.1-1.29 0-2.28-1.04-2.28-2.75 0-1.85 1.06-2.88 2.35-2.88 1.12 0 1.61.53 1.76.97.01-.32.02-.7.03-.84h.52c0 .2-.02 1.07-.02 1.6Z"/><path clip-path="url(#b)" d="M205.62 7.61h.55v5.5h-.55Zm0-2.61h.55V6.07h-.55Z"/><path clip-path="url(#b)" d="M208.08 13.11h.55V5h-.55Z" fill-rule="evenodd"/><path clip-path="url(#b)" d="M210.54 7.61h.55v5.5h-.55Zm0-2.61h.55V6.07h-.55Z"/><path clip-path="url(#b)" d="M212.26 7.61h1.02V5.89h.55V7.61h1.31v.52h-1.31V11.7c0 .62.13.97.66.97.16 0 .4-.01.57-.07v.48c-.19.08-.45.1-.68.1-.7 0-1.1-.35-1.1-1.23V8.13h-1.02Z"/><path clip-path="url(#b)" d="M216.56 7.61c1.11 3.15 1.6 4.44 1.78 5.04h.01c.22-.67.66-1.95 1.73-5.04h.57l-2.07 5.82c-.58 1.63-.98 1.99-1.97 1.99-.2 0-.33-.01-.51-.03v-.55c.16.02.32.03.49.03.79 0 1.05-.39 1.45-1.52l-2.1-5.74Z"/><path clip-path="url(#b)" d="M228.02 10.3h-1.08c-1.22 0-1.98.32-1.98 1.27 0 .69.5 1.17 1.27 1.17 1.57 0 1.79-1.04 1.79-2.23Zm.54 1.76c0 .48.04.87.08 1.04h-.53c-.04-.13-.08-.37-.1-.85-.19.41-.67.98-1.8.98-1.28 0-1.83-.83-1.83-1.65 0-1.21.94-1.76 2.59-1.76h1.05V9.27c0-.55-.16-1.29-1.42-1.29-1.11 0-1.27.58-1.4 1.03h-.55c.07-.6.44-1.54 1.96-1.54 1.25 0 1.96.53 1.96 1.74Z"/><path clip-path="url(#b)" d="M230.49 8.99c0-.48 0-.95-.01-1.39h.54c.02.18.03.89.02 1.05.24-.56.69-1.18 1.83-1.18.98 0 1.85.55 1.85 2.07v3.56h-.55V9.63c0-.98-.41-1.62-1.36-1.62-1.31 0-1.76 1.09-1.76 2.29v2.8h-.55Z"/><path clip-path="url(#b)" d="M236.77 10.4c0 1.51.78 2.32 1.73 2.32 1.45 0 1.85-1 1.85-2.5 0-1.42-.34-2.23-1.75-2.23-1.09 0-1.83.87-1.83 2.41m4.1-5.4v6.52c0 .53 0 1.03.01 1.58h-.53c-.02-.13-.03-.65-.03-.92-.28.67-.89 1.06-1.85 1.06-1.43 0-2.29-1.17-2.29-2.82 0-1.69.94-2.95 2.43-2.95 1.1 0 1.54.47 1.7.83V5Z"/><path clip-path="url(#b)" d="M245.76 11.59c.19.72.69 1.14 1.56 1.14.98 0 1.38-.45 1.38-1.07 0-.63-.26-.93-1.5-1.23-1.42-.34-1.77-.77-1.77-1.5 0-.76.57-1.46 1.82-1.46s1.84.76 1.93 1.54h-.55c-.1-.46-.46-1.03-1.4-1.03-.96 0-1.23.47-1.23.91 0 .51.27.76 1.35 1.02 1.55.37 1.94.88 1.94 1.71 0 1-.82 1.62-1.97 1.62-1.25 0-1.96-.66-2.11-1.65Z"/><path clip-path="url(#b)" d="M254.78 10.24c0-1.28-.62-2.23-1.71-2.23-1.33 0-1.88.84-1.88 2.33 0 1.47.43 2.39 1.81 2.39 1.14 0 1.78-.97 1.78-2.49m-3.55 2.06v3.01h-.55V8.96c0-.45 0-.94-.01-1.35h.54c.02.21.02.54.02.99.34-.66.95-1.12 1.94-1.12 1.3 0 2.2 1.09 2.2 2.74 0 1.98-1.06 3.03-2.39 3.03-.97 0-1.47-.43-1.75-.95"/><path clip-path="url(#b)" d="M260.52 9.94c-.01-1.09-.61-1.95-1.68-1.95-1.13 0-1.65.79-1.77 1.95Zm-3.49.48c.01 1.42.73 2.3 1.78 2.3 1.03 0 1.39-.58 1.58-1.03h.56c-.23.73-.81 1.55-2.17 1.55-1.67 0-2.32-1.44-2.32-2.84 0-1.57.78-2.93 2.39-2.93 1.69 0 2.23 1.46 2.23 2.5 0 .15 0 .31-.01.45Z"/><path clip-path="url(#b)" d="M266.64 11.49c-.27.97-.9 1.75-2.14 1.75-1.38 0-2.35-1.02-2.35-2.86 0-1.51.8-2.9 2.42-2.9 1.4 0 1.97.99 2.07 1.76h-.56c-.17-.64-.58-1.24-1.52-1.24-1.17 0-1.83.99-1.83 2.37 0 1.31.62 2.36 1.77 2.36.8 0 1.29-.41 1.57-1.23Z"/><path clip-path="url(#b)" d="M268.17 7.61h.55v5.5h-.55Zm0-2.61h.55V6.07h-.55Z"/><path clip-path="url(#b)" d="M273.79 10.3h-1.08c-1.22 0-1.98.32-1.98 1.27 0 .69.49 1.17 1.27 1.17 1.57 0 1.79-1.04 1.79-2.23Zm.54 1.76c0 .48.04.87.08 1.04h-.53c-.04-.13-.08-.37-.1-.85-.19.41-.67.98-1.8.98-1.28 0-1.83-.83-1.83-1.65 0-1.21.94-1.76 2.59-1.76h1.05V9.27c0-.55-.17-1.29-1.42-1.29-1.11 0-1.27.58-1.4 1.03h-.55c.07-.6.44-1.54 1.96-1.54 1.25 0 1.96.53 1.96 1.74Z"/><path clip-path="url(#b)" d="M276.26 13.11h.55V5h-.55Z" fill-rule="evenodd"/><path clip-path="url(#b)" d="M278.72 7.61h.55v5.5h-.55Zm0-2.61h.55V6.07h-.55Z"/><path clip-path="url(#b)" d="M281.13 11.59c.19.72.69 1.14 1.56 1.14.98 0 1.38-.45 1.38-1.07 0-.63-.27-.93-1.5-1.23-1.42-.34-1.77-.77-1.77-1.5 0-.76.57-1.46 1.82-1.46s1.84.76 1.92 1.54h-.55c-.1-.46-.46-1.03-1.4-1.03-.96 0-1.23.47-1.23.91 0 .51.27.76 1.35 1.02 1.55.37 1.94.88 1.94 1.71 0 1-.82 1.62-1.97 1.62-1.25 0-1.96-.66-2.11-1.65Z"/><path clip-path="url(#b)" d="M285.26 7.61h1.02V5.89h.55V7.61h1.31v.52h-1.31V11.7c0 .62.13.97.66.97.16 0 .4-.01.57-.07v.48c-.19.08-.45.1-.68.1-.7 0-1.1-.35-1.1-1.23V8.13h-1.02Z"/><path clip-path="url(#b)" d="M289 10.57h2.77v-.54H289Z" fill-rule="evenodd"/><path clip-path="url(#b)" d="M293.45 13.11H294V5h-.55Z" fill-rule="evenodd"/><path clip-path="url(#b)" d="M299.52 9.94c-.01-1.09-.61-1.95-1.68-1.95-1.13 0-1.65.79-1.77 1.95Zm-3.49.48c.01 1.42.72 2.3 1.78 2.3 1.03 0 1.39-.58 1.58-1.03h.56c-.23.73-.81 1.55-2.17 1.55-1.67 0-2.32-1.44-2.32-2.84 0-1.57.78-2.93 2.39-2.93 1.69 0 2.23 1.46 2.23 2.5 0 .15 0 .31-.01.45Z"/><path clip-path="url(#b)" d="M301.74 10.4c0 1.51.78 2.32 1.73 2.32 1.45 0 1.85-1 1.85-2.5 0-1.42-.34-2.23-1.75-2.23-1.09 0-1.83.87-1.83 2.41m4.1-5.4v6.52c0 .53 0 1.03.01 1.58h-.53c-.02-.13-.03-.65-.03-.92-.28.67-.89 1.06-1.85 1.06-1.43 0-2.29-1.17-2.29-2.82 0-1.69.94-2.95 2.43-2.95 1.1 0 1.54.47 1.71.83V5Z"/><path clip-path="url(#b)" d="M313.97 10.3h-1.08c-1.22 0-1.98.32-1.98 1.27 0 .69.5 1.17 1.27 1.17 1.57 0 1.79-1.04 1.79-2.23Zm.54 1.76c0 .48.04.87.08 1.04h-.53c-.04-.13-.08-.37-.1-.85-.19.41-.67.98-1.8.98-1.28 0-1.83-.83-1.83-1.65 0-1.21.94-1.76 2.59-1.76h1.05V9.27c0-.55-.17-1.29-1.42-1.29-1.11 0-1.27.58-1.4 1.03h-.55c.07-.6.44-1.54 1.96-1.54 1.25 0 1.96.53 1.96 1.74Z"/><path clip-path="url(#b)" d="M320.48 11.49c-.27.97-.9 1.75-2.14 1.75-1.38 0-2.35-1.02-2.35-2.86 0-1.51.8-2.9 2.42-2.9 1.4 0 1.97.99 2.07 1.76h-.56c-.16-.64-.58-1.24-1.52-1.24-1.17 0-1.83.99-1.83 2.37 0 1.31.62 2.36 1.77 2.36.8 0 1.29-.41 1.57-1.23Z"/><path clip-path="url(#b)" d="M325.97 11.49c-.27.97-.9 1.75-2.14 1.75-1.38 0-2.35-1.02-2.35-2.86 0-1.51.8-2.9 2.42-2.9 1.4 0 1.97.99 2.07 1.76h-.56c-.16-.64-.58-1.24-1.52-1.24-1.17 0-1.83.99-1.83 2.37 0 1.31.62 2.36 1.77 2.36.8 0 1.29-.41 1.57-1.23Z"/><path clip-path="url(#b)" d="M327.55 10.36c0 1.31.7 2.36 1.87 2.36 1.19 0 1.86-.98 1.86-2.36 0-1.3-.66-2.37-1.88-2.37-1.25 0-1.85 1.05-1.85 2.37m4.31-.01c0 1.53-.85 2.89-2.49 2.89-1.48 0-2.41-1.22-2.41-2.88 0-1.57.87-2.88 2.47-2.88 1.46 0 2.43 1.15 2.43 2.87"/><path clip-path="url(#b)" d="M337.45 11.5c0 .54.01 1.4.01 1.61h-.53c-.02-.14-.03-.51-.03-.96-.23.65-.79 1.09-1.77 1.09-.79 0-1.8-.31-1.8-1.99V7.61h.54v3.51c0 .8.25 1.58 1.34 1.58 1.23 0 1.69-.69 1.69-2.27V7.61h.55Z"/><path clip-path="url(#b)" d="M339.36 8.99c0-.48 0-.95-.01-1.39h.54c.02.18.03.89.02 1.05.24-.56.69-1.18 1.83-1.18.98 0 1.85.55 1.85 2.07v3.56h-.55V9.63c0-.98-.41-1.62-1.36-1.62-1.31 0-1.76 1.09-1.76 2.29v2.8h-.55Z"/><path clip-path="url(#b)" d="M344.64 7.61h1.02V5.89h.55V7.61h1.31v.52h-1.31V11.7c0 .62.13.97.66.97.17 0 .4-.01.57-.07v.48c-.19.08-.45.1-.68.1-.7 0-1.1-.35-1.1-1.23V8.13h-1.02Z"/><path clip-path="url(#b)" d="M351.99 10.3h-1.08c-1.22 0-1.98.32-1.98 1.27 0 .69.49 1.17 1.27 1.17 1.57 0 1.79-1.04 1.79-2.23Zm.54 1.76c0 .48.04.87.08 1.04h-.53c-.04-.13-.08-.37-.1-.85-.19.41-.67.98-1.8.98-1.28 0-1.83-.83-1.83-1.65 0-1.21.94-1.76 2.59-1.76h1.05V9.27c0-.55-.17-1.29-1.42-1.29-1.11 0-1.27.58-1.4 1.03h-.55c.07-.6.44-1.54 1.96-1.54 1.25 0 1.96.53 1.96 1.74Z"/><path clip-path="url(#b)" d="M358.56 10.25c0-1.38-.68-2.26-1.73-2.26-1.38 0-1.86.94-1.86 2.38 0 1.3.43 2.36 1.79 2.36 1.11 0 1.79-.93 1.79-2.48M354.46 5H355V8.53c.26-.55.8-1.06 1.88-1.06 1.3 0 2.26 1.07 2.26 2.76 0 1.74-.86 3-2.4 3-.92 0-1.45-.37-1.74-1 0 .35-.01.71-.02.87h-.54c.01-.63.01-1.25.01-1.88Z"/><path clip-path="url(#b)" d="M360.66 7.61h.55v5.5h-.55Zm0-2.61h.55V6.07h-.55Z"/><path clip-path="url(#b)" d="M363.12 13.11h.55V5h-.55Z" fill-rule="evenodd"/><path clip-path="url(#b)" d="M365.59 7.61h.55v5.5h-.55Zm0-2.61h.55V6.07h-.55Z"/><path clip-path="url(#b)" d="M367.3 7.61h1.02V5.89h.55V7.61h1.31v.52h-1.31V11.7c0 .62.13.97.66.97.17 0 .4-.01.57-.07v.48c-.19.08-.45.1-.68.1-.7 0-1.1-.35-1.1-1.23V8.13H367.3Z"/><path clip-path="url(#b)" d="M371.6 7.61c1.11 3.15 1.6 4.44 1.78 5.04h.01c.22-.67.66-1.95 1.73-5.04h.57l-2.07 5.82c-.58 1.63-.98 1.99-1.97 1.99-.2 0-.33-.01-.51-.03v-.55c.16.02.32.03.49.03.79 0 1.05-.39 1.45-1.52L371 7.61Z"/><path clip-path="url(#b)" d="M375.97 13.11h.55V11.69h-.55Z" fill-rule="evenodd"/></g></g></svg>