<?xml version="1.0" encoding="UTF-8"?><!DOCTYPE svg PUBLIC "-//W3C//DTD SVG 1.0//EN" "http://www.w3.org/TR/2001/REC-SVG-20010904/DTD/svg10.dtd" []><svg xmlns="http://www.w3.org/2000/svg" xmlns:xlink="http://www.w3.org/1999/xlink" height="92" stroke="#000" stroke-linecap="square" stroke-miterlimit="10" viewBox="0 0 699.95 91.92" width="700"><defs><clipPath id="a"><path d="M0 0V91.92H699.95V0Z"/></clipPath><clipPath clip-path="url(#a)" id="b"><path d="M-95.43 375.03H864.69V-165.09H-95.43Z"/></clipPath></defs><g><g fill="#FF00A4" stroke="#FF00A4"><path clip-path="url(#b)" d="M5 47.66H72.74V26.9H5Z" fill-rule="evenodd" stroke="none"/><path clip-path="url(#b)" d="M14.08 37.26H15.4c.8 0 1.37-.32 1.37-1.16 0-.85-.6-1.17-1.33-1.17H14.08ZM12.34 33.5h3.32c1.7 0 2.86.99 2.86 2.56 0 1.8-1.32 2.62-2.9 2.62H14.08v3.09H12.34Z" fill="#fff" stroke="none"/><path clip-path="url(#b)" d="M20.98 33.5h1.73v3.23h3.23V33.5h1.73v8.27H25.94V38.19H22.71v3.58H20.98Z" fill="#fff" stroke="none"/><path clip-path="url(#b)" d="M34.8 38.4c-.57-1.74-.93-2.86-1.12-3.6h-.01c-.2.82-.6 2.11-1.05 3.6Zm-2.56 1.47l-.63 1.91h-1.7l2.72-8.27h2.18l2.84 8.27H35.83l-.66-1.91Z" fill="#fff" stroke="none"/><path clip-path="url(#b)" d="M41.14 39.35c.18.83.76 1.19 1.69 1.19s1.32-.38 1.32-.98c0-.67-.39-.97-1.76-1.29-2.18-.53-2.72-1.35-2.72-2.46 0-1.44 1.04-2.42 2.94-2.42 2.13 0 2.98 1.18 3.09 2.39H43.96c-.08-.51-.36-1.06-1.39-1.06-.7 0-1.13.3-1.13.89 0 .57.34.81 1.63 1.12 2.33.57 2.84 1.46 2.84 2.63 0 1.51-1.11 2.55-3.23 2.55-2.04 0-3.11-1.03-3.3-2.54Z" fill="#fff" stroke="none"/><path clip-path="url(#b)" d="M53.87 38.21H50.04v2.1h4.23l-.21 1.46H48.36V33.5h5.68v1.47h-4v1.77h3.83Z" fill="#fff" stroke="none"/><path clip-path="url(#b)" d="M61.61 41.77v-5.9c-.36.17-1 .31-1.38.34V34.93c.73-.14 1.46-.56 1.9-1.06H63.3v7.9Z" fill="#fff" stroke="none"/><path clip-path="url(#b)" d="M603.65 25.76h67.74V5H603.65Z" fill-rule="evenodd" stroke="none"/><path clip-path="url(#b)" d="M612.76 58.48h2.65c1.57 0 2.41-.77 2.41-2.19 0-1.48-.99-2.19-2.35-2.19h-2.71Zm-1.81-5.92h4.67c2.4 0 4.03 1.39 4.03 3.68 0 2.49-1.75 3.77-4.12 3.77h-2.78v5.05h-1.81Z" fill="#fff" stroke="none"/><path clip-path="url(#b)" d="M622.56 60.48c0 1.96.92 3.35 2.44 3.35 1.54 0 2.41-1.32 2.41-3.34 0-2.03-.86-3.36-2.44-3.36-1.56 0-2.4 1.29-2.4 3.35m6.6-.02c0 2.67-1.49 4.82-4.22 4.82-2.58 0-4.13-2.03-4.13-4.78 0-2.73 1.53-4.82 4.24-4.82 2.49 0 4.12 1.9 4.12 4.78" fill="#fff" stroke="none"/><path clip-path="url(#b)" d="M632.33 62.42c.24.95.93 1.5 2.08 1.5 1.23 0 1.7-.53 1.7-1.31 0-.8-.4-1.17-2.01-1.58-2.6-.66-3.12-1.48-3.12-2.73 0-1.31.92-2.62 3.28-2.62s3.3 1.4 3.41 2.67h-1.65c-.12-.54-.51-1.33-1.83-1.33-1.16 0-1.51.57-1.51 1.13 0 .64.35.96 1.94 1.35 2.74.67 3.26 1.62 3.26 2.98 0 1.59-1.21 2.8-3.52 2.8-2.37 0-3.5-1.23-3.72-2.86Z" fill="#fff" stroke="none"/><path clip-path="url(#b)" d="M638.79 55.9h1.5V53.24H642V55.9h1.92v1.41H642v5.2c0 .85.21 1.27 1 1.27.2 0 .5-.01.73-.07v1.3c-.4.15-.95.17-1.39.17-1.45 0-2.05-.78-2.05-2.32V57.31h-1.5Z" fill="#fff" stroke="none"/><path clip-path="url(#b)" d="M645.35 61.24h4.63V59.66h-4.63Z" fill="#fff" fill-rule="evenodd" stroke="none"/><path clip-path="url(#b)" d="M660.26 59.31h-5.98V63.5h6.57l-.23 1.57h-8.1V52.56h8.01v1.57h-6.26v3.6h5.98Z" fill="#fff" stroke="none"/><path clip-path="url(#b)" d="M663.6 55.9c1.13 3.62 1.97 6.41 2.22 7.54h.02c.22-1.11 1.15-3.86 2.38-7.54h1.73l-3.24 9.17h-1.86l-3.08-9.17Z" fill="#fff" stroke="none"/><path clip-path="url(#b)" d="M677.08 59.62c-.02-1.42-.69-2.57-2.14-2.57-1.49 0-2.13 1.07-2.28 2.57Zm-4.47 1.2c.01 1.72.85 3.01 2.3 3.01 1.33 0 1.75-.68 2.03-1.33h1.72c-.34 1.16-1.3 2.78-3.8 2.78-2.82 0-3.98-2.33-3.98-4.69 0-2.76 1.35-4.9 4.08-4.9 2.9 0 3.85 2.35 3.85 4.37 0 .29 0 .51-.03.76Z" fill="#fff" stroke="none"/><path clip-path="url(#b)" d="M680.91 58.21c0-.79 0-1.61-.02-2.31h1.66c.04.26.07 1.16.07 1.44.34-.75 1.07-1.66 2.75-1.66s2.96 1.09 2.96 3.5v5.88h-1.71V59.4c0-1.32-.49-2.21-1.79-2.21-1.55 0-2.21 1.18-2.21 2.98v4.9h-1.71Z" fill="#fff" stroke="none"/><path clip-path="url(#b)" d="M689.83 55.9h1.5V53.24h1.71V55.9h1.92v1.41h-1.92v5.2c0 .85.21 1.27 1 1.27.2 0 .5-.01.73-.07v1.3c-.4.15-.95.17-1.39.17-1.45 0-2.05-.78-2.05-2.32V57.31h-1.5Z" fill="#fff" stroke="none"/><path clip-path="url(#b)" d="M618.68 80.91h-5.97V85.1h6.57l-.23 1.57h-8.1V74.16h8.01v1.57h-6.26v3.6h5.97Z" fill="#fff" stroke="none"/><path clip-path="url(#b)" d="M622.03 77.5c1.13 3.62 1.97 6.41 2.22 7.54h.02c.22-1.12 1.15-3.86 2.38-7.54h1.73l-3.24 9.17h-1.86l-3.08-9.17Z" fill="#fff" stroke="none"/><path clip-path="url(#b)" d="M634.86 82.26h-1.35c-1.71 0-2.58.5-2.58 1.71 0 .9.59 1.57 1.64 1.57 2.02 0 2.29-1.42 2.29-2.99Zm1.67 2.34c0 .84.07 1.81.12 2.07h-1.64c-.07-.2-.12-.64-.14-1.14-.31.59-1 1.36-2.69 1.36-2.1 0-2.99-1.41-2.99-2.82 0-2.05 1.57-3 4.2-3h1.47v-.74c0-.78-.25-1.7-1.8-1.7-1.4 0-1.64.7-1.79 1.41h-1.65c.12-1.33.92-2.77 3.5-2.76 2.21.01 3.43.93 3.43 3.03Z" fill="#fff" stroke="none"/><path clip-path="url(#b)" d="M639.26 86.67h1.71V73.46h-1.71Z" fill="#fff" fill-rule="evenodd" stroke="none"/><path clip-path="url(#b)" d="M650.94 84c0 .89.01 2.07.02 2.67h-1.67c-.04-.24-.05-.79-.06-1.31-.45 1-1.29 1.53-2.64 1.53-1.55 0-2.94-.84-2.94-3.36V77.5h1.7v5.64c0 1.17.35 2.23 1.75 2.23 1.53 0 2.13-.87 2.13-3.07V77.5h1.71Z" fill="#fff" stroke="none"/><path clip-path="url(#b)" d="M658.74 82.26h-1.35c-1.71 0-2.58.5-2.58 1.71 0 .9.59 1.57 1.64 1.57 2.03 0 2.29-1.42 2.29-2.99Zm1.67 2.34c0 .84.07 1.81.12 2.07H658.9c-.07-.2-.12-.64-.14-1.14-.31.59-1 1.36-2.69 1.36-2.1 0-2.99-1.41-2.99-2.82 0-2.05 1.57-3 4.2-3h1.47v-.74c0-.78-.25-1.7-1.8-1.7-1.39 0-1.64.7-1.79 1.41h-1.65c.12-1.33.92-2.77 3.5-2.76 2.21.01 3.43.93 3.43 3.03Z" fill="#fff" stroke="none"/><path clip-path="url(#b)" d="M661.92 77.5h1.5V74.84h1.71V77.5h1.92v1.41h-1.92v5.2c0 .85.21 1.27 1 1.27.2 0 .5-.01.73-.07v1.3c-.4.15-.95.17-1.39.17-1.45 0-2.05-.78-2.05-2.32V78.91h-1.5Z" fill="#fff" stroke="none"/><path clip-path="url(#b)" d="M668.79 77.5h1.71v9.17h-1.71Zm0-4.04h1.71v2.03h-1.71Z" fill="#fff" stroke="none"/><path clip-path="url(#b)" d="M674.36 82.09c0 1.96.93 3.35 2.44 3.35 1.54 0 2.41-1.33 2.41-3.34 0-2.03-.86-3.36-2.44-3.36-1.56 0-2.4 1.29-2.4 3.35m6.6-.02c0 2.67-1.49 4.82-4.22 4.82-2.58 0-4.13-2.03-4.13-4.78 0-2.73 1.53-4.82 4.24-4.82 2.49 0 4.12 1.91 4.12 4.78" fill="#fff" stroke="none"/><path clip-path="url(#b)" d="M683.07 79.81c0-.79 0-1.6-.02-2.31h1.66c.04.26.07 1.16.07 1.44.34-.75 1.07-1.66 2.75-1.66s2.96 1.09 2.96 3.5v5.88h-1.71V81c0-1.32-.49-2.21-1.79-2.21-1.55 0-2.21 1.18-2.21 2.98v4.9h-1.71Z" fill="#fff" stroke="none"/><path clip-path="url(#b)" d="M612.08 15.94h1.32c.8 0 1.37-.32 1.37-1.16s-.6-1.17-1.33-1.17h-1.36Zm-1.73-3.76h3.32c1.7 0 2.86.99 2.86 2.56 0 1.8-1.32 2.62-2.9 2.62h-1.54v3.09h-1.73Z" fill="#fff" stroke="none"/><path clip-path="url(#b)" d="M618.98 12.18h1.73v3.23h3.23V12.18h1.73v8.27h-1.73V16.87h-3.23v3.58h-1.73Z" fill="#fff" stroke="none"/><path clip-path="url(#b)" d="M632.8 17.08c-.57-1.75-.93-2.86-1.12-3.6h-.01c-.2.82-.6 2.11-1.05 3.6Zm-2.55 1.46l-.63 1.91h-1.7l2.72-8.27h2.18l2.84 8.27h-1.82l-.66-1.91Z" fill="#fff" stroke="none"/><path clip-path="url(#b)" d="M639.14 18.03c.18.83.76 1.19 1.69 1.19s1.32-.38 1.32-.98c0-.67-.39-.97-1.76-1.3-2.18-.53-2.72-1.35-2.72-2.46 0-1.44 1.05-2.42 2.94-2.42 2.13 0 2.98 1.18 3.09 2.39h-1.75c-.08-.51-.36-1.06-1.39-1.06-.7 0-1.13.3-1.13.89 0 .58.34.81 1.64 1.12 2.33.57 2.84 1.46 2.84 2.63 0 1.51-1.11 2.55-3.23 2.55-2.04 0-3.11-1.03-3.3-2.54Z" fill="#fff" stroke="none"/><path clip-path="url(#b)" d="M651.87 16.88h-3.83v2.1h4.23l-.21 1.46h-5.71V12.18h5.68v1.47h-4v1.77h3.83Z" fill="#fff" stroke="none"/><path clip-path="url(#b)" d="M661.56 15.88c0-.85 0-1.33.03-1.83-.3.66-1.3 2.16-2.02 3.23h1.99Zm0 4.57V18.68H658.1v-1.5l3.19-4.62h1.81v4.73h.92l-.15 1.39h-.77v1.77Z" fill="#fff" stroke="none"/><path clip-path="url(#b)" d="M72.74 37.28H173.2V15.38H377.01v21.9H576.74V15.38h32.64" fill="none" stroke-linecap="butt"/><path clip-path="url(#b)" d="M204.55 25.76h67.74V5H204.55Z" fill-rule="evenodd" stroke="none"/><path clip-path="url(#b)" d="M213.55 57.77h2.65c1.57 0 2.41-.77 2.41-2.19 0-1.48-.99-2.19-2.35-2.19h-2.71Zm-1.81-5.92h4.67c2.4 0 4.03 1.39 4.03 3.68 0 2.49-1.75 3.77-4.12 3.77h-2.78v5.05h-1.81Z" fill="#fff" stroke="none"/><path clip-path="url(#b)" d="M222.45 64.36h1.71V51.15h-1.71Z" fill="#fff" fill-rule="evenodd" stroke="none"/><path clip-path="url(#b)" d="M231.86 59.95h-1.35c-1.71 0-2.58.5-2.58 1.71 0 .9.59 1.56 1.64 1.56 2.02 0 2.29-1.42 2.29-2.99Zm1.67 2.34c0 .84.07 1.82.12 2.07h-1.64c-.07-.2-.12-.64-.14-1.14-.31.59-1 1.36-2.69 1.36-2.1 0-3-1.42-3-2.82 0-2.05 1.57-3 4.2-3h1.47v-.74c0-.78-.25-1.7-1.81-1.7-1.39 0-1.64.7-1.79 1.41H226.6c.12-1.33.92-2.77 3.5-2.76 2.21.01 3.43.93 3.43 3.03Z" fill="#fff" stroke="none"/><path clip-path="url(#b)" d="M236.26 57.5c0-.79 0-1.61-.02-2.31h1.66c.04.26.07 1.17.07 1.44.34-.75 1.07-1.66 2.75-1.66s2.96 1.09 2.96 3.5v5.88h-1.71V58.69c0-1.32-.49-2.21-1.79-2.21-1.55 0-2.21 1.18-2.21 2.97v4.9h-1.71Z" fill="#fff" stroke="none"/><path clip-path="url(#b)" d="M246.39 57.5c0-.79 0-1.61-.02-2.31h1.66c.04.26.07 1.17.07 1.44.34-.75 1.07-1.66 2.75-1.66s2.96 1.09 2.96 3.5v5.88H252.1V58.69c0-1.32-.49-2.21-1.79-2.21-1.55 0-2.21 1.18-2.21 2.97v4.9h-1.71Z" fill="#fff" stroke="none"/><path clip-path="url(#b)" d="M256.51 55.19h1.71v9.17h-1.71Zm0-4.04h1.71v2.03h-1.71Z" fill="#fff" stroke="none"/><path clip-path="url(#b)" d="M260.95 57.5c0-.79 0-1.61-.02-2.31h1.66c.04.26.07 1.17.07 1.44.34-.75 1.07-1.66 2.75-1.66s2.96 1.09 2.96 3.5v5.88h-1.71V58.69c0-1.32-.49-2.21-1.79-2.21-1.55 0-2.21 1.18-2.21 2.97v4.9h-1.71Z" fill="#fff" stroke="none"/><path clip-path="url(#b)" d="M272.23 59.71c0 1.86.93 3.1 2.31 3.1 1.83 0 2.36-1.27 2.36-3.21 0-1.96-.48-3.15-2.31-3.15-1.53 0-2.36 1.31-2.36 3.26m6.29 3.76c0 2.94-1.15 4.65-4.14 4.65-2.8 0-3.59-1.62-3.73-2.82h1.74c.24.93.96 1.44 2.06 1.44 1.93 0 2.39-1.26 2.39-3.31v-.68c-.47.98-1.27 1.55-2.72 1.55-2.21 0-3.67-1.87-3.67-4.51 0-2.97 1.68-4.81 3.84-4.81 1.66 0 2.36.81 2.55 1.38.02-.38.06-.98.08-1.16h1.62c-.01.58-.03 1.76-.03 2.64Z" fill="#fff" stroke="none"/><path clip-path="url(#b)" d="M296.77 56.46l-3.12 4.66c-1.43 2.15-2.45 3.42-4.76 3.42-2.35 0-3.53-1.7-3.53-3.34 0-1.67.93-2.77 3.29-4.02 1.49-.8 2.43-1.41 2.43-2.58 0-.83-.48-1.61-1.45-1.61-.89 0-1.49.61-1.49 1.66 0 .78.57 1.45 1.44 2.3l7.31 7.4H294.6l-6.47-6.58c-.93-.93-1.6-1.81-1.6-3.03 0-1.66 1.14-3.08 3.11-3.08 1.86 0 3.01 1.34 3.01 2.9 0 1.44-.93 2.32-3.1 3.52-1.99 1.03-2.42 1.91-2.42 2.91 0 1.05.79 1.98 1.91 1.98 1.34 0 2.06-.59 3.57-2.91l2.35-3.62Z" fill="#fff" stroke="none"/><path clip-path="url(#b)" d="M213.55 79.37h2.65c1.57 0 2.41-.77 2.41-2.19 0-1.48-.99-2.19-2.35-2.19h-2.71Zm-1.81-5.92h4.67c2.4 0 4.03 1.39 4.03 3.68 0 2.49-1.75 3.77-4.12 3.77h-2.78v5.05h-1.81Z" fill="#fff" stroke="none"/><path clip-path="url(#b)" d="M222.35 79.28c0-1.21-.01-1.95-.02-2.49h1.68c.02.25.05 1 .05 1.82.45-1.2 1.49-2 2.96-2.04v1.74c-1.81.04-2.96.92-2.96 3.28v4.36h-1.71Z" fill="#fff" stroke="none"/><path clip-path="url(#b)" d="M234.25 80.51c-.02-1.42-.69-2.57-2.14-2.57-1.49 0-2.13 1.07-2.27 2.57Zm-4.47 1.2c.01 1.73.85 3.01 2.3 3.01 1.33 0 1.75-.68 2.02-1.33h1.72c-.34 1.16-1.3 2.78-3.8 2.78-2.82 0-3.98-2.33-3.98-4.69 0-2.76 1.35-4.9 4.07-4.9 2.9 0 3.85 2.35 3.85 4.37 0 .29 0 .51-.02.76Z" fill="#fff" stroke="none"/><path clip-path="url(#b)" d="M238.12 82.13h4.63V80.55h-4.63Z" fill="#fff" fill-rule="evenodd" stroke="none"/><path clip-path="url(#b)" d="M247.11 79.37h2.65c1.57 0 2.41-.77 2.41-2.19 0-1.48-.99-2.19-2.35-2.19h-2.71Zm-1.81-5.92h4.67c2.4 0 4.03 1.39 4.03 3.68 0 2.49-1.75 3.77-4.12 3.77h-2.78v5.05H245.3Z" fill="#fff" stroke="none"/><path clip-path="url(#b)" d="M255.9 79.28c0-1.21-.01-1.95-.02-2.49h1.68c.02.25.05 1 .05 1.82.45-1.2 1.49-2 2.96-2.04v1.74c-1.81.04-2.96.92-2.96 3.28v4.36H255.9Z" fill="#fff" stroke="none"/><path clip-path="url(#b)" d="M263.36 81.38c0 1.96.93 3.35 2.44 3.35 1.54 0 2.41-1.33 2.41-3.34 0-2.03-.86-3.36-2.44-3.36-1.56 0-2.4 1.29-2.4 3.35m6.6-.02c0 2.67-1.49 4.82-4.22 4.82-2.58 0-4.13-2.03-4.13-4.78 0-2.73 1.54-4.82 4.24-4.82 2.49 0 4.12 1.9 4.12 4.78" fill="#fff" stroke="none"/><path clip-path="url(#b)" d="M273.33 81.41c0 2.13.95 3.28 2.31 3.28 2 0 2.4-1.56 2.4-3.43 0-1.95-.37-3.21-2.3-3.21-1.51 0-2.42 1.23-2.42 3.36m6.36-8.66V83.38c0 .86 0 1.7.02 2.58h-1.64c-.04-.25-.08-.91-.08-1.23-.44.91-1.31 1.45-2.74 1.45-2.27 0-3.68-1.9-3.68-4.71 0-2.82 1.51-4.89 3.98-4.89 1.51 0 2.21.62 2.44 1.11V72.75Z" fill="#fff" stroke="none"/><path clip-path="url(#b)" d="M289.65 83.29c0 .89.01 2.07.02 2.67H288c-.04-.24-.05-.79-.06-1.31-.45 1-1.29 1.53-2.64 1.53-1.55 0-2.94-.84-2.94-3.37V76.79h1.7v5.64c0 1.17.35 2.23 1.75 2.23 1.53 0 2.13-.87 2.13-3.07v-4.8h1.71Z" fill="#fff" stroke="none"/><path clip-path="url(#b)" d="M299.53 83.12c-.36 1.57-1.4 3.05-3.73 3.05-2.5 0-4-1.85-4-4.75 0-2.61 1.45-4.85 4.11-4.85 2.64 0 3.51 1.95 3.62 3.1h-1.69c-.21-.9-.74-1.65-1.96-1.65-1.48 0-2.32 1.32-2.32 3.34 0 2.06.83 3.37 2.27 3.37 1.06 0 1.67-.59 2-1.61Z" fill="#fff" stroke="none"/><path clip-path="url(#b)" d="M300.59 76.79h1.5V74.13h1.71v2.66h1.92V78.2H303.8v5.21c0 .85.21 1.27 1 1.27.2 0 .5-.01.73-.07v1.3c-.4.15-.95.17-1.39.17-1.45 0-2.05-.78-2.05-2.32V78.2h-1.5Z" fill="#fff" stroke="none"/><path clip-path="url(#b)" d="M307.46 76.79h1.71v9.17h-1.71Zm0-4.04h1.71v2.03h-1.71Z" fill="#fff" stroke="none"/><path clip-path="url(#b)" d="M313.03 81.38c0 1.96.93 3.35 2.44 3.35 1.54 0 2.41-1.33 2.41-3.34 0-2.03-.86-3.36-2.44-3.36-1.56 0-2.4 1.29-2.4 3.35m6.6-.02c0 2.67-1.49 4.82-4.22 4.82-2.58 0-4.13-2.03-4.13-4.78 0-2.73 1.54-4.82 4.24-4.82 2.49 0 4.12 1.9 4.12 4.78" fill="#fff" stroke="none"/><path clip-path="url(#b)" d="M321.75 79.1c0-.79 0-1.61-.02-2.31h1.66c.04.26.07 1.16.07 1.44.34-.75 1.07-1.66 2.75-1.66s2.96 1.09 2.96 3.5v5.88h-1.71V80.29c0-1.32-.49-2.21-1.79-2.21-1.55 0-2.21 1.18-2.21 2.98v4.9h-1.71Z" fill="#fff" stroke="none"/><path clip-path="url(#b)" d="M212.87 15.23h1.32c.8 0 1.37-.32 1.37-1.16s-.6-1.17-1.33-1.17h-1.36Zm-1.73-3.76h3.32c1.7 0 2.86.99 2.86 2.56 0 1.8-1.32 2.62-2.9 2.62h-1.54v3.09h-1.73Z" fill="#fff" stroke="none"/><path clip-path="url(#b)" d="M219.77 11.47h1.73V14.7h3.23V11.47h1.73v8.27h-1.73V16.16H221.5v3.58h-1.73Z" fill="#fff" stroke="none"/><path clip-path="url(#b)" d="M233.59 16.37c-.57-1.75-.93-2.86-1.12-3.6h-.01c-.2.82-.6 2.11-1.05 3.6Zm-2.55 1.46l-.63 1.91h-1.7l2.72-8.27h2.18l2.84 8.27h-1.82l-.66-1.91Z" fill="#fff" stroke="none"/><path clip-path="url(#b)" d="M239.93 17.32c.18.83.76 1.19 1.69 1.19s1.32-.38 1.32-.98c0-.67-.39-.97-1.76-1.29-2.18-.53-2.72-1.35-2.72-2.46 0-1.44 1.04-2.42 2.94-2.42 2.13 0 2.98 1.18 3.09 2.39h-1.75c-.08-.51-.36-1.06-1.39-1.06-.7 0-1.13.3-1.13.89 0 .58.34.81 1.64 1.12 2.33.57 2.84 1.46 2.84 2.63 0 1.51-1.11 2.55-3.23 2.55-2.04 0-3.11-1.03-3.3-2.54Z" fill="#fff" stroke="none"/><path clip-path="url(#b)" d="M252.67 16.18h-3.83v2.1h4.23l-.21 1.46h-5.71V11.47h5.68v1.47h-4v1.77h3.83Z" fill="#fff" stroke="none"/><path clip-path="url(#b)" d="M259 19.74v-.11c0-1.38.6-2.49 2.25-3.74 1.08-.81 1.41-1.1 1.41-1.78s-.32-1.07-.97-1.07c-.75 0-1.02.47-1.13 1.16h-1.61c.11-1.36.98-2.5 2.73-2.5 1.97 0 2.64 1.21 2.64 2.39 0 1.15-.48 1.7-1.89 2.73-.94.68-1.32 1.13-1.45 1.49h3.62l-.21 1.43Z" fill="#fff" stroke="none"/><path clip-path="url(#b)" d="M404.1 47.66h67.74V26.9H404.1Z" fill-rule="evenodd" stroke="none"/><path clip-path="url(#b)" d="M419.46 80.94h-5.97v4.19h6.57l-.23 1.57h-8.1V74.2h8.01v1.57h-6.26v3.6h5.97Z" fill="#fff" stroke="none"/><path clip-path="url(#b)" d="M423.37 77.54c1.18 1.98 1.68 2.81 1.99 3.32h.02c.36-.59 1.07-1.74 2.05-3.32h1.91l-2.98 4.4 3 4.77H427.4c-1.02-1.75-1.72-2.93-2.06-3.52h-.02c-.28.51-.98 1.72-2.05 3.52h-1.9l2.93-4.56-2.86-4.61Z" fill="#fff" stroke="none"/><path clip-path="url(#b)" d="M436.25 81.26c-.02-1.42-.69-2.57-2.14-2.57-1.49 0-2.13 1.07-2.27 2.57Zm-4.47 1.2c.01 1.73.85 3.01 2.3 3.01 1.33 0 1.75-.68 2.03-1.33h1.72c-.34 1.16-1.3 2.78-3.8 2.78-2.82 0-3.98-2.33-3.98-4.69 0-2.76 1.35-4.9 4.08-4.9 2.9 0 3.85 2.35 3.85 4.37 0 .29 0 .51-.03.76Z" fill="#fff" stroke="none"/><path clip-path="url(#b)" d="M447.31 83.87c-.36 1.57-1.4 3.05-3.73 3.05-2.5 0-4-1.85-4-4.75 0-2.62 1.45-4.85 4.11-4.85 2.64 0 3.52 1.95 3.62 3.1h-1.69c-.21-.9-.74-1.65-1.96-1.65-1.48 0-2.32 1.32-2.32 3.34 0 2.06.83 3.36 2.28 3.36 1.06 0 1.67-.59 2-1.61Z" fill="#fff" stroke="none"/><path clip-path="url(#b)" d="M456.44 84.03c0 .89.01 2.07.02 2.67h-1.67c-.04-.24-.05-.79-.06-1.31-.45 1-1.29 1.53-2.64 1.53-1.55 0-2.94-.84-2.94-3.37V77.54h1.7v5.65c0 1.17.35 2.23 1.75 2.23 1.53 0 2.13-.87 2.13-3.07v-4.8h1.71Z" fill="#fff" stroke="none"/><path clip-path="url(#b)" d="M458.24 77.54h1.5V74.88h1.71v2.66h1.92v1.41h-1.92v5.21c0 .85.21 1.27 1 1.27.2 0 .5-.01.73-.07v1.3c-.4.15-.95.17-1.39.17-1.45 0-2.05-.78-2.05-2.32V78.95h-1.5Z" fill="#fff" stroke="none"/><path clip-path="url(#b)" d="M465.12 77.54h1.71V86.7h-1.71Zm0-4.04h1.71v2.03h-1.71Z" fill="#fff" stroke="none"/><path clip-path="url(#b)" d="M470.69 82.12c0 1.96.92 3.35 2.44 3.35 1.54 0 2.41-1.32 2.41-3.34 0-2.03-.86-3.36-2.44-3.36-1.56 0-2.4 1.29-2.4 3.35m6.6-.02c0 2.67-1.49 4.82-4.22 4.82-2.58 0-4.13-2.03-4.13-4.78 0-2.73 1.54-4.81 4.24-4.81 2.49 0 4.12 1.9 4.12 4.78" fill="#fff" stroke="none"/><path clip-path="url(#b)" d="M479.4 79.85c0-.79 0-1.61-.02-2.31h1.66c.04.26.07 1.17.07 1.44.34-.75 1.07-1.66 2.75-1.66s2.96 1.09 2.96 3.5V86.7h-1.71V81.04c0-1.32-.49-2.21-1.79-2.21-1.55 0-2.21 1.18-2.21 2.97v4.9H479.4Z" fill="#fff" stroke="none"/><path clip-path="url(#b)" d="M412.85 37.58h1.32c.8 0 1.37-.32 1.37-1.16s-.6-1.17-1.33-1.17h-1.36Zm-1.74-3.76h3.32c1.7 0 2.86.99 2.86 2.56 0 1.8-1.32 2.62-2.9 2.62h-1.54v3.09h-1.74Z" fill="#fff" stroke="none"/><path clip-path="url(#b)" d="M419.75 33.82h1.73v3.23h3.23V33.82h1.73v8.27h-1.73V38.51h-3.23v3.58h-1.73Z" fill="#fff" stroke="none"/><path clip-path="url(#b)" d="M433.57 38.71c-.57-1.75-.93-2.86-1.12-3.6h-.01c-.2.82-.6 2.11-1.05 3.6Zm-2.55 1.46l-.63 1.91h-1.7l2.72-8.27h2.18l2.84 8.27H434.6l-.66-1.91Z" fill="#fff" stroke="none"/><path clip-path="url(#b)" d="M439.91 39.66c.18.83.76 1.19 1.69 1.19s1.32-.38 1.32-.98c0-.67-.39-.97-1.76-1.3-2.18-.53-2.72-1.35-2.72-2.46 0-1.44 1.05-2.42 2.94-2.42 2.13 0 2.98 1.18 3.09 2.39h-1.75c-.08-.51-.36-1.06-1.39-1.06-.7 0-1.13.3-1.13.89 0 .58.34.81 1.64 1.12 2.33.57 2.84 1.46 2.84 2.63 0 1.51-1.11 2.55-3.23 2.55-2.04 0-3.11-1.03-3.3-2.54Z" fill="#fff" stroke="none"/><path clip-path="url(#b)" d="M452.65 38.52h-3.83v2.1h4.23l-.21 1.46h-5.71V33.82h5.68v1.47h-4v1.77h3.83Z" fill="#fff" stroke="none"/><path clip-path="url(#b)" d="M458.98 36.22c.11-.97.77-2.17 2.68-2.17 1.77 0 2.56 1.03 2.56 2.15 0 .95-.53 1.4-.95 1.6v.03c.5.19 1.24.68 1.24 1.9 0 1.14-.67 2.49-2.87 2.49-2.05 0-2.75-1.28-2.82-2.32h1.62c.1.54.46 1.01 1.25 1.01.77 0 1.15-.51 1.15-1.21 0-.73-.36-1.17-1.25-1.17h-.69V37.22h.61c.76 0 1.07-.26 1.07-.92 0-.54-.31-.91-.97-.91-.77 0-.96.45-1.05.84Z" fill="#fff" stroke="none"/></g></g></svg>