<?xml version="1.0" encoding="UTF-8"?><!DOCTYPE svg PUBLIC "-//W3C//DTD SVG 1.0//EN" "http://www.w3.org/TR/2001/REC-SVG-20010904/DTD/svg10.dtd" []><svg xmlns="http://www.w3.org/2000/svg" xmlns:xlink="http://www.w3.org/1999/xlink" height="51" stroke="#000" stroke-linecap="square" stroke-miterlimit="10" viewBox="0 0 105.41 51.36" width="105"><defs><clipPath id="a"><path d="M0 0V51.36H105.41V0Z"/></clipPath><clipPath clip-path="url(#a)" id="b"><path d="M-58.17 303.41H901.95V-236.71H-58.17Z"/></clipPath><clipPath clip-path="url(#b)" id="c"><path d="M-58.12 303.35H901.89v-540H-58.12Z"/></clipPath></defs><g><g fill="#fff" stroke="none"><path clip-path="url(#c)" d="M30.21 29.48c-2.94-8.73-4.81-14.31-5.81-18.02h-.06c-1.02 4.08-3.09 10.57-5.44 18.02ZM17.02 36.81l-3.23 9.55H5L19.05 5H30.28L44.93 46.36h-9.4l-3.4-9.55Z"/><path clip-path="url(#c)" d="M59.63 39.46h8.07c4.83 0 7.02-2.02 7.02-5.77 0-3.33-2.15-5.46-7.07-5.46H59.63Zm8.27-18.14c4.25 0 6-1.91 6-4.81 0-3.03-2.3-4.6-5.75-4.6H59.63v9.41ZM50.85 5H68.92c9.99 0 13.79 5.21 13.79 10.58 0 4.66-2.47 7.69-5.27 8.97 2.79 1.05 6.45 3.99 6.45 9.43 0 7.08-5.56 12.38-14.36 12.38H50.85Z"/><path clip-path="url(#c)" d="M91.47 46.36h8.94V5H91.47Z" fill-rule="evenodd"/></g></g></svg>