<?xml version="1.0" encoding="UTF-8"?><!DOCTYPE svg PUBLIC "-//W3C//DTD SVG 1.0//EN" "http://www.w3.org/TR/2001/REC-SVG-20010904/DTD/svg10.dtd" []><svg xmlns="http://www.w3.org/2000/svg" xmlns:xlink="http://www.w3.org/1999/xlink" height="120" stroke="#000" stroke-linecap="square" stroke-miterlimit="10" viewBox="0 0 289.24 119.75" width="289"><g><g fill="#fff" stroke="#fff"><path d="M28.49 29.83l-2.63-9.81h.76c.64 2.35 2.08 7.77 2.29 8.92h.01c.18-.91 1.74-6.33 2.4-8.92h.81c.62 2.4 2.14 8.15 2.29 8.91h.01c.3-1.39 1.89-6.57 2.54-8.91h.75l-2.9 9.81h-.84c-.62-2.31-2.1-7.98-2.26-8.83H31.7c-.24 1.27-1.71 6.39-2.39 8.83Z" stroke="none"/><path d="M43.15 25.79c-.01-1.39-.75-2.48-2.07-2.48-1.4 0-2.03 1.01-2.19 2.48Zm-4.3.62c.01 1.81.9 2.93 2.2 2.93 1.28 0 1.71-.74 1.95-1.32h.69c-.29.92-1 1.98-2.67 1.98-2.06 0-2.86-1.84-2.86-3.61 0-2 .96-3.73 2.94-3.73 2.09 0 2.75 1.86 2.75 3.18 0 .2 0 .39-.01.57Z" stroke="none"/><path d="M75.73 27.77C75.41 29 74.62 30 73.1 30c-1.7 0-2.9-1.3-2.9-3.64 0-1.92.99-3.7 2.98-3.7 1.72 0 2.43 1.26 2.55 2.24h-.69c-.2-.81-.72-1.58-1.87-1.58-1.44 0-2.25 1.26-2.25 3.01 0 1.67.76 3.01 2.18 3.01.99 0 1.59-.52 1.94-1.57Z" stroke="none"/><path d="M77.68 26.33c0 1.67.87 3.01 2.31 3.01 1.46 0 2.29-1.25 2.29-3.01 0-1.65-.82-3.01-2.32-3.01-1.55 0-2.28 1.33-2.28 3.01M83 26.31C83 28.26 81.96 30 79.94 30c-1.83 0-2.97-1.55-2.97-3.67 0-2 1.07-3.67 3.04-3.67 1.81 0 3 1.46 3 3.66" stroke="none"/><path d="M84.82 29.83h.68V19.5h-.68Z" fill-rule="evenodd" stroke="none"/><path d="M87.85 29.83h.68V19.5h-.68Z" fill-rule="evenodd" stroke="none"/><path d="M94.78 26.26H93.45c-1.51 0-2.44.41-2.44 1.61 0 .88.61 1.49 1.56 1.49 1.94 0 2.21-1.33 2.21-2.84Zm.66 2.24c0 .62.05 1.11.1 1.33h-.65c-.05-.17-.09-.48-.12-1.08-.23.52-.83 1.25-2.22 1.25-1.58 0-2.25-1.05-2.25-2.1 0-1.54 1.15-2.24 3.19-2.24h1.29v-.71c0-.7-.2-1.64-1.75-1.64-1.37 0-1.57.74-1.72 1.32h-.68c.08-.77.54-1.96 2.41-1.96 1.55 0 2.41.67 2.41 2.21Z" stroke="none"/><path d="M102.88 26.19c0-1.75-.84-2.87-2.13-2.87-1.7 0-2.29 1.19-2.29 3.03 0 1.65.53 3 2.21 3 1.37 0 2.21-1.18 2.21-3.15M97.82 19.5h.68V24c.32-.7.99-1.35 2.32-1.35 1.6 0 2.78 1.36 2.78 3.52 0 2.21-1.06 3.82-2.96 3.82-1.14 0-1.79-.48-2.14-1.27 0 .45-.01.91-.03 1.11H97.8c.01-.8.01-1.6.01-2.4Z" stroke="none"/><path d="M105.67 26.33c0 1.67.87 3.01 2.31 3.01 1.46 0 2.29-1.25 2.29-3.01 0-1.65-.82-3.01-2.32-3.01-1.55 0-2.28 1.33-2.28 3.01m5.32-.01c0 1.95-1.04 3.68-3.07 3.68-1.83 0-2.97-1.55-2.97-3.67 0-2 1.07-3.67 3.04-3.67 1.8 0 3 1.46 3 3.66" stroke="none"/><path d="M112.8 24.73c0-1.18-.01-1.68-.01-1.9h.66c.01.22.03.67.03 1.57.39-1.05 1.26-1.68 2.36-1.74v.76c-1.41.1-2.36 1.11-2.36 2.77v3.64h-.68Z" stroke="none"/><path d="M121.08 26.26h-1.33c-1.51 0-2.44.41-2.44 1.61 0 .88.61 1.49 1.56 1.49 1.94 0 2.21-1.33 2.21-2.84Zm.66 2.24c0 .62.06 1.11.1 1.33h-.65c-.05-.17-.09-.48-.12-1.08-.23.52-.83 1.25-2.22 1.25-1.57 0-2.25-1.05-2.25-2.1 0-1.54 1.15-2.24 3.19-2.24h1.29v-.71c0-.7-.2-1.64-1.75-1.64-1.37 0-1.57.74-1.72 1.32h-.68c.08-.77.54-1.96 2.41-1.96 1.55 0 2.41.67 2.41 2.21Z" stroke="none"/><path d="M123.03 22.82h1.26V20.64h.68v2.18h1.62v.66h-1.62v4.55c0 .79.17 1.23.82 1.23.2 0 .49-.01.71-.08v.62c-.23.1-.56.13-.84.13-.87 0-1.36-.45-1.36-1.57V23.48h-1.26Z" stroke="none"/><path d="M132.47 25.79c-.01-1.39-.75-2.48-2.08-2.48-1.4 0-2.03 1.01-2.18 2.48Zm-4.3.62c.01 1.81.9 2.93 2.2 2.93 1.28 0 1.71-.74 1.96-1.32h.69c-.29.92-1 1.98-2.67 1.98-2.06 0-2.86-1.84-2.86-3.61 0-2 .96-3.73 2.94-3.73 2.09 0 2.75 1.86 2.75 3.18 0 .2 0 .39-.01.57Z" stroke="none"/><path d="M160.07 22.82c1 3.62 1.59 5.69 1.7 6.31h.01c.11-.56.79-2.76 1.85-6.31h.73c1.26 4.33 1.64 5.58 1.76 6.12h.01c.19-.77.5-1.82 1.75-6.12h.72l-2.14 7.01h-.75c-.73-2.48-1.61-5.52-1.75-6.16h-.01c-.14.69-.91 3.19-1.79 6.16h-.81l-1.99-7.01Z" stroke="none"/><path d="M170.17 22.82h.68v7h-.68Zm0-3.32h.68v1.36h-.68Z" stroke="none"/><path d="M172.29 22.82h1.26V20.64h.68v2.18h1.61v.66h-1.61v4.55c0 .79.16 1.23.81 1.23.2 0 .49-.01.71-.08v.62c-.23.1-.56.13-.84.13-.87 0-1.36-.45-1.36-1.57V23.48h-1.26Z" stroke="none"/><path d="M178 19.5V24c.38-.73 1.04-1.35 2.24-1.35.96 0 2.29.5 2.29 2.72v4.45h-.68V25.51c0-1.39-.61-2.17-1.74-2.17-1.34 0-2.12.86-2.12 2.58v3.91h-.68V19.5Z" stroke="none"/><path d="M209.98 27.89c.23.91.85 1.46 1.93 1.46 1.21 0 1.7-.58 1.7-1.36 0-.8-.33-1.19-1.85-1.57-1.75-.43-2.18-.98-2.18-1.9 0-.97.7-1.86 2.24-1.86s2.27.97 2.37 1.96h-.68c-.12-.59-.57-1.32-1.72-1.32-1.18 0-1.52.6-1.52 1.16 0 .64.33.97 1.67 1.3 1.91.48 2.39 1.12 2.39 2.17 0 1.27-1 2.06-2.43 2.06-1.55 0-2.41-.84-2.6-2.1Z" stroke="none"/><path d="M221.05 27.78c0 .69.01 1.78.01 2.04h-.65c-.03-.18-.04-.64-.04-1.22-.29.83-.98 1.39-2.18 1.39-.98 0-2.23-.39-2.23-2.54V22.82h.66v4.47c0 1.02.31 2.02 1.65 2.02 1.52 0 2.09-.88 2.09-2.89v-3.6h.68Z" stroke="none"/><path d="M223.32 27.89c.23.91.85 1.46 1.93 1.46 1.21 0 1.7-.58 1.7-1.36 0-.8-.33-1.19-1.85-1.57-1.75-.43-2.18-.98-2.18-1.9 0-.97.71-1.86 2.24-1.86s2.26.97 2.37 1.96h-.68c-.12-.59-.57-1.32-1.72-1.32-1.18 0-1.52.6-1.52 1.16 0 .64.32.97 1.67 1.3 1.91.48 2.39 1.12 2.39 2.17 0 1.27-1 2.06-2.43 2.06-1.55 0-2.41-.84-2.6-2.1Z" stroke="none"/><path d="M228.42 22.82h1.26V20.64h.68v2.18h1.61v.66h-1.61v4.55c0 .79.16 1.23.81 1.23.2 0 .49-.01.71-.08v.62c-.23.1-.56.13-.84.13-.87 0-1.36-.45-1.36-1.57V23.48h-1.26Z" stroke="none"/><path d="M237.48 26.26h-1.33c-1.51 0-2.44.41-2.44 1.61 0 .88.61 1.49 1.56 1.49 1.94 0 2.21-1.33 2.21-2.84Zm.66 2.24c0 .62.05 1.11.1 1.33h-.65c-.05-.17-.09-.48-.12-1.08-.23.52-.83 1.25-2.22 1.25-1.58 0-2.25-1.05-2.25-2.1 0-1.54 1.15-2.24 3.19-2.24h1.29v-.71c0-.7-.2-1.64-1.75-1.64-1.37 0-1.57.74-1.72 1.32h-.68c.08-.77.54-1.96 2.41-1.96 1.55 0 2.41.67 2.41 2.21Z" stroke="none"/><path d="M240.51 22.82h.68v7h-.68Zm0-3.32h.68v1.36h-.68Z" stroke="none"/><path d="M243.55 24.59c0-.62 0-1.21-.01-1.77h.66c.03.22.04 1.14.03 1.33.3-.71.85-1.5 2.25-1.5 1.21 0 2.28.7 2.28 2.63v4.54h-.68V25.4c0-1.25-.5-2.06-1.68-2.06-1.61 0-2.17 1.39-2.17 2.91v3.57h-.68Z" stroke="none"/><path d="M255.02 26.26h-1.33c-1.51 0-2.44.41-2.44 1.61 0 .88.61 1.49 1.56 1.49 1.94 0 2.21-1.33 2.21-2.84Zm.67 2.24c0 .62.05 1.11.09 1.33h-.65c-.05-.17-.1-.48-.12-1.08-.23.52-.83 1.25-2.22 1.25-1.57 0-2.25-1.05-2.25-2.1 0-1.54 1.15-2.24 3.19-2.24h1.29v-.71c0-.7-.2-1.64-1.75-1.64-1.37 0-1.57.74-1.72 1.32h-.68c.08-.77.54-1.96 2.41-1.96 1.55 0 2.42.67 2.42 2.21Z" stroke="none"/><path d="M263.11 26.19c0-1.75-.84-2.87-2.13-2.87-1.7 0-2.29 1.19-2.29 3.03 0 1.65.53 3 2.21 3 1.37 0 2.21-1.18 2.21-3.15m-5.06-6.68h.68V24c.33-.7.99-1.35 2.32-1.35 1.6 0 2.78 1.36 2.78 3.52 0 2.21-1.06 3.82-2.96 3.82-1.14 0-1.79-.48-2.15-1.27 0 .45-.01.91-.03 1.11h-.66c.01-.8.01-1.6.01-2.4Z" stroke="none"/><path d="M265.7 22.82h.68v7h-.68Zm0-3.32h.68v1.36h-.68Z" stroke="none"/><path d="M268.74 29.83h.68V19.5h-.68Z" fill-rule="evenodd" stroke="none"/><path d="M271.78 22.82h.68v7h-.68Zm0-3.32h.68v1.36h-.68Z" stroke="none"/><path d="M273.89 22.82h1.26V20.64h.68v2.18h1.61v.66h-1.61v4.55c0 .79.16 1.23.81 1.23.2 0 .49-.01.71-.08v.62c-.23.1-.56.13-.84.13-.87 0-1.36-.45-1.36-1.57V23.48h-1.26Z" stroke="none"/><path d="M279.19 22.82c1.37 4.01 1.97 5.66 2.2 6.42h.01c.27-.85.81-2.48 2.13-6.42h.7l-2.55 7.41c-.72 2.07-1.21 2.54-2.43 2.54-.24 0-.41-.01-.62-.04v-.7c.2.03.39.04.61.04.98 0 1.29-.49 1.79-1.93l-2.59-7.31Z" stroke="none"/><path d="M31.6 45.77C31.28 47 30.49 48 28.97 48c-1.7 0-2.9-1.3-2.9-3.64 0-1.92.99-3.7 2.98-3.7 1.72 0 2.43 1.26 2.55 2.24h-.69c-.2-.81-.72-1.58-1.87-1.58-1.44 0-2.25 1.26-2.25 3.01 0 1.67.76 3.01 2.18 3.01.99 0 1.59-.52 1.94-1.57Z" stroke="none"/><path d="M33.55 44.33c0 1.67.87 3.01 2.31 3.01 1.46 0 2.29-1.25 2.29-3.01 0-1.65-.82-3.01-2.32-3.01-1.55 0-2.28 1.33-2.28 3.01m5.32-.01c0 1.95-1.05 3.68-3.07 3.68-1.83 0-2.97-1.56-2.97-3.67 0-2 1.07-3.67 3.04-3.67 1.81 0 3 1.46 3 3.65" stroke="none"/><path d="M40.68 42.59c0-.62 0-1.21-.01-1.77h.67c.03.22.04 1.14.03 1.33.3-.71.85-1.5 2.25-1.5 1.21 0 2.28.7 2.28 2.63v4.54h-.68V43.4c0-1.25-.5-2.06-1.68-2.06-1.61 0-2.17 1.39-2.17 2.91v3.57h-.68Z" stroke="none"/><path d="M48.21 45.89c.23.91.85 1.46 1.93 1.46 1.21 0 1.69-.58 1.69-1.36 0-.8-.33-1.19-1.85-1.57-1.75-.43-2.18-.98-2.18-1.9 0-.97.7-1.86 2.24-1.86s2.26.97 2.37 1.96h-.68c-.12-.59-.57-1.32-1.72-1.32-1.18 0-1.52.6-1.52 1.16 0 .64.33.97 1.67 1.3 1.91.48 2.39 1.12 2.39 2.17 0 1.27-1 2.06-2.43 2.06-1.55 0-2.41-.84-2.6-2.1Z" stroke="none"/><path d="M59.28 45.78c0 .69.01 1.78.01 2.05h-.65c-.03-.18-.04-.65-.04-1.22-.28.83-.98 1.39-2.18 1.39-.98 0-2.22-.39-2.22-2.54V40.82h.67v4.47c0 1.02.31 2.02 1.65 2.02 1.52 0 2.09-.88 2.09-2.89v-3.6h.68Z" stroke="none"/><path d="M61.63 47.83h.68V37.51h-.68Z" fill-rule="evenodd" stroke="none"/><path d="M63.75 40.82h1.26V38.64h.68v2.18H67.3v.66H65.69v4.55c0 .79.16 1.23.81 1.23.2 0 .49-.01.71-.08v.62c-.23.1-.56.13-.84.13-.87 0-1.36-.45-1.36-1.57V41.48H63.75Z" stroke="none"/><path d="M72.81 44.26H71.48c-1.51 0-2.44.41-2.44 1.61 0 .88.61 1.49 1.56 1.49 1.94 0 2.21-1.33 2.21-2.84Zm.66 2.24c0 .62.05 1.11.1 1.33h-.65c-.05-.17-.09-.48-.12-1.08-.23.52-.83 1.25-2.22 1.25-1.57 0-2.25-1.05-2.25-2.1 0-1.54 1.15-2.24 3.19-2.24h1.29v-.71c0-.7-.2-1.64-1.75-1.64-1.37 0-1.57.74-1.72 1.32h-.68c.08-.77.54-1.96 2.41-1.96 1.55 0 2.41.67 2.41 2.21Z" stroke="none"/><path d="M75.84 42.59c0-.62 0-1.21-.01-1.77h.66c.03.22.04 1.14.03 1.33.3-.71.85-1.5 2.25-1.5 1.21 0 2.28.7 2.28 2.63v4.54h-.68V43.4c0-1.25-.5-2.06-1.68-2.06-1.61 0-2.17 1.39-2.17 2.91v3.57h-.68Z" stroke="none"/><path d="M82.35 40.82h1.26V38.64h.68v2.18H85.9v.66H84.29v4.55c0 .79.16 1.23.82 1.23.2 0 .49-.01.71-.08v.62c-.23.1-.56.13-.84.13-.87 0-1.36-.45-1.36-1.57V41.48H82.35Z" stroke="none"/><path d="M87.65 45.89c.23.91.85 1.46 1.93 1.46 1.21 0 1.7-.58 1.7-1.36 0-.8-.33-1.19-1.85-1.57-1.75-.43-2.18-.98-2.18-1.9 0-.97.71-1.86 2.24-1.86s2.27.97 2.37 1.96h-.68c-.12-.59-.57-1.32-1.72-1.32-1.18 0-1.52.6-1.52 1.16 0 .64.33.97 1.67 1.3 1.91.48 2.39 1.12 2.39 2.17 0 1.27-1 2.06-2.43 2.06-1.55 0-2.41-.84-2.6-2.1Z" stroke="none"/><path d="M92.93 49.42c.66-1.36.91-2.6.95-3.39h.68c-.1 1.16-.53 2.55-1.02 3.39Z" stroke="none"/><path d="M113.61 43.79c-.01-1.39-.75-2.48-2.08-2.48-1.4 0-2.03 1.01-2.18 2.48Zm-4.3.62c.01 1.81.9 2.93 2.2 2.93 1.28 0 1.71-.74 1.96-1.32h.69c-.29.92-1 1.97-2.67 1.97-2.06 0-2.86-1.84-2.86-3.61 0-2 .96-3.73 2.94-3.73 2.09 0 2.75 1.86 2.75 3.18 0 .2 0 .39-.01.57Z" stroke="none"/><path d="M121.16 45.77C120.84 47 120.05 48 118.53 48c-1.7 0-2.9-1.3-2.9-3.64 0-1.92.99-3.7 2.98-3.7 1.72 0 2.43 1.26 2.55 2.24h-.69c-.2-.81-.72-1.58-1.87-1.58-1.44 0-2.25 1.26-2.25 3.01 0 1.67.76 3.01 2.18 3.01.99 0 1.59-.52 1.94-1.57Z" stroke="none"/><path d="M123.11 44.33c0 1.67.87 3.01 2.31 3.01 1.46 0 2.29-1.25 2.29-3.01 0-1.65-.81-3.01-2.32-3.01-1.55 0-2.28 1.33-2.28 3.01m5.32-.01c0 1.95-1.04 3.68-3.07 3.68-1.83 0-2.97-1.56-2.97-3.67 0-2 1.07-3.67 3.04-3.67 1.81 0 3 1.46 3 3.65" stroke="none"/><path d="M130.19 44.59h3.42v-.69h-3.42Z" fill-rule="evenodd" stroke="none"/><path d="M140.77 45.77C140.44 47 139.65 48 138.13 48c-1.7 0-2.9-1.3-2.9-3.64 0-1.92.99-3.7 2.98-3.7 1.72 0 2.43 1.26 2.55 2.24h-.69c-.2-.81-.72-1.58-1.87-1.58-1.44 0-2.25 1.26-2.25 3.01 0 1.67.76 3.01 2.18 3.01.99 0 1.59-.52 1.94-1.57Z" stroke="none"/><path d="M146.99 43.79c-.01-1.39-.75-2.48-2.07-2.48-1.4 0-2.04 1.01-2.18 2.48Zm-4.3.62c.01 1.81.89 2.93 2.2 2.93 1.27 0 1.71-.74 1.95-1.32h.69c-.28.92-1 1.97-2.67 1.97-2.06 0-2.86-1.84-2.86-3.61 0-2 .96-3.73 2.94-3.73 2.09 0 2.75 1.86 2.75 3.18 0 .2 0 .39-.01.57Z" stroke="none"/><path d="M149.48 42.73c0-1.18-.01-1.68-.01-1.9h.66c.01.22.03.67.03 1.57.39-1.05 1.26-1.68 2.36-1.74v.76c-1.41.1-2.36 1.11-2.36 2.77v3.64h-.68Z" stroke="none"/><path d="M153.41 40.82h1.26V38.64h.68v2.18h1.62v.66h-1.62v4.55c0 .79.17 1.23.82 1.23.2 0 .49-.01.71-.08v.62c-.23.1-.56.13-.84.13-.87 0-1.36-.45-1.36-1.57V41.48h-1.26Z" stroke="none"/><path d="M158.48 40.82h.68v7h-.68Zm0-3.32h.68v1.36h-.68Z" stroke="none"/><path d="M161.86 47.83V41.48h-1.17v-.66h1.17v-.99c0-1.18.32-2.46 1.84-2.46.2 0 .5.04.67.1v.67c-.2-.06-.53-.08-.73-.08-.8 0-1.1.59-1.1 1.81v.97h1.48v.66h-1.48v6.35Z" stroke="none"/><path d="M165.4 40.82h.68v7h-.68Zm0-3.32h.68v1.36h-.68Z" stroke="none"/><path d="M172.88 43.79c-.01-1.39-.75-2.48-2.07-2.48-1.4 0-2.04 1.01-2.18 2.48Zm-4.3.62c.01 1.81.9 2.93 2.2 2.93 1.28 0 1.71-.74 1.95-1.32h.69c-.29.92-1 1.97-2.67 1.97-2.06 0-2.86-1.84-2.86-3.61 0-2 .96-3.73 2.94-3.73 2.09 0 2.75 1.86 2.75 3.18 0 .2 0 .39-.01.57Z" stroke="none"/><path d="M175.62 44.38c0 1.92.96 2.95 2.13 2.95 1.79 0 2.28-1.27 2.28-3.18 0-1.81-.42-2.84-2.16-2.84-1.34 0-2.25 1.11-2.25 3.07m5.06-6.88v8.31c0 .67 0 1.32.01 2.02h-.65c-.03-.17-.04-.83-.04-1.18-.34.85-1.1 1.34-2.28 1.34-1.76 0-2.82-1.48-2.82-3.59 0-2.16 1.15-3.75 3-3.75 1.36 0 1.9.6 2.1 1.05V37.5Z" stroke="none"/><path d="M195.75 45.89c.23.91.85 1.46 1.93 1.46 1.21 0 1.7-.58 1.7-1.36 0-.8-.33-1.19-1.85-1.57-1.75-.43-2.18-.98-2.18-1.9 0-.97.71-1.86 2.24-1.86s2.27.97 2.37 1.96h-.68c-.12-.59-.57-1.32-1.72-1.32-1.18 0-1.52.6-1.52 1.16 0 .64.33.97 1.67 1.3 1.91.48 2.39 1.12 2.39 2.17 0 1.27-1 2.06-2.43 2.06-1.55 0-2.42-.84-2.61-2.1Z" stroke="none"/><path d="M206.81 45.78c0 .69.01 1.78.01 2.05h-.65c-.03-.18-.04-.65-.04-1.22-.29.83-.98 1.39-2.18 1.39-.98 0-2.23-.39-2.23-2.54V40.82h.66v4.47c0 1.02.31 2.02 1.65 2.02 1.52 0 2.09-.88 2.09-2.89v-3.6h.68Z" stroke="none"/><path d="M214.23 44.17c0-1.62-.76-2.84-2.1-2.84-1.64 0-2.32 1.07-2.32 2.97 0 1.88.53 3.04 2.23 3.04 1.41 0 2.2-1.23 2.2-3.17m-4.38 2.62v3.84h-.68V42.55c0-.57 0-1.19-.01-1.72h.67c.03.27.03.69.03 1.26.42-.84 1.17-1.43 2.39-1.43 1.6 0 2.71 1.39 2.71 3.49 0 2.52-1.3 3.85-2.94 3.85-1.19 0-1.82-.55-2.16-1.2" stroke="none"/><path d="M221.83 44.17c0-1.62-.76-2.84-2.1-2.84-1.64 0-2.32 1.07-2.32 2.97 0 1.88.53 3.04 2.22 3.04 1.41 0 2.2-1.23 2.2-3.17m-4.38 2.62v3.84h-.68V42.55c0-.57 0-1.19-.01-1.72h.66c.03.27.03.69.03 1.26.42-.84 1.17-1.43 2.39-1.43 1.6 0 2.71 1.39 2.71 3.49 0 2.52-1.3 3.85-2.95 3.85-1.19 0-1.82-.55-2.16-1.2" stroke="none"/><path d="M224.38 47.83h.68V37.51h-.68Z" fill-rule="evenodd" stroke="none"/><path d="M227.42 40.82h.68v7h-.68Zm0-3.32h.68v1.36h-.68Z" stroke="none"/><path d="M234.9 43.79c-.01-1.39-.75-2.48-2.08-2.48-1.4 0-2.03 1.01-2.18 2.48Zm-4.3.62c.01 1.81.9 2.93 2.2 2.93 1.28 0 1.71-.74 1.95-1.32h.69c-.29.92-1 1.97-2.67 1.97-2.06 0-2.86-1.84-2.86-3.61 0-2 .96-3.73 2.94-3.73 2.09 0 2.75 1.86 2.75 3.18 0 .2 0 .39-.01.57Z" stroke="none"/><path d="M237.4 42.73c0-1.18-.01-1.68-.01-1.9h.66c.01.22.03.67.03 1.57.39-1.05 1.26-1.68 2.36-1.74v.76c-1.41.1-2.36 1.11-2.36 2.77v3.64h-.68Z" stroke="none"/><path d="M241.98 45.89c.23.91.85 1.46 1.93 1.46 1.21 0 1.7-.58 1.7-1.36 0-.8-.32-1.19-1.85-1.57-1.75-.43-2.18-.98-2.18-1.9 0-.97.7-1.86 2.24-1.86s2.26.97 2.37 1.96h-.68c-.12-.59-.57-1.32-1.72-1.32-1.18 0-1.52.6-1.52 1.16 0 .64.33.97 1.67 1.3 1.91.48 2.39 1.12 2.39 2.17 0 1.27-1 2.06-2.43 2.06-1.55 0-2.41-.84-2.6-2.1Z" stroke="none"/><path d="M247.27 49.42c.66-1.36.91-2.6.95-3.39h.68c-.1 1.16-.53 2.55-1.02 3.39Z" stroke="none"/><path d="M267.48 44.26h-1.33c-1.51 0-2.44.41-2.44 1.61 0 .88.61 1.49 1.56 1.49 1.94 0 2.21-1.33 2.21-2.84Zm.67 2.24c0 .62.05 1.11.1 1.33h-.65c-.05-.17-.09-.48-.12-1.08-.23.52-.83 1.25-2.22 1.25-1.57 0-2.25-1.05-2.25-2.1 0-1.54 1.15-2.24 3.19-2.24h1.29v-.71c0-.7-.2-1.64-1.75-1.64-1.37 0-1.57.74-1.72 1.32h-.68c.08-.77.54-1.96 2.42-1.96 1.55 0 2.42.67 2.42 2.21Z" stroke="none"/><path d="M270.51 42.59c0-.62 0-1.21-.01-1.77h.67c.03.22.04 1.14.03 1.33.3-.71.85-1.5 2.25-1.5 1.21 0 2.28.7 2.28 2.63v4.54h-.68V43.4c0-1.25-.5-2.06-1.68-2.06-1.61 0-2.17 1.39-2.17 2.91v3.57h-.68Z" stroke="none"/><path d="M278.26 44.38c0 1.92.96 2.95 2.13 2.95 1.79 0 2.28-1.27 2.28-3.18 0-1.81-.42-2.84-2.16-2.84-1.34 0-2.25 1.11-2.25 3.07m5.06-6.88v8.31c0 .67 0 1.32.01 2.02h-.65c-.03-.17-.04-.83-.04-1.18-.34.85-1.1 1.34-2.28 1.34-1.76 0-2.82-1.48-2.82-3.59 0-2.16 1.15-3.75 3-3.75 1.36 0 1.9.6 2.1 1.05V37.5Z" stroke="none"/><path d="M26.63 58.82c1 3.61 1.59 5.69 1.7 6.3h.01c.11-.56.79-2.76 1.85-6.3h.73c1.26 4.33 1.64 5.58 1.76 6.12h.01c.19-.77.5-1.82 1.75-6.12h.72l-2.14 7h-.75c-.73-2.48-1.61-5.52-1.75-6.16h-.01c-.14.69-.91 3.19-1.79 6.16H27.9l-1.99-7Z" stroke="none"/><path d="M40.58 62.26H39.25c-1.51 0-2.44.41-2.44 1.61 0 .88.61 1.49 1.56 1.49 1.94 0 2.21-1.33 2.21-2.84Zm.67 2.24c0 .62.05 1.11.1 1.33h-.65c-.05-.17-.1-.48-.12-1.08-.23.52-.83 1.25-2.22 1.25-1.57 0-2.25-1.05-2.25-2.1 0-1.54 1.15-2.24 3.19-2.24h1.29v-.71c0-.7-.2-1.64-1.75-1.64-1.37 0-1.57.74-1.72 1.32h-.68c.08-.77.54-1.96 2.41-1.96 1.55 0 2.42.67 2.42 2.21Z" stroke="none"/><path d="M43.55 63.89c.23.91.85 1.46 1.93 1.46 1.21 0 1.7-.58 1.7-1.36 0-.8-.33-1.19-1.85-1.57-1.75-.43-2.18-.98-2.18-1.9 0-.97.71-1.86 2.24-1.86s2.26.97 2.37 1.96h-.68c-.12-.59-.57-1.32-1.72-1.32-1.18 0-1.52.6-1.52 1.16 0 .64.32.97 1.67 1.3 1.91.48 2.39 1.12 2.39 2.17 0 1.27-1 2.06-2.43 2.06-1.55 0-2.41-.84-2.6-2.1Z" stroke="none"/><path d="M48.64 58.82H49.9V56.64h.68v2.18H52.2v.66H50.58v4.55c0 .79.16 1.23.81 1.23.2 0 .49-.01.71-.08v.62c-.23.1-.56.13-.84.13-.87 0-1.35-.45-1.35-1.57V59.48H48.64Z" stroke="none"/><path d="M58.08 61.79c-.01-1.39-.75-2.48-2.08-2.48-1.4 0-2.03 1.01-2.18 2.48Zm-4.3.62c.01 1.81.9 2.93 2.2 2.93 1.28 0 1.71-.74 1.96-1.32h.69c-.28.92-1 1.97-2.67 1.97-2.06 0-2.86-1.84-2.86-3.61 0-2 .96-3.73 2.94-3.73 2.09 0 2.75 1.86 2.75 3.18 0 .2 0 .39-.01.57Z" stroke="none"/><path d="M69.71 60.63c0-.6 0-1.26-.01-1.81h.67c.01.24.04.84.03 1.25.29-.7.91-1.42 2.03-1.42.95 0 1.7.49 1.97 1.39.34-.73 1.02-1.39 2.21-1.39 1.04 0 2.13.62 2.13 2.56v4.61h-.68V61.3c0-.94-.33-1.96-1.59-1.96-1.32 0-1.91 1.09-1.91 2.45v4.03h-.66V61.32c0-1.02-.3-1.98-1.55-1.98-1.32 0-1.95 1.2-1.95 2.63v3.85h-.68Z" stroke="none"/><path d="M84.99 62.26H83.66c-1.51 0-2.44.41-2.44 1.61 0 .88.61 1.49 1.56 1.49 1.94 0 2.21-1.33 2.21-2.84Zm.66 2.24c0 .62.05 1.11.1 1.33H85.1c-.05-.17-.09-.48-.12-1.08-.23.52-.83 1.25-2.22 1.25-1.57 0-2.25-1.05-2.25-2.1 0-1.54 1.15-2.24 3.19-2.24h1.29v-.71c0-.7-.2-1.64-1.75-1.64-1.37 0-1.57.74-1.72 1.32h-.68c.08-.77.54-1.96 2.41-1.96 1.55 0 2.41.67 2.41 2.21Z" stroke="none"/><path d="M88.02 60.59c0-.62 0-1.21-.01-1.77h.66c.03.23.04 1.14.03 1.33.3-.71.85-1.5 2.25-1.5 1.21 0 2.28.7 2.28 2.63v4.54h-.68V61.4c0-1.25-.5-2.06-1.68-2.06-1.61 0-2.17 1.39-2.17 2.91v3.57h-.68Z" stroke="none"/><path d="M99.5 62.26H98.17c-1.51 0-2.44.41-2.44 1.61 0 .88.61 1.49 1.56 1.49 1.94 0 2.21-1.33 2.21-2.84Zm.66 2.24c0 .62.06 1.11.1 1.33H99.6c-.05-.17-.09-.48-.12-1.08-.23.52-.83 1.25-2.22 1.25-1.57 0-2.25-1.05-2.25-2.1 0-1.54 1.15-2.24 3.19-2.24h1.29v-.71c0-.7-.2-1.64-1.75-1.64-1.37 0-1.57.74-1.72 1.32h-.68c.08-.77.54-1.96 2.41-1.96 1.55 0 2.41.67 2.41 2.21Z" stroke="none"/><path d="M102.71 62.3c0 1.67.85 2.87 2.16 2.87 1.7 0 2.21-1.16 2.21-2.98 0-1.85-.54-2.87-2.17-2.87-1.56 0-2.2 1.39-2.2 2.98m5.01 3.05c0 2.24-.96 3.42-2.93 3.42-1.76 0-2.5-1.02-2.66-2.09h.69c.25.97 1.02 1.43 1.99 1.43 1.76 0 2.25-1.18 2.25-2.96v-.73c-.37.91-1.03 1.4-2.26 1.4-1.59 0-2.81-1.33-2.81-3.5 0-2.35 1.3-3.67 2.9-3.67 1.38 0 1.98.67 2.17 1.23.01-.41.03-.9.04-1.07h.64c0 .25-.03 1.36-.03 2.03Z" stroke="none"/><path d="M114.52 61.79c-.01-1.39-.75-2.48-2.07-2.48-1.4 0-2.04 1.01-2.18 2.48Zm-4.3.62c.01 1.81.9 2.93 2.2 2.93 1.28 0 1.71-.74 1.95-1.32h.69c-.29.92-1 1.97-2.67 1.97-2.06 0-2.86-1.84-2.86-3.61 0-2 .96-3.73 2.94-3.73 2.09 0 2.75 1.86 2.75 3.18 0 .2 0 .39-.01.57Z" stroke="none"/><path d="M117.01 60.63c0-.6 0-1.26-.01-1.81h.67c.01.24.04.84.03 1.25.29-.7.91-1.42 2.04-1.42.95 0 1.69.49 1.97 1.39.34-.73 1.02-1.39 2.21-1.39 1.04 0 2.13.62 2.13 2.56v4.61h-.68V61.3c0-.94-.33-1.96-1.59-1.96-1.32 0-1.91 1.09-1.91 2.45v4.03h-.67V61.32c0-1.02-.3-1.98-1.55-1.98-1.32 0-1.95 1.2-1.95 2.63v3.85h-.68Z" stroke="none"/><path d="M132.83 61.79c-.01-1.39-.75-2.48-2.07-2.48-1.4 0-2.03 1.01-2.18 2.48Zm-4.3.62c.01 1.81.9 2.93 2.2 2.93 1.27 0 1.71-.74 1.95-1.32h.69c-.28.92-1 1.97-2.67 1.97-2.06 0-2.86-1.84-2.86-3.61 0-2 .96-3.73 2.94-3.73 2.09 0 2.75 1.86 2.75 3.18 0 .2 0 .39-.01.57Z" stroke="none"/><path d="M135.33 60.59c0-.62 0-1.21-.01-1.77h.66c.03.23.04 1.14.03 1.33.3-.71.85-1.5 2.25-1.5 1.21 0 2.28.7 2.28 2.63v4.54h-.68V61.4c0-1.25-.5-2.06-1.68-2.06-1.61 0-2.17 1.39-2.17 2.91v3.57h-.68Z" stroke="none"/><path d="M141.83 58.82h1.26V56.64h.68v2.18h1.62v.66h-1.62v4.55c0 .79.16 1.23.81 1.23.2 0 .49-.01.71-.08v.62c-.23.1-.56.13-.84.13-.87 0-1.36-.45-1.36-1.57V59.48h-1.26Z" stroke="none"/><path d="M161.1 62.17c0-1.62-.76-2.84-2.1-2.84-1.64 0-2.32 1.07-2.32 2.97 0 1.88.53 3.04 2.22 3.04 1.41 0 2.2-1.23 2.2-3.17m-4.38 2.62v3.84h-.68V60.55c0-.57 0-1.19-.01-1.72h.66c.03.27.03.69.03 1.26.42-.84 1.17-1.43 2.39-1.43 1.6 0 2.71 1.39 2.71 3.49 0 2.52-1.3 3.85-2.95 3.85-1.19 0-1.82-.55-2.16-1.2" stroke="none"/><path d="M167.63 62.26H166.3c-1.51 0-2.44.41-2.44 1.61 0 .88.61 1.49 1.56 1.49 1.94 0 2.21-1.33 2.21-2.84Zm.66 2.24c0 .62.05 1.11.1 1.33h-.65c-.05-.17-.09-.48-.12-1.08-.23.52-.83 1.25-2.22 1.25-1.57 0-2.25-1.05-2.25-2.1 0-1.54 1.15-2.24 3.19-2.24h1.29v-.71c0-.7-.2-1.64-1.75-1.64-1.37 0-1.57.74-1.72 1.32h-.68c.08-.77.54-1.96 2.41-1.96 1.55 0 2.41.67 2.41 2.21Z" stroke="none"/><path d="M170.67 60.73c0-1.18-.01-1.68-.01-1.9h.67c.01.22.03.67.03 1.57.39-1.05 1.26-1.68 2.36-1.74v.76c-1.41.1-2.36 1.11-2.36 2.77v3.64h-.68Z" stroke="none"/><path d="M174.6 58.82h1.26V56.64h.68v2.18h1.62v.66h-1.62v4.55c0 .79.17 1.23.82 1.23.2 0 .49-.01.71-.08v.62c-.23.1-.56.13-.84.13-.87 0-1.36-.45-1.36-1.57V59.48H174.6Z" stroke="none"/><path d="M179.55 60.59c0-.62 0-1.21-.01-1.77h.67c.03.23.04 1.14.03 1.33.3-.71.85-1.5 2.25-1.5 1.21 0 2.28.7 2.28 2.63v4.54h-.68V61.4c0-1.25-.5-2.06-1.68-2.06-1.62 0-2.17 1.39-2.17 2.91v3.57h-.68Z" stroke="none"/><path d="M191.56 61.79c-.01-1.39-.75-2.48-2.07-2.48-1.4 0-2.03 1.01-2.18 2.48Zm-4.3.62c.01 1.81.89 2.93 2.2 2.93 1.28 0 1.71-.74 1.95-1.32h.69c-.29.92-1 1.97-2.67 1.97-2.06 0-2.86-1.84-2.86-3.61 0-2 .96-3.73 2.94-3.73 2.09 0 2.75 1.86 2.75 3.18 0 .2 0 .39-.01.57Z" stroke="none"/><path d="M194.05 60.73c0-1.18-.01-1.68-.01-1.9h.67c.01.22.03.67.03 1.57.39-1.05 1.26-1.68 2.36-1.74v.76c-1.41.1-2.36 1.11-2.36 2.77v3.64h-.68Z" stroke="none"/><path d="M198.64 63.89c.23.91.85 1.46 1.93 1.46 1.21 0 1.69-.58 1.69-1.36 0-.8-.33-1.19-1.85-1.57-1.75-.43-2.18-.98-2.18-1.9 0-.97.71-1.86 2.24-1.86s2.27.97 2.37 1.96h-.68c-.12-.59-.57-1.32-1.72-1.32-1.18 0-1.52.6-1.52 1.16 0 .64.33.97 1.67 1.3 1.91.48 2.39 1.12 2.39 2.17 0 1.27-1 2.06-2.43 2.06-1.55 0-2.42-.84-2.61-2.1Z" stroke="none"/><path d="M212.91 58.82h1.26V56.64h.68v2.18h1.61v.66h-1.61v4.55c0 .79.16 1.23.82 1.23.2 0 .49-.01.7-.08v.62c-.23.1-.56.13-.84.13-.87 0-1.35-.45-1.35-1.57V59.48h-1.26Z" stroke="none"/><path d="M218.07 62.33c0 1.67.87 3.01 2.31 3.01 1.46 0 2.29-1.25 2.29-3.01 0-1.65-.81-3.01-2.32-3.01-1.55 0-2.28 1.33-2.28 3.01m5.32-.01c0 1.95-1.04 3.68-3.06 3.68-1.83 0-2.97-1.56-2.97-3.67 0-2 1.07-3.67 3.04-3.67 1.8 0 3 1.46 3 3.66" stroke="none"/><path d="M234.34 58.82h.68v7h-.68Zm0-3.32h.68v1.36h-.68Z" stroke="none"/><path d="M237.38 60.59c0-.62 0-1.21-.01-1.77h.66c.03.23.04 1.14.03 1.33.3-.71.85-1.5 2.25-1.5 1.21 0 2.28.7 2.28 2.63v4.54h-.68V61.4c0-1.25-.5-2.06-1.68-2.06-1.61 0-2.17 1.39-2.17 2.91v3.57h-.68Z" stroke="none"/><path d="M243.88 58.82h1.26V56.64h.68v2.18h1.61v.66h-1.61v4.55c0 .79.16 1.23.81 1.23.2 0 .49-.01.71-.08v.62c-.23.1-.56.13-.84.13-.87 0-1.36-.45-1.36-1.57V59.48h-1.26Z" stroke="none"/><path d="M253.32 61.79c-.01-1.39-.75-2.48-2.07-2.48-1.4 0-2.04 1.01-2.18 2.48Zm-4.3.62c.01 1.81.89 2.93 2.2 2.93 1.28 0 1.71-.74 1.95-1.32h.69c-.29.92-1 1.97-2.67 1.97-2.06 0-2.86-1.84-2.86-3.61 0-2 .96-3.73 2.94-3.73 2.09 0 2.75 1.86 2.75 3.18 0 .2 0 .39-.01.57Z" stroke="none"/><path d="M256.14 62.3c0 1.67.85 2.87 2.16 2.87 1.7 0 2.21-1.16 2.21-2.98 0-1.85-.54-2.87-2.17-2.87-1.56 0-2.2 1.39-2.2 2.98m5.01 3.05c0 2.24-.96 3.42-2.93 3.42-1.76 0-2.5-1.02-2.66-2.09h.69c.24.97 1.02 1.43 1.99 1.43 1.76 0 2.25-1.18 2.25-2.96v-.73c-.37.91-1.03 1.4-2.27 1.4-1.59 0-2.81-1.33-2.81-3.5 0-2.35 1.3-3.67 2.9-3.67 1.38 0 1.98.67 2.17 1.23.01-.41.03-.9.04-1.07h.64c0 .25-.03 1.36-.03 2.03Z" stroke="none"/><path d="M263.5 60.73c0-1.18-.01-1.68-.01-1.9h.66c.01.22.03.67.03 1.57.39-1.05 1.26-1.68 2.36-1.74v.76c-1.41.1-2.36 1.11-2.36 2.77v3.64h-.68Z" stroke="none"/><path d="M271.79 62.26h-1.33c-1.51 0-2.44.41-2.44 1.61 0 .88.61 1.49 1.56 1.49 1.94 0 2.21-1.33 2.21-2.84Zm.66 2.24c0 .62.05 1.11.1 1.33h-.65c-.05-.17-.1-.48-.12-1.08-.23.52-.83 1.25-2.22 1.25-1.57 0-2.25-1.05-2.25-2.1 0-1.54 1.15-2.24 3.19-2.24h1.29v-.71c0-.7-.2-1.64-1.75-1.64-1.37 0-1.57.74-1.72 1.32h-.68c.08-.77.54-1.96 2.41-1.96 1.55 0 2.41.67 2.41 2.21Z" stroke="none"/><path d="M273.74 58.82H275V56.64h.68v2.18h1.62v.66h-1.62v4.55c0 .79.16 1.23.82 1.23.2 0 .49-.01.7-.08v.62c-.23.1-.56.13-.84.13-.87 0-1.36-.45-1.36-1.57V59.48h-1.26Z" stroke="none"/><path d="M283.18 61.79c-.01-1.39-.75-2.48-2.07-2.48-1.4 0-2.03 1.01-2.18 2.48Zm-4.3.62c.01 1.81.9 2.93 2.2 2.93 1.27 0 1.71-.74 1.95-1.32h.69c-.28.92-1 1.97-2.67 1.97-2.06 0-2.86-1.84-2.86-3.61 0-2 .96-3.73 2.94-3.73 2.09 0 2.75 1.86 2.75 3.18 0 .2 0 .39-.01.57Z" stroke="none"/><path d="M26.42 78.58c0-.81 0-1.43-.01-1.95h1.65c.02.17.04.84.04 1.33.33-.87 1.1-1.48 2.28-1.5v1.68c-1.41-.01-2.28.51-2.28 2.43v3.26H26.42Z" stroke="none"/><path d="M35.89 79.48c-.01-.95-.42-1.74-1.45-1.74s-1.45.73-1.55 1.74Zm-3.04 1.11c0 1.09.53 2.02 1.57 2.02.9 0 1.18-.42 1.37-.89h1.69c-.26.9-1.01 2.27-3.11 2.27-2.26 0-3.22-1.8-3.22-3.67 0-2.22 1.1-3.86 3.3-3.86 2.35 0 3.13 1.82 3.13 3.52 0 .23 0 .4-.02.6Z" stroke="none"/><path d="M40.29 81.7c.16.65.65 1.02 1.45 1.02.82 0 1.12-.33 1.12-.84 0-.53-.31-.76-1.42-1.04-2.18-.55-2.56-1.25-2.56-2.25 0-1.04.72-2.13 2.72-2.13s2.73 1.15 2.8 2.14H42.8c-.08-.33-.31-.88-1.27-.88-.75 0-.99.36-.99.73 0 .42.24.62 1.42.91 2.25.54 2.61 1.34 2.61 2.4 0 1.22-.91 2.25-2.9 2.25-2.01 0-2.89-1.02-3.05-2.3Z" stroke="none"/><path d="M50.9 80.11c0-1.39-.57-2.23-1.58-2.23-1.21 0-1.66.8-1.66 2.35 0 1.49.4 2.36 1.58 2.36 1.11 0 1.66-.91 1.66-2.48m-3.17 2.99v3.5H46.05V78.37c0-.58 0-1.17-.01-1.74h1.63c.03.21.06.65.06.98.33-.6.98-1.14 2.11-1.14 1.58 0 2.78 1.37 2.78 3.59 0 2.55-1.35 3.95-3.04 3.95-1.03 0-1.57-.42-1.85-.89" stroke="none"/><path d="M55.52 80.23c0 1.45.64 2.38 1.68 2.38 1.06 0 1.65-.91 1.65-2.37 0-1.54-.6-2.39-1.67-2.39-1.03 0-1.65.82-1.65 2.38m5.04-.02c0 2.14-1.23 3.78-3.41 3.78-2.11 0-3.35-1.59-3.35-3.75 0-2.19 1.26-3.79 3.44-3.79 2.01 0 3.32 1.5 3.32 3.75" stroke="none"/><path d="M62.11 78.44c0-.62 0-1.27-.01-1.82h1.64c.04.2.06.78.07 1.01.25-.51.82-1.17 2.08-1.17 1.37 0 2.32.93 2.32 2.77v4.6H66.51v-4.4c0-.9-.31-1.54-1.24-1.54-.99 0-1.48.66-1.48 1.99v3.95H62.11Z" stroke="none"/><path d="M71.19 81.7c.16.65.65 1.02 1.45 1.02.82 0 1.12-.33 1.12-.84 0-.53-.31-.76-1.42-1.04-2.18-.55-2.56-1.25-2.56-2.25 0-1.04.72-2.13 2.72-2.13s2.73 1.15 2.8 2.14H73.7c-.07-.33-.3-.88-1.27-.88-.75 0-.99.36-.99.73 0 .42.24.62 1.42.91 2.26.54 2.62 1.34 2.62 2.4 0 1.22-.91 2.25-2.9 2.25-2.01 0-2.89-1.02-3.05-2.3Z" stroke="none"/><path d="M76.98 76.63h1.69v7.2H76.98Zm0-3.05h1.69v1.7H76.98Z" stroke="none"/><path d="M85.53 80.13c0-1.32-.52-2.25-1.62-2.25-1.23 0-1.67.84-1.67 2.39 0 1.31.39 2.33 1.63 2.33 1.07 0 1.65-.97 1.65-2.46m-4.89-6.55h1.69v3.9c.3-.51.89-1.02 2.07-1.02 1.85 0 2.85 1.57 2.85 3.63 0 2.1-1.04 3.9-3.03 3.9-1.06 0-1.56-.36-1.91-.94 0 .28-.03.59-.06.77H80.62c.01-.79.01-1.59.01-2.38Z" stroke="none"/><path d="M88.79 83.83h1.69V73.58H88.79Z" fill-rule="evenodd" stroke="none"/><path d="M96.74 79.48c-.01-.95-.42-1.74-1.45-1.74s-1.46.73-1.55 1.74Zm-3.04 1.11c0 1.09.53 2.02 1.57 2.02.9 0 1.18-.42 1.37-.89h1.69c-.26.9-1.01 2.27-3.11 2.27-2.26 0-3.22-1.8-3.22-3.67 0-2.22 1.1-3.86 3.29-3.86 2.35 0 3.13 1.82 3.13 3.52 0 .23 0 .4-.02.6Z" stroke="none"/><path d="M123.1 80.11c0-1.39-.57-2.23-1.58-2.23-1.21 0-1.66.8-1.66 2.35 0 1.49.4 2.36 1.58 2.36 1.11 0 1.66-.91 1.66-2.48m-3.17 2.99v3.5h-1.68V78.37c0-.58 0-1.17-.01-1.74h1.63c.03.21.06.65.06.98.32-.6.98-1.14 2.11-1.14 1.58 0 2.78 1.37 2.78 3.59 0 2.55-1.35 3.95-3.04 3.95-1.03 0-1.57-.42-1.85-.89" stroke="none"/><path d="M126.36 78.58c0-.81 0-1.43-.01-1.95H128c.02.17.05.84.05 1.33.33-.87 1.1-1.48 2.27-1.5v1.68c-1.41-.01-2.27.51-2.27 2.43v3.26h-1.69Z" stroke="none"/><path d="M135.35 80.47h-.9c-1.24 0-1.78.38-1.78 1.18 0 .6.37 1.07 1.12 1.07 1.38 0 1.56-.98 1.56-2.05ZM137 82.07c0 .67.05 1.58.1 1.76h-1.61c-.06-.15-.1-.52-.1-.78-.25.43-.75.95-2.02.95-1.67 0-2.38-1.13-2.38-2.24 0-1.63 1.26-2.38 3.31-2.38h1.06v-.5c0-.55-.18-1.15-1.22-1.15-.93 0-1.12.44-1.22.97H131.3c.1-1.18.81-2.26 2.89-2.25 1.81.01 2.8.75 2.8 2.44Z" stroke="none"/><path d="M144.82 81.54c-.26 1.21-1.07 2.45-3.05 2.45-2.09 0-3.23-1.51-3.23-3.72 0-2.1 1.21-3.82 3.32-3.82 2.24 0 2.9 1.65 2.96 2.51h-1.65c-.14-.64-.5-1.12-1.34-1.12-1 0-1.57.9-1.57 2.37 0 1.57.58 2.4 1.55 2.4.73 0 1.14-.43 1.35-1.08Z" stroke="none"/><path d="M145.6 76.63h1.12V74.62h1.69v2.01h1.42v1.34h-1.42v3.78c0 .6.16.86.76.86.13 0 .34-.01.5-.04v1.23c-.35.13-.84.14-1.21.14-1.27 0-1.73-.7-1.73-1.93V77.96H145.6Z" stroke="none"/><path d="M151.11 76.63h1.69v7.2h-1.69Zm0-3.05h1.69v1.7h-1.69Z" stroke="none"/><path d="M160.63 81.54c-.26 1.21-1.07 2.45-3.05 2.45-2.09 0-3.23-1.51-3.23-3.72 0-2.1 1.21-3.82 3.32-3.82 2.24 0 2.9 1.65 2.96 2.51h-1.65c-.14-.64-.5-1.12-1.34-1.12-1 0-1.57.9-1.57 2.37 0 1.57.58 2.4 1.55 2.4.73 0 1.14-.43 1.35-1.08Z" stroke="none"/><path d="M166.42 79.48c-.01-.95-.42-1.74-1.45-1.74s-1.46.73-1.55 1.74Zm-3.03 1.11c0 1.09.53 2.02 1.57 2.02.9 0 1.18-.42 1.37-.89h1.69c-.26.9-1.01 2.27-3.11 2.27-2.26 0-3.22-1.8-3.22-3.67 0-2.22 1.1-3.86 3.29-3.86 2.35 0 3.13 1.82 3.13 3.52 0 .23 0 .4-.02.6Z" stroke="none"/><path d="M170.83 81.7c.16.65.65 1.02 1.45 1.02.82 0 1.12-.33 1.12-.84 0-.53-.31-.76-1.42-1.04-2.18-.55-2.56-1.25-2.56-2.25 0-1.04.72-2.13 2.72-2.13 2.01 0 2.73 1.15 2.8 2.14h-1.61c-.07-.33-.3-.88-1.27-.88-.75 0-.99.36-.99.73 0 .42.24.62 1.42.91 2.26.54 2.62 1.34 2.62 2.4 0 1.22-.91 2.25-2.9 2.25-2.01 0-2.89-1.02-3.05-2.3Z" stroke="none"/><path d="M200.18 80.26h-1.33c-1.51 0-2.44.41-2.44 1.61 0 .88.61 1.49 1.56 1.49 1.94 0 2.21-1.33 2.21-2.84Zm.66 2.24c0 .62.05 1.11.1 1.33h-.65c-.05-.17-.09-.48-.12-1.08-.23.52-.83 1.25-2.22 1.25-1.58 0-2.25-1.05-2.25-2.1 0-1.54 1.15-2.24 3.19-2.24h1.29v-.71c0-.7-.2-1.64-1.75-1.64-1.37 0-1.57.74-1.72 1.32h-.68c.08-.77.54-1.96 2.41-1.96 1.55 0 2.41.67 2.41 2.21Z" stroke="none"/><path d="M208.21 81.77C207.89 83 207.1 84 205.58 84c-1.7 0-2.9-1.3-2.9-3.64 0-1.92.99-3.7 2.98-3.7 1.72 0 2.43 1.26 2.55 2.24h-.69c-.2-.81-.72-1.58-1.87-1.58-1.44 0-2.25 1.26-2.25 3.01 0 1.67.76 3.01 2.18 3.01.99 0 1.59-.52 1.94-1.57Z" stroke="none"/><path d="M209.92 78.73c0-1.18-.01-1.68-.01-1.9h.66c.01.22.03.67.03 1.57.39-1.05 1.26-1.68 2.36-1.74v.76c-1.41.1-2.36 1.11-2.36 2.77v3.64h-.68Z" stroke="none"/><path d="M214.51 80.33c0 1.67.87 3.01 2.31 3.01 1.46 0 2.29-1.25 2.29-3.01 0-1.65-.81-3.01-2.32-3.01-1.55 0-2.28 1.33-2.28 3.01m5.32-.01c0 1.95-1.04 3.68-3.07 3.68-1.83 0-2.97-1.56-2.97-3.67 0-2 1.07-3.67 3.04-3.67 1.8 0 3 1.46 3 3.66" stroke="none"/><path d="M221.78 81.89c.23.91.86 1.46 1.93 1.46 1.21 0 1.7-.58 1.7-1.36 0-.8-.33-1.19-1.85-1.57-1.75-.43-2.18-.98-2.18-1.9 0-.97.71-1.86 2.24-1.86s2.27.97 2.37 1.96h-.68c-.12-.59-.57-1.32-1.72-1.32-1.18 0-1.52.6-1.52 1.16 0 .64.33.97 1.67 1.3 1.91.48 2.39 1.12 2.39 2.17 0 1.27-1 2.06-2.43 2.06-1.55 0-2.42-.84-2.6-2.1Z" stroke="none"/><path d="M228.1 81.89c.23.91.86 1.46 1.93 1.46 1.21 0 1.7-.58 1.7-1.36 0-.8-.33-1.19-1.85-1.57-1.75-.43-2.18-.98-2.18-1.9 0-.97.71-1.86 2.24-1.86s2.27.97 2.37 1.96h-.68c-.12-.59-.57-1.32-1.72-1.32-1.18 0-1.52.6-1.52 1.16 0 .64.33.97 1.67 1.3 1.91.48 2.39 1.12 2.39 2.17 0 1.27-1 2.06-2.43 2.06-1.55 0-2.42-.84-2.6-2.1Z" stroke="none"/><path d="M258.09 79.79c-.01-1.39-.75-2.48-2.08-2.48-1.4 0-2.03 1.01-2.18 2.48Zm-4.3.62c.01 1.81.9 2.93 2.2 2.93 1.28 0 1.71-.74 1.95-1.32h.69c-.29.92-1 1.97-2.67 1.97-2.06 0-2.86-1.84-2.86-3.61 0-2 .96-3.73 2.94-3.73 2.09 0 2.75 1.86 2.75 3.18 0 .2 0 .39-.01.57Z" stroke="none"/><path d="M260.61 76.82c1.1 3.21 1.86 5.39 2.12 6.29h.01c.15-.52.91-2.6 2.22-6.29h.72l-2.56 7h-.81l-2.42-7Z" stroke="none"/><path d="M271.6 79.79c-.01-1.39-.75-2.48-2.07-2.48-1.4 0-2.04 1.01-2.18 2.48Zm-4.3.62c.01 1.81.89 2.93 2.2 2.93 1.28 0 1.71-.74 1.95-1.32h.69c-.29.92-1 1.97-2.67 1.97-2.06 0-2.86-1.84-2.86-3.61 0-2 .96-3.73 2.94-3.73 2.09 0 2.75 1.86 2.75 3.18 0 .2 0 .39-.01.57Z" stroke="none"/><path d="M274.09 78.59c0-.62 0-1.21-.01-1.77h.67c.03.23.04 1.14.03 1.33.3-.71.85-1.5 2.25-1.5 1.21 0 2.28.7 2.28 2.63v4.54h-.68V79.4c0-1.25-.5-2.06-1.68-2.06-1.61 0-2.17 1.39-2.17 2.91v3.57h-.68Z" stroke="none"/><path d="M280.59 76.82h1.26V74.64h.68v2.18h1.62v.66h-1.62v4.55c0 .79.16 1.23.81 1.23.2 0 .49-.01.71-.08v.62c-.23.1-.56.13-.84.13-.87 0-1.36-.45-1.36-1.57V77.48h-1.26Z" stroke="none"/><path d="M31.67 98.17c0-1.62-.76-2.84-2.1-2.84-1.64 0-2.32 1.07-2.32 2.97 0 1.88.53 3.04 2.22 3.04 1.41 0 2.2-1.23 2.2-3.17m-4.38 2.62v3.84h-.68V96.55c0-.57 0-1.19-.01-1.72h.67c.03.27.03.69.03 1.26.42-.84 1.17-1.43 2.39-1.43 1.6 0 2.71 1.39 2.71 3.49 0 2.52-1.3 3.85-2.94 3.85-1.19 0-1.82-.55-2.16-1.2" stroke="none"/><path d="M34.22 101.83h.68V91.51h-.68Z" fill-rule="evenodd" stroke="none"/><path d="M41.15 98.26H39.82c-1.51 0-2.44.41-2.44 1.61 0 .88.61 1.49 1.56 1.49 1.94 0 2.21-1.33 2.21-2.84Zm.66 2.24c0 .62.06 1.11.1 1.33h-.65c-.05-.17-.09-.48-.12-1.08-.23.52-.83 1.25-2.22 1.25-1.57 0-2.25-1.05-2.25-2.1 0-1.54 1.15-2.24 3.19-2.24h1.29v-.71c0-.7-.2-1.64-1.75-1.64-1.37 0-1.57.74-1.72 1.32h-.68c.08-.77.54-1.96 2.41-1.96 1.55 0 2.41.67 2.41 2.21Z" stroke="none"/><path d="M44.18 96.59c0-.62 0-1.21-.01-1.77h.67c.03.23.04 1.14.03 1.33.3-.71.85-1.5 2.25-1.5 1.21 0 2.28.7 2.28 2.63v4.54h-.68V97.4c0-1.25-.5-2.06-1.68-2.06-1.61 0-2.17 1.39-2.17 2.91v3.57h-.68Z" stroke="none"/><path d="M51.75 96.59c0-.62 0-1.21-.01-1.77h.66c.03.23.04 1.14.03 1.33.3-.71.85-1.5 2.25-1.5 1.21 0 2.28.7 2.28 2.63v4.54h-.68V97.4c0-1.25-.5-2.06-1.68-2.06-1.61 0-2.17 1.39-2.17 2.91v3.57h-.68Z" stroke="none"/><path d="M59.31 94.82h.68v7h-.68Zm0-3.32h.68v1.36h-.68Z" stroke="none"/><path d="M62.35 96.59c0-.62 0-1.21-.01-1.77H63c.03.23.04 1.14.03 1.33.3-.71.85-1.5 2.25-1.5 1.21 0 2.28.7 2.28 2.63v4.54h-.68V97.4c0-1.25-.5-2.06-1.68-2.06-1.61 0-2.17 1.39-2.17 2.91v3.57h-.68Z" stroke="none"/><path d="M70.09 98.3c0 1.67.85 2.87 2.16 2.87 1.7 0 2.21-1.16 2.21-2.98 0-1.85-.54-2.87-2.17-2.87-1.56 0-2.2 1.39-2.2 2.98m5.01 3.05c0 2.24-.96 3.42-2.93 3.42-1.76 0-2.5-1.02-2.66-2.09h.69c.24.97 1.02 1.43 1.99 1.43 1.76 0 2.25-1.18 2.25-2.96v-.73c-.37.91-1.03 1.4-2.26 1.4-1.59 0-2.81-1.33-2.81-3.5 0-2.35 1.3-3.67 2.9-3.67 1.38 0 1.98.67 2.17 1.23.01-.41.03-.9.04-1.07h.64c0 .25-.03 1.36-.03 2.03Z" stroke="none"/><path d="M85.1 98.26H83.77c-1.51 0-2.44.41-2.44 1.61 0 .88.61 1.49 1.56 1.49 1.94 0 2.21-1.33 2.21-2.84Zm.66 2.24c0 .62.05 1.11.1 1.33h-.65c-.05-.17-.09-.48-.12-1.08-.23.52-.83 1.25-2.22 1.25-1.57 0-2.25-1.05-2.25-2.1 0-1.54 1.15-2.24 3.19-2.24h1.29v-.71c0-.7-.2-1.64-1.75-1.64-1.37 0-1.57.74-1.72 1.32h-.68c.08-.77.54-1.96 2.41-1.96 1.55 0 2.41.67 2.41 2.21Z" stroke="none"/><path d="M88.14 96.59c0-.62 0-1.21-.01-1.77h.67c.03.23.04 1.14.03 1.33.3-.71.85-1.5 2.25-1.5 1.21 0 2.28.7 2.28 2.63v4.54h-.68V97.4c0-1.25-.5-2.06-1.68-2.06-1.62 0-2.17 1.39-2.17 2.91v3.57h-.68Z" stroke="none"/><path d="M95.88 98.38c0 1.92.96 2.95 2.13 2.95 1.79 0 2.28-1.27 2.28-3.18 0-1.81-.42-2.84-2.16-2.84-1.34 0-2.25 1.11-2.25 3.07m5.06-6.88v8.31c0 .67 0 1.32.01 2.02h-.65c-.03-.17-.04-.83-.04-1.18-.34.85-1.1 1.34-2.28 1.34-1.76 0-2.82-1.48-2.82-3.59 0-2.16 1.15-3.75 3-3.75 1.36 0 1.9.6 2.1 1.05V91.5Z" stroke="none"/><path d="M111.4 97.79c-.01-1.39-.75-2.48-2.08-2.48-1.4 0-2.03 1.01-2.18 2.48Zm-4.3.62c.01 1.81.9 2.93 2.2 2.93 1.28 0 1.71-.74 1.96-1.32h.69c-.29.92-1 1.97-2.67 1.97-2.06 0-2.86-1.84-2.86-3.61 0-2 .96-3.73 2.94-3.73 2.09 0 2.75 1.86 2.75 3.18 0 .2 0 .39-.01.57Z" stroke="none"/><path d="M113.85 94.82c1.13 1.72 1.61 2.49 1.89 2.91h.01c.33-.48 1-1.48 1.98-2.91h.77l-2.36 3.39 2.4 3.61h-.81c-.98-1.5-1.68-2.56-2.01-3.05h-.01c-.26.41-.87 1.36-1.98 3.05h-.79l2.4-3.56-2.29-3.45Z" stroke="none"/><path d="M124.23 97.79c-.01-1.39-.75-2.48-2.08-2.48-1.4 0-2.03 1.01-2.18 2.48Zm-4.3.62c.01 1.81.9 2.93 2.2 2.93 1.28 0 1.71-.74 1.96-1.32h.69c-.29.92-1 1.97-2.67 1.97-2.06 0-2.86-1.84-2.86-3.61 0-2 .96-3.73 2.94-3.73 2.09 0 2.75 1.86 2.75 3.18 0 .2 0 .39-.01.57Z" stroke="none"/><path d="M131.78 99.77c-.33 1.23-1.11 2.23-2.63 2.23-1.7 0-2.9-1.3-2.9-3.64 0-1.92.99-3.7 2.98-3.7 1.72 0 2.43 1.26 2.55 2.24h-.69c-.2-.81-.72-1.58-1.87-1.58-1.44 0-2.25 1.26-2.25 3.01 0 1.67.76 3.01 2.18 3.01.99 0 1.59-.52 1.94-1.57Z" stroke="none"/><path d="M138.49 99.78c0 .69.01 1.78.01 2.05h-.65c-.03-.18-.04-.65-.04-1.22-.28.83-.98 1.39-2.18 1.39-.98 0-2.22-.39-2.22-2.54V94.82h.66v4.47c0 1.02.31 2.02 1.65 2.02 1.52 0 2.09-.88 2.09-2.89v-3.6h.68Z" stroke="none"/><path d="M139.99 94.82h1.26V92.64h.68v2.18h1.62v.66h-1.62v4.55c0 .79.16 1.23.81 1.23.2 0 .49-.01.71-.08v.62c-.23.1-.56.13-.84.13-.87 0-1.36-.45-1.36-1.57V95.48h-1.26Z" stroke="none"/><path d="M145.06 94.82h.68v7h-.68Zm0-3.32h.68v1.36h-.68Z" stroke="none"/><path d="M148.28 98.33c0 1.67.87 3.01 2.31 3.01 1.46 0 2.29-1.25 2.29-3.01 0-1.65-.81-3.01-2.32-3.01-1.55 0-2.28 1.33-2.28 3.01m5.32-.01c0 1.95-1.04 3.68-3.06 3.68-1.83 0-2.97-1.56-2.97-3.67 0-2 1.07-3.67 3.04-3.67 1.8 0 3 1.46 3 3.66" stroke="none"/><path d="M155.41 96.59c0-.62 0-1.21-.01-1.77h.66c.03.23.04 1.14.03 1.33.3-.71.86-1.5 2.25-1.5 1.21 0 2.28.7 2.28 2.63v4.54h-.68V97.4c0-1.25-.5-2.06-1.68-2.06-1.62 0-2.17 1.39-2.17 2.91v3.57h-.68Z" stroke="none"/><path d="M162.5 101.83h.68v-1.81h-.68Z" fill-rule="evenodd" stroke="none"/><path d="M18.09 114.25H5.5V5.5H18.09" fill="none" stroke="#FF00A4" stroke-linecap="butt"/></g></g></svg>