<?xml version="1.0" encoding="UTF-8"?><!DOCTYPE svg PUBLIC "-//W3C//DTD SVG 1.0//EN" "http://www.w3.org/TR/2001/REC-SVG-20010904/DTD/svg10.dtd" []><svg xmlns="http://www.w3.org/2000/svg" xmlns:xlink="http://www.w3.org/1999/xlink" height="21" stroke="#000" stroke-linecap="square" stroke-miterlimit="10" viewBox="0 0 162.84 21.34" width="163"><defs><clipPath id="a"><path d="M0 0V21.34H162.84V0Z"/></clipPath><clipPath clip-path="url(#a)" id="b"><path d="M-95.5 129.76H864.62V-410.36H-95.5Z"/></clipPath></defs><g><g fill="#fff" stroke="none"><path clip-path="url(#b)" d="M7.68 6.21H5V5.45h6.2v.76H8.52v7.61H7.68Z"/><path clip-path="url(#b)" d="M12.31 7.79h.78v6.03h-.78Zm0-2.79h.78V6.23h-.78Z"/><path clip-path="url(#b)" d="M15.04 9.35c0-.52 0-1.08-.01-1.56h.76c.01.19.04.68.03 1.01.25-.57.78-1.15 1.73-1.15.82 0 1.43.43 1.66 1.14.3-.6.87-1.14 1.89-1.14.92 0 1.84.55 1.84 2.21v3.97h-.77V9.95c0-.76-.26-1.58-1.27-1.58-1.05 0-1.52.85-1.52 1.98v3.47h-.76V9.97c0-.83-.24-1.6-1.24-1.6-1.05 0-1.55.92-1.55 2.12v3.33h-.78Z"/><path clip-path="url(#b)" d="M28.67 10.31c-.01-1.1-.58-1.98-1.66-1.98-1.12 0-1.63.81-1.75 1.98Zm-3.44.62c.01 1.41.7 2.33 1.76 2.33 1.02 0 1.36-.57 1.56-1.04h.79c-.24.79-.86 1.75-2.38 1.75-1.81 0-2.53-1.56-2.53-3.11 0-1.76.85-3.22 2.59-3.22 1.84 0 2.44 1.59 2.44 2.79 0 .17 0 .34-.01.5Z"/><path clip-path="url(#b)" d="M30.99 13.82h.78V5h-.78Z" fill-rule="evenodd"/><path clip-path="url(#b)" d="M33.71 7.79h.78v6.03h-.78Zm0-2.79h.78V6.23h-.78Z"/><path clip-path="url(#b)" d="M36.45 9.31c0-.53 0-1.05-.01-1.52h.76c.02.19.04.9.03 1.08.25-.57.73-1.22 1.9-1.22 1.07 0 1.96.64 1.96 2.28v3.9H40.3V10.04c0-1-.39-1.66-1.35-1.66-1.26 0-1.72 1.05-1.72 2.32v3.13h-.78Z"/><path clip-path="url(#b)" d="M46.81 10.31c-.01-1.1-.58-1.98-1.66-1.98-1.12 0-1.63.81-1.75 1.98Zm-3.44.62c.01 1.41.7 2.33 1.76 2.33 1.02 0 1.36-.57 1.56-1.04h.79c-.24.79-.86 1.75-2.38 1.75-1.81 0-2.52-1.56-2.52-3.11 0-1.76.85-3.22 2.59-3.22 1.84 0 2.44 1.59 2.44 2.79 0 .17 0 .34-.01.5Z"/><path clip-path="url(#b)" d="M52.25 7.79c.88 2.63 1.49 4.49 1.7 5.26h.01c.14-.55.77-2.35 1.79-5.26h.81l-2.18 6.03h-.89L51.42 7.79Z"/><path clip-path="url(#b)" d="M61.04 10.81H59.98c-1.24 0-1.96.34-1.96 1.3 0 .7.48 1.19 1.25 1.19 1.55 0 1.77-1.07 1.77-2.28Zm.76 1.79c0 .54.05 1.04.08 1.23h-.75c-.05-.14-.08-.42-.1-.87-.2.43-.69 1.01-1.87 1.01-1.37 0-1.95-.92-1.95-1.83 0-1.34 1.01-1.95 2.76-1.95h1.06V9.63c0-.57-.17-1.31-1.4-1.31-1.09 0-1.26.58-1.38 1.06h-.76c.07-.74.52-1.74 2.16-1.73 1.38 0 2.15.59 2.15 1.94Z"/><path clip-path="url(#b)" d="M63.75 9.43c0-.94-.01-1.39-.01-1.64h.76c.01.18.03.61.03 1.3.32-.86 1.05-1.4 2.01-1.44v.83c-1.21.06-2.01.83-2.01 2.31v3.04h-.78Z"/><path clip-path="url(#b)" d="M67.71 7.79h.78v6.03h-.78Zm0-2.79h.78V6.23h-.78Z"/><path clip-path="url(#b)" d="M74.22 10.31c-.01-1.1-.58-1.98-1.66-1.98-1.12 0-1.63.81-1.75 1.98Zm-3.44.62c.01 1.41.7 2.33 1.76 2.33 1.02 0 1.36-.57 1.56-1.04h.79c-.24.79-.86 1.75-2.38 1.75-1.81 0-2.53-1.56-2.53-3.11 0-1.76.85-3.22 2.59-3.22 1.84 0 2.44 1.59 2.44 2.79 0 .17 0 .34-.01.5Z"/><path clip-path="url(#b)" d="M76.84 12.13c.19.73.69 1.16 1.56 1.16.96 0 1.34-.44 1.34-1.06 0-.63-.27-.94-1.5-1.24-1.58-.39-1.95-.89-1.95-1.7 0-.84.61-1.65 2.01-1.65s2.03.86 2.12 1.71h-.76c-.1-.46-.44-1.04-1.39-1.04-.93 0-1.2.47-1.2.91 0 .51.26.76 1.38 1.04 1.71.42 2.09 1 2.09 1.9 0 1.08-.84 1.8-2.18 1.8-1.42 0-2.16-.75-2.32-1.84Z"/><path clip-path="url(#b)" d="M89.45 10.69c0-1.42-.66-2.34-1.73-2.34-1.36 0-1.84.95-1.84 2.46 0 1.35.43 2.44 1.78 2.44 1.11 0 1.79-.97 1.79-2.56M85.15 5h.78V8.73c.27-.56.83-1.09 1.94-1.09 1.42 0 2.4 1.21 2.4 3.03 0 1.87-.9 3.29-2.55 3.29-.96 0-1.49-.38-1.79-1.03 0 .35-.02.72-.03.88h-.76c.01-.68.01-1.37.01-2.05Z"/><path clip-path="url(#b)" d="M91.93 7.79c1.07 3.19 1.59 4.7 1.77 5.34h.01c.21-.71.66-2.1 1.71-5.34h.8l-2.16 6.35c-.61 1.78-1.04 2.2-2.16 2.2-.2 0-.38-.01-.58-.04v-.74c.16.02.33.04.51.04.8 0 1.07-.38 1.46-1.52L91.08 7.79Z"/><path clip-path="url(#b)" d="M104.28 10.31c-.01-1.1-.58-1.98-1.66-1.98-1.12 0-1.63.81-1.75 1.98Zm-3.44.62c.01 1.41.7 2.33 1.76 2.33 1.02 0 1.36-.57 1.56-1.04h.79c-.24.79-.86 1.75-2.38 1.75-1.81 0-2.52-1.56-2.52-3.11 0-1.76.85-3.22 2.59-3.22 1.84 0 2.44 1.59 2.44 2.79 0 .17 0 .34-.01.5Z"/><path clip-path="url(#b)" d="M106.79 7.79c.88 2.63 1.49 4.49 1.7 5.26h.01c.14-.55.77-2.35 1.79-5.26h.81l-2.18 6.03h-.89l-2.06-6.03Z"/><path clip-path="url(#b)" d="M116.06 10.31c-.01-1.1-.58-1.98-1.66-1.98-1.12 0-1.63.81-1.75 1.98Zm-3.44.62c.01 1.41.7 2.33 1.76 2.33 1.02 0 1.36-.57 1.56-1.04h.79c-.24.79-.86 1.75-2.38 1.75-1.81 0-2.52-1.56-2.52-3.11 0-1.76.85-3.22 2.59-3.22 1.84 0 2.44 1.59 2.44 2.79 0 .17 0 .34-.01.5Z"/><path clip-path="url(#b)" d="M118.34 9.31c0-.53 0-1.05-.01-1.52h.76c.02.19.04.9.03 1.08.25-.57.73-1.22 1.9-1.22 1.07 0 1.96.64 1.96 2.28v3.9h-.78V10.04c0-1-.39-1.66-1.35-1.66-1.26 0-1.72 1.05-1.72 2.32v3.13h-.78Z"/><path clip-path="url(#b)" d="M124.05 7.79h1.05V5.95h.78V7.79h1.35v.7h-1.35v3.75c0 .64.14.98.69.98.16 0 .39-.01.56-.06v.65c-.22.09-.53.11-.79.11-.82 0-1.24-.43-1.24-1.41V8.49h-1.05Z"/><path clip-path="url(#b)" d="M130.78 7.79h1.05V5.95h.78V7.79h1.35v.7h-1.35v3.75c0 .64.14.98.69.98.16 0 .39-.01.56-.06v.65c-.22.09-.53.11-.79.11-.82 0-1.24-.43-1.24-1.41V8.49h-1.05Z"/><path clip-path="url(#b)" d="M135.61 7.79c1.07 3.19 1.59 4.7 1.77 5.34h.01c.21-.71.66-2.1 1.71-5.34h.8l-2.16 6.35c-.61 1.78-1.04 2.2-2.16 2.2-.2 0-.38-.01-.58-.04v-.74c.16.02.33.04.51.04.8 0 1.07-.38 1.46-1.52l-2.21-6.28Z"/><path clip-path="url(#b)" d="M145.48 10.68c0-1.35-.61-2.31-1.7-2.31-1.32 0-1.86.86-1.86 2.42 0 1.53.43 2.47 1.78 2.47 1.15 0 1.78-.99 1.78-2.58M141.96 13v3.22h-.78V9.27c0-.49 0-1.02-.01-1.48h.76c.02.22.03.58.03 1.02.34-.67.96-1.17 1.99-1.17 1.37 0 2.34 1.18 2.34 3.01 0 2.17-1.12 3.32-2.54 3.32-.99 0-1.51-.44-1.79-.97"/><path clip-path="url(#b)" d="M151.65 10.31c-.01-1.1-.58-1.98-1.66-1.98-1.12 0-1.63.81-1.75 1.98Zm-3.44.62c.01 1.41.7 2.33 1.76 2.33 1.02 0 1.36-.57 1.56-1.04h.79c-.24.79-.86 1.75-2.38 1.75-1.81 0-2.53-1.56-2.53-3.11 0-1.76.85-3.22 2.59-3.22 1.84 0 2.44 1.59 2.44 2.79 0 .17 0 .34-.01.5Z"/><path clip-path="url(#b)" d="M157.07 12.18h.77v1.64h-.77Zm0-4.38h.77V9.43h-.77Z"/></g></g></svg>