<?xml version="1.0" encoding="UTF-8"?><!DOCTYPE svg PUBLIC "-//W3C//DTD SVG 1.0//EN" "http://www.w3.org/TR/2001/REC-SVG-20010904/DTD/svg10.dtd" []><svg xmlns="http://www.w3.org/2000/svg" xmlns:xlink="http://www.w3.org/1999/xlink" height="20" stroke="#000" stroke-linecap="square" stroke-miterlimit="10" viewBox="0 0 41.69 20.41" width="42"><g><g fill="#FB03A0" stroke="none"><path d="M13.46 15.24H12.15c-.07-.26-.12-.63-.14-1.08-.48.71-1.36 1.23-2.8 1.23C6.49 15.4 5 13.27 5 10.51c0-2.91 1.61-5.1 4.52-5.1 2.33 0 3.74 1.34 3.98 3.02H11.74c-.24-.8-.82-1.57-2.25-1.57-2.01 0-2.67 1.71-2.67 3.57 0 1.78.71 3.5 2.66 3.5 1.86 0 2.25-1.31 2.25-2.44v-.09H9.48V9.89h3.98Z"/><path d="M16.78 11.64c0 1.45.64 2.38 1.68 2.38 1.06 0 1.65-.91 1.65-2.37 0-1.54-.6-2.39-1.67-2.39-1.03 0-1.65.82-1.65 2.38m5.04-.01c0 2.14-1.22 3.78-3.41 3.78-2.11 0-3.35-1.59-3.35-3.75 0-2.19 1.26-3.79 3.44-3.79 2.01 0 3.32 1.5 3.32 3.75"/><path d="M27.27 11.89h-.9c-1.24 0-1.78.38-1.78 1.18 0 .6.37 1.07 1.12 1.07 1.38 0 1.56-.98 1.56-2.05Zm1.64 1.59c0 .67.05 1.58.1 1.76H27.4c-.05-.15-.1-.51-.1-.78-.25.43-.75.95-2.03.95-1.67 0-2.38-1.13-2.38-2.24 0-1.63 1.26-2.38 3.31-2.38h1.06v-.5c0-.55-.18-1.15-1.22-1.15-.93 0-1.12.44-1.22.97H23.22c.1-1.18.81-2.26 2.89-2.25 1.81.01 2.81.75 2.81 2.44Z"/><path d="M30.91 15.24H32.6V5H30.91Z" fill-rule="evenodd"/><path d="M34.95 13.01h1.74v2.23H34.95Zm0-4.92h1.74v2.23H34.95Z"/></g></g></svg>