<?xml version="1.0" encoding="UTF-8"?><!DOCTYPE svg PUBLIC "-//W3C//DTD SVG 1.0//EN" "http://www.w3.org/TR/2001/REC-SVG-20010904/DTD/svg10.dtd" []><svg xmlns="http://www.w3.org/2000/svg" xmlns:xlink="http://www.w3.org/1999/xlink" height="27" stroke="#000" stroke-linecap="square" stroke-miterlimit="10" viewBox="0 0 241.92 27.05" width="242"><defs><clipPath id="a"><path d="M0 0V27.05H241.92V0Z"/></clipPath><clipPath clip-path="url(#a)" id="b"><path d="M-190.29 321.03H769.83V-219.09H-190.29Z"/></clipPath></defs><g><g fill="#fff" stroke="none"><path clip-path="url(#b)" d="M5 18.27h.98V5.67H5Z" fill-rule="evenodd"/><path clip-path="url(#b)" d="M9.13 11.53c0-.79 0-1.55-.02-2.27H10c.04.29.05 1.45.04 1.7.38-.91 1.1-1.92 2.89-1.92 1.56 0 2.93.91 2.93 3.39v5.84h-.91V12.58c0-1.59-.64-2.63-2.15-2.63-2.05 0-2.76 1.76-2.76 3.71v4.6H9.13Z"/><path clip-path="url(#b)" d="M17.52 9.26h1.61V6.45h.91v2.8h2.07v.87H20.04v5.82c0 1 .21 1.57 1.04 1.57.26 0 .62-.02.9-.11v.81c-.3.13-.73.16-1.09.16-1.13 0-1.76-.58-1.76-2.03V10.13H17.52Z"/><path clip-path="url(#b)" d="M29.67 13.07c-.02-1.77-.95-3.16-2.64-3.16-1.78 0-2.59 1.29-2.78 3.16Zm-5.48.81c.02 2.3 1.14 3.73 2.8 3.73 1.62 0 2.18-.94 2.49-1.68h.92c-.36 1.19-1.29 2.55-3.45 2.55-2.65 0-3.69-2.36-3.69-4.65 0-2.58 1.24-4.8 3.79-4.8 2.69 0 3.55 2.39 3.55 4.1 0 .25 0 .5-.02.74Z"/><path clip-path="url(#b)" d="M32.9 11.71c0-1.5-.02-2.15-.02-2.45h.89c.02.29.04.87.04 2.01.5-1.34 1.61-2.15 3.03-2.23v1.01c-1.81.12-3.03 1.4-3.03 3.55v4.67H32.9Z"/><path clip-path="url(#b)" d="M38.57 11.53c0-.79 0-1.55-.02-2.27h.89c.04.29.05 1.45.04 1.7.38-.91 1.1-1.92 2.89-1.92 1.56 0 2.93.91 2.93 3.39v5.84h-.91V12.58c0-1.59-.64-2.63-2.15-2.63-2.05 0-2.76 1.76-2.76 3.71v4.6h-.91Z"/><path clip-path="url(#b)" d="M53.33 13.68H51.64c-1.92 0-3.11.52-3.11 2.06 0 1.12.78 1.89 1.99 1.89 2.47 0 2.82-1.7 2.82-3.63Zm.89 2.86c0 .79.07 1.44.12 1.73h-.87c-.07-.21-.12-.61-.16-1.38-.3.66-1.06 1.59-2.85 1.59-2.02 0-2.9-1.35-2.9-2.71 0-1.98 1.49-2.89 4.1-2.89h1.65v-.91c0-.89-.26-2.09-2.23-2.09-1.74 0-2.01.94-2.2 1.68h-.9c.11-1.01.71-2.53 3.12-2.53 2 0 3.12.87 3.12 2.85Z"/><path clip-path="url(#b)" d="M57.26 18.27h.91V5h-.91Z" fill-rule="evenodd"/><path clip-path="url(#b)" d="M76.71 12.49c0-2.46.02-4.82.07-6.08h-.05c-.49 1.71-2.94 7.88-4.48 11.85H71.3c-1.16-3.09-3.69-9.95-4.25-11.87h-.04c.09 1.44.12 4.37.12 6.53v5.35h-.97V5.67h1.46c1.66 4.3 3.74 9.92 4.19 11.35h.03c.28-.93 2.69-7.17 4.39-11.35h1.45v12.6h-.98Z"/><path clip-path="url(#b)" d="M86.64 13.07c-.02-1.77-.95-3.16-2.64-3.16-1.78 0-2.59 1.29-2.78 3.16Zm-5.48.81c.02 2.3 1.14 3.73 2.8 3.73 1.62 0 2.18-.94 2.49-1.68h.92c-.36 1.19-1.29 2.55-3.45 2.55-2.65 0-3.69-2.36-3.69-4.65 0-2.58 1.24-4.8 3.79-4.8 2.69 0 3.55 2.39 3.55 4.1 0 .25 0 .5-.02.74Z"/><path clip-path="url(#b)" d="M95.67 13.07c-.02-1.77-.95-3.16-2.65-3.16-1.78 0-2.59 1.29-2.78 3.16Zm-5.48.81c.02 2.3 1.14 3.73 2.8 3.73 1.62 0 2.18-.94 2.49-1.68h.92c-.36 1.19-1.29 2.55-3.45 2.55-2.65 0-3.69-2.36-3.69-4.65 0-2.58 1.24-4.8 3.79-4.8 2.69 0 3.55 2.39 3.55 4.1 0 .25 0 .5-.02.74Z"/><path clip-path="url(#b)" d="M97.74 9.26h1.61V6.45h.91v2.8h2.07v.87h-2.07v5.82c0 1 .21 1.57 1.04 1.57.26 0 .62-.02.9-.11v.81c-.3.13-.73.16-1.09.16-1.13 0-1.76-.58-1.76-2.03V10.13H97.74Z"/><path clip-path="url(#b)" d="M104.28 9.26h.91v9.01h-.91Zm0-4.26h.91V6.76h-.91Z"/><path clip-path="url(#b)" d="M108.21 11.53c0-.79 0-1.55-.02-2.27h.89c.04.29.05 1.45.04 1.7.38-.91 1.1-1.92 2.89-1.92 1.56 0 2.93.91 2.93 3.39v5.84h-.91V12.58c0-1.59-.64-2.63-2.14-2.63-2.05 0-2.76 1.76-2.76 3.71v4.6h-.91Z"/><path clip-path="url(#b)" d="M118.22 13.73c0 2.13 1.09 3.67 2.75 3.67 2.16 0 2.82-1.48 2.82-3.81 0-2.36-.69-3.67-2.77-3.67-1.99 0-2.8 1.76-2.8 3.81m6.42 3.92c0 2.88-1.23 4.4-3.78 4.4-2.29 0-3.22-1.33-3.43-2.69h.92c.31 1.23 1.29 1.82 2.54 1.82 2.25 0 2.87-1.5 2.87-3.78v-.93c-.47 1.16-1.32 1.79-2.9 1.79-2.04 0-3.61-1.72-3.61-4.5 0-3.02 1.67-4.72 3.73-4.72 1.77 0 2.54.86 2.78 1.58.02-.52.04-1.15.05-1.36h.85c0 .34-.03 1.75-.03 2.61Z"/><path clip-path="url(#b)" d="M127.54 15.78c.29 1.16 1.09 1.86 2.46 1.86 1.54 0 2.16-.73 2.16-1.73 0-1.02-.42-1.52-2.35-2-2.26-.56-2.82-1.27-2.82-2.46 0-1.25.91-2.4 2.89-2.4s2.93 1.25 3.06 2.53h-.9c-.15-.75-.72-1.68-2.2-1.68-1.5 0-1.93.77-1.93 1.48 0 .82.41 1.23 2.13 1.66 2.47.61 3.08 1.45 3.08 2.8 0 1.64-1.29 2.65-3.14 2.65-2 0-3.12-1.09-3.36-2.71Z"/><path clip-path="url(#b)" d="M150.39 10.17l-3.04 4.85c-1.48 2.35-2.54 3.42-4.51 3.42-2 0-3.17-1.64-3.17-3.21 0-1.54.69-2.7 3.26-4.14 1.76-1.17 2.44-1.68 2.44-2.83 0-.98-.6-1.93-1.76-1.93-1.09 0-1.85.7-1.85 2 0 .81.54 1.56 1.58 2.58l7.22 7.35h-1.35l-6.58-6.71c-1.12-1.11-1.79-1.94-1.79-3.21 0-1.43.93-2.86 2.8-2.86 1.58 0 2.66 1.23 2.66 2.78 0 1.23-.66 2.03-2.8 3.39-2.44 1.42-2.86 2.31-2.86 3.5 0 1.29 1.07 2.38 2.2 2.38 1.41 0 2.34-.51 3.91-3.09l2.59-4.27Z"/><path clip-path="url(#b)" d="M160.36 6.6h-4.08V5.67h9.18V6.6h-4.1V18.27h-.99Z"/><path clip-path="url(#b)" d="M165.54 13.76c0 2.14 1.11 3.85 2.94 3.85 1.87 0 2.92-1.59 2.92-3.85 0-2.12-1.04-3.85-2.96-3.85-1.97 0-2.9 1.69-2.9 3.85m6.82-.02c0 2.51-1.35 4.74-3.95 4.74-2.36 0-3.83-2-3.83-4.72 0-2.58 1.38-4.72 3.92-4.72 2.32 0 3.86 1.87 3.86 4.7"/><path clip-path="url(#b)" d="M174.69 9.26c1.28 4.63 2.02 7.28 2.16 8.08h.02c.14-.73 1-3.52 2.35-8.08h.97c1.61 5.54 2.09 7.14 2.25 7.85h.02c.24-.99.64-2.34 2.23-7.85h.96l-2.75 9.01h-.99c-.94-3.2-2.05-7.06-2.23-7.89h-.02c-.17.89-1.15 4.09-2.28 7.89h-1.08l-2.56-9.01Z"/><path clip-path="url(#b)" d="M187.43 11.53c0-.79 0-1.55-.02-2.27h.89c.04.29.05 1.45.04 1.7.38-.91 1.1-1.92 2.89-1.92 1.56 0 2.93.91 2.93 3.39v5.84h-.91V12.58c0-1.59-.64-2.63-2.14-2.63-2.05 0-2.76 1.76-2.76 3.71v4.6h-.91Z"/><path clip-path="url(#b)" d="M202.16 5.67h.98v5.48h7.26V5.67h.98v12.6h-.98V12.07h-7.26v6.19h-.98Z"/><path clip-path="url(#b)" d="M219.62 13.68h-1.69c-1.92 0-3.11.52-3.11 2.06 0 1.12.78 1.89 1.99 1.89 2.47 0 2.82-1.7 2.82-3.63Zm.89 2.86c0 .79.07 1.44.12 1.73h-.87c-.07-.21-.12-.61-.16-1.38-.3.66-1.06 1.59-2.85 1.59-2.02 0-2.9-1.35-2.9-2.71 0-1.98 1.48-2.89 4.1-2.89h1.65v-.91c0-.89-.26-2.09-2.23-2.09-1.74 0-2.01.94-2.2 1.68h-.9c.11-1.01.71-2.53 3.12-2.53 2 0 3.12.87 3.12 2.85Z"/><path clip-path="url(#b)" d="M223.55 18.27h.91V5h-.91Z" fill-rule="evenodd"/><path clip-path="url(#b)" d="M227.47 18.27h.91V5h-.91Z" fill-rule="evenodd"/><path clip-path="url(#b)" d="M231.35 15.78c.29 1.16 1.09 1.86 2.46 1.86 1.54 0 2.16-.73 2.16-1.73 0-1.02-.42-1.52-2.35-2-2.26-.56-2.82-1.27-2.82-2.46 0-1.25.91-2.4 2.89-2.4s2.93 1.25 3.06 2.53h-.9c-.15-.75-.72-1.68-2.2-1.68-1.5 0-1.93.77-1.93 1.48 0 .82.41 1.23 2.13 1.66 2.47.61 3.08 1.45 3.08 2.8 0 1.64-1.29 2.65-3.14 2.65-2 0-3.12-1.09-3.36-2.71Z"/></g></g></svg>