<?xml version="1.0" encoding="UTF-8"?><!DOCTYPE svg PUBLIC "-//W3C//DTD SVG 1.0//EN" "http://www.w3.org/TR/2001/REC-SVG-20010904/DTD/svg10.dtd" []><svg xmlns="http://www.w3.org/2000/svg" xmlns:xlink="http://www.w3.org/1999/xlink" height="37" stroke="#000" stroke-linecap="square" stroke-miterlimit="10" viewBox="0 0 69.14 36.52" width="69"><g><g fill="#fff" fill-rule="evenodd" stroke="none"><path d="M29.23 9.97c.1.07.19.05.2.1.05.11-.18.38-.34.54-.14.06-.72.28-1.09.63-.89.57-2.19.04-3.27.01-.49.04-.7.2-1.04.68-.18.16-.24.21-.42.16-.11-.06-.04-.14 0-.18.1-.11.29-.16.28-.36 0-.23-.21-.36 0-.68.94-1.17 3.13-.31 4.65-.45.44-.1.45-.25.33-.24-1.34.11-1.95-1.26-3.37-.84-1.11.23-2.64 1.63-3.49.38-.38-.69.57-.34.39-1-.01-.18.33-.31.34-.1.09.31.26.6.64.7 1.66.15 2.97-1.43 4.62-.5.55.36 1 .82 1.57 1.16m.34-1.58c.48.53.97.58 1.6.48 1.43-.4 2.58-.68 3.98-.75 1.12-.01 2.53.11 3.36.45.36.18.54.43.4.73-.24.38-.45.44-.4 1.24 0 .06-.15.11-.16-.06.02-.25.02-.39-.11-.55-.34-.33-1.16-.41-1.78-.54-2.11-.43-4.46-.16-6.55.16-.44.01-.74-.2-.92-.45-.16-.45.28-.34.09-.89-.01-.05-.01-.1-.01-.14 0-.06.09-.18.17-.19.19.06.08.24.34.51"/><path d="M18.37 28.91c.05.65.48 1.08.99 1.36.59.38 1.67.3 2.3 0 .58-.35.97-.84.94-1.65V23.13h4.05c.53 0 .9.14 1.11.24 1.27.53 1.96 1.56 2.32 2.71V23.13h5.05v.9H31.56v2.61h3.43v.99c-1.14.01-.31 0-3.43 0v2.88h3.92V23.14h1.29c1.6 2.04 3.2 4.08 4.85 6.07l.01-.25V23.14h8.15v.94H47.14l-.05 7.31H45.68V24.08H42.74v7.31H41.51c-1.57-1.96-3.23-4.02-4.88-6.03V31.4H30.08v-3c-.36.79-.68 1.55-1.47 2.14-1.57 1.06-2.94.86-5.99.87.05-.04.36-.19.49-.29.15-.09.41-.34.64-.59 1.38-.01 2.58.15 3.49-.55.99-.77 1.42-1.99 1.26-3.47-.14-1.17-.87-2.05-2.01-2.44-.77-.11-1.62-.04-2.44-.07v4.98c-.05.92-.8 1.81-1.85 2.22-1.43.62-3.46.34-4.52-.64-.67-.62-.8-1.63-.78-2.75V23.14h1.47Zm9.18-7.41c.01.08.09.14.13.01Z"/><path d="M6.42 23.93v3.42c.65 0 2.04.1 2.48-.48.36-.49.44-1.53.16-2.16-.42-.9-1.62-.78-2.64-.78m1.98-.79c.49-.01 1.04.2 1.27.35.5.36.86.89.99 1.49.25 1.08-.18 2.04-.82 2.65-.8.77-1.92.68-3.43.67v3.09H5V23.13ZM28.4 17.05c-.05.44-.1.89-.13 1.33.16-.08.2-.09.4-.3.25-.21.24-.5.17-.69-.06-.14-.21-.31-.45-.34m-.31-3.82c.02-.1-.05-.19-.12-.05v.01c-.26.39-.53.78-1.03.95-.34.13.09.32-.23.62-.06.06-.06.38.13.25.63-.44 1.03-1.04 1.24-1.75Zm13.13 6.95c-.64-.04-1.26.55-1.38.85-.09.35.35-.03.34.49 0 0 .02.09.1.08.04 0 .06-.06.06-.06.2-.49.4-.97.88-1.28 0 0 .06-.02.05-.05-.01-.04-.05-.02-.05-.02m-.73-.84c-.15.23.05.2.09.25.04.1 0 .23.04.26.16.09.2-.15.39-.43.11-.19.53-.43.41-.48-.34-.08-.85.31-.93.39m-.45-1.37c-.11-.21-.31-.1-.45 0-.36.43-.28 1.02-.23 1.67.14.87-.84.94-1.11 1.53-.13.34-.26.93-.03 1.27.08.12.13.04.13-.01.11-.84.95-1.11 1.14-1.89.25-.8.08-1.71.85-2.09.05-.02.09-.05.11-.09.02-.08-.1-.13-.1-.13-.23-.06-.3-.03-.33-.28m-3.82-.87c-.39.35-1.03.16-1.46.01 0 0-.05-.01-.05.02.01.04.05.09.05.09.18.28.55.58 1.01.57.34-.11.52-.35.55-.69 0 0-.03-.02-.05-.02s-.03.01-.05.02m-.9-.87c-.38.19-.68.55-1.18.53-.08.04-.01.1.08.14.36.13.65-.12.85-.24.31-.25.55.1.67.16.02.01.02.02.07.02.16-.33.62-.12.67-.06.05.05.07 0 .06-.05-.01-.04-.1-.36-.1-.36-.06-.13-.19-.15-.29-.02-.26.4-.53-.16-.83-.11M27.55 21.5c-.1-.68-.11-1.45-.16-2.16-.31.09-.57.5-.6.72-.09.5.35.79.08 1.26-.14.12-.19.21-.29.14-.05-.09.16-.4-.11-.64-.28-.19-.46-.41-.44-.82.16-.62.78-.89 1.36-1.18-.01-.34 0-.72 0-.72.04-.52.06-.75.1-1.27-.49-.02-.97-.23-1.14-.61-.11-.15.03-.29.15-.35.34-.06.75-.09 1.06.06.16-.5.21-1.01.54-1.36 0 0 .05-.04.08-.04.05.01.05.09.05.09.15.53.21 1.07.24 1.68.49.31 1.11.58 1.06 1.22-.04.5-.65 1.08-1.33 1.39-.11.9-.24 1.8-.49 2.6ZM38.6 13.01c.01 1.47-.65 3-1.41 4.2-.5.64-.67 1.47-1.63 1.75-1.68.19-3.13-.59-4.39-1.28 0 0-.02-.01-.05.01s.05.09.05.09c.62.55 2.5 1.46 2.5 1.46.42.18.94.25 1.43.31.45.08.84-.04 1.16-.24.11-.08 0 0 .15-.15.57-.83 1.06-1.8 1.58-2.68.2-.5.49-.98.63-2.01.11-.77.1-1.41.09-1.46-.01-.09-.11-.09-.11 0m-10.1-.7c-.19 1.16.43 2.58.63 3.03.08.14.1.19.18.16.06-.06-.01-.2-.04-.31-.14-.55-.15-1.35-.04-1.93.1-.38-.05-.3-.14-.4-.05-.06-.05-.19-.12-.25-.18-.1-.21-.04-.28-.12-.04-.26-.11-.23-.19-.16m4.37-.28c-.21.07-.11.21-.08.38.06.14-.15.26.05.28.26-.11.58-.46.88-.23.19.23-.34.19-.15.41.24.09.49-.05.68-.18.33-.15-.08-.31-.05-.49.14-.18 1.12.18.83-.08-.31-.29-1.48-.25-2.16-.1m4.32-.25c-.7.44-.55 1.57-.53 1.68.09 1.38.34 1.58 0 1.88-.24.14-.63.1-.9.05-.25-.04-.3 0-.43.11-.25.11-.52-.14-.65-.01-.04.16.15.18.28.25.19.05.39.13.63-.1.25-.11.55.15.65.18.29-.15.62-.31.73-.59.2-.85.06-1.92.4-2.68.05-.01.13-.01.18.02.18.21-.16.12-.05.33.13.21.44-.03.63-.13.13-.15 0-.29-.07-.36-.28-.24-.54-.11-.53-.23.04-.21.1-.31.45-.48.3-.11.57-.05.5-.19-.05-.1-.93.02-1.28.25m-5.08-.65c-.12.02-.31.07-.2.25.29.29-.28.54.06.63.11-.01.23-.26 1.04-.53.63-.23 1.32-.34 2.06-.33 0 0 .04.01.04-.04.01-.05-.04-.06-.04-.06-1.01-.2-1.97-.21-2.97.08M42.9 10.6c-.21 0-.41.14-.51.25-.97 1.34-1.31 2.46-1.63 4.25-.09.6-.18 2.16.26 2.22.06-.02-.01-.25-.03-.35.01-1.73.25-2.24.87-3.62.15-.33.55-1.49 1.37-1.72.36.02.09.39.3.38.24-.18.02-.84-.1-1.13-.13-.24-.3-.28-.53-.28M37.37 6.36c-.1.11-.1.16-.01.3.18.23.34.39.36.82.09.28.19.26.4.23.18-.06.33-.14.36-.36.01-.36-.44-.43-.72-.64-.19-.11-.18-.49-.4-.34M30.24 5.15c-.09.02-.14.08-.14.21.25.74 1.33.59 2.06.9.26.14.49.42.84.62.46.26.9.31 1.32.75.09.06.29.24.36.04.01-.06-.35-.77-.54-1.28-.11-.21-.35-.34-.58-.25l-.11.07c-.79.44-1.08-.58-1.65-.83-.28-.09-.64-.05-.9.05-.34.06-.54-.28-.67-.29m5.68 1.52c-.11-.11-.18-.12-.24-.18-.13-.07-.29-.16-.42-.24-.46-.3-.97-.59-1.14-1.09-.01-.2.21-.21.33-.07.24.25.48.53.88.63.45.05.92.14 1.08.48.1.31.21.83.05 1.07-.26.21-.29-.35-.54-.59M55.4 25.08c-.44 1.06-.87 2.12-1.29 3.19h2.61c-.44-1.07-.86-2.16-1.32-3.19m-3.88 6.08l.02.01c.43-.79.73-1.66 1.1-2.5.78-1.75 1.57-3.68 2.36-5.51h1.12c1.18 2.78 2.22 5.34 3.46 8.1v-8.1h1.38v7.35h3.18v.88H58.04c-.28-.73-.6-1.38-.89-2.1l-.08-.09H53.7c-.38.67-.57 1.51-.9 2.19H50.05V23.13h1.47ZM12.49 24v3.1c1.05 0 2.25.18 2.6-.72.26-.52.2-1.36-.14-1.86-.36-.67-1.51-.5-2.46-.53m3.4 3.38l-.57.29c.75 1.27 1.58 2.51 2.41 3.72H16.03c-.72-1.08-1.36-2.2-2.06-3.31-.5.01-.02-.01-1.48 0v3.31H10.97V23.13c0 0 2.1 0 3-.01.92 0 1.34.11 1.63.28.62.35 1.03.93 1.12 1.65.19.99-.26 1.92-.83 2.34"/></g></g></svg>