<?xml version="1.0" encoding="UTF-8"?><!DOCTYPE svg PUBLIC "-//W3C//DTD SVG 1.0//EN" "http://www.w3.org/TR/2001/REC-SVG-20010904/DTD/svg10.dtd" []><svg xmlns="http://www.w3.org/2000/svg" xmlns:xlink="http://www.w3.org/1999/xlink" height="27" stroke="#000" stroke-linecap="square" stroke-miterlimit="10" viewBox="0 0 115.55 26.87" width="116"><defs><clipPath id="a"><path d="M0 0V26.87H115.55V0Z"/></clipPath><clipPath clip-path="url(#a)" id="b"><path d="M-316.67 169.02H643.45V-371.1H-316.67Z"/></clipPath></defs><g><g fill="#fff" stroke="none"><path clip-path="url(#b)" d="M5 18.27h.98V5.67H5Z" fill-rule="evenodd"/><path clip-path="url(#b)" d="M9.13 11.53c0-.79 0-1.55-.02-2.27H10c.04.29.05 1.45.04 1.7.38-.91 1.1-1.91 2.89-1.91 1.56 0 2.93.91 2.93 3.39v5.84h-.91V12.58c0-1.59-.64-2.63-2.14-2.63-2.05 0-2.76 1.76-2.76 3.71v4.6H9.13Z"/><path clip-path="url(#b)" d="M25.32 15.61c-.42 1.58-1.43 2.87-3.4 2.87-2.19 0-3.74-1.68-3.74-4.68 0-2.47 1.28-4.76 3.85-4.76 2.23 0 3.14 1.63 3.29 2.89h-.92c-.26-1.04-.92-2.02-2.39-2.02-1.83 0-2.87 1.61-2.87 3.85 0 2.14.97 3.85 2.78 3.85 1.26 0 2.02-.66 2.47-2Z"/><path clip-path="url(#b)" d="M33.3 13.07c-.02-1.77-.95-3.16-2.64-3.16-1.78 0-2.59 1.29-2.78 3.16Zm-5.48.81c.02 2.3 1.14 3.73 2.8 3.73 1.62 0 2.18-.94 2.49-1.68h.92c-.36 1.19-1.29 2.55-3.45 2.55-2.65 0-3.69-2.36-3.69-4.65 0-2.58 1.24-4.79 3.79-4.79 2.69 0 3.55 2.39 3.55 4.1 0 .25 0 .5-.02.74Z"/><path clip-path="url(#b)" d="M36.53 11.53c0-.79 0-1.55-.02-2.27h.89c.04.29.05 1.45.04 1.7.38-.91 1.1-1.91 2.89-1.91 1.56 0 2.93.91 2.93 3.39v5.84h-.91V12.58c0-1.59-.64-2.63-2.14-2.63-2.05 0-2.76 1.76-2.76 3.71v4.6h-.91Z"/><path clip-path="url(#b)" d="M44.93 9.26h1.61V6.45h.91v2.8h2.07v.87H47.45v5.82c0 1 .21 1.57 1.04 1.57.26 0 .62-.02.9-.11v.81c-.3.13-.73.16-1.09.16-1.13 0-1.76-.58-1.76-2.03V10.13H44.93Z"/><path clip-path="url(#b)" d="M51.47 9.26h.91v9.01h-.91Zm0-4.26h.91V6.76h-.91Z"/><path clip-path="url(#b)" d="M55.29 9.26c1.4 4.1 2.37 6.91 2.7 8.06h.02c.19-.69 1.17-3.37 2.84-8.06h.96l-3.29 9.01H57.43l-3.1-9.01Z"/><path clip-path="url(#b)" d="M69.38 13.07c-.02-1.77-.95-3.16-2.65-3.16-1.78 0-2.59 1.29-2.78 3.16Zm-5.48.81c.02 2.3 1.14 3.73 2.8 3.73 1.62 0 2.18-.94 2.49-1.68h.92c-.36 1.19-1.29 2.55-3.45 2.55-2.66 0-3.69-2.36-3.69-4.65 0-2.58 1.24-4.79 3.79-4.79 2.69 0 3.55 2.39 3.55 4.1 0 .25 0 .5-.02.74Z"/><path clip-path="url(#b)" d="M80.09 6.6H76V5.67h9.18V6.6h-4.1V18.27h-.99Z"/><path clip-path="url(#b)" d="M85.32 11.71c0-1.5-.02-2.15-.02-2.45h.89c.02.29.04.87.04 2.01.5-1.34 1.61-2.15 3.03-2.22v1c-1.81.12-3.03 1.4-3.03 3.55v4.67h-.91Z"/><path clip-path="url(#b)" d="M91.04 9.26h.91v9.01h-.91Zm0-4.26h.91V6.76h-.91Z"/><path clip-path="url(#b)" d="M101.45 13.56c0-2.08-.97-3.63-2.68-3.63-2.09 0-2.96 1.36-2.96 3.8 0 2.4.67 3.88 2.83 3.88 1.8 0 2.8-1.57 2.8-4.05m-5.59 3.38v4.92h-.91V11.47c0-.74 0-1.53-.02-2.22h.89c.03.34.04.88.04 1.61.54-1.07 1.49-1.83 3.06-1.83 2.05 0 3.49 1.78 3.49 4.49 0 3.24-1.67 4.95-3.78 4.95-1.53 0-2.33-.7-2.76-1.54"/><path clip-path="url(#b)" d="M104.97 15.77c.29 1.16 1.09 1.86 2.46 1.86 1.54 0 2.16-.73 2.16-1.73 0-1.02-.42-1.52-2.35-2-2.26-.56-2.82-1.27-2.82-2.46 0-1.24.91-2.4 2.89-2.4s2.93 1.25 3.06 2.53h-.9c-.15-.75-.72-1.68-2.2-1.68-1.5 0-1.93.77-1.93 1.48 0 .82.42 1.23 2.14 1.66 2.47.61 3.08 1.45 3.08 2.8 0 1.64-1.29 2.65-3.14 2.65-2 0-3.12-1.09-3.36-2.71Z"/></g></g></svg>