<?xml version="1.0" encoding="UTF-8"?><!DOCTYPE svg PUBLIC "-//W3C//DTD SVG 1.0//EN" "http://www.w3.org/TR/2001/REC-SVG-20010904/DTD/svg10.dtd" []><svg xmlns="http://www.w3.org/2000/svg" xmlns:xlink="http://www.w3.org/1999/xlink" height="20" stroke="#000" stroke-linecap="square" stroke-miterlimit="10" viewBox="0 0 218.51 20.32" width="219"><defs><clipPath id="a"><path d="M0 0V20.32H218.51V0Z"/></clipPath><clipPath clip-path="url(#a)" id="b"><path d="M-394.25 371.99H565.87v-540H-394.25Z"/></clipPath></defs><g><g fill="#fff" stroke="none"><path clip-path="url(#b)" d="M7.21 6.72H5l.27-1.27h5.97l-.27 1.27H8.76L7.43 13.03H5.88Z"/><path clip-path="url(#b)" d="M13.8 5l-.64 3.06c.34-.42.84-.83 1.72-.83 1.01 0 1.77.56 1.43 2.16l-.77 3.64H14.05l.72-3.43c.15-.74.01-1.12-.65-1.12-.75 0-1.17.55-1.33 1.33l-.69 3.22H10.61L12.31 5Z"/><path clip-path="url(#b)" d="M21.21 9.53c.02-.11.02-.19.02-.25 0-.5-.22-.92-.88-.92-.69 0-1.11.44-1.3 1.18Zm-2.35 1c-.02.12-.04.22-.04.34 0 .6.23 1.12.9 1.12.61 0 .88-.33 1.07-.69h1.56c-.32.84-1.05 1.85-2.75 1.85-1.53 0-2.28-.96-2.28-2.34 0-1.5.82-3.58 3.09-3.58 1.68 0 2.26 1.02 2.26 2.19 0 .46-.06.79-.15 1.11Z"/><path clip-path="url(#b)" d="M28.51 8.95h1.17c1.03 0 1.58-.38 1.58-1.26 0-.66-.38-1-1.2-1H28.99Zm-.78-3.5h2.65c1.59 0 2.5.89 2.5 2.14 0 1.75-1.3 2.6-3.11 2.6H28.24l-.6 2.84H26.11Z"/><path clip-path="url(#b)" d="M36.18 5l-.64 3.06c.34-.42.84-.83 1.71-.83 1.01 0 1.77.56 1.43 2.16l-.77 3.64H36.44l.72-3.43c.15-.74.01-1.12-.65-1.12-.75 0-1.16.55-1.33 1.33l-.69 3.22H32.99L34.69 5Z"/><path clip-path="url(#b)" d="M41.16 5h1.49l-.3 1.4H40.86Zm-.49 2.34h1.5l-1.2 5.69H39.46Z"/><path clip-path="url(#b)" d="M42.48 13.03L44.18 5h1.49l-1.7 8.03Z"/><path clip-path="url(#b)" d="M47.3 10.8c0 .79.33 1.18.91 1.18 1.07 0 1.5-1.49 1.5-2.46 0-.74-.31-1.13-.93-1.13-1.04 0-1.48 1.48-1.48 2.41m3.96-1.13c0 1.34-.78 3.47-3.19 3.47-1.59 0-2.32-.97-2.32-2.35 0-1.53.97-3.56 3.15-3.56 1.36 0 2.36.77 2.36 2.44"/><path clip-path="url(#b)" d="M53.4 11.27c.04.49.36.76.99.76.59 0 .82-.27.82-.64 0-.36-.3-.55-1.01-.77-1.33-.41-1.74-.87-1.74-1.58 0-1.03.8-1.81 2.32-1.81 1.58 0 2.29.8 2.25 1.71H55.51c-.02-.31-.17-.61-.82-.61-.37 0-.74.12-.74.52 0 .31.3.42 1 .64 1.33.42 1.79.94 1.79 1.73 0 1.31-1.18 1.91-2.53 1.91-1.52 0-2.4-.68-2.33-1.87Z"/><path clip-path="url(#b)" d="M59.24 10.8c0 .79.33 1.18.91 1.18 1.07 0 1.5-1.49 1.5-2.46 0-.74-.31-1.13-.93-1.13-1.04 0-1.48 1.48-1.48 2.41m3.96-1.13c0 1.34-.78 3.47-3.2 3.47-1.58 0-2.32-.97-2.32-2.35 0-1.53.97-3.56 3.15-3.56 1.36 0 2.36.77 2.36 2.44"/><path clip-path="url(#b)" d="M68.34 9.62c0-.82-.38-1.16-.95-1.16-.81 0-1.36.75-1.56 1.75-.19.94-.05 1.71.9 1.71 1.12 0 1.61-1.34 1.61-2.3m-2.95 2.89l-.57 2.7H63.33l1.32-6.23c.17-.77.26-1.28.32-1.65h1.48c0 .12-.07.5-.12.76.32-.43.86-.87 1.74-.87 1.15 0 1.83.87 1.83 2.23 0 1.78-1.09 3.68-3.12 3.68-.71 0-1.2-.3-1.39-.63"/><path clip-path="url(#b)" d="M73.67 5l-.64 3.06c.34-.42.84-.83 1.72-.83 1.01 0 1.77.56 1.43 2.16l-.77 3.64H73.93l.72-3.43c.15-.74.01-1.12-.65-1.12-.75 0-1.17.55-1.33 1.33l-.69 3.22H70.48L72.18 5Z"/><path clip-path="url(#b)" d="M78.76 7.34c.21 2.43.3 3.88.32 4.48h.01c.28-.63.94-2.1 2.1-4.48h1.56l-3.1 5.95c-.96 1.85-1.59 2.04-2.77 2.04-.15 0-.54-.03-.76-.08l.27-1.23c.1.02.27.04.5.04.69 0 .9-.28 1.13-.69l-.75-6.03Z"/><path clip-path="url(#b)" d="M89.66 8.47c.77 0 1.34-.27 1.34-.99 0-.67-.51-.83-1.01-.83H88.72l-.38 1.82Zm-2.03 3.36h1.5c.84 0 1.46-.39 1.46-1.18 0-.61-.34-.98-1.27-.98H88.08Zm-.17-6.38h2.89c1.52 0 2.25.82 2.25 1.88 0 .84-.47 1.55-1.34 1.84.52.22.96.81.96 1.49 0 1.53-1.2 2.37-2.97 2.37h-3.4Z"/><path clip-path="url(#b)" d="M97.1 9.53c.02-.11.02-.19.02-.25 0-.5-.22-.92-.88-.92-.69 0-1.1.44-1.3 1.18Zm-2.35 1c-.02.12-.04.22-.04.34 0 .6.23 1.12.9 1.12.61 0 .88-.33 1.07-.69h1.56c-.32.84-1.05 1.85-2.75 1.85-1.53 0-2.28-.96-2.28-2.34 0-1.5.82-3.58 3.09-3.58 1.67 0 2.26 1.02 2.26 2.19 0 .46-.06.79-.15 1.11Z"/><path clip-path="url(#b)" d="M102.26 5l-.64 3.06c.34-.42.84-.83 1.72-.83 1.01 0 1.77.56 1.43 2.16L104 13.03h-1.48l.72-3.43c.15-.74.01-1.12-.65-1.12-.75 0-1.17.55-1.33 1.33l-.69 3.22H99.07L100.77 5Z"/><path clip-path="url(#b)" d="M107.23 5h1.5l-.3 1.4h-1.49Zm-.49 2.34h1.5l-1.2 5.69h-1.49Z"/><path clip-path="url(#b)" d="M109.46 8.78c.1-.48.21-.97.29-1.45h1.46c-.01.16-.08.57-.11.71.26-.34.77-.82 1.72-.82 1.12 0 1.76.68 1.4 2.36l-.73 3.44h-1.48l.73-3.46c.14-.64 0-1.1-.64-1.1-.73 0-1.19.55-1.41 1.61l-.62 2.95h-1.49Z"/><path clip-path="url(#b)" d="M116.84 10.71c0 .76.3 1.18.92 1.18.91 0 1.39-.78 1.61-1.93.19-.97-.08-1.5-.92-1.5-1.05 0-1.61 1.23-1.61 2.25M121.86 5l-1.37 6.49c-.11.52-.23 1.03-.32 1.54h-1.45c.01-.21.04-.39.09-.67-.36.51-.9.79-1.65.79-1.22 0-1.89-.87-1.89-2.26 0-1.74 1.05-3.66 3.02-3.66.81 0 1.33.33 1.46.6l.6-2.83Z"/><path clip-path="url(#b)" d="M126.82 10.03c0 1.15.52 1.87 1.59 1.87 1.71 0 2.39-1.84 2.39-3.43 0-1.11-.45-1.89-1.55-1.89-1.61 0-2.42 1.85-2.42 3.45m5.57-1.53c0 2.33-1.3 4.65-4.18 4.65-2.02 0-2.99-1.33-2.99-3.05 0-2.26 1.38-4.75 4.12-4.75 2.09 0 3.05 1.4 3.05 3.16"/><path clip-path="url(#b)" d="M133.74 9.02c.12-.56.23-1.16.33-1.69h1.44c-.01.14-.06.57-.16 1.04.39-.68.91-1.14 1.9-1.14l-.31 1.5c-1.04.02-1.77.58-2.03 1.83l-.52 2.47h-1.5Z"/><path clip-path="url(#b)" d="M142.38 11.17c-.31 1.07-1.07 1.97-2.76 1.97-1.44 0-2.2-.85-2.2-2.21 0-1.66.95-3.71 3.06-3.71 1.85 0 2.31 1.3 2.23 2.03h-1.46c-.01-.44-.15-.89-.83-.89-1.06 0-1.47 1.59-1.47 2.49 0 .8.32 1.15.85 1.15.5 0 .84-.28 1.07-.84Z"/><path clip-path="url(#b)" d="M146.34 5l-.64 3.06c.34-.42.84-.83 1.72-.83 1.01 0 1.77.56 1.43 2.16l-.77 3.64h-1.48l.72-3.43c.15-.74.01-1.12-.65-1.12-.75 0-1.16.55-1.33 1.33l-.69 3.22h-1.49L144.84 5Z"/><path clip-path="url(#b)" d="M151.31 5h1.49l-.3 1.4h-1.49Zm-.49 2.34h1.5l-1.2 5.69h-1.49Z"/><path clip-path="url(#b)" d="M154.45 10.71c0 .76.29 1.18.92 1.18.91 0 1.39-.78 1.61-1.93.19-.97-.08-1.5-.92-1.5-1.05 0-1.61 1.23-1.61 2.25M159.47 5l-1.37 6.49c-.11.52-.23 1.03-.32 1.54h-1.45c.01-.21.04-.39.09-.67-.36.51-.9.79-1.65.79-1.22 0-1.89-.87-1.89-2.26 0-1.74 1.05-3.66 3.02-3.66.81 0 1.33.33 1.46.6l.6-2.83Z"/><path clip-path="url(#b)" d="M166.9 9.96c-.17-1.56-.29-2.64-.32-3.33h-.01c-.35.76-.96 1.98-1.67 3.33Zm-2.61 1.27l-.93 1.8h-1.63l4.08-7.58h1.96l.98 7.58h-1.56l-.23-1.8Z"/><path clip-path="url(#b)" d="M171.18 11.27c.04.49.36.76.98.76.59 0 .82-.27.82-.64 0-.36-.3-.55-1.01-.77-1.33-.41-1.74-.87-1.74-1.58 0-1.03.8-1.81 2.32-1.81 1.58 0 2.29.8 2.26 1.71h-1.52c-.02-.31-.17-.61-.82-.61-.37 0-.74.12-.74.52 0 .31.3.42 1 .64 1.33.42 1.79.94 1.79 1.73 0 1.31-1.18 1.91-2.53 1.91-1.52 0-2.4-.68-2.33-1.87Z"/><path clip-path="url(#b)" d="M176.81 11.27c.04.49.36.76.99.76.59 0 .82-.27.82-.64 0-.36-.3-.55-1.01-.77-1.33-.41-1.74-.87-1.74-1.58 0-1.03.8-1.81 2.32-1.81 1.59 0 2.29.8 2.26 1.71h-1.52c-.02-.31-.17-.61-.82-.61-.37 0-.74.12-.74.52 0 .31.3.42 1 .64 1.33.42 1.79.94 1.79 1.73 0 1.31-1.18 1.91-2.53 1.91-1.52 0-2.4-.68-2.33-1.87Z"/><path clip-path="url(#b)" d="M184.98 9.53c.02-.11.02-.19.02-.25 0-.5-.22-.92-.88-.92-.69 0-1.1.44-1.3 1.18Zm-2.35 1c-.02.12-.03.22-.03.34 0 .6.23 1.12.9 1.12.61 0 .88-.33 1.07-.69h1.56c-.32.84-1.04 1.85-2.75 1.85-1.53 0-2.28-.96-2.28-2.34 0-1.5.82-3.58 3.09-3.58 1.67 0 2.26 1.02 2.26 2.19 0 .46-.06.79-.15 1.11Z"/><path clip-path="url(#b)" d="M187.89 8.93c.11-.54.23-1.09.32-1.6h1.47c-.02.14-.06.44-.11.66.37-.46.8-.77 1.58-.77.81 0 1.19.36 1.3.92.4-.5.96-.92 1.86-.92.97 0 1.7.55 1.37 2.1l-.79 3.71h-1.46l.75-3.52c.11-.51.09-1.04-.62-1.04-.68 0-.99.49-1.17 1.36l-.68 3.21h-1.47l.75-3.54c.11-.55.03-1.01-.61-1.01-.67 0-1.01.47-1.21 1.43l-.66 3.12h-1.47Z"/><path clip-path="url(#b)" d="M200.95 9.52c0-.71-.31-1.07-.94-1.07-.78 0-1.3.57-1.53 1.76-.22 1.11.04 1.7.88 1.7 1.16 0 1.6-1.46 1.6-2.4M198.15 5h1.49l-.63 2.96c.35-.43.89-.74 1.66-.74 1.19 0 1.83.9 1.83 2.14 0 1.74-.96 3.78-3.06 3.78-.78 0-1.22-.3-1.39-.65-.04.16-.1.41-.14.54h-1.47c.08-.38.2-.88.32-1.46Z"/><path clip-path="url(#b)" d="M203.07 13.03L204.77 5h1.49l-1.7 8.03Z"/><path clip-path="url(#b)" d="M208.33 7.34c.21 2.43.3 3.88.32 4.48h.01c.28-.63.94-2.1 2.1-4.48h1.56l-3.1 5.95c-.96 1.85-1.58 2.04-2.77 2.04-.15 0-.54-.03-.75-.08l.27-1.23c.1.02.27.04.5.04.69 0 .9-.28 1.13-.69l-.75-6.03Z"/><path clip-path="url(#b)" d="M211.49 13.03l.4-1.93h1.62l-.4 1.93Z"/></g></g></svg>