<?xml version="1.0" encoding="UTF-8"?><!DOCTYPE svg PUBLIC "-//W3C//DTD SVG 1.0//EN" "http://www.w3.org/TR/2001/REC-SVG-20010904/DTD/svg10.dtd" []><svg xmlns="http://www.w3.org/2000/svg" xmlns:xlink="http://www.w3.org/1999/xlink" height="21" stroke="#000" stroke-linecap="square" stroke-miterlimit="10" viewBox="0 0 96.3 21.42" width="96"><defs><clipPath id="a"><path d="M0 0V21.42H96.3V0Z"/></clipPath><clipPath clip-path="url(#a)" id="b"><path d="M-391.1 147.07H569.02v-540H-391.1Z"/></clipPath></defs><g><g fill="#fff" stroke="none" stroke-linecap="butt"><path clip-path="url(#b)" d="M11.73 11.69c-1.01-2.81-1.58-4.35-1.82-5.23H9.89c-.27.97-.9 2.82-1.72 5.23Zm-3.96 1.4L6.64 16.28H5L8.92 5.16h2.04l4.09 11.12H13.31l-1.17-3.19Z"/><path clip-path="url(#b)" d="M18.11 5.16v6.68c0 2.53 1.38 3.23 2.76 3.23 1.61 0 2.73-.76 2.73-3.23V5.16h1.66v6.59c0 3.64-2.04 4.67-4.42 4.67-2.35 0-4.39-1.1-4.39-4.57V5.16Z"/><path clip-path="url(#b)" d="M28.84 13.15c.29 1.29 1.18 1.97 2.73 1.97 1.65 0 2.31-.76 2.31-1.76 0-1.08-.55-1.66-2.71-2.18-2.7-.65-3.58-1.59-3.58-3.14C27.6 6.34 28.86 5 31.37 5c2.71 0 3.81 1.54 3.96 3.03H33.66c-.18-.93-.76-1.73-2.34-1.73-1.28 0-2.01.57-2.01 1.58 0 .99.6 1.38 2.52 1.85 3.18.77 3.77 2 3.77 3.45 0 1.84-1.37 3.24-4.13 3.24-2.8 0-4.06-1.5-4.3-3.27Z"/><path clip-path="url(#b)" d="M40.12 6.56H36.57V5.16h8.76v1.4H41.78v9.72H40.12Z"/><path clip-path="url(#b)" d="M48.69 10.1h2.34c1.63 0 2.33-.61 2.33-1.8 0-1.13-.74-1.77-2.18-1.77H48.69Zm0 1.37v4.81H47.06V5.16H51.5c2.31 0 3.54 1.26 3.54 2.99 0 1.45-.83 2.32-1.84 2.62.84.24 1.64.89 1.64 2.84v.49c0 .76-.03 1.71.15 2.19H53.4c-.2-.48-.2-1.34-.2-2.41v-.22c0-1.51-.42-2.18-2.38-2.18Z"/><path clip-path="url(#b)" d="M63.38 11.69c-1.01-2.81-1.58-4.35-1.82-5.23h-.02c-.27.97-.9 2.82-1.72 5.23Zm-3.96 1.4l-1.13 3.19H56.65L60.57 5.16h2.04l4.09 11.12H64.96l-1.17-3.19Z"/><path clip-path="url(#b)" d="M68.54 5.16h1.65v9.72h5.75l-.22 1.4H68.54Z"/><path clip-path="url(#b)" d="M77.66 16.28h1.65V5.16H77.66Z" fill-rule="evenodd"/><path clip-path="url(#b)" d="M87.97 11.69c-1.01-2.81-1.58-4.35-1.82-5.23h-.02c-.27.97-.9 2.82-1.72 5.23Zm-3.96 1.4l-1.13 3.19H81.24L85.16 5.16h2.04L91.3 16.28H89.55l-1.17-3.19Z"/></g></g></svg>