<?xml version="1.0" encoding="UTF-8"?><!DOCTYPE svg PUBLIC "-//W3C//DTD SVG 1.0//EN" "http://www.w3.org/TR/2001/REC-SVG-20010904/DTD/svg10.dtd" []><svg xmlns="http://www.w3.org/2000/svg" xmlns:xlink="http://www.w3.org/1999/xlink" height="100" stroke="#000" stroke-linecap="square" stroke-miterlimit="10" viewBox="0 0 125.34 99.61" width="125"><defs><clipPath id="a"><path d="M0 0V99.61H125.34V0Z"/></clipPath><clipPath clip-path="url(#a)" id="b"><path d="M-632.82 319.37H327.3V-220.75H-632.82Z"/></clipPath><clipPath clip-path="url(#b)" id="c"><path d="M-632.82 319.31H327.19v-540H-632.82Z"/></clipPath></defs><g><g fill="#FB03A0" stroke="#FB03A0" stroke-linecap="butt"><path clip-path="url(#c)" d="M5.5 94.11H119.84V5.5H5.5Z" fill="none"/><path clip-path="url(#c)" d="M16.11 56.1h1.14c1.59 0 2.59-1.16 2.59-3.09 0-1.34-.63-2.01-1.75-2.01h-.94Zm-.2-6.34h2.37c1.92 0 3.15 1.19 3.15 3.23 0 2.45-1.53 4.36-4.22 4.36H14.35Z" stroke="none"/><path clip-path="url(#c)" d="M23.61 49.31h1.45l-.29 1.41H23.32Zm-.48 2.34h1.45l-1.17 5.7H21.96Z" stroke="none"/><path clip-path="url(#c)" d="M26.65 54.96c0 .7.29 1.11.9 1.11.77 0 1.24-.67 1.46-1.71.16-.77.12-1.61-.86-1.61-1 0-1.5 1.2-1.5 2.22m3.28 1.56c-.38 1.84-.87 3.12-3.02 3.12-2.07 0-2.25-1.14-2.26-1.81h1.47c.02.34.24.69.9.69.83 0 1.16-.53 1.42-1.74l.04-.17c-.36.47-.83.68-1.54.68-1.19 0-1.83-.9-1.83-2.21 0-1.68 1.05-3.53 2.8-3.53.85 0 1.31.32 1.46.68.05-.17.14-.45.19-.57h1.39c-.1.42-.21.94-.31 1.42Z" stroke="none"/><path clip-path="url(#c)" d="M32.9 49.31h1.45l-.29 1.41H32.62Zm-.48 2.34h1.45l-1.17 5.7H31.26Z" stroke="none"/><path clip-path="url(#c)" d="M34.79 51.65h.82l.32-1.54h1.44l-.31 1.54h1.04l-.25 1.14H36.81l-.58 2.87c-.07.35-.04.59.39.59.17 0 .31-.01.47-.03l-.22 1.08c-.32.11-.68.11-.98.11-1.15 0-1.33-.68-1.13-1.68l.59-2.93h-.82Z" stroke="none"/><path clip-path="url(#c)" d="M41.56 54.79c-.36 0-.67.03-.95.07-.81.12-1.13.4-1.13.88 0 .33.21.58.67.58 1 0 1.25-.84 1.39-1.44Zm1.2 1.16c-.12.59-.24 1.23-.25 1.4H41.1c.01-.16.05-.46.08-.64-.27.36-.64.75-1.67.75-1.09 0-1.54-.79-1.54-1.46 0-1.58 1.34-2.01 2.56-2.14.46-.05.89-.05 1.23-.06l.05-.27c.08-.41.08-.95-.7-.95-.69 0-.82.39-.94.66H38.7c.21-.91.82-1.7 2.53-1.7 1.34 0 2.33.57 2.02 2.07Z" stroke="none"/><path clip-path="url(#c)" d="M43.97 57.35l1.64-8.03h1.45l-1.64 8.03Z" stroke="none"/><path clip-path="url(#c)" d="M56.38 54.97c-.51 1.59-1.59 2.48-3.37 2.48-1.8 0-2.77-1.15-2.77-3.06 0-1.98 1.1-4.74 3.95-4.74 1.65 0 2.66.91 2.71 2.51H55.33c-.03-.63-.29-1.27-1.31-1.27-1.45 0-2.17 1.92-2.17 3.48 0 1.03.33 1.83 1.33 1.83.86 0 1.31-.51 1.62-1.24Z" stroke="none"/><path clip-path="url(#c)" d="M58.79 55.11c0 .79.32 1.18.89 1.18 1.04 0 1.45-1.49 1.45-2.46 0-.74-.3-1.13-.9-1.13-1 0-1.43 1.48-1.43 2.41m3.83-1.13c0 1.34-.76 3.47-3.09 3.47-1.53 0-2.24-.96-2.24-2.35 0-1.53.94-3.56 3.05-3.56 1.32 0 2.29.77 2.29 2.44" stroke="none"/><path clip-path="url(#c)" d="M64.07 53.1c.1-.48.2-.96.28-1.44h1.42c-.01.16-.07.57-.11.71.26-.35.74-.83 1.66-.83 1.08 0 1.71.68 1.36 2.36l-.71 3.44H66.53l.7-3.46c.14-.64 0-1.1-.62-1.1-.71 0-1.15.55-1.37 1.61l-.6 2.95H63.2Z" stroke="none"/><path clip-path="url(#c)" d="M69.94 51.65h.82l.32-1.54h1.44l-.31 1.54h1.04l-.25 1.14H71.96l-.58 2.87c-.07.35-.04.59.39.59.17 0 .31-.01.47-.03l-.22 1.08c-.32.11-.68.11-.98.11-1.15 0-1.33-.68-1.13-1.68l.59-2.93h-.82Z" stroke="none"/><path clip-path="url(#c)" d="M77.09 53.84c.02-.11.02-.19.02-.25 0-.5-.21-.92-.85-.92-.66 0-1.07.44-1.26 1.17Zm-2.28 1c-.02.12-.04.21-.04.34 0 .6.22 1.12.87 1.12.59 0 .85-.33 1.03-.69h1.51c-.31.84-1.01 1.85-2.66 1.85-1.48 0-2.21-.96-2.21-2.34 0-1.5.8-3.58 2.99-3.58 1.62 0 2.19 1.02 2.19 2.19 0 .46-.06.79-.15 1.11Z" stroke="none"/><path clip-path="url(#c)" d="M79.94 53.1c.1-.48.2-.96.28-1.44h1.42c-.01.16-.08.57-.11.71.26-.35.74-.83 1.66-.83 1.08 0 1.71.68 1.36 2.36l-.7 3.44H82.4l.7-3.46c.14-.64 0-1.1-.62-1.1-.71 0-1.15.55-1.37 1.61l-.6 2.95H79.07Z" stroke="none"/><path clip-path="url(#c)" d="M85.81 51.65h.82l.32-1.54h1.44l-.31 1.54h1.04l-.25 1.14H87.83l-.58 2.87c-.07.35-.04.59.39.59.17 0 .31-.01.47-.03l-.22 1.08c-.32.11-.68.11-.98.11-1.15 0-1.33-.68-1.13-1.68l.59-2.93h-.82Z" stroke="none"/><path clip-path="url(#c)" d="M99.64 52.85l-2.21 2.62c-.99 1.16-1.57 2-3.23 2-1.42 0-2.2-.94-2.2-2.05 0-1.14.68-1.88 2.49-2.56.96-.38 1.45-.85 1.45-1.46 0-.31-.14-.67-.59-.67-.49 0-.71.4-.71.8 0 .36.12.74.58 1.18l3.87 4.64H97.29L93.95 53.4c-.37-.48-.68-1.02-.68-1.7 0-1.15.71-2.06 2.11-2.06 1.37 0 1.89.92 1.89 1.75 0 .98-.52 1.59-2.17 2.26-1.3.53-1.6.97-1.6 1.53 0 .47.35.91.98.91.7 0 1.15-.35 2.05-1.43l1.52-1.82Z" stroke="none"/><path clip-path="url(#c)" d="M20.82 67.7c.26-1.29.59-2.81.79-3.67h-.04c-.65 1.54-1.84 4.14-2.97 6.51H17.3c-.1-1.87-.28-5.1-.27-6.54h-.05c-.12.88-.42 2.52-.69 3.82l-.56 2.72H14.34l1.56-7.59h2.27c.11 1.85.23 4.44.23 5.56h.01c.39-1.03 1.62-3.49 2.58-5.56h2.27L21.7 70.54H20.24Z" stroke="none"/><path clip-path="url(#c)" d="M25.04 68.31c0 .79.32 1.18.88 1.18 1.04 0 1.45-1.49 1.45-2.46 0-.74-.3-1.13-.9-1.13-1 0-1.43 1.48-1.43 2.41m3.83-1.13c0 1.34-.76 3.47-3.09 3.47-1.53 0-2.24-.97-2.24-2.35 0-1.53.94-3.56 3.05-3.56 1.32 0 2.29.77 2.29 2.44" stroke="none"/><path clip-path="url(#c)" d="M29.99 64.85h.82l.32-1.54h1.44l-.31 1.54H33.3l-.25 1.14H32.01l-.58 2.87c-.07.35-.04.59.39.59.17 0 .31-.01.47-.04l-.22 1.08c-.32.11-.68.11-.98.11-1.15 0-1.33-.68-1.13-1.68l.59-2.93h-.82Z" stroke="none"/><path clip-path="url(#c)" d="M34.83 62.51h1.45l-.29 1.41H34.54Zm-.48 2.34H35.8l-1.17 5.7H33.19Z" stroke="none"/><path clip-path="url(#c)" d="M37.86 68.31c0 .79.32 1.18.88 1.18 1.04 0 1.45-1.49 1.45-2.46 0-.74-.3-1.13-.9-1.13-1 0-1.43 1.48-1.43 2.41m3.83-1.13c0 1.34-.76 3.47-3.09 3.47-1.53 0-2.24-.97-2.24-2.35 0-1.53.94-3.56 3.05-3.56 1.32 0 2.29.77 2.29 2.44" stroke="none"/><path clip-path="url(#c)" d="M43.13 66.3c.1-.48.2-.96.28-1.44h1.42c-.01.16-.08.57-.11.71.26-.35.74-.82 1.66-.82 1.08 0 1.71.68 1.36 2.36l-.7 3.44H45.6l.7-3.46c.14-.64 0-1.1-.62-1.1-.71 0-1.15.55-1.37 1.61l-.6 2.95H42.26Z" stroke="none"/><path clip-path="url(#c)" d="M53.1 69.3h1.14c1.59 0 2.59-1.16 2.59-3.09 0-1.34-.63-2.01-1.75-2.01h-.94Zm-.2-6.34h2.37c1.92 0 3.15 1.19 3.15 3.23 0 2.45-1.53 4.36-4.23 4.36H51.35Z" stroke="none"/><path clip-path="url(#c)" d="M63.09 67.04c.02-.11.02-.19.02-.25 0-.5-.21-.92-.85-.92-.66 0-1.07.44-1.26 1.17Zm-2.28 1c-.02.12-.03.22-.03.34 0 .6.22 1.12.87 1.12.59 0 .84-.33 1.03-.69h1.51c-.31.84-1.01 1.85-2.66 1.85-1.48 0-2.21-.96-2.21-2.34 0-1.5.8-3.58 2.99-3.58 1.62 0 2.19 1.02 2.19 2.19 0 .46-.06.79-.15 1.11Z" stroke="none"/><path clip-path="url(#c)" d="M66.5 68.78c.04.49.35.76.95.76.57 0 .79-.27.79-.64 0-.36-.29-.54-.98-.77-1.29-.41-1.69-.87-1.69-1.58 0-1.03.78-1.81 2.24-1.81 1.53 0 2.22.81 2.18 1.71H68.54c-.02-.31-.17-.61-.79-.61-.36 0-.72.12-.72.52 0 .3.29.42.97.64 1.29.42 1.73.94 1.73 1.73 0 1.31-1.14 1.91-2.45 1.91-1.47 0-2.32-.69-2.26-1.87Z" stroke="none"/><path clip-path="url(#c)" d="M72.15 62.51h1.45l-.29 1.41H71.86Zm-.48 2.34h1.45l-1.17 5.7H70.5Z" stroke="none"/><path clip-path="url(#c)" d="M75.19 68.16c0 .7.29 1.1.9 1.1.77 0 1.24-.67 1.46-1.71.16-.77.12-1.61-.86-1.61-1 0-1.5 1.2-1.5 2.21m3.28 1.56c-.38 1.84-.87 3.12-3.02 3.12-2.07 0-2.25-1.14-2.26-1.81h1.47c.02.34.24.69.9.69.84 0 1.16-.53 1.42-1.74l.04-.17c-.36.47-.83.68-1.54.68-1.19 0-1.83-.9-1.83-2.21 0-1.68 1.05-3.53 2.8-3.53.85 0 1.31.32 1.46.68.05-.17.14-.45.19-.57h1.39c-.1.42-.21.94-.31 1.42Z" stroke="none"/><path clip-path="url(#c)" d="M80.67 66.3c.1-.48.2-.96.28-1.44h1.42c-.01.16-.07.57-.11.71.26-.35.74-.82 1.66-.82 1.08 0 1.71.68 1.36 2.36l-.7 3.44H83.14l.7-3.46c.14-.64 0-1.1-.62-1.1-.71 0-1.15.55-1.37 1.61l-.6 2.95H79.8Z" stroke="none"/><path clip-path="url(#c)" d="M20.8 81.37c-.51 1.58-1.59 2.48-3.37 2.48-1.8 0-2.76-1.15-2.76-3.06 0-1.98 1.1-4.74 3.95-4.74 1.65 0 2.66.91 2.71 2.51H19.75c-.03-.63-.29-1.27-1.3-1.27-1.45 0-2.17 1.92-2.17 3.49 0 1.03.33 1.83 1.33 1.83.86 0 1.31-.51 1.62-1.24Z" stroke="none"/><path clip-path="url(#c)" d="M22.3 79.74c.11-.56.22-1.16.32-1.69h1.4c-.01.14-.06.57-.16 1.03.38-.68.88-1.14 1.83-1.14l-.29 1.5c-1.01.01-1.72.58-1.97 1.83l-.51 2.47H21.47Z" stroke="none"/><path clip-path="url(#c)" d="M29.63 80.24c.02-.11.02-.19.02-.25 0-.5-.21-.92-.85-.92-.66 0-1.07.44-1.26 1.18Zm-2.28 1c-.02.12-.04.21-.04.34 0 .6.22 1.12.87 1.12.59 0 .85-.33 1.03-.69h1.51c-.31.84-1.01 1.85-2.66 1.85-1.48 0-2.21-.96-2.21-2.34 0-1.5.8-3.58 2.99-3.58 1.62 0 2.19 1.02 2.19 2.19 0 .46-.06.79-.15 1.11Z" stroke="none"/><path clip-path="url(#c)" d="M35.19 81.19c-.36 0-.67.03-.95.07-.81.13-1.13.4-1.13.88 0 .33.21.58.67.58 1 0 1.25-.84 1.39-1.44Zm1.2 1.16c-.12.59-.24 1.23-.25 1.4H34.73c.01-.16.05-.46.08-.64-.28.36-.64.75-1.67.75-1.09 0-1.54-.79-1.54-1.46 0-1.59 1.34-2.01 2.56-2.15.46-.05.89-.05 1.23-.06l.05-.27c.08-.41.08-.95-.7-.95-.69 0-.81.39-.94.66H32.32c.21-.91.82-1.7 2.53-1.7 1.34 0 2.33.57 2.02 2.07Z" stroke="none"/><path clip-path="url(#c)" d="M38.08 78.05h.82l.32-1.54h1.44l-.31 1.54h1.04l-.25 1.14H40.1l-.58 2.87c-.07.35-.04.59.39.59.17 0 .31-.01.47-.04l-.22 1.08c-.32.11-.68.11-.98.11-1.15 0-1.33-.68-1.13-1.68l.59-2.93h-.82Z" stroke="none"/><path clip-path="url(#c)" d="M42.97 81.51c0 .79.32 1.18.88 1.18 1.04 0 1.45-1.49 1.45-2.46 0-.74-.3-1.13-.9-1.13-1 0-1.43 1.48-1.43 2.41m3.83-1.13c0 1.34-.76 3.47-3.09 3.47-1.53 0-2.24-.96-2.24-2.35 0-1.53.94-3.56 3.05-3.56 1.32 0 2.29.77 2.29 2.44" stroke="none"/><path clip-path="url(#c)" d="M48.21 79.74c.11-.56.22-1.16.32-1.69h1.4c-.01.14-.06.57-.16 1.03.38-.68.88-1.14 1.84-1.14l-.3 1.5c-1.01.01-1.71.58-1.97 1.83l-.51 2.47H47.38Z" stroke="none"/><path clip-path="url(#c)" d="M53.12 81.98c.04.49.35.76.95.76.57 0 .79-.27.79-.64 0-.37-.29-.55-.98-.77-1.29-.41-1.69-.87-1.69-1.58 0-1.03.78-1.81 2.24-1.81 1.54 0 2.22.81 2.18 1.72H55.16c-.02-.31-.17-.61-.79-.61-.36 0-.72.12-.72.52 0 .3.29.42.97.64 1.28.42 1.73.94 1.73 1.73 0 1.31-1.14 1.91-2.45 1.91-1.47 0-2.32-.68-2.26-1.87Z" stroke="none"/><path clip-path="url(#c)" d="M20.16 27.75c0 4.41.57 8.69 4.09 8.69 3.47 0 3.99-4.04 3.99-8.78 0-4.59-.61-8.52-3.92-8.52-3.3 0-4.16 3.46-4.16 8.61m12.59-.12c0 6.29-1.87 12.43-8.55 12.43-6.57 0-8.54-5.86-8.54-12.27 0-6.35 2.17-12.27 8.64-12.27 6.32 0 8.44 5.62 8.44 12.12" stroke="none"/><path clip-path="url(#c)" d="M36.49 21.88c.34-2.92 2.33-6.37 7.78-6.37 5.13 0 7.42 3.07 7.42 6.34 0 2.86-1.61 4.26-2.91 4.84v.1c1.68.6 3.84 2.17 3.84 5.8 0 3.54-2.1 7.47-8.39 7.47-5.84 0-7.98-3.69-8.26-6.83H40.2c.36 1.78 1.6 3.34 4.16 3.34 2.64 0 3.86-1.78 3.86-4.03 0-2.52-1.35-3.88-4.17-3.88H42.13v-3.5H43.8c2.53 0 3.59-.93 3.59-3.08 0-1.8-1.09-3.02-3.26-3.02-2.47 0-3.18 1.4-3.5 2.82Z" stroke="none"/><path clip-path="url(#c)" d="M56.52 39.63h4.63V33.65H56.52Z" fill-rule="evenodd" stroke="none"/></g></g></svg>