<?xml version="1.0" encoding="UTF-8"?><!DOCTYPE svg PUBLIC "-//W3C//DTD SVG 1.0//EN" "http://www.w3.org/TR/2001/REC-SVG-20010904/DTD/svg10.dtd" []><svg xmlns="http://www.w3.org/2000/svg" xmlns:xlink="http://www.w3.org/1999/xlink" height="34" stroke="#000" stroke-linecap="square" stroke-miterlimit="10" viewBox="0 0 473.65 33.62" width="474"><defs><clipPath id="a"><path d="M0 0V33.62H473.65V0Z"/></clipPath><clipPath clip-path="url(#a)" id="b"><path d="M-393.58 279.78H566.54v-540H-393.58Z"/></clipPath></defs><g><g fill="#fff" stroke="none"><path clip-path="url(#b)" d="M7.88 6.9H5.66l.27-1.27h5.97L11.63 6.9H9.43L8.09 13.22H6.54Z"/><path clip-path="url(#b)" d="M14.46 5.19l-.64 3.06c.34-.42.84-.83 1.72-.83 1.01 0 1.77.56 1.43 2.16l-.77 3.64H14.72l.72-3.43c.15-.74.01-1.12-.65-1.12-.75 0-1.17.55-1.33 1.33l-.69 3.22H11.27l1.7-8.03Z"/><path clip-path="url(#b)" d="M21.87 9.71c.02-.11.02-.18.02-.25 0-.5-.22-.92-.88-.92-.69 0-1.11.44-1.3 1.18Zm-2.35 1c-.02.12-.04.22-.04.34 0 .6.23 1.12.9 1.12.61 0 .88-.33 1.07-.69H23c-.32.84-1.05 1.84-2.75 1.84-1.53 0-2.28-.96-2.28-2.34 0-1.5.82-3.58 3.09-3.58 1.68 0 2.26 1.02 2.26 2.19 0 .46-.06.79-.15 1.11Z"/><path clip-path="url(#b)" d="M29.81 8.89h1.28c.88 0 1.5-.31 1.5-1.11 0-.58-.32-.9-1.1-.9H30.24Zm-.26 1.24l-.65 3.09H27.37l1.61-7.58h2.89c1.45 0 2.31.74 2.31 1.98 0 1.04-.63 1.73-1.56 1.98.3.15.89.52.63 1.81-.19.89-.31 1.46-.26 1.81H31.51c-.04-.33.02-.88.22-1.82.18-.83.03-1.28-.8-1.28Z"/><path clip-path="url(#b)" d="M36.05 5.19h1.5l-.3 1.4h-1.5Zm-.49 2.34h1.5l-1.21 5.69H34.36Z"/><path clip-path="url(#b)" d="M39.2 10.83c0 .7.3 1.1.93 1.1.79 0 1.29-.67 1.51-1.71.17-.77.12-1.61-.89-1.61-1.04 0-1.55 1.2-1.55 2.22m3.39 1.56c-.39 1.84-.9 3.12-3.12 3.12-2.14 0-2.32-1.14-2.33-1.81h1.51c.02.35.24.69.93.69.86 0 1.2-.53 1.47-1.74l.04-.17c-.38.46-.86.68-1.59.68-1.23 0-1.89-.9-1.89-2.21 0-1.68 1.08-3.53 2.89-3.53.88 0 1.36.32 1.51.68.05-.17.15-.45.2-.57h1.43c-.1.42-.22.94-.32 1.42Z"/><path clip-path="url(#b)" d="M47.15 5.19l-.64 3.06c.34-.42.84-.83 1.72-.83 1.01 0 1.77.56 1.43 2.16l-.77 3.64H47.4l.72-3.43c.15-.74.01-1.12-.65-1.12-.75 0-1.17.55-1.33 1.33l-.69 3.22H43.96l1.7-8.03Z"/><path clip-path="url(#b)" d="M50.92 7.52h.84l.33-1.53h1.48l-.32 1.53h1.07l-.26 1.14H53l-.6 2.87c-.07.35-.04.59.41.59.17 0 .32-.01.49-.04l-.23 1.08c-.34.11-.7.11-1.01.11-1.18 0-1.37-.68-1.16-1.68l.61-2.93h-.84Z"/><path clip-path="url(#b)" d="M63.36 9.9H59.95l-.43 2.04H63.4l-.45 1.27H57.72l1.61-7.58h5.09L64.15 6.9H60.59l-.36 1.73h3.41Z"/><path clip-path="url(#b)" d="M65.15 8.97c.1-.48.21-.97.29-1.45H66.9c-.01.16-.08.57-.11.71.26-.34.77-.82 1.72-.82 1.12 0 1.76.68 1.4 2.36l-.73 3.44H67.69l.73-3.46c.14-.64 0-1.1-.64-1.1-.73 0-1.19.55-1.41 1.61l-.62 2.95H64.25Z"/><path clip-path="url(#b)" d="M72.55 7.52c.19 2.38.27 3.58.28 4.3h.01c.35-.85.96-2.03 2.08-4.3h1.57l-3.08 5.69H71.7l-.62-5.69Z"/><path clip-path="url(#b)" d="M77.96 5.19h1.5l-.3 1.4h-1.5Zm-.49 2.34h1.5l-1.21 5.69H76.26Z"/><path clip-path="url(#b)" d="M80.14 9.21c.12-.56.23-1.16.33-1.69h1.44c-.01.14-.06.57-.16 1.03.39-.68.9-1.15 1.9-1.15l-.31 1.5c-1.04.01-1.77.58-2.03 1.83l-.52 2.47H79.29Z"/><path clip-path="url(#b)" d="M85.37 10.98c0 .79.33 1.18.91 1.18 1.07 0 1.5-1.49 1.5-2.46 0-.74-.31-1.13-.93-1.13-1.04 0-1.48 1.48-1.48 2.41m3.96-1.13c0 1.34-.78 3.47-3.19 3.47-1.59 0-2.32-.97-2.32-2.35 0-1.53.97-3.56 3.15-3.56 1.36 0 2.36.77 2.36 2.44"/><path clip-path="url(#b)" d="M90.82 8.97c.1-.48.21-.97.29-1.45h1.46c-.01.16-.08.57-.11.71.26-.34.77-.82 1.72-.82 1.12 0 1.76.68 1.4 2.36l-.73 3.44H93.37l.73-3.46c.14-.64 0-1.1-.64-1.1-.73 0-1.19.55-1.41 1.61l-.62 2.95h-1.5Z"/><path clip-path="url(#b)" d="M97.26 9.12c.11-.54.23-1.09.32-1.6h1.46c-.02.13-.06.44-.11.66.37-.46.8-.77 1.58-.77.81 0 1.19.36 1.3.92.4-.5.96-.92 1.86-.92.97 0 1.7.55 1.37 2.1l-.79 3.71h-1.46l.75-3.52c.11-.51.09-1.04-.62-1.04-.68 0-.99.49-1.17 1.36l-.68 3.21H99.59l.75-3.54c.11-.55.03-1.01-.61-1.01-.67 0-1.01.47-1.21 1.43l-.66 3.12H96.39Z"/><path clip-path="url(#b)" d="M109.94 9.71c.02-.11.02-.18.02-.25 0-.5-.22-.92-.88-.92-.69 0-1.1.44-1.3 1.18Zm-2.35 1c-.02.12-.04.22-.04.34 0 .6.23 1.12.9 1.12.61 0 .88-.33 1.07-.69h1.56c-.32.84-1.05 1.84-2.75 1.84-1.53 0-2.28-.96-2.28-2.34 0-1.5.82-3.58 3.09-3.58 1.67 0 2.26 1.02 2.26 2.19 0 .46-.06.79-.15 1.11Z"/><path clip-path="url(#b)" d="M112.87 8.97c.1-.48.21-.97.29-1.45h1.46c-.01.16-.08.57-.11.71.26-.34.77-.82 1.72-.82 1.12 0 1.76.68 1.4 2.36l-.73 3.44h-1.48l.73-3.46c.14-.64 0-1.1-.64-1.1-.73 0-1.19.55-1.41 1.61l-.62 2.95h-1.49Z"/><path clip-path="url(#b)" d="M118.94 7.52h.84l.33-1.53h1.49l-.32 1.53h1.07l-.26 1.14h-1.07l-.6 2.87c-.07.35-.04.59.41.59.17 0 .32-.01.49-.04l-.23 1.08c-.34.11-.7.11-1.01.11-1.18 0-1.37-.68-1.16-1.68l.61-2.93h-.84Z"/><path clip-path="url(#b)" d="M126.38 10.68h4.54v-.54h-4.54Z" fill-rule="evenodd"/><path clip-path="url(#b)" d="M142.18 11.16c-.36 1.22-1.26 2.15-2.89 2.15-2.21 0-3.38-1.76-3.38-3.93 0-2.08 1.14-3.97 3.39-3.97 1.66 0 2.64.92 2.89 2.21h-.59c-.35-1-1-1.66-2.33-1.66-1.91 0-2.72 1.75-2.72 3.41 0 1.65.79 3.39 2.76 3.39 1.25 0 1.89-.65 2.28-1.6Z"/><path clip-path="url(#b)" d="M146.9 10.41h-1.08c-1.22 0-1.98.32-1.98 1.27 0 .69.49 1.17 1.27 1.17 1.57 0 1.79-1.04 1.79-2.23Zm.54 1.76c0 .48.04.87.08 1.04h-.53c-.04-.13-.08-.37-.1-.85-.19.41-.67.98-1.8.98-1.28 0-1.83-.83-1.83-1.65 0-1.21.94-1.76 2.59-1.76h1.05V9.38c0-.55-.17-1.29-1.42-1.29-1.11 0-1.27.58-1.4 1.03h-.55c.07-.61.44-1.54 1.96-1.54 1.25 0 1.96.53 1.96 1.74Z"/><path clip-path="url(#b)" d="M149.36 9.21c0-.92-.01-1.32-.01-1.5h.54c.01.18.02.53.02 1.23.32-.83 1.02-1.32 1.91-1.36v.59c-1.14.08-1.91.87-1.91 2.18v2.86h-.55Z"/><path clip-path="url(#b)" d="M156.56 10.05c-.01-1.09-.6-1.95-1.68-1.95-1.13 0-1.65.79-1.77 1.95Zm-3.49.48c.01 1.42.73 2.3 1.78 2.3 1.03 0 1.39-.58 1.58-1.03H157c-.23.72-.81 1.55-2.17 1.55-1.67 0-2.32-1.44-2.32-2.84 0-1.57.78-2.93 2.39-2.93 1.69 0 2.23 1.46 2.23 2.5 0 .15 0 .31-.01.45Z"/><path clip-path="url(#b)" d="M158.87 13.22V8.23h-.95V7.72h.95V6.94c0-.92.27-1.94 1.5-1.94.16 0 .41.03.54.08v.53c-.17-.04-.43-.07-.59-.07-.65 0-.89.46-.89 1.42v.76h1.2v.52h-1.2v4.98Z"/><path clip-path="url(#b)" d="M165.75 11.61c0 .54.01 1.4.01 1.61h-.53c-.02-.14-.03-.51-.03-.96-.23.65-.79 1.09-1.77 1.09-.79 0-1.8-.31-1.8-1.99V7.72h.54v3.51c0 .8.25 1.58 1.34 1.58 1.23 0 1.69-.69 1.69-2.27V7.72h.55Z"/><path clip-path="url(#b)" d="M167.67 13.22h.55V5.11h-.55Z" fill-rule="evenodd"/><path clip-path="url(#b)" d="M177.84 10.35c0-1.28-.62-2.23-1.71-2.23-1.33 0-1.88.84-1.88 2.33 0 1.47.43 2.39 1.8 2.39 1.14 0 1.78-.97 1.78-2.49m-3.55 2.06v3.01h-.55V9.07c0-.45 0-.94-.01-1.35h.54c.02.21.02.54.02.99.34-.66.95-1.12 1.94-1.12 1.3 0 2.2 1.09 2.2 2.74 0 1.98-1.06 3.02-2.39 3.02-.97 0-1.47-.43-1.75-.95"/><path clip-path="url(#b)" d="M179.9 13.22h.55V5.11h-.55Z" fill-rule="evenodd"/><path clip-path="url(#b)" d="M185.52 10.41h-1.08c-1.22 0-1.98.32-1.98 1.27 0 .69.49 1.17 1.27 1.17 1.57 0 1.79-1.04 1.79-2.23Zm.54 1.76c0 .48.04.87.08 1.04h-.53c-.04-.13-.08-.37-.1-.85-.19.41-.67.98-1.8.98-1.28 0-1.83-.83-1.83-1.65 0-1.21.94-1.76 2.59-1.76h1.05V9.38c0-.55-.17-1.29-1.42-1.29-1.11 0-1.27.58-1.4 1.03h-.55c.07-.61.44-1.54 1.96-1.54 1.25 0 1.96.53 1.96 1.74Z"/><path clip-path="url(#b)" d="M187.99 9.1c0-.48 0-.95-.01-1.39h.54c.02.18.03.89.02 1.04.24-.56.69-1.18 1.83-1.18.98 0 1.85.55 1.85 2.07v3.56h-.55V9.74c0-.98-.41-1.62-1.36-1.62-1.31 0-1.76 1.09-1.76 2.29v2.8h-.55Z"/><path clip-path="url(#b)" d="M194.13 9.1c0-.48 0-.95-.01-1.39h.54c.02.18.03.89.02 1.04.24-.56.69-1.18 1.83-1.18.98 0 1.85.55 1.85 2.07v3.56h-.55V9.74c0-.98-.41-1.62-1.36-1.62-1.31 0-1.76 1.09-1.76 2.29v2.8h-.55Z"/><path clip-path="url(#b)" d="M200.26 7.72h.55v5.5h-.55Zm0-2.61h.55V6.18h-.55Z"/><path clip-path="url(#b)" d="M202.73 9.1c0-.48 0-.95-.01-1.39h.54c.02.18.03.89.02 1.04.24-.56.69-1.18 1.83-1.18.98 0 1.85.55 1.85 2.07v3.56h-.55V9.74c0-.98-.41-1.62-1.36-1.62-1.31 0-1.76 1.09-1.76 2.29v2.8h-.55Z"/><path clip-path="url(#b)" d="M209.01 10.45c0 1.31.69 2.26 1.75 2.26 1.38 0 1.79-.91 1.79-2.34 0-1.45-.44-2.26-1.76-2.26-1.26 0-1.78 1.09-1.78 2.34m4.06 2.4c0 1.76-.78 2.68-2.38 2.68-1.43 0-2.03-.8-2.16-1.64h.56c.2.76.83 1.12 1.62 1.12 1.43 0 1.83-.92 1.83-2.32v-.57c-.3.72-.84 1.1-1.84 1.1-1.29 0-2.28-1.04-2.28-2.75 0-1.85 1.06-2.88 2.35-2.88 1.12 0 1.61.53 1.76.97.01-.32.02-.71.03-.84h.52c0 .2-.02 1.07-.02 1.6Z"/><path clip-path="url(#b)" d="M214.19 14.47c.54-1.07.74-2.05.77-2.66h.55c-.08.91-.43 2-.83 2.66Z"/><path clip-path="url(#b)" d="M220.5 7.72c.89 2.52 1.51 4.23 1.72 4.94h.01c.12-.41.74-2.05 1.8-4.94h.58l-2.08 5.5h-.66l-1.96-5.5Z"/><path clip-path="url(#b)" d="M229.41 10.05c-.01-1.09-.61-1.95-1.68-1.95-1.13 0-1.65.79-1.77 1.95Zm-3.49.48c.01 1.42.73 2.3 1.78 2.3 1.03 0 1.39-.58 1.58-1.03h.56c-.23.72-.81 1.55-2.17 1.55-1.67 0-2.32-1.44-2.32-2.84 0-1.57.78-2.93 2.39-2.93 1.69 0 2.23 1.46 2.23 2.5 0 .15 0 .31-.01.45Z"/><path clip-path="url(#b)" d="M231.43 9.1c0-.48 0-.95-.01-1.39h.54c.02.18.03.89.02 1.04.24-.56.69-1.18 1.83-1.18.98 0 1.85.55 1.85 2.07v3.56h-.55V9.74c0-.98-.41-1.62-1.36-1.62-1.31 0-1.76 1.09-1.76 2.29v2.8h-.55Z"/><path clip-path="url(#b)" d="M237.71 10.51c0 1.51.78 2.32 1.73 2.32 1.45 0 1.85-1 1.85-2.5 0-1.42-.34-2.23-1.75-2.23-1.09 0-1.83.87-1.83 2.41m4.1-5.4v6.52c0 .53 0 1.03.01 1.58h-.53c-.02-.13-.03-.65-.03-.92-.28.67-.89 1.06-1.85 1.06-1.43 0-2.29-1.17-2.29-2.82 0-1.69.94-2.95 2.43-2.95 1.1 0 1.54.47 1.71.83V5.11Z"/><path clip-path="url(#b)" d="M243.87 10.47c0 1.31.7 2.37 1.87 2.37 1.19 0 1.86-.98 1.86-2.37 0-1.3-.66-2.37-1.88-2.37-1.25 0-1.85 1.05-1.85 2.37m4.31-.01c0 1.53-.85 2.89-2.49 2.89-1.48 0-2.41-1.22-2.41-2.88 0-1.57.87-2.88 2.47-2.88 1.46 0 2.43 1.15 2.43 2.87"/><path clip-path="url(#b)" d="M249.66 9.21c0-.92-.01-1.32-.01-1.5h.54c.01.18.02.53.02 1.23.32-.83 1.02-1.32 1.91-1.36v.59c-1.14.08-1.91.87-1.91 2.18v2.86h-.55Z"/><path clip-path="url(#b)" d="M256.94 11.7c.19.72.69 1.14 1.56 1.14.98 0 1.38-.45 1.38-1.07 0-.63-.27-.93-1.5-1.23-1.42-.34-1.77-.77-1.77-1.5 0-.76.57-1.46 1.82-1.46s1.84.76 1.93 1.54h-.55c-.1-.46-.46-1.03-1.4-1.03-.96 0-1.23.47-1.23.91 0 .51.26.76 1.35 1.02 1.55.37 1.94.88 1.94 1.7 0 1-.82 1.62-1.97 1.62-1.25 0-1.96-.66-2.11-1.65Z"/><path clip-path="url(#b)" d="M265.54 10.05c-.01-1.09-.61-1.95-1.68-1.95-1.13 0-1.65.79-1.77 1.95Zm-3.49.48c.01 1.42.72 2.3 1.78 2.3 1.03 0 1.39-.58 1.58-1.03h.56c-.23.72-.81 1.55-2.17 1.55-1.67 0-2.32-1.44-2.32-2.84 0-1.57.78-2.93 2.39-2.93 1.69 0 2.23 1.46 2.23 2.5 0 .15 0 .31-.01.45Z"/><path clip-path="url(#b)" d="M267.61 13.22h.55V5.11h-.55Z" fill-rule="evenodd"/><path clip-path="url(#b)" d="M273.68 10.05c-.01-1.09-.61-1.95-1.68-1.95-1.13 0-1.65.79-1.77 1.95Zm-3.49.48c.01 1.42.72 2.3 1.78 2.3 1.03 0 1.39-.58 1.58-1.03h.56c-.23.72-.81 1.55-2.17 1.55-1.67 0-2.32-1.44-2.32-2.84 0-1.57.78-2.93 2.39-2.93 1.69 0 2.23 1.46 2.23 2.5 0 .15 0 .31-.01.45Z"/><path clip-path="url(#b)" d="M279.81 11.6c-.27.97-.9 1.75-2.14 1.75-1.38 0-2.35-1.02-2.35-2.86 0-1.51.8-2.9 2.42-2.9 1.4 0 1.97.99 2.07 1.76h-.56c-.16-.64-.58-1.24-1.52-1.24-1.17 0-1.83.99-1.83 2.37 0 1.31.62 2.37 1.77 2.37.8 0 1.29-.41 1.57-1.23Z"/><path clip-path="url(#b)" d="M280.5 7.72h1.02V6h.55V7.72h1.31v.52h-1.31v3.58c0 .62.13.97.66.97.17 0 .4-.01.57-.07v.48c-.19.08-.45.1-.68.1-.7 0-1.1-.35-1.1-1.23V8.23H280.5Z"/><path clip-path="url(#b)" d="M284.61 7.72h.55v5.5h-.55Zm0-2.61h.55V6.18h-.55Z"/><path clip-path="url(#b)" d="M287.22 10.47c0 1.31.7 2.37 1.87 2.37 1.19 0 1.86-.98 1.86-2.37 0-1.3-.66-2.37-1.88-2.37-1.25 0-1.85 1.05-1.85 2.37m4.31-.01c0 1.53-.85 2.89-2.49 2.89-1.48 0-2.41-1.22-2.41-2.88 0-1.57.87-2.88 2.47-2.88 1.46 0 2.43 1.15 2.43 2.87"/><path clip-path="url(#b)" d="M293.01 9.1c0-.48 0-.95-.01-1.39h.54c.02.18.03.89.02 1.04.24-.56.69-1.18 1.83-1.18.98 0 1.85.55 1.85 2.07v3.56h-.55V9.74c0-.98-.41-1.62-1.36-1.62-1.31 0-1.76 1.09-1.76 2.29v2.8h-.55Z"/><path clip-path="url(#b)" d="M298.25 14.47c.54-1.07.74-2.05.77-2.66h.55c-.08.91-.43 2-.83 2.66Z"/><path clip-path="url(#b)" d="M304.7 13.22h.55V5.11h-.55Z" fill-rule="evenodd"/><path clip-path="url(#b)" d="M307.31 10.47c0 1.31.7 2.37 1.87 2.37 1.19 0 1.86-.98 1.86-2.37 0-1.3-.66-2.37-1.88-2.37-1.25 0-1.85 1.05-1.85 2.37m4.31-.01c0 1.53-.85 2.89-2.49 2.89-1.48 0-2.41-1.22-2.41-2.88 0-1.57.87-2.88 2.47-2.88 1.46 0 2.43 1.15 2.43 2.87"/><path clip-path="url(#b)" d="M313.32 10.45c0 1.31.69 2.26 1.75 2.26 1.38 0 1.79-.91 1.79-2.34 0-1.45-.44-2.26-1.76-2.26-1.26 0-1.78 1.09-1.78 2.34m4.06 2.4c0 1.76-.78 2.68-2.38 2.68-1.43 0-2.03-.8-2.16-1.64h.56c.2.76.83 1.12 1.62 1.12 1.43 0 1.83-.92 1.83-2.32v-.57c-.3.72-.84 1.1-1.84 1.1-1.29 0-2.28-1.04-2.28-2.75 0-1.85 1.06-2.88 2.35-2.88 1.12 0 1.61.53 1.76.97.01-.32.02-.71.03-.84h.52c0 .2-.02 1.07-.02 1.6Z"/><path clip-path="url(#b)" d="M319.29 7.72h.55v5.5h-.55Zm0-2.61h.55V6.18h-.55Z"/><path clip-path="url(#b)" d="M321.7 11.7c.19.72.69 1.14 1.56 1.14.98 0 1.38-.45 1.38-1.07 0-.63-.27-.93-1.5-1.23-1.42-.34-1.77-.77-1.77-1.5 0-.76.57-1.46 1.82-1.46s1.84.76 1.92 1.54h-.55c-.1-.46-.46-1.03-1.4-1.03-.96 0-1.23.47-1.23.91 0 .51.26.76 1.35 1.02 1.55.37 1.94.88 1.94 1.7 0 1-.82 1.62-1.97 1.62-1.25 0-1.96-.66-2.11-1.65Z"/><path clip-path="url(#b)" d="M325.83 7.72h1.02V6h.55V7.72h1.31v.52h-1.31v3.58c0 .62.13.97.66.97.17 0 .4-.01.57-.07v.48c-.19.08-.45.1-.68.1-.7 0-1.1-.35-1.1-1.23V8.23h-1.02Z"/><path clip-path="url(#b)" d="M329.95 7.72h.55v5.5h-.55Zm0-2.61h.55V6.18h-.55Z"/><path clip-path="url(#b)" d="M336.46 11.6c-.26.97-.9 1.75-2.14 1.75-1.38 0-2.35-1.02-2.35-2.86 0-1.51.8-2.9 2.42-2.9 1.4 0 1.97.99 2.07 1.76h-.56c-.16-.64-.58-1.24-1.52-1.24-1.17 0-1.83.99-1.83 2.37 0 1.31.62 2.37 1.77 2.37.8 0 1.29-.41 1.57-1.23Z"/><path clip-path="url(#b)" d="M338 11.7c.19.72.69 1.14 1.56 1.14.98 0 1.38-.45 1.38-1.07 0-.63-.27-.93-1.5-1.23-1.42-.34-1.77-.77-1.77-1.5 0-.76.57-1.46 1.82-1.46s1.84.76 1.92 1.54h-.55c-.1-.46-.46-1.03-1.4-1.03-.96 0-1.23.47-1.23.91 0 .51.27.76 1.35 1.02 1.55.37 1.94.88 1.94 1.7 0 1-.82 1.62-1.97 1.62-1.25 0-1.96-.66-2.11-1.65Z"/><path clip-path="url(#b)" d="M342.29 14.47c.54-1.07.74-2.05.77-2.66h.55c-.08.91-.43 2-.83 2.66Z"/><path clip-path="url(#b)" d="M351.98 10.41H350.9c-1.22 0-1.98.32-1.98 1.27 0 .69.49 1.17 1.27 1.17 1.57 0 1.79-1.04 1.79-2.23Zm.54 1.76c0 .48.04.87.08 1.04h-.53c-.04-.13-.08-.37-.1-.85-.19.41-.67.98-1.8.98-1.28 0-1.83-.83-1.83-1.65 0-1.21.94-1.76 2.59-1.76h1.05V9.38c0-.55-.16-1.29-1.42-1.29-1.11 0-1.27.58-1.4 1.03h-.55c.07-.61.44-1.54 1.96-1.54 1.25 0 1.96.53 1.96 1.74Z"/><path clip-path="url(#b)" d="M354.44 9.1c0-.48 0-.95-.01-1.39h.54c.02.18.03.89.02 1.04.24-.56.69-1.18 1.83-1.18.98 0 1.85.55 1.85 2.07v3.56h-.55V9.74c0-.98-.41-1.62-1.36-1.62-1.31 0-1.76 1.09-1.76 2.29v2.8h-.55Z"/><path clip-path="url(#b)" d="M360.72 10.51c0 1.51.78 2.32 1.73 2.32 1.45 0 1.85-1 1.85-2.5 0-1.42-.34-2.23-1.75-2.23-1.09 0-1.83.87-1.83 2.41m4.1-5.4v6.52c0 .53 0 1.03.01 1.58h-.53c-.02-.13-.03-.65-.03-.92-.28.67-.89 1.06-1.85 1.06-1.43 0-2.29-1.17-2.29-2.82 0-1.69.94-2.95 2.43-2.95 1.1 0 1.54.47 1.71.83V5.11Z"/><path clip-path="url(#b)" d="M370.34 11.7c.19.72.69 1.14 1.56 1.14.98 0 1.38-.45 1.38-1.07 0-.63-.27-.93-1.5-1.23-1.42-.34-1.77-.77-1.77-1.5 0-.76.57-1.46 1.82-1.46s1.84.76 1.92 1.54h-.55c-.1-.46-.46-1.03-1.4-1.03-.96 0-1.23.47-1.23.91 0 .51.27.76 1.35 1.02 1.55.37 1.94.88 1.94 1.7 0 1-.82 1.62-1.97 1.62-1.25 0-1.96-.66-2.11-1.65Z"/><path clip-path="url(#b)" d="M379.32 11.61c0 .54.01 1.4.01 1.61h-.53c-.02-.14-.03-.51-.03-.96-.23.65-.79 1.09-1.77 1.09-.79 0-1.8-.31-1.8-1.99V7.72h.54v3.51c0 .8.25 1.58 1.34 1.58 1.23 0 1.69-.69 1.69-2.27V7.72h.55Z"/><path clip-path="url(#b)" d="M381.16 11.7c.19.72.69 1.14 1.56 1.14.98 0 1.38-.45 1.38-1.07 0-.63-.26-.93-1.5-1.23-1.42-.34-1.77-.77-1.77-1.5 0-.76.57-1.46 1.81-1.46s1.84.76 1.93 1.54h-.55c-.1-.46-.46-1.03-1.4-1.03-.96 0-1.23.47-1.23.91 0 .51.26.76 1.35 1.02 1.55.37 1.94.88 1.94 1.7 0 1-.82 1.62-1.97 1.62-1.25 0-1.96-.66-2.11-1.65Z"/><path clip-path="url(#b)" d="M385.3 7.72h1.02V6h.55V7.72h1.31v.52h-1.31v3.58c0 .62.13.97.66.97.16 0 .4-.01.57-.07v.48c-.19.08-.45.1-.68.1-.7 0-1.1-.35-1.1-1.23V8.23H385.3Z"/><path clip-path="url(#b)" d="M392.65 10.41h-1.08c-1.22 0-1.98.32-1.98 1.27 0 .69.5 1.17 1.27 1.17 1.57 0 1.79-1.04 1.79-2.23Zm.54 1.76c0 .48.04.87.08 1.04h-.53c-.04-.13-.08-.37-.1-.85-.19.41-.67.98-1.8.98-1.28 0-1.83-.83-1.83-1.65 0-1.21.94-1.76 2.58-1.76h1.05V9.38c0-.55-.16-1.29-1.42-1.29-1.11 0-1.28.58-1.4 1.03h-.55c.07-.61.44-1.54 1.96-1.54 1.25 0 1.96.53 1.96 1.74Z"/><path clip-path="url(#b)" d="M395.11 7.72h.55v5.5h-.55Zm0-2.61h.55V6.18h-.55Z"/><path clip-path="url(#b)" d="M397.57 9.1c0-.48 0-.95-.01-1.39h.54c.02.18.03.89.02 1.04.24-.56.69-1.18 1.83-1.18.98 0 1.85.55 1.85 2.07v3.56h-.55V9.74c0-.98-.41-1.62-1.36-1.62-1.31 0-1.76 1.09-1.76 2.29v2.8h-.55Z"/><path clip-path="url(#b)" d="M406.88 10.41H405.8c-1.22 0-1.98.32-1.98 1.27 0 .69.5 1.17 1.27 1.17 1.57 0 1.79-1.04 1.79-2.23Zm.54 1.76c0 .48.04.87.08 1.04h-.53c-.04-.13-.08-.37-.1-.85-.19.41-.67.98-1.8.98-1.28 0-1.83-.83-1.83-1.65 0-1.21.94-1.76 2.59-1.76h1.05V9.38c0-.55-.17-1.29-1.42-1.29-1.11 0-1.27.58-1.4 1.03h-.55c.07-.61.44-1.54 1.96-1.54 1.25 0 1.96.53 1.96 1.74Z"/><path clip-path="url(#b)" d="M413.45 10.36c0-1.38-.68-2.26-1.73-2.26-1.38 0-1.86.93-1.86 2.38 0 1.3.43 2.35 1.79 2.35 1.11 0 1.79-.92 1.79-2.48m-4.1-5.25h.55V8.64c.26-.55.8-1.06 1.88-1.06 1.3 0 2.26 1.07 2.26 2.76 0 1.74-.86 3-2.4 3-.92 0-1.45-.37-1.74-1 0 .35-.01.71-.02.87h-.54c.01-.63.01-1.25.01-1.88Z"/><path clip-path="url(#b)" d="M415.5 13.22h.55V5.11h-.55Z" fill-rule="evenodd"/><path clip-path="url(#b)" d="M421.58 10.05c-.01-1.09-.6-1.95-1.68-1.95-1.13 0-1.65.79-1.77 1.95Zm-3.49.48c.01 1.42.72 2.3 1.78 2.3 1.03 0 1.39-.58 1.58-1.03h.56c-.23.72-.81 1.55-2.17 1.55-1.67 0-2.32-1.44-2.32-2.84 0-1.57.78-2.93 2.39-2.93 1.69 0 2.23 1.46 2.23 2.5 0 .15 0 .31-.01.45Z"/><path clip-path="url(#b)" d="M431.31 10.35c0-1.28-.62-2.23-1.71-2.23-1.33 0-1.88.84-1.88 2.33 0 1.47.43 2.39 1.8 2.39 1.14 0 1.78-.97 1.78-2.49m-3.55 2.06v3.01h-.55V9.07c0-.45 0-.94-.01-1.35h.54c.02.21.02.54.02.99.34-.66.95-1.12 1.94-1.12 1.3 0 2.2 1.09 2.2 2.74 0 1.98-1.06 3.02-2.39 3.02-.97 0-1.47-.43-1.75-.95"/><path clip-path="url(#b)" d="M433.37 9.21c0-.92-.01-1.32-.01-1.5h.54c.01.18.02.53.02 1.23.32-.83 1.02-1.32 1.91-1.36v.59c-1.14.08-1.91.87-1.91 2.18v2.86h-.55Z"/><path clip-path="url(#b)" d="M440.1 10.41h-1.08c-1.22 0-1.98.32-1.98 1.27 0 .69.5 1.17 1.27 1.17 1.57 0 1.79-1.04 1.79-2.23Zm.54 1.76c0 .48.04.87.08 1.04h-.53c-.04-.13-.08-.37-.1-.85-.19.41-.67.98-1.8.98-1.28 0-1.83-.83-1.83-1.65 0-1.21.94-1.76 2.59-1.76h1.05V9.38c0-.55-.17-1.29-1.42-1.29-1.11 0-1.27.58-1.4 1.03h-.55c.07-.61.44-1.54 1.96-1.54 1.25 0 1.96.53 1.96 1.74Z"/><path clip-path="url(#b)" d="M446.61 11.6c-.27.97-.9 1.75-2.14 1.75-1.38 0-2.35-1.02-2.35-2.86 0-1.51.8-2.9 2.42-2.9 1.4 0 1.97.99 2.07 1.76h-.56c-.17-.64-.58-1.24-1.52-1.24-1.17 0-1.83.99-1.83 2.37 0 1.31.62 2.37 1.77 2.37.8 0 1.29-.41 1.57-1.23Z"/><path clip-path="url(#b)" d="M447.3 7.72h1.02V6h.55V7.72h1.31v.52h-1.31v3.58c0 .62.13.97.66.97.16 0 .4-.01.57-.07v.48c-.19.08-.45.1-.68.1-.7 0-1.1-.35-1.1-1.23V8.23H447.3Z"/><path clip-path="url(#b)" d="M451.41 7.72h.55v5.5h-.55Zm0-2.61h.55V6.18h-.55Z"/><path clip-path="url(#b)" d="M457.93 11.6c-.27.97-.9 1.75-2.14 1.75-1.38 0-2.35-1.02-2.35-2.86 0-1.51.8-2.9 2.42-2.9 1.4 0 1.97.99 2.07 1.76h-.56c-.16-.64-.58-1.24-1.52-1.24-1.17 0-1.83.99-1.83 2.37 0 1.31.62 2.37 1.77 2.37.8 0 1.29-.41 1.57-1.23Z"/><path clip-path="url(#b)" d="M462.97 10.05c-.01-1.09-.6-1.95-1.68-1.95-1.13 0-1.65.79-1.77 1.95Zm-3.49.48c.01 1.42.73 2.3 1.78 2.3 1.03 0 1.39-.58 1.58-1.03h.56c-.23.72-.81 1.55-2.17 1.55-1.67 0-2.32-1.44-2.32-2.84 0-1.57.78-2.93 2.39-2.93 1.69 0 2.23 1.46 2.23 2.5 0 .15 0 .31-.01.45Z"/><path clip-path="url(#b)" d="M465.13 11.7c.19.72.69 1.14 1.56 1.14.98 0 1.38-.45 1.38-1.07 0-.63-.27-.93-1.5-1.23-1.42-.34-1.77-.77-1.77-1.5 0-.76.57-1.46 1.82-1.46s1.84.76 1.92 1.54h-.55c-.1-.46-.46-1.03-1.4-1.03-.96 0-1.23.47-1.23.91 0 .51.27.76 1.35 1.02 1.55.37 1.94.88 1.94 1.7 0 1-.82 1.62-1.97 1.62-1.25 0-1.96-.66-2.11-1.65Z"/><path clip-path="url(#b)" d="M5 20.92H6.02V19.2h.55v1.72H7.88v.52H6.57v3.57c0 .62.13.97.66.97.17 0 .4-.01.57-.07v.48c-.19.08-.45.1-.68.1-.7 0-1.1-.35-1.1-1.23V21.43H5Z"/><path clip-path="url(#b)" d="M9.63 18.31v3.53c.31-.57.85-1.06 1.82-1.06.78 0 1.86.4 1.86 2.13v3.5h-.55V23.03c0-1.09-.49-1.7-1.41-1.7-1.09 0-1.72.67-1.72 2.02v3.07H9.08V18.31Z"/><path clip-path="url(#b)" d="M18.39 23.61H17.31c-1.22 0-1.98.32-1.98 1.27 0 .69.5 1.17 1.27 1.17 1.57 0 1.79-1.05 1.79-2.23Zm.54 1.76c0 .48.04.87.08 1.04h-.53c-.04-.13-.08-.37-.1-.85-.19.41-.67.98-1.8.98-1.28 0-1.83-.83-1.83-1.65 0-1.21.94-1.76 2.58-1.76h1.05v-.56c0-.55-.16-1.29-1.42-1.29-1.11 0-1.27.58-1.4 1.03h-.55c.07-.61.44-1.54 1.96-1.54 1.25 0 1.96.53 1.96 1.74Z"/><path clip-path="url(#b)" d="M19.97 20.92h1.02V19.2h.55v1.72h1.31v.52H21.54v3.57c0 .62.13.97.66.97.17 0 .4-.01.57-.07v.48c-.19.08-.45.1-.68.1-.7 0-1.1-.35-1.1-1.23V21.43H19.97Z"/><path clip-path="url(#b)" d="M31.1 24.8c-.26.97-.9 1.75-2.13 1.75-1.38 0-2.35-1.02-2.35-2.86 0-1.51.8-2.9 2.42-2.9 1.4 0 1.97.99 2.07 1.76h-.56c-.17-.64-.58-1.24-1.52-1.24-1.17 0-1.83.99-1.83 2.37 0 1.31.62 2.37 1.77 2.37.8 0 1.29-.41 1.57-1.23Z"/><path clip-path="url(#b)" d="M32.49 22.41c0-.92-.01-1.32-.01-1.5h.54c.01.18.02.53.02 1.23.32-.82 1.02-1.32 1.91-1.36v.59c-1.14.08-1.91.87-1.91 2.18v2.86h-.55Z"/><path clip-path="url(#b)" d="M39.68 23.25c-.01-1.09-.61-1.95-1.68-1.95-1.13 0-1.65.79-1.77 1.95Zm-3.49.48c.01 1.42.73 2.3 1.78 2.3 1.03 0 1.39-.58 1.58-1.03h.56c-.23.73-.81 1.55-2.17 1.55-1.67 0-2.32-1.44-2.32-2.84 0-1.57.78-2.93 2.39-2.93 1.69 0 2.23 1.46 2.23 2.5 0 .15 0 .31-.01.45Z"/><path clip-path="url(#b)" d="M44.94 23.61H43.86c-1.22 0-1.98.32-1.98 1.27 0 .69.49 1.17 1.27 1.17 1.57 0 1.79-1.05 1.79-2.23Zm.54 1.76c0 .48.04.87.08 1.04h-.53c-.04-.13-.08-.37-.1-.85-.19.41-.67.98-1.8.98-1.28 0-1.83-.83-1.83-1.65 0-1.21.94-1.76 2.58-1.76h1.05v-.56c0-.55-.17-1.29-1.42-1.29-1.11 0-1.27.58-1.4 1.03h-.55c.07-.61.44-1.54 1.96-1.54 1.25 0 1.96.53 1.96 1.74Z"/><path clip-path="url(#b)" d="M46.52 20.92h1.02V19.2h.55v1.72h1.31v.52H48.1v3.57c0 .62.13.97.66.97.16 0 .4-.01.57-.07v.48c-.19.08-.45.1-.68.1-.7 0-1.1-.35-1.1-1.23V21.43H46.52Z"/><path clip-path="url(#b)" d="M54.18 23.25c-.01-1.09-.61-1.95-1.68-1.95-1.13 0-1.65.79-1.77 1.95Zm-3.49.48c.01 1.42.72 2.3 1.78 2.3 1.03 0 1.39-.58 1.58-1.03h.56c-.23.73-.82 1.55-2.17 1.55-1.67 0-2.32-1.44-2.32-2.84 0-1.57.78-2.93 2.39-2.93 1.69 0 2.23 1.46 2.23 2.5 0 .15 0 .31-.01.45Z"/><path clip-path="url(#b)" d="M58.35 20.92h1.02V19.2h.55v1.72h1.31v.52H59.92v3.57c0 .62.13.97.66.97.17 0 .4-.01.57-.07v.48c-.19.08-.45.1-.68.1-.7 0-1.1-.35-1.1-1.23V21.43H58.35Z"/><path clip-path="url(#b)" d="M62.98 18.31v3.53c.31-.57.85-1.06 1.82-1.06.78 0 1.86.4 1.86 2.13v3.5h-.55V23.03c0-1.09-.49-1.7-1.41-1.7-1.09 0-1.72.67-1.72 2.02v3.07h-.55V18.31Z"/><path clip-path="url(#b)" d="M72.18 23.25c-.01-1.09-.6-1.95-1.68-1.95-1.13 0-1.65.79-1.77 1.95Zm-3.49.48c.01 1.42.73 2.3 1.78 2.3 1.03 0 1.39-.58 1.58-1.03h.56c-.23.73-.81 1.55-2.17 1.55-1.67 0-2.32-1.44-2.32-2.84 0-1.57.78-2.93 2.39-2.93 1.69 0 2.23 1.46 2.23 2.5 0 .15 0 .31-.01.45Z"/><path clip-path="url(#b)" d="M81.28 23.55c0-1.28-.62-2.23-1.7-2.23-1.33 0-1.88.84-1.88 2.33 0 1.47.43 2.39 1.8 2.39 1.14 0 1.78-.97 1.78-2.49M77.72 25.6v3.01h-.55V22.27c0-.45 0-.94-.01-1.35h.54c.02.21.02.54.02.99.34-.66.95-1.12 1.94-1.12 1.3 0 2.2 1.09 2.2 2.74 0 1.98-1.06 3.03-2.39 3.03-.97 0-1.47-.43-1.75-.95"/><path clip-path="url(#b)" d="M87.02 23.25c-.01-1.09-.6-1.95-1.68-1.95-1.13 0-1.65.79-1.77 1.95Zm-3.49.48c.01 1.42.73 2.3 1.78 2.3 1.03 0 1.39-.58 1.58-1.03h.56c-.23.73-.81 1.55-2.17 1.55-1.67 0-2.32-1.44-2.32-2.84 0-1.57.78-2.93 2.39-2.93 1.69 0 2.23 1.46 2.23 2.5 0 .15 0 .31-.01.45Z"/><path clip-path="url(#b)" d="M89.04 22.41c0-.92-.01-1.32-.01-1.5h.54c.01.18.02.53.02 1.23.32-.82 1.02-1.32 1.91-1.36v.59c-1.14.08-1.91.87-1.91 2.18v2.86h-.55Z"/><path clip-path="url(#b)" d="M93.15 26.42V21.43h-.95v-.52h.95v-.78c0-.92.26-1.94 1.5-1.94.17 0 .41.03.54.08v.53c-.16-.04-.43-.07-.59-.07-.65 0-.89.46-.89 1.42v.76h1.2v.52h-1.2v4.98Z"/><path clip-path="url(#b)" d="M99.49 23.25c-.01-1.09-.6-1.95-1.68-1.95-1.13 0-1.65.79-1.77 1.95ZM96 23.73c.01 1.42.73 2.3 1.78 2.3 1.03 0 1.39-.58 1.58-1.03h.56c-.23.73-.81 1.55-2.17 1.55-1.67 0-2.32-1.44-2.32-2.84 0-1.57.78-2.93 2.39-2.93 1.69 0 2.23 1.46 2.23 2.5 0 .15 0 .31-.01.45Z"/><path clip-path="url(#b)" d="M105.62 24.8c-.27.97-.9 1.75-2.14 1.75-1.38 0-2.35-1.02-2.35-2.86 0-1.51.8-2.9 2.42-2.9 1.4 0 1.97.99 2.07 1.76h-.56c-.17-.64-.58-1.24-1.52-1.24-1.17 0-1.83.99-1.83 2.37 0 1.31.62 2.37 1.77 2.37.8 0 1.29-.41 1.57-1.23Z"/><path clip-path="url(#b)" d="M106.31 20.92h1.02V19.2h.55v1.72h1.31v.52h-1.31v3.57c0 .62.13.97.66.97.17 0 .4-.01.57-.07v.48c-.19.08-.45.1-.68.1-.7 0-1.1-.35-1.1-1.23V21.43h-1.02Z"/><path clip-path="url(#b)" d="M117.44 24.8c-.27.97-.9 1.75-2.14 1.75-1.38 0-2.35-1.02-2.35-2.86 0-1.51.8-2.9 2.42-2.9 1.4 0 1.97.99 2.07 1.76h-.56c-.17-.64-.58-1.24-1.52-1.24-1.17 0-1.83.99-1.83 2.37 0 1.31.62 2.37 1.77 2.37.8 0 1.29-.41 1.57-1.23Z"/><path clip-path="url(#b)" d="M119.03 23.67c0 1.31.7 2.37 1.87 2.37 1.19 0 1.86-.98 1.86-2.37 0-1.3-.66-2.37-1.88-2.37-1.25 0-1.85 1.05-1.85 2.37m4.31-.01c0 1.53-.85 2.89-2.49 2.89-1.48 0-2.41-1.22-2.41-2.88 0-1.57.87-2.88 2.46-2.88 1.46 0 2.43 1.14 2.43 2.87"/><path clip-path="url(#b)" d="M124.81 22.3c0-.48 0-.95-.01-1.39h.54c.02.18.03.89.02 1.05.24-.56.69-1.18 1.83-1.18.98 0 1.85.55 1.85 2.07v3.56h-.55V22.94c0-.98-.41-1.62-1.36-1.62-1.31 0-1.76 1.09-1.76 2.29v2.8h-.55Z"/><path clip-path="url(#b)" d="M131.09 23.71c0 1.51.78 2.32 1.73 2.32 1.45 0 1.85-1 1.85-2.5 0-1.42-.34-2.23-1.75-2.23-1.09 0-1.83.87-1.83 2.41m4.1-5.4v6.52c0 .53 0 1.03.01 1.58h-.53c-.02-.13-.03-.65-.03-.92-.28.67-.89 1.06-1.85 1.06-1.43 0-2.29-1.17-2.29-2.82 0-1.69.94-2.95 2.43-2.95 1.1 0 1.54.47 1.71.82v-3.3Z"/><path clip-path="url(#b)" d="M137.11 20.92h.55v5.5h-.55Zm0-2.61h.55v1.07h-.55Z"/><path clip-path="url(#b)" d="M138.83 20.92h1.02V19.2h.55v1.72h1.31v.52H140.4v3.57c0 .62.13.97.66.97.16 0 .4-.01.57-.07v.48c-.19.08-.45.1-.68.1-.7 0-1.1-.35-1.1-1.23V21.43h-1.02Z"/><path clip-path="url(#b)" d="M142.94 20.92h.55v5.5h-.55Zm0-2.61h.55v1.07h-.55Z"/><path clip-path="url(#b)" d="M145.55 23.67c0 1.31.7 2.37 1.87 2.37 1.19 0 1.86-.98 1.86-2.37 0-1.3-.66-2.37-1.88-2.37-1.25 0-1.85 1.05-1.85 2.37m4.31-.01c0 1.53-.85 2.89-2.49 2.89-1.48 0-2.41-1.22-2.41-2.88 0-1.57.87-2.88 2.46-2.88 1.46 0 2.43 1.14 2.43 2.87"/><path clip-path="url(#b)" d="M151.33 22.3c0-.48 0-.95-.01-1.39h.54c.02.18.03.89.02 1.05.24-.56.69-1.18 1.83-1.18.98 0 1.85.55 1.85 2.07v3.56h-.55V22.94c0-.98-.41-1.62-1.36-1.62-1.31 0-1.76 1.09-1.76 2.29v2.8h-.55Z"/><path clip-path="url(#b)" d="M157.44 24.9c.19.72.69 1.15 1.56 1.15.98 0 1.38-.45 1.38-1.07 0-.63-.27-.93-1.5-1.23-1.42-.34-1.77-.77-1.77-1.5 0-.76.57-1.46 1.82-1.46s1.84.76 1.92 1.54h-.55c-.1-.46-.46-1.03-1.4-1.03-.96 0-1.23.47-1.23.91 0 .51.27.76 1.35 1.02 1.55.38 1.94.88 1.94 1.71 0 1-.82 1.62-1.97 1.62-1.25 0-1.96-.66-2.11-1.65Z"/><path clip-path="url(#b)" d="M162.1 25.85c0-.41.27-.69.66-.69s.65.29.65.69c0 .4-.25.69-.66.69-.38 0-.65-.3-.65-.69"/></g></g></svg>