<?xml version="1.0" encoding="UTF-8"?><!DOCTYPE svg PUBLIC "-//W3C//DTD SVG 1.0//EN" "http://www.w3.org/TR/2001/REC-SVG-20010904/DTD/svg10.dtd" []><svg xmlns="http://www.w3.org/2000/svg" xmlns:xlink="http://www.w3.org/1999/xlink" height="39" stroke="#000" stroke-linecap="square" stroke-miterlimit="10" viewBox="0 0 487.5 39.42" width="488"><defs><clipPath id="a"><path d="M0 0V39.42H487.5V0Z"/></clipPath><clipPath clip-path="url(#a)" id="b"><path d="M-301.64 129.85H658.48V-410.27H-301.64Z"/></clipPath></defs><g><g fill="#fff" stroke="none"><path clip-path="url(#b)" d="M11.92 11.52c-.35 1.44-1.4 2.51-3.26 2.51C6.22 14.02 5 12.14 5 9.78 5 7.51 6.23 5.47 8.71 5.47c1.95 0 2.99 1.15 3.22 2.55h-1.2c-.27-.86-.82-1.53-2.06-1.53-1.72 0-2.41 1.61-2.41 3.26 0 1.59.65 3.27 2.46 3.27 1.23 0 1.74-.74 2.01-1.49Z"/><path clip-path="url(#b)" d="M14.17 10.86c0 1.31.62 2.23 1.63 2.23 1.03 0 1.61-.88 1.61-2.22 0-1.36-.58-2.24-1.63-2.24-1.04 0-1.6.86-1.6 2.23m4.4-.01c0 1.78-1 3.21-2.82 3.21-1.72 0-2.76-1.35-2.76-3.19 0-1.82 1.02-3.21 2.83-3.21 1.66 0 2.75 1.27 2.75 3.18"/><path clip-path="url(#b)" d="M19.97 9.47c0-.81-.01-1.3-.01-1.66h1.12c.02.16.04.67.04 1.21.3-.8.99-1.33 1.98-1.36V8.83c-1.21.03-1.98.62-1.98 2.18v2.91H19.97Z"/><path clip-path="url(#b)" d="M28.37 10.75c0-1.26-.54-2.1-1.51-2.1-1.17 0-1.62.76-1.62 2.2 0 1.39.38 2.23 1.55 2.23 1.04 0 1.59-.88 1.59-2.33M25.29 13.2v3.1H24.15V9.3c0-.5 0-1.01-.01-1.49h1.11c.02.19.04.57.04.92.31-.58.89-1.07 1.89-1.07 1.36 0 2.36 1.18 2.36 3.04 0 2.18-1.14 3.35-2.58 3.35-.93 0-1.42-.4-1.68-.86"/><path clip-path="url(#b)" d="M31.78 10.86c0 1.31.62 2.23 1.63 2.23 1.03 0 1.61-.88 1.61-2.22 0-1.36-.58-2.24-1.63-2.24-1.04 0-1.61.86-1.61 2.23m4.4-.01c0 1.78-1 3.21-2.82 3.21-1.72 0-2.76-1.35-2.76-3.19 0-1.82 1.02-3.21 2.83-3.21 1.66 0 2.75 1.27 2.75 3.18"/><path clip-path="url(#b)" d="M37.58 9.47c0-.81-.01-1.3-.01-1.66h1.12c.02.16.04.67.04 1.21.3-.8.99-1.33 1.98-1.36V8.83c-1.21.03-1.98.62-1.98 2.18v2.91H37.58Z"/><path clip-path="url(#b)" d="M45.08 10.98h-.9c-1.14 0-1.72.33-1.72 1.14 0 .6.39 1.04 1.09 1.04 1.35 0 1.53-.94 1.53-1.99Zm1.11 1.56c0 .56.05 1.21.08 1.38H45.18c-.05-.13-.08-.43-.09-.76-.21.39-.67.9-1.8.9-1.4 0-2-.94-2-1.88 0-1.37 1.05-2 2.8-2h.98V9.7c0-.52-.16-1.13-1.2-1.13-.93 0-1.1.47-1.2.94h-1.1c.08-.89.61-1.84 2.33-1.84 1.47.01 2.29.62 2.29 2.02Z"/><path clip-path="url(#b)" d="M47.19 7.81h1V6.04h1.14V7.81h1.28v.94H49.33v3.47c0 .57.14.85.67.85.13 0 .33-.01.49-.04v.86c-.27.1-.64.11-.93.11-.97 0-1.37-.52-1.37-1.54V8.75h-1Z"/><path clip-path="url(#b)" d="M55.47 10.29c-.01-.95-.46-1.71-1.43-1.71-.99 0-1.42.71-1.52 1.71Zm-2.98.8c.01 1.15.57 2 1.54 2 .89 0 1.17-.46 1.35-.89h1.15c-.23.78-.87 1.86-2.53 1.86-1.88 0-2.65-1.55-2.65-3.13 0-1.83.9-3.27 2.72-3.27 1.93 0 2.57 1.57 2.57 2.91 0 .19 0 .34-.02.51Z"/><path clip-path="url(#b)" d="M67.66 11.52c-.35 1.44-1.4 2.51-3.27 2.51-2.44 0-3.66-1.89-3.66-4.24 0-2.27 1.23-4.31 3.71-4.31 1.95 0 2.99 1.15 3.22 2.55h-1.2c-.27-.86-.82-1.53-2.06-1.53-1.72 0-2.41 1.61-2.41 3.26 0 1.59.65 3.27 2.46 3.27 1.23 0 1.74-.74 2.01-1.49Z"/><path clip-path="url(#b)" d="M69.9 10.86c0 1.31.62 2.23 1.63 2.23 1.03 0 1.61-.88 1.61-2.22 0-1.36-.58-2.24-1.63-2.24-1.04 0-1.6.86-1.6 2.23m4.4-.01c0 1.78-1 3.21-2.82 3.21-1.72 0-2.76-1.35-2.76-3.19 0-1.82 1.02-3.21 2.83-3.21 1.66 0 2.75 1.27 2.75 3.18"/><path clip-path="url(#b)" d="M75.7 9.35c0-.53 0-1.07-.01-1.54H76.8c.03.18.05.78.04.96.23-.5.71-1.1 1.84-1.1s1.97.73 1.97 2.33v3.92H79.51V10.14c0-.88-.32-1.47-1.19-1.47-1.03 0-1.47.78-1.47 1.98v3.26H75.7Z"/><path clip-path="url(#b)" d="M82.64 13.92V8.75H81.7V7.81h.94V7.12c0-1.15.45-2.12 1.76-2.12.23 0 .53.03.67.08v.98c-.13-.03-.33-.05-.49-.05-.58 0-.8.34-.8 1.19v.62h1.16v.94H83.78v5.17Z"/><path clip-path="url(#b)" d="M89.62 10.29c-.01-.95-.46-1.71-1.43-1.71-.99 0-1.42.71-1.52 1.71Zm-2.98.8c.01 1.15.57 2 1.53 2 .89 0 1.17-.46 1.35-.89h1.15c-.23.78-.87 1.86-2.53 1.86-1.88 0-2.65-1.55-2.65-3.13 0-1.83.9-3.27 2.72-3.27 1.93 0 2.57 1.57 2.57 2.91 0 .19 0 .34-.02.51Z"/><path clip-path="url(#b)" d="M92.17 9.47c0-.81-.01-1.3-.01-1.66h1.12c.02.16.04.67.04 1.21.3-.8.99-1.33 1.98-1.36V8.83c-1.21.03-1.98.62-1.98 2.18v2.91H92.17Z"/><path clip-path="url(#b)" d="M100.1 10.29c-.01-.95-.46-1.71-1.43-1.71-.99 0-1.42.71-1.52 1.71Zm-2.98.8c.01 1.15.57 2 1.54 2 .89 0 1.17-.46 1.35-.89h1.15c-.23.78-.87 1.86-2.53 1.86-1.88 0-2.65-1.55-2.65-3.13 0-1.83.9-3.27 2.72-3.27 1.93 0 2.57 1.57 2.57 2.91 0 .19 0 .34-.02.51Z"/><path clip-path="url(#b)" d="M102.65 9.35c0-.53 0-1.07-.01-1.54h1.11c.03.18.05.78.04.96.23-.5.71-1.1 1.83-1.1s1.97.73 1.97 2.33v3.92h-1.14V10.14c0-.88-.32-1.47-1.19-1.47-1.03 0-1.47.78-1.47 1.98v3.26h-1.14Z"/><path clip-path="url(#b)" d="M114.16 12.03c-.24 1.04-.93 2.03-2.49 2.03-1.67 0-2.67-1.23-2.67-3.16 0-1.74.97-3.23 2.74-3.23 1.76 0 2.35 1.3 2.41 2.07h-1.13c-.14-.6-.49-1.1-1.31-1.1-.99 0-1.55.88-1.55 2.22 0 1.37.55 2.24 1.52 2.24.71 0 1.11-.39 1.33-1.07Z"/><path clip-path="url(#b)" d="M119.26 10.29c-.01-.95-.46-1.71-1.43-1.71-.99 0-1.42.71-1.52 1.71Zm-2.98.8c.01 1.15.57 2 1.54 2 .89 0 1.17-.46 1.35-.89h1.15c-.23.78-.87 1.86-2.53 1.86-1.88 0-2.65-1.55-2.65-3.13 0-1.83.9-3.27 2.72-3.27 1.93 0 2.57 1.57 2.57 2.91 0 .19 0 .34-.02.51Z"/><path clip-path="url(#b)" d="M122.51 12.15c.16.63.62 1 1.39 1 .82 0 1.13-.36 1.13-.88 0-.54-.27-.78-1.34-1.05-1.74-.44-2.08-.99-2.08-1.82 0-.87.61-1.74 2.19-1.74s2.2.93 2.27 1.78h-1.1c-.08-.36-.34-.89-1.22-.89-.77 0-1.01.38-1.01.75 0 .43.23.64 1.29.9 1.83.44 2.17 1.08 2.17 1.98 0 1.06-.81 1.87-2.34 1.87-1.58 0-2.33-.82-2.48-1.91Z"/><path clip-path="url(#b)" d="M130.8 12.28h.77v1.64h-.77Zm0-4.38h.77V9.52h-.77Z"/><path clip-path="url(#b)" d="M137.88 13.92V7c-.39.32-1.22.72-1.66.82V7.13c.54-.17 1.28-.63 1.84-1.15h.62v7.94Z"/><path clip-path="url(#b)" d="M141.48 9.98c0 1.52.29 3.36 1.73 3.36 1.47 0 1.74-1.76 1.74-3.43 0-1.52-.28-3.31-1.7-3.31-1.47 0-1.77 1.63-1.77 3.38m4.31-.06c0 1.88-.49 4.15-2.58 4.15-2.04 0-2.57-2.1-2.57-4.09 0-1.97.58-4.09 2.61-4.09s2.55 2.09 2.55 4.03"/><path clip-path="url(#b)" d="M147.18 11.22h4.74v-.74h-4.74Z" fill-rule="evenodd"/><path clip-path="url(#b)" d="M154.79 13.92V7c-.39.32-1.22.72-1.66.82V7.13c.54-.17 1.28-.63 1.84-1.15h.62v7.94Z"/><path clip-path="url(#b)" d="M157.5 13.92v-.05c0-1.06.77-2.26 2.32-3.49 1.28-1.02 1.62-1.34 1.62-2.28 0-.83-.44-1.51-1.46-1.51-.99 0-1.49.51-1.67 1.58h-.78c.14-1.33.96-2.29 2.45-2.29 1.62 0 2.29 1.11 2.29 2.19 0 1.21-.5 1.64-1.91 2.81-1.1.9-1.73 1.6-1.94 2.29h4.16l-.12.74Z"/><path clip-path="url(#b)" d="M167.31 7.88c.8 2.98 1.27 4.69 1.36 5.27h.01c.1-.52.61-2.24 1.48-5.27h.8c1.01 3.59 1.31 4.62 1.41 5.13h.01c.15-.65.41-1.56 1.41-5.13h.81l-1.83 6.03h-.85c-.6-2.16-1.27-4.52-1.39-5.12h-.01c-.11.62-.71 2.64-1.43 5.12h-.9l-1.71-6.03Z"/><path clip-path="url(#b)" d="M179.62 10.4c-.01-1.1-.58-1.98-1.66-1.98-1.12 0-1.63.81-1.75 1.98Zm-3.44.62c.01 1.41.7 2.33 1.76 2.33 1.02 0 1.36-.57 1.56-1.04h.79c-.24.79-.86 1.75-2.38 1.75-1.81 0-2.52-1.56-2.52-3.11 0-1.76.85-3.22 2.59-3.22 1.84 0 2.44 1.59 2.44 2.79 0 .17 0 .34-.01.5Z"/><path clip-path="url(#b)" d="M185.75 10.4c-.01-1.1-.58-1.98-1.66-1.98-1.12 0-1.63.81-1.75 1.98Zm-3.44.62c.01 1.41.7 2.33 1.76 2.33 1.02 0 1.36-.57 1.56-1.04h.79c-.24.79-.86 1.75-2.38 1.75-1.81 0-2.52-1.56-2.52-3.11 0-1.76.85-3.22 2.59-3.22 1.84 0 2.44 1.59 2.44 2.79 0 .17 0 .34-.01.5Z"/><path clip-path="url(#b)" d="M188.85 10.89c.52-.59 1.99-2.16 2.78-3.01h.96l-2.26 2.38 2.54 3.66h-.93l-2.15-3.14-.93.93v2.22h-.78V5.09h.78Z"/><path clip-path="url(#b)" d="M194.24 12.22c.18.73.69 1.16 1.56 1.16.96 0 1.34-.44 1.34-1.06 0-.63-.27-.94-1.5-1.24-1.58-.39-1.95-.89-1.95-1.7 0-.84.61-1.65 2.01-1.65s2.03.86 2.12 1.71h-.76c-.1-.46-.44-1.04-1.39-1.04-.93 0-1.2.47-1.2.91 0 .51.26.76 1.38 1.04 1.71.42 2.09 1 2.09 1.9 0 1.08-.84 1.8-2.17 1.8-1.42 0-2.16-.75-2.32-1.84Z"/><path clip-path="url(#b)" d="M202.19 14.53l3.27-9.1h.74l-3.27 9.1Z"/><path clip-path="url(#b)" d="M207.43 14.53l3.27-9.1h.74l-3.27 9.1Z"/><path clip-path="url(#b)" d="M222.9 13.92h-.91c-.06-.18-.09-.53-.11-1.07-.37.6-1.08 1.19-2.48 1.19-2.33 0-3.58-1.82-3.58-4.19 0-2.5 1.34-4.37 3.8-4.37 1.91 0 3.1 1.08 3.33 2.55h-1.2c-.25-.86-.86-1.54-2.15-1.54-1.83 0-2.53 1.52-2.53 3.3 0 1.66.71 3.23 2.49 3.23 1.75 0 2.17-1.21 2.17-2.49v-.08h-2.18V9.39h3.35Z"/><path clip-path="url(#b)" d="M228.1 10.98h-.9c-1.14 0-1.72.33-1.72 1.14 0 .6.39 1.04 1.09 1.04 1.35 0 1.53-.94 1.53-1.99Zm1.11 1.56c0 .56.05 1.21.08 1.38h-1.09c-.05-.13-.08-.43-.09-.76-.21.39-.67.9-1.8.9-1.4 0-2-.94-2-1.88 0-1.37 1.05-2 2.8-2h.98V9.7c0-.52-.16-1.13-1.2-1.13-.93 0-1.1.47-1.2.94h-1.1c.08-.89.61-1.84 2.33-1.84 1.47.01 2.29.62 2.29 2.02Z"/><path clip-path="url(#b)" d="M231.03 13.92h1.14V5.12h-1.14Z" fill-rule="evenodd"/><path clip-path="url(#b)" d="M237.3 10.98h-.9c-1.14 0-1.72.33-1.72 1.14 0 .6.39 1.04 1.09 1.04 1.35 0 1.53-.94 1.53-1.99Zm1.11 1.56c0 .56.05 1.21.08 1.38h-1.09c-.05-.13-.08-.43-.09-.76-.21.39-.67.9-1.8.9-1.4 0-2-.94-2-1.88 0-1.37 1.05-2 2.8-2h.98V9.7c0-.52-.16-1.13-1.2-1.13-.93 0-1.09.47-1.2.94h-1.1c.08-.89.61-1.84 2.33-1.84 1.47.01 2.29.62 2.29 2.02Z"/><path clip-path="url(#b)" d="M244.66 12.88h1.62c1.83 0 2.7-1.36 2.7-3.2 0-1.59-.79-3.06-2.69-3.06h-1.63Zm-1.2-7.29h2.95c2.29 0 3.82 1.6 3.82 4.08 0 2.46-1.5 4.25-3.86 4.25h-2.9Z"/><path clip-path="url(#b)" d="M251.84 7.81h1.14v6.1h-1.14Zm0-2.69h1.14V6.47h-1.14Z"/><path clip-path="url(#b)" d="M254.8 9.35c0-.53 0-1.07-.01-1.54h1.11c.03.18.04.78.04.96.23-.5.71-1.1 1.83-1.1s1.97.73 1.97 2.33v3.92h-1.14V10.14c0-.88-.33-1.47-1.19-1.47-1.03 0-1.47.78-1.47 1.98v3.26H254.8Z"/><path clip-path="url(#b)" d="M261.55 9.35c0-.53 0-1.07-.01-1.54h1.11c.03.18.04.78.04.96.23-.5.71-1.1 1.84-1.1s1.97.73 1.97 2.33v3.92h-1.14V10.14c0-.88-.33-1.47-1.19-1.47-1.03 0-1.47.78-1.47 1.98v3.26h-1.14Z"/><path clip-path="url(#b)" d="M272.03 10.29c-.01-.95-.46-1.71-1.43-1.71-.99 0-1.42.71-1.52 1.71Zm-2.98.8c.01 1.15.57 2 1.54 2 .89 0 1.17-.46 1.35-.89h1.15c-.23.78-.87 1.86-2.53 1.86-1.88 0-2.66-1.55-2.66-3.13 0-1.83.9-3.27 2.72-3.27 1.93 0 2.57 1.57 2.57 2.91 0 .19 0 .34-.02.51Z"/><path clip-path="url(#b)" d="M274.57 9.47c0-.81-.01-1.3-.01-1.66h1.12c.02.16.04.67.04 1.21.3-.8.99-1.33 1.97-1.36V8.83c-1.21.03-1.97.62-1.97 2.18v2.91h-1.14Z"/><path clip-path="url(#b)" d="M279.53 12.15c.16.63.62 1 1.39 1 .82 0 1.14-.36 1.14-.88 0-.54-.27-.78-1.34-1.05-1.74-.44-2.08-.99-2.08-1.82 0-.87.61-1.74 2.19-1.74s2.2.93 2.27 1.78h-1.1c-.08-.36-.34-.89-1.22-.89-.77 0-1.01.38-1.01.75 0 .43.23.64 1.29.9 1.83.44 2.17 1.08 2.17 1.98 0 1.06-.81 1.87-2.34 1.87-1.58 0-2.33-.82-2.48-1.91Z"/><path clip-path="url(#b)" d="M287.83 12.28h.77v1.64h-.77Zm0-4.38h.77V9.52h-.77Z"/><path clip-path="url(#b)" d="M294.48 7.93c0 .72.43 1.35 1.5 1.35 1 0 1.43-.52 1.43-1.31 0-.73-.44-1.38-1.45-1.38-1.07 0-1.48.57-1.48 1.34m3.22 3.74c0-1.08-.66-1.67-1.76-1.67-1.23 0-1.77.73-1.77 1.67 0 .95.64 1.69 1.77 1.69 1.04 0 1.77-.59 1.77-1.69m-4.35.03c0-1.15.74-1.81 1.44-2.07-.7-.32-1.1-.9-1.1-1.68 0-1.18.79-2.06 2.31-2.06 1.39 0 2.21.88 2.21 2.05 0 .82-.44 1.41-1.1 1.66.79.25 1.41 1.02 1.41 2.08 0 1.46-1.09 2.39-2.62 2.39-1.45 0-2.55-.93-2.55-2.36"/><path clip-path="url(#b)" d="M299.86 11.22h4.74v-.74h-4.74Z" fill-rule="evenodd"/><path clip-path="url(#b)" d="M307.47 13.92V7c-.39.32-1.22.72-1.66.82V7.13c.54-.17 1.28-.63 1.84-1.15h.62v7.94Z"/><path clip-path="url(#b)" d="M311.07 9.98c0 1.52.29 3.36 1.73 3.36 1.47 0 1.74-1.76 1.74-3.43 0-1.52-.28-3.31-1.7-3.31-1.47 0-1.77 1.63-1.77 3.38m4.31-.06c0 1.88-.49 4.15-2.58 4.15-2.04 0-2.57-2.1-2.57-4.09 0-1.97.58-4.09 2.61-4.09s2.55 2.09 2.55 4.03"/><path clip-path="url(#b)" d="M320.35 7.88c.8 2.98 1.27 4.69 1.36 5.27h.01c.1-.52.61-2.24 1.48-5.27h.8c1.01 3.59 1.31 4.62 1.41 5.13h.01c.16-.65.41-1.56 1.41-5.13h.8l-1.83 6.03h-.85c-.6-2.16-1.27-4.52-1.39-5.12h-.01c-.11.62-.71 2.64-1.43 5.12h-.9l-1.71-6.03Z"/><path clip-path="url(#b)" d="M332.66 10.4c-.01-1.1-.58-1.98-1.66-1.98-1.12 0-1.63.81-1.75 1.98Zm-3.44.62c.01 1.41.7 2.33 1.76 2.33 1.02 0 1.36-.57 1.56-1.04h.79c-.24.79-.86 1.75-2.38 1.75-1.81 0-2.53-1.56-2.53-3.11 0-1.76.85-3.22 2.59-3.22 1.84 0 2.44 1.59 2.44 2.79 0 .17 0 .34-.01.5Z"/><path clip-path="url(#b)" d="M338.8 10.4c-.01-1.1-.58-1.98-1.66-1.98-1.12 0-1.63.81-1.75 1.98Zm-3.44.62c.01 1.41.7 2.33 1.76 2.33 1.02 0 1.36-.57 1.56-1.04h.79c-.24.79-.86 1.75-2.38 1.75-1.81 0-2.52-1.56-2.52-3.11 0-1.76.85-3.22 2.59-3.22 1.84 0 2.44 1.59 2.44 2.79 0 .17 0 .34-.01.5Z"/><path clip-path="url(#b)" d="M341.89 10.89c.52-.59 1.99-2.16 2.78-3.01h.96l-2.26 2.38 2.54 3.66h-.93l-2.15-3.14-.93.93v2.22h-.78V5.09h.78Z"/><path clip-path="url(#b)" d="M347.29 12.22c.18.73.69 1.16 1.56 1.16.96 0 1.34-.44 1.34-1.06 0-.63-.28-.94-1.5-1.24-1.58-.39-1.95-.89-1.95-1.7 0-.84.61-1.65 2.01-1.65s2.03.86 2.12 1.71h-.76c-.09-.46-.44-1.04-1.39-1.04-.93 0-1.2.47-1.2.91 0 .51.26.76 1.38 1.04 1.71.42 2.09 1 2.09 1.9 0 1.08-.84 1.8-2.17 1.8-1.42 0-2.16-.75-2.32-1.84Z"/><path clip-path="url(#b)" d="M5.44 31.92h1.2V23.59H5.44Z" fill-rule="evenodd"/><path clip-path="url(#b)" d="M8.51 27.35c0-.53 0-1.07-.01-1.54H9.61c.03.18.04.78.04.96.23-.5.71-1.1 1.83-1.1s1.97.73 1.97 2.33v3.92H12.32V28.14c0-.88-.33-1.47-1.19-1.47-1.03 0-1.47.78-1.47 1.98v3.26H8.51Z"/><path clip-path="url(#b)" d="M14.46 25.81h1V24.04H16.6v1.77h1.28v.94H16.6v3.47c0 .57.14.85.67.85.13 0 .33-.01.49-.04v.86c-.27.1-.64.11-.93.11-.97 0-1.37-.52-1.37-1.54V26.75h-1Z"/><path clip-path="url(#b)" d="M22.73 28.29c-.01-.95-.46-1.71-1.43-1.71-.99 0-1.42.71-1.52 1.71Zm-2.98.8c.01 1.15.57 2.01 1.54 2.01.89 0 1.17-.46 1.35-.89h1.15c-.23.78-.87 1.85-2.54 1.85-1.88 0-2.65-1.55-2.65-3.13 0-1.83.9-3.27 2.72-3.27 1.93 0 2.57 1.57 2.57 2.91 0 .19 0 .34-.02.51Z"/><path clip-path="url(#b)" d="M25.28 27.47c0-.81-.01-1.3-.01-1.66h1.12c.02.16.04.67.04 1.21.3-.8.99-1.33 1.98-1.36v1.16c-1.21.03-1.98.62-1.98 2.18v2.91H25.28Z"/><path clip-path="url(#b)" d="M29.47 27.35c0-.53 0-1.07-.01-1.54h1.11c.03.18.04.78.04.96.23-.5.71-1.1 1.84-1.1s1.97.73 1.97 2.33v3.92H33.28V28.14c0-.88-.32-1.47-1.19-1.47-1.03 0-1.47.78-1.47 1.98v3.26H29.47Z"/><path clip-path="url(#b)" d="M39.54 28.98h-.9c-1.14 0-1.72.33-1.72 1.14 0 .6.39 1.04 1.09 1.04 1.35 0 1.53-.94 1.53-1.99Zm1.11 1.56c0 .56.05 1.21.08 1.38H39.64c-.05-.13-.08-.43-.09-.76-.21.39-.67.9-1.8.9-1.4 0-2-.94-2-1.88 0-1.37 1.05-1.99 2.8-1.99h.98V27.7c0-.52-.16-1.13-1.2-1.13-.93 0-1.1.47-1.2.94h-1.1c.08-.89.61-1.84 2.33-1.84 1.47.01 2.29.62 2.29 2.02Z"/><path clip-path="url(#b)" d="M42.47 31.92h1.14V23.12H42.47Z" fill-rule="evenodd"/><path clip-path="url(#b)" d="M55.52 28.45c0-1.52.02-3.1.05-3.99h-.04c-.35 1.42-1.57 4.84-2.46 7.46H52.01c-.68-2.16-1.93-6.01-2.29-7.47h-.04c.06.97.09 2.79.09 4.22v3.26H48.65V23.59h1.79c.86 2.51 1.9 5.73 2.17 6.82h.02c.19-.86 1.43-4.38 2.33-6.82h1.73v8.33H55.52Z"/><path clip-path="url(#b)" d="M62.32 28.29c-.01-.95-.46-1.71-1.43-1.71-.99 0-1.42.71-1.52 1.71Zm-2.98.8c.01 1.15.57 2.01 1.54 2.01.89 0 1.17-.46 1.35-.89h1.15c-.23.78-.87 1.85-2.53 1.85-1.88 0-2.65-1.55-2.65-3.13 0-1.83.9-3.27 2.72-3.27 1.93 0 2.57 1.57 2.57 2.91 0 .19 0 .34-.02.51Z"/><path clip-path="url(#b)" d="M68.67 28.29c-.01-.95-.46-1.71-1.43-1.71-.99 0-1.42.71-1.52 1.71Zm-2.98.8c.01 1.15.57 2.01 1.53 2.01.89 0 1.17-.46 1.35-.89h1.15c-.23.78-.87 1.85-2.53 1.85-1.88 0-2.65-1.55-2.65-3.13 0-1.83.9-3.27 2.72-3.27 1.93 0 2.57 1.57 2.57 2.91 0 .19 0 .34-.02.51Z"/><path clip-path="url(#b)" d="M70.52 25.81h1V24.04h1.14v1.77h1.28v.94H72.67v3.47c0 .57.14.85.67.85.13 0 .33-.01.49-.04v.86c-.27.1-.64.11-.93.11-.97 0-1.37-.52-1.37-1.54V26.75h-1Z"/><path clip-path="url(#b)" d="M75.11 25.81h1.14v6.1H75.11Zm0-2.69h1.14v1.35H75.11Z"/><path clip-path="url(#b)" d="M78.06 27.35c0-.53 0-1.07-.01-1.54h1.11c.03.18.05.78.04.96.23-.5.71-1.1 1.83-1.1s1.97.73 1.97 2.33v3.92H81.87V28.14c0-.88-.32-1.47-1.19-1.47-1.03 0-1.47.78-1.47 1.98v3.26H78.06Z"/><path clip-path="url(#b)" d="M85.59 28.82c0 1.24.62 2.07 1.54 2.07 1.22 0 1.57-.85 1.57-2.14 0-1.31-.32-2.1-1.54-2.1-1.02 0-1.58.87-1.58 2.17m4.19 2.51c0 1.96-.77 3.1-2.76 3.1-1.87 0-2.39-1.08-2.49-1.88H85.7c.16.62.64.96 1.38.96 1.29 0 1.6-.84 1.6-2.2v-.46c-.31.65-.85 1.03-1.81 1.03-1.48 0-2.45-1.24-2.45-3 0-1.98 1.12-3.21 2.56-3.21 1.11 0 1.58.54 1.7.92.01-.26.04-.65.05-.78H89.8c-.01.39-.02 1.17-.02 1.76Z"/><path clip-path="url(#b)" d="M92.14 30.15c.16.63.62 1 1.39 1 .82 0 1.13-.36 1.13-.88 0-.54-.27-.78-1.34-1.05-1.74-.44-2.08-.99-2.08-1.82 0-.87.62-1.74 2.19-1.74s2.2.93 2.27 1.78H94.6c-.08-.36-.34-.89-1.22-.89-.77 0-1.01.38-1.01.75 0 .43.23.64 1.29.9 1.83.44 2.17 1.08 2.17 1.98 0 1.06-.81 1.87-2.34 1.87-1.59 0-2.33-.82-2.48-1.91Z"/><path clip-path="url(#b)" d="M100.44 30.28h.77v1.64h-.77Zm0-4.38h.77v1.63h-.77Z"/><path clip-path="url(#b)" d="M109.48 26.86c0-.52.01-1.41.02-1.93-.31.59-1.99 2.92-2.84 4.14h2.82Zm0 5.06V29.79h-3.65v-.75l3.59-5.01h.83v5.04h1.01l-.09.72h-.92v2.13Z"/><path clip-path="url(#b)" d="M112.4 29.22h4.74v-.74H112.4Z" fill-rule="evenodd"/><path clip-path="url(#b)" d="M122.84 29.27c0-.93-.35-1.98-1.62-1.98-1.02 0-1.77.69-1.77 1.99 0 .66.33 2.08 1.73 2.08 1.21 0 1.67-1.03 1.67-2.08m-.22-3.6c-.17-.64-.58-1.09-1.4-1.09-1.38 0-1.86 1.34-1.9 3.23.31-.61.89-1.23 2.02-1.23 1.51 0 2.33 1.12 2.33 2.63s-.83 2.85-2.5 2.85c-2.07 0-2.64-1.76-2.64-3.98s.68-4.2 2.72-4.2c1.52 0 2.06 1.04 2.17 1.79Z"/><path clip-path="url(#b)" d="M128.56 25.88c.8 2.98 1.27 4.69 1.36 5.27h.01c.1-.52.61-2.24 1.48-5.27h.8c1.01 3.59 1.31 4.62 1.41 5.13h.01c.15-.65.41-1.56 1.41-5.13h.81l-1.83 6.04h-.85c-.6-2.17-1.27-4.52-1.39-5.12h-.01c-.11.62-.71 2.64-1.43 5.12h-.9l-1.71-6.04Z"/><path clip-path="url(#b)" d="M140.86 28.4c-.01-1.1-.58-1.98-1.66-1.98-1.12 0-1.63.81-1.75 1.98Zm-3.44.62c.01 1.41.7 2.33 1.76 2.33 1.02 0 1.36-.57 1.56-1.04h.79c-.24.79-.86 1.75-2.38 1.75-1.81 0-2.52-1.56-2.52-3.11 0-1.76.85-3.22 2.59-3.22 1.84 0 2.44 1.59 2.44 2.79 0 .17 0 .34-.01.5Z"/><path clip-path="url(#b)" d="M147 28.4c-.01-1.1-.58-1.98-1.66-1.98-1.12 0-1.63.81-1.75 1.98Zm-3.44.62c.01 1.41.7 2.33 1.76 2.33 1.02 0 1.36-.57 1.56-1.04h.79c-.24.79-.86 1.75-2.38 1.75-1.81 0-2.52-1.56-2.52-3.11 0-1.76.85-3.22 2.59-3.22 1.84 0 2.44 1.59 2.44 2.79 0 .17 0 .34-.01.5Z"/><path clip-path="url(#b)" d="M150.1 28.89c.52-.59 1.99-2.16 2.78-3.01h.96l-2.26 2.38 2.54 3.66h-.93l-2.15-3.14-.93.93v2.22h-.78V23.09h.78Z"/><path clip-path="url(#b)" d="M155.49 30.22c.18.73.69 1.16 1.56 1.16.96 0 1.34-.44 1.34-1.06 0-.63-.27-.94-1.5-1.24-1.58-.39-1.95-.89-1.95-1.7 0-.84.61-1.65 2.01-1.65s2.03.86 2.12 1.71h-.76c-.1-.46-.44-1.04-1.39-1.04-.93 0-1.2.47-1.2.91 0 .51.26.76 1.38 1.04 1.71.42 2.09 1 2.09 1.9 0 1.08-.84 1.8-2.17 1.8-1.42 0-2.16-.75-2.32-1.84Z"/><path clip-path="url(#b)" d="M163.44 32.53l3.27-9.1h.74l-3.27 9.1Z"/><path clip-path="url(#b)" d="M168.68 32.53l3.27-9.1h.74l-3.27 9.1Z"/><path clip-path="url(#b)" d="M178.71 27.53h1.77c1.05 0 1.61-.51 1.61-1.46 0-.98-.66-1.46-1.57-1.46h-1.81Zm-1.21-3.94h3.12c1.6 0 2.69.92 2.69 2.45 0 1.66-1.17 2.51-2.75 2.51h-1.85v3.36h-1.21Z"/><path clip-path="url(#b)" d="M184.57 27.47c0-.81-.01-1.3-.01-1.66h1.12c.02.16.04.67.04 1.21.3-.8.99-1.33 1.98-1.36v1.16c-1.21.03-1.98.62-1.98 2.18v2.91h-1.14Z"/><path clip-path="url(#b)" d="M189.54 28.86c0 1.31.62 2.23 1.63 2.23 1.03 0 1.61-.88 1.61-2.22 0-1.36-.58-2.24-1.63-2.24-1.04 0-1.6.86-1.6 2.23m4.4-.01c0 1.78-1 3.21-2.82 3.21-1.72 0-2.76-1.35-2.76-3.19 0-1.82 1.02-3.21 2.83-3.21 1.66 0 2.75 1.27 2.75 3.18"/><path clip-path="url(#b)" d="M196.2 28.89c0 1.42.63 2.19 1.54 2.19 1.33 0 1.61-1.04 1.61-2.29 0-1.3-.25-2.14-1.53-2.14-1.01 0-1.61.82-1.61 2.24m4.24-5.77V30.2c0 .57 0 1.13.01 1.72h-1.1c-.03-.17-.05-.6-.05-.82-.29.61-.87.97-1.83.97-1.52 0-2.45-1.27-2.45-3.14s1.01-3.26 2.65-3.26c1.01 0 1.47.41 1.63.74V23.12Z"/><path clip-path="url(#b)" d="M207.08 30.14c0 .59.01 1.38.01 1.78h-1.11c-.02-.16-.03-.52-.04-.88-.3.66-.86 1.02-1.76 1.02-1.04 0-1.96-.56-1.96-2.24V25.81h1.14v3.76c0 .78.24 1.48 1.17 1.48 1.02 0 1.42-.58 1.42-2.05v-3.2h1.14Z"/><path clip-path="url(#b)" d="M213.67 30.03c-.24 1.04-.93 2.03-2.49 2.03-1.67 0-2.67-1.23-2.67-3.16 0-1.74.97-3.23 2.74-3.23s2.35 1.3 2.41 2.07h-1.13c-.14-.6-.49-1.1-1.31-1.1-.99 0-1.55.88-1.55 2.22 0 1.37.55 2.24 1.52 2.24.71 0 1.11-.39 1.34-1.07Z"/><path clip-path="url(#b)" d="M214.37 25.81h1V24.04h1.14v1.77h1.28v.94h-1.28v3.47c0 .57.14.85.67.85.13 0 .33-.01.49-.04v.86c-.27.1-.64.11-.93.11-.97 0-1.37-.52-1.37-1.54V26.75h-1Z"/><path clip-path="url(#b)" d="M222.24 23.59h1.2v7.28h4.18l-.16 1.05h-5.22Z"/><path clip-path="url(#b)" d="M232.23 28.98h-.9c-1.14 0-1.72.33-1.72 1.14 0 .6.39 1.04 1.09 1.04 1.35 0 1.53-.94 1.53-1.99Zm1.11 1.56c0 .56.05 1.21.08 1.38h-1.09c-.05-.13-.08-.43-.09-.76-.21.39-.67.9-1.8.9-1.4 0-2-.94-2-1.88 0-1.37 1.05-1.99 2.8-1.99h.98V27.7c0-.52-.16-1.13-1.2-1.13-.93 0-1.1.47-1.2.94h-1.1c.08-.89.61-1.84 2.33-1.84 1.47.01 2.29.62 2.29 2.02Z"/><path clip-path="url(#b)" d="M239.94 30.14c0 .59.01 1.38.01 1.78h-1.11c-.02-.16-.03-.52-.04-.88-.3.66-.86 1.02-1.76 1.02-1.04 0-1.96-.56-1.96-2.24V25.81h1.14v3.76c0 .78.24 1.48 1.16 1.48 1.02 0 1.42-.58 1.42-2.05v-3.2h1.14Z"/><path clip-path="url(#b)" d="M241.75 27.35c0-.53 0-1.07-.01-1.54h1.11c.03.18.04.78.04.96.23-.5.71-1.1 1.83-1.1s1.97.73 1.97 2.33v3.92h-1.14V28.14c0-.88-.33-1.47-1.19-1.47-1.03 0-1.47.78-1.47 1.98v3.26h-1.14Z"/><path clip-path="url(#b)" d="M253.26 30.03c-.24 1.04-.93 2.03-2.49 2.03-1.67 0-2.67-1.23-2.67-3.16 0-1.74.97-3.23 2.74-3.23s2.35 1.3 2.41 2.07h-1.13c-.14-.6-.49-1.1-1.31-1.1-.99 0-1.55.88-1.55 2.22 0 1.37.55 2.24 1.52 2.24.71 0 1.11-.39 1.33-1.07Z"/><path clip-path="url(#b)" d="M255.7 23.12v3.56c.29-.51.82-1.01 1.82-1.01.98 0 1.99.56 1.99 2.35v3.9h-1.14V28.2c0-.99-.4-1.54-1.22-1.54-1.03 0-1.45.72-1.45 1.93v3.32h-1.14v-8.8Z"/><path clip-path="url(#b)" d="M265.05 28.29c-.01-.95-.46-1.71-1.43-1.71-.99 0-1.42.71-1.52 1.71Zm-2.98.8c.01 1.15.57 2.01 1.54 2.01.89 0 1.17-.46 1.35-.89h1.15c-.23.78-.87 1.85-2.53 1.85-1.88 0-2.66-1.55-2.66-3.13 0-1.83.9-3.27 2.72-3.27 1.93 0 2.57 1.57 2.57 2.91 0 .19 0 .34-.02.51Z"/><path clip-path="url(#b)" d="M268.3 30.15c.16.63.62 1 1.39 1 .82 0 1.14-.36 1.14-.88 0-.54-.27-.78-1.34-1.05-1.74-.44-2.08-.99-2.08-1.82 0-.87.61-1.74 2.19-1.74s2.2.93 2.27 1.78h-1.1c-.08-.36-.34-.89-1.22-.89-.77 0-1.01.38-1.01.75 0 .43.23.64 1.29.9 1.83.44 2.17 1.08 2.17 1.98 0 1.06-.81 1.87-2.34 1.87-1.59 0-2.33-.82-2.48-1.91Z"/><path clip-path="url(#b)" d="M276.59 30.28h.77v1.64h-.77Zm0-4.38h.77v1.63h-.77Z"/><path clip-path="url(#b)" d="M286.47 29.27c0-.93-.35-1.98-1.62-1.98-1.02 0-1.77.69-1.77 1.99 0 .66.33 2.08 1.73 2.08 1.21 0 1.67-1.03 1.67-2.08m-.22-3.6c-.17-.64-.58-1.09-1.4-1.09-1.39 0-1.86 1.34-1.9 3.23.31-.61.89-1.23 2.02-1.23 1.51 0 2.33 1.12 2.33 2.63s-.83 2.85-2.5 2.85c-2.07 0-2.64-1.76-2.64-3.98s.68-4.2 2.72-4.2c1.52 0 2.06 1.04 2.17 1.79Z"/><path clip-path="url(#b)" d="M288.62 29.22h4.74v-.74h-4.74Z" fill-rule="evenodd"/><path clip-path="url(#b)" d="M295.84 25.93c0 .72.43 1.35 1.5 1.35 1 0 1.43-.52 1.43-1.31 0-.73-.44-1.38-1.45-1.38-1.07 0-1.48.57-1.48 1.34m3.22 3.74c0-1.08-.66-1.67-1.76-1.67-1.23 0-1.77.73-1.77 1.67 0 .95.63 1.69 1.77 1.69 1.04 0 1.77-.59 1.77-1.69m-4.35.03c0-1.15.74-1.81 1.44-2.07-.7-.32-1.1-.9-1.1-1.68 0-1.18.79-2.06 2.31-2.06 1.39 0 2.22.88 2.22 2.05 0 .82-.44 1.41-1.1 1.66.79.25 1.41 1.02 1.41 2.08 0 1.46-1.08 2.39-2.62 2.39-1.45 0-2.55-.93-2.55-2.36"/><path clip-path="url(#b)" d="M304.78 25.88c.8 2.98 1.27 4.69 1.36 5.27h.01c.1-.52.61-2.24 1.48-5.27h.79c1.01 3.59 1.31 4.62 1.41 5.13h.01c.16-.65.41-1.56 1.41-5.13h.8l-1.83 6.04h-.85c-.6-2.17-1.27-4.52-1.39-5.12h-.01c-.11.62-.71 2.64-1.43 5.12h-.9l-1.71-6.04Z"/><path clip-path="url(#b)" d="M317.09 28.4c-.01-1.1-.58-1.98-1.66-1.98-1.12 0-1.63.81-1.75 1.98Zm-3.44.62c.01 1.41.7 2.33 1.76 2.33 1.02 0 1.36-.57 1.56-1.04h.79c-.24.79-.86 1.75-2.38 1.75-1.81 0-2.52-1.56-2.52-3.11 0-1.76.85-3.22 2.59-3.22 1.84 0 2.44 1.59 2.44 2.79 0 .17 0 .34-.01.5Z"/><path clip-path="url(#b)" d="M323.22 28.4c-.01-1.1-.58-1.98-1.66-1.98-1.12 0-1.63.81-1.75 1.98Zm-3.44.62c.01 1.41.7 2.33 1.76 2.33 1.02 0 1.36-.57 1.56-1.04h.79c-.24.79-.86 1.75-2.38 1.75-1.81 0-2.52-1.56-2.52-3.11 0-1.76.85-3.22 2.59-3.22 1.84 0 2.44 1.59 2.44 2.79 0 .17 0 .34-.01.5Z"/><path clip-path="url(#b)" d="M326.32 28.89c.52-.59 1.99-2.16 2.78-3.01h.96l-2.26 2.38 2.54 3.66h-.93l-2.15-3.14-.93.93v2.22h-.78V23.09h.78Z"/><path clip-path="url(#b)" d="M331.71 30.22c.18.73.69 1.16 1.56 1.16.96 0 1.34-.44 1.34-1.06 0-.63-.28-.94-1.5-1.24-1.58-.39-1.95-.89-1.95-1.7 0-.84.61-1.65 2.01-1.65s2.03.86 2.12 1.71h-.76c-.1-.46-.44-1.04-1.39-1.04-.93 0-1.2.47-1.2.91 0 .51.26.76 1.38 1.04 1.71.42 2.09 1 2.09 1.9 0 1.08-.84 1.8-2.17 1.8-1.42 0-2.16-.75-2.32-1.84Z"/><path clip-path="url(#b)" d="M339.66 32.53l3.27-9.1h.74l-3.27 9.1Z"/><path clip-path="url(#b)" d="M344.9 32.53l3.27-9.1h.74l-3.27 9.1Z"/><path clip-path="url(#b)" d="M354.92 27.28h1.7c1.18 0 1.69-.46 1.69-1.35 0-.85-.53-1.32-1.59-1.32h-1.81Zm0 1.03v3.61h-1.18V23.59h3.23c1.68 0 2.58.94 2.58 2.24 0 1.09-.6 1.74-1.34 1.96.61.18 1.19.67 1.19 2.12v.37c0 .57-.02 1.28.11 1.64h-1.16c-.15-.36-.14-1-.14-1.81v-.17c0-1.13-.3-1.63-1.73-1.63Z"/><path clip-path="url(#b)" d="M361.92 28.86c0 1.31.62 2.23 1.63 2.23 1.03 0 1.61-.88 1.61-2.22 0-1.36-.58-2.24-1.63-2.24-1.04 0-1.61.86-1.61 2.23m4.4-.01c0 1.78-1 3.21-2.82 3.21-1.72 0-2.76-1.35-2.76-3.19 0-1.82 1.03-3.21 2.83-3.21 1.66 0 2.75 1.27 2.75 3.18"/><path clip-path="url(#b)" d="M371.1 28.98h-.9c-1.14 0-1.72.33-1.72 1.14 0 .6.39 1.04 1.09 1.04 1.35 0 1.53-.94 1.53-1.99Zm1.11 1.56c0 .56.05 1.21.08 1.38h-1.09c-.05-.13-.08-.43-.09-.76-.21.39-.67.9-1.8.9-1.4 0-2-.94-2-1.88 0-1.37 1.05-1.99 2.8-1.99h.98V27.7c0-.52-.16-1.13-1.2-1.13-.93 0-1.1.47-1.2.94h-1.1c.08-.89.61-1.84 2.33-1.84 1.47.01 2.29.62 2.29 2.02Z"/><path clip-path="url(#b)" d="M374.8 28.89c0 1.42.64 2.19 1.54 2.19 1.33 0 1.6-1.04 1.6-2.29 0-1.3-.25-2.14-1.53-2.14-1.01 0-1.61.82-1.61 2.24m4.24-5.77V30.2c0 .57 0 1.13.01 1.72h-1.1c-.03-.17-.05-.6-.05-.82-.29.61-.87.97-1.83.97-1.52 0-2.46-1.27-2.46-3.14s1.01-3.26 2.65-3.26c1.01 0 1.47.41 1.63.74V23.12Z"/><path clip-path="url(#b)" d="M381.42 30.15c.16.63.62 1 1.39 1 .82 0 1.13-.36 1.13-.88 0-.54-.27-.78-1.34-1.05-1.74-.44-2.08-.99-2.08-1.82 0-.87.61-1.74 2.19-1.74s2.2.93 2.27 1.78h-1.1c-.08-.36-.34-.89-1.22-.89-.77 0-1.01.38-1.01.75 0 .43.23.64 1.29.9 1.83.44 2.17 1.08 2.17 1.98 0 1.06-.81 1.87-2.34 1.87-1.59 0-2.33-.82-2.48-1.91Z"/><path clip-path="url(#b)" d="M387.55 23.12v3.56c.29-.51.82-1.01 1.82-1.01.98 0 1.99.56 1.99 2.35v3.9h-1.14V28.2c0-.99-.4-1.54-1.22-1.54-1.03 0-1.45.72-1.45 1.93v3.32h-1.14v-8.8Z"/><path clip-path="url(#b)" d="M393.94 28.86c0 1.31.62 2.23 1.63 2.23 1.03 0 1.61-.88 1.61-2.22 0-1.36-.58-2.24-1.63-2.24-1.04 0-1.6.86-1.6 2.23m4.4-.01c0 1.78-1 3.21-2.82 3.21-1.72 0-2.76-1.35-2.76-3.19 0-1.82 1.02-3.21 2.83-3.21 1.66 0 2.75 1.27 2.75 3.18"/><path clip-path="url(#b)" d="M400.31 25.81c.7 2.78 1.09 4.37 1.19 5.03h.02c.11-.59.48-2 1.3-5.03h1.1c.88 3.37 1.14 4.35 1.23 4.92h.01c.14-.65.37-1.56 1.25-4.92h1.15l-1.81 6.1h-1.23c-.56-2.24-1.07-4.14-1.2-4.83h-.01c-.1.69-.59 2.45-1.23 4.83h-1.26l-1.71-6.1Z"/><path clip-path="url(#b)" d="M409.36 30.15c.16.63.62 1 1.39 1 .82 0 1.14-.36 1.14-.88 0-.54-.27-.78-1.34-1.05-1.74-.44-2.08-.99-2.08-1.82 0-.87.61-1.74 2.19-1.74s2.2.93 2.27 1.78h-1.1c-.08-.36-.34-.89-1.22-.89-.77 0-1.01.38-1.01.75 0 .43.23.64 1.29.9 1.83.44 2.17 1.08 2.17 1.98 0 1.06-.81 1.87-2.34 1.87-1.58 0-2.33-.82-2.48-1.91Z"/><path clip-path="url(#b)" d="M417.66 30.28h.77v1.64h-.77Zm0-4.38h.77v1.63h-.77Z"/><path clip-path="url(#b)" d="M423.45 25.85c.12-.97.8-1.96 2.32-1.96s2.22.98 2.22 2.01c0 .97-.56 1.47-1.05 1.64v.03c.76.24 1.39.86 1.39 2.02 0 1.3-.79 2.47-2.58 2.47-1.65 0-2.41-1.09-2.54-2.14H424c.17.75.74 1.43 1.8 1.43 1.21 0 1.7-.84 1.7-1.75 0-1.16-.72-1.65-1.81-1.65h-.5v-.69h.41c1.09 0 1.57-.46 1.57-1.34 0-.78-.51-1.31-1.43-1.31-.97 0-1.36.53-1.53 1.25Z"/><path clip-path="url(#b)" d="M429.78 29.22h4.74v-.74h-4.74Z" fill-rule="evenodd"/><path clip-path="url(#b)" d="M440.22 29.27c0-.93-.35-1.98-1.62-1.98-1.02 0-1.77.69-1.77 1.99 0 .66.33 2.08 1.73 2.08 1.21 0 1.67-1.03 1.67-2.08m-.22-3.6c-.17-.64-.58-1.09-1.4-1.09-1.39 0-1.86 1.34-1.9 3.23.3-.61.89-1.23 2.02-1.23 1.51 0 2.33 1.12 2.33 2.63s-.83 2.85-2.5 2.85c-2.07 0-2.64-1.76-2.64-3.98s.68-4.2 2.72-4.2c1.52 0 2.06 1.04 2.17 1.79Z"/><path clip-path="url(#b)" d="M445.71 27.44c0-.52 0-1.08-.01-1.56h.76c.01.19.04.68.03 1.01.26-.57.78-1.15 1.73-1.15.82 0 1.43.43 1.66 1.14.3-.6.87-1.14 1.89-1.14.92 0 1.84.55 1.84 2.21v3.97h-.77V28.04c0-.76-.27-1.58-1.27-1.58-1.05 0-1.52.85-1.52 1.98v3.47h-.76V28.07c0-.83-.24-1.6-1.24-1.6-1.04 0-1.55.92-1.55 2.12v3.33h-.77Z"/><path clip-path="url(#b)" d="M455.92 28.9c0 1.38.7 2.45 1.85 2.45 1.17 0 1.84-1 1.84-2.45 0-1.39-.66-2.46-1.86-2.46-1.22 0-1.83 1.04-1.83 2.46m4.5-.01c0 1.7-.93 3.17-2.69 3.17-1.62 0-2.62-1.34-2.62-3.16 0-1.75.96-3.17 2.68-3.17 1.59 0 2.63 1.26 2.63 3.15"/><path clip-path="url(#b)" d="M461.92 27.4c0-.53 0-1.05-.01-1.52h.76c.02.19.04.9.03 1.08.25-.57.72-1.22 1.9-1.22 1.07 0 1.96.64 1.96 2.28v3.9h-.78V28.13c0-1-.39-1.66-1.35-1.66-1.26 0-1.72 1.05-1.72 2.32v3.13h-.78Z"/><path clip-path="url(#b)" d="M467.63 25.88h1.05V24.04h.78v1.84h1.35v.7h-1.35v3.75c0 .64.14.98.69.98.16 0 .39-.01.56-.06v.65c-.22.09-.53.11-.79.11-.82 0-1.23-.43-1.23-1.41V26.58h-1.05Z"/><path clip-path="url(#b)" d="M472.81 23.09v3.75c.31-.58.87-1.1 1.88-1.1.88 0 1.97.48 1.97 2.33v3.84h-.78v-3.7c0-1.12-.48-1.75-1.4-1.75-1.11 0-1.68.73-1.68 2.11v3.34h-.78V23.09Z"/><path clip-path="url(#b)" d="M478.78 30.22c.18.73.69 1.16 1.56 1.16.96 0 1.34-.44 1.34-1.06 0-.63-.28-.94-1.5-1.24-1.58-.39-1.95-.89-1.95-1.7 0-.84.61-1.65 2.01-1.65s2.03.86 2.12 1.71h-.76c-.1-.46-.44-1.04-1.39-1.04-.93 0-1.2.47-1.2.91 0 .51.26.76 1.38 1.04 1.71.42 2.09 1 2.09 1.9 0 1.08-.84 1.8-2.17 1.8-1.42 0-2.16-.75-2.32-1.84Z"/></g></g></svg>