<?xml version="1.0" encoding="UTF-8"?><!DOCTYPE svg PUBLIC "-//W3C//DTD SVG 1.0//EN" "http://www.w3.org/TR/2001/REC-SVG-20010904/DTD/svg10.dtd" []><svg xmlns="http://www.w3.org/2000/svg" xmlns:xlink="http://www.w3.org/1999/xlink" height="36" stroke="#000" stroke-linecap="square" stroke-miterlimit="10" viewBox="0 0 211.12 35.91" width="211"><defs><clipPath id="a"><path d="M0 0V35.91H211.12V0Z"/></clipPath><clipPath clip-path="url(#a)" id="b"><path d="M-483.91 284.49H476.21v-540H-483.91Z"/></clipPath></defs><g><g fill="#fff" stroke="none"><path clip-path="url(#b)" d="M7.02 23.77c.73 3.33 2.88 5.29 6.86 5.29 4.43 0 6.12-2.28 6.12-4.99 0-2.83-1.22-4.57-6.56-5.93-5.19-1.34-7.41-3.08-7.41-6.71C6.04 8.09 8.39 5 13.63 5c5.39 0 7.66 3.39 7.98 6.46H19.59c-.55-2.67-2.24-4.61-6.06-4.61-3.49 0-5.39 1.67-5.39 4.46 0 2.75 1.59 3.82 6.08 4.97 6.87 1.76 7.89 4.6 7.89 7.64 0 3.73-2.63 6.93-8.29 6.93-6.1 0-8.35-3.66-8.81-7.07Z"/><path clip-path="url(#b)" d="M28.5 17.85c0 5.77 3.08 11.21 8.9 11.21 6.27 0 8.9-5.3 8.9-11.24 0-5.84-2.97-10.96-8.84-10.96-6.23 0-8.97 5.32-8.97 10.99m19.9-.07c0 6.88-3.57 13.13-11.1 13.13-6.88 0-10.89-5.72-10.89-12.96C26.41 10.82 30.29 5 37.55 5c6.7 0 10.86 5.43 10.86 12.78"/><path clip-path="url(#b)" d="M75.19 19.01c0-4.92.04-9.63.14-12.16h-.11c-.98 3.42-5.88 15.75-8.96 23.7h-1.9c-2.32-6.17-7.39-19.89-8.51-23.73h-.07c.18 2.88.25 8.73.25 13.05V30.55H54.08V5.36h2.93c3.32 8.59 7.49 19.83 8.39 22.69h.07c.56-1.87 5.39-14.34 8.78-22.69h2.89V30.55H75.19Z"/><path clip-path="url(#b)" d="M99.03 18.2H86.61V28.69h13.61l-.29 1.86H84.66V5.36h15V7.21H86.61v9.13H99.03Z"/><path clip-path="url(#b)" d="M111.5 7.21h-8.17V5.36h18.37V7.21h-8.21V30.55H111.5Z"/><path clip-path="url(#b)" d="M125.65 5.36h1.95V16.31h14.54V5.36h1.96V30.55h-1.96V18.17H127.61V30.55h-1.95Z"/><path clip-path="url(#b)" d="M151.59 30.55h1.95V5.36h-1.95Z" fill-rule="evenodd"/><path clip-path="url(#b)" d="M161.04 30.55V5.36h2.87c3.78 6.04 12.64 20.02 14.16 22.76h.04c-.21-3.61-.18-7.33-.18-11.44V5.36h1.98V30.55h-2.66c-3.6-5.81-12.61-20.39-14.34-23.17h-.04c.17 3.29.14 6.99.14 11.56V30.55Z"/><path clip-path="url(#b)" d="M205.92 30.55H204.3c-.14-.3-.21-1.58-.25-4-.88 1.73-2.81 4.29-7.86 4.29-7.01 0-10.6-5.51-10.6-12.67 0-7.52 3.84-13.17 11-13.17 5.28 0 8.77 2.86 9.54 7.49h-1.95c-1.03-3.52-3.42-5.64-7.65-5.64-6.08 0-8.84 4.88-8.84 11.21 0 5.73 2.66 10.93 8.6 10.93 6.07 0 7.75-4.08 7.75-9.59v-.29h-7.82V17.25h9.71Z"/></g></g></svg>