<?xml version="1.0" encoding="UTF-8"?><!DOCTYPE svg PUBLIC "-//W3C//DTD SVG 1.0//EN" "http://www.w3.org/TR/2001/REC-SVG-20010904/DTD/svg10.dtd" []><svg xmlns="http://www.w3.org/2000/svg" xmlns:xlink="http://www.w3.org/1999/xlink" height="23" stroke="#000" stroke-linecap="square" stroke-miterlimit="10" viewBox="0 0 212.08 23.48" width="212"><defs><clipPath id="a"><path d="M0 0V23.48H212.08V0Z"/></clipPath><clipPath clip-path="url(#a)" id="b"><path d="M-220.13 359.02H739.99V-181.1H-220.13Z"/></clipPath></defs><g><g fill="#FF00A4" stroke="none"><path clip-path="url(#b)" d="M5.99 11.87H9.33c1.95 0 2.77-1.07 2.77-2.64 0-1.68-1.08-2.63-2.7-2.63H5.99ZM5 5.67H9.37c2.24 0 3.78 1.28 3.78 3.52 0 2.28-1.53 3.61-3.9 3.61H5.99v5.47H5Z"/><path clip-path="url(#b)" d="M15.2 11.71c0-1.5-.02-2.15-.02-2.45h.89c.02.29.04.87.04 2.01.5-1.34 1.61-2.15 3.03-2.23v1.01c-1.81.12-3.03 1.4-3.03 3.55v4.67H15.2Z"/><path clip-path="url(#b)" d="M21.18 13.76c0 2.14 1.11 3.85 2.94 3.85 1.87 0 2.92-1.59 2.92-3.85 0-2.12-1.04-3.85-2.96-3.85-1.97 0-2.9 1.69-2.9 3.85M28 13.74c0 2.51-1.35 4.74-3.95 4.74-2.36 0-3.83-2-3.83-4.72 0-2.58 1.38-4.72 3.92-4.72 2.32 0 3.86 1.87 3.86 4.7"/><path clip-path="url(#b)" d="M30.7 13.83c0 2.45 1.23 3.78 2.72 3.78 2.29 0 2.9-1.63 2.9-4.06 0-2.31-.53-3.64-2.75-3.64-1.72 0-2.87 1.41-2.87 3.92M37.19 5V15.67c0 .86 0 1.69.02 2.59h-.87c-.04-.22-.05-1.06-.05-1.5-.44 1.09-1.41 1.72-2.92 1.72-2.27 0-3.63-1.91-3.63-4.61 0-2.77 1.48-4.83 3.86-4.83 1.73 0 2.43.77 2.69 1.34V5Z"/><path clip-path="url(#b)" d="M46.76 15.64c0 .88.02 2.28.02 2.63h-.87c-.04-.23-.05-.83-.05-1.56-.37 1.06-1.26 1.77-2.8 1.77-1.27 0-2.86-.52-2.86-3.26V9.26h.89V15c0 1.31.4 2.58 2.11 2.58 1.93 0 2.66-1.12 2.66-3.68V9.26h.91Z"/><path clip-path="url(#b)" d="M56.22 15.61c-.42 1.58-1.43 2.87-3.4 2.87-2.19 0-3.74-1.68-3.74-4.68 0-2.47 1.28-4.76 3.85-4.76 2.23 0 3.14 1.63 3.29 2.89H55.3c-.26-1.04-.91-2.02-2.39-2.02-1.83 0-2.87 1.61-2.87 3.85 0 2.14.97 3.85 2.78 3.85 1.26 0 2.02-.66 2.47-2Z"/><path clip-path="url(#b)" d="M57.32 9.26h1.62V6.45h.91v2.8h2.07v.87H59.84v5.82c0 1 .21 1.57 1.04 1.57.26 0 .62-.02.9-.11v.81c-.3.13-.73.16-1.09.16-1.13 0-1.76-.58-1.76-2.03V10.13H57.32Z"/><path clip-path="url(#b)" d="M78.8 10.17l-3.04 4.85c-1.48 2.35-2.54 3.42-4.51 3.42-2 0-3.17-1.64-3.17-3.21 0-1.54.69-2.7 3.26-4.14 1.77-1.17 2.44-1.68 2.44-2.83 0-.98-.6-1.93-1.76-1.93-1.09 0-1.85.7-1.85 2 0 .81.54 1.56 1.58 2.58l7.22 7.35H77.62l-6.58-6.71c-1.12-1.11-1.79-1.94-1.79-3.21 0-1.43.93-2.86 2.8-2.86 1.58 0 2.66 1.23 2.66 2.78 0 1.23-.66 2.03-2.8 3.39-2.44 1.42-2.86 2.31-2.86 3.5 0 1.29 1.07 2.38 2.2 2.38 1.41 0 2.34-.51 3.91-3.09l2.59-4.27Z"/><path clip-path="url(#b)" d="M87.24 17.34h3.41c1.6 0 2.93-.82 2.93-2.66 0-1.59-.99-2.68-3.42-2.68H87.24Zm3-6.27c2.09 0 2.88-.8 2.88-2.25 0-1.23-.83-2.23-2.53-2.23H87.24v4.48ZM86.28 5.67h4.27c2.35 0 3.6 1.29 3.6 3.1 0 1.49-.87 2.46-1.88 2.75.87.25 2.31 1.14 2.31 3.11 0 2.51-1.83 3.64-3.96 3.64H86.28Z"/><path clip-path="url(#b)" d="M97.05 11.71c0-1.5-.02-2.15-.02-2.45h.89c.02.29.04.87.04 2.01.5-1.34 1.61-2.15 3.03-2.23v1.01c-1.81.12-3.03 1.4-3.03 3.55v4.67h-.91Z"/><path clip-path="url(#b)" d="M107.73 13.68h-1.69c-1.92 0-3.11.52-3.11 2.06 0 1.12.78 1.89 1.99 1.89 2.47 0 2.82-1.7 2.82-3.63Zm.89 2.86c0 .79.07 1.44.12 1.73h-.87c-.07-.21-.12-.61-.16-1.38-.3.66-1.06 1.59-2.85 1.59-2.03 0-2.9-1.35-2.9-2.71 0-1.98 1.48-2.89 4.1-2.89h1.65v-.91c0-.89-.26-2.09-2.23-2.09-1.74 0-2.01.94-2.2 1.68h-.9c.11-1.01.71-2.53 3.12-2.53 2 0 3.12.87 3.12 2.85Z"/><path clip-path="url(#b)" d="M111.66 11.53c0-.79 0-1.55-.02-2.27h.89c.04.29.05 1.45.04 1.7.38-.91 1.1-1.92 2.89-1.92 1.56 0 2.93.91 2.93 3.39v5.84h-.91V12.58c0-1.59-.64-2.63-2.15-2.63-2.05 0-2.76 1.76-2.76 3.71v4.6h-.91Z"/><path clip-path="url(#b)" d="M121.67 13.83c0 2.45 1.23 3.78 2.72 3.78 2.29 0 2.9-1.63 2.9-4.06 0-2.31-.53-3.64-2.75-3.64-1.72 0-2.87 1.41-2.87 3.92M128.16 5V15.67c0 .86 0 1.69.02 2.59h-.87c-.04-.22-.05-1.06-.05-1.5-.44 1.09-1.41 1.72-2.92 1.72-2.27 0-3.63-1.91-3.63-4.61 0-2.77 1.48-4.83 3.86-4.83 1.73 0 2.43.77 2.69 1.34V5Z"/><path clip-path="url(#b)" d="M136.17 5.67h.98V17.34h6.54l-.18.93h-7.34Z"/><path clip-path="url(#b)" d="M150.81 13.68h-1.69c-1.93 0-3.11.52-3.11 2.06 0 1.12.78 1.89 1.99 1.89 2.47 0 2.82-1.7 2.82-3.63Zm.89 2.86c0 .79.07 1.44.12 1.73h-.87c-.07-.21-.12-.61-.16-1.38-.3.66-1.06 1.59-2.85 1.59-2.02 0-2.9-1.35-2.9-2.71 0-1.98 1.49-2.89 4.1-2.89h1.65v-.91c0-.89-.26-2.09-2.23-2.09-1.74 0-2.01.94-2.2 1.68h-.9c.11-1.01.71-2.53 3.12-2.53 2 0 3.12.87 3.12 2.85Z"/><path clip-path="url(#b)" d="M161.18 15.64c0 .88.02 2.28.02 2.63h-.87c-.03-.23-.05-.83-.05-1.56-.37 1.06-1.26 1.77-2.8 1.77-1.27 0-2.86-.52-2.86-3.26V9.26h.89V15c0 1.31.4 2.58 2.11 2.58 1.93 0 2.66-1.12 2.66-3.68V9.26h.91Z"/><path clip-path="url(#b)" d="M164.2 11.53c0-.79 0-1.55-.02-2.27h.89c.04.29.05 1.45.04 1.7.38-.91 1.1-1.92 2.89-1.92 1.56 0 2.93.91 2.93 3.39v5.84h-.91V12.58c0-1.59-.64-2.63-2.14-2.63-2.05 0-2.76 1.76-2.76 3.71v4.6h-.91Z"/><path clip-path="url(#b)" d="M180.38 15.61c-.42 1.58-1.43 2.87-3.4 2.87-2.19 0-3.74-1.68-3.74-4.68 0-2.47 1.28-4.76 3.85-4.76 2.23 0 3.14 1.63 3.29 2.89h-.92c-.26-1.04-.92-2.02-2.39-2.02-1.83 0-2.87 1.61-2.87 3.85 0 2.14.97 3.85 2.78 3.85 1.26 0 2.02-.66 2.47-2Z"/><path clip-path="url(#b)" d="M183.47 5v5.76c.48-.93 1.34-1.72 2.87-1.72 1.25 0 2.95.66 2.95 3.49v5.73h-.91V12.72c0-1.77-.78-2.77-2.21-2.77-1.72 0-2.69 1.1-2.69 3.3v5.02h-.91V5Z"/><path clip-path="url(#b)" d="M198.02 13.07c-.02-1.77-.95-3.16-2.65-3.16-1.78 0-2.59 1.29-2.78 3.16Zm-5.48.81c.02 2.3 1.14 3.73 2.8 3.73 1.62 0 2.18-.94 2.49-1.68h.92c-.36 1.19-1.29 2.55-3.45 2.55-2.65 0-3.69-2.36-3.69-4.65 0-2.58 1.24-4.8 3.79-4.8 2.69 0 3.55 2.39 3.55 4.1 0 .25 0 .5-.02.74Z"/><path clip-path="url(#b)" d="M201.5 15.77c.29 1.16 1.09 1.86 2.46 1.86 1.54 0 2.16-.73 2.16-1.73 0-1.02-.42-1.52-2.35-2-2.26-.56-2.82-1.27-2.82-2.46 0-1.25.91-2.4 2.89-2.4s2.93 1.25 3.06 2.53H206c-.15-.75-.72-1.68-2.2-1.68-1.5 0-1.93.77-1.93 1.48 0 .82.41 1.23 2.13 1.66 2.47.61 3.08 1.45 3.08 2.8 0 1.64-1.29 2.65-3.14 2.65-2 0-3.12-1.09-3.36-2.71Z"/></g></g></svg>