<?xml version="1.0" encoding="UTF-8"?><!DOCTYPE svg PUBLIC "-//W3C//DTD SVG 1.0//EN" "http://www.w3.org/TR/2001/REC-SVG-20010904/DTD/svg10.dtd" []><svg xmlns="http://www.w3.org/2000/svg" xmlns:xlink="http://www.w3.org/1999/xlink" height="29" stroke="#000" stroke-linecap="square" stroke-miterlimit="10" viewBox="0 0 157.51 29.22" width="158"><g><g fill="#fff" stroke="none" stroke-linecap="butt"><path d="M13.42 12.53c-.59.59-1.31.88-2.14.88h-.88c-.84 0-1.56-.3-2.14-.89s-.89-1.31-.89-2.14.29-1.56.88-2.14 1.32-.89 2.16-.89h.88c.85 0 1.57.3 2.16.88s.88 1.31.88 2.15-.3 1.56-.89 2.15m1.67-5.95C14.02 5.51 12.78 5 11.27 5h-.88c-1.51 0-2.75.51-3.81 1.57S5 8.88 5 10.38s.52 2.75 1.58 3.81 2.31 1.58 3.81 1.58h.88c1.51 0 2.75-.52 3.81-1.58s1.57-2.31 1.57-3.81-.51-2.75-1.57-3.81"/><path d="M20.41 10.3V7.82h2.41c.34 0 .64.13.88.36s.36.54.36.87-.12.64-.36.88-.54.36-.88.36Zm6.8 5.47V13.41H23.13l1.49-.83c.7-.39 1.27-.91 1.7-1.55.43-.65.64-1.36.64-2.14 0-1.08-.37-1.97-1.13-2.74S24.18 5.01 23.11 5H18.05V15.77h2.36V13l2.55 2.77Z"/><path d="M29.59 14.19c1.06 1.06 2.31 1.58 3.81 1.58h4.08V13.41H33.4c-.84 0-1.56-.3-2.15-.88s-.89-1.31-.89-2.14.29-1.56.88-2.14 1.32-.89 2.16-.89h4.08V5H33.4c-1.51 0-2.75.51-3.81 1.57s-1.58 2.3-1.58 3.8.52 2.75 1.58 3.81"/><path d="M48.43 15.77V5H46.08V9.2H41.74V5H39.38V15.77h2.36v-4.2h4.35v4.2Z"/><path d="M50.38 15.77h2.36V5H50.38Z" fill-rule="evenodd"/><path d="M61.54 12.53c-.59.59-1.31.88-2.14.88H57.1V7.35h2.3c.85 0 1.57.3 2.16.88s.88 1.31.88 2.15-.3 1.56-.89 2.15M63.2 6.58C62.14 5.51 60.9 5 59.4 5H54.74V15.77H59.4c1.5 0 2.74-.52 3.8-1.58s1.58-2.31 1.58-3.81-.52-2.75-1.58-3.8"/><path d="M74.55 7.86l1.74 4.6H72.81Zm2.55 6.75l.44 1.15h2.78L76.2 5h-3.3L68.63 15.77h2.93l.43-1.15Z"/><path d="M88.95 11.97c-3.7-3.85-3.72-3.87-3.75-3.9l-.59-.72h5.25V5H84.62c-.64 0-1.17.24-1.63.73s-.69 1.06-.69 1.74c0 .54.14.96.41 1.3l4.45 4.64H81.52v2.36h5.54c.64 0 1.17-.24 1.63-.73s.69-1.07.69-1.74c0-.47-.14-.9-.43-1.33"/><path d="M98.07 11.97c-3.7-3.85-3.72-3.87-3.75-3.9l-.59-.72h5.25V5H93.74c-.64 0-1.17.24-1.63.73s-.69 1.06-.69 1.74c0 .54.14.96.41 1.3l4.45 4.64H90.64v2.36h5.54c.64 0 1.17-.24 1.63-.73s.69-1.07.69-1.74c0-.47-.14-.9-.43-1.33"/><path d="M108.37 7.35V5h-7.56V15.77h7.56V13.41h-5.2V11.56h5.2V9.2h-5.2V7.35Z"/><path d="M119.85 9.54v6.22h2.36V5h-3.32l-2.59 5.84L113.27 5h-2.93V15.77h2.36V9.54l3.57 5.78Z"/><path d="M130.13 13.41h-3.58V11.43h3.58c.3 0 .57.15.74.41.11.16.18.36.18.57 0 .26-.09.49-.26.68s-.4.31-.66.31m-3.58-6.08h3.58c.26 0 .5.11.67.32.16.18.25.41.25.67 0 .24-.07.46-.21.64-.18.23-.43.35-.71.35h-3.58Zm6.33 7.46c.59-.66.87-1.44.87-2.37 0-.78-.15-1.41-.43-1.89l-.13-.22.12-.22c.29-.54.44-1.13.44-1.77 0-1.32-.42-2.21-1.29-2.72-.68-.4-1.76-.6-3.22-.6h-5.06V15.77h6.67c.8-.01 1.46-.33 2.03-.98"/><path d="M135.81 5V15.77h7.96V13.41h-5.6V5Z"/><path d="M149.77 5l-2.65 4.4L144.49 5h-2.74l4.2 7.02v3.75h2.36V12.02l.33-.55L152.51 5Z"/><path d="M5.64 24.13l.63-4.46h.65l-.63 4.46Z"/><path d="M7.29 24.13l.63-4.46h.95l.85 3.43H9.6l1.8-3.43h.96l-.63 4.46h-.65l.53-3.71.05.01-1.77 3.31H9.25l-.85-3.31.05-.01-.52 3.71Z"/><path d="M12.73 24.13l.63-4.46h.95l.85 3.43h-.12l1.8-3.43h.96l-.63 4.46h-.65l.52-3.71.05.01-1.77 3.31h-.64l-.85-3.31.05-.01-.52 3.71Z"/><path d="M18.17 24.13l.63-4.46h2.95l-.08.58h-2.3l-.18 1.31h2.1l-.08.58H19.1l-.2 1.41h2.3l-.08.58Z"/><path d="M24.43 24.13l-.88-1.98.65-.08.95 2.07Zm-1.49-2.48h.64c.32 0 .58-.07.76-.22s.28-.36.28-.63c0-.2-.07-.34-.22-.42s-.34-.12-.59-.12h-.68Zm-1 2.48l.63-4.46h1.35c.46 0 .8.09 1.02.28s.34.45.34.78c0 .25-.05.48-.14.69s-.25.39-.46.54-.48.23-.81.27H22.85l-.27 1.91Z"/><path d="M27.2 24.21c-.3 0-.57-.05-.8-.17s-.42-.27-.55-.46-.2-.43-.21-.7l.65-.13c.01.29.1.51.29.66s.4.21.67.21c.19 0 .35-.03.48-.1s.24-.15.31-.27.11-.24.11-.38-.03-.26-.1-.35-.16-.17-.28-.24-.27-.14-.43-.2c-.25-.11-.46-.22-.62-.33s-.29-.25-.37-.4-.12-.31-.12-.49c0-.23.06-.44.17-.63s.28-.35.49-.46.46-.18.74-.18c.3 0 .57.07.81.21s.4.34.51.59l-.55.28c-.07-.17-.17-.3-.31-.38s-.29-.12-.46-.12c-.15 0-.28.03-.39.09s-.2.14-.26.24-.09.21-.09.34.03.22.09.3.15.15.27.22.27.13.45.2c.25.1.45.21.62.33s.29.26.38.41.12.33.12.54c0 .27-.07.51-.2.72s-.33.37-.56.49-.52.17-.83.17"/><path d="M29.39 24.13l.63-4.46h.65l-.63 4.46Z"/><path d="M32.44 24.13l-1.16-4.46h.7l.9 3.67h-.2l1.91-3.67h.73l-2.4 4.46Z"/><path d="M35.3 24.13l.63-4.46h2.95l-.08.58h-2.3l-.18 1.31h2.1l-.08.58h-2.1l-.2 1.41h2.3l-.08.58Z"/><path d="M40.76 24.13l.63-4.46h2.95l-.08.58h-2.3l-.18 1.31h2.1l-.08.58h-2.1l-.2 1.41h2.3l-.08.58Z"/><path d="M44.15 24.13l1.84-2.23-1.18-2.23h.76l.92 1.77 1.42-1.77h.79L46.88 21.9l1.2 2.23h-.77l-.93-1.76-1.45 1.76Z"/><path d="M49.71 21.66h.65c.32 0 .58-.07.76-.22s.28-.36.28-.64c0-.19-.07-.33-.21-.42s-.34-.13-.61-.13h-.68Zm-.99 2.47l.63-4.46H50.7c.43 0 .77.09 1.01.27s.35.44.35.79c0 .32-.07.59-.2.81s-.33.4-.58.52-.55.18-.9.18h-.75l-.26 1.89Z"/><path d="M52.32 24.13l.63-4.46h2.95l-.08.58h-2.3l-.18 1.31h2.1l-.08.58h-2.1l-.2 1.41h2.3l-.08.58Z"/><path d="M58.57 24.13l-.88-1.98.65-.08.95 2.07Zm-1.49-2.48h.64c.32 0 .58-.07.77-.22s.28-.36.28-.63c0-.2-.07-.34-.22-.42s-.34-.12-.59-.12h-.68Zm-1.01 2.48l.63-4.46h1.35c.46 0 .8.09 1.02.28s.34.45.34.78c0 .25-.05.48-.14.69s-.25.39-.45.54-.48.23-.81.27H57l-.27 1.91Z"/><path d="M59.97 24.13l.63-4.46h.65l-.63 4.46Z"/><path d="M61.61 24.13l.63-4.46h2.95l-.08.58h-2.3l-.18 1.31h2.1l-.08.58h-2.1l-.2 1.41h2.3l-.08.58Z"/><path d="M65.38 24.13l.63-4.46h.67l1.71 3.62h-.15l.51-3.62h.65l-.63 4.46h-.68l-1.7-3.62h.15l-.51 3.62Z"/><path d="M71.68 24.22c-.29 0-.54-.05-.77-.14s-.42-.22-.57-.39-.27-.37-.36-.61-.12-.49-.12-.77c0-.35.05-.68.16-1.01s.27-.61.47-.87.46-.46.76-.61.63-.23 1.01-.23c.46 0 .85.12 1.16.35s.5.55.6.95l-.63.19c-.06-.28-.2-.5-.4-.65s-.46-.22-.76-.22c-.28 0-.53.06-.74.18s-.39.27-.54.47-.26.41-.33.66-.11.5-.11.76c0 .41.11.73.32.97s.51.35.89.35c.32 0 .61-.08.86-.24s.44-.38.58-.66l.59.26c-.2.39-.48.7-.84.92s-.76.34-1.22.34"/><path d="M74.31 24.13l.63-4.46h2.95l-.08.58H75.5l-.18 1.31h2.1l-.08.58h-2.1l-.2 1.41h2.3l-.08.58Z"/><path d="M79.5 24.21c-.3 0-.57-.05-.8-.17s-.41-.27-.55-.46-.2-.43-.21-.7l.65-.13c.01.29.1.51.29.66s.4.21.67.21c.19 0 .35-.03.48-.1s.24-.15.31-.27.11-.24.11-.38-.03-.26-.1-.35-.16-.17-.28-.24-.27-.14-.43-.2c-.25-.11-.46-.22-.62-.33s-.29-.25-.36-.4-.12-.31-.12-.49c0-.23.06-.44.17-.63s.28-.35.49-.46.46-.18.74-.18c.3 0 .57.07.81.21s.4.34.51.59l-.55.28c-.07-.17-.17-.3-.31-.38s-.29-.12-.46-.12c-.15 0-.28.03-.39.09s-.2.14-.26.24-.09.21-.09.34.03.22.09.3.15.15.27.22.27.13.45.2c.25.1.45.21.62.33s.29.26.38.41.12.33.12.54c0 .27-.07.51-.2.72s-.33.37-.56.49-.51.17-.83.17"/><path d="M81.62 24.13l.1-.77h.71l-.11.77Z"/><path d="M84.95 24.13l.63-4.46h.95l.84 3.43h-.11l1.8-3.43h.96l-.63 4.46h-.65l.53-3.71.05.01-1.77 3.31h-.64l-.85-3.31.05-.01-.52 3.71Z"/><path d="M90.39 24.13l.63-4.46h2.95l-.08.58h-2.3l-.18 1.31h2.1l-.08.58h-2.1l-.2 1.41h2.3l-.08.58Z"/><path d="M94.92 23.14l.29-.58h1.52l.13.58Zm-1.16.99l2.36-4.46h.51l1.09 4.46h-.69l-.77-3.51-1.77 3.51Z"/><path d="M99.82 24.21c-.3 0-.57-.05-.8-.17s-.41-.27-.55-.46-.2-.43-.21-.7l.65-.13c.01.29.1.51.29.66s.4.21.67.21c.19 0 .35-.03.48-.1s.24-.15.31-.27.11-.24.11-.38-.03-.26-.1-.35-.16-.17-.28-.24-.27-.14-.43-.2c-.25-.11-.46-.22-.62-.33s-.29-.25-.36-.4-.12-.31-.12-.49c0-.23.06-.44.17-.63s.28-.35.49-.46.46-.18.74-.18c.3 0 .57.07.81.21s.4.34.51.59l-.55.28c-.07-.17-.17-.3-.31-.38s-.29-.12-.46-.12c-.15 0-.28.03-.39.09s-.2.14-.26.24-.09.21-.09.34.03.22.09.3.15.15.27.22.27.13.45.2c.25.1.45.21.62.33s.29.26.37.41.12.33.12.54c0 .27-.07.51-.2.72s-.33.37-.56.49-.51.17-.83.17"/><path d="M103.64 24.22c-.49 0-.85-.11-1.1-.34s-.37-.56-.37-1c0-.05 0-.11.01-.18s.01-.13.02-.2l.4-2.84h.65l-.39 2.8c-.01.06-.02.13-.02.19s-.01.12-.01.17c0 .26.06.46.19.59s.34.2.64.2c.26 0 .47-.05.63-.14s.3-.23.39-.41.16-.39.2-.64l.38-2.76h.65l-.4 2.83c-.08.58-.28 1.01-.59 1.29s-.74.42-1.28.42"/><path d="M108.73 24.13l-.88-1.98.65-.08.95 2.07Zm-1.49-2.48h.64c.32 0 .58-.07.76-.22s.28-.36.28-.63c0-.2-.07-.34-.22-.42s-.34-.12-.59-.12h-.68Zm-1.01 2.48l.63-4.46h1.35c.46 0 .8.09 1.02.28s.34.45.34.78c0 .25-.05.48-.14.69s-.25.39-.45.54-.48.23-.81.27h-1.01l-.27 1.91Z"/><path d="M110.89 23.14l.29-.58h1.52l.13.58Zm-1.16.99l2.35-4.46h.51l1.09 4.46H113l-.77-3.51-1.77 3.51Z"/><path d="M115.33 21.54h.87c.15 0 .29-.03.41-.1s.21-.16.27-.27.1-.25.1-.39c0-.16-.05-.29-.16-.37s-.27-.12-.48-.12h-.84Zm-.28 2h.92c.31 0 .55-.08.72-.23s.26-.36.26-.64c0-.18-.05-.31-.17-.41s-.27-.15-.49-.15h-1.05Zm-.74.6l.63-4.46h1.46c.39 0 .7.08.92.25s.33.41.33.71c0 .25-.06.48-.18.67s-.29.34-.5.45c.2.06.35.17.46.32s.16.35.16.58c0 .31-.07.58-.2.8s-.32.39-.56.51-.53.18-.85.18Z"/><path d="M118.21 24.13l.63-4.46h.65l-.54 3.88h1.96l-.08.58Z"/><path d="M121.43 24.13l.63-4.46H125l-.08.58h-2.3l-.18 1.31h2.1l-.08.58h-2.1l-.2 1.41h2.3l-.08.58Z"/><path d="M126.89 24.13l.63-4.46h.65l-.63 4.46Z"/><path d="M128.53 24.13l.63-4.46h.95l.84 3.43h-.11l1.8-3.43h.96l-.63 4.46h-.65l.53-3.71.05.01-1.77 3.31h-.64l-.84-3.31.05-.01-.52 3.71Z"/><path d="M134.96 21.66h.65c.32 0 .58-.07.76-.22s.28-.36.28-.64c0-.19-.07-.33-.21-.42s-.34-.13-.6-.13h-.68Zm-.99 2.47l.63-4.46h1.35c.43 0 .77.09 1.01.27s.36.44.36.79c0 .32-.07.59-.2.81s-.33.4-.58.52-.55.18-.9.18h-.75l-.26 1.89Z"/><path d="M137.81 23.14l.29-.58h1.52l.13.58Zm-1.16.99l2.36-4.46h.51l1.09 4.46h-.69l-.77-3.51-1.77 3.51Z"/><path d="M142.95 24.22c-.29 0-.54-.05-.77-.14s-.42-.22-.57-.39-.27-.37-.36-.61-.12-.49-.12-.77c0-.35.05-.68.16-1.01s.27-.61.47-.87.46-.46.76-.61.63-.23 1.01-.23c.47 0 .85.12 1.16.35s.5.55.6.95l-.63.19c-.06-.28-.2-.5-.4-.65s-.46-.22-.76-.22c-.28 0-.53.06-.74.18s-.39.27-.54.47-.26.41-.33.66-.11.5-.11.76c0 .41.11.73.32.97s.51.35.89.35c.32 0 .61-.08.85-.24s.44-.38.58-.66l.59.26c-.2.39-.48.7-.84.92s-.76.34-1.22.34"/><path d="M146.6 24.13l.54-3.88h-1.46l.08-.58h3.57l-.08.58H147.8l-.54 3.88Z"/><path d="M149.25 24.13l.1-.77h.71l-.11.77Z"/></g></g></svg>