<?xml version="1.0" encoding="UTF-8"?><!DOCTYPE svg PUBLIC "-//W3C//DTD SVG 1.0//EN" "http://www.w3.org/TR/2001/REC-SVG-20010904/DTD/svg10.dtd" []><svg xmlns="http://www.w3.org/2000/svg" xmlns:xlink="http://www.w3.org/1999/xlink" height="21" stroke="#000" stroke-linecap="square" stroke-miterlimit="10" viewBox="0 0 439.73 20.53" width="440"><defs><clipPath id="a"><path d="M0 0V20.53H439.73V0Z"/></clipPath><clipPath clip-path="url(#a)" id="b"><path d="M-393.77 306.18H566.35v-540H-393.77Z"/></clipPath></defs><g><g fill="#fff" stroke="none"><path clip-path="url(#b)" d="M6.81 11.98H7.99c1.64 0 2.67-1.16 2.67-3.09 0-1.34-.65-2.01-1.81-2.01H7.89ZM6.61 5.63H9.05c1.99 0 3.25 1.19 3.25 3.23 0 2.45-1.58 4.36-4.36 4.36H5Z"/><path clip-path="url(#b)" d="M17.13 9.71c.02-.11.02-.19.02-.25 0-.5-.22-.92-.88-.92-.69 0-1.11.44-1.3 1.18Zm-2.35 1c-.02.12-.04.22-.04.34 0 .6.23 1.12.9 1.12.61 0 .88-.33 1.07-.69h1.56c-.32.84-1.04 1.85-2.75 1.85-1.53 0-2.28-.96-2.28-2.34 0-1.5.82-3.58 3.09-3.58 1.67 0 2.26 1.02 2.26 2.19 0 .46-.06.79-.15 1.11Z"/><path clip-path="url(#b)" d="M23.27 9.71c.02-.11.02-.19.02-.25 0-.5-.22-.92-.88-.92-.69 0-1.1.44-1.3 1.18Zm-2.35 1c-.02.12-.04.22-.04.34 0 .6.23 1.12.9 1.12.61 0 .88-.33 1.07-.69H24.4c-.32.84-1.05 1.85-2.75 1.85-1.53 0-2.28-.96-2.28-2.34 0-1.5.82-3.58 3.09-3.58 1.67 0 2.26 1.02 2.26 2.19 0 .46-.06.79-.15 1.11Z"/><path clip-path="url(#b)" d="M29.85 9.8c0-.82-.38-1.16-.95-1.16-.81 0-1.36.75-1.56 1.75-.19.94-.05 1.71.9 1.71 1.12 0 1.61-1.34 1.61-2.3M26.9 12.69l-.57 2.7H24.85l1.32-6.23c.17-.77.27-1.28.32-1.65h1.48c0 .12-.07.5-.12.76.31-.43.86-.87 1.74-.87 1.15 0 1.83.87 1.83 2.23 0 1.78-1.09 3.68-3.12 3.68-.71 0-1.2-.3-1.39-.63"/><path clip-path="url(#b)" d="M37.59 8.88h1.27c.89 0 1.5-.31 1.5-1.11 0-.58-.32-.9-1.1-.9H38.01Zm-.26 1.24l-.65 3.09H35.14l1.61-7.58h2.89c1.45 0 2.31.74 2.31 1.98 0 1.04-.63 1.73-1.56 1.98.3.15.89.52.63 1.81-.19.89-.31 1.46-.26 1.81H39.28c-.04-.33.02-.88.22-1.82.18-.83.03-1.28-.8-1.28Z"/><path clip-path="url(#b)" d="M43.92 10.98c0 .79.33 1.18.91 1.18 1.07 0 1.5-1.49 1.5-2.46 0-.74-.31-1.13-.93-1.13-1.04 0-1.48 1.48-1.48 2.41m3.96-1.13c0 1.34-.78 3.47-3.2 3.47-1.58 0-2.32-.97-2.32-2.35 0-1.53.97-3.56 3.15-3.56 1.36 0 2.36.77 2.36 2.44"/><path clip-path="url(#b)" d="M50.27 10.98c0 .79.33 1.18.91 1.18 1.07 0 1.5-1.49 1.5-2.46 0-.74-.31-1.13-.93-1.13-1.04 0-1.48 1.48-1.48 2.41m3.96-1.13c0 1.34-.78 3.47-3.2 3.47-1.58 0-2.32-.97-2.32-2.35 0-1.53.97-3.56 3.15-3.56 1.36 0 2.36.77 2.36 2.44"/><path clip-path="url(#b)" d="M55.38 7.52h.84l.33-1.53h1.48l-.32 1.53h1.07l-.26 1.14H57.47l-.6 2.87c-.07.35-.04.59.41.59.17 0 .32-.01.49-.04l-.23 1.08c-.33.11-.7.11-1.01.11-1.18 0-1.37-.68-1.16-1.68l.61-2.93h-.84Z"/><path clip-path="url(#b)" d="M60.28 11.45c.04.49.36.76.98.76.59 0 .82-.27.82-.64 0-.36-.3-.55-1.01-.77-1.33-.41-1.74-.87-1.74-1.58 0-1.03.8-1.81 2.32-1.81 1.58 0 2.3.8 2.26 1.71H62.39c-.02-.31-.18-.61-.82-.61-.37 0-.74.12-.74.52 0 .31.3.42 1 .64 1.33.42 1.79.94 1.79 1.73 0 1.31-1.18 1.91-2.53 1.91-1.52 0-2.4-.68-2.33-1.87Z"/><path clip-path="url(#b)" d="M67.88 10.68h4.54v-.54H67.88Z" fill-rule="evenodd"/><path clip-path="url(#b)" d="M77.29 11.15c.23 1.02.91 1.63 2.18 1.63 1.41 0 1.95-.7 1.95-1.54 0-.87-.38-1.41-2.08-1.83-1.63-.41-2.33-.93-2.33-2.05 0-1.01.74-1.96 2.39-1.96 1.69 0 2.41 1.03 2.51 1.97h-.62c-.18-.83-.71-1.42-1.93-1.42-1.11 0-1.71.52-1.71 1.38 0 .85.51 1.18 1.92 1.53 2.17.54 2.49 1.41 2.49 2.33 0 1.13-.82 2.11-2.61 2.11-1.92 0-2.63-1.12-2.77-2.16Z"/><path clip-path="url(#b)" d="M82.84 7.72h1.02V6h.55V7.72h1.31v.52H84.41v3.58c0 .61.13.97.66.97.17 0 .4-.01.57-.07v.48c-.19.08-.45.1-.68.1-.7 0-1.1-.35-1.1-1.23V8.23H82.84Z"/><path clip-path="url(#b)" d="M86.85 9.21c0-.92-.01-1.32-.01-1.5h.54c.01.18.02.53.02 1.23.32-.83 1.02-1.32 1.91-1.36v.59c-1.14.08-1.91.87-1.91 2.18v2.86h-.55Z"/><path clip-path="url(#b)" d="M93.57 10.41H92.5c-1.22 0-1.98.32-1.98 1.27 0 .69.49 1.17 1.27 1.17 1.57 0 1.79-1.05 1.79-2.23Zm.54 1.76c0 .48.04.87.08 1.04h-.53c-.04-.13-.08-.37-.1-.85-.19.41-.67.98-1.8.98-1.28 0-1.83-.83-1.83-1.65 0-1.21.94-1.76 2.59-1.76h1.05V9.38c0-.55-.17-1.29-1.42-1.29-1.11 0-1.27.58-1.4 1.03H90.2c.07-.61.44-1.54 1.96-1.54 1.25 0 1.96.53 1.96 1.74Z"/><path clip-path="url(#b)" d="M95.16 7.72h1.02V6h.55V7.72h1.31v.52H96.73v3.58c0 .61.13.97.66.97.17 0 .4-.01.57-.07v.48c-.19.08-.45.1-.68.1-.7 0-1.1-.35-1.1-1.23V8.23H95.16Z"/><path clip-path="url(#b)" d="M102.81 10.05c-.01-1.09-.61-1.95-1.68-1.95-1.13 0-1.65.79-1.77 1.95Zm-3.49.48c.01 1.42.73 2.3 1.78 2.3 1.03 0 1.39-.58 1.58-1.03h.56c-.23.73-.82 1.55-2.17 1.55-1.67 0-2.32-1.44-2.32-2.84 0-1.57.78-2.93 2.39-2.93 1.69 0 2.23 1.46 2.23 2.5 0 .15 0 .31-.01.45Z"/><path clip-path="url(#b)" d="M105.1 10.45c0 1.31.69 2.26 1.75 2.26 1.38 0 1.79-.91 1.79-2.34 0-1.45-.44-2.26-1.76-2.26-1.26 0-1.78 1.09-1.78 2.34m4.06 2.4c0 1.76-.78 2.68-2.38 2.68-1.43 0-2.02-.8-2.16-1.64h.56c.2.76.82 1.12 1.62 1.12 1.43 0 1.83-.92 1.83-2.32v-.57c-.3.72-.84 1.1-1.84 1.1-1.29 0-2.28-1.04-2.28-2.75 0-1.85 1.06-2.88 2.35-2.88 1.12 0 1.61.53 1.76.97.01-.32.02-.7.03-.84h.52c0 .2-.02 1.07-.02 1.6Z"/><path clip-path="url(#b)" d="M111.07 7.72h.55v5.5h-.55Zm0-2.61h.55V6.18h-.55Z"/><path clip-path="url(#b)" d="M117.59 11.6c-.27.97-.9 1.75-2.14 1.75-1.38 0-2.35-1.02-2.35-2.86 0-1.51.8-2.9 2.42-2.9 1.4 0 1.97.99 2.07 1.76h-.56c-.17-.64-.58-1.24-1.52-1.24-1.17 0-1.83.99-1.83 2.37 0 1.31.62 2.37 1.77 2.37.8 0 1.29-.41 1.57-1.23Z"/><path clip-path="url(#b)" d="M122.08 13.22V8.23h-.95V7.72h.95V6.94c0-.92.26-1.94 1.5-1.94.16 0 .41.03.54.08V5.6c-.16-.04-.43-.07-.59-.07-.65 0-.89.46-.89 1.42v.76h1.2v.52h-1.2v4.98Z"/><path clip-path="url(#b)" d="M124.95 10.47c0 1.31.7 2.37 1.87 2.37 1.19 0 1.86-.98 1.86-2.37 0-1.3-.66-2.37-1.88-2.37-1.25 0-1.85 1.05-1.85 2.37m4.31-.01c0 1.53-.85 2.89-2.49 2.89-1.48 0-2.41-1.22-2.41-2.88 0-1.57.87-2.88 2.47-2.88 1.46 0 2.43 1.14 2.43 2.87"/><path clip-path="url(#b)" d="M134.86 11.61c0 .54.01 1.4.01 1.61h-.53c-.02-.14-.03-.51-.03-.96-.23.65-.79 1.09-1.77 1.09-.79 0-1.8-.31-1.8-1.99V7.72h.54v3.51c0 .8.25 1.58 1.34 1.58 1.23 0 1.69-.69 1.69-2.27V7.72h.55Z"/><path clip-path="url(#b)" d="M136.77 9.1c0-.48 0-.95-.01-1.39h.54c.02.18.03.89.02 1.04.24-.56.69-1.18 1.83-1.18.98 0 1.85.55 1.85 2.07v3.56h-.55V9.74c0-.98-.41-1.62-1.36-1.62-1.31 0-1.76 1.09-1.76 2.29v2.8h-.55Z"/><path clip-path="url(#b)" d="M143.05 10.51c0 1.51.78 2.32 1.73 2.32 1.45 0 1.85-1 1.85-2.5 0-1.42-.34-2.23-1.75-2.23-1.09 0-1.83.87-1.83 2.41m4.1-5.4v6.52c0 .53 0 1.03.01 1.58h-.53c-.02-.13-.03-.65-.03-.92-.28.67-.89 1.06-1.85 1.06-1.43 0-2.29-1.17-2.29-2.82 0-1.69.94-2.95 2.43-2.95 1.1 0 1.54.47 1.71.83V5.11Z"/><path clip-path="url(#b)" d="M152.23 10.41h-1.08c-1.22 0-1.98.32-1.98 1.27 0 .69.5 1.17 1.27 1.17 1.57 0 1.79-1.05 1.79-2.23Zm.54 1.76c0 .48.04.87.08 1.04h-.53c-.04-.13-.08-.37-.1-.85-.19.41-.67.98-1.8.98-1.28 0-1.83-.83-1.83-1.65 0-1.21.94-1.76 2.58-1.76h1.05V9.38c0-.55-.17-1.29-1.42-1.29-1.11 0-1.28.58-1.4 1.03h-.55c.07-.61.44-1.54 1.96-1.54 1.25 0 1.96.53 1.96 1.74Z"/><path clip-path="url(#b)" d="M153.81 7.72h1.02V6h.55V7.72h1.31v.52h-1.31v3.58c0 .61.13.97.66.97.17 0 .4-.01.57-.07v.48c-.19.08-.45.1-.68.1-.7 0-1.1-.35-1.1-1.23V8.23h-1.02Z"/><path clip-path="url(#b)" d="M157.92 7.72h.55v5.5h-.55Zm0-2.61h.55V6.18h-.55Z"/><path clip-path="url(#b)" d="M160.53 10.47c0 1.31.7 2.37 1.87 2.37 1.19 0 1.86-.98 1.86-2.37 0-1.3-.66-2.37-1.88-2.37-1.25 0-1.85 1.05-1.85 2.37m4.31-.01c0 1.53-.85 2.89-2.49 2.89-1.49 0-2.41-1.22-2.41-2.88 0-1.57.87-2.88 2.46-2.88 1.46 0 2.43 1.14 2.43 2.87"/><path clip-path="url(#b)" d="M166.32 9.1c0-.48 0-.95-.01-1.39h.54c.02.18.03.89.02 1.04.24-.56.69-1.18 1.83-1.18.98 0 1.85.55 1.85 2.07v3.56h-.55V9.74c0-.98-.41-1.62-1.36-1.62-1.31 0-1.76 1.09-1.76 2.29v2.8h-.55Z"/><path clip-path="url(#b)" d="M178.66 10.41h-1.08c-1.22 0-1.98.32-1.98 1.27 0 .69.5 1.17 1.27 1.17 1.57 0 1.79-1.05 1.79-2.23Zm.54 1.76c0 .48.04.87.08 1.04h-.53c-.04-.13-.08-.37-.1-.85-.19.41-.67.98-1.8.98-1.28 0-1.83-.83-1.83-1.65 0-1.21.94-1.76 2.59-1.76h1.05V9.38c0-.55-.17-1.29-1.42-1.29-1.11 0-1.27.58-1.4 1.03h-.55c.07-.61.44-1.54 1.96-1.54 1.25 0 1.96.53 1.96 1.74Z"/><path clip-path="url(#b)" d="M181.12 13.22h.55V5.11h-.55Z" fill-rule="evenodd"/><path clip-path="url(#b)" d="M183.59 7.72h.55v5.5h-.55Zm0-2.61h.55V6.18h-.55Z"/><path clip-path="url(#b)" d="M186.19 10.45c0 1.31.69 2.26 1.75 2.26 1.38 0 1.79-.91 1.79-2.34 0-1.45-.44-2.26-1.76-2.26-1.26 0-1.78 1.09-1.78 2.34m4.06 2.4c0 1.76-.78 2.68-2.38 2.68-1.43 0-2.03-.8-2.16-1.64h.56c.2.76.83 1.12 1.62 1.12 1.43 0 1.83-.92 1.83-2.32v-.57c-.3.72-.84 1.1-1.84 1.1-1.29 0-2.28-1.04-2.28-2.75 0-1.85 1.06-2.88 2.35-2.88 1.12 0 1.61.53 1.76.97.01-.32.02-.7.03-.84h.52c0 .2-.02 1.07-.02 1.6Z"/><path clip-path="url(#b)" d="M192.17 9.1c0-.48 0-.95-.01-1.39h.54c.02.18.03.89.02 1.04.24-.56.69-1.18 1.83-1.18.98 0 1.85.55 1.85 2.07v3.56h-.55V9.74c0-.98-.41-1.62-1.36-1.62-1.31 0-1.76 1.09-1.76 2.29v2.8h-.55Z"/><path clip-path="url(#b)" d="M201.91 10.05c-.01-1.09-.61-1.95-1.68-1.95-1.13 0-1.65.79-1.77 1.95Zm-3.49.48c.01 1.42.73 2.3 1.78 2.3 1.03 0 1.39-.58 1.58-1.03h.56c-.23.73-.82 1.55-2.17 1.55-1.67 0-2.32-1.44-2.32-2.84 0-1.57.78-2.93 2.39-2.93 1.69 0 2.23 1.46 2.23 2.5 0 .15 0 .31-.01.45Z"/><path clip-path="url(#b)" d="M204.13 10.51c0 1.51.78 2.32 1.73 2.32 1.45 0 1.85-1 1.85-2.5 0-1.42-.34-2.23-1.75-2.23-1.09 0-1.83.87-1.83 2.41m4.1-5.4v6.52c0 .53 0 1.03.01 1.58h-.53c-.02-.13-.03-.65-.03-.92-.28.67-.89 1.06-1.85 1.06-1.43 0-2.29-1.17-2.29-2.82 0-1.69.94-2.95 2.43-2.95 1.1 0 1.54.47 1.71.83V5.11Z"/><path clip-path="url(#b)" d="M213.13 7.72c.82 2.84 1.29 4.47 1.38 4.95h.01c.09-.44.64-2.17 1.5-4.95h.59c1.02 3.4 1.33 4.38 1.43 4.81h.01c.15-.61.41-1.43 1.42-4.81h.58l-1.74 5.5h-.6c-.59-1.95-1.31-4.33-1.42-4.84h-.01c-.11.54-.74 2.51-1.45 4.84h-.66l-1.62-5.5Z"/><path clip-path="url(#b)" d="M221.33 7.72h.55v5.5h-.55Zm0-2.61h.55V6.18h-.55Z"/><path clip-path="url(#b)" d="M223.04 7.72h1.02V6h.55V7.72h1.31v.52h-1.31v3.58c0 .61.13.97.66.97.16 0 .4-.01.57-.07v.48c-.19.08-.45.1-.68.1-.7 0-1.1-.35-1.1-1.23V8.23h-1.02Z"/><path clip-path="url(#b)" d="M227.67 5.11V8.64c.31-.57.85-1.05 1.82-1.05.78 0 1.86.4 1.86 2.13v3.5h-.55V9.83c0-1.09-.49-1.7-1.41-1.7-1.09 0-1.72.67-1.72 2.02v3.07h-.55V5.11Z"/><path clip-path="url(#b)" d="M236.09 7.72c1.11 3.15 1.6 4.45 1.78 5.04h.01c.22-.67.66-1.95 1.73-5.04h.57l-2.07 5.82c-.58 1.63-.98 1.99-1.97 1.99-.2 0-.33-.01-.51-.03v-.55c.17.02.32.03.49.03.79 0 1.05-.39 1.45-1.52l-2.1-5.74Z"/><path clip-path="url(#b)" d="M241.54 10.47c0 1.31.7 2.37 1.87 2.37 1.19 0 1.86-.98 1.86-2.37 0-1.3-.66-2.37-1.88-2.37-1.25 0-1.85 1.05-1.85 2.37m4.31-.01c0 1.53-.85 2.89-2.49 2.89-1.48 0-2.41-1.22-2.41-2.88 0-1.57.87-2.88 2.47-2.88 1.46 0 2.43 1.14 2.43 2.87"/><path clip-path="url(#b)" d="M251.45 11.61c0 .54.01 1.4.01 1.61h-.53c-.02-.14-.03-.51-.03-.96-.23.65-.79 1.09-1.77 1.09-.79 0-1.8-.31-1.8-1.99V7.72h.54v3.51c0 .8.25 1.58 1.34 1.58 1.23 0 1.69-.69 1.69-2.27V7.72h.55Z"/><path clip-path="url(#b)" d="M253.36 9.21c0-.92-.01-1.32-.01-1.5h.54c.01.18.02.53.02 1.23.32-.83 1.02-1.32 1.91-1.36v.59c-1.14.08-1.91.87-1.91 2.18v2.86h-.55Z"/><path clip-path="url(#b)" d="M264.11 10.36c0-1.38-.68-2.26-1.73-2.26-1.38 0-1.86.94-1.86 2.38 0 1.3.43 2.35 1.79 2.35 1.11 0 1.79-.92 1.79-2.48M260 5.11h.55V8.64c.26-.55.8-1.06 1.88-1.06 1.3 0 2.26 1.07 2.26 2.76 0 1.74-.86 3-2.4 3-.92 0-1.45-.37-1.74-1 0 .35-.01.71-.02.87h-.54c.01-.63.01-1.25.01-1.88Z"/><path clip-path="url(#b)" d="M270.28 11.61c0 .54.01 1.4.01 1.61h-.53c-.02-.14-.03-.51-.03-.96-.23.65-.79 1.09-1.77 1.09-.79 0-1.8-.31-1.8-1.99V7.72h.54v3.51c0 .8.25 1.58 1.34 1.58 1.23 0 1.69-.69 1.69-2.27V7.72h.55Z"/><path clip-path="url(#b)" d="M272.12 11.7c.19.72.69 1.14 1.56 1.14.98 0 1.38-.45 1.38-1.07 0-.63-.27-.93-1.5-1.23-1.42-.34-1.77-.77-1.77-1.5 0-.76.57-1.46 1.82-1.46s1.84.76 1.92 1.54h-.55c-.1-.46-.46-1.03-1.4-1.03-.96 0-1.23.47-1.23.91 0 .51.27.76 1.35 1.02 1.55.37 1.94.88 1.94 1.71 0 1-.82 1.62-1.97 1.62-1.25 0-1.96-.66-2.11-1.65Z"/><path clip-path="url(#b)" d="M277.12 7.72h.55v5.5h-.55Zm0-2.61h.55V6.18h-.55Z"/><path clip-path="url(#b)" d="M279.58 9.1c0-.48 0-.95-.01-1.39h.54c.02.18.03.89.02 1.04.24-.56.69-1.18 1.83-1.18.98 0 1.85.55 1.85 2.07v3.56h-.55V9.74c0-.98-.41-1.62-1.36-1.62-1.31 0-1.76 1.09-1.76 2.29v2.8h-.55Z"/><path clip-path="url(#b)" d="M289.33 10.05c-.01-1.09-.61-1.95-1.68-1.95-1.13 0-1.65.79-1.77 1.95Zm-3.49.48c.01 1.42.73 2.3 1.78 2.3 1.03 0 1.39-.58 1.58-1.03h.56c-.23.73-.81 1.55-2.17 1.55-1.67 0-2.32-1.44-2.32-2.84 0-1.57.78-2.93 2.39-2.93 1.69 0 2.23 1.46 2.23 2.5 0 .15 0 .31-.01.45Z"/><path clip-path="url(#b)" d="M291.49 11.7c.19.72.69 1.14 1.56 1.14.98 0 1.38-.45 1.38-1.07 0-.63-.27-.93-1.5-1.23-1.42-.34-1.77-.77-1.77-1.5 0-.76.57-1.46 1.82-1.46s1.84.76 1.92 1.54h-.55c-.1-.46-.46-1.03-1.4-1.03-.96 0-1.23.47-1.23.91 0 .51.26.76 1.35 1.02 1.55.37 1.94.88 1.94 1.71 0 1-.82 1.62-1.97 1.62-1.25 0-1.96-.66-2.11-1.65Z"/><path clip-path="url(#b)" d="M296.61 11.7c.19.72.69 1.14 1.56 1.14.98 0 1.38-.45 1.38-1.07 0-.63-.27-.93-1.5-1.23-1.42-.34-1.77-.77-1.77-1.5 0-.76.57-1.46 1.82-1.46s1.84.76 1.92 1.54h-.55c-.1-.46-.46-1.03-1.4-1.03-.96 0-1.23.47-1.23.91 0 .51.26.76 1.35 1.02 1.55.37 1.94.88 1.94 1.71 0 1-.82 1.62-1.97 1.62-1.25 0-1.96-.66-2.11-1.65Z"/><path clip-path="url(#b)" d="M304.72 10.45c0 1.31.69 2.26 1.75 2.26 1.38 0 1.79-.91 1.79-2.34 0-1.45-.44-2.26-1.76-2.26-1.26 0-1.78 1.09-1.78 2.34m4.06 2.4c0 1.76-.78 2.68-2.38 2.68-1.43 0-2.03-.8-2.16-1.64h.56c.2.76.83 1.12 1.62 1.12 1.43 0 1.83-.92 1.83-2.32v-.57c-.3.72-.84 1.1-1.84 1.1-1.29 0-2.28-1.04-2.28-2.75 0-1.85 1.06-2.88 2.35-2.88 1.12 0 1.61.53 1.76.97.01-.32.02-.7.03-.84h.52c0 .2-.02 1.07-.02 1.6Z"/><path clip-path="url(#b)" d="M310.83 10.47c0 1.31.7 2.37 1.87 2.37 1.19 0 1.86-.98 1.86-2.37 0-1.3-.66-2.37-1.88-2.37-1.25 0-1.85 1.05-1.85 2.37m4.31-.01c0 1.53-.85 2.89-2.49 2.89-1.48 0-2.41-1.22-2.41-2.88 0-1.57.87-2.88 2.47-2.88 1.46 0 2.43 1.14 2.43 2.87"/><path clip-path="url(#b)" d="M319.86 10.41h-1.08c-1.22 0-1.98.32-1.98 1.27 0 .69.5 1.17 1.27 1.17 1.57 0 1.79-1.05 1.79-2.23Zm.54 1.76c0 .48.04.87.08 1.04h-.53c-.04-.13-.08-.37-.1-.85-.19.41-.67.98-1.8.98-1.28 0-1.83-.83-1.83-1.65 0-1.21.94-1.76 2.59-1.76h1.05V9.38c0-.55-.16-1.29-1.42-1.29-1.11 0-1.27.58-1.4 1.03h-.55c.07-.61.44-1.54 1.96-1.54 1.25 0 1.96.53 1.96 1.74Z"/><path clip-path="url(#b)" d="M322.32 13.22h.55V5.11h-.55Z" fill-rule="evenodd"/><path clip-path="url(#b)" d="M324.73 11.7c.19.72.69 1.14 1.56 1.14.98 0 1.38-.45 1.38-1.07 0-.63-.26-.93-1.5-1.23-1.42-.34-1.77-.77-1.77-1.5 0-.76.57-1.46 1.82-1.46s1.84.76 1.93 1.54h-.55c-.1-.46-.46-1.03-1.4-1.03-.96 0-1.23.47-1.23.91 0 .51.27.76 1.35 1.02 1.55.37 1.94.88 1.94 1.71 0 1-.82 1.62-1.97 1.62-1.25 0-1.96-.66-2.11-1.65Z"/><path clip-path="url(#b)" d="M335.92 10.41h-1.08c-1.22 0-1.98.32-1.98 1.27 0 .69.5 1.17 1.27 1.17 1.57 0 1.79-1.05 1.79-2.23Zm.54 1.76c0 .48.04.87.08 1.04h-.53c-.04-.13-.08-.37-.1-.85-.19.41-.67.98-1.8.98-1.28 0-1.83-.83-1.83-1.65 0-1.21.94-1.76 2.58-1.76h1.05V9.38c0-.55-.16-1.29-1.42-1.29-1.11 0-1.28.58-1.4 1.03h-.55c.07-.61.44-1.54 1.96-1.54 1.25 0 1.96.53 1.96 1.74Z"/><path clip-path="url(#b)" d="M338.39 9.1c0-.48 0-.95-.01-1.39h.54c.02.18.03.89.02 1.04.24-.56.69-1.18 1.83-1.18.98 0 1.85.55 1.85 2.07v3.56h-.55V9.74c0-.98-.41-1.62-1.36-1.62-1.31 0-1.76 1.09-1.76 2.29v2.8h-.55Z"/><path clip-path="url(#b)" d="M344.67 10.51c0 1.51.78 2.32 1.73 2.32 1.45 0 1.85-1 1.85-2.5 0-1.42-.34-2.23-1.75-2.23-1.09 0-1.83.87-1.83 2.41m4.1-5.4v6.52c0 .53 0 1.03.01 1.58h-.53c-.02-.13-.03-.65-.03-.92-.28.67-.89 1.06-1.85 1.06-1.43 0-2.29-1.17-2.29-2.82 0-1.69.93-2.95 2.43-2.95 1.1 0 1.54.47 1.71.83V5.11Z"/><path clip-path="url(#b)" d="M357.76 10.36c0-1.38-.68-2.26-1.73-2.26-1.38 0-1.86.94-1.86 2.38 0 1.3.43 2.35 1.79 2.35 1.11 0 1.79-.92 1.79-2.48m-4.1-5.25h.55V8.64c.26-.55.8-1.06 1.88-1.06 1.3 0 2.26 1.07 2.26 2.76 0 1.74-.86 3-2.4 3-.92 0-1.45-.37-1.74-1 0 .35-.01.71-.02.87h-.54c.01-.63.01-1.25.01-1.88Z"/><path clip-path="url(#b)" d="M359.82 9.21c0-.92-.01-1.32-.01-1.5h.54c.01.18.02.53.02 1.23.32-.83 1.02-1.32 1.91-1.36v.59c-1.14.08-1.91.87-1.91 2.18v2.86h-.55Z"/><path clip-path="url(#b)" d="M366.54 10.41h-1.08c-1.22 0-1.98.32-1.98 1.27 0 .69.49 1.17 1.27 1.17 1.57 0 1.79-1.05 1.79-2.23Zm.54 1.76c0 .48.04.87.08 1.04h-.53c-.04-.13-.08-.37-.1-.85-.19.41-.67.98-1.8.98-1.28 0-1.83-.83-1.83-1.65 0-1.21.94-1.76 2.59-1.76h1.05V9.38c0-.55-.16-1.29-1.42-1.29-1.11 0-1.28.58-1.4 1.03h-.55c.07-.61.44-1.54 1.96-1.54 1.25 0 1.96.53 1.96 1.74Z"/><path clip-path="url(#b)" d="M369 9.1c0-.48 0-.95-.01-1.39h.54c.02.18.03.89.02 1.04.24-.56.69-1.18 1.83-1.18.98 0 1.85.55 1.85 2.07v3.56h-.55V9.74c0-.98-.41-1.62-1.36-1.62-1.31 0-1.76 1.09-1.76 2.29v2.8H369Z"/><path clip-path="url(#b)" d="M375.28 10.51c0 1.51.78 2.32 1.73 2.32 1.45 0 1.85-1 1.85-2.5 0-1.42-.34-2.23-1.75-2.23-1.09 0-1.83.87-1.83 2.41m4.1-5.4v6.52c0 .53 0 1.03.01 1.58h-.53c-.02-.13-.03-.65-.03-.92-.28.67-.89 1.06-1.85 1.06-1.43 0-2.29-1.17-2.29-2.82 0-1.69.93-2.95 2.43-2.95 1.1 0 1.54.47 1.71.83V5.11Z"/><path clip-path="url(#b)" d="M388.37 10.35c0-1.28-.62-2.23-1.71-2.23-1.33 0-1.88.84-1.88 2.33 0 1.47.43 2.39 1.8 2.39 1.14 0 1.78-.97 1.78-2.49m-3.55 2.06v3.01h-.55V9.07c0-.45 0-.94-.01-1.35h.54c.02.21.02.54.02.99.34-.66.95-1.12 1.94-1.12 1.3 0 2.2 1.09 2.2 2.74 0 1.98-1.06 3.02-2.39 3.02-.97 0-1.47-.43-1.75-.95"/><path clip-path="url(#b)" d="M390.65 10.47c0 1.31.7 2.37 1.87 2.37 1.19 0 1.86-.98 1.86-2.37 0-1.3-.66-2.37-1.88-2.37-1.25 0-1.85 1.05-1.85 2.37m4.31-.01c0 1.53-.85 2.89-2.49 2.89-1.49 0-2.41-1.22-2.41-2.88 0-1.57.87-2.88 2.46-2.88 1.46 0 2.43 1.14 2.43 2.87"/><path clip-path="url(#b)" d="M396.55 11.7c.19.72.69 1.14 1.56 1.14.98 0 1.38-.45 1.38-1.07 0-.63-.27-.93-1.5-1.23-1.42-.34-1.77-.77-1.77-1.5 0-.76.57-1.46 1.82-1.46s1.84.76 1.92 1.54h-.55c-.1-.46-.46-1.03-1.4-1.03-.96 0-1.23.47-1.23.91 0 .51.27.76 1.35 1.02 1.55.37 1.94.88 1.94 1.71 0 1-.82 1.62-1.97 1.62-1.25 0-1.96-.66-2.11-1.65Z"/><path clip-path="url(#b)" d="M401.54 7.72h.55v5.5h-.55Zm0-2.61h.55V6.18h-.55Z"/><path clip-path="url(#b)" d="M403.25 7.72h1.02V6h.55V7.72h1.31v.52h-1.31v3.58c0 .61.13.97.66.97.17 0 .4-.01.57-.07v.48c-.19.08-.45.1-.68.1-.7 0-1.1-.35-1.1-1.23V8.23h-1.02Z"/><path clip-path="url(#b)" d="M407.37 7.72h.55v5.5h-.55Zm0-2.61h.55V6.18h-.55Z"/><path clip-path="url(#b)" d="M409.98 10.47c0 1.31.7 2.37 1.87 2.37 1.19 0 1.86-.98 1.86-2.37 0-1.3-.66-2.37-1.88-2.37-1.25 0-1.85 1.05-1.85 2.37m4.31-.01c0 1.53-.85 2.89-2.49 2.89-1.48 0-2.41-1.22-2.41-2.88 0-1.57.87-2.88 2.46-2.88 1.46 0 2.43 1.14 2.43 2.87"/><path clip-path="url(#b)" d="M415.76 9.1c0-.48 0-.95-.01-1.39h.54c.02.18.03.89.02 1.04.24-.56.69-1.18 1.83-1.18.98 0 1.85.55 1.85 2.07v3.56h-.55V9.74c0-.98-.41-1.62-1.36-1.62-1.31 0-1.76 1.09-1.76 2.29v2.8h-.55Z"/><path clip-path="url(#b)" d="M421.9 7.72h.55v5.5h-.55Zm0-2.61h.55V6.18h-.55Z"/><path clip-path="url(#b)" d="M424.36 9.1c0-.48 0-.95-.01-1.39h.54c.02.18.03.89.02 1.04.24-.56.69-1.18 1.83-1.18.98 0 1.85.55 1.85 2.07v3.56h-.55V9.74c0-.98-.41-1.62-1.36-1.62-1.31 0-1.76 1.09-1.76 2.29v2.8h-.55Z"/><path clip-path="url(#b)" d="M430.64 10.45c0 1.31.69 2.26 1.75 2.26 1.38 0 1.79-.91 1.79-2.34 0-1.45-.44-2.26-1.76-2.26-1.26 0-1.78 1.09-1.78 2.34m4.06 2.4c0 1.76-.78 2.68-2.38 2.68-1.43 0-2.02-.8-2.16-1.64h.56c.2.76.83 1.12 1.62 1.12 1.43 0 1.83-.92 1.83-2.32v-.57c-.3.72-.84 1.1-1.84 1.1-1.29 0-2.28-1.04-2.28-2.75 0-1.85 1.06-2.88 2.35-2.88 1.12 0 1.61.53 1.76.97.01-.32.02-.7.03-.84h.52c0 .2-.02 1.07-.02 1.6Z"/></g></g></svg>