<?xml version="1.0" encoding="UTF-8"?><!DOCTYPE svg PUBLIC "-//W3C//DTD SVG 1.0//EN" "http://www.w3.org/TR/2001/REC-SVG-20010904/DTD/svg10.dtd" []><svg xmlns="http://www.w3.org/2000/svg" xmlns:xlink="http://www.w3.org/1999/xlink" height="36" stroke="#000" stroke-linecap="square" stroke-miterlimit="10" viewBox="0 0 216.91 35.84" width="217"><g><g fill="#FF00A4" stroke="none"><path d="M24.91 23.8c-1.15 4.01-4.02 7.04-9.2 7.04C8.69 30.84 5 25.08 5 17.99 5 11.19 8.63 5 15.76 5c5.29 0 8.39 3.04 9.19 7.25H22.99c-1.1-3.25-3.14-5.4-7.34-5.4-6.03 0-8.55 5.68-8.55 11.1 0 5.37 2.49 11.03 8.69 11.03 3.96 0 5.96-2.13 7.17-5.19Z"/><path d="M32.5 16.96h5.86c4.26 0 6.23-1.64 6.23-4.93 0-3.07-1.94-4.82-5.71-4.82H32.5Zm0 1.85V30.55H30.51V5.36H39.3c4.82 0 7.37 2.67 7.37 6.63 0 3.21-1.85 5.29-4.54 5.9 2.48.61 4.16 2.29 4.16 6.58v.98c0 1.76-.14 4.13.31 5.1H44.62c-.45-1.08-.35-3.09-.35-5.26v-.64c0-4.11-1.17-5.83-5.83-5.83Z"/><path d="M67.34 18.2H54.91V28.69H68.53l-.29 1.86H52.96V5.36h15V7.22H54.91v9.13H67.34Z"/><path d="M75.63 28.69h5.85c6.41 0 9.56-4.65 9.56-10.85 0-5.51-2.84-10.63-9.56-10.63H75.63ZM73.67 5.36h8.12c6.7 0 11.34 4.82 11.34 12.38 0 7.52-4.53 12.81-11.38 12.81H73.67Z"/><path d="M113.22 18.2H100.79V28.69H114.4l-.29 1.86H98.84V5.36h15V7.22H100.79v9.13h12.43Z"/><path d="M119.55 30.55V5.36h2.87c3.78 6.04 12.64 20.02 14.16 22.76h.04c-.21-3.61-.18-7.33-.18-11.44V5.36h1.98V30.55h-2.66c-3.6-5.81-12.6-20.39-14.34-23.17h-.04c.18 3.29.14 6.99.14 11.56V30.55Z"/><path d="M150.78 7.21h-8.17V5.36h18.37V7.21h-8.21V30.55h-1.99Z"/><path d="M164.94 30.55h1.95V5.36h-1.95Z" fill-rule="evenodd"/><path d="M186.31 20.05c-2.7-7.44-4.09-11.03-4.58-12.74h-.03c-.59 1.92-2.16 6.37-4.33 12.74ZM176.7 21.9l-3.08 8.65h-1.99l8.94-25.19h2.32l9.33 25.19h-2.13l-3.15-8.65Z"/><path d="M196.87 5.36h1.95V28.69h13.09l-.35 1.86H196.87Z"/></g></g></svg>