<?xml version="1.0" encoding="UTF-8"?><!DOCTYPE svg PUBLIC "-//W3C//DTD SVG 1.0//EN" "http://www.w3.org/TR/2001/REC-SVG-20010904/DTD/svg10.dtd" []><svg xmlns="http://www.w3.org/2000/svg" xmlns:xlink="http://www.w3.org/1999/xlink" height="36" stroke="#000" stroke-linecap="square" stroke-miterlimit="10" viewBox="0 0 235.07 35.91" width="235"><g><g fill="#FF00A4" stroke="none"><path d="M7.05 17.75h6.88c4.03 0 5.73-2.13 5.73-5.29 0-3.37-2.22-5.25-5.58-5.25H7.05ZM5 5.36h9.03c4.62 0 7.8 2.56 7.8 7.03 0 4.55-3.15 7.21-8.05 7.21H7.05V30.55H5Z"/><path d="M29.34 16.97h6.05c4.4 0 6.43-1.64 6.43-4.93 0-3.07-2-4.82-5.9-4.82H29.34Zm0 1.85V30.55H27.29V5.36h9.08c4.98 0 7.61 2.67 7.61 6.63 0 3.21-1.9 5.29-4.69 5.9 2.56.61 4.29 2.29 4.29 6.58v.98c0 1.76-.14 4.13.32 5.1H41.85c-.47-1.08-.37-3.09-.37-5.26v-.64c0-4.11-1.21-5.83-6.02-5.83Z"/><path d="M50.94 17.85c0 5.77 3.18 11.21 9.19 11.21 6.48 0 9.19-5.3 9.19-11.24 0-5.84-3.07-10.96-9.12-10.96-6.44 0-9.26 5.32-9.26 10.99m20.55-.07c0 6.88-3.68 13.13-11.46 13.13-7.11 0-11.24-5.72-11.24-12.96C48.78 10.83 52.79 5 60.28 5c6.92 0 11.21 5.43 11.21 12.78"/><path d="M79.38 28.7h6.04c6.62 0 9.87-4.65 9.87-10.85 0-5.51-2.93-10.63-9.87-10.63H79.38ZM77.36 5.36h8.38c6.92 0 11.7 4.82 11.7 12.38 0 7.52-4.68 12.81-11.74 12.81H77.36Z"/><path d="M105.47 5.36V20.61c0 6.65 3.75 8.37 7.29 8.37 4.19 0 7.29-1.76 7.29-8.37V5.36h2.05V20.5c0 7.89-4.19 10.34-9.42 10.34-4.98 0-9.31-2.69-9.31-10.02V5.36Z"/><path d="M148.39 23.8c-1.18 4.01-4.15 7.04-9.49 7.04-7.25 0-11.06-5.76-11.06-12.85 0-6.8 3.74-12.99 11.1-12.99 5.46 0 8.67 3.04 9.49 7.25h-2.02c-1.14-3.25-3.24-5.4-7.58-5.4-6.22 0-8.83 5.68-8.83 11.1 0 5.37 2.57 11.03 8.98 11.03 4.09 0 6.16-2.13 7.4-5.19Z"/><path d="M159.51 7.22h-8.44V5.36h18.96V7.22h-8.47V30.55h-2.05Z"/><path d="M174.13 30.55h2.02V5.36h-2.02Z" fill-rule="evenodd"/><path d="M184.18 17.85c0 5.77 3.18 11.21 9.19 11.21 6.48 0 9.19-5.3 9.19-11.24 0-5.84-3.07-10.96-9.12-10.96-6.44 0-9.26 5.32-9.26 10.99m20.54-.07c0 6.88-3.68 13.13-11.46 13.13-7.11 0-11.24-5.72-11.24-12.96 0-7.13 4.01-12.95 11.5-12.95 6.92 0 11.21 5.43 11.21 12.78"/><path d="M210.59 30.55V5.36h2.96c3.9 6.04 13.05 20.02 14.62 22.76h.04c-.22-3.61-.18-7.33-.18-11.44V5.36h2.04V30.55h-2.74c-3.72-5.81-13.01-20.39-14.8-23.17h-.04c.18 3.29.15 6.99.15 11.56V30.55Z"/></g></g></svg>