<?xml version="1.0" encoding="UTF-8"?><!DOCTYPE svg PUBLIC "-//W3C//DTD SVG 1.0//EN" "http://www.w3.org/TR/2001/REC-SVG-20010904/DTD/svg10.dtd" []><svg xmlns="http://www.w3.org/2000/svg" xmlns:xlink="http://www.w3.org/1999/xlink" height="76" stroke="#000" stroke-linecap="square" stroke-miterlimit="10" viewBox="0 0 156.61 76.31" width="157"><defs><clipPath id="a"><path d="M0 0V76.31H156.61V0Z"/></clipPath><clipPath clip-path="url(#a)" id="b"><path d="M-677.54 442.11H282.58v-540H-677.54Z"/></clipPath><clipPath clip-path="url(#b)" id="c"><path d="M-677.54 442.11H282.47v-540H-677.54Z"/></clipPath></defs><g><g fill="#fff" stroke="none"><path clip-path="url(#c)" d="M25.68 40.18H8.39v-16H5v31H8.39V42.37H25.68v12.8h3.39v-31H25.68Z"/><path clip-path="url(#c)" d="M53.89 46.9c-9.06 0-16.4-9.12-16.4-20.38S44.83 6.13 53.89 6.13s16.39 9.12 16.39 20.38S62.95 46.9 53.89 46.9m0-41.9C42.67 5 33.57 14.63 33.57 26.51s9.1 21.52 20.32 21.52S74.21 38.4 74.21 26.51 65.11 5 53.89 5"/><path clip-path="url(#c)" d="M56.6 56.69c0-1.51-1.22-2.73-2.73-2.73s-2.73 1.22-2.73 2.73 1.22 2.73 2.73 2.73 2.73-1.22 2.73-2.73"/><path clip-path="url(#c)" d="M41.49 70.67c-.7 0-.91-.66-.91-1.29 0-.68.25-1.27.89-1.27.49 0 .68.29.76.57h.78c-.09-.62-.55-1.2-1.51-1.2-1.16 0-1.72.91-1.72 1.93 0 1.06.54 1.89 1.68 1.89.9 0 1.41-.51 1.55-1.2h-.78c-.07.22-.23.57-.74.57"/><path clip-path="url(#c)" d="M44.84 69.73c.21-.67.39-1.26.47-1.62h.01c.09.34.25.84.51 1.62Zm.01-2.2l-1.22 3.72h.77l.28-.86H46l.3.86h.82l-1.28-3.72Z"/><path clip-path="url(#c)" d="M47.21 68.19h1.1v3.06h.78V68.19h1.09v-.66H47.21Z"/><path clip-path="url(#c)" d="M51.81 69.64h1.73v-.66H51.81v-.8h1.8v-.66H51.06v3.72h2.57l.09-.66h-1.9Z"/><path clip-path="url(#c)" d="M56.08 69.12h-.65v-.95h.67c.38 0 .57.17.57.47s-.16.48-.59.48m1.38-.57c0-.57-.42-1.02-1.21-1.02H54.66v3.72h.76V69.76h.51c.58 0 .68.19.68.6v.05c0 .4.01.67.08.84h.74c-.05-.17-.05-.46-.05-.71v-.18c0-.67-.27-.86-.45-.93.26-.11.52-.38.52-.88"/><path clip-path="url(#c)" d="M58.54 71.25h.78V67.53h-.78Z" fill-rule="evenodd"/><path clip-path="url(#c)" d="M62.96 68.63c0 .61 0 1.26.04 1.64h-.01c-.17-.41-1-1.91-1.45-2.75h-.97v3.72h.71V70.12c0-.67-.01-1.43-.03-1.76h.01c.18.43 1.1 2.16 1.49 2.89h.92V67.53h-.71Z"/><path clip-path="url(#c)" d="M66.5 68.11c.53 0 .72.29.79.54h.78c-.09-.64-.63-1.18-1.56-1.18-1.14 0-1.77.84-1.77 1.96 0 1.06.59 1.88 1.63 1.88.5 0 .85-.15 1.05-.43.01.12.03.25.06.37h.57V69.17H66.5v.66h.79v.03c0 .33-.12.81-.79.81-.72 0-.96-.63-.96-1.27 0-.66.21-1.29.95-1.29"/><path clip-path="url(#c)" d="M146.31 21.66h-.61V20.13h.61c.63 0 .97.18.97.72s-.34.81-.97.81m2.14-.81c0-1.3-.92-1.7-2.04-1.7h-1.9V24.6h1.19V22.64h.66l1.01 1.96h1.34l-1.2-2.18c.56-.26.94-.77.94-1.57"/><path clip-path="url(#c)" d="M146.32 26.35c-2.42 0-4.39-1.97-4.39-4.39s1.97-4.39 4.39-4.39 4.39 1.97 4.39 4.39-1.97 4.39-4.39 4.39m0-9.67c-2.91 0-5.29 2.37-5.29 5.29s2.37 5.29 5.29 5.29 5.29-2.37 5.29-5.29-2.37-5.29-5.29-5.29"/><path clip-path="url(#c)" d="M104.83 49.86l-7.22-25.7H95.55L87.77 49.94 82.01 25.66c-.21-.88-1.01-1.49-1.91-1.46l-1.68.05 7.93 30.93h1.9l7.53-25.22 7.68 25.14h2l8.16-30.88H111.8Z"/><path clip-path="url(#c)" d="M137.61 41.9c-2.12-1.54-11.05-4-14.74-6.1-3.33-1.89-3.86-4.52-3.03-6.43s3.6-4.04 8.56-3.8c6.85.32 9.91 4.51 9.91 4.51l1.36-1.39c0 0-1.12-1.34-2.91-2.45s-4.62-2.18-8.7-2.21c-5.17-.03-7.84.98-10.2 3.29-1.9 1.86-2.31 5.27-1.12 7.5 1.42 2.68 5.1 4.53 7.52 5.42s7.59 2.21 10.88 4.25c2.63 1.63 2.65 3.56 2.24 5.13s-3.1 3.37-4.99 3.81c-2.5.58-6.48.31-8.73-.22-3.48-.82-6.16-3.93-6.16-3.93l-1.29 1.43c0 0 2.73 2.55 5.57 3.66 3.19 1.24 7.17 1.18 9.99.85 2.23-.26 7.43-1.66 8.77-5.29 1.53-4.17-.68-6.43-2.92-8.05"/></g></g></svg>