<?xml version="1.0" encoding="UTF-8"?><!DOCTYPE svg PUBLIC "-//W3C//DTD SVG 1.0//EN" "http://www.w3.org/TR/2001/REC-SVG-20010904/DTD/svg10.dtd" []><svg xmlns="http://www.w3.org/2000/svg" xmlns:xlink="http://www.w3.org/1999/xlink" height="105" stroke="#000" stroke-linecap="square" stroke-miterlimit="10" viewBox="0 0 265.11 104.66" width="265"><defs><clipPath id="a"><path d="M0 0V104.66H265.11V0Z"/></clipPath><clipPath clip-path="url(#a)" id="b"><path d="M-622.43 213.87H337.69V-326.25H-622.43Z"/></clipPath><clipPath clip-path="url(#b)" id="c"><path d="M-622.4 213.81H337.61v-540H-622.4Z"/></clipPath></defs><g><g fill="#fff" stroke="none"><path clip-path="url(#c)" d="M17.57 12.93H5V5.6H39.04v7.33H26.52V46.96H17.57Z"/><path clip-path="url(#c)" d="M73.65 29.12H53.86V39.63H75.69l-1.06 7.33H45.18V5.6H74.51v7.33H53.86v8.86H73.65Z"/><path clip-path="url(#c)" d="M118.46 34.21c-1.66 7.72-7.48 13.34-17.84 13.34-13.12 0-19.32-9.28-19.32-21.05C81.3 15.16 87.7 5 101.05 5c11.01 0 16.35 6.47 17.36 13.38h-8.94c-.86-3.19-3.08-6.37-8.71-6.37-7.38 0-10.22 6.64-10.22 14.16 0 6.99 2.47 14.36 10.46 14.36 5.84 0 7.68-3.91 8.46-6.32Z"/><path clip-path="url(#c)" d="M125.94 5.6h8.94V21.73h16.64V5.6h8.94V46.96h-8.94V29.07H134.89v17.9h-8.94Z"/><path clip-path="url(#c)" d="M168.64 35.27h16.7V27.79h-16.7Z" fill-rule="evenodd"/><path clip-path="url(#c)" d="M9.3 98.97V57.6H20.39c5.17 9.29 14.72 26.04 16.62 30.55h.11c-.47-4.32-.46-11.5-.46-18.29V57.6h8.11V98.97H34.25c-4.44-8.08-15.03-27.33-17.07-32.1h-.11c.3 3.62.4 12.12.4 19.52V98.97Z"/><path clip-path="url(#c)" d="M62.4 78.1c0 8.07 3.54 14.18 10.88 14.18 7.95 0 10.77-6.66 10.77-14.03 0-7.82-3.21-13.98-10.92-13.98-7.47 0-10.73 5.77-10.73 13.82m30.89.04c0 11.51-6.91 21.42-20.35 21.42-12.98 0-19.78-9.43-19.78-21.28C53.16 66.25 60.66 57 73.51 57c12.1 0 19.77 8.48 19.77 21.14"/><path clip-path="url(#c)" d="M101.7 57.6h8.94V91.64h20.6l-1.02 7.33H101.7Z"/><path clip-path="url(#c)" d="M143.7 78.1c0 8.07 3.54 14.18 10.88 14.18 7.95 0 10.77-6.66 10.77-14.03 0-7.82-3.21-13.98-10.92-13.98-7.47 0-10.73 5.77-10.73 13.82m30.89.04c0 11.51-6.91 21.42-20.35 21.42-12.98 0-19.78-9.43-19.78-21.28 0-12.04 7.51-21.28 20.35-21.28 12.1 0 19.77 8.48 19.77 21.14"/><path clip-path="url(#c)" d="M218.99 98.97h-6.55c-.35-1.27-.57-2.69-.68-4.08-2.29 3.09-6.33 4.77-12.08 4.77-12.01 0-18.71-9.07-18.71-20.85 0-12.43 7.23-21.8 20.27-21.8 10.64 0 16.91 6.01 17.91 13.06H210.2c-.85-2.77-3.03-6.05-9.09-6.05-8.49 0-10.92 7.1-10.92 14.4 0 7.12 2.77 14.13 10.97 14.13 7.65 0 9.06-5.31 9.06-9.01v-.37h-9.07V75.82h17.84Z"/><path clip-path="url(#c)" d="M236.37 98.97V84.35c0-.47-.07-.89-.35-1.33L221.77 57.6h10.12c3.2 6.24 7.35 14.54 9.41 19.03 1.8-4.33 6.33-13.04 9.46-19.03h9.36L245.66 82.89c-.17.29-.34.48-.34 1.32V98.97Z"/></g></g></svg>