<?xml version="1.0" encoding="UTF-8"?><!DOCTYPE svg PUBLIC "-//W3C//DTD SVG 1.0//EN" "http://www.w3.org/TR/2001/REC-SVG-20010904/DTD/svg10.dtd" []><svg xmlns="http://www.w3.org/2000/svg" xmlns:xlink="http://www.w3.org/1999/xlink" height="20" stroke="#000" stroke-linecap="square" stroke-miterlimit="10" viewBox="0 0 49.45 19.68" width="49"><g><g fill="#fff" stroke="#fff"><path d="M49.07 14.99H46.5l.42-1.69H41.77l-.42 1.69H38.86v-.35l.03-.14.03-.15.06-.31.09-.34.05-.17.06-.16.06-.17.07-.17.07-.16.07-.16.08-.16.08-.15.09-.16.2-.29.1-.14.11-.13.11-.13.12-.12.12-.11.13-.11.13-.11.14-.1.15-.09.15-.08.15-.08.16-.07.16-.06.17-.05.17-.04.18-.04.18-.03.19-.02.19 0 .15 0 .15.01.15.02.15.03.07.02.13.04.06.03.06.03.06.04.06.04.06.04.05.05.05.05.05.05.09.11.04.06.03.07.03.07.03.07.02.08.02.08.02.09 0 .09v.19l-.01.1h3.07l.05-.21.04-.24.02-.13.01-.14.01-.14v-.14l-.01-.15-.02-.16-.02-.07-.01-.08-.04-.16-.02-.08-.03-.08-.03-.08-.04-.08-.04-.08-.09-.16-.05-.08-.06-.08-.07-.08-.07-.08-.07-.07-.08-.07-.08-.07-.08-.06-.09-.06-.09-.06-.09-.05-.1-.05-.1-.05-.1-.05-.11-.05-.11-.04-.12-.04-.11-.04-.12-.03-.12-.03-.13-.03-.26-.05-.14-.02-.43-.05L44 8.38l-.31-.01-.31 0-.48.01-.26.02-.27.02-.28.03-.28.04-.29.05-.29.06-.15.03-.15.04-.15.04-.15.04-.15.05-.3.1-.15.06-.15.06-.15.07-.15.07-.15.07-.15.08-.29.17-.15.09V.39H49.07v14.6Zm-6.02 2.47l-.22.04-.22.03-.22.03-.22.03-.21.02-.22.02-.21.01h-.34l-.14-.01-.13-.01-.13-.02-.13-.02-.12-.02-.12-.03-.12-.03-.11-.04-.11-.04-.1-.05-.1-.05-.1-.06-.09-.06-.09-.06-.08-.06-.08-.07-.07-.08-.07-.08-.07-.09-.06-.09-.06-.1-.05-.1-.05-.1-.04-.11-.04-.12-.06-.24-.02-.13-.02-.13-.01-.14 0-.14h4.75l-.52 2.08ZM37.16 9.11l0 2.1-.13.18-.12.19-.12.19-.11.19-.1.19-.1.19-.18.37-.08.18-.07.19-.07.18-.06.18-.06.18-.05.17-.05.17-.07.27-.03.11-.03.11-.02.11-.02.11-.02.11-.02.11-.01.11h-1.5l1.28-6.03-4.31 0-3.86 6.03h-.28V.39h10.2V9.11Zm-5.7 5.87H29.94l2.32-3.62ZM25.28 8.94H22.73l-1.75 6.04h-2.7l.37-.16.12-.06.12-.06.11-.07.11-.06.11-.07.1-.07.1-.07.09-.07.09-.08.09-.08.08-.09.08-.08.08-.09.08-.09.07-.1.07-.09.07-.1.06-.1.06-.1.06-.11.1-.23.05-.11.04-.12.04-.12.03-.12.04-.12.03-.13.03-.13.04-.21.03-.2.02-.19.02-.18.01-.18-.01-.16-.01-.16-.02-.15-.02-.14-.04-.14-.04-.13-.05-.12-.06-.12-.06-.12-.07-.11-.08-.1-.07-.07-.07-.07-.07-.06-.08-.06-.08-.06-.08-.05-.09-.05-.09-.04-.09-.04-.09-.03-.1-.03-.1-.03-.1-.03-.1-.02-.1-.02-.11-.02-.22-.03-.45-.03-.23 0H15.08V.39H25.28V8.94Zm-1.63 6.04l1.07-3.78.04 3.78Zm-7.42-1.44l-.23.01h-.29l-.09 0h-.08l-.65 0 .3-1.11.14-.55.34-1.29h.22l.11 0h.61l.31 0 .41.01.12.01.22.03.09.02.09.03.08.03.07.03.06.03.06.04.05.04.04.05.03.04.02.04.02.05.02.05.01.06.01.06v.13l-.01.07 0 .07-.02.08-.02.08-.05.18-.06.2-.06.16-.06.16-.07.15-.07.14-.07.12-.04.06-.05.06-.05.06-.05.05-.05.05-.05.05-.06.04-.06.05-.06.04-.07.04-.07.04-.15.06-.08.03-.08.03-.09.02-.19.04-.1.02-.1.02-.11.01ZM13.39 9.48l-.16.52-1.52 4.98H6.91l-.37-.79 5.17-5.24H8.39L4.34 13.28 5.65 8.96H3.2V.39H13.39ZM3.82 14.99ZM38.47 0V9.82l-.12.1-.12.1-.12.11-.11.11-.11.11-.11.11-.21.23V0H26.58V8.94h-.91V0H14.69V8.96h-.91V0H2.8V10.21L0 19.47H2.46l1.24-4.1h.36l2.05 4.1H9.08L7.1 15.37h4.5l-1.25 4.1h2.69l1.23-4.09h.59v-.01h5.99l-1.19 4.09h2.72l1.15-4.09h1.22l.03 4.09h2.28l2.62-4.09h1.71l-.89 4.09h2.67l.87-4.09H35.6l-.01.23 0 .24.01.23.02.23.02.11.02.11.04.22.03.11.03.1.03.1.03.1.04.1.04.1.04.1.04.09.05.1.05.09.05.09.05.09.06.09.06.08.06.09.07.08.07.08.07.08.08.08.08.07.1.08.1.08.1.08.22.14.11.07.11.06.12.06.12.05.12.05.12.05.13.05.12.04.25.07.13.03.25.06.25.04.25.04.25.03.25.02.47.02h.22l.61-.01.62-.03.62-.05.31-.03.31-.04.31-.04.31-.05.63-.1.31-.06.63-.12.32-.07.93-3.71h3.05V0H38.47Zm0 0" stroke="none"/></g></g></svg>