<?xml version="1.0" encoding="UTF-8"?><!DOCTYPE svg PUBLIC "-//W3C//DTD SVG 1.0//EN" "http://www.w3.org/TR/2001/REC-SVG-20010904/DTD/svg10.dtd" []><svg xmlns="http://www.w3.org/2000/svg" xmlns:xlink="http://www.w3.org/1999/xlink" height="53" stroke="#000" stroke-linecap="square" stroke-miterlimit="10" viewBox="0 0 218.87 52.55" width="219"><defs><clipPath id="a"><path d="M0 0V52.55H218.87V0Z"/></clipPath><clipPath clip-path="url(#a)" id="b"><path d="M-665.47 237.49H294.65v-540H-665.47Z"/></clipPath></defs><g><g fill="#fff" stroke="none"><path clip-path="url(#b)" d="M42.16 34.21c-1.66 7.72-7.48 13.34-17.84 13.34C11.2 47.55 5 38.27 5 26.5 5 15.16 11.4 5 24.75 5 35.76 5 41.1 11.47 42.11 18.38H33.17c-.86-3.19-3.08-6.37-8.71-6.37-7.38 0-10.23 6.63-10.23 14.16 0 6.99 2.47 14.36 10.46 14.36 5.84 0 7.68-3.91 8.46-6.32Z"/><path clip-path="url(#b)" d="M58.38 23.29h7.5c4.9 0 6.79-1.86 6.79-5.32 0-3.36-2.2-5.25-6.57-5.25H58.38Zm0 7.12V46.96H49.64V5.6H67.82c9.02 0 13.87 4.97 13.87 11.36 0 5.55-3.02 8.56-6.01 9.79 2.05.76 5.14 2.89 5.14 10.29v2.04c0 2.78.03 5.95.59 7.89H72.94c-.73-1.8-.86-4.9-.86-9.29v-.61c0-4.52-1.14-6.66-7.81-6.66Z"/><path clip-path="url(#b)" d="M118.73 29.12H98.94V39.63h21.82l-1.06 7.33H90.26V5.6h29.33v7.33H98.94v8.86h19.78Z"/><path clip-path="url(#b)" d="M150.2 30.08c-2.94-8.73-4.81-14.31-5.81-18.02h-.06c-1.02 4.08-3.09 10.57-5.44 18.02Zm-13.19 7.33l-3.23 9.55h-8.79L139.04 5.6h11.23l14.65 41.37h-9.4l-3.4-9.55Z"/><path clip-path="url(#b)" d="M174.78 12.93H162.22V5.6h34.04v7.33H183.74V46.96h-8.95Z"/><path clip-path="url(#b)" d="M197.16 35.27h16.7V27.79h-16.7Z" fill-rule="evenodd"/></g></g></svg>