<?xml version="1.0" encoding="UTF-8"?><!DOCTYPE svg PUBLIC "-//W3C//DTD SVG 1.0//EN" "http://www.w3.org/TR/2001/REC-SVG-20010904/DTD/svg10.dtd" []><svg xmlns="http://www.w3.org/2000/svg" xmlns:xlink="http://www.w3.org/1999/xlink" height="34" stroke="#000" stroke-linecap="square" stroke-miterlimit="10" viewBox="0 0 473.69 33.62" width="474"><defs><clipPath id="a"><path d="M0 0V33.62H473.69V0Z"/></clipPath><clipPath clip-path="url(#a)" id="b"><path d="M-393.79 441.67H566.33v-540H-393.79Z"/></clipPath></defs><g><g fill="#fff" stroke="none"><path clip-path="url(#b)" d="M9.63 9.9c-.86-2.29-1.3-3.39-1.45-3.9H8.17c-.19.58-.68 1.95-1.38 3.9Zm-3.05.55l-.98 2.66H5l2.83-7.7h.7l2.95 7.7h-.65l-1-2.66Z"/><path clip-path="url(#b)" d="M12.78 8.99c0-.48 0-.95-.01-1.39h.54c.02.18.03.89.02 1.04.24-.56.69-1.18 1.83-1.18.98 0 1.85.55 1.85 2.07v3.56h-.55V9.63c0-.98-.41-1.62-1.36-1.62-1.31 0-1.76 1.09-1.76 2.29v2.8h-.55Z"/><path clip-path="url(#b)" d="M22.59 10.36c0 1.31.7 2.37 1.87 2.37 1.19 0 1.86-.98 1.86-2.37 0-1.3-.66-2.37-1.88-2.37-1.25 0-1.85 1.05-1.85 2.37m4.31-.01c0 1.53-.85 2.89-2.49 2.89-1.48 0-2.41-1.22-2.41-2.88 0-1.57.87-2.88 2.46-2.88 1.46 0 2.43 1.15 2.43 2.87"/><path clip-path="url(#b)" d="M28.37 9.1c0-.92-.01-1.32-.01-1.5h.54c.01.18.02.53.02 1.23.32-.83 1.02-1.32 1.91-1.36v.59c-1.14.08-1.91.87-1.91 2.18v2.86h-.55Z"/><path clip-path="url(#b)" d="M36.01 11.49c-.26.97-.9 1.75-2.14 1.75-1.38 0-2.35-1.02-2.35-2.86 0-1.51.8-2.9 2.42-2.9 1.4 0 1.97.99 2.07 1.76h-.56c-.17-.64-.58-1.24-1.52-1.24-1.17 0-1.83.99-1.83 2.37 0 1.31.62 2.37 1.77 2.37.8 0 1.29-.41 1.57-1.23Z"/><path clip-path="url(#b)" d="M37.94 5V8.53c.31-.57.85-1.06 1.82-1.06.78 0 1.86.4 1.86 2.14v3.5h-.55V9.72c0-1.09-.49-1.71-1.41-1.71-1.09 0-1.72.67-1.72 2.02v3.07h-.55V5Z"/><path clip-path="url(#b)" d="M43.53 7.61h.55v5.5h-.55Zm0-2.61h.55V6.07h-.55Z"/><path clip-path="url(#b)" d="M46.14 10.4c0 1.51.78 2.32 1.73 2.32 1.45 0 1.85-1 1.85-2.5 0-1.42-.34-2.23-1.75-2.23-1.09 0-1.83.87-1.83 2.41M50.24 5v6.52c0 .53 0 1.03.01 1.58h-.53c-.02-.13-.03-.65-.03-.92-.28.67-.89 1.06-1.85 1.06-1.43 0-2.29-1.17-2.29-2.82 0-1.69.94-2.95 2.43-2.95 1.1 0 1.54.47 1.71.83V5Z"/><path clip-path="url(#b)" d="M55.83 10.4c0 1.51.78 2.32 1.73 2.32 1.45 0 1.85-1 1.85-2.5 0-1.42-.34-2.23-1.75-2.23-1.09 0-1.83.87-1.83 2.41M59.93 5v6.52c0 .53 0 1.03.01 1.58h-.53c-.02-.13-.03-.65-.03-.92-.28.67-.89 1.06-1.85 1.06-1.43 0-2.29-1.17-2.29-2.82 0-1.69.94-2.95 2.43-2.95 1.1 0 1.54.47 1.71.83V5Z"/><path clip-path="url(#b)" d="M61.99 10.36c0 1.31.7 2.37 1.87 2.37 1.19 0 1.86-.98 1.86-2.37 0-1.3-.66-2.37-1.88-2.37-1.25 0-1.85 1.05-1.85 2.37m4.31-.01c0 1.53-.85 2.89-2.49 2.89-1.49 0-2.41-1.22-2.41-2.88 0-1.57.87-2.88 2.46-2.88 1.46 0 2.43 1.15 2.43 2.87"/><path clip-path="url(#b)" d="M71.45 9.94c-.01-1.09-.61-1.95-1.68-1.95-1.13 0-1.65.79-1.77 1.95Zm-3.49.48c.01 1.42.72 2.3 1.78 2.3 1.03 0 1.39-.58 1.58-1.03h.56c-.23.72-.81 1.55-2.17 1.55-1.67 0-2.32-1.44-2.32-2.84 0-1.57.78-2.93 2.39-2.93 1.69 0 2.23 1.46 2.23 2.5 0 .15 0 .31-.01.45Z"/><path clip-path="url(#b)" d="M73.6 11.59c.19.72.69 1.14 1.56 1.14.98 0 1.38-.45 1.38-1.07 0-.63-.27-.93-1.5-1.23-1.42-.34-1.77-.77-1.77-1.5 0-.76.57-1.46 1.82-1.46s1.84.76 1.92 1.54h-.55c-.1-.46-.46-1.03-1.4-1.03-.96 0-1.23.47-1.23.91 0 .51.26.76 1.35 1.02 1.55.37 1.94.88 1.94 1.7 0 1-.82 1.62-1.97 1.62-1.25 0-1.96-.66-2.11-1.65Z"/><path clip-path="url(#b)" d="M78.52 8.99c0-.48 0-.95-.01-1.39h.54c.02.18.03.89.02 1.04.24-.56.69-1.18 1.83-1.18.98 0 1.85.55 1.85 2.07v3.56h-.55V9.63c0-.98-.41-1.62-1.36-1.62-1.31 0-1.76 1.09-1.76 2.29v2.8h-.55Z"/><path clip-path="url(#b)" d="M83.86 7.66c.3-.87.47-2.09.5-2.66h.56c-.06.83-.34 2.09-.57 2.66Z"/><path clip-path="url(#b)" d="M85.79 7.61h1.02V5.89h.55V7.61h1.31v.52H87.36V11.7c0 .62.13.97.66.97.17 0 .4-.01.57-.07v.48c-.19.08-.45.1-.68.1-.7 0-1.1-.35-1.1-1.23V8.13H85.79Z"/><path clip-path="url(#b)" d="M97.54 10.25c0-1.38-.68-2.26-1.73-2.26-1.38 0-1.86.93-1.86 2.38 0 1.3.43 2.35 1.79 2.35 1.11 0 1.79-.92 1.79-2.48M93.43 5h.55V8.53c.26-.55.8-1.06 1.88-1.06 1.3 0 2.26 1.07 2.26 2.76 0 1.74-.86 3-2.4 3-.92 0-1.45-.37-1.74-1 0 .35-.01.71-.02.87h-.54c.01-.63.01-1.25.01-1.88Z"/><path clip-path="url(#b)" d="M99.59 13.11h.55V5h-.55Z" fill-rule="evenodd"/><path clip-path="url(#b)" d="M102.2 10.36c0 1.31.7 2.37 1.87 2.37 1.19 0 1.86-.98 1.86-2.37 0-1.3-.66-2.37-1.88-2.37-1.25 0-1.85 1.05-1.85 2.37m4.31-.01c0 1.53-.85 2.89-2.49 2.89-1.48 0-2.41-1.22-2.41-2.88 0-1.57.87-2.88 2.46-2.88 1.46 0 2.43 1.15 2.43 2.87"/><path clip-path="url(#b)" d="M108.2 10.36c0 1.31.7 2.37 1.87 2.37 1.19 0 1.86-.98 1.86-2.37 0-1.3-.66-2.37-1.88-2.37-1.25 0-1.85 1.05-1.85 2.37m4.31-.01c0 1.53-.85 2.89-2.49 2.89-1.48 0-2.41-1.22-2.41-2.88 0-1.57.87-2.88 2.46-2.88 1.46 0 2.43 1.15 2.43 2.87"/><path clip-path="url(#b)" d="M113.98 9.03c0-.47 0-.99-.01-1.42h.54c.01.19.03.66.02.98.23-.55.74-1.11 1.65-1.11.77 0 1.38.39 1.6 1.09.27-.57.83-1.09 1.79-1.09.85 0 1.73.49 1.73 2.01v3.62h-.55V9.55c0-.74-.26-1.54-1.29-1.54-1.07 0-1.55.86-1.55 1.93v3.17h-.54V9.57c0-.8-.24-1.55-1.26-1.55-1.07 0-1.58.95-1.58 2.07v3.02h-.55Z"/><path clip-path="url(#b)" d="M126.88 10.36c0 1.31.7 2.37 1.87 2.37 1.19 0 1.86-.98 1.86-2.37 0-1.3-.66-2.37-1.88-2.37-1.25 0-1.85 1.05-1.85 2.37m4.31-.01c0 1.53-.85 2.89-2.49 2.89-1.48 0-2.41-1.22-2.41-2.88 0-1.57.87-2.88 2.46-2.88 1.46 0 2.43 1.15 2.43 2.87"/><path clip-path="url(#b)" d="M132.59 7.61c.89 2.52 1.51 4.23 1.72 4.94h.01c.12-.41.74-2.05 1.8-4.94h.58l-2.08 5.5h-.66l-1.96-5.5Z"/><path clip-path="url(#b)" d="M141.5 9.94c-.01-1.09-.6-1.95-1.68-1.95-1.13 0-1.65.79-1.77 1.95Zm-3.49.48c.01 1.42.73 2.3 1.78 2.3 1.03 0 1.39-.58 1.58-1.03h.56c-.23.72-.81 1.55-2.17 1.55-1.67 0-2.32-1.44-2.32-2.84 0-1.57.78-2.93 2.39-2.93 1.69 0 2.23 1.46 2.23 2.5 0 .15 0 .31-.01.45Z"/><path clip-path="url(#b)" d="M143.53 9.1c0-.92-.01-1.32-.01-1.5h.54c.01.18.02.53.02 1.23.32-.83 1.02-1.32 1.91-1.36v.59c-1.14.08-1.91.87-1.91 2.18v2.86h-.55Z"/><path clip-path="url(#b)" d="M147.08 8.99c0-.48 0-.95-.01-1.39h.54c.02.18.03.89.02 1.04.24-.56.69-1.18 1.83-1.18.98 0 1.85.55 1.85 2.07v3.56h-.55V9.63c0-.98-.41-1.62-1.36-1.62-1.31 0-1.76 1.09-1.76 2.29v2.8h-.55Z"/><path clip-path="url(#b)" d="M153.22 7.61h.55v5.5h-.55Zm0-2.61h.55V6.07h-.55Z"/><path clip-path="url(#b)" d="M155.82 10.34c0 1.31.69 2.26 1.75 2.26 1.38 0 1.79-.91 1.79-2.34 0-1.45-.44-2.26-1.76-2.26-1.26 0-1.78 1.09-1.78 2.34m4.06 2.4c0 1.76-.78 2.68-2.38 2.68-1.43 0-2.03-.8-2.16-1.64h.56c.2.76.83 1.12 1.62 1.12 1.43 0 1.83-.92 1.83-2.32v-.57c-.3.72-.84 1.1-1.84 1.1-1.29 0-2.28-1.04-2.28-2.75 0-1.85 1.06-2.88 2.35-2.88 1.12 0 1.61.53 1.76.97.01-.32.02-.71.03-.84h.52c0 .2-.02 1.07-.02 1.6Z"/><path clip-path="url(#b)" d="M162.35 5V8.53c.31-.57.85-1.06 1.82-1.06.78 0 1.86.4 1.86 2.14v3.5h-.55V9.72c0-1.09-.49-1.71-1.41-1.71-1.09 0-1.72.67-1.72 2.02v3.07h-.55V5Z"/><path clip-path="url(#b)" d="M167.08 7.61h1.02V5.89h.55V7.61h1.31v.52h-1.31V11.7c0 .62.13.97.66.97.16 0 .4-.01.57-.07v.48c-.19.08-.45.1-.68.1-.7 0-1.1-.35-1.1-1.23V8.13h-1.02Z"/><path clip-path="url(#b)" d="M171.17 13.11h.55V11.69h-.55Z" fill-rule="evenodd"/><path clip-path="url(#b)" d="M177.1 13.11h.59V5.41h-.59Z" fill-rule="evenodd"/><path clip-path="url(#b)" d="M178.95 7.61h1.02V5.89h.55V7.61h1.31v.52h-1.31V11.7c0 .62.13.97.66.97.17 0 .4-.01.57-.07v.48c-.19.08-.45.1-.68.1-.7 0-1.1-.35-1.1-1.23V8.13h-1.02Z"/><path clip-path="url(#b)" d="M186.6 9.1c0-.92-.01-1.32-.01-1.5h.54c.01.18.02.53.02 1.23.32-.83 1.02-1.32 1.91-1.36v.59c-1.14.08-1.91.87-1.91 2.18v2.86h-.55Z"/><path clip-path="url(#b)" d="M193.79 9.94c-.01-1.09-.6-1.95-1.68-1.95-1.13 0-1.65.79-1.77 1.95Zm-3.49.48c.01 1.42.73 2.3 1.78 2.3 1.03 0 1.39-.58 1.58-1.03h.56c-.23.72-.81 1.55-2.17 1.55-1.67 0-2.32-1.44-2.32-2.84 0-1.57.78-2.93 2.39-2.93 1.69 0 2.23 1.46 2.23 2.5 0 .15 0 .31-.01.45Z"/><path clip-path="url(#b)" d="M196.01 10.39c0 1.2.57 2.33 1.78 2.33 1.36 0 1.81-.91 1.81-2.4 0-1.45-.37-2.32-1.76-2.32-1.18 0-1.83 1-1.83 2.39m3.56 1.78c-.26.63-.78 1.07-1.88 1.07-1.27 0-2.27-1.05-2.27-2.82 0-1.9 1.12-2.95 2.41-2.95 1.12 0 1.61.55 1.74.96-.01-.24.01-.54.02-.82h.53c-.01.65-.01 1.02-.01 1.53v6.17h-.54Z"/><path clip-path="url(#b)" d="M206.14 11.5c0 .54.01 1.4.01 1.61h-.53c-.02-.14-.03-.51-.03-.96-.23.65-.79 1.09-1.77 1.09-.79 0-1.8-.31-1.8-1.99V7.61h.54v3.51c0 .8.25 1.58 1.34 1.58 1.23 0 1.69-.69 1.69-2.27V7.61h.55Z"/><path clip-path="url(#b)" d="M208.06 7.61h.55v5.5h-.55Zm0-2.61h.55V6.07h-.55Z"/><path clip-path="url(#b)" d="M210.52 9.1c0-.92-.01-1.32-.01-1.5h.54c.01.18.02.53.02 1.23.32-.83 1.02-1.32 1.91-1.36v.59c-1.14.08-1.91.87-1.91 2.18v2.86h-.55Z"/><path clip-path="url(#b)" d="M217.71 9.94c-.01-1.09-.6-1.95-1.68-1.95-1.13 0-1.65.79-1.77 1.95Zm-3.49.48c.01 1.42.72 2.3 1.78 2.3 1.03 0 1.39-.58 1.58-1.03h.56c-.23.72-.81 1.55-2.17 1.55-1.67 0-2.32-1.44-2.32-2.84 0-1.57.78-2.93 2.39-2.93 1.69 0 2.23 1.46 2.23 2.5 0 .15 0 .31-.01.45Z"/><path clip-path="url(#b)" d="M219.87 11.59c.19.72.69 1.14 1.56 1.14.98 0 1.38-.45 1.38-1.07 0-.63-.27-.93-1.5-1.23-1.42-.34-1.77-.77-1.77-1.5 0-.76.57-1.46 1.82-1.46s1.84.76 1.92 1.54h-.55c-.1-.46-.46-1.03-1.4-1.03-.96 0-1.23.47-1.23.91 0 .51.27.76 1.35 1.02 1.55.37 1.94.88 1.94 1.7 0 1-.82 1.62-1.97 1.62-1.25 0-1.96-.66-2.11-1.65Z"/><path clip-path="url(#b)" d="M232.5 10.24c0-1.28-.62-2.23-1.7-2.23-1.33 0-1.88.84-1.88 2.33 0 1.47.43 2.39 1.8 2.39 1.14 0 1.78-.97 1.78-2.49m-3.55 2.06v3.01h-.55V8.96c0-.45 0-.94-.01-1.35h.54c.02.21.02.54.02.99.34-.66.95-1.12 1.94-1.12 1.3 0 2.2 1.09 2.2 2.74 0 1.98-1.06 3.02-2.39 3.02-.97 0-1.47-.43-1.75-.95"/><path clip-path="url(#b)" d="M237.8 10.3h-1.08c-1.22 0-1.98.32-1.98 1.27 0 .69.5 1.17 1.27 1.17 1.57 0 1.79-1.04 1.79-2.23Zm.54 1.76c0 .48.04.87.08 1.04h-.53c-.04-.13-.08-.37-.1-.85-.19.41-.67.98-1.8.98-1.28 0-1.83-.83-1.83-1.65 0-1.21.94-1.76 2.58-1.76h1.05V9.27c0-.55-.16-1.29-1.42-1.29-1.11 0-1.28.58-1.4 1.03h-.55c.07-.61.44-1.54 1.96-1.54 1.25 0 1.96.53 1.96 1.74Z"/><path clip-path="url(#b)" d="M239.38 7.61h1.02V5.89h.55V7.61h1.31v.52h-1.31V11.7c0 .62.13.97.66.97.16 0 .4-.01.57-.07v.48c-.19.08-.45.1-.68.1-.7 0-1.1-.35-1.1-1.23V8.13h-1.02Z"/><path clip-path="url(#b)" d="M243.5 7.61h.55v5.5h-.55Zm0-2.61h.55V6.07h-.55Z"/><path clip-path="url(#b)" d="M249.57 9.94c-.01-1.09-.61-1.95-1.68-1.95-1.13 0-1.65.79-1.77 1.95Zm-3.49.48c.01 1.42.72 2.3 1.78 2.3 1.03 0 1.39-.58 1.58-1.03h.56c-.23.72-.81 1.55-2.17 1.55-1.67 0-2.32-1.44-2.32-2.84 0-1.57.78-2.93 2.39-2.93 1.69 0 2.23 1.46 2.23 2.5 0 .15 0 .31-.01.45Z"/><path clip-path="url(#b)" d="M251.59 8.99c0-.48 0-.95-.01-1.39h.54c.02.18.03.89.02 1.04.24-.56.69-1.18 1.83-1.18.98 0 1.85.55 1.85 2.07v3.56h-.55V9.63c0-.98-.41-1.62-1.36-1.62-1.31 0-1.76 1.09-1.76 2.29v2.8h-.55Z"/><path clip-path="url(#b)" d="M261.78 11.49c-.27.97-.9 1.75-2.14 1.75-1.38 0-2.35-1.02-2.35-2.86 0-1.51.8-2.9 2.42-2.9 1.4 0 1.97.99 2.07 1.76h-.56c-.17-.64-.58-1.24-1.52-1.24-1.17 0-1.83.99-1.83 2.37 0 1.31.62 2.37 1.77 2.37.8 0 1.29-.41 1.57-1.23Z"/><path clip-path="url(#b)" d="M266.83 9.94c-.01-1.09-.6-1.95-1.68-1.95-1.13 0-1.65.79-1.77 1.95Zm-3.49.48c.01 1.42.73 2.3 1.78 2.3 1.03 0 1.39-.58 1.58-1.03h.56c-.23.72-.81 1.55-2.17 1.55-1.67 0-2.32-1.44-2.32-2.84 0-1.57.78-2.93 2.39-2.93 1.69 0 2.23 1.46 2.23 2.5 0 .15 0 .31-.01.45Z"/><path clip-path="url(#b)" d="M268.19 14.36c.54-1.07.74-2.05.77-2.66h.55c-.08.91-.43 2-.83 2.66Z"/><path clip-path="url(#b)" d="M273.74 7.61h1.02V5.89h.55V7.61h1.31v.52h-1.31V11.7c0 .62.13.97.66.97.16 0 .4-.01.57-.07v.48c-.19.08-.45.1-.68.1-.7 0-1.1-.35-1.1-1.23V8.13h-1.02Z"/><path clip-path="url(#b)" d="M278.38 5V8.53c.31-.57.85-1.06 1.81-1.06.78 0 1.86.4 1.86 2.14v3.5h-.55V9.72c0-1.09-.49-1.71-1.41-1.71-1.09 0-1.72.67-1.72 2.02v3.07h-.55V5Z"/><path clip-path="url(#b)" d="M287.57 9.94c-.01-1.09-.6-1.95-1.68-1.95-1.13 0-1.65.79-1.77 1.95Zm-3.49.48c.01 1.42.73 2.3 1.78 2.3 1.03 0 1.39-.58 1.58-1.03h.56c-.23.72-.81 1.55-2.17 1.55-1.67 0-2.32-1.44-2.32-2.84 0-1.57.78-2.93 2.39-2.93 1.69 0 2.23 1.46 2.23 2.5 0 .15 0 .31-.01.45Z"/><path clip-path="url(#b)" d="M293.13 9.1c0-.92-.01-1.32-.01-1.5h.54c.01.18.02.53.02 1.23.32-.83 1.02-1.32 1.91-1.36v.59c-1.14.08-1.91.87-1.91 2.18v2.86h-.55Z"/><path clip-path="url(#b)" d="M296.71 7.61h.55v5.5h-.55Zm0-2.61h.55V6.07h-.55Z"/><path clip-path="url(#b)" d="M299.32 10.34c0 1.31.69 2.26 1.75 2.26 1.38 0 1.79-.91 1.79-2.34 0-1.45-.44-2.26-1.76-2.26-1.26 0-1.78 1.09-1.78 2.34m4.06 2.4c0 1.76-.78 2.68-2.38 2.68-1.43 0-2.03-.8-2.16-1.64h.56c.2.76.82 1.12 1.62 1.12 1.43 0 1.83-.92 1.83-2.32v-.57c-.3.72-.84 1.1-1.84 1.1-1.29 0-2.28-1.04-2.28-2.75 0-1.85 1.06-2.88 2.35-2.88 1.12 0 1.61.53 1.76.97.01-.32.02-.71.03-.84h.52c0 .2-.02 1.07-.02 1.6Z"/><path clip-path="url(#b)" d="M305.84 5V8.53c.31-.57.85-1.06 1.82-1.06.78 0 1.86.4 1.86 2.14v3.5h-.55V9.72c0-1.09-.49-1.71-1.41-1.71-1.09 0-1.72.67-1.72 2.02v3.07h-.55V5Z"/><path clip-path="url(#b)" d="M310.57 7.61h1.02V5.89h.55V7.61h1.31v.52h-1.31V11.7c0 .62.13.97.66.97.17 0 .4-.01.57-.07v.48c-.19.08-.45.1-.68.1-.7 0-1.1-.35-1.1-1.23V8.13h-1.02Z"/><path clip-path="url(#b)" d="M322.26 11.49c-.26.97-.9 1.75-2.13 1.75-1.38 0-2.35-1.02-2.35-2.86 0-1.51.8-2.9 2.42-2.9 1.4 0 1.97.99 2.07 1.76h-.56c-.17-.64-.58-1.24-1.52-1.24-1.17 0-1.83.99-1.83 2.37 0 1.31.62 2.37 1.77 2.37.8 0 1.29-.41 1.57-1.23Z"/><path clip-path="url(#b)" d="M323.84 10.36c0 1.31.7 2.37 1.87 2.37 1.19 0 1.86-.98 1.86-2.37 0-1.3-.66-2.37-1.88-2.37-1.25 0-1.85 1.05-1.85 2.37m4.31-.01c0 1.53-.85 2.89-2.49 2.89-1.48 0-2.41-1.22-2.41-2.88 0-1.57.87-2.88 2.47-2.88 1.46 0 2.43 1.15 2.43 2.87"/><path clip-path="url(#b)" d="M329.63 8.99c0-.48 0-.95-.01-1.39h.54c.02.18.03.89.02 1.04.24-.56.69-1.18 1.83-1.18.98 0 1.85.55 1.85 2.07v3.56h-.55V9.63c0-.98-.41-1.62-1.36-1.62-1.31 0-1.76 1.09-1.76 2.29v2.8h-.55Z"/><path clip-path="url(#b)" d="M335.91 10.4c0 1.51.78 2.32 1.73 2.32 1.45 0 1.85-1 1.85-2.5 0-1.42-.34-2.23-1.75-2.23-1.09 0-1.83.87-1.83 2.41m4.1-5.4v6.52c0 .53 0 1.03.01 1.58h-.53c-.02-.13-.03-.65-.03-.92-.28.67-.89 1.06-1.85 1.06-1.43 0-2.29-1.17-2.29-2.82 0-1.69.94-2.95 2.43-2.95 1.1 0 1.54.47 1.71.83V5Z"/><path clip-path="url(#b)" d="M341.93 7.61h.55v5.5h-.55Zm0-2.61h.55V6.07h-.55Z"/><path clip-path="url(#b)" d="M343.64 7.61h1.02V5.89h.55V7.61h1.31v.52h-1.31V11.7c0 .62.13.97.66.97.17 0 .4-.01.57-.07v.48c-.19.08-.45.1-.68.1-.7 0-1.1-.35-1.1-1.23V8.13h-1.02Z"/><path clip-path="url(#b)" d="M347.76 7.61h.55v5.5h-.55Zm0-2.61h.55V6.07h-.55Z"/><path clip-path="url(#b)" d="M350.36 10.36c0 1.31.7 2.37 1.87 2.37 1.19 0 1.86-.98 1.86-2.37 0-1.3-.66-2.37-1.88-2.37-1.25 0-1.85 1.05-1.85 2.37m4.31-.01c0 1.53-.85 2.89-2.49 2.89-1.48 0-2.41-1.22-2.41-2.88 0-1.57.87-2.88 2.47-2.88 1.46 0 2.43 1.15 2.43 2.87"/><path clip-path="url(#b)" d="M356.15 8.99c0-.48 0-.95-.01-1.39h.54c.02.18.03.89.02 1.04.24-.56.69-1.18 1.83-1.18.98 0 1.85.55 1.85 2.07v3.56h-.55V9.63c0-.98-.41-1.62-1.36-1.62-1.31 0-1.76 1.09-1.76 2.29v2.8h-.55Z"/><path clip-path="url(#b)" d="M362.26 11.59c.19.72.69 1.14 1.56 1.14.98 0 1.38-.45 1.38-1.07 0-.63-.27-.93-1.5-1.23-1.42-.34-1.77-.77-1.77-1.5 0-.76.57-1.46 1.82-1.46s1.84.76 1.92 1.54h-.55c-.1-.46-.46-1.03-1.4-1.03-.96 0-1.23.47-1.23.91 0 .51.27.76 1.35 1.02 1.55.37 1.94.88 1.94 1.7 0 1-.82 1.62-1.97 1.62-1.25 0-1.96-.66-2.11-1.65Z"/><path clip-path="url(#b)" d="M366.55 14.36c.54-1.07.74-2.05.77-2.66h.55c-.08.91-.43 2-.83 2.66Z"/><path clip-path="url(#b)" d="M376.16 10.3h-1.08c-1.22 0-1.98.32-1.98 1.27 0 .69.49 1.17 1.27 1.17 1.57 0 1.79-1.04 1.79-2.23Zm.54 1.76c0 .48.04.87.08 1.04h-.53c-.04-.13-.08-.37-.1-.85-.19.41-.67.98-1.8.98-1.28 0-1.83-.83-1.83-1.65 0-1.21.94-1.76 2.58-1.76h1.05V9.27c0-.55-.16-1.29-1.42-1.29-1.11 0-1.28.58-1.4 1.03h-.55c.07-.61.44-1.54 1.96-1.54 1.25 0 1.96.53 1.96 1.74Z"/><path clip-path="url(#b)" d="M378.62 8.99c0-.48 0-.95-.01-1.39h.54c.02.18.03.89.02 1.04.24-.56.69-1.18 1.83-1.18.98 0 1.85.55 1.85 2.07v3.56h-.55V9.63c0-.98-.41-1.62-1.36-1.62-1.31 0-1.76 1.09-1.76 2.29v2.8h-.55Z"/><path clip-path="url(#b)" d="M384.9 10.4c0 1.51.78 2.32 1.73 2.32 1.45 0 1.85-1 1.85-2.5 0-1.42-.34-2.23-1.75-2.23-1.09 0-1.83.87-1.83 2.41m4.1-5.4v6.52c0 .53 0 1.03.01 1.58h-.53c-.02-.13-.03-.65-.03-.92-.28.67-.89 1.06-1.85 1.06-1.43 0-2.29-1.17-2.29-2.82 0-1.69.94-2.95 2.43-2.95 1.1 0 1.54.47 1.71.83V5Z"/><path clip-path="url(#b)" d="M398.06 9.94c-.01-1.09-.61-1.95-1.68-1.95-1.13 0-1.65.79-1.77 1.95Zm-3.49.48c.01 1.42.72 2.3 1.78 2.3 1.03 0 1.39-.58 1.58-1.03h.56c-.23.72-.81 1.55-2.17 1.55-1.67 0-2.32-1.44-2.32-2.84 0-1.57.78-2.93 2.39-2.93 1.69 0 2.23 1.46 2.23 2.5 0 .15 0 .31-.01.45Z"/><path clip-path="url(#b)" d="M400.05 7.61c.91 1.35 1.31 1.96 1.53 2.29h.01c.26-.37.81-1.17 1.61-2.29h.63l-1.92 2.66 1.95 2.84h-.66c-.79-1.18-1.36-2.01-1.63-2.4h-.01c-.21.32-.7 1.07-1.61 2.4h-.64l1.95-2.79-1.86-2.71Z"/><path clip-path="url(#b)" d="M409.04 10.24c0-1.28-.62-2.23-1.71-2.23-1.33 0-1.88.84-1.88 2.33 0 1.47.43 2.39 1.8 2.39 1.14 0 1.78-.97 1.78-2.49m-3.55 2.06v3.01h-.55V8.96c0-.45 0-.94-.01-1.35h.54c.02.21.02.54.02.99.34-.66.95-1.12 1.94-1.12 1.3 0 2.2 1.09 2.2 2.74 0 1.98-1.06 3.02-2.39 3.02-.97 0-1.47-.43-1.75-.95"/><path clip-path="url(#b)" d="M414.78 9.94c-.01-1.09-.6-1.95-1.68-1.95-1.13 0-1.65.79-1.77 1.95Zm-3.49.48c.01 1.42.73 2.3 1.78 2.3 1.03 0 1.39-.58 1.58-1.03h.56c-.23.72-.81 1.55-2.17 1.55-1.67 0-2.32-1.44-2.32-2.84 0-1.57.78-2.93 2.39-2.93 1.69 0 2.23 1.46 2.23 2.5 0 .15 0 .31-.01.45Z"/><path clip-path="url(#b)" d="M416.8 9.1c0-.92-.01-1.32-.01-1.5h.54c.01.18.02.53.02 1.23.32-.83 1.02-1.32 1.91-1.36v.59c-1.14.08-1.91.87-1.91 2.18v2.86h-.55Z"/><path clip-path="url(#b)" d="M419.99 7.61h1.02V5.89h.55V7.61h1.31v.52h-1.31V11.7c0 .62.13.97.66.97.17 0 .4-.01.57-.07v.48c-.19.08-.45.1-.68.1-.7 0-1.1-.35-1.1-1.23V8.13h-1.02Z"/><path clip-path="url(#b)" d="M431.68 11.49c-.27.97-.9 1.75-2.14 1.75-1.38 0-2.35-1.02-2.35-2.86 0-1.51.8-2.9 2.42-2.9 1.4 0 1.97.99 2.07 1.76h-.56c-.16-.64-.58-1.24-1.52-1.24-1.17 0-1.83.99-1.83 2.37 0 1.31.62 2.37 1.77 2.37.8 0 1.29-.41 1.57-1.23Z"/><path clip-path="url(#b)" d="M436.34 10.3h-1.08c-1.22 0-1.98.32-1.98 1.27 0 .69.5 1.17 1.27 1.17 1.57 0 1.79-1.04 1.79-2.23Zm.54 1.76c0 .48.04.87.08 1.04h-.53c-.04-.13-.08-.37-.1-.85-.19.41-.67.98-1.8.98-1.28 0-1.83-.83-1.83-1.65 0-1.21.94-1.76 2.59-1.76h1.05V9.27c0-.55-.16-1.29-1.42-1.29-1.11 0-1.27.58-1.4 1.03h-.55c.07-.61.44-1.54 1.96-1.54 1.25 0 1.96.53 1.96 1.74Z"/><path clip-path="url(#b)" d="M438.81 9.1c0-.92-.01-1.32-.01-1.5h.54c.01.18.02.53.02 1.23.32-.83 1.02-1.32 1.91-1.36v.59c-1.14.08-1.91.87-1.91 2.18v2.86h-.55Z"/><path clip-path="url(#b)" d="M446 9.94c-.01-1.09-.61-1.95-1.68-1.95-1.13 0-1.65.79-1.77 1.95Zm-3.49.48c.01 1.42.72 2.3 1.78 2.3 1.03 0 1.39-.58 1.58-1.03h.56c-.23.72-.81 1.55-2.17 1.55-1.67 0-2.32-1.44-2.32-2.84 0-1.57.78-2.93 2.39-2.93 1.69 0 2.23 1.46 2.23 2.5 0 .15 0 .31-.01.45Z"/><path clip-path="url(#b)" d="M447.78 13.11h.55V11.69h-.55Z" fill-rule="evenodd"/><path clip-path="url(#b)" d="M454.29 12.56h2.17c1.01 0 1.86-.51 1.86-1.64 0-.98-.63-1.65-2.18-1.65h-1.85Zm1.9-3.84c1.33 0 1.84-.49 1.84-1.39 0-.76-.53-1.38-1.61-1.38h-2.14V8.72Zm-2.49-3.31h2.68c1.47 0 2.27.78 2.27 1.89 0 .91-.55 1.51-1.19 1.68.55.15 1.46.69 1.46 1.9 0 1.54-1.16 2.22-2.5 2.22h-2.73Z"/><path clip-path="url(#b)" d="M464.59 11.5c0 .54.01 1.4.01 1.61h-.53c-.02-.14-.03-.51-.03-.96-.23.65-.79 1.09-1.77 1.09-.79 0-1.8-.31-1.8-1.99V7.61h.54v3.51c0 .8.25 1.58 1.34 1.58 1.23 0 1.69-.69 1.69-2.27V7.61h.55Z"/><path clip-path="url(#b)" d="M465.81 7.61h1.02V5.89h.55V7.61h1.31v.52h-1.31V11.7c0 .62.13.97.66.97.16 0 .4-.01.57-.07v.48c-.19.08-.45.1-.68.1-.7 0-1.1-.35-1.1-1.23V8.13h-1.02Z"/><path clip-path="url(#b)" d="M5.63 20.81c.81 2.84 1.29 4.47 1.38 4.95h.01c.09-.44.64-2.17 1.5-4.95H9.1c1.02 3.4 1.33 4.38 1.43 4.81h.01c.15-.61.41-1.43 1.42-4.81h.58l-1.74 5.5h-.6c-.6-1.95-1.31-4.33-1.42-4.84H8.77c-.11.54-.74 2.51-1.45 4.84H6.66l-1.62-5.5Z"/><path clip-path="url(#b)" d="M14.35 18.2v3.53c.31-.57.85-1.06 1.82-1.06.78 0 1.86.4 1.86 2.13v3.5h-.55V22.92c0-1.09-.49-1.7-1.41-1.7-1.09 0-1.72.67-1.72 2.02v3.07H13.8V18.2Z"/><path clip-path="url(#b)" d="M23.55 23.14c-.01-1.09-.61-1.95-1.68-1.95-1.13 0-1.65.79-1.77 1.95Zm-3.49.48c.01 1.42.73 2.3 1.78 2.3 1.03 0 1.39-.58 1.58-1.03h.56c-.23.73-.81 1.55-2.17 1.55-1.67 0-2.32-1.44-2.32-2.84 0-1.57.78-2.93 2.39-2.93 1.69 0 2.23 1.46 2.23 2.5 0 .15 0 .31-.01.45Z"/><path clip-path="url(#b)" d="M25.57 22.19c0-.48 0-.95-.01-1.39h.54c.02.18.03.89.02 1.05.24-.56.69-1.18 1.83-1.18.98 0 1.85.55 1.85 2.07v3.56h-.55V22.83c0-.98-.41-1.62-1.36-1.62-1.31 0-1.76 1.09-1.76 2.29v2.8h-.55Z"/><path clip-path="url(#b)" d="M34.68 20.81h.55v5.5h-.55Zm0-2.61h.55v1.07h-.55Z"/><path clip-path="url(#b)" d="M36.39 20.81h1.02V19.09h.55v1.72h1.31v.52H37.97V24.9c0 .62.13.97.66.97.17 0 .4-.01.57-.07v.48c-.19.08-.45.1-.68.1-.7 0-1.1-.35-1.1-1.23V21.33H36.39Z"/><path clip-path="url(#b)" d="M47.58 23.45c0-1.38-.68-2.26-1.73-2.26-1.38 0-1.86.94-1.86 2.38 0 1.3.43 2.36 1.79 2.36 1.11 0 1.79-.92 1.79-2.48m-4.1-5.25h.55v3.53c.26-.55.8-1.06 1.88-1.06 1.3 0 2.26 1.07 2.26 2.76 0 1.74-.86 3-2.4 3-.92 0-1.45-.37-1.74-1 0 .35-.01.71-.02.87h-.54c.01-.63.01-1.25.01-1.88Z"/><path clip-path="url(#b)" d="M49.64 26.31h.55V18.2h-.55Z" fill-rule="evenodd"/><path clip-path="url(#b)" d="M52.24 23.56c0 1.31.7 2.36 1.87 2.36 1.19 0 1.86-.98 1.86-2.36 0-1.3-.66-2.37-1.88-2.37-1.25 0-1.85 1.05-1.85 2.37m4.31-.01c0 1.53-.85 2.89-2.49 2.89-1.49 0-2.41-1.22-2.41-2.88 0-1.57.87-2.88 2.47-2.88 1.46 0 2.43 1.14 2.43 2.87"/><path clip-path="url(#b)" d="M58.24 23.56c0 1.31.7 2.36 1.87 2.36 1.19 0 1.86-.98 1.86-2.36 0-1.3-.66-2.37-1.88-2.37-1.25 0-1.85 1.05-1.85 2.37m4.31-.01c0 1.53-.85 2.89-2.49 2.89-1.49 0-2.41-1.22-2.41-2.88 0-1.57.87-2.88 2.46-2.88 1.46 0 2.43 1.14 2.43 2.87"/><path clip-path="url(#b)" d="M64.03 22.23c0-.47 0-.99-.01-1.42h.54c.01.19.03.66.02.98.23-.55.74-1.11 1.65-1.11.77 0 1.38.39 1.6 1.09.28-.57.83-1.09 1.79-1.09.85 0 1.73.48 1.73 2.01v3.62h-.55V22.76c0-.74-.26-1.54-1.29-1.54-1.07 0-1.55.86-1.55 1.93v3.17h-.54V22.77c0-.8-.24-1.55-1.26-1.55-1.07 0-1.58.95-1.58 2.07v3.02h-.55Z"/><path clip-path="url(#b)" d="M73.22 24.79c.19.72.69 1.14 1.56 1.14.98 0 1.38-.45 1.38-1.07 0-.63-.27-.93-1.5-1.23-1.42-.34-1.77-.77-1.77-1.5 0-.76.57-1.46 1.82-1.46s1.84.76 1.92 1.54h-.55c-.1-.46-.46-1.03-1.4-1.03-.96 0-1.23.47-1.23.91 0 .51.26.76 1.35 1.02 1.55.38 1.94.88 1.94 1.71 0 1-.82 1.62-1.97 1.62-1.25 0-1.96-.66-2.11-1.65Z"/><path clip-path="url(#b)" d="M77.51 27.56c.54-1.07.74-2.05.77-2.66h.55c-.08.91-.43 2-.83 2.66Z"/><path clip-path="url(#b)" d="M83.33 20.81h.55v5.5h-.55Zm0-2.61h.55v1.07h-.55Z"/><path clip-path="url(#b)" d="M85.05 20.81h1.02V19.09h.55v1.72h1.31v.52H86.62V24.9c0 .62.13.97.66.97.17 0 .4-.01.57-.07v.48c-.19.08-.45.1-.68.1-.7 0-1.1-.35-1.1-1.23V21.33H85.05Z"/><path clip-path="url(#b)" d="M89.03 20.86c.3-.87.47-2.09.49-2.66h.56c-.06.83-.34 2.09-.57 2.66Z"/><path clip-path="url(#b)" d="M91.08 24.79c.19.72.69 1.14 1.56 1.14.98 0 1.38-.45 1.38-1.07 0-.63-.27-.93-1.5-1.23-1.42-.34-1.77-.77-1.77-1.5 0-.76.57-1.46 1.82-1.46s1.84.76 1.93 1.54h-.55c-.1-.46-.46-1.03-1.4-1.03-.96 0-1.23.47-1.23.91 0 .51.27.76 1.35 1.02 1.55.38 1.94.88 1.94 1.71 0 1-.82 1.62-1.97 1.62-1.25 0-1.96-.66-2.11-1.65Z"/><path clip-path="url(#b)" d="M103.15 24.7c0 .54.01 1.4.01 1.61h-.53c-.02-.14-.03-.51-.03-.96-.23.65-.79 1.09-1.77 1.09-.79 0-1.8-.31-1.8-1.99V20.81h.54v3.51c0 .8.25 1.58 1.34 1.58 1.23 0 1.69-.69 1.69-2.27V20.81h.55Z"/><path clip-path="url(#b)" d="M105.07 22.19c0-.48 0-.95-.01-1.39h.54c.02.18.03.89.02 1.05.24-.56.69-1.18 1.83-1.18.98 0 1.85.55 1.85 2.07v3.56h-.55V22.83c0-.98-.41-1.62-1.36-1.62-1.31 0-1.76 1.09-1.76 2.29v2.8h-.55Z"/><path clip-path="url(#b)" d="M111.35 26.31V21.33h-.95v-.52h.95v-.78c0-.92.27-1.94 1.5-1.94.17 0 .41.03.54.08v.53c-.17-.04-.43-.07-.59-.07-.65 0-.89.46-.89 1.42v.76h1.2v.52h-1.2v4.98Z"/><path clip-path="url(#b)" d="M114.22 23.56c0 1.31.7 2.36 1.87 2.36 1.19 0 1.86-.98 1.86-2.36 0-1.3-.66-2.37-1.88-2.37-1.25 0-1.85 1.05-1.85 2.37m4.31-.01c0 1.53-.85 2.89-2.49 2.89-1.49 0-2.41-1.22-2.41-2.88 0-1.57.87-2.88 2.46-2.88 1.46 0 2.43 1.14 2.43 2.87"/><path clip-path="url(#b)" d="M120.01 22.3c0-.92-.01-1.32-.01-1.5h.54c.01.18.02.53.02 1.23.32-.82 1.02-1.32 1.91-1.36v.59c-1.14.08-1.91.87-1.91 2.18v2.86h-.55Z"/><path clip-path="url(#b)" d="M123.68 23.54c0 1.31.69 2.26 1.75 2.26 1.38 0 1.79-.91 1.79-2.34 0-1.45-.44-2.26-1.76-2.26-1.26 0-1.78 1.09-1.78 2.34m4.06 2.4c0 1.76-.78 2.68-2.38 2.68-1.43 0-2.03-.8-2.16-1.64h.56c.2.76.83 1.12 1.62 1.12 1.43 0 1.83-.92 1.83-2.32v-.57c-.3.72-.84 1.1-1.84 1.1-1.29 0-2.28-1.05-2.28-2.75 0-1.85 1.06-2.88 2.35-2.88 1.12 0 1.61.53 1.76.97.01-.32.02-.7.03-.84h.52c0 .2-.02 1.07-.02 1.6Z"/><path clip-path="url(#b)" d="M133.26 23.14c-.01-1.09-.6-1.95-1.68-1.95-1.13 0-1.65.79-1.77 1.95Zm-3.49.48c.01 1.42.73 2.3 1.78 2.3 1.03 0 1.39-.58 1.58-1.03h.56c-.23.73-.81 1.55-2.17 1.55-1.67 0-2.32-1.44-2.32-2.84 0-1.57.78-2.93 2.39-2.93 1.69 0 2.23 1.46 2.23 2.5 0 .15 0 .31-.01.45Z"/><path clip-path="url(#b)" d="M134.55 20.81h1.02V19.09h.55v1.72h1.31v.52h-1.31V24.9c0 .62.13.97.66.97.17 0 .4-.01.57-.07v.48c-.19.08-.45.1-.68.1-.7 0-1.1-.35-1.1-1.23V21.33h-1.02Z"/><path clip-path="url(#b)" d="M137.88 20.81h1.02V19.09h.55v1.72h1.31v.52h-1.31V24.9c0 .62.13.97.66.97.17 0 .4-.01.57-.07v.48c-.19.08-.45.1-.68.1-.7 0-1.1-.35-1.1-1.23V21.33h-1.02Z"/><path clip-path="url(#b)" d="M145.23 23.5h-1.08c-1.22 0-1.98.32-1.98 1.27 0 .69.5 1.17 1.27 1.17 1.57 0 1.79-1.05 1.79-2.23Zm.54 1.76c0 .48.04.87.08 1.05h-.53c-.04-.13-.08-.37-.1-.85-.19.41-.67.98-1.8.98-1.28 0-1.83-.83-1.83-1.65 0-1.21.94-1.76 2.58-1.76h1.05v-.56c0-.55-.17-1.29-1.42-1.29-1.11 0-1.28.58-1.4 1.03h-.55c.07-.61.44-1.54 1.96-1.54 1.25 0 1.96.53 1.96 1.74Z"/><path clip-path="url(#b)" d="M151.8 23.45c0-1.38-.68-2.26-1.73-2.26-1.38 0-1.86.94-1.86 2.38 0 1.3.43 2.36 1.79 2.36 1.11 0 1.79-.92 1.79-2.48m-4.1-5.25h.55v3.53c.26-.55.8-1.06 1.88-1.06 1.3 0 2.26 1.07 2.26 2.76 0 1.74-.86 3-2.4 3-.92 0-1.45-.37-1.74-1 0 .35-.01.71-.02.87h-.54c.01-.63.01-1.25.01-1.88Z"/><path clip-path="url(#b)" d="M153.85 26.31h.55V18.2h-.55Z" fill-rule="evenodd"/><path clip-path="url(#b)" d="M159.92 23.14c-.01-1.09-.6-1.95-1.68-1.95-1.13 0-1.65.79-1.77 1.95Zm-3.49.48c.01 1.42.73 2.3 1.78 2.3 1.03 0 1.39-.58 1.58-1.03h.56c-.23.73-.81 1.55-2.17 1.55-1.67 0-2.32-1.44-2.32-2.84 0-1.57.78-2.93 2.39-2.93 1.69 0 2.23 1.46 2.23 2.5 0 .15 0 .31-.01.45Z"/><path clip-path="url(#b)" d="M164.68 23.77h8.1v-.54h-8.1Z" fill-rule="evenodd"/><path clip-path="url(#b)" d="M180.65 23.5h-1.08c-1.22 0-1.98.32-1.98 1.27 0 .69.5 1.17 1.27 1.17 1.57 0 1.79-1.05 1.79-2.23Zm.54 1.76c0 .48.04.87.08 1.05h-.53c-.04-.13-.08-.37-.1-.85-.19.41-.67.98-1.8.98-1.28 0-1.83-.83-1.83-1.65 0-1.21.94-1.76 2.59-1.76h1.05v-.56c0-.55-.17-1.29-1.42-1.29-1.11 0-1.27.58-1.4 1.03h-.55c.07-.61.44-1.54 1.96-1.54 1.25 0 1.96.53 1.96 1.74Z"/><path clip-path="url(#b)" d="M185.26 20.81h1.02V19.09h.55v1.72h1.31v.52h-1.31V24.9c0 .62.13.97.66.97.16 0 .4-.01.57-.07v.48c-.19.08-.45.1-.68.1-.7 0-1.1-.35-1.1-1.23V21.33h-1.02Z"/><path clip-path="url(#b)" d="M192.91 23.14c-.01-1.09-.6-1.95-1.68-1.95-1.13 0-1.65.79-1.77 1.95Zm-3.49.48c.01 1.42.73 2.3 1.78 2.3 1.03 0 1.39-.58 1.58-1.03h.56c-.23.73-.81 1.55-2.17 1.55-1.67 0-2.32-1.44-2.32-2.84 0-1.57.78-2.93 2.39-2.93 1.69 0 2.23 1.46 2.23 2.5 0 .15 0 .31-.01.45Z"/><path clip-path="url(#b)" d="M195.07 24.79c.19.72.69 1.14 1.56 1.14.98 0 1.38-.45 1.38-1.07 0-.63-.27-.93-1.5-1.23-1.42-.34-1.77-.77-1.77-1.5 0-.76.57-1.46 1.82-1.46s1.84.76 1.92 1.54h-.55c-.1-.46-.46-1.03-1.4-1.03-.96 0-1.23.47-1.23.91 0 .51.26.76 1.35 1.02 1.55.38 1.94.88 1.94 1.71 0 1-.82 1.62-1.97 1.62-1.25 0-1.96-.66-2.11-1.65Z"/><path clip-path="url(#b)" d="M199.21 20.81h1.02V19.09h.55v1.72h1.31v.52h-1.31V24.9c0 .62.13.97.66.97.16 0 .4-.01.57-.07v.48c-.19.08-.45.1-.68.1-.7 0-1.1-.35-1.1-1.23V21.33h-1.02Z"/><path clip-path="url(#b)" d="M206.55 23.5h-1.08c-1.22 0-1.98.32-1.98 1.27 0 .69.49 1.17 1.27 1.17 1.57 0 1.79-1.05 1.79-2.23Zm.54 1.76c0 .48.04.87.08 1.05h-.53c-.04-.13-.08-.37-.1-.85-.19.41-.67.98-1.8.98-1.28 0-1.83-.83-1.83-1.65 0-1.21.94-1.76 2.58-1.76h1.05v-.56c0-.55-.16-1.29-1.42-1.29-1.11 0-1.28.58-1.4 1.03h-.55c.07-.61.44-1.54 1.96-1.54 1.25 0 1.96.53 1.96 1.74Z"/><path clip-path="url(#b)" d="M209.02 22.23c0-.47 0-.99-.01-1.42h.54c.01.19.03.66.02.98.23-.55.74-1.11 1.65-1.11.77 0 1.38.39 1.59 1.09.28-.57.83-1.09 1.79-1.09.85 0 1.73.48 1.73 2.01v3.62h-.55V22.76c0-.74-.26-1.54-1.29-1.54-1.07 0-1.55.86-1.55 1.93v3.17h-.54V22.77c0-.8-.24-1.55-1.26-1.55-1.07 0-1.58.95-1.58 2.07v3.02h-.55Z"/><path clip-path="url(#b)" d="M221.86 23.14c-.01-1.09-.6-1.95-1.68-1.95-1.13 0-1.65.79-1.77 1.95Zm-3.49.48c.01 1.42.72 2.3 1.78 2.3 1.03 0 1.39-.58 1.58-1.03h.56c-.23.73-.81 1.55-2.17 1.55-1.67 0-2.32-1.44-2.32-2.84 0-1.57.78-2.93 2.39-2.93 1.69 0 2.23 1.46 2.23 2.5 0 .15 0 .31-.01.45Z"/><path clip-path="url(#b)" d="M223.88 22.19c0-.48 0-.95-.01-1.39h.54c.02.18.03.89.02 1.05.24-.56.69-1.18 1.83-1.18.98 0 1.85.55 1.85 2.07v3.56h-.55V22.83c0-.98-.41-1.62-1.36-1.62-1.31 0-1.76 1.09-1.76 2.29v2.8h-.55Z"/><path clip-path="url(#b)" d="M229.16 20.81h1.02V19.09h.55v1.72h1.31v.52h-1.31V24.9c0 .62.13.97.66.97.16 0 .4-.01.57-.07v.48c-.19.08-.45.1-.68.1-.7 0-1.1-.35-1.1-1.23V21.33h-1.02Z"/><path clip-path="url(#b)" d="M235.42 20.81h1.02V19.09h.55v1.72h1.31v.52h-1.31V24.9c0 .62.13.97.66.97.17 0 .4-.01.57-.07v.48c-.19.08-.45.1-.68.1-.7 0-1.1-.35-1.1-1.23V21.33h-1.02Z"/><path clip-path="url(#b)" d="M239.61 23.56c0 1.31.7 2.36 1.87 2.36 1.19 0 1.86-.98 1.86-2.36 0-1.3-.66-2.37-1.88-2.37-1.25 0-1.85 1.05-1.85 2.37m4.31-.01c0 1.53-.85 2.89-2.49 2.89-1.48 0-2.41-1.22-2.41-2.88 0-1.57.87-2.88 2.47-2.88 1.46 0 2.43 1.14 2.43 2.87"/><path clip-path="url(#b)" d="M247.54 20.81h1.02V19.09h.55v1.72h1.31v.52h-1.31V24.9c0 .62.13.97.66.97.17 0 .4-.01.57-.07v.48c-.19.08-.45.1-.68.1-.7 0-1.1-.35-1.1-1.23V21.33h-1.02Z"/><path clip-path="url(#b)" d="M252.17 18.2v3.53c.31-.57.85-1.06 1.82-1.06.78 0 1.86.4 1.86 2.13v3.5h-.55V22.92c0-1.09-.49-1.7-1.41-1.7-1.09 0-1.72.67-1.72 2.02v3.07h-.55V18.2Z"/><path clip-path="url(#b)" d="M257.9 23.56c0 1.31.7 2.36 1.87 2.36 1.19 0 1.86-.98 1.86-2.36 0-1.3-.66-2.37-1.88-2.37-1.25 0-1.85 1.05-1.85 2.37m4.31-.01c0 1.53-.85 2.89-2.49 2.89-1.48 0-2.41-1.22-2.41-2.88 0-1.57.87-2.88 2.47-2.88 1.46 0 2.43 1.14 2.43 2.87"/><path clip-path="url(#b)" d="M267.8 24.7c0 .54.01 1.4.01 1.61h-.53c-.02-.14-.03-.51-.03-.96-.23.65-.79 1.09-1.77 1.09-.79 0-1.8-.31-1.8-1.99V20.81h.54v3.51c0 .8.25 1.58 1.34 1.58 1.23 0 1.69-.69 1.69-2.27V20.81h.55Z"/><path clip-path="url(#b)" d="M269.86 23.54c0 1.31.69 2.26 1.75 2.26 1.38 0 1.79-.91 1.79-2.34 0-1.45-.44-2.26-1.76-2.26-1.26 0-1.78 1.09-1.78 2.34m4.06 2.4c0 1.76-.78 2.68-2.38 2.68-1.43 0-2.02-.8-2.16-1.64h.56c.2.76.82 1.12 1.62 1.12 1.43 0 1.83-.92 1.83-2.32v-.57c-.3.72-.84 1.1-1.84 1.1-1.29 0-2.28-1.05-2.28-2.75 0-1.85 1.06-2.88 2.35-2.88 1.12 0 1.61.53 1.76.97.01-.32.02-.7.03-.84h.52c0 .2-.02 1.07-.02 1.6Z"/><path clip-path="url(#b)" d="M276.38 18.2v3.53c.31-.57.85-1.06 1.82-1.06.78 0 1.86.4 1.86 2.13v3.5h-.55V22.92c0-1.09-.49-1.7-1.41-1.7-1.09 0-1.72.67-1.72 2.02v3.07h-.55V18.2Z"/><path clip-path="url(#b)" d="M281.11 20.81h1.02V19.09h.55v1.72H284v.52h-1.31V24.9c0 .62.13.97.66.97.17 0 .4-.01.57-.07v.48c-.19.08-.45.1-.68.1-.7 0-1.1-.35-1.1-1.23V21.33h-1.02Z"/><path clip-path="url(#b)" d="M285.37 26.31V21.33h-.95v-.52h.95v-.78c0-.92.26-1.94 1.5-1.94.16 0 .41.03.54.08v.53c-.16-.04-.43-.07-.59-.07-.65 0-.89.46-.89 1.42v.76h1.2v.52h-1.2v4.98Z"/><path clip-path="url(#b)" d="M292.26 24.7c0 .54.01 1.4.01 1.61h-.53c-.02-.14-.03-.51-.03-.96-.23.65-.79 1.09-1.77 1.09-.79 0-1.8-.31-1.8-1.99V20.81h.54v3.51c0 .8.25 1.58 1.34 1.58 1.23 0 1.69-.69 1.69-2.27V20.81h.55Z"/><path clip-path="url(#b)" d="M294.17 26.31h.55V18.2h-.55Z" fill-rule="evenodd"/><path clip-path="url(#b)" d="M303.65 24.69c-.27.97-.9 1.75-2.14 1.75-1.38 0-2.35-1.02-2.35-2.86 0-1.51.8-2.9 2.42-2.9 1.4 0 1.97.99 2.07 1.76h-.56c-.16-.64-.58-1.24-1.52-1.24-1.17 0-1.83.99-1.83 2.37 0 1.31.62 2.36 1.77 2.36.8 0 1.29-.41 1.57-1.23Z"/><path clip-path="url(#b)" d="M309.1 24.7c0 .54.01 1.4.01 1.61h-.53c-.02-.14-.03-.51-.03-.96-.23.65-.79 1.09-1.77 1.09-.79 0-1.8-.31-1.8-1.99V20.81h.54v3.51c0 .8.25 1.58 1.34 1.58 1.23 0 1.69-.69 1.69-2.27V20.81h.55Z"/><path clip-path="url(#b)" d="M311.01 26.31h.55V18.2h-.55Z" fill-rule="evenodd"/><path clip-path="url(#b)" d="M312.73 20.81h1.02V19.09h.55v1.72h1.31v.52H314.3V24.9c0 .62.13.97.66.97.17 0 .4-.01.57-.07v.48c-.19.08-.45.1-.68.1-.7 0-1.1-.35-1.1-1.23V21.33h-1.02Z"/><path clip-path="url(#b)" d="M316.84 20.81h.55v5.5h-.55Zm0-2.61h.55v1.07h-.55Z"/><path clip-path="url(#b)" d="M319.22 20.81c.89 2.52 1.51 4.24 1.72 4.94h.01c.12-.41.74-2.04 1.8-4.94h.58l-2.08 5.5h-.66l-1.96-5.5Z"/><path clip-path="url(#b)" d="M327.65 23.5h-1.08c-1.22 0-1.98.32-1.98 1.27 0 .69.5 1.17 1.27 1.17 1.57 0 1.79-1.05 1.79-2.23Zm.54 1.76c0 .48.04.87.08 1.05h-.53c-.04-.13-.08-.37-.1-.85-.19.41-.67.98-1.8.98-1.28 0-1.83-.83-1.83-1.65 0-1.21.94-1.76 2.59-1.76h1.05v-.56c0-.55-.17-1.29-1.42-1.29-1.11 0-1.27.58-1.4 1.03h-.55c.07-.61.44-1.54 1.96-1.54 1.25 0 1.96.53 1.96 1.74Z"/><path clip-path="url(#b)" d="M329.24 20.81h1.02V19.09h.55v1.72h1.31v.52h-1.31V24.9c0 .62.13.97.66.97.16 0 .4-.01.57-.07v.48c-.19.08-.45.1-.68.1-.7 0-1.1-.35-1.1-1.23V21.33h-1.02Z"/><path clip-path="url(#b)" d="M333.35 20.81h.55v5.5h-.55Zm0-2.61h.55v1.07h-.55Z"/><path clip-path="url(#b)" d="M335.96 23.56c0 1.31.7 2.36 1.87 2.36 1.19 0 1.86-.98 1.86-2.36 0-1.3-.66-2.37-1.88-2.37-1.25 0-1.85 1.05-1.85 2.37m4.31-.01c0 1.53-.85 2.89-2.49 2.89-1.48 0-2.41-1.22-2.41-2.88 0-1.57.87-2.88 2.46-2.88 1.46 0 2.43 1.14 2.43 2.87"/><path clip-path="url(#b)" d="M341.74 22.19c0-.48 0-.95-.01-1.39h.54c.02.18.03.89.02 1.05.24-.56.69-1.18 1.83-1.18.98 0 1.85.55 1.85 2.07v3.56h-.55V22.83c0-.98-.41-1.62-1.36-1.62-1.31 0-1.76 1.09-1.76 2.29v2.8h-.55Z"/><path clip-path="url(#b)" d="M354.09 23.5h-1.08c-1.22 0-1.98.32-1.98 1.27 0 .69.5 1.17 1.27 1.17 1.57 0 1.79-1.05 1.79-2.23Zm.54 1.76c0 .48.04.87.08 1.05h-.53c-.04-.13-.08-.37-.1-.85-.19.41-.67.98-1.8.98-1.28 0-1.83-.83-1.83-1.65 0-1.21.94-1.76 2.59-1.76h1.05v-.56c0-.55-.16-1.29-1.42-1.29-1.11 0-1.28.58-1.4 1.03h-.55c.07-.61.44-1.54 1.96-1.54 1.25 0 1.96.53 1.96 1.74Z"/><path clip-path="url(#b)" d="M356.55 22.19c0-.48 0-.95-.01-1.39h.54c.02.18.03.89.02 1.05.24-.56.69-1.18 1.83-1.18.98 0 1.85.55 1.85 2.07v3.56h-.55V22.83c0-.98-.41-1.62-1.36-1.62-1.31 0-1.76 1.09-1.76 2.29v2.8h-.55Z"/><path clip-path="url(#b)" d="M362.83 23.6c0 1.51.78 2.32 1.73 2.32 1.45 0 1.85-1 1.85-2.5 0-1.42-.34-2.23-1.75-2.23-1.09 0-1.83.87-1.83 2.41m4.1-5.4v6.52c0 .53 0 1.03.01 1.58h-.53c-.02-.13-.03-.65-.03-.92-.28.67-.89 1.06-1.85 1.06-1.43 0-2.29-1.17-2.29-2.82 0-1.7.93-2.95 2.43-2.95 1.1 0 1.54.47 1.71.82V18.2Z"/><path clip-path="url(#b)" d="M371.82 24.79c.19.72.69 1.14 1.56 1.14.98 0 1.38-.45 1.38-1.07 0-.63-.27-.93-1.5-1.23-1.42-.34-1.77-.77-1.77-1.5 0-.76.57-1.46 1.82-1.46s1.84.76 1.92 1.54h-.55c-.1-.46-.46-1.03-1.4-1.03-.96 0-1.23.47-1.23.91 0 .51.27.76 1.35 1.02 1.55.38 1.94.88 1.94 1.71 0 1-.82 1.62-1.97 1.62-1.25 0-1.96-.66-2.11-1.65Z"/><path clip-path="url(#b)" d="M375.95 20.81h1.02V19.09h.55v1.72h1.31v.52h-1.31V24.9c0 .62.13.97.66.97.17 0 .4-.01.57-.07v.48c-.19.08-.45.1-.68.1-.7 0-1.1-.35-1.1-1.23V21.33h-1.02Z"/><path clip-path="url(#b)" d="M379.97 22.3c0-.92-.01-1.32-.01-1.5h.54c.01.18.02.53.02 1.23.32-.82 1.02-1.32 1.91-1.36v.59c-1.14.08-1.91.87-1.91 2.18v2.86h-.55Z"/><path clip-path="url(#b)" d="M386.69 23.5h-1.08c-1.22 0-1.98.32-1.98 1.27 0 .69.5 1.17 1.27 1.17 1.57 0 1.79-1.05 1.79-2.23Zm.54 1.76c0 .48.04.87.08 1.05h-.53c-.04-.13-.08-.37-.1-.85-.19.41-.67.98-1.8.98-1.28 0-1.83-.83-1.83-1.65 0-1.21.94-1.76 2.58-1.76h1.05v-.56c0-.55-.16-1.29-1.42-1.29-1.11 0-1.28.58-1.4 1.03h-.55c.07-.61.44-1.54 1.96-1.54 1.25 0 1.96.53 1.96 1.74Z"/><path clip-path="url(#b)" d="M388.27 20.81h1.02V19.09h.55v1.72h1.31v.52h-1.31V24.9c0 .62.13.97.66.97.16 0 .4-.01.57-.07v.48c-.19.08-.45.1-.68.1-.7 0-1.1-.35-1.1-1.23V21.33h-1.02Z"/><path clip-path="url(#b)" d="M395.93 23.14c-.01-1.09-.61-1.95-1.68-1.95-1.13 0-1.65.79-1.77 1.95Zm-3.49.48c.01 1.42.73 2.3 1.78 2.3 1.03 0 1.39-.58 1.58-1.03h.56c-.23.73-.81 1.55-2.17 1.55-1.67 0-2.32-1.44-2.32-2.84 0-1.57.78-2.93 2.39-2.93 1.69 0 2.23 1.46 2.23 2.5 0 .15 0 .31-.01.45Z"/><path clip-path="url(#b)" d="M398.22 23.54c0 1.31.69 2.26 1.75 2.26 1.38 0 1.79-.91 1.79-2.34 0-1.45-.44-2.26-1.76-2.26-1.26 0-1.78 1.09-1.78 2.34m4.06 2.4c0 1.76-.78 2.68-2.38 2.68-1.43 0-2.02-.8-2.16-1.64h.56c.2.76.82 1.12 1.62 1.12 1.43 0 1.83-.92 1.83-2.32v-.57c-.3.72-.84 1.1-1.84 1.1-1.29 0-2.28-1.05-2.28-2.75 0-1.85 1.06-2.88 2.35-2.88 1.12 0 1.61.53 1.76.97.01-.32.02-.7.03-.84h.52c0 .2-.02 1.07-.02 1.6Z"/><path clip-path="url(#b)" d="M404.19 20.81h.55v5.5h-.55Zm0-2.61h.55v1.07h-.55Z"/><path clip-path="url(#b)" d="M410.7 24.69c-.26.97-.9 1.75-2.13 1.75-1.38 0-2.35-1.02-2.35-2.86 0-1.51.8-2.9 2.42-2.9 1.4 0 1.97.99 2.07 1.76h-.56c-.17-.64-.58-1.24-1.52-1.24-1.17 0-1.83.99-1.83 2.37 0 1.31.62 2.36 1.77 2.36.8 0 1.29-.41 1.57-1.23Z"/><path clip-path="url(#b)" d="M415.06 22.19c0-.48 0-.95-.01-1.39h.54c.02.18.03.89.02 1.05.24-.56.69-1.18 1.83-1.18.98 0 1.85.55 1.85 2.07v3.56h-.55V22.83c0-.98-.41-1.62-1.36-1.62-1.31 0-1.76 1.09-1.76 2.29v2.8h-.55Z"/><path clip-path="url(#b)" d="M425.23 24.7c0 .54.01 1.4.01 1.61h-.53c-.02-.14-.03-.51-.03-.96-.23.65-.79 1.09-1.77 1.09-.79 0-1.8-.31-1.8-1.99V20.81h.54v3.51c0 .8.25 1.58 1.34 1.58 1.23 0 1.69-.69 1.69-2.27V20.81h.55Z"/><path clip-path="url(#b)" d="M427.15 22.3c0-.92-.01-1.32-.01-1.5h.54c.01.18.02.53.02 1.23.32-.82 1.02-1.32 1.91-1.36v.59c-1.14.08-1.91.87-1.91 2.18v2.86h-.55Z"/><path clip-path="url(#b)" d="M430.34 20.81h1.02V19.09h.55v1.72h1.31v.52h-1.31V24.9c0 .62.13.97.66.97.17 0 .4-.01.57-.07v.48c-.19.08-.45.1-.68.1-.7 0-1.1-.35-1.1-1.23V21.33h-1.02Z"/><path clip-path="url(#b)" d="M438.41 24.7c0 .54.01 1.4.01 1.61h-.53c-.02-.14-.03-.51-.03-.96-.23.65-.79 1.09-1.77 1.09-.79 0-1.8-.31-1.8-1.99V20.81h.54v3.51c0 .8.25 1.58 1.34 1.58 1.23 0 1.69-.69 1.69-2.27V20.81h.55Z"/><path clip-path="url(#b)" d="M440.32 22.3c0-.92-.01-1.32-.01-1.5h.54c.01.18.02.53.02 1.23.32-.82 1.02-1.32 1.91-1.36v.59c-1.14.08-1.91.87-1.91 2.18v2.86h-.55Z"/><path clip-path="url(#b)" d="M443.91 20.81h.55v5.5h-.55Zm0-2.61h.55v1.07h-.55Z"/><path clip-path="url(#b)" d="M446.37 22.19c0-.48 0-.95-.01-1.39h.54c.02.18.03.89.02 1.05.24-.56.69-1.18 1.83-1.18.98 0 1.85.55 1.85 2.07v3.56h-.55V22.83c0-.98-.41-1.62-1.36-1.62-1.31 0-1.76 1.09-1.76 2.29v2.8h-.55Z"/><path clip-path="url(#b)" d="M452.65 23.54c0 1.31.69 2.26 1.75 2.26 1.38 0 1.79-.91 1.79-2.34 0-1.45-.44-2.26-1.76-2.26-1.26 0-1.78 1.09-1.78 2.34m4.06 2.4c0 1.76-.78 2.68-2.38 2.68-1.43 0-2.03-.8-2.16-1.64h.56c.2.76.83 1.12 1.62 1.12 1.43 0 1.83-.92 1.83-2.32v-.57c-.3.72-.84 1.1-1.84 1.1-1.29 0-2.28-1.05-2.28-2.75 0-1.85 1.06-2.88 2.35-2.88 1.12 0 1.61.53 1.76.97.01-.32.02-.7.03-.84h.52c0 .2-.02 1.07-.02 1.6Z"/><path clip-path="url(#b)" d="M458.23 26.31h.55V24.89h-.55Z" fill-rule="evenodd"/></g></g></svg>