<?xml version="1.0" encoding="UTF-8"?><!DOCTYPE svg PUBLIC "-//W3C//DTD SVG 1.0//EN" "http://www.w3.org/TR/2001/REC-SVG-20010904/DTD/svg10.dtd" []><svg xmlns="http://www.w3.org/2000/svg" xmlns:xlink="http://www.w3.org/1999/xlink" height="23" stroke="#000" stroke-linecap="square" stroke-miterlimit="10" viewBox="0 0 84.76 22.69" width="85"><defs><clipPath id="a"><path d="M0 0V22.69H84.76V0Z"/></clipPath><clipPath clip-path="url(#a)" id="b"><path d="M-301.38 280.34H658.74V-259.78H-301.38Z"/></clipPath></defs><g><g fill="#FF00A4" stroke="none" stroke-linecap="butt"><path clip-path="url(#b)" d="M8.37 5.01C7.2 6.59 6.23 8.69 6.23 11.27c0 2.36.79 4.57 2.14 6.42H7.03C5.99 16.25 5 14.07 5 11.26 5 8.48 6.02 6.4 7.03 5.01Z"/><path clip-path="url(#b)" d="M12.1 15.27L9.6 5.55h1.48c.76 3.43 1.66 7.07 1.82 8.17h.01c.27-1.36 1.49-5.71 2.09-8.17h1.33c.55 2.11 1.77 6.83 2 8.11h.01c.3-1.77 1.55-6.21 2.03-8.11h1.38l-2.71 9.73H17.57c-.56-2.22-1.7-6.58-1.95-7.84h-.01c-.29 1.5-1.44 5.65-2.02 7.84Z"/><path clip-path="url(#b)" d="M26.92 11.04c-.01-1.11-.54-2-1.67-2-1.16 0-1.66.83-1.77 2Zm-3.48.93c.01 1.34.66 2.34 1.79 2.34 1.04 0 1.37-.53 1.58-1.04h1.34c-.27.9-1.01 2.17-2.96 2.17-2.19 0-3.1-1.81-3.1-3.65 0-2.14 1.05-3.82 3.17-3.82 2.26 0 3 1.83 3 3.4 0 .22 0 .4-.02.59Z"/><path clip-path="url(#b)" d="M34.32 11.04c-.01-1.11-.54-2-1.67-2-1.16 0-1.66.83-1.77 2Zm-3.48.93c.01 1.34.66 2.34 1.79 2.34 1.03 0 1.36-.53 1.58-1.04h1.34c-.27.9-1.01 2.17-2.96 2.17-2.19 0-3.1-1.81-3.1-3.65 0-2.14 1.05-3.82 3.17-3.82 2.26 0 3 1.83 3 3.4 0 .22 0 .4-.02.59Z"/><path clip-path="url(#b)" d="M38.64 11.47c.57-.71 1.97-2.25 2.91-3.33h1.57L40.55 10.9l2.85 4.37H41.86l-2.21-3.49-1.01 1.01v2.48H37.31V5h1.33Z"/><path clip-path="url(#b)" d="M45.3 13.21c.19.74.73 1.17 1.62 1.17.96 0 1.33-.41 1.33-1.02 0-.63-.31-.91-1.57-1.22-2.03-.51-2.43-1.15-2.43-2.13 0-1.02.72-2.04 2.55-2.04s2.57 1.09 2.65 2.08H48.17c-.09-.42-.4-1.04-1.43-1.04-.9 0-1.17.44-1.17.88 0 .5.27.74 1.51 1.05 2.13.52 2.54 1.26 2.54 2.32 0 1.24-.94 2.18-2.74 2.18-1.85 0-2.72-.96-2.89-2.23Z"/><path clip-path="url(#b)" d="M54.57 8.28c.14-1.13.92-2.39 2.88-2.39 1.89 0 2.75 1.17 2.75 2.41 0 1.12-.64 1.68-1.18 1.9v.03c.76.26 1.55.92 1.55 2.31 0 1.44-.86 2.9-3.15 2.9-2.11 0-2.97-1.36-3.1-2.59h1.32c.17.78.73 1.47 1.84 1.47 1.21 0 1.72-.82 1.72-1.78 0-1.15-.67-1.7-1.85-1.7H56.7V9.73h.57c1.12 0 1.6-.44 1.6-1.37 0-.79-.5-1.34-1.45-1.34-1.04 0-1.4.58-1.55 1.26Z"/><path clip-path="url(#b)" d="M62.16 12.28h5.39v-1.2H62.16Z" fill-rule="evenodd"/><path clip-path="url(#b)" d="M74.03 12.18c0-1-.37-2.05-1.69-2.05-1.06 0-1.79.69-1.79 2.02 0 .76.37 2.14 1.76 2.14 1.22 0 1.72-1.01 1.72-2.12m-.22-4.07c-.16-.63-.55-1.12-1.43-1.12-1.45 0-1.9 1.4-1.95 3.21.36-.62 1.03-1.2 2.22-1.2 1.71 0 2.75 1.29 2.75 3.07 0 1.84-1.07 3.37-3.06 3.37-2.48 0-3.23-2.06-3.23-4.66 0-2.51.8-4.9 3.33-4.9 1.84 0 2.58 1.23 2.69 2.22Z"/><path clip-path="url(#b)" d="M76.39 17.69c1.17-1.58 2.14-3.68 2.14-6.26 0-2.36-.79-4.57-2.14-6.42h1.33c1.04 1.44 2.03 3.63 2.03 6.44 0 2.78-1.02 4.85-2.03 6.25Z"/></g></g></svg>