<?xml version="1.0" encoding="UTF-8"?><!DOCTYPE svg PUBLIC "-//W3C//DTD SVG 1.0//EN" "http://www.w3.org/TR/2001/REC-SVG-20010904/DTD/svg10.dtd" []><svg xmlns="http://www.w3.org/2000/svg" xmlns:xlink="http://www.w3.org/1999/xlink" height="27" stroke="#000" stroke-linecap="square" stroke-miterlimit="10" viewBox="0 0 271.51 27.05" width="272"><defs><clipPath id="a"><path d="M0 0V27.05H271.51V0Z"/></clipPath><clipPath clip-path="url(#a)" id="b"><path d="M-160.7 397.21H799.42V-142.91H-160.7Z"/></clipPath></defs><g><g fill="#fff" stroke="none"><path clip-path="url(#b)" d="M14.95 15.07c-.57 2.01-2.01 3.52-4.6 3.52C6.85 18.59 5 15.71 5 12.17c0-3.4 1.81-6.5 5.38-6.5 2.64 0 4.19 1.52 4.59 3.63h-.98c-.55-1.62-1.57-2.7-3.67-2.7-3.01 0-4.28 2.84-4.28 5.55 0 2.69 1.24 5.52 4.35 5.52 1.98 0 2.98-1.07 3.58-2.6Z"/><path clip-path="url(#b)" d="M17.69 13.94c0 2.14 1.11 3.85 2.94 3.85 1.87 0 2.92-1.59 2.92-3.85 0-2.12-1.04-3.85-2.96-3.85-1.97 0-2.9 1.69-2.9 3.85m6.82-.02c0 2.51-1.35 4.74-3.95 4.74-2.36 0-3.83-2-3.83-4.72 0-2.58 1.38-4.72 3.92-4.72 2.32 0 3.86 1.87 3.86 4.7"/><path clip-path="url(#b)" d="M26.84 11.89c0-1.5-.02-2.15-.02-2.45h.89c.02.29.04.87.04 2.01.5-1.34 1.61-2.15 3.03-2.23v1.01c-1.81.12-3.03 1.4-3.03 3.55v4.67h-.91Z"/><path clip-path="url(#b)" d="M38.99 13.75c0-2.08-.97-3.63-2.68-3.63-2.09 0-2.96 1.36-2.96 3.8 0 2.4.68 3.88 2.84 3.88 1.8 0 2.8-1.57 2.8-4.04m-5.59 3.38v4.92H32.5V11.65c0-.74 0-1.53-.02-2.22h.89c.03.34.04.88.04 1.61.54-1.07 1.49-1.83 3.06-1.83 2.05 0 3.49 1.78 3.49 4.49 0 3.24-1.68 4.96-3.78 4.96-1.53 0-2.33-.7-2.76-1.54"/><path clip-path="url(#b)" d="M42.67 13.94c0 2.14 1.11 3.85 2.94 3.85 1.87 0 2.92-1.59 2.92-3.85 0-2.12-1.04-3.85-2.96-3.85-1.97 0-2.9 1.69-2.9 3.85m6.82-.02c0 2.51-1.35 4.74-3.95 4.74-2.36 0-3.83-2-3.83-4.72 0-2.58 1.38-4.72 3.92-4.72 2.32 0 3.86 1.87 3.86 4.7"/><path clip-path="url(#b)" d="M51.82 11.89c0-1.5-.02-2.15-.02-2.45h.89c.02.29.04.87.04 2.01.5-1.34 1.61-2.15 3.03-2.23v1.01c-1.81.12-3.03 1.4-3.03 3.55v4.67h-.91Z"/><path clip-path="url(#b)" d="M62.5 13.86H60.81c-1.93 0-3.11.52-3.11 2.06 0 1.12.78 1.89 1.99 1.89 2.47 0 2.82-1.7 2.82-3.63Zm.89 2.86c0 .79.07 1.44.12 1.73h-.87c-.07-.21-.12-.61-.16-1.38-.3.66-1.06 1.59-2.85 1.59-2.02 0-2.9-1.35-2.9-2.71 0-1.98 1.49-2.89 4.1-2.89h1.65v-.91c0-.89-.26-2.09-2.23-2.09-1.74 0-2.01.94-2.2 1.68h-.9c.11-1.01.71-2.53 3.12-2.53 2 0 3.12.87 3.12 2.85Z"/><path clip-path="url(#b)" d="M65.04 9.44h1.62V6.63h.91v2.8h2.07v.87H67.56v5.82c0 1 .21 1.57 1.04 1.57.26 0 .62-.02.9-.11v.81c-.3.13-.72.16-1.09.16-1.13 0-1.76-.58-1.76-2.03V10.31H65.04Z"/><path clip-path="url(#b)" d="M77.19 13.25c-.02-1.77-.95-3.16-2.64-3.16-1.78 0-2.59 1.29-2.78 3.16Zm-5.48.81c.02 2.3 1.14 3.73 2.8 3.73 1.62 0 2.18-.94 2.49-1.68h.92c-.36 1.19-1.29 2.55-3.45 2.55-2.65 0-3.69-2.36-3.69-4.65 0-2.58 1.24-4.8 3.79-4.8 2.69 0 3.55 2.39 3.55 4.1 0 .25 0 .5-.02.74Z"/><path clip-path="url(#b)" d="M94.63 15.07c-.57 2.01-2.01 3.52-4.6 3.52-3.51 0-5.35-2.88-5.35-6.42 0-3.4 1.81-6.5 5.38-6.5 2.64 0 4.19 1.52 4.59 3.63h-.98c-.55-1.62-1.57-2.7-3.67-2.7-3.01 0-4.28 2.84-4.28 5.55 0 2.69 1.24 5.52 4.34 5.52 1.98 0 2.98-1.07 3.58-2.6Z"/><path clip-path="url(#b)" d="M97.37 13.94c0 2.14 1.11 3.85 2.94 3.85 1.87 0 2.92-1.59 2.92-3.85 0-2.12-1.04-3.85-2.96-3.85-1.97 0-2.9 1.69-2.9 3.85m6.82-.02c0 2.51-1.35 4.74-3.95 4.74-2.36 0-3.83-2-3.83-4.72 0-2.58 1.38-4.72 3.92-4.72 2.32 0 3.86 1.87 3.86 4.7"/><path clip-path="url(#b)" d="M106.52 11.71c0-.79 0-1.55-.02-2.27h.89c.04.29.05 1.45.04 1.7.38-.91 1.1-1.92 2.89-1.92 1.56 0 2.93.91 2.93 3.39v5.84h-.91V12.76c0-1.59-.64-2.63-2.15-2.63-2.05 0-2.76 1.76-2.76 3.71v4.6h-.91Z"/><path clip-path="url(#b)" d="M116.49 18.45V10.31h-1.49V9.44h1.49V8.17c0-1.52.43-3.17 2.38-3.17.26 0 .65.05.86.13v.89c-.26-.07-.67-.11-.93-.11-1.02 0-1.4.75-1.4 2.3V9.44h1.89v.87h-1.89v8.14Z"/><path clip-path="url(#b)" d="M126.55 13.25c-.02-1.77-.95-3.16-2.65-3.16-1.78 0-2.59 1.29-2.78 3.16Zm-5.48.81c.02 2.3 1.14 3.73 2.8 3.73 1.62 0 2.18-.94 2.49-1.68h.92c-.36 1.19-1.29 2.55-3.45 2.55-2.65 0-3.69-2.36-3.69-4.65 0-2.58 1.24-4.8 3.79-4.8 2.69 0 3.55 2.39 3.55 4.1 0 .25 0 .5-.02.74Z"/><path clip-path="url(#b)" d="M129.78 11.89c0-1.5-.02-2.15-.02-2.45h.89c.02.29.04.87.04 2.01.5-1.34 1.61-2.15 3.03-2.23v1.01c-1.81.12-3.03 1.4-3.03 3.55v4.67h-.91Z"/><path clip-path="url(#b)" d="M141.21 13.25c-.02-1.77-.95-3.16-2.64-3.16-1.78 0-2.59 1.29-2.78 3.16Zm-5.48.81c.02 2.3 1.14 3.73 2.8 3.73 1.62 0 2.18-.94 2.49-1.68h.92c-.36 1.19-1.29 2.55-3.45 2.55-2.65 0-3.69-2.36-3.69-4.65 0-2.58 1.24-4.8 3.79-4.8 2.69 0 3.55 2.39 3.55 4.1 0 .25 0 .5-.02.74Z"/><path clip-path="url(#b)" d="M144.44 11.71c0-.79 0-1.55-.02-2.27h.89c.04.29.05 1.45.04 1.7.38-.91 1.1-1.92 2.89-1.92 1.56 0 2.93.91 2.93 3.39v5.84h-.91V12.76c0-1.59-.64-2.63-2.14-2.63-2.05 0-2.76 1.76-2.76 3.71v4.6h-.91Z"/><path clip-path="url(#b)" d="M160.63 15.79c-.42 1.58-1.43 2.87-3.4 2.87-2.19 0-3.74-1.68-3.74-4.68 0-2.47 1.28-4.76 3.85-4.76 2.23 0 3.14 1.63 3.29 2.89h-.92c-.26-1.04-.92-2.02-2.39-2.02-1.83 0-2.87 1.61-2.87 3.85 0 2.14.97 3.85 2.78 3.85 1.26 0 2.02-.66 2.47-2Z"/><path clip-path="url(#b)" d="M168.61 13.25c-.02-1.77-.95-3.16-2.65-3.16-1.78 0-2.59 1.29-2.78 3.16Zm-5.48.81c.02 2.3 1.14 3.73 2.8 3.73 1.62 0 2.18-.94 2.49-1.68h.92c-.36 1.19-1.29 2.55-3.45 2.55-2.65 0-3.69-2.36-3.69-4.65 0-2.58 1.24-4.8 3.79-4.8 2.69 0 3.55 2.39 3.55 4.1 0 .25 0 .5-.02.74Z"/><path clip-path="url(#b)" d="M172.09 15.96c.29 1.16 1.09 1.86 2.46 1.86 1.54 0 2.16-.73 2.16-1.73 0-1.02-.42-1.52-2.35-2-2.26-.56-2.82-1.27-2.82-2.46 0-1.25.91-2.4 2.89-2.4s2.93 1.25 3.06 2.53h-.9c-.15-.75-.72-1.68-2.2-1.68-1.5 0-1.93.77-1.93 1.48 0 .82.42 1.23 2.13 1.66 2.47.61 3.08 1.45 3.08 2.8 0 1.64-1.29 2.65-3.14 2.65-2 0-3.12-1.09-3.36-2.71Z"/><path clip-path="url(#b)" d="M194.94 10.35l-3.04 4.85c-1.48 2.35-2.54 3.42-4.51 3.42-2 0-3.17-1.64-3.17-3.21 0-1.54.69-2.7 3.26-4.14 1.77-1.17 2.44-1.68 2.44-2.83 0-.98-.6-1.93-1.76-1.93-1.09 0-1.85.7-1.85 2 0 .81.54 1.56 1.58 2.58l7.22 7.35h-1.35l-6.58-6.71c-1.12-1.11-1.79-1.94-1.79-3.21 0-1.43.93-2.86 2.8-2.86 1.58 0 2.66 1.23 2.66 2.78 0 1.23-.66 2.03-2.8 3.39-2.44 1.42-2.86 2.31-2.86 3.5 0 1.29 1.07 2.38 2.2 2.38 1.41 0 2.34-.51 3.91-3.09l2.59-4.27Z"/><path clip-path="url(#b)" d="M202.54 15.06c.36 1.67 1.44 2.65 3.43 2.65 2.21 0 3.06-1.14 3.06-2.5 0-1.41-.61-2.29-3.28-2.97-2.6-.67-3.7-1.54-3.7-3.36 0-1.67 1.18-3.21 3.8-3.21 2.69 0 3.83 1.7 3.99 3.23h-1.01c-.28-1.34-1.12-2.31-3.03-2.31-1.74 0-2.7.84-2.7 2.23 0 1.38.8 1.91 3.04 2.49 3.43.88 3.95 2.3 3.95 3.82 0 1.86-1.31 3.46-4.15 3.46-3.05 0-4.17-1.83-4.4-3.54Z"/><path clip-path="url(#b)" d="M219.01 15.82c0 .88.02 2.28.02 2.63h-.87c-.03-.23-.05-.83-.05-1.56-.37 1.06-1.26 1.77-2.8 1.77-1.27 0-2.86-.52-2.86-3.26V9.44h.89v5.74c0 1.31.4 2.58 2.11 2.58 1.93 0 2.66-1.12 2.66-3.68V9.44h.91Z"/><path clip-path="url(#b)" d="M222.03 11.76c0-.77 0-1.62-.02-2.33h.89c.02.3.05 1.07.04 1.59.37-.9 1.17-1.81 2.61-1.81 1.22 0 2.17.63 2.52 1.77.44-.93 1.31-1.77 2.84-1.77 1.35 0 2.74.8 2.74 3.3v5.93h-.9V12.63c0-1.2-.42-2.5-2.02-2.5-1.68 0-2.44 1.39-2.44 3.13v5.19h-.89v-5.8c0-1.31-.38-2.52-1.97-2.52-1.68 0-2.49 1.53-2.49 3.36v4.96h-.91Z"/><path clip-path="url(#b)" d="M236.67 11.76c0-.77 0-1.62-.02-2.33h.89c.02.3.05 1.07.04 1.59.37-.9 1.17-1.81 2.61-1.81 1.22 0 2.17.63 2.52 1.77.44-.93 1.31-1.77 2.84-1.77 1.35 0 2.74.8 2.74 3.3v5.93h-.9V12.63c0-1.2-.42-2.5-2.02-2.5-1.68 0-2.44 1.39-2.44 3.13v5.19h-.89v-5.8c0-1.31-.38-2.52-1.97-2.52-1.68 0-2.49 1.53-2.49 3.36v4.96h-.91Z"/><path clip-path="url(#b)" d="M251.31 9.44h.91v9.01h-.91Zm0-4.26h.91V6.94h-.91Z"/><path clip-path="url(#b)" d="M254.06 9.44h1.62V6.63h.91v2.8h2.07v.87h-2.07v5.82c0 1 .21 1.57 1.04 1.57.26 0 .62-.02.9-.11v.81c-.3.13-.73.16-1.09.16-1.13 0-1.76-.58-1.76-2.03V10.31h-1.62Z"/><path clip-path="url(#b)" d="M260.94 15.96c.29 1.16 1.09 1.86 2.46 1.86 1.54 0 2.16-.73 2.16-1.73 0-1.02-.42-1.52-2.35-2-2.26-.56-2.82-1.27-2.82-2.46 0-1.25.91-2.4 2.89-2.4s2.93 1.25 3.06 2.53h-.9c-.15-.75-.72-1.68-2.2-1.68-1.5 0-1.93.77-1.93 1.48 0 .82.41 1.23 2.13 1.66 2.47.61 3.08 1.45 3.08 2.8 0 1.64-1.29 2.65-3.14 2.65-2 0-3.12-1.09-3.36-2.71Z"/></g></g></svg>