<?xml version="1.0" encoding="UTF-8"?><!DOCTYPE svg PUBLIC "-//W3C//DTD SVG 1.0//EN" "http://www.w3.org/TR/2001/REC-SVG-20010904/DTD/svg10.dtd" []><svg xmlns="http://www.w3.org/2000/svg" xmlns:xlink="http://www.w3.org/1999/xlink" height="51" stroke="#000" stroke-linecap="square" stroke-miterlimit="10" viewBox="0 0 137.32 51.36" width="137"><defs><clipPath id="a"><path d="M0 0V51.36H137.32V0Z"/></clipPath><clipPath clip-path="url(#a)" id="b"><path d="M-164.07 303.41H796.05V-236.71H-164.07Z"/></clipPath><clipPath clip-path="url(#b)" id="c"><path d="M-164.02 303.35H795.99v-540H-164.02Z"/></clipPath></defs><g><g fill="#fff" stroke="none"><path clip-path="url(#c)" d="M5 5h8.94V39.03h20.6l-1.02 7.33H5Z"/><path clip-path="url(#c)" d="M40.46 46.36H49.4V5H40.46Z" fill-rule="evenodd"/><path clip-path="url(#c)" d="M68.7 12.33H56.13V5H90.17v7.33H77.65V46.36H68.7Z"/><path clip-path="url(#c)" d="M108.59 46.36V31.75c0-.47-.07-.89-.35-1.33L93.98 5H104.1c3.2 6.24 7.35 14.54 9.41 19.03 1.8-4.33 6.33-13.04 9.45-19.03h9.36L117.88 30.29c-.17.29-.34.48-.34 1.32V46.36Z"/></g></g></svg>