<?xml version="1.0" encoding="UTF-8"?><!DOCTYPE svg PUBLIC "-//W3C//DTD SVG 1.0//EN" "http://www.w3.org/TR/2001/REC-SVG-20010904/DTD/svg10.dtd" []><svg xmlns="http://www.w3.org/2000/svg" xmlns:xlink="http://www.w3.org/1999/xlink" height="21" stroke="#000" stroke-linecap="square" stroke-miterlimit="10" viewBox="0 0 87.12 21.42" width="87"><defs><clipPath id="a"><path d="M0 0V21.42H87.12V0Z"/></clipPath><clipPath clip-path="url(#a)" id="b"><path d="M-392.25 307.07H567.87v-540H-392.25Z"/></clipPath></defs><g><g fill="#fff" stroke="none" stroke-linecap="butt"><path clip-path="url(#b)" d="M14.47 11.65c0-2.03.02-4.14.07-5.32h-.06c-.48 1.89-2.15 6.46-3.39 9.95H9.63C8.69 13.4 6.97 8.26 6.47 6.3H6.41c.09 1.29.13 3.72.13 5.63v4.35H5V5.16H7.46c1.19 3.35 2.62 7.65 2.99 9.11h.03c.26-1.14 1.97-5.84 3.21-9.11h2.39V16.28H14.47Z"/><path clip-path="url(#b)" d="M24.68 11.69c-1.01-2.81-1.58-4.36-1.82-5.23h-.02c-.27.97-.9 2.82-1.72 5.23Zm-3.96 1.4l-1.13 3.19H17.95L21.88 5.16h2.04l4.09 11.12H26.26l-1.17-3.19Z"/><path clip-path="url(#b)" d="M29.85 5.16H31.5v9.72h5.75l-.22 1.4H29.85Z"/><path clip-path="url(#b)" d="M45.21 11.69c-1.01-2.81-1.58-4.36-1.82-5.23h-.02c-.27.97-.9 2.82-1.72 5.23Zm-3.96 1.4l-1.13 3.19H38.48L42.4 5.16h2.04l4.09 11.12H46.79l-1.17-3.19Z"/><path clip-path="url(#b)" d="M51.5 16.28V12.23c0-.11-.02-.22-.08-.31l-3.9-6.76H49.4c.98 1.78 2.5 4.53 3.02 5.55.48-1 2.06-3.79 3.07-5.55h1.75l-4.01 6.77c-.04.07-.07.13-.07.3v4.05Z"/><path clip-path="url(#b)" d="M59.49 13.15c.29 1.29 1.18 1.97 2.73 1.97 1.65 0 2.31-.76 2.31-1.76 0-1.08-.55-1.66-2.71-2.18-2.7-.65-3.58-1.59-3.58-3.14 0-1.7 1.26-3.05 3.77-3.05 2.71 0 3.81 1.54 3.96 3.03H64.3c-.18-.93-.76-1.73-2.34-1.73-1.28 0-2.01.57-2.01 1.58 0 .99.6 1.39 2.52 1.85 3.18.77 3.77 2 3.77 3.45 0 1.84-1.37 3.24-4.13 3.24-2.8 0-4.06-1.5-4.3-3.27Z"/><path clip-path="url(#b)" d="M68.49 16.28h1.65V5.16H68.49Z" fill-rule="evenodd"/><path clip-path="url(#b)" d="M78.8 11.69c-1.01-2.81-1.58-4.36-1.82-5.23h-.02c-.27.97-.9 2.82-1.72 5.23Zm-3.96 1.4L73.7 16.28H72.06L75.99 5.16h2.04l4.09 11.12H80.37L79.2 13.09Z"/></g></g></svg>