<?xml version="1.0" encoding="UTF-8"?><!DOCTYPE svg PUBLIC "-//W3C//DTD SVG 1.0//EN" "http://www.w3.org/TR/2001/REC-SVG-20010904/DTD/svg10.dtd" []><svg xmlns="http://www.w3.org/2000/svg" xmlns:xlink="http://www.w3.org/1999/xlink" height="8" stroke="#000" stroke-linecap="square" stroke-miterlimit="10" viewBox="0 0 104.2 8.02" width="104"><g><g fill="#fff" stroke="#fff"><path d="M40.58 3.85H40.3V.41c.16-.04.33-.04.41-.04 1.02 0 1.59.41 1.59 1.55 0 1.31-.65 1.92-1.72 1.92M44.8 7.9v-.2c-.29-.04-.37-.21-.7-1.35-.45-1.47-.94-2.37-2.33-2.45l.04-.08c1.27-.04 2.25-.65 2.25-1.88 0-1.51-1.6-1.8-3.31-1.8H37.64V.33c.29.04.82.16.82 1.02V6.59c0 .9-.49 1.06-.82 1.11v.2h3.31v-.2c-.33-.04-.65-.25-.65-1.19V4.09h.16c.86 0 1.39.98 1.8 2.54.25.9.29 1.1.29 1.19V7.9Zm2.17-2.94l1.35-3.93h.04l1.1 3.93Zm5.07 1.88l-2-6.71h-2.5V.33c.33.04.49.29.49.45 0 .12-.04.24-.08.45L46.31 5.81c-.53 1.47-.9 1.84-1.27 1.92v.21h2.17V7.73c-.41-.04-.7-.41-.7-.86 0-.33.08-.65.24-1.1l.16-.49h2.74c.16.69.45 1.43.45 1.88 0 .29-.16.53-.57.57v.21H52.9V7.73c-.41-.04-.65-.29-.86-.9m3.72-5.44c0-.9.49-1.02.82-1.06V.12H53.14V.33c.33.04.82.16.82 1.06v5.2c0 .9-.49 1.06-.82 1.11v.2h3.44v-.2c-.33-.04-.82-.21-.82-1.11ZM57.03.12V1.88h.2C57.72.74 58.46.41 59.11.41h.29V6.63c0 .9-.53 1.06-.86 1.1v.21h3.52V7.73c-.33-.04-.82-.2-.82-1.1V.41h.29c.74 0 1.43.33 1.92 1.47h.2V.12ZM30.52.12V1.88h.2C31.21.74 31.91.41 32.65.41h.29V6.63c0 .9-.53 1.06-.86 1.1v.21h3.52V7.73c-.33-.04-.82-.2-.82-1.1V.41h.29c.74 0 1.43.33 1.92 1.47h.21V.12ZM66.23 7.73c-1.1 0-1.6-.86-1.88-1.64h-.2V7.77c.49.12 1.23.25 2.09.25 1.55 0 3.03-.7 3.03-2.37 0-1.1-.57-1.88-2.05-2.45-1.02-.37-1.6-.78-1.6-1.64 0-.82.65-1.27 1.35-1.27.98 0 1.51.74 1.8 1.6h.2V.21C68.48.12 67.87 0 67.09 0c-1.88 0-2.95.9-2.95 2.25s.94 1.88 1.96 2.33c1.06.45 1.64.86 1.64 1.8-.04.9-.65 1.35-1.51 1.35m-38.99 0c-1.11 0-1.6-.86-1.92-1.64h-.2V7.77c.49.12 1.23.25 2.05.25 1.55 0 3.03-.7 3.03-2.37 0-1.1-.57-1.88-2.05-2.45-1.02-.37-1.6-.78-1.6-1.64 0-.82.66-1.27 1.35-1.27.98 0 1.47.74 1.8 1.6h.2V.16C29.46.08 28.8 0 28.02 0c-1.88 0-2.95.9-2.95 2.25S26.02 4.13 27 4.58c1.06.45 1.64.86 1.64 1.8.04.9-.57 1.35-1.39 1.35M0 .12V1.88H.21C.7.74 1.39.41 2.13.41h.29V6.63c0 .9-.57 1.06-.86 1.1v.21H5.07V7.73c-.33-.04-.82-.2-.82-1.1V.41H4.5c.74 0 1.43.33 1.92 1.47h.2V.12ZM18.21 7.65V4.05h.65c.94 0 1.27.33 1.51.94h.2V2.78h-.2c-.25.65-.61.98-1.51.98h-.65V.41h.74c.86 0 1.92.16 2.37 1.47h.2V.12H15.71V.33c.25.04.65.12.65.98V6.63c0 .86-.45 1.02-.7 1.06v.2h6.01V6.1h-.21c-.53 1.31-1.14 1.51-2.25 1.51H18.21Zm-3.93-6.3c0-.9.49-1.02.82-1.02V.12H11.66V.33c.33.04.82.16.82 1.02V3.68H9.86V1.35c0-.9.49-1.02.82-1.02V.12H7.24V.33c.33.04.82.16.82 1.02V6.59c0 .9-.49 1.06-.82 1.11v.2h3.44v-.2c-.33-.04-.82-.21-.82-1.11V4.05h2.62V6.59c0 .9-.49 1.06-.82 1.11v.2H15.1v-.2c-.33-.04-.82-.21-.82-1.11Zm86.93 6.38c-1.1 0-1.6-.86-1.92-1.64h-.2V7.77c.49.12 1.23.25 2.09.25 1.55 0 3.03-.7 3.03-2.37 0-1.1-.57-1.88-2.05-2.45-1.02-.37-1.6-.78-1.6-1.64 0-.82.65-1.27 1.35-1.27.98 0 1.47.74 1.8 1.6h.2V.21C103.46.12 102.8 0 102.07 0c-1.88 0-2.95.9-2.95 2.25s.94 1.88 1.92 2.33c1.06.45 1.64.86 1.64 1.8-.04.9-.65 1.35-1.47 1.35M71.8.12V1.88H72C72.49.74 73.27.41 73.92.41h.29V6.63c0 .9-.53 1.06-.86 1.1v.21h3.56V7.73c-.37-.04-.82-.2-.82-1.1V.41h.29c.74 0 1.43.33 1.92 1.47h.21V.12ZM94.95 7.65V4.05h.61c.94 0 1.27.33 1.51.94h.2V2.78h-.2c-.25.65-.61.98-1.51.98h-.61V.41h.74c.86 0 1.96.16 2.37 1.47h.21V.12H92.41V.33c.24.04.65.12.65.98V6.63c0 .86-.41 1.02-.65 1.06v.2h5.93V6.1h-.21c-.45 1.06-.86 1.51-2.25 1.51h-.94ZM81.57 1.35c0-.9.49-1.02.86-1.02V.12H78.91V.33c.33.04.82.16.82 1.02V6.59c0 .9-.49 1.06-.82 1.11v.2h3.35v-.2c-.24-.04-.74-.25-.74-1.11V1.35ZM89.02.12L87.38 4.99 85.91.12H83.05V.33c.41.04.65.24.65.98V6.18c0 .78-.29 1.43-.98 1.51v.2h2.41v-.2c-.69-.08-.98-.61-.98-1.43V.9h.04l2.33 7.04h.29L89.18.74V6.59c0 .9-.49 1.06-.82 1.11v.2h3.4v-.2c-.29-.04-.74-.25-.74-1.11V1.35c0-.86.49-1.02.74-1.02V.12Z" stroke="none"/></g></g></svg>