<?xml version="1.0" encoding="UTF-8"?><!DOCTYPE svg PUBLIC "-//W3C//DTD SVG 1.0//EN" "http://www.w3.org/TR/2001/REC-SVG-20010904/DTD/svg10.dtd" []><svg xmlns="http://www.w3.org/2000/svg" xmlns:xlink="http://www.w3.org/1999/xlink" height="27" stroke="#000" stroke-linecap="square" stroke-miterlimit="10" viewBox="0 0 108.26 27.03" width="108"><defs><clipPath id="a"><path d="M0 0V27.03H108.26V0Z"/></clipPath><clipPath clip-path="url(#a)" id="b"><path d="M-190.75 85.59H769.37v-540H-190.75Z"/></clipPath><clipPath clip-path="url(#b)" id="c"><path d="M-190.75 85.59H769.26v-540H-190.75Z"/></clipPath></defs><g><g fill="#FB03A0" stroke="none"><path clip-path="url(#c)" d="M5 22.03h98.26V5H5Z" fill-rule="evenodd"/><path clip-path="url(#c)" d="M34.95 12.93h1.35c.97 0 1.6-.38 1.6-1.32 0-.73-.49-1.05-1.28-1.05H35.46ZM34.82 9.9h2c1.24 0 1.91.71 1.91 1.66 0 1.36-1.01 2.02-2.42 2.02h-1.5l-.54 2.58h-.78Z" fill="#fff"/><path clip-path="url(#c)" d="M42.02 13.94c-.24.01-.55.01-.94.05-.74.08-1.4.28-1.4 1.01 0 .34.23.64.73.64 1 0 1.39-.78 1.59-1.63Zm.5 1.1c-.08.38-.19.95-.21 1.13h-.73c.01-.17.07-.45.12-.7-.23.37-.62.79-1.55.79-.92 0-1.26-.6-1.26-1.15 0-1.3 1.22-1.59 2.13-1.67.47-.04.88-.04 1.11-.05l.06-.31c.09-.43.05-.99-.82-.99-.77 0-.98.4-1.12.75H39.5c.16-.68.66-1.33 1.94-1.33 1.05 0 1.72.47 1.49 1.57Z" fill="#fff"/><path clip-path="url(#c)" d="M44.46 12.76c.08-.4.16-.78.23-1.16h.73c-.01.14-.11.65-.14.78.26-.42.7-.87 1.54-.87.87 0 1.41.5 1.13 1.8l-.6 2.86H46.6l.59-2.83c.15-.69-.01-1.16-.7-1.16-.85 0-1.33.78-1.53 1.71l-.49 2.28h-.74Z" fill="#fff"/><path clip-path="url(#c)" d="M50.24 12.93h1.35c.97 0 1.6-.38 1.6-1.32 0-.73-.49-1.05-1.28-1.05H50.74ZM50.1 9.9h2c1.24 0 1.91.71 1.91 1.66 0 1.36-1 2.02-2.42 2.02h-1.5l-.54 2.58h-.78Z" fill="#fff"/><path clip-path="url(#c)" d="M57.31 13.94c-.25.01-.55.01-.94.05-.74.08-1.4.28-1.4 1.01 0 .34.23.64.73.64 1 0 1.39-.78 1.59-1.63Zm.5 1.1c-.08.38-.19.95-.21 1.13h-.73c.01-.17.07-.45.12-.7-.23.37-.61.79-1.55.79-.92 0-1.26-.6-1.26-1.15 0-1.3 1.22-1.59 2.14-1.67.47-.04.88-.04 1.11-.05l.06-.31c.09-.43.05-.99-.82-.99-.77 0-.98.4-1.12.75h-.76c.16-.68.66-1.33 1.94-1.33 1.05 0 1.72.47 1.49 1.57Z" fill="#fff"/><path clip-path="url(#c)" d="M62.82 14.8c-.31.87-.94 1.46-2.03 1.46-1.12 0-1.66-.73-1.66-1.79 0-1.37.77-2.96 2.36-2.96 1.29 0 1.65.93 1.6 1.55h-.73c-.02-.52-.24-.94-.91-.94-1.06 0-1.54 1.31-1.54 2.3 0 .86.39 1.23.99 1.23.52 0 .92-.32 1.17-.85Z" fill="#fff"/><path clip-path="url(#c)" d="M65 9.56h.75l-.21.98h-.74Zm-.43 2.04h.75l-.97 4.56H63.6Z" fill="#fff"/><path clip-path="url(#c)" d="M66 16.17l.83-3.95h-.73l.14-.61h.73l.14-.65c.18-.84.62-1.49 1.52-1.49.22 0 .43.03.53.07l-.14.63c-.09-.03-.26-.04-.37-.04-.43 0-.68.28-.79.83l-.14.64h.9l-.14.61h-.9l-.83 3.95Z" fill="#fff"/><path clip-path="url(#c)" d="M69.96 9.56h.74l-.21.98h-.74Zm-.43 2.04h.75l-.97 4.56h-.74Z" fill="#fff"/><path clip-path="url(#c)" d="M74.56 14.8c-.31.87-.94 1.46-2.03 1.46-1.12 0-1.66-.73-1.66-1.79 0-1.37.77-2.96 2.36-2.96 1.29 0 1.65.93 1.6 1.55h-.73c-.02-.52-.24-.94-.91-.94-1.06 0-1.54 1.31-1.54 2.3 0 .86.39 1.23.99 1.23.52 0 .92-.32 1.17-.85Z" fill="#fff"/></g></g></svg>