<?xml version="1.0" encoding="UTF-8"?><!DOCTYPE svg PUBLIC "-//W3C//DTD SVG 1.0//EN" "http://www.w3.org/TR/2001/REC-SVG-20010904/DTD/svg10.dtd" []><svg xmlns="http://www.w3.org/2000/svg" xmlns:xlink="http://www.w3.org/1999/xlink" height="34" stroke="#000" stroke-linecap="square" stroke-miterlimit="10" viewBox="0 0 473.27 33.65" width="473"><defs><clipPath id="a"><path d="M0 0V33.65H473.27V0Z"/></clipPath><clipPath clip-path="url(#a)" id="b"><path d="M-393.97 160.9H566.15v-540H-393.97Z"/></clipPath></defs><g><g fill="#fff" stroke="none"><path clip-path="url(#b)" d="M7.49 6.83H5.28l.27-1.27h5.97l-.27 1.27H9.04L7.71 13.14H6.16Z"/><path clip-path="url(#b)" d="M14.08 5.11l-.64 3.06c.34-.42.84-.83 1.72-.83 1.01 0 1.77.56 1.43 2.16l-.77 3.64H14.33l.72-3.43c.15-.74.01-1.12-.65-1.12-.75 0-1.17.55-1.33 1.33l-.69 3.22H10.89l1.7-8.03Z"/><path clip-path="url(#b)" d="M21.49 9.63c.02-.11.02-.18.02-.25 0-.5-.22-.92-.88-.92-.69 0-1.11.44-1.3 1.18Zm-2.35 1c-.02.12-.04.22-.04.34 0 .6.23 1.12.9 1.12.61 0 .88-.33 1.07-.69h1.56c-.32.84-1.05 1.84-2.75 1.84-1.53 0-2.28-.96-2.28-2.34 0-1.5.82-3.58 3.09-3.58 1.68 0 2.26 1.02 2.26 2.19 0 .46-.06.79-.15 1.11Z"/><path clip-path="url(#b)" d="M30.26 9.05h1.17C32.45 9.05 33 8.67 33 7.8c0-.66-.38-1-1.19-1H30.74Zm-.78-3.5h2.65c1.59 0 2.5.89 2.5 2.14 0 1.75-1.3 2.6-3.11 2.6H29.99l-.6 2.84H27.86Z"/><path clip-path="url(#b)" d="M38.96 9.63c.02-.11.02-.18.02-.25 0-.5-.22-.92-.88-.92-.69 0-1.1.44-1.3 1.18Zm-2.35 1c-.02.12-.04.22-.04.34 0 .6.23 1.12.9 1.12.61 0 .88-.33 1.07-.69h1.56c-.32.84-1.05 1.84-2.75 1.84-1.53 0-2.28-.96-2.28-2.34 0-1.5.82-3.58 3.09-3.58 1.67 0 2.26 1.02 2.26 2.19 0 .46-.06.79-.15 1.11Z"/><path clip-path="url(#b)" d="M41.86 9.13c.12-.56.23-1.16.33-1.69h1.44c-.01.14-.06.57-.16 1.04.39-.68.9-1.15 1.9-1.15l-.31 1.5c-1.04.01-1.77.58-2.03 1.83l-.52 2.47H41Z"/><path clip-path="url(#b)" d="M45.73 13.14l.95-4.55h-.8l.26-1.14h.8l.12-.55c.26-1.18.92-1.9 2.08-1.9.26 0 .64.03.76.08l-.25 1.19c-.08-.01-.25-.03-.36-.03-.44 0-.66.23-.74.67l-.11.53h.96l-.26 1.14h-.96l-.95 4.55Z"/><path clip-path="url(#b)" d="M53.32 9.63c.02-.11.02-.18.02-.25 0-.5-.22-.92-.88-.92-.69 0-1.1.44-1.3 1.18Zm-2.35 1c-.02.12-.04.22-.04.34 0 .6.23 1.12.9 1.12.61 0 .88-.33 1.06-.69h1.56c-.32.84-1.04 1.84-2.75 1.84-1.53 0-2.28-.96-2.28-2.34 0-1.5.82-3.58 3.09-3.58 1.67 0 2.26 1.02 2.26 2.19 0 .46-.06.79-.15 1.11Z"/><path clip-path="url(#b)" d="M60.53 11.28c-.31 1.07-1.07 1.97-2.76 1.97-1.44 0-2.2-.85-2.2-2.21 0-1.66.95-3.71 3.06-3.71 1.85 0 2.31 1.3 2.23 2.03H59.4c-.01-.44-.15-.89-.83-.89-1.06 0-1.47 1.59-1.47 2.49 0 .8.32 1.15.85 1.15.5 0 .84-.28 1.07-.84Z"/><path clip-path="url(#b)" d="M61.85 7.44h.84l.33-1.54h1.49l-.32 1.54h1.07L65 8.59H63.93l-.6 2.87c-.07.35-.04.59.41.59.17 0 .32-.01.49-.04L64 13.09c-.33.11-.7.11-1.01.11-1.18 0-1.37-.68-1.16-1.68l.61-2.93h-.84Z"/><path clip-path="url(#b)" d="M76.21 10.29c.27-1.29.61-2.81.82-3.67h-.04c-.67 1.54-1.9 4.14-3.07 6.52H72.58c-.1-1.87-.29-5.1-.28-6.54h-.05c-.12.88-.44 2.51-.71 3.82l-.58 2.72H69.52l1.61-7.59h2.34c.12 1.85.24 4.44.24 5.56h.01c.4-1.03 1.68-3.49 2.67-5.56h2.34l-1.61 7.59H75.61Z"/><path clip-path="url(#b)" d="M80.57 10.9c0 .79.33 1.18.91 1.18 1.07 0 1.5-1.49 1.5-2.46 0-.74-.31-1.13-.93-1.13-1.04 0-1.48 1.48-1.48 2.41m3.96-1.13c0 1.34-.78 3.47-3.2 3.47-1.58 0-2.32-.97-2.32-2.35 0-1.53.97-3.56 3.15-3.56 1.36 0 2.36.77 2.36 2.44"/><path clip-path="url(#b)" d="M85.99 9.04c.11-.54.23-1.09.32-1.6h1.46c-.02.13-.06.44-.11.66.37-.46.8-.77 1.58-.77.81 0 1.19.36 1.3.92.4-.5.96-.92 1.86-.92.97 0 1.7.55 1.37 2.1l-.79 3.71H91.52l.75-3.52c.11-.51.08-1.04-.62-1.04-.68 0-.99.49-1.17 1.36l-.68 3.21H88.32l.75-3.55c.11-.55.02-1.01-.61-1.01-.67 0-1.01.47-1.21 1.43l-.66 3.12H85.12Z"/><path clip-path="url(#b)" d="M98.67 9.63c.02-.11.02-.18.02-.25 0-.5-.22-.92-.88-.92-.69 0-1.11.44-1.3 1.18Zm-2.35 1c-.02.12-.04.22-.04.34 0 .6.23 1.12.9 1.12.61 0 .88-.33 1.07-.69H99.8c-.32.84-1.05 1.84-2.75 1.84-1.53 0-2.28-.96-2.28-2.34 0-1.5.82-3.58 3.09-3.58 1.68 0 2.26 1.02 2.26 2.19 0 .46-.06.79-.15 1.11Z"/><path clip-path="url(#b)" d="M101.61 8.89c.1-.48.21-.97.29-1.44h1.46c-.01.16-.08.57-.11.71.26-.34.77-.82 1.72-.82 1.12 0 1.76.68 1.41 2.36l-.73 3.44h-1.48l.73-3.46c.14-.64 0-1.1-.64-1.1-.73 0-1.19.55-1.41 1.61l-.62 2.95h-1.49Z"/><path clip-path="url(#b)" d="M107.67 7.44h.84l.33-1.54h1.49l-.32 1.54h1.07l-.26 1.14h-1.07l-.6 2.87c-.07.35-.04.59.41.59.17 0 .32-.01.49-.04l-.23 1.08c-.33.11-.7.11-1.01.11-1.18 0-1.37-.68-1.16-1.68l.61-2.93h-.84Z"/><path clip-path="url(#b)" d="M116.05 10.6h4.54v-.54h-4.54Z" fill-rule="evenodd"/><path clip-path="url(#b)" d="M126.99 5.44h4.66v.55h-4.07v2.9h3.82v.55h-3.82v3.7h-.59Z"/><path clip-path="url(#b)" d="M132.86 13.14h.55V5.03h-.55Z" fill-rule="evenodd"/><path clip-path="url(#b)" d="M138.48 10.33H137.4c-1.22 0-1.98.32-1.98 1.27 0 .69.5 1.17 1.27 1.17 1.57 0 1.79-1.04 1.79-2.23Zm.54 1.76c0 .48.04.87.08 1.05h-.53c-.04-.13-.08-.37-.1-.85-.19.41-.67.98-1.8.98-1.28 0-1.83-.83-1.83-1.65 0-1.21.94-1.76 2.59-1.76h1.05V9.3c0-.55-.17-1.29-1.42-1.29-1.11 0-1.27.58-1.4 1.03h-.55c.07-.61.44-1.54 1.96-1.54 1.25 0 1.96.53 1.96 1.74Z"/><path clip-path="url(#b)" d="M140.79 7.64c.81 2.84 1.29 4.47 1.38 4.95h.01c.09-.44.64-2.17 1.5-4.95h.59c1.02 3.4 1.33 4.38 1.43 4.81h.01c.15-.6.41-1.43 1.42-4.81h.58l-1.74 5.5h-.61c-.59-1.95-1.31-4.34-1.42-4.84h-.01c-.11.54-.74 2.51-1.45 4.84h-.66l-1.62-5.5Z"/><path clip-path="url(#b)" d="M148.96 13.14h.55V5.03h-.55Z" fill-rule="evenodd"/><path clip-path="url(#b)" d="M155.03 9.97c-.01-1.09-.6-1.95-1.68-1.95-1.13 0-1.65.79-1.77 1.95Zm-3.49.48c.01 1.42.72 2.3 1.78 2.3 1.03 0 1.39-.58 1.58-1.03h.56c-.23.73-.81 1.55-2.17 1.55-1.67 0-2.32-1.44-2.32-2.84 0-1.57.78-2.93 2.39-2.93 1.69 0 2.23 1.46 2.23 2.5 0 .15 0 .31-.01.45Z"/><path clip-path="url(#b)" d="M157.19 11.62c.19.72.69 1.15 1.56 1.15.98 0 1.38-.45 1.38-1.07 0-.63-.27-.93-1.5-1.23-1.42-.34-1.77-.77-1.77-1.5 0-.76.57-1.46 1.82-1.46s1.84.76 1.92 1.54h-.55c-.1-.46-.46-1.03-1.4-1.03-.96 0-1.23.47-1.23.91 0 .51.27.76 1.35 1.02 1.55.37 1.94.88 1.94 1.71 0 1-.82 1.62-1.97 1.62-1.25 0-1.96-.66-2.11-1.65Z"/><path clip-path="url(#b)" d="M162.31 11.62c.19.72.69 1.15 1.56 1.15.98 0 1.38-.45 1.38-1.07 0-.63-.27-.93-1.5-1.23-1.42-.34-1.77-.77-1.77-1.5 0-.76.57-1.46 1.82-1.46s1.84.76 1.92 1.54h-.55c-.1-.46-.46-1.03-1.4-1.03-.96 0-1.23.47-1.23.91 0 .51.27.76 1.35 1.02 1.55.37 1.94.88 1.94 1.71 0 1-.82 1.62-1.97 1.62-1.25 0-1.96-.66-2.11-1.65Z"/><path clip-path="url(#b)" d="M175.46 9.97c-.01-1.09-.61-1.95-1.68-1.95-1.13 0-1.65.79-1.77 1.95Zm-3.49.48c.01 1.42.73 2.3 1.78 2.3 1.03 0 1.39-.58 1.58-1.03h.56c-.23.73-.82 1.55-2.17 1.55-1.67 0-2.32-1.44-2.32-2.84 0-1.57.78-2.93 2.39-2.93 1.69 0 2.23 1.46 2.23 2.5 0 .15 0 .31-.01.45Z"/><path clip-path="url(#b)" d="M177.45 7.64c.91 1.35 1.31 1.96 1.53 2.29H179c.26-.37.81-1.17 1.6-2.29h.63l-1.91 2.66 1.95 2.84h-.66c-.79-1.18-1.36-2.01-1.63-2.4h-.01c-.21.32-.7 1.07-1.61 2.4h-.64l1.95-2.79-1.86-2.71Z"/><path clip-path="url(#b)" d="M185.87 9.97c-.01-1.09-.61-1.95-1.68-1.95-1.13 0-1.65.79-1.77 1.95Zm-3.49.48c.01 1.42.72 2.3 1.78 2.3 1.03 0 1.39-.58 1.58-1.03h.56c-.23.73-.81 1.55-2.17 1.55-1.67 0-2.32-1.44-2.32-2.84 0-1.57.78-2.93 2.39-2.93 1.69 0 2.23 1.46 2.23 2.5 0 .15 0 .31-.01.45Z"/><path clip-path="url(#b)" d="M192 11.52c-.27.97-.9 1.75-2.14 1.75-1.38 0-2.35-1.02-2.35-2.86 0-1.51.8-2.9 2.42-2.9 1.4 0 1.97.99 2.07 1.76h-.56c-.16-.64-.58-1.24-1.52-1.24-1.17 0-1.83.99-1.83 2.37 0 1.31.62 2.37 1.77 2.37.8 0 1.29-.41 1.57-1.23Z"/><path clip-path="url(#b)" d="M197.44 11.53c0 .54.01 1.4.01 1.61h-.53c-.02-.14-.03-.51-.03-.96-.23.65-.79 1.09-1.77 1.09-.79 0-1.8-.31-1.8-1.99V7.64h.54v3.51c0 .8.25 1.58 1.34 1.58 1.23 0 1.69-.69 1.69-2.27V7.64h.55Z"/><path clip-path="url(#b)" d="M198.66 7.64h1.02V5.92h.55V7.64h1.31v.52h-1.31v3.57c0 .62.13.97.66.97.16 0 .4-.01.57-.07v.48c-.19.08-.45.1-.68.1-.7 0-1.1-.35-1.1-1.23V8.16h-1.02Z"/><path clip-path="url(#b)" d="M202.78 7.64h.55v5.5h-.55Zm0-2.61h.55V6.1h-.55Z"/><path clip-path="url(#b)" d="M205.38 10.39c0 1.31.7 2.36 1.87 2.36 1.19 0 1.86-.98 1.86-2.36 0-1.3-.66-2.37-1.88-2.37-1.25 0-1.85 1.05-1.85 2.37m4.31-.01c0 1.53-.85 2.89-2.49 2.89-1.49 0-2.41-1.22-2.41-2.88 0-1.57.87-2.88 2.46-2.88 1.46 0 2.43 1.15 2.43 2.87"/><path clip-path="url(#b)" d="M211.17 9.02c0-.48 0-.95-.01-1.39h.54c.02.18.03.89.02 1.05.24-.56.69-1.18 1.83-1.18.98 0 1.85.55 1.85 2.07v3.56h-.55V9.66c0-.98-.41-1.62-1.36-1.62-1.31 0-1.76 1.09-1.76 2.29v2.8h-.55Z"/><path clip-path="url(#b)" d="M221.87 7.64c.81 2.84 1.29 4.47 1.38 4.95h.01c.09-.44.64-2.17 1.5-4.95h.59c1.02 3.4 1.33 4.38 1.43 4.81h.01c.15-.6.41-1.43 1.42-4.81h.58l-1.74 5.5h-.6c-.6-1.95-1.31-4.34-1.42-4.84h-.01c-.11.54-.74 2.51-1.45 4.84h-.66l-1.62-5.5Z"/><path clip-path="url(#b)" d="M230.59 5.03V8.56c.31-.57.85-1.06 1.82-1.06.78 0 1.86.4 1.86 2.13v3.5h-.55V9.75c0-1.09-.49-1.71-1.41-1.71-1.09 0-1.72.67-1.72 2.02v3.07h-.55V5.03Z"/><path clip-path="url(#b)" d="M239.79 9.97c-.01-1.09-.61-1.95-1.68-1.95-1.13 0-1.65.79-1.77 1.95Zm-3.49.48c.01 1.42.72 2.3 1.78 2.3 1.03 0 1.39-.58 1.58-1.03h.56c-.23.73-.81 1.55-2.17 1.55-1.67 0-2.32-1.44-2.32-2.84 0-1.57.78-2.93 2.39-2.93 1.69 0 2.23 1.46 2.23 2.5 0 .15 0 .31-.01.45Z"/><path clip-path="url(#b)" d="M241.81 9.02c0-.48 0-.95-.01-1.39h.54c.02.18.03.89.02 1.05.24-.56.69-1.18 1.83-1.18.98 0 1.85.55 1.85 2.07v3.56h-.55V9.66c0-.98-.41-1.62-1.36-1.62-1.31 0-1.76 1.09-1.76 2.29v2.8h-.55Z"/><path clip-path="url(#b)" d="M252.5 7.64h.55v5.5h-.55Zm0-2.61h.55V6.1h-.55Z"/><path clip-path="url(#b)" d="M254.21 7.64h1.02V5.92h.55V7.64h1.31v.52h-1.31v3.57c0 .62.13.97.66.97.17 0 .4-.01.57-.07v.48c-.19.08-.45.1-.68.1-.7 0-1.1-.35-1.1-1.23V8.16h-1.02Z"/><path clip-path="url(#b)" d="M262.87 9.06c0-.47 0-.99-.01-1.42h.54c.01.19.03.66.02.98.23-.55.74-1.11 1.65-1.11.77 0 1.38.39 1.59 1.09.28-.57.83-1.09 1.79-1.09.85 0 1.73.49 1.73 2.01v3.62h-.55V9.59c0-.74-.26-1.54-1.29-1.54-1.07 0-1.55.86-1.55 1.93v3.17h-.54V9.6c0-.8-.24-1.55-1.26-1.55-1.07 0-1.58.95-1.58 2.07v3.03h-.55Z"/><path clip-path="url(#b)" d="M275.27 10.33h-1.08c-1.22 0-1.98.32-1.98 1.27 0 .69.5 1.17 1.27 1.17 1.57 0 1.79-1.04 1.79-2.23Zm.54 1.76c0 .48.04.87.08 1.05h-.53c-.04-.13-.08-.37-.1-.85-.19.41-.67.98-1.8.98-1.28 0-1.83-.83-1.83-1.65 0-1.21.94-1.76 2.59-1.76h1.05V9.3c0-.55-.16-1.29-1.42-1.29-1.11 0-1.28.58-1.4 1.03h-.55c.07-.61.44-1.54 1.96-1.54 1.25 0 1.96.53 1.96 1.74Z"/><path clip-path="url(#b)" d="M276.85 7.64h1.02V5.92h.55V7.64h1.31v.52h-1.31v3.57c0 .62.13.97.66.97.16 0 .4-.01.57-.07v.48c-.19.08-.45.1-.68.1-.7 0-1.1-.35-1.1-1.23V8.16h-1.02Z"/><path clip-path="url(#b)" d="M280.19 7.64h1.02V5.92h.55V7.64h1.31v.52h-1.31v3.57c0 .62.13.97.66.97.16 0 .4-.01.57-.07v.48c-.19.08-.45.1-.68.1-.7 0-1.1-.35-1.1-1.23V8.16h-1.02Z"/><path clip-path="url(#b)" d="M287.84 9.97c-.01-1.09-.6-1.95-1.68-1.95-1.13 0-1.65.79-1.77 1.95Zm-3.49.48c.01 1.42.73 2.3 1.78 2.3 1.03 0 1.39-.58 1.58-1.03h.56c-.23.73-.81 1.55-2.17 1.55-1.67 0-2.32-1.44-2.32-2.84 0-1.57.78-2.93 2.39-2.93 1.69 0 2.23 1.46 2.23 2.5 0 .15 0 .31-.01.45Z"/><path clip-path="url(#b)" d="M289.87 9.13c0-.92-.01-1.32-.01-1.5h.54c.01.18.02.53.02 1.23.32-.82 1.02-1.32 1.91-1.36V8.1c-1.14.08-1.91.87-1.91 2.18v2.86h-.55Z"/><path clip-path="url(#b)" d="M293.58 11.62c.19.72.69 1.15 1.56 1.15.98 0 1.38-.45 1.38-1.07 0-.63-.27-.93-1.5-1.23-1.42-.34-1.77-.77-1.77-1.5 0-.76.57-1.46 1.82-1.46s1.84.76 1.92 1.54h-.55c-.1-.46-.46-1.03-1.4-1.03-.96 0-1.23.47-1.23.91 0 .51.27.76 1.35 1.02 1.55.37 1.94.88 1.94 1.71 0 1-.82 1.62-1.97 1.62-1.25 0-1.96-.66-2.11-1.65Z"/><path clip-path="url(#b)" d="M303.13 9.06c0-.47 0-.99-.01-1.42h.54c.01.19.03.66.02.98.23-.55.74-1.11 1.65-1.11.77 0 1.38.39 1.59 1.09.28-.57.83-1.09 1.79-1.09.85 0 1.73.49 1.73 2.01v3.62h-.55V9.59c0-.74-.26-1.54-1.29-1.54-1.07 0-1.55.86-1.55 1.93v3.17h-.54V9.6c0-.8-.24-1.55-1.25-1.55-1.07 0-1.58.95-1.58 2.07v3.03h-.55Z"/><path clip-path="url(#b)" d="M312.5 10.39c0 1.31.7 2.36 1.87 2.36 1.19 0 1.86-.98 1.86-2.36 0-1.3-.66-2.37-1.88-2.37-1.25 0-1.85 1.05-1.85 2.37m4.31-.01c0 1.53-.85 2.89-2.49 2.89-1.48 0-2.41-1.22-2.41-2.88 0-1.57.87-2.88 2.47-2.88 1.46 0 2.43 1.15 2.43 2.87"/><path clip-path="url(#b)" d="M318.39 11.62c.19.72.69 1.15 1.56 1.15.98 0 1.38-.45 1.38-1.07 0-.63-.27-.93-1.5-1.23-1.42-.34-1.77-.77-1.77-1.5 0-.76.57-1.46 1.82-1.46s1.84.76 1.92 1.54h-.55c-.1-.46-.46-1.03-1.4-1.03-.96 0-1.23.47-1.23.91 0 .51.26.76 1.35 1.02 1.55.37 1.94.88 1.94 1.71 0 1-.82 1.62-1.97 1.62-1.25 0-1.96-.66-2.11-1.65Z"/><path clip-path="url(#b)" d="M322.53 7.64h1.02V5.92h.55V7.64h1.31v.52H324.1v3.57c0 .62.13.97.66.97.17 0 .4-.01.57-.07v.48c-.19.08-.45.1-.68.1-.7 0-1.1-.35-1.1-1.23V8.16h-1.02Z"/><path clip-path="url(#b)" d="M326.26 14.39c.54-1.07.74-2.05.77-2.66h.55c-.08.91-.43 2-.83 2.66Z"/><path clip-path="url(#b)" d="M337.26 9.97c-.01-1.09-.61-1.95-1.68-1.95-1.13 0-1.65.79-1.77 1.95Zm-3.49.48c.01 1.42.73 2.3 1.78 2.3 1.03 0 1.39-.58 1.58-1.03h.56c-.23.73-.81 1.55-2.17 1.55-1.67 0-2.32-1.44-2.32-2.84 0-1.57.78-2.93 2.39-2.93 1.69 0 2.23 1.46 2.23 2.5 0 .15 0 .31-.01.45Z"/><path clip-path="url(#b)" d="M339.29 9.02c0-.48 0-.95-.01-1.39h.54c.02.18.03.89.02 1.05.24-.56.69-1.18 1.83-1.18.98 0 1.85.55 1.85 2.07v3.56h-.55V9.66c0-.98-.41-1.62-1.36-1.62-1.31 0-1.76 1.09-1.76 2.29v2.8h-.55Z"/><path clip-path="url(#b)" d="M345.39 11.62c.19.72.69 1.15 1.56 1.15.98 0 1.38-.45 1.38-1.07 0-.63-.27-.93-1.5-1.23-1.42-.34-1.77-.77-1.77-1.5 0-.76.57-1.46 1.82-1.46s1.84.76 1.92 1.54h-.55c-.1-.46-.46-1.03-1.4-1.03-.96 0-1.23.47-1.23.91 0 .51.27.76 1.35 1.02 1.55.37 1.94.88 1.94 1.71 0 1-.82 1.62-1.97 1.62-1.25 0-1.96-.66-2.11-1.65Z"/><path clip-path="url(#b)" d="M354.37 11.53c0 .54.01 1.4.01 1.61h-.53c-.02-.14-.03-.51-.03-.96-.23.65-.79 1.09-1.77 1.09-.79 0-1.8-.31-1.8-1.99V7.64h.54v3.51c0 .8.25 1.58 1.34 1.58 1.23 0 1.69-.69 1.69-2.27V7.64h.55Z"/><path clip-path="url(#b)" d="M356.28 9.13c0-.92-.01-1.32-.01-1.5h.54c.01.18.02.53.02 1.23.32-.82 1.02-1.32 1.91-1.36V8.1c-1.14.08-1.91.87-1.91 2.18v2.86h-.55Z"/><path clip-path="url(#b)" d="M359.87 7.64h.55v5.5h-.55Zm0-2.61h.55V6.1h-.55Z"/><path clip-path="url(#b)" d="M362.33 9.02c0-.48 0-.95-.01-1.39h.54c.02.18.03.89.02 1.05.24-.56.69-1.18 1.83-1.18.98 0 1.85.55 1.85 2.07v3.56h-.55V9.66c0-.98-.41-1.62-1.36-1.62-1.31 0-1.76 1.09-1.76 2.29v2.8h-.55Z"/><path clip-path="url(#b)" d="M368.61 10.37c0 1.31.69 2.26 1.75 2.26 1.38 0 1.79-.91 1.79-2.34 0-1.45-.44-2.26-1.76-2.26-1.26 0-1.78 1.09-1.78 2.34m4.06 2.4c0 1.76-.78 2.68-2.38 2.68-1.43 0-2.03-.8-2.16-1.64h.56c.2.76.83 1.12 1.62 1.12 1.43 0 1.83-.92 1.83-2.32v-.57c-.3.72-.84 1.1-1.84 1.1-1.29 0-2.28-1.04-2.28-2.75 0-1.85 1.06-2.88 2.35-2.88 1.12 0 1.61.53 1.76.97.01-.32.02-.7.03-.84h.52c0 .2-.02 1.07-.02 1.6Z"/><path clip-path="url(#b)" d="M378.99 7.64c1.11 3.15 1.6 4.44 1.78 5.04h.01c.22-.67.66-1.95 1.73-5.04h.57l-2.07 5.82c-.58 1.63-.98 1.99-1.97 1.99-.2 0-.33-.01-.51-.03v-.55c.16.02.32.03.49.03.79 0 1.05-.38 1.45-1.52l-2.1-5.74Z"/><path clip-path="url(#b)" d="M384.45 10.39c0 1.31.7 2.36 1.87 2.36 1.19 0 1.86-.98 1.86-2.36 0-1.3-.66-2.37-1.88-2.37-1.25 0-1.85 1.05-1.85 2.37m4.31-.01c0 1.53-.85 2.89-2.49 2.89-1.48 0-2.41-1.22-2.41-2.88 0-1.57.87-2.88 2.47-2.88 1.46 0 2.43 1.15 2.43 2.87"/><path clip-path="url(#b)" d="M394.35 11.53c0 .54.01 1.4.01 1.61h-.53c-.02-.14-.03-.51-.03-.96-.23.65-.79 1.09-1.77 1.09-.79 0-1.8-.31-1.8-1.99V7.64h.54v3.51c0 .8.25 1.58 1.34 1.58 1.23 0 1.69-.69 1.69-2.27V7.64h.55Z"/><path clip-path="url(#b)" d="M396.26 9.13c0-.92-.01-1.32-.01-1.5h.54c.01.18.02.53.02 1.23.32-.82 1.02-1.32 1.91-1.36V8.1c-1.14.08-1.91.87-1.91 2.18v2.86h-.55Z"/><path clip-path="url(#b)" d="M408.09 9.97c-.01-1.09-.6-1.95-1.68-1.95-1.13 0-1.65.79-1.77 1.95Zm-3.49.48c.01 1.42.72 2.3 1.78 2.3 1.03 0 1.39-.58 1.58-1.03h.56c-.23.73-.81 1.55-2.17 1.55-1.67 0-2.32-1.44-2.32-2.84 0-1.57.78-2.93 2.39-2.93 1.69 0 2.23 1.46 2.23 2.5 0 .15 0 .31-.01.45Z"/><path clip-path="url(#b)" d="M410.14 7.64c.89 2.52 1.51 4.24 1.72 4.94h.01c.12-.41.74-2.04 1.8-4.94h.58l-2.08 5.5h-.66l-1.96-5.5Z"/><path clip-path="url(#b)" d="M419.05 9.97c-.01-1.09-.61-1.95-1.68-1.95-1.13 0-1.65.79-1.77 1.95Zm-3.49.48c.01 1.42.73 2.3 1.78 2.3 1.03 0 1.39-.58 1.58-1.03h.56c-.23.73-.81 1.55-2.17 1.55-1.67 0-2.32-1.44-2.32-2.84 0-1.57.78-2.93 2.39-2.93 1.69 0 2.23 1.46 2.23 2.5 0 .15 0 .31-.01.45Z"/><path clip-path="url(#b)" d="M421.07 9.02c0-.48 0-.95-.01-1.39h.54c.02.18.03.89.02 1.05.24-.56.69-1.18 1.83-1.18.98 0 1.85.55 1.85 2.07v3.56h-.55V9.66c0-.98-.41-1.62-1.36-1.62-1.31 0-1.76 1.09-1.76 2.29v2.8h-.55Z"/><path clip-path="url(#b)" d="M426.35 7.64h1.02V5.92h.55V7.64h1.31v.52h-1.31v3.57c0 .62.13.97.66.97.16 0 .4-.01.57-.07v.48c-.19.08-.45.1-.68.1-.7 0-1.1-.35-1.1-1.23V8.16h-1.02Z"/><path clip-path="url(#b)" d="M439.12 10.28c0-1.38-.68-2.26-1.73-2.26-1.38 0-1.86.94-1.86 2.38 0 1.3.43 2.35 1.79 2.35 1.11 0 1.79-.93 1.79-2.48m-4.1-5.25h.55V8.56c.26-.55.8-1.06 1.88-1.06 1.3 0 2.26 1.07 2.26 2.76 0 1.74-.86 3-2.4 3-.92 0-1.45-.37-1.74-1 0 .35-.01.71-.02.87H435c.01-.63.01-1.25.01-1.88Z"/><path clip-path="url(#b)" d="M441.17 13.14h.55V5.03h-.55Z" fill-rule="evenodd"/><path clip-path="url(#b)" d="M443.78 10.39c0 1.31.7 2.36 1.87 2.36 1.19 0 1.86-.98 1.86-2.36 0-1.3-.66-2.37-1.88-2.37-1.25 0-1.85 1.05-1.85 2.37m4.31-.01c0 1.53-.85 2.89-2.49 2.89-1.48 0-2.41-1.22-2.41-2.88 0-1.57.87-2.88 2.47-2.88 1.46 0 2.43 1.15 2.43 2.87"/><path clip-path="url(#b)" d="M449.77 10.39c0 1.31.7 2.36 1.87 2.36 1.19 0 1.86-.98 1.86-2.36 0-1.3-.66-2.37-1.88-2.37-1.25 0-1.85 1.05-1.85 2.37m4.31-.01c0 1.53-.85 2.89-2.49 2.89-1.49 0-2.41-1.22-2.41-2.88 0-1.57.87-2.88 2.46-2.88 1.46 0 2.43 1.15 2.43 2.87"/><path clip-path="url(#b)" d="M455.56 9.06c0-.47 0-.99-.01-1.42h.54c.01.19.03.66.02.98.23-.55.74-1.11 1.65-1.11.77 0 1.38.39 1.59 1.09.28-.57.83-1.09 1.79-1.09.85 0 1.73.49 1.73 2.01v3.62h-.55V9.59c0-.74-.26-1.54-1.29-1.54-1.07 0-1.55.86-1.55 1.93v3.17h-.54V9.6c0-.8-.24-1.55-1.26-1.55-1.07 0-1.58.95-1.58 2.07v3.03h-.55Z"/><path clip-path="url(#b)" d="M464.76 11.62c.19.72.69 1.15 1.56 1.15.98 0 1.38-.45 1.38-1.07 0-.63-.27-.93-1.5-1.23-1.42-.34-1.77-.77-1.77-1.5 0-.76.57-1.46 1.82-1.46s1.84.76 1.92 1.54h-.55c-.1-.46-.46-1.03-1.4-1.03-.96 0-1.23.47-1.23.91 0 .51.27.76 1.35 1.02 1.55.37 1.94.88 1.94 1.71 0 1-.81 1.62-1.97 1.62-1.25 0-1.96-.66-2.11-1.65Z"/><path clip-path="url(#b)" d="M9.05 23.17c-.01-1.09-.61-1.95-1.68-1.95-1.13 0-1.65.79-1.77 1.95Zm-3.49.48c.01 1.42.73 2.3 1.78 2.3 1.03 0 1.39-.58 1.58-1.03h.56c-.23.73-.81 1.55-2.17 1.55C5.65 26.47 5 25.03 5 23.63c0-1.57.78-2.93 2.39-2.93 1.69 0 2.23 1.46 2.23 2.5 0 .15 0 .31-.01.45Z"/><path clip-path="url(#b)" d="M11.04 20.84c.91 1.35 1.31 1.96 1.53 2.29h.01c.26-.37.81-1.17 1.61-2.29h.63L12.9 23.5l1.95 2.84h-.66c-.79-1.18-1.36-2.01-1.63-2.4h-.01c-.21.32-.7 1.07-1.61 2.4h-.64l1.95-2.79-1.86-2.71Z"/><path clip-path="url(#b)" d="M19.29 23.53H18.21c-1.22 0-1.98.32-1.98 1.27 0 .69.49 1.17 1.27 1.17 1.57 0 1.79-1.04 1.79-2.23Zm.54 1.76c0 .48.04.87.08 1.04h-.53c-.04-.13-.08-.37-.1-.85-.19.41-.67.98-1.8.98-1.28 0-1.83-.83-1.83-1.65 0-1.21.94-1.76 2.58-1.76h1.05V22.5c0-.55-.16-1.29-1.42-1.29-1.11 0-1.27.58-1.4 1.03h-.55c.07-.6.44-1.54 1.96-1.54 1.25 0 1.96.53 1.96 1.74Z"/><path clip-path="url(#b)" d="M25.8 24.72c-.26.97-.9 1.75-2.14 1.75-1.38 0-2.35-1.02-2.35-2.86 0-1.51.8-2.91 2.42-2.91 1.4 0 1.97.99 2.07 1.76h-.56c-.17-.64-.58-1.24-1.52-1.24-1.17 0-1.83.99-1.83 2.37 0 1.31.62 2.36 1.77 2.36.8 0 1.29-.41 1.57-1.23Z"/><path clip-path="url(#b)" d="M26.5 20.84h1.02V19.12h.55v1.72h1.31v.52H28.07v3.57c0 .62.13.97.66.97.17 0 .4-.01.57-.07v.48c-.19.08-.45.1-.68.1-.7 0-1.1-.35-1.1-1.23V21.36H26.5Z"/><path clip-path="url(#b)" d="M30.58 26.34h.55V18.23h-.55Z" fill-rule="evenodd"/><path clip-path="url(#b)" d="M33.01 20.84c1.11 3.15 1.6 4.45 1.78 5.04h.01c.22-.67.66-1.95 1.73-5.04h.57l-2.07 5.82c-.58 1.63-.98 1.99-1.97 1.99-.2 0-.33-.01-.51-.03v-.55c.16.02.32.03.49.03.79 0 1.05-.39 1.45-1.52l-2.1-5.74Z"/><path clip-path="url(#b)" d="M44.47 23.53H43.39c-1.22 0-1.98.32-1.98 1.27 0 .69.49 1.17 1.27 1.17 1.57 0 1.79-1.04 1.79-2.23Zm.54 1.76c0 .48.04.87.08 1.04h-.53c-.04-.13-.08-.37-.1-.85-.19.41-.67.98-1.8.98-1.28 0-1.83-.83-1.83-1.65 0-1.21.94-1.76 2.58-1.76h1.05V22.5c0-.55-.17-1.29-1.42-1.29-1.11 0-1.28.58-1.4 1.03h-.55c.07-.6.44-1.54 1.96-1.54 1.25 0 1.96.53 1.96 1.74Z"/><path clip-path="url(#b)" d="M46.88 24.82c.19.72.69 1.14 1.56 1.14.98 0 1.38-.45 1.38-1.07 0-.63-.26-.93-1.5-1.23-1.42-.34-1.77-.77-1.77-1.5 0-.76.57-1.46 1.81-1.46s1.84.76 1.93 1.54h-.55c-.1-.46-.46-1.03-1.4-1.03-.96 0-1.23.47-1.23.91 0 .51.26.76 1.35 1.02 1.55.37 1.94.88 1.94 1.71 0 1-.82 1.62-1.97 1.62-1.25 0-1.96-.66-2.11-1.65Z"/><path clip-path="url(#b)" d="M54.84 20.84h.55v5.5h-.55Zm0-2.61h.55V19.3h-.55Z"/><path clip-path="url(#b)" d="M57.31 22.23c0-.48 0-.95-.01-1.39h.54c.02.18.03.89.02 1.04.24-.56.69-1.18 1.83-1.18.98 0 1.85.55 1.85 2.07v3.56h-.55V22.86c0-.98-.41-1.62-1.36-1.62-1.31 0-1.76 1.09-1.76 2.29v2.81h-.55Z"/><path clip-path="url(#b)" d="M62.59 20.84h1.02V19.12h.55v1.72h1.31v.52H64.16v3.57c0 .62.13.97.66.97.16 0 .4-.01.57-.07v.48c-.19.08-.45.1-.68.1-.7 0-1.1-.35-1.1-1.23V21.36H62.59Z"/><path clip-path="url(#b)" d="M70.24 23.17c-.01-1.09-.6-1.95-1.68-1.95-1.13 0-1.65.79-1.77 1.95Zm-3.49.48c.01 1.42.73 2.3 1.78 2.3 1.03 0 1.39-.58 1.58-1.03h.56c-.23.73-.81 1.55-2.17 1.55-1.67 0-2.32-1.44-2.32-2.84 0-1.57.78-2.93 2.39-2.93 1.69 0 2.23 1.46 2.23 2.5 0 .15 0 .31-.01.45Z"/><path clip-path="url(#b)" d="M72.27 22.23c0-.48 0-.95-.01-1.39h.54c.02.18.03.89.02 1.04.24-.56.69-1.18 1.83-1.18.98 0 1.85.55 1.85 2.07v3.56h-.55V22.86c0-.98-.41-1.62-1.36-1.62-1.31 0-1.76 1.09-1.76 2.29v2.81h-.55Z"/><path clip-path="url(#b)" d="M78.55 23.63c0 1.51.78 2.32 1.73 2.32 1.45 0 1.85-1 1.85-2.5 0-1.42-.34-2.23-1.75-2.23-1.09 0-1.83.87-1.83 2.41m4.1-5.4v6.52c0 .53 0 1.03.01 1.58h-.53c-.02-.13-.03-.65-.03-.92-.28.67-.89 1.06-1.85 1.06-1.43 0-2.29-1.17-2.29-2.82 0-1.69.94-2.95 2.43-2.95 1.1 0 1.54.47 1.7.83v-3.3Z"/><path clip-path="url(#b)" d="M88.17 23.17c-.01-1.09-.61-1.95-1.68-1.95-1.13 0-1.65.79-1.77 1.95Zm-3.49.48c.01 1.42.72 2.3 1.78 2.3 1.03 0 1.39-.58 1.58-1.03h.56c-.23.73-.82 1.55-2.17 1.55-1.67 0-2.32-1.44-2.32-2.84 0-1.57.78-2.93 2.39-2.93 1.69 0 2.23 1.46 2.23 2.5 0 .15 0 .31-.01.45Z"/><path clip-path="url(#b)" d="M90.39 23.63c0 1.51.78 2.32 1.73 2.32 1.45 0 1.85-1 1.85-2.5 0-1.42-.34-2.23-1.75-2.23-1.09 0-1.83.87-1.83 2.41m4.1-5.4v6.52c0 .53 0 1.03.01 1.58h-.53c-.02-.13-.03-.65-.03-.92-.28.67-.89 1.06-1.85 1.06-1.43 0-2.29-1.17-2.29-2.82 0-1.69.94-2.95 2.43-2.95 1.1 0 1.54.47 1.7.83v-3.3Z"/><path clip-path="url(#b)" d="M96.08 25.77c0-.41.27-.69.66-.69s.65.29.65.69c0 .4-.25.69-.66.69-.38 0-.65-.3-.65-.69"/></g></g></svg>