<?xml version="1.0" encoding="UTF-8"?><!DOCTYPE svg PUBLIC "-//W3C//DTD SVG 1.0//EN" "http://www.w3.org/TR/2001/REC-SVG-20010904/DTD/svg10.dtd" []><svg xmlns="http://www.w3.org/2000/svg" xmlns:xlink="http://www.w3.org/1999/xlink" height="104" stroke="#000" stroke-linecap="square" stroke-miterlimit="10" viewBox="0 0 167.62 104.31" width="168"><g><g fill="#fff" stroke="none"><path d="M11.7 13.11h-.48c-.04-.09-.07-.48-.08-1.23-.27.53-.85 1.32-2.41 1.32-2.14 0-3.24-1.68-3.24-3.87 0-2.3 1.17-4.03 3.35-4.03 1.61 0 2.67.87 2.91 2.29h-.58c-.32-1.09-1.05-1.74-2.35-1.74-1.86 0-2.72 1.5-2.72 3.44 0 1.76.82 3.35 2.64 3.35 1.86 0 2.39-1.25 2.39-2.96V9.6H8.74V9.05H11.7Z"/><path d="M13.54 9.11c0-.93-.01-1.32-.01-1.5h.52c.01.18.02.53.02 1.23.31-.82.99-1.32 1.85-1.36v.6c-1.11.08-1.85.87-1.85 2.18v2.86h-.53Z"/><path d="M20.51 9.94c-.01-1.09-.59-1.95-1.63-1.95-1.1 0-1.6.79-1.72 1.95Zm-3.38.48c.01 1.42.7 2.3 1.73 2.3 1 0 1.34-.58 1.53-1.03h.54c-.22.73-.79 1.55-2.1 1.55-1.62 0-2.25-1.44-2.25-2.84 0-1.57.76-2.93 2.31-2.93 1.64 0 2.16 1.46 2.16 2.5 0 .15 0 .31-.01.45Z"/><path d="M26.02 9.94c-.01-1.09-.59-1.95-1.63-1.95-1.1 0-1.6.79-1.71 1.95Zm-3.38.48c.01 1.42.7 2.3 1.72 2.3 1 0 1.34-.58 1.53-1.03h.54c-.22.73-.79 1.55-2.1 1.55-1.62 0-2.25-1.44-2.25-2.84 0-1.57.76-2.93 2.31-2.93 1.64 0 2.16 1.46 2.16 2.5 0 .15 0 .31-.01.45Z"/><path d="M27.98 8.99c0-.48 0-.95-.01-1.39h.52c.02.18.03.89.02 1.05.23-.56.67-1.18 1.77-1.18.95 0 1.79.55 1.79 2.07v3.56h-.53V9.63c0-.98-.4-1.62-1.32-1.62-1.27 0-1.7 1.09-1.7 2.29v2.8h-.53Z"/><path d="M36.66 7.61c1.08 3.15 1.54 4.45 1.73 5.04h.01c.21-.67.64-1.95 1.67-5.04h.55l-2 5.82c-.56 1.63-.95 1.99-1.91 1.99-.19 0-.32-.01-.49-.03v-.55c.16.02.31.03.48.03.77 0 1.01-.39 1.41-1.52L36.07 7.61Z"/><path d="M41.94 10.36c0 1.31.68 2.37 1.81 2.37 1.15 0 1.8-.98 1.8-2.37 0-1.3-.64-2.37-1.82-2.37-1.21 0-1.79 1.05-1.79 2.37m4.17-.01c0 1.53-.82 2.89-2.41 2.89-1.44 0-2.33-1.22-2.33-2.88 0-1.57.84-2.88 2.39-2.88 1.42 0 2.35 1.14 2.35 2.87"/><path d="M51.53 11.5c0 .54.01 1.4.01 1.61h-.51c-.02-.14-.03-.5-.03-.96-.22.65-.77 1.09-1.72 1.09-.77 0-1.75-.31-1.75-1.99V7.61h.52v3.51c0 .8.24 1.58 1.3 1.58 1.19 0 1.64-.69 1.64-2.26V7.61h.53Z"/><path d="M53.38 9.11c0-.93-.01-1.32-.01-1.5h.52c.01.18.02.53.02 1.23.31-.82.99-1.32 1.85-1.36v.6c-1.11.08-1.85.87-1.85 2.18v2.86h-.53Z"/><path d="M59.82 11.59c.18.72.67 1.14 1.51 1.14.95 0 1.33-.45 1.33-1.07 0-.63-.26-.93-1.45-1.23-1.38-.34-1.72-.77-1.72-1.5 0-.76.55-1.46 1.76-1.46s1.78.76 1.86 1.54h-.53c-.1-.46-.45-1.03-1.35-1.03-.93 0-1.19.47-1.19.91 0 .51.26.76 1.31 1.02 1.5.37 1.87.88 1.87 1.71 0 1-.79 1.62-1.91 1.62-1.21 0-1.89-.66-2.04-1.65Z"/><path d="M68.51 11.5c0 .54.01 1.4.01 1.61h-.51c-.02-.14-.03-.5-.03-.96-.22.65-.77 1.09-1.72 1.09-.77 0-1.75-.31-1.75-1.99V7.61h.52v3.51c0 .8.24 1.58 1.3 1.58 1.19 0 1.64-.69 1.64-2.26V7.61h.53Z"/><path d="M74.34 10.24c0-1.28-.6-2.23-1.65-2.23-1.29 0-1.82.84-1.82 2.33 0 1.47.42 2.39 1.75 2.39 1.11 0 1.73-.97 1.73-2.49M70.9 12.3v3.01h-.53V8.96c0-.45 0-.93-.01-1.35h.52c.02.21.02.54.02.99.33-.66.92-1.12 1.88-1.12 1.26 0 2.13 1.09 2.13 2.74 0 1.98-1.02 3.03-2.31 3.03-.94 0-1.43-.43-1.69-.95"/><path d="M80.31 10.24c0-1.28-.6-2.23-1.65-2.23-1.29 0-1.82.84-1.82 2.33 0 1.47.41 2.39 1.75 2.39 1.11 0 1.73-.97 1.73-2.49M76.87 12.3v3.01h-.53V8.96c0-.45 0-.93-.01-1.35h.52c.02.21.02.54.02.99.33-.66.92-1.12 1.88-1.12 1.26 0 2.13 1.09 2.13 2.74 0 1.98-1.02 3.03-2.31 3.03-.94 0-1.43-.43-1.69-.95"/><path d="M82.31 13.11h.53V5h-.53Z" fill-rule="evenodd"/><path d="M84.67 7.61c1.08 3.15 1.54 4.45 1.73 5.04h.01c.21-.67.64-1.95 1.67-5.04h.55l-2 5.82c-.56 1.63-.95 1.99-1.91 1.99-.19 0-.32-.01-.49-.03v-.55c.16.02.31.03.48.03.77 0 1.01-.39 1.41-1.52L84.08 7.61Z"/><path d="M96.56 11.49c-.26.97-.87 1.75-2.07 1.75-1.33 0-2.28-1.02-2.28-2.86 0-1.51.78-2.9 2.34-2.9 1.35 0 1.91.99 2 1.76h-.54c-.16-.64-.56-1.24-1.47-1.24-1.13 0-1.77.99-1.77 2.37 0 1.31.6 2.37 1.71 2.37.78 0 1.25-.41 1.52-1.23Z"/><path d="M98.43 5V8.53c.3-.57.82-1.06 1.76-1.06.76 0 1.8.4 1.8 2.13v3.5h-.53V9.72c0-1.09-.48-1.71-1.36-1.71-1.05 0-1.66.67-1.66 2.02v3.07H97.9V5Z"/><path d="M106.91 10.3h-1.04c-1.18 0-1.92.32-1.92 1.26 0 .69.48 1.17 1.22 1.17 1.52 0 1.74-1.05 1.74-2.23Zm.52 1.76c0 .48.04.87.08 1.04H107c-.04-.13-.08-.37-.1-.85-.18.41-.65.98-1.75.98-1.23 0-1.77-.82-1.77-1.65 0-1.21.91-1.76 2.5-1.76h1.01V9.27c0-.55-.16-1.29-1.38-1.29-1.08 0-1.23.58-1.35 1.03h-.53c.07-.6.43-1.54 1.9-1.54 1.21 0 1.89.53 1.89 1.74Z"/><path d="M109.3 7.61h.53v5.5h-.53Zm0-2.61h.53V6.07h-.53Z"/><path d="M111.68 8.99c0-.48 0-.95-.01-1.39h.52c.02.18.03.89.02 1.05.24-.56.67-1.18 1.77-1.18.95 0 1.79.55 1.79 2.07v3.56h-.53V9.63c0-.98-.39-1.62-1.32-1.62-1.27 0-1.7 1.09-1.7 2.29v2.8h-.53Z"/><path d="M117.59 11.59c.18.72.67 1.14 1.51 1.14.95 0 1.33-.45 1.33-1.07 0-.63-.26-.93-1.45-1.23-1.38-.34-1.71-.77-1.71-1.5 0-.76.55-1.46 1.76-1.46s1.78.76 1.86 1.54h-.53c-.1-.46-.45-1.03-1.35-1.03-.93 0-1.19.47-1.19.91 0 .51.26.76 1.31 1.02 1.5.37 1.87.88 1.87 1.71 0 1-.79 1.62-1.91 1.62-1.21 0-1.89-.66-2.05-1.65Z"/><path d="M131.54 8.16l-1.85 2.97c-.9 1.44-1.55 2.09-2.75 2.09-1.21 0-1.93-1-1.93-1.96 0-.94.42-1.65 1.99-2.53 1.09-.73 1.49-1.03 1.49-1.74 0-.6-.37-1.19-1.09-1.19-.67 0-1.14.43-1.14 1.23 0 .5.33.96.97 1.58l4.41 4.49h-.8l-4.03-4.1c-.69-.68-1.1-1.19-1.1-1.97 0-.87.56-1.74 1.7-1.74.96 0 1.62.75 1.62 1.69 0 .75-.4 1.23-1.7 2.07-1.5.88-1.76 1.42-1.76 2.16 0 .79.66 1.46 1.35 1.46.86 0 1.44-.31 2.4-1.89l1.59-2.63Z"/><path d="M8.91 23.5H7.86c-1.18 0-1.92.32-1.92 1.26 0 .69.48 1.17 1.22 1.17 1.52 0 1.74-1.04 1.74-2.23Zm.52 1.76c0 .48.04.87.08 1.04H8.99c-.04-.13-.07-.37-.1-.85-.18.41-.65.98-1.75.98-1.24 0-1.77-.82-1.77-1.65 0-1.21.9-1.76 2.5-1.76H8.9v-.56c0-.55-.16-1.29-1.37-1.29-1.08 0-1.24.58-1.35 1.03H5.64c.06-.6.43-1.54 1.9-1.54 1.21 0 1.9.53 1.9 1.74Z"/><path d="M11.43 23.6c0 1.51.76 2.32 1.67 2.32 1.4 0 1.79-1 1.79-2.5 0-1.42-.33-2.23-1.69-2.23-1.05 0-1.77.87-1.77 2.41m3.97-5.4v6.52c0 .53 0 1.03.01 1.58h-.51c-.02-.13-.03-.65-.03-.92-.27.67-.86 1.06-1.79 1.06-1.38 0-2.22-1.17-2.22-2.82 0-1.69.91-2.95 2.35-2.95 1.07 0 1.49.47 1.65.82V18.2Z"/><path d="M17.17 20.81c.86 2.52 1.46 4.24 1.66 4.94h.01c.12-.41.71-2.05 1.75-4.94h.56l-2.01 5.5h-.64l-1.9-5.5Z"/><path d="M25.35 23.5H24.3c-1.18 0-1.92.32-1.92 1.26 0 .69.48 1.17 1.22 1.17 1.52 0 1.74-1.04 1.74-2.23Zm.52 1.76c0 .48.04.87.08 1.04h-.51c-.04-.13-.08-.37-.1-.85-.18.41-.65.98-1.75.98-1.23 0-1.77-.82-1.77-1.65 0-1.21.91-1.76 2.5-1.76h1.01v-.56c0-.55-.16-1.29-1.38-1.29-1.08 0-1.23.58-1.35 1.03h-.53c.07-.6.43-1.54 1.9-1.54 1.21 0 1.89.53 1.89 1.74Z"/><path d="M27.73 22.2c0-.48 0-.95-.01-1.39h.52c.02.18.03.89.02 1.05.23-.56.67-1.18 1.77-1.18.95 0 1.79.55 1.79 2.07v3.56h-.53V22.83c0-.98-.39-1.62-1.32-1.62-1.27 0-1.7 1.09-1.7 2.29v2.8h-.53Z"/><path d="M37.6 24.69c-.26.97-.87 1.75-2.07 1.75-1.33 0-2.28-1.02-2.28-2.86 0-1.51.78-2.9 2.34-2.9 1.35 0 1.91.99 2 1.76h-.54c-.16-.64-.56-1.24-1.47-1.24-1.13 0-1.77.99-1.77 2.36 0 1.31.6 2.37 1.71 2.37.78 0 1.25-.41 1.52-1.23Z"/><path d="M42.49 23.14c-.01-1.09-.59-1.95-1.63-1.95-1.1 0-1.6.79-1.72 1.95Zm-3.38.48c.01 1.42.7 2.3 1.73 2.3 1 0 1.34-.58 1.53-1.03h.54c-.22.73-.79 1.55-2.1 1.55-1.62 0-2.25-1.44-2.25-2.84 0-1.57.76-2.93 2.31-2.93 1.64 0 2.16 1.46 2.16 2.5 0 .15 0 .31-.01.45Z"/><path d="M47.32 20.81h.53v5.5h-.53Zm0-2.61h.53v1.07h-.53Z"/><path d="M49.71 22.2c0-.48 0-.95-.01-1.39h.52c.02.18.03.89.02 1.05.24-.56.67-1.18 1.77-1.18.95 0 1.79.55 1.79 2.07v3.56h-.53V22.83c0-.98-.39-1.62-1.32-1.62-1.27 0-1.7 1.09-1.7 2.29v2.8h-.53Z"/><path d="M58.53 24.79c.18.71.67 1.14 1.51 1.14.95 0 1.33-.45 1.33-1.07 0-.63-.26-.93-1.45-1.23-1.38-.34-1.71-.77-1.71-1.5 0-.76.55-1.46 1.76-1.46s1.78.76 1.86 1.54H61.3c-.1-.46-.45-1.03-1.35-1.03-.93 0-1.19.47-1.19.91 0 .51.26.76 1.31 1.02 1.5.37 1.87.88 1.87 1.71 0 1-.79 1.62-1.91 1.62-1.21 0-1.89-.66-2.04-1.65Z"/><path d="M67.22 24.7c0 .54.01 1.4.01 1.61h-.51c-.02-.14-.03-.51-.03-.96-.22.65-.77 1.09-1.71 1.09-.77 0-1.75-.31-1.75-1.99V20.81h.52v3.51c0 .8.24 1.58 1.3 1.58 1.19 0 1.64-.69 1.64-2.26V20.81h.53Z"/><path d="M69.01 24.79c.18.71.67 1.14 1.51 1.14.95 0 1.33-.45 1.33-1.07 0-.63-.26-.93-1.45-1.23-1.37-.34-1.71-.77-1.71-1.5 0-.76.55-1.46 1.76-1.46s1.78.76 1.86 1.54h-.53c-.1-.46-.45-1.03-1.35-1.03-.93 0-1.19.47-1.19.91 0 .51.26.76 1.31 1.02 1.5.37 1.88.88 1.88 1.71 0 1-.79 1.62-1.91 1.62-1.21 0-1.9-.66-2.04-1.65Z"/><path d="M73.02 20.81h.99V19.09h.53v1.72H75.8v.52H74.54V24.9c0 .62.13.97.64.97.16 0 .38-.01.55-.07v.49c-.18.08-.44.1-.66.1-.68 0-1.07-.35-1.07-1.23V21.33h-.99Z"/><path d="M80.13 23.5H79.09c-1.18 0-1.92.32-1.92 1.26 0 .69.48 1.17 1.22 1.17 1.52 0 1.74-1.04 1.74-2.23Zm.52 1.76c0 .48.04.87.07 1.04h-.51c-.04-.13-.07-.37-.1-.85-.18.41-.65.98-1.75.98-1.24 0-1.77-.82-1.77-1.65 0-1.21.9-1.76 2.5-1.76h1.01v-.56c0-.55-.16-1.29-1.37-1.29-1.08 0-1.24.58-1.35 1.03h-.53c.06-.6.43-1.54 1.9-1.54 1.21 0 1.9.53 1.9 1.74Z"/><path d="M82.52 20.81h.53v5.5h-.53Zm0-2.61h.53v1.07h-.53Z"/><path d="M84.9 22.2c0-.48 0-.95-.01-1.39h.52c.02.18.03.89.02 1.05.23-.56.67-1.18 1.77-1.18.95 0 1.79.55 1.79 2.07v3.56h-.53V22.83c0-.98-.39-1.62-1.32-1.62-1.27 0-1.7 1.09-1.7 2.29v2.8H84.9Z"/><path d="M93.91 23.5H92.87c-1.18 0-1.92.32-1.92 1.26 0 .69.48 1.17 1.23 1.17 1.52 0 1.74-1.04 1.74-2.23Zm.52 1.76c0 .48.04.87.07 1.04H94c-.04-.13-.08-.37-.1-.85-.18.41-.65.98-1.75.98-1.23 0-1.77-.82-1.77-1.65 0-1.21.9-1.76 2.5-1.76H93.9v-.56c0-.55-.16-1.29-1.37-1.29-1.08 0-1.23.58-1.35 1.03h-.53c.06-.6.43-1.54 1.9-1.54 1.21 0 1.9.53 1.9 1.74Z"/><path d="M100.27 23.45c0-1.38-.66-2.25-1.67-2.25-1.33 0-1.8.93-1.8 2.38 0 1.3.42 2.35 1.74 2.35 1.08 0 1.74-.92 1.74-2.48M96.3 18.2h.53v3.53c.26-.55.78-1.06 1.82-1.06 1.26 0 2.18 1.07 2.18 2.76 0 1.74-.83 3-2.32 3-.89 0-1.41-.37-1.68-1 0 .35-.01.72-.02.87h-.52c.01-.63.01-1.25.01-1.88Z"/><path d="M102.27 26.31h.53V18.2h-.53Z" fill-rule="evenodd"/><path d="M108.14 23.14c-.01-1.09-.59-1.95-1.63-1.95-1.1 0-1.6.79-1.72 1.95Zm-3.38.48c.01 1.42.7 2.3 1.73 2.3 1 0 1.34-.58 1.53-1.03h.54c-.22.73-.79 1.55-2.1 1.55-1.62 0-2.25-1.44-2.25-2.84 0-1.57.76-2.93 2.31-2.93 1.64 0 2.16 1.46 2.16 2.5 0 .15 0 .31-.01.45Z"/><path d="M9.75 36.64c0-1.28-.6-2.23-1.65-2.23-1.29 0-1.82.84-1.82 2.33 0 1.47.41 2.39 1.75 2.39 1.11 0 1.73-.97 1.73-2.49M6.31 38.7v3.01H5.78V35.36c0-.45 0-.94-.01-1.35h.52c.02.21.02.54.02.99.33-.66.92-1.12 1.88-1.12 1.26 0 2.13 1.09 2.13 2.74 0 1.98-1.02 3.02-2.31 3.02-.94 0-1.43-.43-1.69-.95"/><path d="M11.75 35.5c0-.92-.01-1.32-.01-1.5h.52c.01.18.02.53.02 1.23.31-.82.99-1.32 1.85-1.36v.59c-1.11.08-1.85.87-1.85 2.18v2.86h-.53Z"/><path d="M15.36 36.76c0 1.31.68 2.36 1.81 2.36 1.15 0 1.8-.98 1.8-2.36 0-1.3-.64-2.37-1.82-2.37-1.21 0-1.79 1.05-1.79 2.37m4.18-.01c0 1.53-.82 2.89-2.41 2.89-1.44 0-2.33-1.22-2.33-2.88 0-1.57.84-2.88 2.39-2.88 1.42 0 2.35 1.14 2.35 2.87"/><path d="M24.95 37.89c-.26.97-.87 1.75-2.07 1.75-1.33 0-2.28-1.02-2.28-2.86 0-1.51.78-2.9 2.34-2.9 1.35 0 1.91.99 2 1.76h-.54c-.16-.64-.56-1.24-1.47-1.24-1.13 0-1.77.99-1.77 2.37 0 1.31.6 2.37 1.71 2.37.78 0 1.25-.41 1.52-1.23Z"/><path d="M30.22 37.9c0 .54.01 1.4.01 1.61h-.51c-.02-.14-.03-.51-.03-.96-.22.65-.77 1.09-1.71 1.09-.77 0-1.75-.31-1.75-1.99V34.01h.52v3.51c0 .8.24 1.58 1.3 1.58 1.19 0 1.64-.69 1.64-2.27V34.01h.53Z"/><path d="M32.08 35.5c0-.92-.01-1.32-.01-1.5h.52c.01.18.02.53.02 1.23.31-.82.99-1.32 1.85-1.36v.59c-1.11.08-1.85.87-1.85 2.18v2.86h-.53Z"/><path d="M39.05 36.34c-.01-1.09-.59-1.95-1.63-1.95-1.1 0-1.6.79-1.72 1.95Zm-3.38.48c.01 1.42.7 2.3 1.73 2.3 1 0 1.34-.58 1.53-1.03h.54c-.22.73-.79 1.55-2.1 1.55-1.62 0-2.25-1.44-2.25-2.84 0-1.57.76-2.93 2.31-2.93 1.64 0 2.16 1.46 2.16 2.5 0 .15 0 .31-.01.45Z"/><path d="M41.01 35.43c0-.47 0-.99-.01-1.42h.52c.01.19.03.66.02.98.22-.55.71-1.11 1.6-1.11.75 0 1.33.39 1.54 1.09.27-.57.8-1.09 1.74-1.09.82 0 1.67.48 1.67 2.01v3.62h-.53V35.96c0-.74-.26-1.54-1.25-1.54-1.03 0-1.5.86-1.5 1.93v3.17h-.52V35.97c0-.8-.23-1.55-1.21-1.55-1.03 0-1.53.95-1.53 2.07v3.03h-.53Z"/><path d="M53.43 36.34c-.01-1.09-.59-1.95-1.63-1.95-1.1 0-1.6.79-1.72 1.95Zm-3.38.48c.01 1.42.7 2.3 1.73 2.3 1 0 1.34-.58 1.53-1.03h.54c-.22.73-.79 1.55-2.1 1.55-1.62 0-2.25-1.44-2.25-2.84 0-1.57.76-2.93 2.31-2.93 1.64 0 2.16 1.46 2.16 2.5 0 .15 0 .31-.01.45Z"/><path d="M55.4 35.39c0-.48 0-.94-.01-1.39h.52c.02.18.03.89.02 1.04.23-.56.67-1.18 1.77-1.18.95 0 1.79.55 1.79 2.07v3.56h-.53V36.03c0-.98-.39-1.62-1.32-1.62-1.27 0-1.7 1.09-1.7 2.29v2.81H55.4Z"/><path d="M60.51 34.01h.99V32.29h.53v1.72H63.3v.52H62.03V38.1c0 .62.13.97.64.97.16 0 .38-.01.55-.07v.48c-.18.08-.44.1-.66.1-.68 0-1.07-.35-1.07-1.23V34.53h-.99Z"/><path d="M64.47 39.51h.53V38.09h-.53Z" fill-rule="evenodd"/><path d="M6.51 56.96h2.1c.98 0 1.8-.51 1.8-1.64 0-.98-.61-1.65-2.11-1.65H6.51Zm1.84-3.84c1.29 0 1.78-.5 1.78-1.39 0-.76-.51-1.38-1.56-1.38H6.51v2.76ZM5.95 49.81h2.6c1.43 0 2.2.78 2.2 1.89 0 .91-.53 1.51-1.15 1.68.53.15 1.42.69 1.42 1.9 0 1.54-1.12 2.22-2.42 2.22H5.95Z"/><path d="M16.48 55.9c0 .54.01 1.4.01 1.61h-.51c-.02-.14-.03-.51-.03-.96-.22.65-.77 1.09-1.71 1.09-.77 0-1.75-.31-1.75-1.99V52.01h.52v3.51c0 .8.24 1.58 1.3 1.58 1.19 0 1.64-.69 1.64-2.27V52.01h.53Z"/><path d="M18.34 52.01h.53v5.5h-.53Zm0-2.61h.53v1.07h-.53Z"/><path d="M20.72 57.51h.53V49.4h-.53Z" fill-rule="evenodd"/><path d="M23.25 54.8c0 1.51.76 2.32 1.67 2.32 1.41 0 1.79-1 1.79-2.5 0-1.42-.33-2.23-1.69-2.23-1.05 0-1.77.87-1.77 2.41m3.97-5.4v6.52c0 .53 0 1.03.01 1.58h-.51c-.02-.13-.03-.65-.03-.93-.27.67-.86 1.06-1.79 1.06-1.38 0-2.21-1.17-2.21-2.82 0-1.69.9-2.95 2.35-2.95 1.06 0 1.49.47 1.65.83V49.4Z"/><path d="M35.08 54.7H34.04c-1.18 0-1.92.32-1.92 1.27 0 .69.48 1.17 1.22 1.17 1.52 0 1.74-1.05 1.74-2.23Zm.52 1.76c0 .48.04.87.08 1.05h-.51c-.04-.13-.07-.37-.1-.85-.18.41-.65.98-1.75.98-1.24 0-1.77-.83-1.77-1.65 0-1.21.91-1.76 2.5-1.76h1.01v-.56c0-.55-.16-1.29-1.37-1.29-1.08 0-1.23.58-1.35 1.03h-.53c.06-.61.43-1.54 1.9-1.54 1.21 0 1.9.53 1.9 1.74Z"/><path d="M41.39 55.89c-.26.97-.87 1.75-2.07 1.75-1.33 0-2.28-1.02-2.28-2.86 0-1.51.78-2.9 2.34-2.9 1.35 0 1.91.99 2 1.76h-.54c-.16-.64-.56-1.24-1.47-1.24-1.13 0-1.77.99-1.77 2.37 0 1.31.6 2.37 1.72 2.37.78 0 1.25-.41 1.52-1.23Z"/><path d="M42.06 52.01h.99V50.29h.53v1.72h1.27v.52H43.58V56.1c0 .62.13.97.64.97.16 0 .38-.01.55-.07v.48c-.18.08-.44.1-.66.1-.68 0-1.07-.35-1.07-1.23V52.53h-.99Z"/><path d="M46.04 52.01h.53v5.5h-.53Zm0-2.61h.53v1.07h-.53Z"/><path d="M48.57 54.76c0 1.31.68 2.37 1.81 2.37 1.15 0 1.8-.98 1.8-2.37 0-1.3-.64-2.37-1.82-2.37-1.21 0-1.79 1.05-1.79 2.37m4.18-.01c0 1.53-.82 2.89-2.41 2.89-1.44 0-2.33-1.22-2.33-2.88 0-1.57.84-2.88 2.38-2.88 1.42 0 2.36 1.14 2.36 2.87"/><path d="M54.17 53.39c0-.48 0-.94-.01-1.39h.52c.02.18.03.89.02 1.04.23-.56.67-1.18 1.77-1.18.95 0 1.79.55 1.79 2.07v3.56h-.53V54.03c0-.98-.39-1.62-1.32-1.62-1.27 0-1.71 1.09-1.71 2.29v2.8h-.53Z"/><path d="M63.18 54.7H62.14c-1.18 0-1.92.32-1.92 1.27 0 .69.48 1.17 1.23 1.17 1.52 0 1.73-1.05 1.73-2.23Zm.52 1.76c0 .48.04.87.07 1.05h-.51c-.04-.13-.07-.37-.1-.85-.18.41-.65.98-1.75.98-1.23 0-1.77-.83-1.77-1.65 0-1.21.9-1.76 2.5-1.76h1.01v-.56c0-.55-.16-1.29-1.37-1.29-1.07 0-1.23.58-1.35 1.03h-.53c.06-.61.43-1.54 1.9-1.54 1.21 0 1.9.53 1.9 1.74Z"/><path d="M69.54 54.65c0-1.38-.66-2.26-1.67-2.26-1.33 0-1.8.94-1.8 2.38 0 1.3.41 2.35 1.74 2.35 1.08 0 1.74-.92 1.74-2.47M65.57 49.4h.53v3.53c.26-.55.78-1.06 1.82-1.06 1.26 0 2.18 1.07 2.18 2.76 0 1.74-.83 3-2.32 3-.89 0-1.41-.37-1.68-1 0 .35-.01.71-.02.87h-.52c.01-.63.01-1.25.01-1.88Z"/><path d="M71.53 57.51h.53V49.4h-.53Z" fill-rule="evenodd"/><path d="M77.41 54.34c-.01-1.09-.59-1.95-1.63-1.95-1.1 0-1.6.79-1.72 1.95Zm-3.38.48c.01 1.42.7 2.3 1.73 2.3 1 0 1.34-.58 1.53-1.03h.54c-.23.73-.79 1.55-2.1 1.55-1.62 0-2.25-1.44-2.25-2.84 0-1.57.76-2.93 2.31-2.93 1.64 0 2.16 1.46 2.16 2.5 0 .15 0 .31-.01.45Z"/><path d="M82.25 53.5c0-.92-.01-1.32-.01-1.5h.52c.01.18.02.53.02 1.23.31-.82.99-1.32 1.85-1.36v.59c-1.11.08-1.85.87-1.85 2.18v2.86h-.53Z"/><path d="M85.86 54.76c0 1.31.68 2.37 1.81 2.37 1.15 0 1.8-.98 1.8-2.37 0-1.3-.64-2.37-1.82-2.37-1.21 0-1.79 1.05-1.79 2.37m4.18-.01c0 1.53-.82 2.89-2.41 2.89-1.44 0-2.33-1.22-2.33-2.88 0-1.57.84-2.88 2.39-2.88 1.42 0 2.35 1.14 2.35 2.87"/><path d="M94.6 54.7H93.55c-1.18 0-1.92.32-1.92 1.27 0 .69.48 1.17 1.22 1.17 1.52 0 1.74-1.05 1.74-2.23Zm.52 1.76c0 .48.04.87.08 1.05h-.51c-.04-.13-.08-.37-.1-.85-.18.41-.65.98-1.75.98-1.23 0-1.77-.83-1.77-1.65 0-1.21.91-1.76 2.5-1.76h1.01v-.56c0-.55-.16-1.29-1.38-1.29-1.08 0-1.23.58-1.35 1.03h-.53c.07-.61.43-1.54 1.9-1.54 1.21 0 1.89.53 1.89 1.74Z"/><path d="M97.12 54.8c0 1.51.76 2.32 1.67 2.32 1.41 0 1.79-1 1.79-2.5 0-1.42-.33-2.23-1.69-2.23-1.05 0-1.77.87-1.77 2.41m3.97-5.4v6.52c0 .53 0 1.03.01 1.58h-.51c-.02-.13-.03-.65-.03-.93-.27.67-.86 1.06-1.79 1.06-1.38 0-2.21-1.17-2.21-2.82 0-1.69.9-2.95 2.35-2.95 1.07 0 1.49.47 1.65.83V49.4Z"/><path d="M102.95 53.43c0-.47 0-.99-.01-1.42h.52c.01.19.03.66.02.98.22-.55.71-1.11 1.6-1.11.74 0 1.33.39 1.54 1.09.27-.57.8-1.09 1.73-1.09.82 0 1.67.48 1.67 2.01v3.62h-.53V53.96c0-.74-.26-1.54-1.25-1.54-1.03 0-1.5.86-1.5 1.93v3.17h-.52V53.97c0-.8-.23-1.55-1.22-1.55-1.03 0-1.53.95-1.53 2.07v3.03h-.53Z"/><path d="M114.95 54.7h-1.04c-1.18 0-1.92.32-1.92 1.27 0 .69.48 1.17 1.22 1.17 1.52 0 1.73-1.05 1.73-2.23Zm.52 1.76c0 .48.04.87.08 1.05h-.51c-.04-.13-.07-.37-.1-.85-.18.41-.65.98-1.75.98-1.23 0-1.77-.83-1.77-1.65 0-1.21.91-1.76 2.5-1.76h1.01v-.56c0-.55-.16-1.29-1.37-1.29-1.08 0-1.23.58-1.35 1.03h-.53c.07-.61.43-1.54 1.9-1.54 1.21 0 1.9.53 1.9 1.74Z"/><path d="M121.31 54.64c0-1.28-.6-2.23-1.65-2.23-1.29 0-1.82.84-1.82 2.33 0 1.47.41 2.39 1.75 2.39 1.11 0 1.73-.97 1.73-2.49m-3.44 2.06v3.01h-.53V53.36c0-.45 0-.94-.01-1.35h.52c.02.21.02.54.02.99.33-.66.92-1.12 1.88-1.12 1.26 0 2.13 1.09 2.13 2.74 0 1.98-1.02 3.02-2.31 3.02-.94 0-1.43-.43-1.69-.95"/><path d="M125.39 52.01h.99V50.29h.53v1.72h1.27v.52h-1.27V56.1c0 .62.13.97.64.97.16 0 .38-.01.55-.07v.48c-.18.08-.44.1-.66.1-.68 0-1.07-.35-1.07-1.23V52.53h-.99Z"/><path d="M129.45 54.76c0 1.31.68 2.37 1.81 2.37 1.15 0 1.8-.98 1.8-2.37 0-1.3-.64-2.37-1.82-2.37-1.21 0-1.79 1.05-1.79 2.37m4.17-.01c0 1.53-.82 2.89-2.41 2.89-1.44 0-2.33-1.22-2.33-2.88 0-1.57.84-2.88 2.39-2.88 1.42 0 2.35 1.14 2.35 2.87"/><path d="M5.92 68c0 1.51.76 2.32 1.67 2.32 1.41 0 1.79-1 1.79-2.5 0-1.42-.33-2.23-1.69-2.23-1.05 0-1.77.87-1.77 2.41m3.97-5.4v6.52c0 .53 0 1.03.01 1.58H9.39c-.02-.13-.03-.65-.03-.93-.27.67-.86 1.06-1.79 1.06-1.38 0-2.22-1.17-2.22-2.82 0-1.69.91-2.95 2.35-2.95 1.07 0 1.49.47 1.65.82V62.6Z"/><path d="M15.24 67.54c-.01-1.09-.59-1.95-1.63-1.95-1.1 0-1.6.79-1.71 1.95Zm-3.38.48c.01 1.42.7 2.3 1.72 2.3 1 0 1.34-.58 1.53-1.03h.54c-.22.73-.79 1.55-2.1 1.55-1.62 0-2.25-1.44-2.25-2.84 0-1.57.76-2.93 2.31-2.93 1.64 0 2.16 1.46 2.16 2.5 0 .15 0 .31-.01.45Z"/><path d="M21.17 69.09c-.26.97-.87 1.75-2.07 1.75-1.33 0-2.28-1.02-2.28-2.86 0-1.51.78-2.9 2.34-2.9 1.35 0 1.91.99 2 1.76h-.54c-.16-.64-.56-1.24-1.47-1.24-1.13 0-1.77.99-1.77 2.36 0 1.31.6 2.37 1.71 2.37.78 0 1.25-.41 1.52-1.23Z"/><path d="M25.69 67.9H24.64c-1.18 0-1.92.32-1.92 1.27 0 .69.48 1.17 1.22 1.17 1.52 0 1.74-1.05 1.74-2.23Zm.52 1.76c0 .48.04.87.08 1.04h-.51c-.04-.13-.07-.37-.1-.85-.18.41-.65.98-1.75.98-1.24 0-1.77-.83-1.77-1.65 0-1.21.9-1.76 2.5-1.76h1.01v-.56c0-.55-.16-1.29-1.37-1.29-1.08 0-1.24.58-1.35 1.03h-.53c.06-.61.43-1.54 1.9-1.54 1.22 0 1.9.53 1.9 1.74Z"/><path d="M28.07 66.7c0-.92-.01-1.32-.01-1.5h.52c.01.18.02.53.02 1.23.31-.82.99-1.32 1.85-1.36v.59c-1.11.08-1.85.87-1.85 2.18v2.86h-.53Z"/><path d="M35.6 67.85c0-1.38-.66-2.26-1.67-2.26-1.33 0-1.8.94-1.8 2.38 0 1.3.41 2.35 1.74 2.35 1.08 0 1.74-.92 1.74-2.47M31.63 62.6h.53v3.53c.26-.55.78-1.06 1.82-1.06 1.26 0 2.18 1.07 2.18 2.76 0 1.74-.83 3-2.32 3-.9 0-1.41-.37-1.68-1 0 .35-.01.71-.02.87h-.52c.01-.63.01-1.25.01-1.88Z"/><path d="M37.8 67.96c0 1.31.68 2.37 1.81 2.37 1.15 0 1.8-.98 1.8-2.37 0-1.3-.64-2.36-1.82-2.36-1.21 0-1.79 1.04-1.79 2.36m4.18-.01c0 1.53-.82 2.89-2.41 2.89-1.44 0-2.33-1.22-2.33-2.88 0-1.57.84-2.88 2.39-2.88 1.42 0 2.35 1.14 2.35 2.87"/><path d="M43.4 66.59c0-.48 0-.94-.01-1.39h.52c.02.18.03.89.02 1.05.23-.56.67-1.18 1.77-1.18.95 0 1.79.55 1.79 2.07v3.56h-.53V67.23c0-.98-.39-1.62-1.32-1.62-1.27 0-1.7 1.09-1.7 2.29v2.81H43.4Z"/><path d="M49.35 65.21h.53v5.5h-.53Zm0-2.61h.53v1.07h-.53Z"/><path d="M51.68 69.19c.18.71.67 1.14 1.51 1.14.95 0 1.33-.45 1.33-1.07 0-.63-.26-.93-1.45-1.23-1.38-.34-1.71-.77-1.71-1.5 0-.76.55-1.46 1.76-1.46s1.78.76 1.87 1.54h-.53c-.1-.46-.45-1.03-1.35-1.03-.93 0-1.19.47-1.19.91 0 .51.26.76 1.31 1.02 1.5.37 1.87.88 1.87 1.71 0 1-.79 1.62-1.91 1.62-1.21 0-1.9-.66-2.04-1.65Z"/><path d="M60.01 67.54c-.01-1.09-.59-1.95-1.63-1.95-1.1 0-1.6.79-1.71 1.95Zm-3.38.48c.01 1.42.7 2.3 1.72 2.3 1 0 1.34-.58 1.53-1.03h.54c-.22.73-.79 1.55-2.1 1.55-1.62 0-2.25-1.44-2.25-2.84 0-1.57.76-2.93 2.31-2.93 1.64 0 2.16 1.46 2.16 2.5 0 .15 0 .31-.01.45Z"/><path d="M61.33 71.96c.52-1.07.71-2.05.75-2.66h.53c-.07.91-.41 2-.8 2.66Z"/><path d="M70.46 67.54c-.01-1.09-.59-1.95-1.63-1.95-1.1 0-1.6.79-1.71 1.95Zm-3.38.48c.01 1.42.7 2.3 1.72 2.3 1 0 1.34-.58 1.53-1.03h.54c-.22.73-.79 1.55-2.1 1.55-1.62 0-2.25-1.44-2.25-2.84 0-1.57.76-2.93 2.31-2.93 1.64 0 2.16 1.46 2.16 2.5 0 .15 0 .31-.01.45Z"/><path d="M72.39 65.21c.89 1.35 1.27 1.96 1.48 2.29h.01c.26-.37.79-1.17 1.56-2.29h.61l-1.85 2.66 1.89 2.84h-.64c-.77-1.18-1.32-2.01-1.58-2.4h-.01c-.2.32-.68 1.07-1.55 2.4h-.62l1.89-2.8-1.8-2.71Z"/><path d="M81.09 67.84c0-1.28-.6-2.23-1.65-2.23-1.29 0-1.82.84-1.82 2.33 0 1.47.42 2.39 1.75 2.39 1.11 0 1.73-.97 1.73-2.49M77.65 69.9v3.01h-.53V66.56c0-.45 0-.94-.01-1.35h.52c.02.21.02.54.02.99.33-.66.92-1.12 1.88-1.12 1.26 0 2.13 1.09 2.13 2.74 0 1.98-1.02 3.03-2.31 3.03-.94 0-1.43-.43-1.69-.95"/><path d="M86.22 67.9H85.18c-1.18 0-1.92.32-1.92 1.27 0 .69.48 1.17 1.23 1.17 1.52 0 1.74-1.05 1.74-2.23Zm.52 1.76c0 .48.04.87.08 1.04h-.51c-.04-.13-.07-.37-.1-.85-.18.41-.65.98-1.75.98-1.24 0-1.77-.83-1.77-1.65 0-1.21.9-1.76 2.5-1.76h1.01v-.56c0-.55-.16-1.29-1.37-1.29-1.08 0-1.24.58-1.35 1.03h-.53c.06-.61.43-1.54 1.9-1.54 1.22 0 1.9.53 1.9 1.74Z"/><path d="M88.61 66.59c0-.48 0-.94-.01-1.39h.52c.02.18.03.89.02 1.05.23-.56.67-1.18 1.77-1.18.95 0 1.79.55 1.79 2.07v3.56h-.53V67.23c0-.98-.4-1.62-1.32-1.62-1.27 0-1.71 1.09-1.71 2.29v2.81h-.53Z"/><path d="M94.69 68c0 1.51.76 2.32 1.67 2.32 1.41 0 1.79-1 1.79-2.5 0-1.42-.33-2.23-1.69-2.23-1.05 0-1.77.87-1.77 2.41m3.97-5.4v6.52c0 .53 0 1.03.01 1.58h-.51c-.02-.13-.03-.65-.03-.93-.27.67-.86 1.06-1.79 1.06-1.38 0-2.21-1.17-2.21-2.82 0-1.69.9-2.95 2.35-2.95 1.07 0 1.49.47 1.65.82V62.6Z"/><path d="M103.53 67.96c0 1.31.68 2.37 1.81 2.37 1.15 0 1.8-.98 1.8-2.37 0-1.3-.64-2.36-1.82-2.36-1.22 0-1.79 1.04-1.79 2.36m4.18-.01c0 1.53-.82 2.89-2.41 2.89-1.44 0-2.33-1.22-2.33-2.88 0-1.57.84-2.88 2.39-2.88 1.42 0 2.35 1.14 2.35 2.87"/><path d="M113.11 67.84c0-1.28-.6-2.23-1.65-2.23-1.29 0-1.82.84-1.82 2.33 0 1.47.41 2.39 1.75 2.39 1.11 0 1.73-.97 1.73-2.49m-3.44 2.06v3.01h-.53V66.56c0-.45 0-.94-.01-1.35h.52c.02.21.02.54.02.99.33-.66.92-1.12 1.88-1.12 1.26 0 2.13 1.09 2.13 2.74 0 1.98-1.02 3.03-2.31 3.03-.94 0-1.43-.43-1.69-.95"/><path d="M119.09 67.84c0-1.28-.6-2.23-1.65-2.23-1.29 0-1.82.84-1.82 2.33 0 1.47.41 2.39 1.75 2.39 1.11 0 1.72-.97 1.72-2.49m-3.44 2.06v3.01h-.53V66.56c0-.45 0-.94-.01-1.35h.52c.02.21.02.54.02.99.33-.66.92-1.12 1.87-1.12 1.26 0 2.13 1.09 2.13 2.74 0 1.98-1.02 3.03-2.31 3.03-.94 0-1.43-.43-1.69-.95"/><path d="M121.29 67.96c0 1.31.68 2.37 1.81 2.37 1.15 0 1.8-.98 1.8-2.37 0-1.3-.64-2.36-1.82-2.36-1.22 0-1.79 1.04-1.79 2.36m4.17-.01c0 1.53-.82 2.89-2.41 2.89-1.44 0-2.33-1.22-2.33-2.88 0-1.57.84-2.88 2.39-2.88 1.42 0 2.35 1.14 2.35 2.87"/><path d="M126.9 66.7c0-.92-.01-1.32-.01-1.5h.52c.01.18.02.53.02 1.23.31-.82.99-1.32 1.85-1.36v.59c-1.11.08-1.85.87-1.85 2.18v2.86h-.53Z"/><path d="M129.98 65.21h.99V63.49h.53v1.72h1.27v.52h-1.27V69.3c0 .62.13.97.64.97.16 0 .38-.01.55-.07v.48c-.18.08-.44.1-.66.1-.68 0-1.07-.35-1.07-1.23V65.73h-.99Z"/><path d="M137.8 69.1c0 .54.01 1.4.01 1.61h-.51c-.02-.14-.03-.5-.03-.96-.22.65-.77 1.09-1.72 1.09-.77 0-1.75-.31-1.75-1.99V65.21h.52v3.51c0 .8.25 1.58 1.3 1.58 1.19 0 1.64-.69 1.64-2.27V65.21h.53Z"/><path d="M139.66 66.59c0-.48 0-.94-.01-1.39h.52c.02.18.03.89.02 1.05.23-.56.67-1.18 1.77-1.18.95 0 1.79.55 1.79 2.07v3.56h-.53V67.23c0-.98-.4-1.62-1.32-1.62-1.27 0-1.7 1.09-1.7 2.29v2.81h-.53Z"/><path d="M145.6 65.21h.53v5.5h-.53Zm0-2.61h.53v1.07h-.53Z"/><path d="M147.26 65.21h.99V63.49h.53v1.72h1.27v.52h-1.27V69.3c0 .62.13.97.64.97.16 0 .38-.01.55-.07v.48c-.18.08-.44.1-.66.1-.68 0-1.07-.35-1.07-1.23V65.73h-.99Z"/><path d="M151.25 65.21h.53v5.5h-.53Zm0-2.61h.53v1.07h-.53Z"/><path d="M157.12 67.54c-.01-1.09-.59-1.95-1.63-1.95-1.1 0-1.6.79-1.72 1.95Zm-3.38.48c.01 1.42.7 2.3 1.73 2.3 1 0 1.34-.58 1.53-1.03h.54c-.22.73-.79 1.55-2.1 1.55-1.62 0-2.25-1.44-2.25-2.84 0-1.57.76-2.93 2.31-2.93 1.64 0 2.16 1.46 2.16 2.5 0 .15 0 .31-.01.45Z"/><path d="M159.22 69.19c.18.71.67 1.14 1.51 1.14.95 0 1.33-.45 1.33-1.07 0-.63-.26-.93-1.45-1.23-1.37-.34-1.71-.77-1.71-1.5 0-.76.55-1.46 1.76-1.46s1.78.76 1.86 1.54h-.53c-.1-.46-.45-1.03-1.35-1.03-.93 0-1.19.47-1.19.91 0 .51.26.76 1.31 1.02 1.5.37 1.88.88 1.88 1.71 0 1-.79 1.62-1.91 1.62-1.21 0-1.9-.66-2.04-1.65Z"/><path d="M5.92 83.91V78.93H5v-.52h.92v-.78c0-.93.26-1.94 1.45-1.94.16 0 .4.03.52.08v.53c-.16-.04-.41-.07-.57-.07-.63 0-.86.46-.86 1.42v.76H7.61v.52H6.45v4.98Z"/><path d="M8.7 81.16c0 1.31.68 2.36 1.81 2.36 1.15 0 1.8-.98 1.8-2.36 0-1.3-.64-2.36-1.82-2.36-1.22 0-1.79 1.04-1.79 2.36m4.17-.01c0 1.53-.82 2.89-2.41 2.89-1.44 0-2.33-1.22-2.33-2.88 0-1.57.84-2.88 2.38-2.88 1.42 0 2.35 1.14 2.35 2.87"/><path d="M14.3 79.9c0-.93-.01-1.32-.01-1.5h.52c.01.18.02.53.02 1.23.31-.83.99-1.32 1.85-1.36v.59c-1.11.08-1.85.87-1.85 2.18v2.86H14.3Z"/><path d="M20.73 82.39c.18.72.67 1.14 1.51 1.14.95 0 1.33-.45 1.33-1.07 0-.63-.26-.93-1.45-1.23-1.37-.34-1.72-.77-1.72-1.5 0-.76.55-1.46 1.76-1.46s1.78.76 1.86 1.54H23.5c-.1-.46-.45-1.03-1.35-1.03-.93 0-1.19.47-1.19.91 0 .51.26.76 1.31 1.02 1.5.37 1.88.88 1.88 1.71 0 1-.79 1.62-1.91 1.62-1.22 0-1.9-.66-2.04-1.65Z"/><path d="M29.42 82.3c0 .54.01 1.4.01 1.61h-.51c-.02-.14-.03-.51-.03-.96-.22.65-.77 1.09-1.72 1.09-.77 0-1.75-.31-1.75-1.99V78.41h.52v3.51c0 .8.24 1.58 1.3 1.58 1.19 0 1.64-.69 1.64-2.26V78.41h.53Z"/><path d="M31.22 82.39c.18.72.67 1.14 1.51 1.14.95 0 1.33-.45 1.33-1.07 0-.63-.26-.93-1.45-1.23-1.37-.34-1.71-.77-1.71-1.5 0-.76.55-1.46 1.76-1.46s1.78.76 1.86 1.54h-.53c-.1-.46-.45-1.03-1.35-1.03-.93 0-1.19.47-1.19.91 0 .51.26.76 1.31 1.02 1.5.37 1.88.88 1.88 1.71 0 1-.79 1.62-1.91 1.62-1.21 0-1.9-.66-2.05-1.65Z"/><path d="M35.22 78.41h.99V76.69h.53v1.72h1.27v.52H36.74V82.5c0 .62.13.97.64.97.16 0 .38-.01.55-.07v.49c-.18.08-.44.1-.66.1-.68 0-1.07-.35-1.07-1.23V78.93h-.99Z"/><path d="M42.34 81.1H41.29c-1.18 0-1.92.32-1.92 1.27 0 .69.48 1.17 1.23 1.17 1.52 0 1.74-1.05 1.74-2.23Zm.52 1.76c0 .48.04.87.08 1.04h-.51c-.04-.13-.07-.37-.1-.85-.18.41-.65.98-1.75.98-1.23 0-1.77-.82-1.77-1.65 0-1.21.91-1.76 2.5-1.76h1.01v-.56c0-.55-.16-1.29-1.38-1.29-1.07 0-1.23.58-1.35 1.03h-.53c.06-.61.42-1.54 1.9-1.54 1.21 0 1.89.53 1.89 1.74Z"/><path d="M44.72 78.41h.53v5.5h-.53Zm0-2.61h.53v1.07h-.53Z"/><path d="M47.11 79.79c0-.48 0-.95-.01-1.39h.52c.02.18.03.89.02 1.05.23-.56.67-1.18 1.77-1.18.95 0 1.79.55 1.79 2.07v3.56h-.53V80.43c0-.98-.4-1.62-1.32-1.62-1.27 0-1.71 1.09-1.71 2.29v2.81h-.53Z"/><path d="M56.12 81.1H55.08c-1.18 0-1.92.32-1.92 1.27 0 .69.48 1.17 1.22 1.17 1.52 0 1.74-1.05 1.74-2.23Zm.52 1.76c0 .48.04.87.08 1.04h-.51c-.04-.13-.07-.37-.1-.85-.18.41-.65.98-1.75.98-1.24 0-1.77-.82-1.77-1.65 0-1.21.9-1.76 2.5-1.76h1.01v-.56c0-.55-.16-1.29-1.37-1.29-1.08 0-1.24.58-1.35 1.03h-.53c.06-.61.43-1.54 1.9-1.54 1.21 0 1.9.53 1.9 1.74Z"/><path d="M62.48 81.05c0-1.38-.66-2.25-1.67-2.25-1.33 0-1.8.93-1.8 2.38 0 1.3.41 2.35 1.74 2.35 1.07 0 1.74-.92 1.74-2.48M58.51 75.8h.53v3.53c.26-.55.78-1.06 1.82-1.06 1.26 0 2.18 1.07 2.18 2.76 0 1.74-.83 3-2.32 3-.9 0-1.41-.37-1.68-1 0 .35-.01.72-.02.87H58.5c.01-.63.01-1.25.01-1.88Z"/><path d="M64.47 83.91H65V75.8h-.53Z" fill-rule="evenodd"/><path d="M70.35 80.74c-.01-1.09-.59-1.95-1.63-1.95-1.1 0-1.6.79-1.71 1.95Zm-3.38.48c.01 1.42.7 2.3 1.73 2.3 1 0 1.34-.58 1.53-1.03h.54c-.22.73-.79 1.55-2.1 1.55-1.62 0-2.25-1.44-2.25-2.84 0-1.57.76-2.93 2.31-2.93 1.64 0 2.16 1.46 2.16 2.5 0 .15 0 .31-.01.45Z"/><path d="M75.33 83.91V78.93h-.92v-.52h.92v-.78c0-.93.26-1.94 1.45-1.94.16 0 .39.03.52.08v.53c-.16-.04-.42-.07-.57-.07-.63 0-.86.46-.86 1.42v.76h1.16v.52H75.86v4.98Z"/><path d="M78.11 78.41h.53v5.5h-.53Zm0-2.61h.53v1.07h-.53Z"/><path d="M80.49 79.79c0-.48 0-.95-.01-1.39H81c.02.18.03.89.02 1.05.23-.56.67-1.18 1.77-1.18.95 0 1.79.55 1.79 2.07v3.56h-.53V80.43c0-.98-.39-1.62-1.32-1.62-1.27 0-1.7 1.09-1.7 2.29v2.81h-.53Z"/><path d="M89.5 81.1H88.46c-1.18 0-1.92.32-1.92 1.27 0 .69.48 1.17 1.22 1.17 1.52 0 1.74-1.05 1.74-2.23Zm.52 1.76c0 .48.04.87.08 1.04h-.51c-.04-.13-.07-.37-.1-.85-.18.41-.65.98-1.75.98-1.24 0-1.77-.82-1.77-1.65 0-1.21.91-1.76 2.5-1.76h1.01v-.56c0-.55-.16-1.29-1.37-1.29-1.08 0-1.23.58-1.35 1.03h-.53c.06-.61.43-1.54 1.9-1.54 1.21 0 1.9.53 1.9 1.74Z"/><path d="M91.89 79.79c0-.48 0-.95-.01-1.39h.52c.02.18.03.89.02 1.05.23-.56.67-1.18 1.77-1.18.95 0 1.79.55 1.79 2.07v3.56h-.53V80.43c0-.98-.4-1.62-1.32-1.62-1.27 0-1.71 1.09-1.71 2.29v2.81h-.53Z"/><path d="M101.75 82.29c-.26.97-.87 1.75-2.07 1.75-1.33 0-2.28-1.02-2.28-2.86 0-1.51.78-2.9 2.34-2.9 1.35 0 1.91.99 2 1.76h-.54c-.16-.64-.56-1.24-1.47-1.24-1.13 0-1.77.99-1.77 2.36 0 1.31.59 2.36 1.71 2.36.78 0 1.25-.41 1.52-1.23Z"/><path d="M106.64 80.74c-.01-1.09-.59-1.95-1.63-1.95-1.1 0-1.6.79-1.71 1.95Zm-3.38.48c.01 1.42.7 2.3 1.73 2.3 1 0 1.34-.58 1.53-1.03h.54c-.22.73-.79 1.55-2.1 1.55-1.62 0-2.25-1.44-2.25-2.84 0-1.57.76-2.93 2.31-2.93 1.64 0 2.16 1.46 2.16 2.5 0 .15 0 .31-.01.45Z"/><path d="M111.49 78.41c.79 2.84 1.25 4.47 1.33 4.95h.01c.09-.44.62-2.17 1.45-4.95h.57c.99 3.4 1.29 4.38 1.38 4.81h.01c.15-.61.39-1.43 1.37-4.81h.56l-1.68 5.5h-.59c-.58-1.95-1.27-4.33-1.37-4.84h-.01c-.11.54-.71 2.51-1.41 4.84h-.64l-1.57-5.5Z"/><path d="M119.42 78.41h.53v5.5h-.53Zm0-2.61h.53v1.07h-.53Z"/><path d="M121.09 78.41h.99V76.69h.53v1.72h1.27v.52h-1.27V82.5c0 .62.13.97.64.97.16 0 .38-.01.55-.07v.49c-.18.08-.44.1-.66.1-.68 0-1.07-.35-1.07-1.23V78.93h-.99Z"/><path d="M125.57 75.8v3.53c.3-.57.82-1.06 1.76-1.06.76 0 1.8.4 1.8 2.13v3.5h-.53V80.52c0-1.09-.48-1.71-1.36-1.71-1.05 0-1.66.67-1.66 2.02v3.07h-.53V75.8Z"/><path d="M9.75 94.24c0-1.28-.6-2.23-1.65-2.23-1.29 0-1.82.84-1.82 2.33 0 1.47.41 2.39 1.75 2.39 1.11 0 1.73-.97 1.73-2.49M6.31 96.3v3.01H5.78V92.96c0-.45 0-.93-.01-1.35h.52c.02.21.02.54.02.99.33-.66.92-1.12 1.88-1.12 1.26 0 2.13 1.09 2.13 2.74 0 1.98-1.02 3.02-2.31 3.02-.94 0-1.43-.43-1.69-.94"/><path d="M11.75 93.1c0-.92-.01-1.32-.01-1.5h.52c.01.18.02.53.02 1.23.31-.83.99-1.32 1.85-1.36v.6c-1.11.08-1.85.87-1.85 2.18v2.86h-.53Z"/><path d="M18.72 93.94c-.01-1.09-.59-1.95-1.63-1.95-1.1 0-1.6.79-1.72 1.95Zm-3.38.48c.01 1.42.7 2.3 1.73 2.3 1 0 1.34-.58 1.53-1.03h.54c-.22.73-.79 1.55-2.1 1.55-1.62 0-2.25-1.44-2.25-2.84 0-1.57.76-2.93 2.31-2.93 1.64 0 2.16 1.46 2.16 2.5 0 .15 0 .31-.01.45Z"/><path d="M20.96 97.11V92.13h-.92v-.52h.92v-.78c0-.92.26-1.94 1.45-1.94.16 0 .4.03.52.08v.53c-.16-.04-.42-.07-.58-.07-.63 0-.86.46-.86 1.42v.76h1.16v.52H21.49v4.98Z"/><path d="M27.09 93.94c-.01-1.09-.59-1.95-1.63-1.95-1.1 0-1.6.79-1.72 1.95Zm-3.38.48c.01 1.42.7 2.3 1.73 2.3 1 0 1.34-.58 1.53-1.03h.54c-.22.73-.79 1.55-2.1 1.55-1.62 0-2.25-1.44-2.25-2.84 0-1.57.76-2.93 2.31-2.93 1.64 0 2.16 1.46 2.16 2.5 0 .15 0 .31-.01.45Z"/><path d="M29.05 93.1c0-.92-.01-1.32-.01-1.5h.52c.01.18.02.53.02 1.23.31-.83.99-1.32 1.85-1.36v.6c-1.11.08-1.85.87-1.85 2.18v2.86h-.53Z"/><path d="M32.49 93.1c0-.92-.01-1.32-.01-1.5h.52c.01.18.02.53.02 1.23.31-.83.99-1.32 1.85-1.36v.6c-1.11.08-1.85.87-1.85 2.18v2.86h-.53Z"/><path d="M39.46 93.94c-.01-1.09-.59-1.95-1.63-1.95-1.1 0-1.6.79-1.71 1.95Zm-3.38.48c.01 1.42.7 2.3 1.73 2.3 1 0 1.34-.58 1.53-1.03h.54c-.22.73-.79 1.55-2.1 1.55-1.62 0-2.25-1.44-2.25-2.84 0-1.57.76-2.93 2.31-2.93 1.64 0 2.16 1.46 2.16 2.5 0 .15 0 .31-.01.45Z"/><path d="M41.61 94.4c0 1.51.76 2.32 1.67 2.32 1.41 0 1.79-1 1.79-2.5 0-1.42-.33-2.23-1.69-2.23-1.06 0-1.77.87-1.77 2.41M45.59 89v6.52c0 .53 0 1.03.01 1.58h-.51c-.02-.13-.03-.65-.03-.92-.27.67-.86 1.06-1.79 1.06-1.38 0-2.21-1.17-2.21-2.82 0-1.69.9-2.95 2.35-2.95 1.07 0 1.49.47 1.65.83V89Z"/><path d="M50.32 91.61h.53v5.5h-.53Zm0-2.61h.53v1.07h-.53Z"/><path d="M52.7 92.99c0-.48 0-.95-.01-1.39h.52c.02.18.03.89.02 1.05.23-.56.67-1.18 1.77-1.18.95 0 1.79.55 1.79 2.07v3.56h-.53V93.63c0-.98-.4-1.62-1.32-1.62-1.27 0-1.7 1.09-1.7 2.29v2.8H52.7Z"/><path d="M57.81 91.61h.99V89.89h.53v1.72h1.27v.52H59.34V95.7c0 .62.13.97.64.97.16 0 .38-.01.55-.07v.48c-.18.08-.44.1-.66.1-.68 0-1.07-.35-1.07-1.23V92.13h-.99Z"/><path d="M65.23 93.94c-.01-1.09-.59-1.95-1.63-1.95-1.1 0-1.6.79-1.71 1.95Zm-3.38.48c.01 1.42.7 2.3 1.73 2.3 1 0 1.34-.58 1.53-1.03h.54c-.22.73-.79 1.55-2.1 1.55-1.62 0-2.25-1.44-2.25-2.84 0-1.57.76-2.93 2.31-2.93 1.64 0 2.16 1.46 2.16 2.5 0 .15 0 .31-.01.45Z"/><path d="M67.19 93.1c0-.92-.01-1.32-.01-1.5h.52c.01.18.02.53.02 1.23.31-.83.99-1.32 1.85-1.36v.6c-1.11.08-1.85.87-1.85 2.18v2.86h-.53Z"/><path d="M74.15 93.94c-.01-1.09-.59-1.95-1.63-1.95-1.1 0-1.6.79-1.72 1.95Zm-3.38.48c.01 1.42.7 2.3 1.73 2.3 1 0 1.34-.58 1.53-1.03h.54c-.22.73-.79 1.55-2.1 1.55-1.62 0-2.25-1.44-2.25-2.84 0-1.57.76-2.93 2.31-2.93 1.64 0 2.16 1.46 2.16 2.5 0 .15 0 .31-.01.45Z"/><path d="M76.24 95.59c.18.72.67 1.14 1.51 1.14.95 0 1.33-.45 1.33-1.07 0-.63-.26-.93-1.45-1.23-1.37-.34-1.72-.77-1.72-1.5 0-.76.55-1.46 1.76-1.46s1.78.76 1.86 1.54h-.53c-.1-.46-.45-1.03-1.35-1.03-.93 0-1.19.47-1.19.91 0 .51.26.76 1.31 1.02 1.5.37 1.88.88 1.88 1.7 0 1-.79 1.62-1.91 1.62-1.21 0-1.89-.66-2.04-1.65Z"/><path d="M80.25 91.61h.99V89.89h.53v1.72h1.27v.52H81.77V95.7c0 .62.13.97.64.97.16 0 .38-.01.55-.07v.48c-.18.08-.44.1-.66.1-.68 0-1.07-.35-1.07-1.23V92.13h-.99Z"/><path d="M84.21 97.11h.53V95.69h-.53Z" fill-rule="evenodd"/></g></g></svg>