<?xml version="1.0" encoding="UTF-8"?><!DOCTYPE svg PUBLIC "-//W3C//DTD SVG 1.0//EN" "http://www.w3.org/TR/2001/REC-SVG-20010904/DTD/svg10.dtd" []><svg xmlns="http://www.w3.org/2000/svg" xmlns:xlink="http://www.w3.org/1999/xlink" height="100" stroke="#000" stroke-linecap="square" stroke-miterlimit="10" viewBox="0 0 125.34 99.61" width="125"><defs><clipPath id="a"><path d="M0 0V99.61H125.34V0Z"/></clipPath><clipPath clip-path="url(#a)" id="b"><path d="M-66.97 319.37H893.15V-220.75H-66.97Z"/></clipPath><clipPath clip-path="url(#b)" id="c"><path d="M-66.97 319.31H893.04v-540H-66.97Z"/></clipPath></defs><g><g fill="#FB03A0" stroke="#FB03A0" stroke-linecap="butt"><path clip-path="url(#c)" d="M5.5 94.11H119.84V5.5H5.5Z" fill="none"/><path clip-path="url(#c)" d="M15.79 55.01c.06.76.53 1.25 1.46 1.25.8 0 1.25-.3 1.25-.99 0-.59-.36-.9-1.33-1.25-1.5-.53-2.05-1.15-2.05-2.1 0-1.22.84-2.27 2.7-2.27 1.7 0 2.63.91 2.66 2.24H18.95c-.03-.46-.23-1.03-1.2-1.03-.62 0-1.08.29-1.08.88 0 .42.23.69 1.18 1.03 1.49.54 2.23 1.15 2.23 2.3 0 1.21-.71 2.38-2.97 2.38-1.83 0-2.8-.96-2.84-2.44Z" stroke="none"/><path clip-path="url(#c)" d="M21.38 51.65h.82l.32-1.54h1.44l-.31 1.54h1.04l-.25 1.14H23.4l-.58 2.87c-.07.35-.04.59.39.59.17 0 .31-.01.47-.03l-.22 1.08c-.32.11-.68.11-.98.11-1.15 0-1.33-.68-1.13-1.68l.59-2.93h-.82Z" stroke="none"/><path clip-path="url(#c)" d="M28.15 54.79c-.36 0-.67.03-.95.07-.81.12-1.13.4-1.13.88 0 .33.21.58.67.58 1 0 1.25-.84 1.39-1.44Zm1.2 1.16c-.12.59-.24 1.23-.25 1.4H27.69c.01-.16.05-.46.08-.64-.28.36-.64.75-1.67.75-1.09 0-1.54-.79-1.54-1.46 0-1.58 1.34-2.01 2.56-2.14.46-.05.89-.05 1.23-.06l.05-.27c.08-.41.08-.95-.7-.95-.69 0-.82.39-.94.66H25.28c.21-.91.82-1.7 2.53-1.7 1.34 0 2.33.57 2.02 2.07Z" stroke="none"/><path clip-path="url(#c)" d="M32.31 54.96c0 .7.29 1.11.9 1.11.77 0 1.24-.67 1.46-1.71.16-.77.12-1.61-.86-1.61-1.01 0-1.5 1.2-1.5 2.22m3.28 1.56c-.38 1.84-.87 3.12-3.02 3.12-2.07 0-2.25-1.14-2.26-1.81h1.47c.02.34.24.69.9.69.84 0 1.16-.53 1.43-1.74l.04-.17c-.36.47-.83.68-1.54.68-1.19 0-1.83-.9-1.83-2.21 0-1.68 1.05-3.53 2.8-3.53.85 0 1.31.32 1.46.68.05-.17.14-.45.19-.57h1.39c-.1.42-.21.94-.31 1.42Z" stroke="none"/><path clip-path="url(#c)" d="M40.92 53.84c.02-.11.02-.19.02-.25 0-.5-.21-.92-.85-.92-.66 0-1.07.44-1.26 1.17Zm-2.28 1c-.02.12-.04.21-.04.34 0 .6.22 1.12.87 1.12.59 0 .85-.33 1.03-.69h1.51c-.31.84-1.01 1.85-2.66 1.85-1.48 0-2.21-.96-2.21-2.34 0-1.5.8-3.58 2.99-3.58 1.62 0 2.19 1.02 2.19 2.19 0 .46-.06.79-.15 1.11Z" stroke="none"/><path clip-path="url(#c)" d="M53.48 52.85l-2.21 2.62c-.99 1.16-1.57 2-3.23 2-1.42 0-2.2-.94-2.2-2.05 0-1.14.68-1.88 2.49-2.56.96-.38 1.45-.85 1.45-1.46 0-.31-.14-.67-.59-.67-.49 0-.71.4-.71.8 0 .36.12.74.58 1.18l3.87 4.64h-1.8L47.79 53.4c-.37-.48-.68-1.02-.68-1.7 0-1.15.71-2.06 2.11-2.06 1.37 0 1.88.92 1.88 1.75 0 .98-.52 1.59-2.17 2.26-1.3.53-1.61.97-1.61 1.53 0 .47.35.91.98.91.69 0 1.14-.35 2.05-1.43l1.52-1.82Z" stroke="none"/><path clip-path="url(#c)" d="M58.02 55.01c.06.76.53 1.25 1.46 1.25.8 0 1.25-.3 1.25-.99 0-.59-.35-.9-1.33-1.25-1.49-.53-2.05-1.15-2.05-2.1 0-1.22.84-2.27 2.7-2.27 1.7 0 2.63.91 2.66 2.24H61.18c-.03-.46-.23-1.03-1.2-1.03-.62 0-1.08.29-1.08.88 0 .42.23.69 1.18 1.03 1.49.54 2.23 1.15 2.23 2.3 0 1.21-.71 2.38-2.97 2.38-1.83 0-2.8-.96-2.84-2.44Z" stroke="none"/><path clip-path="url(#c)" d="M67.07 53.84c.02-.11.02-.19.02-.25 0-.5-.21-.92-.85-.92-.66 0-1.07.44-1.26 1.17Zm-2.28 1c-.02.12-.03.21-.03.34 0 .6.22 1.12.87 1.12.59 0 .85-.33 1.03-.69h1.51c-.31.84-1.01 1.85-2.66 1.85-1.48 0-2.21-.96-2.21-2.34 0-1.5.8-3.58 2.99-3.58 1.62 0 2.19 1.02 2.19 2.19 0 .46-.06.79-.15 1.11Z" stroke="none"/><path clip-path="url(#c)" d="M69.57 51.65h.82l.32-1.54h1.44l-.31 1.54h1.04l-.25 1.14H71.58l-.58 2.87c-.07.35-.04.59.39.59.17 0 .31-.01.47-.03l-.22 1.08c-.32.11-.68.11-.98.11-1.15 0-1.33-.68-1.13-1.68l.59-2.93h-.82Z" stroke="none"/><path clip-path="url(#c)" d="M77.34 56.1h1.14c1.59 0 2.59-1.16 2.59-3.09 0-1.34-.63-2.01-1.75-2.01h-.94Zm-.2-6.34h2.37c1.92 0 3.15 1.19 3.15 3.23 0 2.45-1.53 4.36-4.23 4.36H75.58Z" stroke="none"/><path clip-path="url(#c)" d="M87.33 53.84c.02-.11.02-.19.02-.25 0-.5-.21-.92-.85-.92-.66 0-1.07.44-1.26 1.17Zm-2.28 1c-.02.12-.04.21-.04.34 0 .6.22 1.12.87 1.12.59 0 .85-.33 1.03-.69h1.51c-.31.84-1.01 1.85-2.66 1.85-1.48 0-2.21-.96-2.21-2.34 0-1.5.8-3.58 2.99-3.58 1.62 0 2.19 1.02 2.19 2.19 0 .46-.06.79-.15 1.11Z" stroke="none"/><path clip-path="url(#c)" d="M90.73 55.58c.04.49.35.76.95.76.57 0 .79-.27.79-.64 0-.37-.29-.55-.98-.77-1.29-.41-1.69-.87-1.69-1.58 0-1.03.78-1.81 2.24-1.81 1.54 0 2.22.81 2.18 1.72H92.78c-.02-.31-.17-.61-.79-.61-.35 0-.72.12-.72.52 0 .31.29.42.97.65 1.29.42 1.74.94 1.74 1.73 0 1.31-1.14 1.91-2.45 1.91-1.47 0-2.32-.68-2.26-1.87Z" stroke="none"/><path clip-path="url(#c)" d="M96.38 49.31h1.45l-.29 1.41H96.09Zm-.48 2.34h1.45l-1.17 5.7H94.74Z" stroke="none"/><path clip-path="url(#c)" d="M99.43 54.96c0 .7.29 1.11.9 1.11.77 0 1.24-.67 1.46-1.71.16-.77.12-1.61-.86-1.61-1 0-1.5 1.2-1.5 2.22m3.28 1.56c-.38 1.84-.87 3.12-3.02 3.12-2.07 0-2.25-1.14-2.26-1.81H98.9c.02.34.24.69.9.69.84 0 1.16-.53 1.42-1.74l.04-.17c-.36.47-.83.68-1.54.68-1.19 0-1.83-.9-1.83-2.21 0-1.68 1.04-3.53 2.8-3.53.85 0 1.31.32 1.46.68.05-.17.14-.45.19-.57h1.39c-.1.42-.21.94-.31 1.42Z" stroke="none"/><path clip-path="url(#c)" d="M104.91 53.1c.1-.48.2-.96.27-1.44h1.42c-.01.16-.07.57-.11.71.26-.35.74-.83 1.66-.83 1.09 0 1.71.68 1.36 2.36l-.7 3.44h-1.44l.7-3.46c.14-.64 0-1.1-.62-1.1-.71 0-1.15.55-1.37 1.61l-.6 2.95h-1.45Z" stroke="none"/><path clip-path="url(#c)" d="M15.79 68.21c.06.76.53 1.25 1.46 1.25.8 0 1.25-.3 1.25-.99 0-.59-.36-.9-1.33-1.25-1.5-.53-2.05-1.15-2.05-2.1 0-1.22.84-2.27 2.7-2.27 1.7 0 2.63.91 2.66 2.24H18.95c-.03-.46-.23-1.03-1.2-1.03-.62 0-1.08.29-1.08.88 0 .42.23.69 1.18 1.03 1.49.54 2.23 1.15 2.23 2.3 0 1.21-.71 2.38-2.97 2.38-1.83 0-2.8-.96-2.84-2.44Z" stroke="none"/><path clip-path="url(#c)" d="M21.38 64.85h.82l.32-1.54h1.44l-.31 1.54h1.04l-.25 1.14H23.4l-.58 2.87c-.07.35-.04.59.39.59.17 0 .31-.01.47-.04l-.22 1.08c-.32.11-.68.11-.98.11-1.15 0-1.33-.68-1.13-1.68l.59-2.93h-.82Z" stroke="none"/><path clip-path="url(#c)" d="M29.48 69.02c-.11.5-.21 1.06-.29 1.52H27.77c.01-.16.07-.58.11-.79-.41.62-1.01.9-1.74.9-1.02 0-1.61-.71-1.35-2.01l.78-3.79h1.44l-.74 3.6c-.12.59-.03.98.58.98.63 0 1.18-.51 1.44-1.78l.58-2.79h1.45Z" stroke="none"/><path clip-path="url(#c)" d="M32.41 68.23c0 .76.29 1.18.9 1.18.88 0 1.35-.78 1.56-1.93.18-.97-.08-1.5-.89-1.5-1.01 0-1.56 1.23-1.56 2.25m4.86-5.71L35.94 69c-.11.52-.22 1.03-.31 1.54h-1.4c.01-.21.04-.39.09-.67-.35.51-.87.78-1.6.78-1.18 0-1.83-.87-1.83-2.26 0-1.74 1.02-3.66 2.93-3.66.79 0 1.29.33 1.42.6l.58-2.83Z" stroke="none"/><path clip-path="url(#c)" d="M38.8 62.51h1.45l-.29 1.41H38.51Zm-.48 2.34h1.45l-1.17 5.7H37.15Z" stroke="none"/><path clip-path="url(#c)" d="M41.82 68.31c0 .79.32 1.18.88 1.18 1.04 0 1.45-1.49 1.45-2.46 0-.74-.3-1.13-.9-1.13-1 0-1.43 1.48-1.43 2.41m3.83-1.13c0 1.34-.76 3.47-3.09 3.47-1.54 0-2.24-.97-2.24-2.35 0-1.53.94-3.56 3.05-3.56 1.32 0 2.29.77 2.29 2.44" stroke="none"/><path clip-path="url(#c)" d="M47.72 68.78c.04.49.35.76.95.76.57 0 .79-.27.79-.64 0-.36-.29-.54-.98-.77-1.29-.41-1.69-.87-1.69-1.58 0-1.03.78-1.81 2.24-1.81 1.53 0 2.22.81 2.18 1.71H49.76c-.02-.31-.17-.61-.79-.61-.36 0-.72.12-.72.52 0 .3.29.42.97.64 1.29.42 1.74.94 1.74 1.73 0 1.31-1.14 1.91-2.45 1.91-1.47 0-2.32-.69-2.26-1.87Z" stroke="none"/><path clip-path="url(#c)" d="M20.16 27.75c0 4.41.57 8.69 4.09 8.69 3.47 0 3.99-4.04 3.99-8.78 0-4.59-.61-8.52-3.92-8.52-3.3 0-4.16 3.46-4.16 8.61m12.59-.12c0 6.29-1.87 12.43-8.55 12.43-6.57 0-8.54-5.86-8.54-12.27 0-6.35 2.17-12.27 8.64-12.27 6.32 0 8.44 5.62 8.44 12.12" stroke="none"/><path clip-path="url(#c)" d="M40.67 39.63V21.17c-1.09.63-3.16 1.24-4.35 1.38V19.14c2.04-.44 4.25-1.74 5.65-3.25h3.11V39.63Z" stroke="none"/><path clip-path="url(#c)" d="M50 39.63h4.63V33.65H50Z" fill-rule="evenodd" stroke="none"/></g></g></svg>