<?xml version="1.0" encoding="UTF-8"?><!DOCTYPE svg PUBLIC "-//W3C//DTD SVG 1.0//EN" "http://www.w3.org/TR/2001/REC-SVG-20010904/DTD/svg10.dtd" []><svg xmlns="http://www.w3.org/2000/svg" xmlns:xlink="http://www.w3.org/1999/xlink" height="27" stroke="#000" stroke-linecap="square" stroke-miterlimit="10" viewBox="0 0 81.73 26.68" width="82"><g><g fill="#fff" stroke="none"><path d="M47.87 9.2c-.36 0-.71-.08-.96-.21l.02-.38c.23.12.54.25.92.25.6 0 .9-.3.9-.69 0-.38-.35-.6-.78-.76l-.13-.05c-.5-.19-.9-.44-.9-1.08 0-.61.47-.97 1.18-.97.37 0 .62.07.84.18l-.02.38c-.25-.12-.51-.2-.79-.2-.49 0-.83.18-.83.61 0 .38.29.56.73.73l.13.05c.56.21.93.51.93 1.1 0 .61-.44 1.05-1.25 1.05"/><path d="M49.86 9.14h.37V5.37h-.37Z" fill-rule="evenodd"/><path d="M53.28 9.14L51.51 6H51.5l.01 3.13h-.36V5.37h.38L53.32 8.5h.01l-.01-3.13h.36V9.14Z"/><path d="M55.8 9.2c-1.2 0-1.35-.93-1.35-1.94 0-.92.18-1.95 1.52-1.95.48 0 .73.12.95.22l-.02.37c-.22-.11-.51-.23-.9-.23-.78 0-1.15.46-1.15 1.3v.59c0 .96.43 1.29 1 1.29.44 0 .78-.18.78-.18V7.52h-.72V7.18H57v1.7c-.02 0-.48.32-1.2.32"/><path d="M60.26 9.14l-.35-1H58.3l-.35 1h-.37l1.34-3.77h.38l1.34 3.77ZM59.12 5.76L58.42 7.8H59.8Z"/><path d="M62.27 7.63h-.55V9.14h-.37V5.37h1c.77 0 1.23.33 1.23 1.09.01.79-.45 1.17-1.32 1.17m.07-1.92h-.61V7.29h.51c.77 0 .97-.31.97-.8 0-.54-.28-.79-.87-.79"/><path d="M65.48 9.2c-1.19 0-1.4-.84-1.4-1.95 0-1.1.25-1.94 1.45-1.94s1.4.84 1.4 1.94c0 1.11-.25 1.95-1.45 1.95m1.06-2.24c0-.81-.32-1.29-1.03-1.29s-1.05.49-1.05 1.29v.6c0 .81.32 1.29 1.03 1.29s1.05-.49 1.05-1.29Z"/><path d="M69.64 9.14l-.49-1.22c-.1-.25-.3-.38-.5-.38h-.63v1.6h-.37V5.37h1.09c.75 0 1.17.31 1.17 1.04 0 .49-.26.84-.79.96 0 0 .2.02.33.31l.62 1.43h-.43ZM68.7 5.7h-.69V7.2h.6c.62 0 .92-.3.92-.75-.01-.5-.25-.74-.82-.74"/><path d="M70.72 9.14V5.37h1.9v.32l-1.53.01v1.3h1.4v.33h-1.4V8.8h1.53v.33Z"/><path d="M47.87 15.3c-.36 0-.71-.08-.96-.21l.02-.38c.23.12.54.25.92.25.6 0 .9-.3.9-.69 0-.38-.35-.6-.78-.76l-.13-.05c-.5-.19-.9-.44-.9-1.08 0-.61.47-.97 1.18-.97.37 0 .62.07.84.18l-.02.38c-.25-.12-.51-.2-.79-.2-.49 0-.83.18-.83.61 0 .38.29.56.73.73l.13.05c.56.21.93.51.93 1.1 0 .61-.44 1.05-1.25 1.05"/><path d="M52 15.24V13.45H50.22v1.79h-.36V11.48h.36v1.64H52V11.48h.37v3.77Z"/><path d="M53.29 15.24h.37V11.48h-.37Z" fill-rule="evenodd"/><path d="M55.49 13.74h-.55v1.51h-.37V11.48h1.01c.76 0 1.23.33 1.23 1.09.01.79-.45 1.17-1.32 1.17m.07-1.92h-.61V13.4h.51c.76 0 .97-.31.97-.8 0-.54-.27-.79-.87-.79"/><path d="M58.41 13.74h-.55v1.51h-.37V11.48h1.01c.76 0 1.23.33 1.23 1.09 0 .79-.45 1.17-1.32 1.17m.06-1.92h-.61V13.4h.51c.76 0 .97-.31.97-.8 0-.54-.27-.79-.87-.79"/><path d="M60.41 15.24h.37V11.48h-.37Z" fill-rule="evenodd"/><path d="M63.84 15.24l-1.78-3.13h-.01l.01 3.13H61.7V11.48h.38l1.78 3.13h.01l-.01-3.13h.36v3.77Z"/><path d="M66.35 15.3c-1.2 0-1.35-.93-1.35-1.94 0-.92.18-1.95 1.52-1.95.48 0 .73.12.95.21l-.02.37c-.21-.11-.51-.23-.9-.23-.78 0-1.15.45-1.15 1.3v.58c0 .96.43 1.29 1 1.29.44 0 .78-.18.78-.18V13.63h-.72v-.35h1.09v1.7c-.01 0-.48.32-1.2.32"/><path d="M49.47 21.35l-.35-1H47.51l-.35 1h-.37l1.34-3.77h.38l1.34 3.77Zm-1.15-3.37l-.69 2.03h1.39Z"/><path d="M51.38 21.41c-.36 0-.7-.08-.96-.21l.02-.38c.23.12.54.25.92.25.6 0 .9-.3.9-.69 0-.38-.35-.6-.78-.76l-.13-.05c-.5-.19-.9-.44-.9-1.08 0-.61.47-.97 1.18-.97.37 0 .62.07.84.18l-.02.38c-.25-.12-.51-.2-.79-.2-.49 0-.83.18-.83.61 0 .38.29.56.73.73l.13.05c.56.22.93.51.93 1.1 0 .61-.45 1.05-1.26 1.05"/><path d="M54.18 21.41c-.36 0-.7-.08-.96-.21l.02-.38c.23.12.54.25.92.25.6 0 .9-.3.9-.69 0-.38-.35-.6-.78-.76l-.13-.05c-.5-.19-.9-.44-.9-1.08 0-.61.47-.97 1.18-.97.37 0 .62.07.84.18l-.02.38c-.25-.12-.51-.2-.79-.2-.49 0-.83.18-.83.61 0 .38.29.56.73.73l.13.05c.56.22.93.51.93 1.1 0 .61-.45 1.05-1.26 1.05"/><path d="M57.37 21.41c-1.2 0-1.4-.84-1.4-1.95 0-1.1.25-1.94 1.45-1.94s1.4.84 1.4 1.94c0 1.11-.25 1.95-1.45 1.95m1.06-2.24c0-.81-.32-1.29-1.03-1.29s-1.05.49-1.05 1.29v.6c0 .81.32 1.29 1.03 1.29s1.05-.49 1.05-1.29Z"/><path d="M60.71 21.41c-1.2 0-1.38-.93-1.38-1.94 0-.95.19-1.95 1.45-1.95.38 0 .59.1.8.19l-.02.36c-.23-.11-.47-.19-.75-.19-.71 0-1.09.45-1.09 1.29v.6c0 .91.42 1.29 1.09 1.29.3 0 .54-.12.8-.27l.02.38c-.25.13-.54.24-.92.24"/><path d="M62.25 21.35h.37V17.59h-.37Z" fill-rule="evenodd"/><path d="M65.94 21.35l-.35-1H63.98l-.35 1h-.37l1.34-3.77h.38l1.34 3.77Zm-1.14-3.37l-.69 2.03H65.5Z"/><path d="M67.88 17.92v3.43h-.36V17.92H66.43v-.33h2.52v.33Z"/><path d="M69.54 21.35h.37V17.59h-.37Z" fill-rule="evenodd"/><path d="M72.03 21.41c-1.19 0-1.4-.84-1.4-1.95 0-1.1.25-1.94 1.45-1.94s1.4.84 1.4 1.94c0 1.11-.25 1.95-1.45 1.95m1.06-2.24c0-.81-.32-1.29-1.03-1.29s-1.05.49-1.05 1.29v.6c0 .81.32 1.29 1.03 1.29s1.05-.49 1.05-1.29Z"/><path d="M76.33 21.35l-1.77-3.13h-.01l.01 3.13H74.2V17.59h.38l1.78 3.13h.01l-.01-3.13h.36v3.77Z"/><path d="M12.22 9.98c-.08-.54-.21-1.57-1.48-1.57-.72 0-1.41.5-1.41 1.26 0 .96.43 1.15 3.32 2.45 3 1.35 3.77 2.74 3.77 4.61 0 2.34-1.35 4.94-5.61 4.94-4.65 0-5.81-3.05-5.81-5.1v-.51H9.09c0 1.86 1.15 2.2 1.67 2.2.98 0 1.57-.8 1.57-1.54 0-1.06-.67-1.33-3.16-2.37-1.14-.45-3.93-1.59-3.93-4.61S8.18 5 10.87 5c1.59 0 3.3.59 4.35 1.83.96 1.17 1.03 2.26 1.06 3.18H12.22Z"/><path d="M24.68 9.98c-.08-.54-.21-1.57-1.48-1.57-.72 0-1.41.5-1.41 1.26 0 .96.43 1.15 3.32 2.45 3 1.35 3.77 2.74 3.77 4.61 0 2.34-1.35 4.94-5.61 4.94-4.65 0-5.81-3.05-5.81-5.1v-.51h4.09c0 1.86 1.15 2.2 1.67 2.2.98 0 1.57-.8 1.57-1.54 0-1.06-.67-1.33-3.16-2.37-1.14-.45-3.93-1.59-3.93-4.61S20.64 5 23.32 5c1.59 0 3.3.59 4.35 1.83.96 1.17 1.03 2.26 1.06 3.18H24.68Z"/><path d="M28.87 21.38h5.45l2.59-5.19-2.73-5.45Z"/><path d="M44.96 21.38L39.64 10.74l-2.73 5.45 2.59 5.19Z" fill="#484848"/><path d="M36.92 5.29l-2.73 5.45 2.73 5.45 2.73-5.45Z"/><path d="M34.19 10.74h5.45l-2.73 5.45Z" fill="#B3B3B3"/></g></g></svg>