<?xml version="1.0" encoding="UTF-8"?><!DOCTYPE svg PUBLIC "-//W3C//DTD SVG 1.0//EN" "http://www.w3.org/TR/2001/REC-SVG-20010904/DTD/svg10.dtd" []><svg xmlns="http://www.w3.org/2000/svg" xmlns:xlink="http://www.w3.org/1999/xlink" height="23" stroke="#000" stroke-linecap="square" stroke-miterlimit="10" viewBox="0 0 271.78 23.48" width="272"><defs><clipPath id="a"><path d="M0 0V23.48H271.78V0Z"/></clipPath><clipPath clip-path="url(#a)" id="b"><path d="M-160.44 283.03H799.68V-257.09H-160.44Z"/></clipPath></defs><g><g fill="#FF00A4" stroke="none"><path clip-path="url(#b)" d="M15.16 18.27h-.81c-.07-.15-.1-.79-.12-2-.44.86-1.4 2.14-3.93 2.14-3.5 0-5.3-2.75-5.3-6.34 0-3.76 1.92-6.59 5.5-6.59 2.64 0 4.39 1.43 4.77 3.75h-.98c-.52-1.76-1.71-2.82-3.82-2.82-3.04 0-4.42 2.44-4.42 5.61 0 2.86 1.33 5.46 4.3 5.46 3.03 0 3.88-2.04 3.88-4.8v-.14H10.31v-.93h4.85Z"/><path clip-path="url(#b)" d="M23.35 13.68H21.65c-1.93 0-3.11.52-3.11 2.06 0 1.12.78 1.89 1.99 1.89 2.47 0 2.82-1.7 2.82-3.63Zm.89 2.86c0 .79.07 1.44.12 1.73h-.87c-.07-.21-.12-.61-.16-1.38-.3.66-1.06 1.59-2.85 1.59-2.02 0-2.9-1.35-2.9-2.71 0-1.98 1.49-2.89 4.1-2.89h1.65v-.91c0-.89-.26-2.09-2.23-2.09-1.74 0-2.01.94-2.2 1.68H18c.11-1.01.71-2.53 3.12-2.53 2 0 3.12.87 3.12 2.85Z"/><path clip-path="url(#b)" d="M27.27 18.27h.91V5h-.91Z" fill-rule="evenodd"/><path clip-path="url(#b)" d="M36.19 13.68H34.5c-1.93 0-3.11.52-3.11 2.06 0 1.12.78 1.89 1.99 1.89 2.47 0 2.82-1.7 2.82-3.63Zm.89 2.86c0 .79.07 1.44.12 1.73h-.87c-.07-.21-.12-.61-.16-1.38-.3.66-1.06 1.59-2.85 1.59-2.02 0-2.9-1.35-2.9-2.71 0-1.98 1.49-2.89 4.1-2.89h1.65v-.91c0-.89-.26-2.09-2.23-2.09-1.74 0-2 .94-2.19 1.68h-.9c.11-1.01.71-2.53 3.12-2.53 2 0 3.12.87 3.12 2.85Z"/><path clip-path="url(#b)" d="M46.08 17.34H49c3.2 0 4.78-2.33 4.78-5.43 0-2.76-1.42-5.32-4.78-5.32H46.08ZM45.1 5.67h4.06c3.35 0 5.67 2.41 5.67 6.19 0 3.76-2.26 6.41-5.69 6.41H45.1Z"/><path clip-path="url(#b)" d="M57.55 9.26h.91v9.01h-.91Zm0-4.26h.91V6.76h-.91Z"/><path clip-path="url(#b)" d="M61.47 11.53c0-.79 0-1.55-.02-2.27h.89c.04.29.05 1.45.04 1.7.38-.91 1.1-1.92 2.89-1.92 1.56 0 2.93.91 2.93 3.39v5.84h-.91V12.58c0-1.59-.64-2.63-2.15-2.63-2.05 0-2.76 1.76-2.76 3.71v4.6h-.91Z"/><path clip-path="url(#b)" d="M71.22 11.53c0-.79 0-1.55-.02-2.27h.89c.04.29.05 1.45.04 1.7.38-.91 1.1-1.92 2.89-1.92 1.56 0 2.93.91 2.93 3.39v5.84h-.91V12.58c0-1.59-.64-2.63-2.14-2.63-2.05 0-2.76 1.76-2.76 3.71v4.6h-.91Z"/><path clip-path="url(#b)" d="M86.67 13.07c-.02-1.77-.95-3.16-2.64-3.16-1.78 0-2.59 1.29-2.78 3.16Zm-5.48.81c.02 2.3 1.14 3.73 2.8 3.73 1.62 0 2.18-.94 2.49-1.68h.92c-.36 1.19-1.29 2.55-3.45 2.55-2.65 0-3.69-2.36-3.69-4.65 0-2.58 1.24-4.8 3.79-4.8 2.69 0 3.55 2.39 3.55 4.1 0 .25 0 .5-.02.74Z"/><path clip-path="url(#b)" d="M89.9 11.71c0-1.5-.02-2.15-.02-2.45h.89c.02.29.04.87.04 2.01.5-1.34 1.61-2.15 3.03-2.23v1.01c-1.81.12-3.03 1.4-3.03 3.55v4.67H89.9Z"/><path clip-path="url(#b)" d="M95.87 15.78c.29 1.16 1.09 1.86 2.46 1.86 1.54 0 2.16-.73 2.16-1.73 0-1.02-.42-1.52-2.35-2-2.26-.56-2.82-1.27-2.82-2.46 0-1.25.91-2.4 2.89-2.4s2.93 1.25 3.07 2.53h-.9c-.15-.75-.72-1.68-2.2-1.68-1.5 0-1.93.77-1.93 1.48 0 .82.42 1.23 2.13 1.66 2.47.61 3.08 1.45 3.08 2.8 0 1.64-1.29 2.65-3.14 2.65-2 0-3.12-1.09-3.36-2.71Z"/><path clip-path="url(#b)" d="M118.71 10.17l-3.04 4.85c-1.48 2.35-2.54 3.42-4.51 3.42-2 0-3.17-1.64-3.17-3.21 0-1.54.69-2.7 3.26-4.14 1.77-1.17 2.44-1.68 2.44-2.83 0-.98-.6-1.93-1.76-1.93-1.09 0-1.85.7-1.85 2 0 .81.54 1.56 1.58 2.58l7.22 7.35h-1.35l-6.58-6.71c-1.12-1.11-1.79-1.94-1.79-3.21 0-1.43.93-2.86 2.8-2.86 1.58 0 2.66 1.23 2.66 2.78 0 1.23-.66 2.03-2.8 3.39-2.44 1.42-2.86 2.31-2.86 3.5 0 1.29 1.07 2.38 2.2 2.38 1.41 0 2.34-.51 3.91-3.09l2.59-4.27Z"/><path clip-path="url(#b)" d="M132.27 13.01c-1.35-3.72-2.04-5.52-2.29-6.37h-.02c-.3.96-1.08 3.19-2.17 6.37Zm-4.81.93l-1.54 4.33h-.99l4.47-12.6h1.16l4.66 12.6h-1.07l-1.57-4.33Z"/><path clip-path="url(#b)" d="M136.67 9.26c1.28 4.63 2.02 7.28 2.16 8.08h.02c.14-.73 1-3.52 2.35-8.08h.97c1.61 5.54 2.09 7.14 2.25 7.85h.02c.24-.99.64-2.34 2.23-7.85h.96l-2.75 9.01h-.99c-.94-3.2-2.05-7.06-2.23-7.89h-.02c-.17.89-1.15 4.09-2.28 7.89h-1.08l-2.56-9.01Z"/><path clip-path="url(#b)" d="M154.58 13.68h-1.69c-1.92 0-3.11.52-3.11 2.06 0 1.12.78 1.89 1.99 1.89 2.47 0 2.82-1.7 2.82-3.63Zm.89 2.86c0 .79.07 1.44.12 1.73h-.87c-.07-.21-.12-.61-.16-1.38-.3.66-1.06 1.59-2.85 1.59-2.03 0-2.9-1.35-2.9-2.71 0-1.98 1.48-2.89 4.1-2.89h1.65v-.91c0-.89-.26-2.09-2.23-2.09-1.74 0-2.01.94-2.2 1.68h-.9c.11-1.01.71-2.53 3.12-2.53 2 0 3.11.87 3.11 2.85Z"/><path clip-path="url(#b)" d="M158.51 11.71c0-1.5-.02-2.15-.02-2.45h.89c.02.29.04.87.04 2.01.5-1.34 1.62-2.15 3.03-2.23v1.01c-1.81.12-3.03 1.4-3.03 3.55v4.67h-.91Z"/><path clip-path="url(#b)" d="M164.49 13.83c0 2.45 1.23 3.78 2.72 3.78 2.29 0 2.9-1.63 2.9-4.06 0-2.31-.53-3.64-2.75-3.64-1.72 0-2.87 1.41-2.87 3.92M170.99 5V15.67c0 .86 0 1.69.02 2.59h-.87c-.04-.22-.05-1.06-.05-1.5-.44 1.09-1.41 1.72-2.92 1.72-2.27 0-3.63-1.91-3.63-4.61 0-2.77 1.48-4.83 3.86-4.83 1.73 0 2.43.77 2.69 1.34V5Z"/><path clip-path="url(#b)" d="M188.21 14.89c-.57 2.01-2.01 3.52-4.6 3.52-3.51 0-5.36-2.88-5.36-6.42 0-3.4 1.81-6.5 5.38-6.5 2.64 0 4.19 1.52 4.59 3.63h-.98c-.55-1.62-1.57-2.7-3.67-2.7-3.01 0-4.27 2.84-4.27 5.55 0 2.69 1.24 5.52 4.35 5.52 1.98 0 2.98-1.07 3.58-2.6Z"/><path clip-path="url(#b)" d="M196.4 13.07c-.02-1.77-.95-3.16-2.65-3.16-1.78 0-2.59 1.29-2.78 3.16Zm-5.48.81c.02 2.3 1.14 3.73 2.8 3.73 1.62 0 2.18-.94 2.49-1.68h.92c-.36 1.19-1.29 2.55-3.45 2.55-2.65 0-3.69-2.36-3.69-4.65 0-2.58 1.24-4.8 3.79-4.8 2.69 0 3.55 2.39 3.55 4.1 0 .25 0 .5-.02.74Z"/><path clip-path="url(#b)" d="M199.63 11.71c0-1.5-.02-2.15-.02-2.45h.89c.02.29.04.87.04 2.01.5-1.34 1.61-2.15 3.03-2.23v1.01c-1.81.12-3.03 1.4-3.03 3.55v4.67h-.91Z"/><path clip-path="url(#b)" d="M211.06 13.07c-.02-1.77-.95-3.16-2.65-3.16-1.78 0-2.59 1.29-2.78 3.16Zm-5.48.81c.02 2.3 1.14 3.73 2.8 3.73 1.62 0 2.18-.94 2.49-1.68h.92c-.36 1.19-1.29 2.55-3.45 2.55-2.66 0-3.69-2.36-3.69-4.65 0-2.58 1.24-4.8 3.79-4.8 2.69 0 3.55 2.39 3.55 4.1 0 .25 0 .5-.02.74Z"/><path clip-path="url(#b)" d="M214.29 11.58c0-.77 0-1.62-.02-2.33h.89c.02.3.05 1.07.04 1.59.37-.9 1.17-1.81 2.61-1.81 1.22 0 2.17.63 2.52 1.77.44-.93 1.31-1.77 2.84-1.77 1.35 0 2.74.8 2.74 3.3v5.93H225V12.45c0-1.2-.42-2.5-2.02-2.5-1.68 0-2.43 1.39-2.43 3.13v5.19h-.89v-5.8c0-1.31-.38-2.52-1.97-2.52-1.68 0-2.49 1.53-2.49 3.36v4.96h-.91Z"/><path clip-path="url(#b)" d="M229.2 13.76c0 2.14 1.11 3.85 2.94 3.85 1.87 0 2.92-1.59 2.92-3.85 0-2.12-1.04-3.85-2.96-3.85-1.97 0-2.9 1.69-2.9 3.85m6.82-.02c0 2.51-1.35 4.74-3.95 4.74-2.36 0-3.83-2-3.83-4.72 0-2.58 1.38-4.72 3.92-4.72 2.32 0 3.86 1.87 3.86 4.7"/><path clip-path="url(#b)" d="M238.34 11.53c0-.79 0-1.55-.02-2.27h.89c.04.29.05 1.45.04 1.7.38-.91 1.1-1.92 2.89-1.92 1.56 0 2.93.91 2.93 3.39v5.84h-.91V12.58c0-1.59-.64-2.63-2.14-2.63-2.05 0-2.76 1.76-2.76 3.71v4.6h-.91Z"/><path clip-path="url(#b)" d="M248.09 9.26h.91v9.01h-.91Zm0-4.26h.91V6.76h-.91Z"/><path clip-path="url(#b)" d="M257.72 13.07c-.02-1.77-.95-3.16-2.64-3.16-1.78 0-2.59 1.29-2.78 3.16Zm-5.48.81c.02 2.3 1.14 3.73 2.8 3.73 1.62 0 2.18-.94 2.49-1.68h.92c-.36 1.19-1.29 2.55-3.45 2.55-2.65 0-3.69-2.36-3.69-4.65 0-2.58 1.24-4.8 3.79-4.8 2.69 0 3.55 2.39 3.55 4.1 0 .25 0 .5-.02.74Z"/><path clip-path="url(#b)" d="M261.2 15.78c.29 1.16 1.09 1.86 2.46 1.86 1.54 0 2.16-.73 2.16-1.73 0-1.02-.42-1.52-2.35-2-2.26-.56-2.82-1.27-2.82-2.46 0-1.25.91-2.4 2.89-2.4s2.93 1.25 3.06 2.53h-.9c-.15-.75-.72-1.68-2.2-1.68-1.5 0-1.93.77-1.93 1.48 0 .82.41 1.23 2.13 1.66 2.47.61 3.08 1.45 3.08 2.8 0 1.64-1.29 2.65-3.14 2.65-2 0-3.12-1.09-3.36-2.71Z"/></g></g></svg>