<?xml version="1.0" encoding="UTF-8"?><!DOCTYPE svg PUBLIC "-//W3C//DTD SVG 1.0//EN" "http://www.w3.org/TR/2001/REC-SVG-20010904/DTD/svg10.dtd" []><svg xmlns="http://www.w3.org/2000/svg" xmlns:xlink="http://www.w3.org/1999/xlink" height="105" stroke="#000" stroke-linecap="square" stroke-miterlimit="10" viewBox="0 0 279.58 104.57" width="280"><defs><clipPath id="a"><path d="M0 0V104.57H279.58V0Z"/></clipPath><clipPath clip-path="url(#a)" id="b"><path d="M-62.39 354.01H897.73V-186.11H-62.39Z"/></clipPath><clipPath clip-path="url(#b)" id="c"><path d="M-62.38 353.95H897.63v-540H-62.38Z"/></clipPath></defs><g><g fill="#fff" stroke="none"><path clip-path="url(#c)" d="M13.95 24.4h6.83c4.14 0 7.07-1.59 7.07-5.82 0-4.27-3.09-5.86-6.88-5.86H13.95ZM5 5.6H22.11c8.79 0 14.75 4.95 14.75 12.81 0 8.98-6.8 13.11-14.96 13.11H13.95V46.96H5Z"/><path clip-path="url(#c)" d="M52.92 23.29h7.5c4.9 0 6.79-1.86 6.79-5.32 0-3.36-2.2-5.25-6.57-5.25H52.92Zm0 7.12V46.96H44.18V5.6H62.36c9.02 0 13.87 4.97 13.87 11.36 0 5.55-3.02 8.56-6.01 9.79 2.05.76 5.14 2.89 5.14 10.29v2.04c0 2.78.02 5.95.59 7.89H67.48c-.73-1.8-.86-4.9-.86-9.29v-.61c0-4.52-1.14-6.66-7.81-6.66Z"/><path clip-path="url(#c)" d="M91.93 26.1c0 8.08 3.54 14.18 10.88 14.18 7.96 0 10.77-6.66 10.77-14.03 0-7.83-3.21-13.98-10.92-13.98-7.47 0-10.73 5.77-10.73 13.82m30.89.04c0 11.51-6.91 21.42-20.35 21.42-12.98 0-19.78-9.43-19.78-21.28C82.69 14.24 90.2 5 103.05 5c12.1 0 19.77 8.48 19.77 21.14"/><path clip-path="url(#c)" d="M130.56 35.27h16.7V27.79h-16.7Z" fill-rule="evenodd"/><path clip-path="url(#c)" d="M13.94 91.74h6.71c7.93 0 11.44-5.9 11.44-13.95 0-6.76-3.28-12.96-11.38-12.96H13.94ZM5 57.6H21.4c12.05 0 19.92 7.93 19.92 20.16 0 12.06-7.64 21.2-20.3 21.2H5Z"/><path clip-path="url(#c)" d="M58.22 57.6V82.25c0 7.94 4.08 10.29 8.54 10.29 5.12 0 8.33-2.78 8.33-10.29V57.6h8.95V81.8c0 14.14-8.28 17.75-17.4 17.75-9.34 0-17.38-3.76-17.38-17.58V57.6Z"/><path clip-path="url(#c)" d="M129.03 86.22c-1.66 7.72-7.48 13.34-17.84 13.34-13.12 0-19.32-9.28-19.32-21.05 0-11.34 6.4-21.5 19.75-21.5 11.01 0 16.35 6.47 17.36 13.38h-8.94c-.86-3.19-3.08-6.36-8.71-6.36-7.38 0-10.22 6.63-10.22 14.16 0 6.99 2.47 14.36 10.46 14.36 5.84 0 7.68-3.91 8.46-6.32Z"/><path clip-path="url(#c)" d="M145.62 64.93H133.05V57.6h34.04v7.33H154.57V98.97h-8.95Z"/><path clip-path="url(#c)" d="M173.24 98.97h8.94V57.6h-8.94Z" fill-rule="evenodd"/><path clip-path="url(#c)" d="M199.81 78.1c0 8.07 3.54 14.18 10.88 14.18 7.96 0 10.77-6.66 10.77-14.03 0-7.83-3.21-13.98-10.92-13.98-7.47 0-10.73 5.77-10.73 13.82m30.89.04c0 11.51-6.91 21.42-20.35 21.42-12.98 0-19.78-9.43-19.78-21.28 0-12.04 7.51-21.28 20.35-21.28 12.1 0 19.77 8.48 19.77 21.14"/><path clip-path="url(#c)" d="M239.12 98.97V57.6H250.2c5.17 9.29 14.72 26.04 16.62 30.54h.11c-.47-4.32-.46-11.5-.46-18.29V57.6h8.11V98.97H264.07c-4.44-8.08-15.03-27.32-17.07-32.1h-.11c.3 3.62.4 12.12.4 19.52V98.97Z"/></g></g></svg>