<?xml version="1.0" encoding="UTF-8"?><!DOCTYPE svg PUBLIC "-//W3C//DTD SVG 1.0//EN" "http://www.w3.org/TR/2001/REC-SVG-20010904/DTD/svg10.dtd" []><svg xmlns="http://www.w3.org/2000/svg" xmlns:xlink="http://www.w3.org/1999/xlink" height="34" stroke="#000" stroke-linecap="square" stroke-miterlimit="10" viewBox="0 0 160.28 33.52" width="160"><g><g fill="#FF00A4" stroke="none"><path d="M6.56 5.45h4.91L11.2 6.72H7.76L7.38 8.65h3.21l-.27 1.26H7.12l-.63 3.12H5Z"/><path d="M15.86 11.51c-.11.51-.21 1.06-.29 1.52H14.16c.01-.16.07-.58.12-.79-.41.62-1.01.9-1.74.9-1.02 0-1.61-.71-1.35-2.01l.78-3.79h1.44l-.74 3.6c-.12.59-.03.98.58.98.63 0 1.18-.51 1.44-1.78l.58-2.79h1.45Z"/><path d="M17.04 13.03L18.68 5h1.45l-1.64 8.03Z"/><path d="M19.97 13.03L21.61 5h1.45l-1.64 8.03Z"/><path d="M27.47 13.03l-.98-7.59h1.49l.38 3.5c.12 1.07.19 2.24.2 2.69h.02c.29-.71.78-1.69 1.35-2.75l1.85-3.44h1.55l-4.16 7.59Z"/><path d="M35.97 10.47c-.36 0-.67.03-.95.07-.81.12-1.13.4-1.13.88 0 .33.21.58.67.58 1 0 1.25-.84 1.39-1.44Zm1.2 1.16c-.12.59-.24 1.23-.25 1.39H35.52c.01-.16.05-.46.08-.64-.28.36-.64.75-1.67.75-1.09 0-1.54-.79-1.54-1.46 0-1.59 1.34-2.01 2.56-2.15.46-.04.89-.04 1.23-.06l.05-.27c.08-.41.08-.95-.7-.95-.69 0-.82.39-.94.66H33.11c.21-.91.82-1.7 2.53-1.7 1.34 0 2.33.57 2.02 2.07Z"/><path d="M38.39 13.03L40.03 5h1.45l-1.64 8.03Z"/><path d="M46.33 11.51c-.11.51-.21 1.06-.29 1.52H44.63c.01-.16.07-.58.11-.79-.41.62-1.01.9-1.74.9-1.02 0-1.61-.71-1.35-2.01l.78-3.79h1.44l-.74 3.6c-.12.59-.03.98.58.98.63 0 1.18-.51 1.44-1.78l.58-2.79h1.45Z"/><path d="M51.51 9.53c.02-.11.02-.19.02-.25 0-.5-.21-.92-.85-.92-.66 0-1.07.44-1.26 1.18Zm-2.28 1c-.02.12-.03.22-.03.34 0 .6.22 1.12.87 1.12.59 0 .84-.33 1.03-.69H52.6c-.31.84-1.01 1.85-2.66 1.85-1.48 0-2.21-.96-2.21-2.34 0-1.5.8-3.58 2.99-3.58 1.62 0 2.19 1.02 2.19 2.19 0 .46-.06.79-.15 1.11Z"/><path d="M62.7 10.66c-.51 1.58-1.59 2.48-3.37 2.48-1.8 0-2.76-1.15-2.76-3.06 0-1.98 1.1-4.74 3.95-4.74 1.65 0 2.66.91 2.71 2.51H61.65c-.03-.63-.29-1.27-1.3-1.27-1.45 0-2.17 1.93-2.17 3.49 0 1.03.33 1.83 1.33 1.83.86 0 1.31-.51 1.62-1.24Z"/><path d="M66.38 5l-.62 3.06c.33-.42.81-.83 1.66-.83.97 0 1.71.56 1.39 2.16l-.74 3.64H66.63l.69-3.43c.15-.74.01-1.12-.63-1.12-.72 0-1.13.55-1.29 1.33l-.66 3.22H63.29L64.94 5Z"/><path d="M73.1 10.47c-.36 0-.67.03-.95.07-.81.12-1.13.4-1.13.88 0 .33.21.58.67.58 1 0 1.25-.84 1.39-1.44Zm1.2 1.16c-.12.59-.24 1.23-.25 1.39H72.64c.01-.16.05-.46.08-.64-.28.36-.64.75-1.67.75-1.09 0-1.54-.79-1.54-1.46 0-1.59 1.34-2.01 2.56-2.15.46-.04.89-.04 1.23-.06l.05-.27c.08-.41.08-.95-.7-.95-.69 0-.81.39-.94.66H70.24c.21-.91.82-1.7 2.53-1.7 1.34 0 2.33.57 2.02 2.07Z"/><path d="M77.15 5H78.6l-.29 1.41H76.87Zm-.48 2.34h1.45l-1.17 5.69H75.51Z"/><path d="M79.31 8.78c.1-.48.2-.96.28-1.44H81c-.01.16-.08.57-.11.71.26-.34.74-.82 1.66-.82 1.08 0 1.71.68 1.36 2.36l-.71 3.44H81.78l.7-3.46c.14-.64 0-1.1-.62-1.1-.71 0-1.15.55-1.37 1.61l-.6 2.95H78.44Z"/><path d="M88.95 10.7c.06.76.53 1.25 1.46 1.25.8 0 1.25-.3 1.25-.99 0-.59-.36-.9-1.33-1.25-1.5-.53-2.05-1.15-2.05-2.1 0-1.22.84-2.27 2.7-2.27 1.7 0 2.63.91 2.66 2.24H92.12c-.03-.46-.23-1.03-1.2-1.03-.62 0-1.08.29-1.08.88 0 .42.23.69 1.18 1.03 1.49.54 2.23 1.15 2.23 2.3 0 1.21-.71 2.38-2.97 2.38-1.83 0-2.8-.96-2.84-2.44Z"/><path d="M98.92 11.51c-.11.51-.21 1.06-.29 1.52H97.22c.01-.16.07-.58.12-.79-.41.62-1.01.9-1.74.9-1.02 0-1.61-.71-1.35-2.01l.78-3.79h1.44l-.74 3.6c-.12.59-.03.98.58.98.63 0 1.18-.51 1.44-1.78l.58-2.79h1.45Z"/><path d="M101.51 11.27c.04.49.35.76.96.76.57 0 .79-.27.79-.64 0-.36-.29-.54-.98-.77-1.29-.41-1.69-.87-1.69-1.58 0-1.03.78-1.81 2.24-1.81 1.53 0 2.22.8 2.18 1.71h-1.47c-.02-.31-.17-.61-.79-.61-.36 0-.72.12-.72.52 0 .31.29.42.97.64 1.29.42 1.74.94 1.74 1.73 0 1.31-1.14 1.91-2.45 1.91-1.47 0-2.32-.68-2.26-1.87Z"/><path d="M105.91 7.34h.82l.32-1.54h1.44l-.31 1.54h1.04l-.25 1.14h-1.04l-.58 2.87c-.07.35-.04.59.39.59.17 0 .31-.01.47-.04L108 12.98c-.32.11-.68.11-.98.11-1.15 0-1.33-.68-1.13-1.68l.59-2.93h-.82Z"/><path d="M112.68 10.47c-.36 0-.67.03-.95.07-.81.12-1.13.4-1.13.88 0 .33.21.58.67.58 1 0 1.25-.84 1.39-1.44Zm1.2 1.16c-.12.59-.24 1.23-.25 1.39h-1.41c.01-.16.05-.46.08-.64-.28.36-.64.75-1.67.75-1.09 0-1.54-.79-1.54-1.46 0-1.59 1.34-2.01 2.56-2.15.46-.04.89-.04 1.23-.06l.05-.27c.08-.41.08-.95-.7-.95-.69 0-.81.39-.94.66h-1.48c.21-.91.82-1.7 2.54-1.7 1.34 0 2.33.57 2.02 2.07Z"/><path d="M116.74 5h1.45l-.29 1.41h-1.45Zm-.48 2.34h1.45l-1.17 5.69h-1.45Z"/><path d="M118.89 8.78c.1-.48.2-.96.28-1.44h1.42c-.01.16-.08.57-.11.71.26-.34.74-.82 1.66-.82 1.08 0 1.71.68 1.36 2.36l-.7 3.44h-1.44l.7-3.46c.14-.64 0-1.1-.62-1.1-.71 0-1.15.55-1.37 1.61l-.6 2.95h-1.45Z"/><path d="M127.83 10.47c-.36 0-.67.03-.95.07-.81.12-1.13.4-1.13.88 0 .33.21.58.67.58 1 0 1.25-.84 1.39-1.44Zm1.2 1.16c-.12.59-.24 1.23-.25 1.39h-1.41c.01-.16.05-.46.08-.64-.27.36-.64.75-1.67.75-1.09 0-1.54-.79-1.54-1.46 0-1.59 1.34-2.01 2.56-2.15.46-.04.89-.04 1.23-.06l.05-.27c.08-.41.08-.95-.7-.95-.69 0-.81.39-.94.66h-1.48c.21-.91.82-1.7 2.53-1.7 1.34 0 2.33.57 2.02 2.07Z"/><path d="M134.6 9.53c0-.71-.3-1.07-.91-1.07-.75 0-1.26.57-1.48 1.76-.21 1.11.04 1.7.85 1.7 1.12 0 1.54-1.46 1.54-2.39M131.89 5h1.45l-.61 2.97c.34-.43.86-.74 1.61-.74 1.15 0 1.77.9 1.77 2.14 0 1.74-.93 3.78-2.97 3.78-.76 0-1.18-.3-1.35-.65-.04.16-.1.41-.14.54h-1.42c.08-.38.19-.88.31-1.46Z"/><path d="M138.32 5h1.45l-.29 1.41h-1.45Zm-.48 2.34h1.45l-1.17 5.69h-1.45Z"/><path d="M139.6 13.03L141.25 5h1.45l-1.64 8.03Z"/><path d="M144.19 5h1.45l-.29 1.41H143.9Zm-.48 2.34h1.45l-1.17 5.69h-1.45Z"/><path d="M146.07 7.34h.82l.32-1.54h1.44l-.31 1.54h1.04l-.25 1.14h-1.04l-.58 2.87c-.07.35-.04.59.39.59.17 0 .31-.01.47-.04l-.22 1.08c-.32.11-.68.11-.98.11-1.15 0-1.33-.68-1.13-1.68l.59-2.93h-.82Z"/><path d="M151.42 7.34c.2 2.43.29 3.88.31 4.48h.01c.27-.63.91-2.1 2.04-4.48h1.51l-3 5.95c-.93 1.85-1.53 2.04-2.68 2.04-.15 0-.52-.03-.73-.07l.26-1.23c.1.02.26.05.48.05.67 0 .87-.28 1.09-.69l-.73-6.03Z"/><path d="M12.81 21.74L10.6 24.35c-.99 1.16-1.57 2-3.23 2-1.42 0-2.2-.94-2.2-2.05 0-1.14.68-1.88 2.49-2.56.96-.38 1.45-.85 1.45-1.46 0-.31-.14-.67-.59-.67-.49 0-.71.4-.71.79 0 .36.12.74.58 1.18l3.87 4.64h-1.8L7.12 22.29c-.37-.48-.68-1.02-.68-1.7 0-1.15.71-2.06 2.11-2.06 1.37 0 1.89.92 1.89 1.75 0 .98-.52 1.59-2.17 2.26-1.3.53-1.61.96-1.61 1.53 0 .47.35.91.98.91.69 0 1.15-.35 2.05-1.43l1.52-1.82Z"/><path d="M20.21 23.16c-.17-1.56-.28-2.64-.32-3.33h-.01c-.34.76-.93 1.98-1.62 3.33Zm-2.53 1.27l-.91 1.8H15.19l3.96-7.59h1.9L22 26.23H20.49l-.23-1.8Z"/><path d="M23.84 21.98c.1-.48.2-.96.28-1.44h1.42c-.01.16-.08.57-.11.71.26-.34.74-.82 1.66-.82 1.09 0 1.71.68 1.36 2.36l-.7 3.44H26.31l.7-3.46c.14-.64 0-1.1-.62-1.1-.71 0-1.15.55-1.37 1.61l-.6 2.95H22.97Z"/><path d="M32.78 23.67c-.36 0-.67.03-.95.07-.81.12-1.13.4-1.13.88 0 .33.21.58.67.58 1 0 1.25-.84 1.39-1.44Zm1.2 1.16c-.12.59-.24 1.23-.25 1.39H32.32c.01-.16.05-.46.08-.64-.27.36-.64.75-1.67.75-1.09 0-1.54-.79-1.54-1.46 0-1.59 1.34-2.01 2.56-2.14.46-.04.89-.04 1.23-.06l.05-.27c.08-.41.08-.95-.7-.95-.69 0-.81.39-.94.66H29.92c.21-.92.82-1.7 2.53-1.7 1.34 0 2.33.57 2.02 2.07Z"/><path d="M35.19 26.23l1.64-8.03h1.45l-1.64 8.03Z"/><path d="M40.28 20.54c.2 2.43.29 3.88.31 4.48h.01c.28-.63.91-2.1 2.04-4.48h1.51l-3 5.95c-.93 1.85-1.53 2.04-2.68 2.04-.15 0-.52-.03-.73-.07l.26-1.23c.1.02.26.05.48.05.67 0 .87-.28 1.09-.69l-.73-6.03Z"/><path d="M44.78 20.54h.82L45.92 19h1.44l-.31 1.54h1.04l-.25 1.14H46.8l-.58 2.87c-.07.35-.04.59.39.59.17 0 .31-.01.47-.04l-.22 1.08c-.32.11-.68.11-.98.11-1.15 0-1.33-.68-1.13-1.68l.59-2.93h-.82Z"/><path d="M49.62 18.2h1.45l-.29 1.41H49.33Zm-.48 2.34h1.45l-1.17 5.69H47.97Z"/><path d="M55.94 24.37c-.3 1.07-1.04 1.97-2.67 1.97-1.39 0-2.13-.85-2.13-2.21 0-1.66.92-3.71 2.96-3.71 1.79 0 2.24 1.3 2.16 2.03H54.85c-.01-.44-.15-.88-.8-.88-1.02 0-1.42 1.59-1.42 2.49 0 .8.31 1.15.83 1.15.49 0 .82-.28 1.04-.84Z"/><path d="M58.14 24.47c.04.49.35.76.95.76.57 0 .8-.27.8-.64 0-.36-.29-.54-.98-.77-1.29-.41-1.69-.87-1.69-1.58 0-1.03.78-1.82 2.24-1.82 1.53 0 2.22.8 2.18 1.71H60.18c-.02-.31-.17-.61-.79-.61-.36 0-.72.12-.72.52 0 .31.29.42.97.64 1.29.42 1.74.94 1.74 1.73 0 1.31-1.14 1.91-2.45 1.91-1.47 0-2.32-.68-2.26-1.87Z"/></g></g></svg>