<?xml version="1.0" encoding="UTF-8"?><!DOCTYPE svg PUBLIC "-//W3C//DTD SVG 1.0//EN" "http://www.w3.org/TR/2001/REC-SVG-20010904/DTD/svg10.dtd" []><svg xmlns="http://www.w3.org/2000/svg" xmlns:xlink="http://www.w3.org/1999/xlink" height="20" stroke="#000" stroke-linecap="square" stroke-miterlimit="10" viewBox="0 0 225.1 20.32" width="225"><defs><clipPath id="a"><path d="M0 0V20.32H225.1V0Z"/></clipPath><clipPath clip-path="url(#a)" id="b"><path d="M-394.25 467.99H565.87v-540H-394.25Z"/></clipPath></defs><g><g fill="#fff" stroke="none"><path clip-path="url(#b)" d="M7.21 6.72H5l.27-1.27h5.97l-.27 1.27H8.76L7.43 13.03H5.88Z"/><path clip-path="url(#b)" d="M13.8 5l-.64 3.06c.34-.42.84-.83 1.72-.83 1.01 0 1.77.56 1.43 2.16l-.77 3.64H14.05l.72-3.43c.15-.74.01-1.12-.65-1.12-.75 0-1.17.55-1.33 1.33l-.69 3.22H10.61L12.31 5Z"/><path clip-path="url(#b)" d="M21.21 9.53c.02-.11.02-.19.02-.25 0-.5-.22-.92-.88-.92-.69 0-1.11.44-1.3 1.18Zm-2.35 1c-.02.12-.04.22-.04.34 0 .6.23 1.12.9 1.12.61 0 .88-.33 1.07-.69h1.56c-.32.84-1.05 1.85-2.75 1.85-1.53 0-2.28-.96-2.28-2.34 0-1.5.82-3.58 3.09-3.58 1.68 0 2.26 1.02 2.26 2.19 0 .46-.06.79-.15 1.11Z"/><path clip-path="url(#b)" d="M28.08 10.03c0 1.15.52 1.87 1.59 1.87 1.71 0 2.39-1.84 2.39-3.43 0-1.11-.44-1.89-1.55-1.89-1.61 0-2.42 1.85-2.42 3.45M33.64 8.5c0 2.33-1.3 4.65-4.18 4.65-2.02 0-2.99-1.33-2.99-3.05 0-2.26 1.38-4.75 4.12-4.75 2.09 0 3.05 1.4 3.05 3.16"/><path clip-path="url(#b)" d="M34.99 9.02c.12-.56.23-1.16.33-1.69h1.44c-.01.14-.06.57-.16 1.04.39-.68.91-1.14 1.9-1.14l-.31 1.5c-1.04.02-1.77.58-2.03 1.83l-.52 2.47H34.14Z"/><path clip-path="url(#b)" d="M43.63 11.17c-.31 1.07-1.07 1.97-2.76 1.97-1.44 0-2.2-.85-2.2-2.21 0-1.66.95-3.71 3.06-3.71 1.85 0 2.31 1.3 2.23 2.03H42.5c-.01-.44-.15-.89-.83-.89-1.06 0-1.47 1.59-1.47 2.49 0 .8.32 1.15.85 1.15.5 0 .84-.28 1.07-.84Z"/><path clip-path="url(#b)" d="M47.59 5l-.64 3.06c.34-.42.84-.83 1.72-.83 1.01 0 1.77.56 1.43 2.16l-.77 3.64H47.85l.72-3.43c.15-.74.01-1.12-.65-1.12-.75 0-1.17.55-1.33 1.33l-.69 3.22H44.4L46.1 5Z"/><path clip-path="url(#b)" d="M52.56 5h1.49l-.3 1.4H52.27Zm-.49 2.34h1.5l-1.2 5.69H50.87Z"/><path clip-path="url(#b)" d="M55.7 10.71c0 .76.3 1.18.92 1.18.91 0 1.39-.78 1.61-1.93.19-.97-.08-1.5-.92-1.5-1.05 0-1.61 1.23-1.61 2.25M60.72 5l-1.37 6.49c-.11.52-.23 1.03-.32 1.54H57.59c.01-.21.04-.39.09-.67-.36.51-.9.79-1.65.79-1.22 0-1.89-.87-1.89-2.26 0-1.74 1.05-3.66 3.02-3.66.81 0 1.33.33 1.46.6L59.23 5Z"/><path clip-path="url(#b)" d="M61.35 8.21c.49-.92 1.03-2.27 1.23-3.21h1.54c-.26 1.07-.9 2.42-1.5 3.21Z"/><path clip-path="url(#b)" d="M64.97 11.27c.04.49.36.76.99.76.59 0 .82-.27.82-.64 0-.36-.3-.55-1.01-.77-1.33-.41-1.74-.87-1.74-1.58 0-1.03.8-1.81 2.32-1.81 1.58 0 2.29.8 2.26 1.71H67.08c-.02-.31-.17-.61-.82-.61-.37 0-.74.12-.74.52 0 .31.3.42 1 .64 1.33.42 1.79.94 1.79 1.73 0 1.31-1.18 1.91-2.53 1.91-1.52 0-2.4-.68-2.33-1.87Z"/><path clip-path="url(#b)" d="M74.84 10.98c-.26 1.24-.75 2.16-2.41 2.16-.27 0-.77-.05-1.03-.12l.27-1.23c.18.05.42.07.67.07.68 0 .86-.38.99-.99l1.14-5.42h1.55Z"/><path clip-path="url(#b)" d="M77.81 10.8c0 .79.33 1.18.91 1.18 1.07 0 1.5-1.49 1.5-2.46 0-.74-.31-1.13-.93-1.13-1.04 0-1.48 1.48-1.48 2.41m3.96-1.13c0 1.34-.78 3.47-3.2 3.47-1.58 0-2.32-.97-2.32-2.35 0-1.53.97-3.56 3.15-3.56 1.37 0 2.36.77 2.36 2.44"/><path clip-path="url(#b)" d="M87.54 11.51c-.11.5-.22 1.06-.3 1.52H85.78c.01-.16.07-.58.12-.79-.43.62-1.04.9-1.8.9-1.06 0-1.66-.71-1.39-2.01l.81-3.79H85l-.77 3.6c-.13.59-.03.98.6.98.65 0 1.22-.51 1.49-1.78l.6-2.79h1.49Z"/><path clip-path="url(#b)" d="M89.6 9.02c.12-.56.23-1.16.33-1.69h1.44c-.01.14-.06.57-.16 1.04.39-.68.9-1.14 1.9-1.14l-.31 1.5c-1.04.02-1.77.58-2.03 1.83l-.52 2.47h-1.5Z"/><path clip-path="url(#b)" d="M93.89 8.78c.1-.48.21-.97.29-1.45h1.46c-.01.16-.08.57-.11.71.26-.34.77-.82 1.72-.82 1.12 0 1.76.68 1.41 2.36l-.73 3.44H96.44l.73-3.46c.14-.64 0-1.1-.64-1.1-.73 0-1.19.55-1.41 1.61l-.62 2.95H93Z"/><path clip-path="url(#b)" d="M103.6 9.53c.02-.11.02-.19.02-.25 0-.5-.22-.92-.88-.92-.69 0-1.1.44-1.3 1.18Zm-2.35 1c-.02.12-.04.22-.04.34 0 .6.23 1.12.9 1.12.61 0 .88-.33 1.07-.69h1.56c-.32.84-1.05 1.85-2.75 1.85-1.53 0-2.28-.96-2.28-2.34 0-1.5.82-3.58 3.09-3.58 1.67 0 2.26 1.02 2.26 2.19 0 .46-.06.79-.15 1.11Z"/><path clip-path="url(#b)" d="M107.64 7.34c.21 2.43.3 3.88.32 4.48h.01c.28-.63.94-2.1 2.1-4.48h1.56l-3.1 5.95c-.96 1.85-1.58 2.04-2.77 2.04-.15 0-.54-.03-.76-.08l.27-1.23c.1.02.27.04.5.04.69 0 .9-.28 1.13-.69l-.75-6.03Z"/><path clip-path="url(#b)" d="M112.28 9.22l.4-1.84h1.58l-.4 1.84Zm-.8 3.81l.38-1.84h1.58l-.38 1.84Z"/><path clip-path="url(#b)" d="M119.21 5.45h5.07L124 6.72h-3.55l-.4 1.94h3.31l-.27 1.26h-3.32l-.65 3.11H117.6Z"/><path clip-path="url(#b)" d="M124.47 9.02c.12-.56.23-1.16.33-1.69h1.44c-.01.14-.06.57-.16 1.04.39-.68.91-1.14 1.9-1.14l-.31 1.5c-1.04.02-1.77.58-2.03 1.83l-.52 2.47h-1.5Z"/><path clip-path="url(#b)" d="M129.7 10.8c0 .79.33 1.18.91 1.18 1.07 0 1.5-1.49 1.5-2.46 0-.74-.31-1.13-.93-1.13-1.04 0-1.48 1.48-1.48 2.41m3.96-1.13c0 1.34-.78 3.47-3.2 3.47-1.58 0-2.32-.97-2.32-2.35 0-1.53.97-3.56 3.15-3.56 1.36 0 2.36.77 2.36 2.44"/><path clip-path="url(#b)" d="M135.12 8.93c.11-.54.23-1.09.32-1.6h1.47c-.02.14-.06.44-.11.66.37-.46.8-.77 1.58-.77.81 0 1.19.36 1.3.92.4-.5.96-.92 1.86-.92.97 0 1.7.55 1.37 2.1l-.79 3.71h-1.46l.75-3.52c.11-.51.09-1.04-.62-1.04-.68 0-.99.49-1.17 1.36l-.68 3.21h-1.47l.75-3.54c.11-.55.02-1.01-.61-1.01-.67 0-1.01.47-1.21 1.43l-.66 3.12h-1.48Z"/><path clip-path="url(#b)" d="M148.06 10.7c.06.76.55 1.25 1.51 1.25.82 0 1.29-.3 1.29-.99 0-.59-.37-.9-1.38-1.25-1.54-.53-2.11-1.15-2.11-2.1 0-1.22.86-2.27 2.79-2.27 1.76 0 2.72.91 2.75 2.24h-1.57c-.03-.46-.24-1.03-1.24-1.03-.64 0-1.12.29-1.12.88 0 .42.24.69 1.22 1.03 1.54.54 2.3 1.16 2.3 2.3 0 1.21-.73 2.38-3.07 2.38-1.89 0-2.89-.96-2.93-2.44Z"/><path clip-path="url(#b)" d="M157.41 9.53c.02-.11.02-.19.02-.25 0-.5-.22-.92-.88-.92-.69 0-1.1.44-1.3 1.18Zm-2.35 1c-.02.12-.03.22-.03.34 0 .6.23 1.12.9 1.12.61 0 .88-.33 1.07-.69h1.56c-.32.84-1.05 1.85-2.75 1.85-1.53 0-2.28-.96-2.28-2.34 0-1.5.82-3.58 3.09-3.58 1.67 0 2.26 1.02 2.26 2.19 0 .46-.06.79-.15 1.11Z"/><path clip-path="url(#b)" d="M163.55 9.53c.02-.11.02-.19.02-.25 0-.5-.22-.92-.88-.92-.69 0-1.1.44-1.3 1.18Zm-2.35 1c-.02.12-.03.22-.03.34 0 .6.23 1.12.9 1.12.61 0 .88-.33 1.07-.69h1.56c-.32.84-1.05 1.85-2.75 1.85-1.53 0-2.28-.96-2.28-2.34 0-1.5.82-3.58 3.09-3.58 1.67 0 2.26 1.02 2.26 2.19 0 .46-.06.79-.15 1.11Z"/><path clip-path="url(#b)" d="M167.36 10.71c0 .76.29 1.18.92 1.18.91 0 1.39-.78 1.61-1.93.19-.97-.08-1.5-.92-1.5-1.05 0-1.61 1.23-1.61 2.25M172.38 5l-1.37 6.49c-.11.52-.23 1.03-.32 1.54h-1.45c.01-.21.04-.39.09-.67-.36.51-.9.79-1.65.79-1.22 0-1.89-.87-1.89-2.26 0-1.74 1.05-3.66 3.02-3.66.81 0 1.33.33 1.46.6l.6-2.83Z"/><path clip-path="url(#b)" d="M175.86 7.34h.84l.33-1.53h1.49l-.32 1.53h1.07l-.26 1.14h-1.07l-.6 2.87c-.07.35-.04.59.41.59.17 0 .32-.01.49-.04l-.23 1.08c-.34.11-.7.11-1.01.11-1.18 0-1.37-.68-1.16-1.68l.61-2.93h-.84Z"/><path clip-path="url(#b)" d="M180.91 10.8c0 .79.33 1.18.91 1.18 1.07 0 1.5-1.49 1.5-2.46 0-.74-.31-1.13-.93-1.13-1.04 0-1.48 1.48-1.48 2.41m3.96-1.13c0 1.34-.78 3.47-3.2 3.47-1.59 0-2.32-.97-2.32-2.35 0-1.53.97-3.56 3.15-3.56 1.36 0 2.36.77 2.36 2.44"/><path clip-path="url(#b)" d="M192.42 8.47c.77 0 1.34-.27 1.34-.99 0-.67-.51-.83-1.01-.83h-1.27l-.38 1.82Zm-2.03 3.36h1.5c.84 0 1.46-.39 1.46-1.18 0-.61-.34-.98-1.27-.98h-1.23Zm-.17-6.38h2.89c1.52 0 2.25.82 2.25 1.88 0 .84-.47 1.55-1.34 1.84.52.22.96.81.96 1.49 0 1.53-1.2 2.37-2.97 2.37h-3.4Z"/><path clip-path="url(#b)" d="M195.66 13.03L197.36 5h1.49l-1.7 8.03Z"/><path clip-path="url(#b)" d="M200.48 10.8c0 .79.33 1.18.91 1.18 1.07 0 1.5-1.49 1.5-2.46 0-.74-.31-1.13-.93-1.13-1.04 0-1.48 1.48-1.48 2.41m3.96-1.13c0 1.34-.78 3.47-3.2 3.47-1.59 0-2.32-.97-2.32-2.35 0-1.53.97-3.56 3.15-3.56 1.36 0 2.36.77 2.36 2.44"/><path clip-path="url(#b)" d="M206.83 10.8c0 .79.33 1.18.91 1.18 1.07 0 1.5-1.49 1.5-2.46 0-.74-.31-1.13-.93-1.13-1.04 0-1.48 1.48-1.48 2.41m3.96-1.13c0 1.34-.78 3.47-3.2 3.47-1.59 0-2.32-.97-2.32-2.35 0-1.53.97-3.56 3.15-3.56 1.36 0 2.36.77 2.36 2.44"/><path clip-path="url(#b)" d="M212.24 8.93c.11-.54.23-1.09.32-1.6h1.46c-.02.14-.06.44-.11.66.37-.46.8-.77 1.58-.77.81 0 1.19.36 1.3.92.4-.5.96-.92 1.86-.92.97 0 1.7.55 1.37 2.1l-.79 3.71h-1.46l.75-3.52c.11-.51.08-1.04-.62-1.04-.68 0-.99.49-1.17 1.36l-.68 3.21h-1.47l.75-3.54c.11-.55.03-1.01-.61-1.01-.67 0-1.01.47-1.21 1.43l-.66 3.12h-1.47Z"/></g></g></svg>