<?xml version="1.0" encoding="UTF-8"?><!DOCTYPE svg PUBLIC "-//W3C//DTD SVG 1.0//EN" "http://www.w3.org/TR/2001/REC-SVG-20010904/DTD/svg10.dtd" []><svg xmlns="http://www.w3.org/2000/svg" xmlns:xlink="http://www.w3.org/1999/xlink" height="64" stroke="#000" stroke-linecap="square" stroke-miterlimit="10" viewBox="0 0 164.81 63.97" width="165"><defs><clipPath id="a"><path d="M0 0V63.97H164.81V0Z"/></clipPath><clipPath clip-path="url(#a)" id="b"><path d="M-101.95 248.25H858.17V-291.87H-101.95Z"/></clipPath></defs><g><g fill="#fff" stroke="none"><path clip-path="url(#b)" d="M12.88 11.41H7.43v4.36h5.98l-.15 1.01H6.34V5.6h6.81V6.61H7.43V10.4h5.45Z"/><path clip-path="url(#b)" d="M15.46 8.72c1.17 3.51 1.99 6 2.26 7.02h.01c.18-.73 1.03-3.14 2.39-7.02h1.07l-2.91 8.06H17.1L14.35 8.72Z"/><path clip-path="url(#b)" d="M27.8 12.09c-.02-1.47-.77-2.64-2.21-2.64-1.5 0-2.17 1.08-2.33 2.64Zm-4.58.83c.01 1.88.93 3.11 2.35 3.11 1.36 0 1.81-.76 2.08-1.39h1.05c-.32 1.05-1.15 2.33-3.17 2.33-2.41 0-3.36-2.09-3.36-4.14 0-2.35 1.14-4.29 3.45-4.29 2.45 0 3.24 2.12 3.24 3.72 0 .23 0 .45-.02.66Z"/><path clip-path="url(#b)" d="M30.85 10.75c0-.7 0-1.4-.02-2.03h1.01c.03.25.05 1.2.04 1.44.33-.76.97-1.63 2.53-1.63 1.42 0 2.61.86 2.61 3.04v5.2H35.99V11.73c0-1.33-.52-2.22-1.8-2.22-1.68 0-2.3 1.39-2.3 3.09v4.18H30.85Z"/><path clip-path="url(#b)" d="M38.46 8.72h1.4V6.27H40.9V8.72h1.79v.93H40.9v5c0 .85.19 1.31.91 1.31.21 0 .52-.01.75-.08v.86c-.29.12-.71.15-1.06.15-1.1 0-1.65-.58-1.65-1.89V9.65h-1.4Z"/><path clip-path="url(#b)" d="M48.82 14.52c.25.97.92 1.55 2.07 1.55 1.28 0 1.79-.59 1.79-1.42 0-.84-.37-1.25-1.99-1.65-2.11-.53-2.59-1.19-2.59-2.27 0-1.12.81-2.2 2.68-2.2s2.71 1.15 2.82 2.29H52.58c-.13-.61-.58-1.39-1.85-1.39-1.24 0-1.6.62-1.6 1.22 0 .68.35 1.01 1.84 1.39 2.27.56 2.79 1.34 2.79 2.54 0 1.44-1.12 2.4-2.9 2.4-1.89 0-2.88-1.01-3.09-2.45Z"/><path clip-path="url(#b)" d="M54.62 8.72h1.4V6.27h1.04V8.72h1.79v.93H57.06v5c0 .85.19 1.31.91 1.31.21 0 .52-.01.75-.08v.86c-.29.12-.71.15-1.06.15-1.1 0-1.65-.58-1.65-1.89V9.65h-1.4Z"/><path clip-path="url(#b)" d="M60.42 10.91c0-1.25-.01-1.85-.02-2.19h1.02c.02.24.04.81.04 1.73.43-1.15 1.4-1.87 2.67-1.92V9.64c-1.61.08-2.67 1.11-2.67 3.08v4.06H60.42Z"/><path clip-path="url(#b)" d="M70.08 12.75H68.67c-1.65 0-2.62.46-2.62 1.73 0 .93.64 1.59 1.67 1.59 2.07 0 2.35-1.43 2.35-3.04Zm1.01 2.39c0 .72.06 1.39.11 1.63h-.99c-.06-.19-.11-.55-.14-1.15-.27.57-.93 1.35-2.49 1.35-1.82 0-2.6-1.22-2.6-2.44 0-1.79 1.34-2.6 3.67-2.6h1.41v-.76c0-.76-.23-1.74-1.86-1.74-1.45 0-1.68.77-1.84 1.41H65.35c.1-.99.69-2.32 2.88-2.31 1.84 0 2.86.79 2.86 2.59Z"/><path clip-path="url(#b)" d="M72.52 8.72h1.4V6.27h1.04V8.72h1.79v.93H74.96v5c0 .85.19 1.31.91 1.31.21 0 .52-.01.75-.08v.86c-.3.12-.71.15-1.06.15-1.1 0-1.65-.58-1.65-1.89V9.65h-1.4Z"/><path clip-path="url(#b)" d="M83.37 12.09c-.02-1.47-.77-2.64-2.21-2.64-1.5 0-2.17 1.08-2.33 2.64Zm-4.58.83c.01 1.88.93 3.11 2.35 3.11 1.36 0 1.81-.76 2.08-1.39h1.05c-.32 1.05-1.15 2.33-3.16 2.33-2.41 0-3.36-2.09-3.36-4.14 0-2.35 1.14-4.29 3.45-4.29 2.45 0 3.24 2.12 3.24 3.72 0 .23 0 .45-.02.66Z"/><path clip-path="url(#b)" d="M87.09 12.71c0 1.82.92 3.1 2.32 3.1 1.83 0 2.37-1.26 2.37-3.21 0-1.98-.55-3.11-2.33-3.11-1.63 0-2.36 1.43-2.36 3.23m5.67 3.44c0 2.58-1.07 3.99-3.46 3.99-2.18 0-2.97-1.26-3.14-2.43h1.06c.26 1.01 1.05 1.51 2.12 1.51 1.91 0 2.41-1.27 2.41-3.22v-.75c-.42.98-1.16 1.52-2.53 1.52-1.87 0-3.23-1.57-3.23-4 0-2.67 1.49-4.22 3.35-4.22 1.54 0 2.2.75 2.4 1.34.02-.42.04-.97.05-1.15h.98c0 .37-.03 1.56-.03 2.33Z"/><path clip-path="url(#b)" d="M95.57 8.72C97 12.99 97.69 15 97.93 15.84h.02c.28-.95.88-2.81 2.28-7.12h1.06L98.41 17.2c-.81 2.37-1.38 2.93-2.87 2.93-.26 0-.5-.02-.77-.05v-.99c.22.03.44.05.67.05 1.06 0 1.43-.51 1.95-2.03L94.44 8.72Z"/><path clip-path="url(#b)" d="M100.94 18.61c.78-1.66 1.04-3.07 1.09-4.02h1.05c-.12 1.38-.62 2.99-1.26 4.02Z"/><path clip-path="url(#b)" d="M115.05 12.6c0-1.89-.88-3.12-2.3-3.12-1.81 0-2.45 1.27-2.45 3.29 0 1.8.57 3.25 2.37 3.25 1.49 0 2.38-1.29 2.38-3.42M109.32 5h1.04V9.98c.36-.75 1.1-1.45 2.58-1.45 1.89 0 3.19 1.61 3.19 4.05 0 2.5-1.2 4.39-3.4 4.39-1.28 0-1.99-.51-2.38-1.37 0 .47-.02.96-.04 1.18h-1.01c.02-.91.02-1.82.02-2.73Z"/><path clip-path="url(#b)" d="M124.16 14.43c0 .79.01 1.97.01 2.35h-1c-.03-.21-.05-.72-.05-1.31-.35.92-1.13 1.5-2.44 1.5-1.21 0-2.56-.55-2.56-2.93V8.72h1.02V13.8c0 1.12.34 2.19 1.77 2.19 1.6 0 2.21-.93 2.21-3.1V8.72h1.04Z"/><path clip-path="url(#b)" d="M127.26 12.8c0 2.09 1.01 3.22 2.3 3.22 1.95 0 2.44-1.43 2.44-3.43 0-1.95-.43-3.11-2.31-3.11-1.47 0-2.42 1.21-2.42 3.32M132.99 5v9.48c0 .76 0 1.51.02 2.3h-1c-.03-.2-.05-.9-.06-1.26-.39.92-1.22 1.45-2.54 1.45-2.01 0-3.24-1.69-3.24-4.13 0-2.48 1.33-4.31 3.46-4.31 1.48 0 2.1.64 2.32 1.12V5Z"/><path clip-path="url(#b)" d="M136.08 12.71c0 1.82.92 3.1 2.32 3.1 1.83 0 2.37-1.26 2.37-3.21 0-1.98-.55-3.11-2.33-3.11-1.63 0-2.37 1.43-2.37 3.23m5.67 3.44c0 2.58-1.07 3.99-3.46 3.99-2.18 0-2.97-1.26-3.14-2.43h1.06c.26 1.01 1.05 1.51 2.12 1.51 1.91 0 2.41-1.27 2.41-3.22v-.75c-.42.98-1.16 1.52-2.53 1.52-1.87 0-3.23-1.57-3.23-4 0-2.67 1.49-4.22 3.35-4.22 1.54 0 2.2.75 2.4 1.34.02-.42.04-.97.05-1.15h.98c0 .37-.03 1.56-.03 2.33Z"/><path clip-path="url(#b)" d="M149.39 12.09c-.02-1.47-.77-2.64-2.21-2.64-1.5 0-2.17 1.08-2.33 2.64Zm-4.58.83c.01 1.88.93 3.11 2.35 3.11 1.36 0 1.81-.76 2.08-1.39h1.05c-.32 1.05-1.15 2.33-3.16 2.33-2.41 0-3.36-2.09-3.36-4.14 0-2.35 1.14-4.29 3.45-4.29 2.45 0 3.24 2.12 3.24 3.72 0 .23 0 .45-.02.66Z"/><path clip-path="url(#b)" d="M151.46 8.72h1.4V6.27h1.04V8.72h1.79v.93H153.9v5c0 .85.19 1.31.91 1.31.21 0 .52-.01.75-.08v.86c-.3.12-.71.15-1.06.15-1.1 0-1.65-.58-1.65-1.89V9.65h-1.4Z"/><path clip-path="url(#b)" d="M11.81 33.58c0-1.79-.82-3.09-2.26-3.09-1.76 0-2.48 1.15-2.48 3.23 0 2.04.57 3.3 2.37 3.3 1.53 0 2.37-1.32 2.37-3.44M7.12 36.67v4.3H6.08V31.7c0-.66 0-1.36-.01-1.97H7.08c.03.29.04.77.04 1.37.46-.9 1.28-1.56 2.65-1.56 1.82 0 3.11 1.58 3.11 4.01 0 2.89-1.5 4.43-3.39 4.43-1.32 0-2.01-.59-2.38-1.29"/><path clip-path="url(#b)" d="M14.9 37.78h1.04V26H14.9Z" fill-rule="evenodd"/><path clip-path="url(#b)" d="M22.97 33.75H21.57c-1.65 0-2.61.46-2.61 1.73 0 .93.63 1.59 1.67 1.59 2.07 0 2.35-1.43 2.35-3.04Zm1.02 2.39c0 .72.06 1.39.11 1.63H23.1c-.06-.19-.11-.55-.14-1.15-.27.57-.93 1.35-2.49 1.35-1.82 0-2.6-1.22-2.6-2.44 0-1.79 1.34-2.6 3.67-2.6h1.41v-.76c0-.76-.23-1.74-1.86-1.74-1.45 0-1.68.77-1.84 1.41H18.25c.1-.99.69-2.32 2.88-2.31 1.84 0 2.86.79 2.86 2.59Z"/><path clip-path="url(#b)" d="M26.6 31.75c0-.7 0-1.4-.02-2.03H27.6c.03.25.05 1.2.04 1.44.33-.76.97-1.63 2.53-1.63 1.42 0 2.61.86 2.61 3.04v5.2H31.74V32.73c0-1.33-.52-2.22-1.8-2.22-1.68 0-2.3 1.39-2.3 3.09v4.18H26.6Z"/><path clip-path="url(#b)" d="M35.37 31.75c0-.7 0-1.4-.02-2.03h1.01c.03.25.05 1.2.04 1.44.33-.76.97-1.63 2.53-1.63 1.42 0 2.61.86 2.61 3.04v5.2H40.51V32.73c0-1.33-.52-2.22-1.8-2.22-1.68 0-2.3 1.39-2.3 3.09v4.18H35.37Z"/><path clip-path="url(#b)" d="M44.14 29.72h1.04v8.06H44.14Zm0-3.72h1.04v1.64H44.14Z"/><path clip-path="url(#b)" d="M47.78 31.75c0-.7 0-1.4-.02-2.03h1.01c.03.25.05 1.2.04 1.44.33-.76.97-1.63 2.53-1.63 1.42 0 2.61.86 2.61 3.04v5.2H52.92V32.73c0-1.33-.52-2.22-1.8-2.22-1.68 0-2.3 1.39-2.3 3.09v4.18H47.78Z"/><path clip-path="url(#b)" d="M57.05 33.71c0 1.82.92 3.1 2.32 3.1 1.83 0 2.37-1.26 2.37-3.21 0-1.98-.55-3.11-2.33-3.11-1.63 0-2.36 1.43-2.36 3.23m5.67 3.44c0 2.58-1.07 3.99-3.46 3.99-2.18 0-2.97-1.26-3.14-2.43h1.06c.26 1.01 1.05 1.51 2.12 1.51 1.91 0 2.41-1.27 2.41-3.22v-.75c-.42.98-1.16 1.52-2.53 1.52-1.87 0-3.23-1.57-3.23-4 0-2.67 1.49-4.22 3.35-4.22 1.54 0 2.2.75 2.4 1.34.02-.42.04-.97.05-1.15h.98c0 .37-.03 1.56-.03 2.33Z"/><path clip-path="url(#b)" d="M64.24 39.61c.78-1.66 1.04-3.07 1.09-4.02h1.05c-.12 1.38-.62 2.99-1.26 4.02Z"/><path clip-path="url(#b)" d="M72.92 35.52c.25.97.92 1.55 2.07 1.55 1.28 0 1.79-.59 1.79-1.42 0-.84-.37-1.25-1.99-1.65-2.11-.53-2.59-1.19-2.59-2.27 0-1.12.81-2.2 2.68-2.2s2.71 1.15 2.82 2.29H76.68c-.13-.61-.58-1.39-1.85-1.39-1.24 0-1.6.62-1.6 1.22 0 .68.35 1.01 1.84 1.39 2.27.56 2.79 1.34 2.79 2.54 0 1.44-1.12 2.4-2.9 2.4-1.89 0-2.88-1.01-3.09-2.45Z"/><path clip-path="url(#b)" d="M85.71 35.43c0 .79.01 1.97.01 2.35h-1c-.03-.21-.05-.72-.05-1.31-.35.92-1.13 1.5-2.44 1.5-1.21 0-2.56-.55-2.56-2.93V29.72h1.02V34.8c0 1.12.34 2.19 1.77 2.19 1.6 0 2.21-.93 2.21-3.1V29.72h1.04Z"/><path clip-path="url(#b)" d="M88.5 35.52c.25.97.92 1.55 2.07 1.55 1.28 0 1.79-.59 1.79-1.42 0-.84-.37-1.25-1.99-1.65-2.11-.53-2.59-1.19-2.59-2.27 0-1.12.81-2.2 2.68-2.2s2.71 1.15 2.82 2.29H92.27c-.13-.61-.58-1.39-1.85-1.39-1.24 0-1.6.62-1.6 1.22 0 .68.35 1.01 1.84 1.39 2.27.56 2.79 1.34 2.79 2.54 0 1.44-1.12 2.4-2.9 2.4-1.89 0-2.88-1.01-3.09-2.45Z"/><path clip-path="url(#b)" d="M94.3 29.72h1.4V27.27h1.04v2.45h1.79v.93H96.74v5c0 .85.19 1.31.91 1.31.21 0 .52-.01.75-.08v.86c-.3.12-.71.15-1.06.15-1.1 0-1.65-.58-1.65-1.89V30.65H94.3Z"/><path clip-path="url(#b)" d="M104.75 33.75h-1.41c-1.65 0-2.61.46-2.61 1.73 0 .93.63 1.59 1.67 1.59 2.07 0 2.35-1.43 2.35-3.04Zm1.01 2.39c0 .72.06 1.39.11 1.63h-.99c-.06-.19-.11-.55-.13-1.15-.27.57-.93 1.35-2.49 1.35-1.82 0-2.6-1.22-2.6-2.44 0-1.79 1.34-2.6 3.67-2.6h1.41v-.76c0-.76-.23-1.74-1.86-1.74-1.45 0-1.68.77-1.84 1.41h-1.02c.1-.99.69-2.32 2.88-2.31 1.84 0 2.86.79 2.86 2.59Z"/><path clip-path="url(#b)" d="M108.38 29.72h1.04v8.06h-1.04Zm0-3.72h1.04v1.64h-1.04Z"/><path clip-path="url(#b)" d="M112.02 31.75c0-.7 0-1.4-.02-2.03h1.01c.03.25.05 1.2.04 1.44.33-.76.97-1.63 2.53-1.63 1.42 0 2.61.86 2.61 3.04v5.2h-1.04V32.73c0-1.33-.52-2.22-1.8-2.22-1.68 0-2.3 1.39-2.3 3.09v4.18h-1.04Z"/><path clip-path="url(#b)" d="M125.24 33.75h-1.41c-1.65 0-2.61.46-2.61 1.73 0 .93.63 1.59 1.67 1.59 2.07 0 2.35-1.43 2.35-3.04Zm1.01 2.39c0 .72.06 1.39.11 1.63h-.99c-.06-.19-.11-.55-.13-1.15-.27.57-.93 1.35-2.49 1.35-1.82 0-2.6-1.22-2.6-2.44 0-1.79 1.34-2.6 3.67-2.6h1.41v-.76c0-.76-.23-1.74-1.86-1.74-1.45 0-1.68.77-1.84 1.41h-1.02c.1-.99.69-2.32 2.88-2.31 1.84 0 2.86.79 2.86 2.59Z"/><path clip-path="url(#b)" d="M134.6 33.6c0-1.89-.88-3.12-2.3-3.12-1.81 0-2.45 1.27-2.45 3.29 0 1.8.57 3.25 2.37 3.25 1.49 0 2.38-1.29 2.38-3.42M128.86 26h1.04v4.98c.36-.75 1.1-1.45 2.58-1.45 1.89 0 3.19 1.61 3.19 4.05 0 2.5-1.2 4.39-3.4 4.39-1.28 0-1.99-.51-2.38-1.37 0 .47-.02.96-.04 1.18h-1.01c.02-.91.02-1.82.02-2.73Z"/><path clip-path="url(#b)" d="M137.73 29.72h1.04v8.06h-1.04Zm0-3.72h1.04v1.64h-1.04Z"/><path clip-path="url(#b)" d="M141.37 37.78h1.04V26h-1.04Z" fill-rule="evenodd"/><path clip-path="url(#b)" d="M145.01 29.72h1.04v8.06h-1.04Zm0-3.72h1.04v1.64h-1.04Z"/><path clip-path="url(#b)" d="M147.65 29.72h1.4V27.27h1.04v2.45h1.79v.93h-1.79v5c0 .85.19 1.31.92 1.31.21 0 .52-.01.75-.08v.86c-.29.12-.71.15-1.06.15-1.1 0-1.65-.58-1.65-1.89V30.65h-1.4Z"/><path clip-path="url(#b)" d="M154.1 29.72c1.43 4.26 2.12 6.27 2.36 7.12h.02c.28-.95.88-2.81 2.28-7.12h1.06l-2.87 8.48c-.81 2.37-1.38 2.93-2.87 2.93-.26 0-.5-.02-.77-.05v-.99c.22.03.44.05.67.05 1.06 0 1.43-.51 1.95-2.03l-2.95-8.39Z"/><path clip-path="url(#b)" d="M6.3 58.78V51.65H5v-.93H6.3V49.66c0-1.41.45-2.82 2.19-2.82.26 0 .62.05.81.11v.96c-.21-.06-.55-.09-.77-.09-.87 0-1.19.6-1.19 1.9v1H8.98v.93H7.34v7.12Z"/><path clip-path="url(#b)" d="M10.38 52.91c0-1.25-.01-1.85-.02-2.19h1.02c.02.24.04.81.04 1.73.43-1.15 1.4-1.87 2.67-1.92v1.11c-1.61.08-2.67 1.11-2.67 3.08v4.06H10.38Z"/><path clip-path="url(#b)" d="M20.03 54.75H18.62c-1.65 0-2.61.46-2.61 1.73 0 .93.63 1.59 1.67 1.59 2.07 0 2.35-1.43 2.35-3.04Zm1.01 2.39c0 .72.06 1.39.11 1.63h-.99c-.06-.19-.11-.55-.14-1.15-.27.57-.92 1.35-2.49 1.35-1.82 0-2.6-1.22-2.6-2.44 0-1.79 1.34-2.6 3.67-2.6h1.41v-.76c0-.76-.23-1.74-1.86-1.74-1.45 0-1.68.77-1.84 1.41H15.31c.1-.99.69-2.32 2.88-2.31 1.84 0 2.86.79 2.86 2.59Z"/><path clip-path="url(#b)" d="M23.66 52.8c0-.69 0-1.44-.02-2.08h1.01c.02.26.05.91.04 1.35.34-.77 1.04-1.54 2.31-1.54 1.1 0 1.91.57 2.21 1.53.4-.8 1.16-1.53 2.51-1.53 1.23 0 2.45.74 2.45 2.95v5.3H33.15V53.61c0-1.01-.35-2.1-1.7-2.1-1.4 0-2.02 1.14-2.02 2.64v4.63H28.41V53.64c0-1.11-.31-2.13-1.65-2.13-1.39 0-2.07 1.23-2.07 2.82v4.44H23.66Z"/><path clip-path="url(#b)" d="M41.82 54.09c-.02-1.47-.77-2.64-2.21-2.64-1.5 0-2.17 1.08-2.33 2.64Zm-4.58.83c.01 1.88.93 3.11 2.35 3.11 1.36 0 1.81-.76 2.08-1.39h1.05c-.32 1.05-1.15 2.33-3.17 2.33-2.41 0-3.36-2.09-3.36-4.14 0-2.35 1.13-4.29 3.45-4.29 2.45 0 3.24 2.12 3.24 3.72 0 .23 0 .45-.02.66Z"/><path clip-path="url(#b)" d="M45.27 50.72c1.07 3.98 1.69 6.27 1.81 7.03h.02c.13-.69.81-2.98 1.97-7.03h1.06c1.34 4.79 1.75 6.17 1.88 6.84h.02c.21-.88.54-2.08 1.88-6.84h1.07l-2.43 8.06H51.41c-.8-2.89-1.7-6.03-1.86-6.83h-.02c-.15.83-.95 3.51-1.9 6.83h-1.2l-2.28-8.06Z"/><path clip-path="url(#b)" d="M57.12 54.75c0 1.85.93 3.28 2.47 3.28 1.57 0 2.45-1.34 2.45-3.27 0-1.86-.87-3.28-2.48-3.28-1.63 0-2.44 1.39-2.44 3.28m6-.02c0 2.28-1.24 4.24-3.59 4.24-2.16 0-3.49-1.79-3.49-4.21 0-2.34 1.27-4.22 3.57-4.22 2.11 0 3.51 1.67 3.51 4.2"/><path clip-path="url(#b)" d="M65.12 52.91c0-1.25-.01-1.85-.02-2.19h1.02c.02.24.04.81.04 1.73.43-1.15 1.4-1.87 2.67-1.92v1.11c-1.61.08-2.67 1.11-2.67 3.08v4.06H65.12Z"/><path clip-path="url(#b)" d="M71.52 54.74c.69-.79 2.66-2.88 3.71-4.01H76.5L73.48 53.9l3.38 4.88H75.62l-2.87-4.19-1.24 1.23v2.96H70.48V47h1.04Z"/><path clip-path="url(#b)" d="M78.34 58.78H79.4v-2.2H78.34Z" fill-rule="evenodd"/></g></g></svg>