<?xml version="1.0" encoding="UTF-8"?><!DOCTYPE svg PUBLIC "-//W3C//DTD SVG 1.0//EN" "http://www.w3.org/TR/2001/REC-SVG-20010904/DTD/svg10.dtd" []><svg xmlns="http://www.w3.org/2000/svg" xmlns:xlink="http://www.w3.org/1999/xlink" height="20" stroke="#000" stroke-linecap="square" stroke-miterlimit="10" viewBox="0 0 162.23 20.32" width="162"><g><g fill="#FF00A4" stroke="none"><path d="M11.13 10.66c-.51 1.58-1.59 2.48-3.37 2.48-1.8 0-2.77-1.15-2.77-3.06C5 8.1 6.1 5.34 8.95 5.34c1.65 0 2.66.91 2.71 2.51H10.09c-.03-.63-.29-1.27-1.3-1.27-1.45 0-2.17 1.93-2.17 3.49 0 1.03.33 1.83 1.33 1.83.86 0 1.31-.51 1.62-1.24Z"/><path d="M13.54 10.8c0 .79.32 1.18.88 1.18 1.04 0 1.45-1.49 1.45-2.46 0-.74-.3-1.13-.9-1.13-1 0-1.43 1.48-1.43 2.41m3.83-1.13c0 1.34-.76 3.47-3.09 3.47-1.53 0-2.24-.96-2.24-2.35 0-1.53.94-3.56 3.05-3.56 1.32 0 2.29.77 2.29 2.44"/><path d="M18.79 8.93c.11-.54.22-1.09.31-1.6h1.42c-.02.13-.06.44-.11.66.36-.46.77-.77 1.53-.77.78 0 1.15.36 1.26.91.39-.5.93-.91 1.8-.91.94 0 1.64.55 1.32 2.1l-.76 3.71H24.15l.72-3.52c.1-.51.08-1.04-.6-1.04-.66 0-.96.49-1.13 1.36l-.66 3.21H21.05l.73-3.54c.11-.55.03-1.01-.59-1.01-.65 0-.98.47-1.17 1.43l-.64 3.12H17.95Z"/><path d="M31.47 9.61c0-.82-.36-1.16-.92-1.16-.79 0-1.31.75-1.51 1.75-.18.94-.04 1.71.87 1.71 1.08 0 1.56-1.34 1.56-2.3m-2.86 2.89l-.55 2.7H26.62L27.9 8.99c.16-.77.26-1.28.31-1.65h1.44c0 .12-.07.5-.12.76.3-.43.83-.87 1.68-.87 1.11 0 1.77.87 1.77 2.23 0 1.78-1.05 3.68-3.02 3.68-.68 0-1.16-.3-1.35-.63"/><path d="M34.38 9.02c.11-.56.22-1.16.32-1.69h1.4c-.01.14-.06.57-.16 1.04.38-.68.88-1.15 1.84-1.15l-.3 1.5c-1.01.01-1.71.59-1.97 1.83L35 13.03H33.55Z"/><path d="M41.7 9.52c.02-.11.02-.19.02-.25 0-.5-.21-.92-.85-.92-.66 0-1.07.44-1.26 1.18Zm-2.28 1c-.02.12-.03.22-.03.34 0 .6.22 1.12.87 1.12.59 0 .84-.33 1.03-.69H42.8c-.31.84-1.01 1.85-2.66 1.85-1.48 0-2.21-.96-2.21-2.34 0-1.5.8-3.58 2.99-3.58 1.62 0 2.19 1.02 2.19 2.19 0 .46-.06.79-.15 1.11Z"/><path d="M46.71 5l-.62 3.06c.33-.42.81-.83 1.66-.83.97 0 1.71.56 1.39 2.16l-.74 3.64H46.95l.69-3.43c.15-.74.02-1.12-.63-1.12-.72 0-1.13.55-1.29 1.33l-.66 3.22H43.61L45.26 5Z"/><path d="M53.88 9.52c.02-.11.02-.19.02-.25 0-.5-.21-.92-.85-.92-.66 0-1.07.44-1.26 1.18Zm-2.28 1c-.02.12-.04.22-.04.34 0 .6.22 1.12.87 1.12.59 0 .85-.33 1.03-.69h1.51c-.31.84-1.01 1.85-2.66 1.85-1.48 0-2.21-.96-2.21-2.34 0-1.5.79-3.58 2.99-3.58 1.62 0 2.19 1.02 2.19 2.19 0 .46-.06.79-.15 1.11Z"/><path d="M56.72 8.78c.1-.48.2-.96.28-1.44h1.42c-.01.16-.08.57-.11.71.26-.34.74-.82 1.66-.82 1.08 0 1.71.68 1.36 2.36l-.7 3.44H59.19l.7-3.46c.14-.64 0-1.1-.62-1.1-.71 0-1.15.55-1.37 1.61l-.6 2.95H55.85Z"/><path d="M63.51 11.27c.04.49.35.76.95.76.57 0 .79-.27.79-.64 0-.36-.29-.54-.98-.77-1.29-.41-1.69-.87-1.69-1.58 0-1.03.78-1.81 2.24-1.81 1.54 0 2.22.8 2.18 1.71H65.55c-.02-.31-.17-.61-.79-.61-.35 0-.72.12-.72.52 0 .31.29.42.97.64 1.28.42 1.73.94 1.73 1.73 0 1.31-1.14 1.91-2.45 1.91-1.47 0-2.32-.68-2.26-1.87Z"/><path d="M69.16 5h1.45l-.29 1.41H68.87Zm-.48 2.34h1.45l-1.17 5.69H67.52Z"/><path d="M72.5 7.34c.18 2.38.27 3.57.27 4.3h.01c.34-.85.94-2.03 2.02-4.3h1.52l-2.98 5.69H71.68l-.61-5.69Z"/><path d="M80.09 9.52c.02-.11.02-.19.02-.25 0-.5-.21-.92-.85-.92-.66 0-1.07.44-1.26 1.18Zm-2.28 1c-.02.12-.04.22-.04.34 0 .6.22 1.12.87 1.12.59 0 .85-.33 1.03-.69h1.51c-.31.84-1.01 1.85-2.66 1.85-1.48 0-2.21-.96-2.21-2.34 0-1.5.79-3.58 2.99-3.58 1.62 0 2.19 1.02 2.19 2.19 0 .46-.06.79-.15 1.11Z"/><path d="M90.3 9.71H87l-.42 2.05h3.76l-.43 1.27H84.85L86.4 5.45h4.93l-.26 1.27H87.62l-.35 1.73h3.3Z"/><path d="M92.84 10.7c.06.76.53 1.25 1.46 1.25.8 0 1.25-.3 1.25-.99 0-.59-.36-.9-1.33-1.25-1.5-.53-2.05-1.15-2.05-2.1 0-1.22.84-2.27 2.7-2.27 1.7 0 2.63.91 2.66 2.24H96c-.03-.46-.23-1.03-1.2-1.03-.62 0-1.08.29-1.08.88 0 .42.23.69 1.18 1.03 1.49.54 2.23 1.15 2.23 2.3 0 1.21-.71 2.38-2.97 2.38-1.83 0-2.8-.96-2.84-2.44Z"/><path d="M104.07 13.03h-1.18c-.01-.19.03-.6.07-.82-.5.68-1.14.93-2.05.93-1.72 0-2.59-1.3-2.59-3.07 0-2.24 1.29-4.74 4.01-4.74 1.74 0 2.75 1.04 2.76 2.44h-1.51c-.03-.56-.38-1.2-1.43-1.2-1.6 0-2.27 1.9-2.27 3.39 0 1.16.45 1.93 1.48 1.93 1.24 0 1.61-.84 1.79-1.74l.01-.03h-1.7l.28-1.36h3.12Z"/><path d="M110.83 8.7h1.23c.86 0 1.46-.31 1.46-1.11 0-.57-.31-.9-1.06-.9h-1.22Zm-.25 1.24l-.63 3.09h-1.49l1.56-7.59h2.79c1.4 0 2.24.74 2.24 1.98 0 1.04-.61 1.73-1.51 1.98.3.15.87.52.61 1.81-.18.89-.3 1.46-.25 1.81h-1.43c-.04-.33.02-.88.21-1.82.17-.83.03-1.28-.78-1.28Z"/><path d="M119.23 9.52c.02-.11.02-.19.02-.25 0-.5-.21-.92-.85-.92-.66 0-1.07.44-1.26 1.18Zm-2.28 1c-.02.12-.04.22-.04.34 0 .6.22 1.12.87 1.12.59 0 .85-.33 1.03-.69h1.51c-.31.84-1.01 1.85-2.66 1.85-1.48 0-2.21-.96-2.21-2.34 0-1.5.8-3.58 2.99-3.58 1.62 0 2.19 1.02 2.19 2.19 0 .46-.06.79-.15 1.11Z"/><path d="M125.61 9.61c0-.82-.36-1.16-.92-1.16-.79 0-1.31.75-1.51 1.75-.18.94-.04 1.71.87 1.71 1.08 0 1.56-1.34 1.56-2.3m-2.86 2.89l-.55 2.7h-1.44l1.28-6.23c.16-.77.26-1.28.31-1.65h1.44c0 .12-.07.5-.12.76.3-.43.83-.87 1.68-.87 1.11 0 1.77.87 1.77 2.23 0 1.78-1.06 3.68-3.02 3.68-.68 0-1.16-.3-1.35-.63"/><path d="M129.42 10.8c0 .79.32 1.18.89 1.18 1.04 0 1.45-1.49 1.45-2.46 0-.74-.3-1.13-.9-1.13-1 0-1.43 1.48-1.43 2.41m3.83-1.13c0 1.34-.76 3.47-3.09 3.47-1.53 0-2.24-.96-2.24-2.35 0-1.53.94-3.56 3.05-3.56 1.32 0 2.29.77 2.29 2.44"/><path d="M134.65 9.02c.12-.56.23-1.16.32-1.69h1.4c-.01.14-.06.57-.16 1.04.38-.68.88-1.15 1.84-1.15l-.3 1.5c-1.01.01-1.71.59-1.97 1.83l-.51 2.47h-1.45Z"/><path d="M138.78 7.34h.82l.32-1.54h1.44l-.31 1.54h1.04l-.25 1.14H140.8l-.58 2.87c-.07.35-.04.59.39.59.17 0 .31-.01.47-.04l-.22 1.08c-.32.11-.68.11-.98.11-1.15 0-1.33-.68-1.13-1.68l.59-2.93h-.82Z"/><path d="M143.62 5h1.45l-.29 1.41h-1.45Zm-.48 2.34h1.45l-1.17 5.69h-1.45Z"/><path d="M145.78 8.78c.1-.48.2-.96.27-1.44h1.42c-.01.16-.07.57-.11.71.26-.34.74-.82 1.66-.82 1.09 0 1.71.68 1.36 2.36l-.71 3.44h-1.44l.7-3.46c.14-.64 0-1.1-.62-1.1-.71 0-1.15.55-1.37 1.61l-.6 2.95h-1.45Z"/><path d="M152.92 10.64c0 .7.29 1.11.9 1.11.77 0 1.24-.67 1.46-1.71.16-.77.12-1.61-.86-1.61-1 0-1.5 1.2-1.5 2.21m3.28 1.56c-.38 1.84-.87 3.12-3.02 3.12-2.07 0-2.25-1.14-2.26-1.81h1.47c.02.35.24.69.9.69.84 0 1.16-.53 1.43-1.74l.04-.17c-.36.47-.83.68-1.54.68-1.19 0-1.83-.9-1.83-2.21 0-1.68 1.05-3.53 2.8-3.53.85 0 1.31.32 1.46.68.05-.17.14-.45.19-.57h1.39c-.1.42-.21.94-.31 1.42Z"/></g></g></svg>