<?xml version="1.0" encoding="UTF-8"?><!DOCTYPE svg PUBLIC "-//W3C//DTD SVG 1.0//EN" "http://www.w3.org/TR/2001/REC-SVG-20010904/DTD/svg10.dtd" []><svg xmlns="http://www.w3.org/2000/svg" xmlns:xlink="http://www.w3.org/1999/xlink" height="45" stroke="#000" stroke-linecap="square" stroke-miterlimit="10" viewBox="0 0 156.11 44.58" width="156"><g><g fill="#fff" stroke="none"><path d="M11.64 10.76c-.31 1.38-1.31 2.38-3.09 2.38-2.29 0-3.4-1.71-3.4-3.87 0-2.08 1.13-3.95 3.46-3.95 1.88 0 2.83 1.13 3.03 2.4H10.25c-.19-.67-.63-1.27-1.69-1.27-1.42 0-1.98 1.32-1.98 2.76 0 1.36.51 2.79 2.02 2.79 1.07 0 1.46-.7 1.64-1.25Z"/><path d="M12.79 8.93c0-.64 0-1.12-.01-1.54h1.3c.02.14.04.66.04 1.05.26-.69.86-1.17 1.79-1.18V8.58c-1.11-.01-1.79.4-1.79 1.91v2.56H12.79Z"/><path d="M20.22 9.63c-.01-.75-.33-1.37-1.14-1.37s-1.14.58-1.22 1.37Zm-2.38.87c0 .86.42 1.59 1.23 1.59.71 0 .92-.33 1.08-.7h1.33c-.2.7-.8 1.78-2.44 1.78-1.78 0-2.53-1.41-2.53-2.88 0-1.74.86-3.03 2.59-3.03 1.84 0 2.46 1.42 2.46 2.77 0 .18 0 .32-.02.47Z"/><path d="M25.84 10.41h-.71c-.97 0-1.39.3-1.39.93 0 .47.29.84.88.84 1.08 0 1.22-.77 1.22-1.61Zm1.29 1.25c0 .53.04 1.24.07 1.38H25.94c-.04-.12-.08-.4-.08-.62-.2.34-.59.75-1.59.75-1.31 0-1.86-.89-1.86-1.76 0-1.28.99-1.87 2.6-1.87h.83V9.16c0-.43-.15-.9-.96-.9-.73 0-.88.34-.96.76H22.66c.08-.93.64-1.77 2.27-1.76 1.42.01 2.2.59 2.2 1.92Z"/><path d="M28.02 7.39h.88V5.81h1.32V7.39h1.12V8.44H30.22v2.97c0 .47.13.68.59.68.1 0 .26 0 .39-.03v.96c-.28.1-.66.11-.95.11-.99 0-1.36-.54-1.36-1.52V8.44h-.88Z"/><path d="M35.7 9.63c-.01-.75-.33-1.37-1.14-1.37s-1.14.58-1.21 1.37Zm-2.38.87c0 .86.42 1.59 1.23 1.59.71 0 .92-.33 1.08-.7h1.33c-.2.7-.8 1.78-2.44 1.78-1.78 0-2.53-1.41-2.53-2.88 0-1.74.86-3.03 2.59-3.03 1.84 0 2.46 1.42 2.46 2.77 0 .18 0 .32-.02.47Z"/><path d="M44.78 9.93c-.58-1.74-.94-2.78-1.11-3.43h-.01c-.18.71-.57 1.94-1.04 3.43Zm-2.47 1.18l-.65 1.94H40.3l2.54-7.61h1.73l2.65 7.61H45.77l-.68-1.94Z"/><path d="M57.23 10.76c-.31 1.38-1.31 2.38-3.09 2.38-2.29 0-3.4-1.71-3.4-3.87 0-2.08 1.13-3.95 3.46-3.95 1.88 0 2.83 1.13 3.03 2.4H55.84c-.19-.67-.63-1.27-1.69-1.27-1.42 0-1.98 1.32-1.98 2.76 0 1.36.51 2.79 2.02 2.79 1.07 0 1.46-.7 1.65-1.25Z"/><path d="M59.5 10.22c0 1.14.5 1.87 1.32 1.87.83 0 1.29-.72 1.29-1.86 0-1.21-.47-1.88-1.31-1.88-.81 0-1.3.65-1.3 1.87m3.96-.01c0 1.68-.96 2.97-2.68 2.97-1.65 0-2.63-1.25-2.63-2.94 0-1.72.99-2.98 2.7-2.98 1.58 0 2.61 1.18 2.61 2.95"/><path d="M64.67 8.85c0-.49 0-.98-.01-1.46h1.27c.02.15.05.5.05.74.27-.45.72-.87 1.54-.87.78 0 1.25.42 1.45.91.31-.49.8-.91 1.71-.91.93 0 1.73.58 1.73 2.07v3.71H71.12V9.5c0-.56-.2-1.12-.89-1.12-.73 0-1.03.52-1.03 1.43v3.24H67.9V9.55c0-.63-.16-1.17-.88-1.17-.7 0-1.04.51-1.04 1.51v3.15H64.67Z"/><path d="M77.78 10.13c0-1.09-.45-1.76-1.24-1.76-.95 0-1.31.63-1.31 1.85 0 1.17.31 1.85 1.24 1.85.87 0 1.31-.71 1.31-1.95m-2.49 2.35v2.75H73.97V8.76c0-.46 0-.92-.01-1.37h1.28c.02.16.04.51.04.77.26-.47.77-.9 1.66-.9 1.24 0 2.18 1.07 2.18 2.82 0 2-1.06 3.1-2.39 3.1-.81 0-1.23-.33-1.46-.7"/><path d="M80.34 8.93c0-.64 0-1.12-.01-1.54h1.3c.02.14.04.66.04 1.05.26-.69.87-1.17 1.79-1.18V8.58c-1.11-.01-1.79.4-1.79 1.91v2.56H80.34Z"/><path d="M87.78 9.63c-.01-.75-.33-1.37-1.14-1.37s-1.14.58-1.22 1.37Zm-2.38.87c0 .86.42 1.59 1.23 1.59.71 0 .92-.33 1.08-.7h1.33c-.2.7-.8 1.78-2.44 1.78-1.78 0-2.53-1.41-2.53-2.88 0-1.74.86-3.03 2.59-3.03 1.84 0 2.46 1.42 2.46 2.77 0 .18 0 .32-.02.47Z"/><path d="M91.64 5V8.11c.25-.41.72-.85 1.62-.85.97 0 1.84.58 1.84 2.17v3.62H93.78V9.64c0-.81-.3-1.25-.99-1.25-.89 0-1.15.65-1.15 1.63v3.03H90.32V5Z"/><path d="M100.02 9.63c-.01-.75-.33-1.37-1.14-1.37s-1.14.58-1.22 1.37Zm-2.38.87c0 .86.42 1.59 1.23 1.59.71 0 .92-.33 1.08-.7h1.33c-.2.7-.79 1.78-2.44 1.78-1.78 0-2.53-1.41-2.53-2.88 0-1.74.86-3.03 2.59-3.03 1.84 0 2.46 1.42 2.46 2.77 0 .18 0 .32-.02.47Z"/><path d="M102.57 8.82c0-.48 0-1-.01-1.43h1.28c.03.15.05.61.05.79.2-.4.64-.92 1.63-.92 1.08 0 1.82.73 1.82 2.18v3.61h-1.32V9.59c0-.71-.25-1.21-.97-1.21-.77 0-1.16.52-1.16 1.56v3.1h-1.32Z"/><path d="M109.7 11.37c.13.51.51.8 1.14.8.64 0 .88-.26.88-.66 0-.42-.24-.6-1.11-.82-1.71-.43-2.01-.98-2.01-1.76 0-.82.57-1.67 2.14-1.67s2.14.91 2.2 1.68h-1.26c-.06-.26-.24-.69-.99-.69-.59 0-.78.28-.78.57 0 .33.19.49 1.12.72 1.77.43 2.05 1.05 2.05 1.88 0 .96-.71 1.76-2.28 1.76-1.58 0-2.27-.8-2.4-1.8Z"/><path d="M114.25 7.39h1.32v5.66h-1.32Zm0-2.39h1.32V6.34h-1.32Z"/><path d="M117.96 7.39c.6 2.05 1.06 3.74 1.19 4.43h.01c.15-.83.7-2.53 1.29-4.43h1.33l-1.96 5.66h-1.41l-1.87-5.66Z"/><path d="M126 9.63c-.01-.75-.33-1.37-1.14-1.37s-1.14.58-1.21 1.37Zm-2.38.87c0 .86.42 1.59 1.23 1.59.71 0 .92-.33 1.08-.7h1.33c-.2.7-.8 1.78-2.44 1.78-1.78 0-2.53-1.41-2.53-2.88 0-1.74.86-3.03 2.59-3.03 1.84 0 2.46 1.42 2.46 2.77 0 .18 0 .32-.02.47Z"/><path d="M136.28 9.67h-3.57v2.19h3.93l-.17 1.18h-5.11V5.44h5.08V6.62h-3.73V8.49h3.57Z"/><path d="M138.93 10.85c.18.81.73 1.2 1.66 1.2.95 0 1.35-.42 1.35-1.03 0-.67-.36-.99-1.69-1.32-1.91-.47-2.44-1.17-2.44-2.21 0-1.26.91-2.17 2.62-2.17 1.89 0 2.65 1.07 2.75 2.15h-1.4c-.1-.54-.4-1.06-1.39-1.06-.73 0-1.16.32-1.16.93s.35.83 1.57 1.13c2.13.52 2.56 1.35 2.56 2.39 0 1.33-.97 2.29-2.87 2.29-1.86 0-2.79-.98-2.95-2.29Z"/><path d="M151.08 13.05h-1.02c-.06-.2-.09-.49-.11-.85-.38.56-1.07.97-2.2.97-2.13 0-3.3-1.67-3.3-3.83 0-2.28 1.26-4 3.55-4 1.83 0 2.94 1.06 3.12 2.37h-1.38c-.18-.63-.64-1.24-1.76-1.24-1.58 0-2.1 1.34-2.1 2.8 0 1.4.56 2.75 2.09 2.75 1.46 0 1.77-1.03 1.77-1.92v-.07h-1.77V8.84h3.12Z"/><path d="M6.88 21.94H8.31c.96 0 1.35-.38 1.35-1.09 0-.68-.43-1.07-1.29-1.07H6.88Zm0 1.15v3.15H5.53V18.64H8.64c1.57 0 2.42.89 2.42 2.07 0 1.01-.54 1.58-1.13 1.8.45.15.99.56.99 1.91v.36c0 .52-.01 1.13.1 1.47H9.7c-.13-.33-.14-.91-.14-1.68v-.13c0-.92-.23-1.34-1.47-1.34Z"/><path d="M15.76 22.83c-.01-.75-.33-1.37-1.14-1.37s-1.14.58-1.22 1.37Zm-2.38.87c0 .86.42 1.59 1.23 1.59.71 0 .92-.33 1.08-.69h1.33c-.2.7-.8 1.78-2.44 1.78-1.78 0-2.53-1.41-2.53-2.88 0-1.74.86-3.03 2.59-3.03 1.84 0 2.46 1.43 2.46 2.77 0 .18 0 .32-.02.47Z"/><path d="M22.11 23.33c0-1.09-.45-1.75-1.24-1.75-.95 0-1.31.63-1.31 1.85 0 1.16.31 1.85 1.24 1.85.87 0 1.31-.71 1.31-1.95m-2.49 2.35v2.75H18.3V21.96c0-.46 0-.92-.01-1.37h1.28c.02.16.04.51.04.77.26-.47.77-.9 1.66-.9 1.24 0 2.18 1.07 2.18 2.82 0 2-1.06 3.1-2.39 3.1-.81 0-1.23-.33-1.45-.7"/><path d="M25.74 23.42c0 1.14.5 1.87 1.32 1.87.83 0 1.29-.72 1.29-1.86 0-1.21-.47-1.88-1.31-1.88-.81 0-1.3.64-1.3 1.87m3.96-.01c0 1.68-.96 2.97-2.68 2.97-1.65 0-2.63-1.25-2.63-2.94 0-1.72.99-2.97 2.7-2.97 1.58 0 2.61 1.18 2.61 2.95"/><path d="M30.92 22.12c0-.64 0-1.12-.01-1.53h1.3c.02.14.04.66.04 1.05.26-.69.86-1.17 1.79-1.18v1.32c-1.11-.01-1.79.4-1.79 1.91v2.56H30.92Z"/><path d="M34.73 20.59h.88V19.01h1.32v1.58h1.12v1.05H36.93v2.97c0 .47.13.67.59.67.1 0 .26 0 .39-.03v.96c-.28.1-.66.11-.95.11-.99 0-1.36-.54-1.36-1.52V21.64h-.88Z"/><path d="M38.71 27.51c.6-1.38.71-2.33.77-3.09h1.35c-.1 1.05-.45 2.24-1.09 3.09Z"/><path d="M48.78 23.12c-.58-1.74-.94-2.78-1.11-3.43h-.01c-.18.71-.57 1.94-1.04 3.43Zm-2.47 1.18l-.65 1.94H44.3l2.54-7.61h1.73l2.65 7.61H49.77l-.68-1.94Z"/><path d="M52.2 26.25h1.32V18.2H52.2Z" fill-rule="evenodd"/><path d="M55.08 20.59H56.4v5.65H55.08Zm0-2.39H56.4v1.34H55.08Z"/><path d="M58.98 23.37c0 1.05.51 1.7 1.26 1.7 1 0 1.28-.71 1.28-1.76s-.22-1.75-1.25-1.75c-.78 0-1.29.64-1.29 1.8m3.8 2.24c0 1.82-.67 2.92-2.65 2.92-1.89 0-2.32-1.09-2.39-1.77h1.35c.12.47.47.75 1.09.75 1.07 0 1.3-.68 1.3-1.86v-.33c-.29.54-.76.86-1.6.86-1.41 0-2.26-1.19-2.26-2.76 0-1.79 1.03-2.98 2.38-2.98.97 0 1.38.47 1.48.78.01-.19.04-.54.05-.64h1.26c-.01.44-.01 1.08-.01 1.63Z"/><path d="M64.32 22.01c0-.48 0-1-.01-1.42h1.28c.03.15.05.61.05.79.2-.4.64-.92 1.63-.92 1.07 0 1.82.73 1.82 2.18v3.61H67.77V22.79c0-.71-.24-1.21-.97-1.21-.78 0-1.16.52-1.16 1.56v3.1H64.32Z"/><path d="M74.02 22.83c-.01-.75-.33-1.37-1.14-1.37s-1.14.58-1.21 1.37Zm-2.38.87c0 .86.42 1.59 1.23 1.59.71 0 .92-.33 1.08-.69h1.33c-.2.7-.79 1.78-2.44 1.78-1.78 0-2.53-1.41-2.53-2.88 0-1.74.86-3.03 2.59-3.03 1.84 0 2.46 1.43 2.46 2.77 0 .18 0 .32-.02.47Z"/><path d="M77.65 23.43c0 1.19.49 1.84 1.27 1.84 1.12 0 1.3-.92 1.3-1.88 0-1.06-.17-1.82-1.25-1.82-.85 0-1.32.69-1.32 1.86m3.84-5.23v6.48c0 .52 0 1.04.01 1.57H80.23c-.03-.16-.05-.5-.06-.66-.27.49-.77.79-1.61.79-1.39 0-2.27-1.16-2.27-2.91 0-1.74.93-3.01 2.47-3.01.85 0 1.28.33 1.41.6V18.2Z"/><path d="M87.14 26.25l-1.91-7.61h1.47c.65 3.15 1.13 5.25 1.23 6.1h.01c.25-1.25 1.06-4.22 1.51-6.1h1.27c.4 1.54 1.24 4.81 1.45 6.03h.01c.24-1.55 1.07-4.72 1.38-6.03h1.35l-2.05 7.61H91.42c-.41-1.71-1.16-4.57-1.39-5.74h-.01c-.25 1.28-1.01 4.13-1.43 5.74Z"/><path d="M95.82 20.59h1.32v5.65H95.82Zm0-2.39h1.32v1.34H95.82Z"/><path d="M98.13 20.59h.88V19.01h1.32v1.58h1.12v1.05h-1.12v2.97c0 .47.13.67.59.67.1 0 .26 0 .39-.03v.96c-.28.1-.66.11-.95.11-.99 0-1.36-.54-1.36-1.52V21.64h-.88Z"/><path d="M103.79 18.2v3.12c.25-.41.72-.86 1.62-.86.97 0 1.84.58 1.84 2.17v3.62h-1.32V22.83c0-.81-.3-1.25-.99-1.25-.89 0-1.15.65-1.15 1.63v3.03h-1.32V18.2Z"/><path d="M117.97 26.25h-1.03c-.06-.2-.09-.49-.11-.85-.38.56-1.07.96-2.2.96-2.13 0-3.3-1.67-3.3-3.83 0-2.28 1.26-4 3.55-4 1.83 0 2.93 1.05 3.12 2.37h-1.38c-.18-.63-.64-1.24-1.76-1.24-1.58 0-2.1 1.34-2.1 2.8 0 1.4.56 2.75 2.09 2.75 1.46 0 1.77-1.03 1.77-1.92v-.07h-1.77V22.04h3.12Z"/><path d="M119.51 26.25h1.32V18.2h-1.32Z" fill-rule="evenodd"/><path d="M123.39 23.42c0 1.14.5 1.87 1.32 1.87.83 0 1.29-.72 1.29-1.86 0-1.21-.47-1.88-1.31-1.88-.81 0-1.3.64-1.3 1.87m3.96-.01c0 1.68-.96 2.97-2.68 2.97-1.65 0-2.63-1.25-2.63-2.94 0-1.72.99-2.97 2.7-2.97 1.58 0 2.61 1.18 2.61 2.95"/><path d="M132.41 23.34c0-1.04-.41-1.77-1.27-1.77-.97 0-1.31.66-1.31 1.88 0 1.03.3 1.83 1.28 1.83.84 0 1.29-.76 1.29-1.94m-3.84-5.14h1.32v3.06c.23-.4.7-.8 1.63-.8 1.45 0 2.24 1.24 2.24 2.85 0 1.65-.82 3.06-2.38 3.06-.83 0-1.23-.28-1.5-.74 0 .22-.03.46-.05.61h-1.27c.01-.62.01-1.25.01-1.87Z"/><path d="M138.04 23.61h-.71c-.97 0-1.4.3-1.4.93 0 .47.29.84.88.84 1.08 0 1.22-.77 1.22-1.61Zm1.29 1.25c0 .53.04 1.24.07 1.38h-1.27c-.04-.12-.07-.41-.08-.62-.2.34-.59.75-1.59.75-1.31 0-1.86-.89-1.86-1.76 0-1.28.99-1.87 2.6-1.87h.83v-.39c0-.43-.14-.9-.96-.9-.73 0-.88.34-.96.76h-1.26c.08-.93.64-1.77 2.27-1.76 1.42.01 2.2.59 2.2 1.92Z"/><path d="M140.9 26.25h1.32V18.2H140.9Z" fill-rule="evenodd"/><path d="M6.39 37.25c.18.82.73 1.2 1.66 1.2.95 0 1.35-.42 1.35-1.03 0-.67-.36-.99-1.69-1.32-1.91-.47-2.44-1.17-2.44-2.22 0-1.26.91-2.17 2.62-2.17 1.89 0 2.65 1.07 2.75 2.15H9.24c-.1-.54-.4-1.06-1.39-1.06-.73 0-1.16.32-1.16.93s.35.83 1.57 1.13c2.13.52 2.57 1.35 2.57 2.39 0 1.33-.97 2.29-2.87 2.29-1.86 0-2.79-.98-2.95-2.3Z"/><path d="M11.42 33.79h.88V32.21h1.32v1.58h1.12v1.05H13.62v2.97c0 .47.13.67.6.67.1 0 .26 0 .39-.03v.96c-.28.1-.66.11-.95.11-.99 0-1.36-.54-1.36-1.52V34.84h-.88Z"/><path d="M18.86 36.81h-.71c-.97 0-1.39.3-1.39.93 0 .47.29.84.88.84 1.08 0 1.22-.77 1.22-1.61Zm1.29 1.25c0 .53.04 1.24.07 1.38H18.96c-.04-.12-.08-.41-.08-.62-.2.34-.59.75-1.59.75-1.31 0-1.86-.89-1.86-1.76 0-1.28.99-1.87 2.6-1.87h.83v-.39c0-.44-.15-.9-.96-.9-.73 0-.88.34-.96.76H15.68c.08-.93.63-1.77 2.27-1.76 1.42.01 2.2.59 2.2 1.91Z"/><path d="M21.73 35.22c0-.48 0-1-.01-1.43h1.28c.03.15.05.61.05.79.2-.4.64-.92 1.63-.92 1.07 0 1.82.73 1.82 2.18v3.61H25.18V35.99c0-.71-.24-1.21-.97-1.21-.78 0-1.16.52-1.16 1.56v3.1H21.73Z"/><path d="M29.08 36.63c0 1.19.49 1.83 1.27 1.83 1.12 0 1.3-.92 1.3-1.88 0-1.06-.17-1.82-1.25-1.82-.85 0-1.32.69-1.32 1.86m3.84-5.23v6.48c0 .52 0 1.04.01 1.57H31.66c-.03-.16-.05-.5-.06-.66-.27.49-.77.79-1.61.79-1.39 0-2.27-1.16-2.27-2.91 0-1.74.93-3.01 2.47-3.01.85 0 1.27.33 1.4.6V31.4Z"/><path d="M37.49 36.81h-.71c-.97 0-1.4.3-1.4.93 0 .47.29.84.88.84 1.08 0 1.22-.77 1.22-1.61Zm1.29 1.25c0 .53.04 1.24.08 1.38H37.6c-.04-.12-.08-.41-.08-.62-.2.34-.59.75-1.59.75-1.31 0-1.87-.89-1.87-1.76 0-1.28.99-1.87 2.6-1.87h.83v-.39c0-.44-.15-.9-.96-.9-.73 0-.88.34-.96.76H34.32c.08-.93.64-1.77 2.27-1.76 1.42.01 2.2.59 2.2 1.91Z"/><path d="M40.36 35.33c0-.64 0-1.12-.01-1.54h1.3c.02.14.04.66.04 1.05.26-.69.86-1.17 1.79-1.18v1.32c-1.11-.01-1.79.4-1.79 1.91v2.56H40.36Z"/><path d="M45.44 36.63c0 1.19.49 1.83 1.27 1.83 1.12 0 1.3-.92 1.3-1.88 0-1.06-.17-1.82-1.24-1.82-.85 0-1.32.69-1.32 1.86m3.84-5.23v6.48c0 .52 0 1.04.01 1.57H48.02c-.03-.16-.05-.5-.06-.66-.27.49-.77.79-1.61.79-1.39 0-2.27-1.16-2.27-2.91 0-1.74.93-3.01 2.47-3.01.85 0 1.27.33 1.4.6V31.4Z"/><path d="M51.66 37.77c.13.51.52.8 1.14.8.64 0 .88-.26.88-.66 0-.42-.24-.6-1.11-.82-1.71-.43-2.01-.98-2.01-1.77 0-.82.57-1.67 2.14-1.67s2.15.9 2.2 1.68H53.63c-.06-.26-.24-.69-.99-.69-.59 0-.78.28-.78.57 0 .33.19.49 1.12.71 1.77.43 2.05 1.05 2.05 1.88 0 .96-.71 1.76-2.28 1.76-1.58 0-2.27-.8-2.4-1.8Z"/><path d="M56.2 39.45h1.41V37.62H56.2Z" fill-rule="evenodd"/></g></g></svg>