<?xml version="1.0" encoding="UTF-8"?><!DOCTYPE svg PUBLIC "-//W3C//DTD SVG 1.0//EN" "http://www.w3.org/TR/2001/REC-SVG-20010904/DTD/svg10.dtd" []><svg xmlns="http://www.w3.org/2000/svg" xmlns:xlink="http://www.w3.org/1999/xlink" height="20" stroke="#000" stroke-linecap="square" stroke-miterlimit="10" viewBox="0 0 136.35 20.32" width="136"><g><g fill="#FF00A4" stroke="none"><path d="M6.76 11.79H7.9c1.59 0 2.59-1.16 2.59-3.09 0-1.34-.63-2.01-1.75-2.01H7.8Zm-.2-6.34H8.92c1.92 0 3.15 1.19 3.15 3.23 0 2.45-1.53 4.36-4.22 4.36H5Z"/><path d="M14.25 5H15.7l-.29 1.41H13.96Zm-.48 2.34h1.45l-1.17 5.69H12.61Z"/><path d="M17.3 10.64c0 .7.29 1.11.9 1.11.77 0 1.24-.67 1.46-1.71.16-.77.12-1.61-.86-1.61-1.01 0-1.5 1.2-1.5 2.21m3.28 1.56c-.38 1.84-.87 3.12-3.02 3.12-2.07 0-2.25-1.14-2.26-1.81h1.47c.02.35.24.69.9.69.83 0 1.16-.53 1.42-1.74l.04-.17c-.36.47-.83.68-1.54.68-1.19 0-1.83-.9-1.83-2.21 0-1.68 1.04-3.53 2.79-3.53.85 0 1.31.32 1.46.68.05-.17.14-.45.19-.57h1.39c-.1.42-.22.94-.31 1.42Z"/><path d="M23.55 5H25l-.29 1.41H23.26Zm-.48 2.34h1.45l-1.17 5.69H21.91Z"/><path d="M25.43 7.34h.82l.32-1.54h1.44L27.7 7.34h1.04l-.25 1.14H27.45l-.58 2.87c-.07.35-.04.59.39.59.17 0 .31-.01.47-.04l-.22 1.08c-.32.11-.68.11-.98.11-1.15 0-1.33-.68-1.13-1.68L26 8.48h-.82Z"/><path d="M32.2 10.47c-.36 0-.67.03-.95.07-.81.12-1.13.4-1.13.88 0 .33.21.58.67.58 1 0 1.25-.84 1.39-1.44Zm1.2 1.16c-.12.59-.24 1.23-.25 1.39H31.75c.01-.16.05-.46.08-.64-.27.36-.64.75-1.67.75-1.09 0-1.54-.79-1.54-1.46 0-1.59 1.34-2.01 2.56-2.15.46-.04.89-.04 1.23-.06l.05-.27c.08-.41.08-.95-.7-.95-.69 0-.82.39-.94.66H29.34c.21-.91.82-1.7 2.53-1.7 1.34 0 2.33.57 2.02 2.07Z"/><path d="M34.62 13.03L36.26 5h1.45l-1.64 8.03Z"/><path d="M42.33 11.79h1.14c1.59 0 2.59-1.16 2.59-3.09 0-1.34-.63-2.01-1.75-2.01h-.94Zm-.2-6.34H44.5c1.92 0 3.15 1.19 3.15 3.23 0 2.45-1.53 4.36-4.22 4.36H40.58Z"/><path d="M51.8 10.47c-.36 0-.67.03-.95.07-.81.12-1.13.4-1.13.88 0 .33.21.58.67.58 1 0 1.25-.84 1.39-1.44ZM53 11.64c-.12.59-.24 1.23-.25 1.39H51.35c.01-.16.05-.46.08-.64-.27.36-.64.75-1.67.75-1.09 0-1.54-.79-1.54-1.46 0-1.59 1.34-2.01 2.56-2.15.46-.04.89-.04 1.23-.06l.05-.27c.08-.41.08-.95-.7-.95-.69 0-.81.39-.94.66H48.94c.21-.91.82-1.7 2.53-1.7 1.34 0 2.33.57 2.02 2.07Z"/><path d="M54.69 7.34h.82l.32-1.54h1.44l-.31 1.54H58l-.25 1.14H56.71l-.58 2.87c-.07.35-.04.59.39.59.17 0 .31-.01.47-.04l-.22 1.08c-.32.11-.68.11-.98.11-1.15 0-1.33-.68-1.13-1.68l.59-2.93h-.82Z"/><path d="M61.46 10.47c-.36 0-.67.03-.95.07-.81.12-1.13.4-1.13.88 0 .33.21.58.67.58 1 0 1.25-.84 1.39-1.44Zm1.2 1.16c-.12.59-.24 1.23-.25 1.39H61.01c.01-.16.05-.46.08-.64-.27.36-.64.75-1.67.75-1.09 0-1.54-.79-1.54-1.46 0-1.59 1.34-2.01 2.56-2.15.46-.04.89-.04 1.23-.06l.05-.27c.08-.41.08-.95-.7-.95-.69 0-.81.39-.94.66H58.6c.21-.91.82-1.7 2.53-1.7 1.34 0 2.33.57 2.02 2.07Z"/><path d="M73.14 10.19c.26-1.29.59-2.81.79-3.67h-.04c-.65 1.54-1.84 4.14-2.97 6.51h-1.3c-.1-1.87-.27-5.1-.27-6.54h-.05c-.12.88-.42 2.52-.69 3.82l-.56 2.72H66.66l1.56-7.58h2.27c.12 1.85.23 4.44.23 5.56h.01c.39-1.02 1.62-3.49 2.58-5.56h2.26l-1.56 7.58H72.55Z"/><path d="M79.24 10.47c-.36 0-.67.03-.95.07-.81.12-1.13.4-1.13.88 0 .33.21.58.67.58 1 0 1.25-.84 1.39-1.44Zm1.2 1.16c-.12.59-.24 1.23-.25 1.39H78.79c.01-.16.05-.46.08-.64-.27.36-.64.75-1.67.75-1.09 0-1.54-.79-1.54-1.46 0-1.59 1.34-2.01 2.56-2.15.46-.04.89-.04 1.23-.06l.05-.27c.08-.41.08-.95-.7-.95-.69 0-.82.39-.94.66H76.38c.21-.91.82-1.7 2.54-1.7 1.34 0 2.33.57 2.02 2.07Z"/><path d="M82.52 8.78c.1-.48.2-.96.28-1.44h1.42c-.01.16-.07.57-.11.71.26-.34.74-.82 1.66-.82 1.08 0 1.71.68 1.36 2.36l-.71 3.44H84.99l.7-3.46c.14-.64 0-1.1-.62-1.1-.71 0-1.15.55-1.37 1.61l-.6 2.95H81.66Z"/><path d="M91.46 10.47c-.36 0-.67.03-.95.07-.81.12-1.13.4-1.13.88 0 .33.21.58.67.58 1 0 1.25-.84 1.39-1.44Zm1.2 1.16c-.12.59-.24 1.23-.25 1.39H91.01c.01-.16.05-.46.08-.64-.28.36-.64.75-1.67.75-1.09 0-1.54-.79-1.54-1.46 0-1.59 1.34-2.01 2.56-2.15.46-.04.89-.04 1.23-.06l.05-.27c.08-.41.08-.95-.7-.95-.69 0-.81.39-.94.66H88.6c.21-.91.82-1.7 2.53-1.7 1.34 0 2.33.57 2.02 2.07Z"/><path d="M95.62 10.64c0 .7.29 1.11.89 1.11.77 0 1.25-.67 1.46-1.71.16-.77.12-1.61-.86-1.61-1 0-1.5 1.2-1.5 2.21M98.9 12.2c-.38 1.84-.87 3.12-3.02 3.12-2.07 0-2.25-1.14-2.26-1.81H95.1c.02.35.24.69.9.69.83 0 1.16-.53 1.42-1.74l.04-.17c-.36.47-.83.68-1.54.68-1.19 0-1.83-.9-1.83-2.21 0-1.68 1.05-3.53 2.8-3.53.85 0 1.31.32 1.46.68.05-.17.14-.45.19-.57h1.39c-.1.42-.21.94-.31 1.42Z"/><path d="M104.23 9.52c.02-.11.02-.19.02-.25 0-.5-.21-.92-.85-.92-.66 0-1.07.44-1.26 1.18Zm-2.28 1c-.02.12-.04.22-.04.34 0 .6.22 1.12.87 1.12.59 0 .85-.33 1.03-.69h1.51c-.31.84-1.01 1.85-2.66 1.85-1.48 0-2.21-.96-2.21-2.34 0-1.5.8-3.58 2.99-3.58 1.62 0 2.19 1.02 2.19 2.19 0 .46-.06.79-.15 1.11Z"/><path d="M107.05 8.93c.11-.54.22-1.09.31-1.6h1.42c-.02.13-.06.44-.1.66.36-.46.77-.77 1.53-.77.78 0 1.15.36 1.26.91.39-.5.93-.91 1.8-.91.94 0 1.64.55 1.32 2.1l-.76 3.71h-1.41l.72-3.52c.1-.51.08-1.04-.6-1.04-.66 0-.96.49-1.13 1.36l-.66 3.21h-1.43l.73-3.54c.11-.55.02-1.01-.59-1.01-.65 0-.98.47-1.17 1.43l-.64 3.12h-1.43Z"/><path d="M119.33 9.52c.02-.11.02-.19.02-.25 0-.5-.21-.92-.85-.92-.66 0-1.07.44-1.26 1.18Zm-2.28 1c-.02.12-.04.22-.04.34 0 .6.22 1.12.87 1.12.59 0 .85-.33 1.03-.69h1.51c-.31.84-1.01 1.85-2.66 1.85-1.48 0-2.21-.96-2.21-2.34 0-1.5.79-3.58 2.99-3.58 1.62 0 2.19 1.02 2.19 2.19 0 .46-.06.79-.15 1.11Z"/><path d="M122.17 8.78c.1-.48.2-.96.28-1.44h1.42c-.01.16-.08.57-.11.71.26-.34.74-.82 1.66-.82 1.08 0 1.71.68 1.36 2.36l-.71 3.44h-1.44l.7-3.46c.14-.64 0-1.1-.62-1.1-.71 0-1.15.55-1.37 1.61l-.6 2.95H121.3Z"/><path d="M128.04 7.34h.82l.32-1.54h1.44l-.31 1.54h1.04l-.25 1.14h-1.04l-.58 2.87c-.07.35-.04.59.39.59.17 0 .31-.01.47-.04l-.22 1.08c-.32.11-.68.11-.98.11-1.15 0-1.33-.68-1.13-1.68l.59-2.93h-.82Z"/></g></g></svg>