<?xml version="1.0" encoding="UTF-8"?><!DOCTYPE svg PUBLIC "-//W3C//DTD SVG 1.0//EN" "http://www.w3.org/TR/2001/REC-SVG-20010904/DTD/svg10.dtd" []><svg xmlns="http://www.w3.org/2000/svg" xmlns:xlink="http://www.w3.org/1999/xlink" height="60" stroke="#000" stroke-linecap="square" stroke-miterlimit="10" viewBox="0 0 144.23 60.02" width="144"><g><g fill="#fff" stroke="none"><path d="M5.95 13.22h.57V5.52H5.95Z" fill-rule="evenodd"/><path d="M8.46 9.1c0-.48 0-.95-.01-1.39h.52c.02.18.03.89.02 1.04.23-.56.67-1.18 1.77-1.18.95 0 1.79.55 1.79 2.07v3.56h-.53V9.74c0-.98-.39-1.62-1.32-1.62-1.27 0-1.7 1.09-1.7 2.29v2.8H8.46Z"/><path d="M14.54 10.51c0 1.51.76 2.32 1.67 2.32 1.41 0 1.79-1 1.79-2.5 0-1.42-.33-2.23-1.69-2.23-1.05 0-1.77.87-1.77 2.41m3.97-5.4v6.52c0 .53 0 1.03.01 1.59h-.51c-.02-.13-.03-.65-.03-.93-.27.67-.86 1.06-1.79 1.06-1.38 0-2.21-1.17-2.21-2.82 0-1.69.9-2.95 2.35-2.95 1.07 0 1.49.47 1.65.82V5.11Z"/><path d="M24.35 11.61c0 .54.01 1.4.01 1.61h-.51c-.02-.14-.03-.5-.03-.96-.22.65-.77 1.09-1.71 1.09-.77 0-1.75-.31-1.75-1.99V7.72h.52v3.51c0 .8.24 1.58 1.3 1.58 1.19 0 1.64-.69 1.64-2.27V7.72h.53Z"/><path d="M26.15 11.7c.18.71.67 1.14 1.51 1.14.95 0 1.33-.45 1.33-1.07 0-.63-.26-.93-1.45-1.23-1.37-.34-1.71-.77-1.71-1.5 0-.76.55-1.46 1.76-1.46s1.78.76 1.86 1.54h-.53c-.09-.46-.45-1.03-1.35-1.03-.93 0-1.19.47-1.19.91 0 .51.26.76 1.31 1.02 1.5.37 1.88.88 1.88 1.71 0 1-.79 1.62-1.91 1.62-1.21 0-1.9-.66-2.04-1.65Z"/><path d="M30.15 7.72h.99V6h.53V7.72h1.27v.52H31.67v3.58c0 .62.13.97.64.97.16 0 .38-.01.55-.07v.48c-.18.08-.44.1-.66.1-.68 0-1.07-.35-1.07-1.23V8.24h-.99Z"/><path d="M34.04 9.21c0-.92-.01-1.32-.01-1.5h.52c.01.18.02.53.02 1.23.31-.83.99-1.32 1.85-1.36v.59c-1.11.08-1.85.87-1.85 2.18v2.86h-.53Z"/><path d="M37.79 7.72c1.08 3.15 1.54 4.44 1.73 5.04h.01c.21-.67.64-1.95 1.67-5.04h.55l-2 5.82c-.56 1.63-.95 1.99-1.91 1.99-.19 0-.32-.01-.49-.03v-.55c.16.02.31.03.48.03.77 0 1.01-.38 1.41-1.52L37.2 7.72Z"/><path d="M42.54 10.68h2.68v-.54H42.54Z" fill-rule="evenodd"/><path d="M46.84 11.7c.18.71.67 1.14 1.51 1.14.95 0 1.33-.45 1.33-1.07 0-.63-.26-.93-1.45-1.23-1.38-.34-1.71-.77-1.71-1.5 0-.76.55-1.46 1.76-1.46s1.78.76 1.86 1.54h-.53c-.1-.46-.45-1.03-1.35-1.03-.93 0-1.19.47-1.19.91 0 .51.26.76 1.31 1.02 1.5.37 1.87.88 1.87 1.71 0 1-.79 1.62-1.91 1.62-1.21 0-1.89-.66-2.05-1.65Z"/><path d="M55.58 10.35c0-1.28-.6-2.23-1.65-2.23-1.29 0-1.82.84-1.82 2.33 0 1.47.41 2.39 1.75 2.39 1.11 0 1.73-.97 1.73-2.49M52.14 12.4v3.01H51.6V9.07c0-.45 0-.94-.01-1.35h.52c.02.21.02.54.02.99.33-.66.91-1.12 1.88-1.12 1.26 0 2.13 1.09 2.13 2.74 0 1.98-1.02 3.02-2.31 3.02-.94 0-1.43-.43-1.69-.95"/><path d="M61.14 10.05c-.01-1.09-.59-1.95-1.63-1.95-1.1 0-1.6.79-1.71 1.95Zm-3.38.48c.01 1.42.7 2.3 1.73 2.3 1 0 1.34-.58 1.53-1.03h.54c-.23.73-.79 1.55-2.1 1.55-1.62 0-2.25-1.44-2.25-2.84 0-1.57.76-2.93 2.31-2.93 1.64 0 2.16 1.46 2.16 2.5 0 .15 0 .31-.01.45Z"/><path d="M67.07 11.6c-.26.97-.87 1.75-2.07 1.75-1.33 0-2.28-1.02-2.28-2.86 0-1.51.78-2.9 2.34-2.9 1.35 0 1.91.99 2 1.76h-.54c-.16-.64-.56-1.24-1.47-1.24-1.13 0-1.77.99-1.77 2.37 0 1.31.6 2.37 1.71 2.37.78 0 1.25-.41 1.52-1.23Z"/><path d="M68.55 7.72h.53v5.5h-.53Zm0-2.61h.53V6.18h-.53Z"/><path d="M71.2 13.22V8.24h-.92V7.72h.92V6.94c0-.92.26-1.94 1.45-1.94.16 0 .4.03.52.08v.53c-.16-.04-.41-.07-.57-.07-.63 0-.86.46-.86 1.42v.76H72.9v.52H71.74v4.98Z"/><path d="M73.98 7.72h.53v5.5h-.53Zm0-2.61h.53V6.18h-.53Z"/><path d="M80.29 11.6c-.26.97-.87 1.75-2.07 1.75-1.33 0-2.28-1.02-2.28-2.86 0-1.51.78-2.9 2.34-2.9 1.35 0 1.91.99 2 1.76h-.54c-.16-.64-.56-1.24-1.47-1.24-1.13 0-1.77.99-1.77 2.37 0 1.31.6 2.37 1.71 2.37.78 0 1.25-.41 1.52-1.23Z"/><path d="M88.48 10.35c0-1.28-.6-2.23-1.65-2.23-1.29 0-1.82.84-1.82 2.33 0 1.47.41 2.39 1.75 2.39 1.11 0 1.73-.97 1.73-2.49M85.04 12.4v3.01h-.53V9.07c0-.45 0-.94-.01-1.35h.52c.02.21.02.54.02.99.33-.66.92-1.12 1.88-1.12 1.26 0 2.13 1.09 2.13 2.74 0 1.98-1.02 3.02-2.31 3.02-.94 0-1.43-.43-1.69-.95"/><path d="M90.48 9.21c0-.92-.01-1.32-.01-1.5H91c.01.18.02.53.02 1.23.31-.83.99-1.32 1.85-1.36v.59c-1.11.08-1.85.87-1.85 2.18v2.86h-.53Z"/><path d="M94.09 10.47c0 1.31.68 2.37 1.81 2.37 1.15 0 1.8-.98 1.8-2.37 0-1.3-.64-2.36-1.82-2.36-1.21 0-1.79 1.04-1.79 2.36m4.18-.01c0 1.53-.82 2.89-2.41 2.89-1.44 0-2.33-1.22-2.33-2.88 0-1.57.84-2.88 2.39-2.88 1.42 0 2.36 1.14 2.36 2.87"/><path d="M99.79 5.11h.53V6.18h-.53Zm.53 2.61V13.6c0 1.49-.36 1.93-1.3 1.93-.02 0-.23-.01-.3-.02v-.52c.09.01.18.01.25.01.76 0 .82-.44.82-1.33V7.72Z"/><path d="M105.67 10.05c-.01-1.09-.59-1.95-1.63-1.95-1.1 0-1.6.79-1.71 1.95Zm-3.38.48c.01 1.42.7 2.3 1.73 2.3 1 0 1.34-.58 1.53-1.03h.54c-.22.73-.79 1.55-2.1 1.55-1.62 0-2.25-1.44-2.25-2.84 0-1.57.76-2.93 2.31-2.93 1.64 0 2.16 1.46 2.16 2.5 0 .15 0 .31-.01.45Z"/><path d="M111.61 11.6c-.26.97-.87 1.75-2.07 1.75-1.33 0-2.28-1.02-2.28-2.86 0-1.51.78-2.9 2.34-2.9 1.35 0 1.91.99 2 1.76h-.54c-.16-.64-.56-1.24-1.47-1.24-1.13 0-1.77.99-1.77 2.37 0 1.31.6 2.37 1.71 2.37.78 0 1.25-.41 1.52-1.23Z"/><path d="M112.28 7.72h.99V6h.53V7.72h1.27v.52H113.8v3.58c0 .62.13.97.64.97.16 0 .38-.01.55-.07v.48c-.18.08-.44.1-.66.1-.68 0-1.07-.35-1.07-1.23V8.24h-.99Z"/><path d="M115.9 10.68h2.68v-.54H115.9Z" fill-rule="evenodd"/><path d="M120.2 13.22h.53V5.11h-.53Z" fill-rule="evenodd"/><path d="M126.08 10.05c-.01-1.09-.59-1.95-1.63-1.95-1.1 0-1.6.79-1.71 1.95Zm-3.38.48c.01 1.42.7 2.3 1.72 2.3 1 0 1.34-.58 1.53-1.03h.54c-.23.73-.79 1.55-2.1 1.55-1.62 0-2.25-1.44-2.25-2.84 0-1.57.76-2.93 2.31-2.93 1.64 0 2.16 1.46 2.16 2.5 0 .15 0 .31-.01.45Z"/><path d="M128.06 7.72c.86 2.52 1.46 4.24 1.66 4.94h.01c.12-.41.71-2.05 1.75-4.94h.56l-2.01 5.5h-.64l-1.9-5.5Z"/><path d="M136.69 10.05c-.01-1.09-.59-1.95-1.63-1.95-1.1 0-1.6.79-1.71 1.95Zm-3.38.48c.01 1.42.7 2.3 1.73 2.3 1 0 1.34-.58 1.53-1.03h.54c-.22.73-.79 1.55-2.1 1.55-1.62 0-2.25-1.44-2.25-2.84 0-1.57.76-2.93 2.31-2.93 1.64 0 2.16 1.46 2.16 2.5 0 .15 0 .31-.01.45Z"/><path d="M138.7 13.22h.53V5.11h-.53Z" fill-rule="evenodd"/><path d="M9.7 24.8c-.26.97-.87 1.75-2.07 1.75-1.33 0-2.28-1.02-2.28-2.86 0-1.51.78-2.9 2.34-2.9 1.35 0 1.91.99 2 1.76H9.15c-.16-.64-.56-1.24-1.47-1.24-1.13 0-1.77.99-1.77 2.36 0 1.31.6 2.37 1.71 2.37.78 0 1.25-.41 1.52-1.23Z"/><path d="M14.21 23.61H13.17c-1.18 0-1.92.32-1.92 1.27 0 .69.48 1.17 1.22 1.17 1.52 0 1.74-1.05 1.74-2.23Zm.52 1.76c0 .48.04.87.07 1.04H14.3c-.04-.13-.07-.37-.1-.85-.18.41-.65.98-1.75.98-1.24 0-1.77-.83-1.77-1.65 0-1.21.9-1.76 2.5-1.76H14.2v-.56c0-.55-.16-1.29-1.37-1.29-1.08 0-1.24.58-1.35 1.03h-.53c.06-.61.43-1.54 1.9-1.54 1.21 0 1.9.53 1.9 1.74Z"/><path d="M16.6 22.41c0-.92-.01-1.32-.01-1.5h.52c.01.18.02.53.02 1.23.31-.82.99-1.32 1.85-1.36v.59c-1.11.08-1.85.87-1.85 2.18v2.86H16.6Z"/><path d="M24.13 23.56c0-1.38-.66-2.26-1.67-2.26-1.33 0-1.8.94-1.8 2.38 0 1.3.42 2.35 1.74 2.35 1.08 0 1.74-.92 1.74-2.47m-3.97-5.25h.53v3.53c.26-.55.78-1.06 1.82-1.06 1.26 0 2.18 1.07 2.18 2.76 0 1.74-.83 3-2.32 3-.89 0-1.41-.37-1.68-1 0 .35-.01.71-.02.87h-.52c.01-.63.01-1.25.01-1.88Z"/><path d="M26.33 23.67c0 1.31.68 2.37 1.81 2.37 1.15 0 1.8-.98 1.8-2.37 0-1.3-.64-2.36-1.82-2.36-1.21 0-1.79 1.04-1.79 2.36m4.18-.01c0 1.53-.82 2.89-2.41 2.89-1.44 0-2.33-1.22-2.33-2.88 0-1.57.84-2.88 2.38-2.88 1.42 0 2.36 1.14 2.36 2.87"/><path d="M31.93 22.3c0-.48 0-.94-.01-1.39h.52c.02.18.03.89.02 1.05.23-.56.67-1.18 1.77-1.18.95 0 1.79.55 1.79 2.07v3.56h-.53V22.94c0-.98-.39-1.62-1.32-1.62-1.27 0-1.7 1.09-1.7 2.29v2.81h-.53Z"/><path d="M44.24 23.25c-.01-1.09-.59-1.95-1.63-1.95-1.1 0-1.6.79-1.71 1.95Zm-3.38.48c.01 1.42.7 2.3 1.73 2.3 1 0 1.34-.58 1.53-1.03h.54c-.22.73-.79 1.55-2.1 1.55-1.62 0-2.25-1.44-2.25-2.84 0-1.57.76-2.93 2.31-2.93 1.64 0 2.16 1.46 2.16 2.5 0 .15 0 .31-.01.45Z"/><path d="M46.2 22.34c0-.47 0-.99-.01-1.42h.52c.01.19.03.66.02.98.22-.55.71-1.11 1.6-1.11.74 0 1.33.38 1.54 1.09.27-.57.8-1.09 1.73-1.09.82 0 1.67.48 1.67 2.01v3.62h-.53V22.87c0-.74-.26-1.54-1.25-1.54-1.03 0-1.5.86-1.5 1.92v3.17h-.52V22.88c0-.8-.23-1.55-1.21-1.55-1.03 0-1.53.95-1.53 2.07v3.02H46.2Z"/><path d="M55.14 20.92h.53v5.5h-.53Zm0-2.61h.53v1.07h-.53Z"/><path d="M57.47 24.9c.18.71.67 1.15 1.51 1.15.95 0 1.33-.45 1.33-1.07 0-.63-.26-.93-1.45-1.23-1.38-.34-1.71-.77-1.71-1.5 0-.76.55-1.46 1.76-1.46s1.78.76 1.87 1.54h-.53c-.1-.46-.45-1.03-1.35-1.03-.93 0-1.19.47-1.19.91 0 .51.26.76 1.31 1.02 1.5.37 1.87.88 1.87 1.71 0 1-.79 1.62-1.91 1.62-1.21 0-1.89-.66-2.05-1.65Z"/><path d="M62.44 24.9c.18.71.67 1.15 1.51 1.15.95 0 1.33-.45 1.33-1.07 0-.63-.26-.93-1.45-1.23-1.37-.34-1.71-.77-1.71-1.5 0-.76.55-1.46 1.76-1.46s1.78.76 1.86 1.54h-.53c-.1-.46-.45-1.03-1.35-1.03-.93 0-1.19.47-1.19.91 0 .51.25.76 1.31 1.02 1.5.37 1.88.88 1.88 1.71 0 1-.79 1.62-1.91 1.62-1.21 0-1.9-.66-2.05-1.65Z"/><path d="M67.27 20.92h.53v5.5h-.53Zm0-2.61h.53v1.07h-.53Z"/><path d="M69.8 23.67c0 1.31.68 2.37 1.81 2.37 1.15 0 1.8-.98 1.8-2.37 0-1.3-.64-2.36-1.82-2.36-1.21 0-1.79 1.04-1.79 2.36m4.18-.01c0 1.53-.82 2.89-2.41 2.89-1.44 0-2.33-1.22-2.33-2.88 0-1.57.84-2.88 2.39-2.88 1.42 0 2.35 1.14 2.35 2.87"/><path d="M75.4 22.3c0-.48 0-.94-.01-1.39h.52c.02.18.03.89.02 1.05.24-.56.67-1.18 1.77-1.18.95 0 1.79.55 1.79 2.07v3.56h-.53V22.94c0-.98-.39-1.62-1.32-1.62-1.27 0-1.7 1.09-1.7 2.29v2.81H75.4Z"/><path d="M81.31 24.9c.18.71.67 1.15 1.51 1.15.95 0 1.33-.45 1.33-1.07 0-.63-.26-.93-1.45-1.23-1.37-.34-1.71-.77-1.71-1.5 0-.76.55-1.46 1.76-1.46s1.78.76 1.87 1.54h-.53c-.1-.46-.45-1.03-1.35-1.03-.93 0-1.19.47-1.19.91 0 .51.25.76 1.31 1.02 1.5.37 1.87.88 1.87 1.71 0 1-.79 1.62-1.91 1.62-1.21 0-1.9-.66-2.05-1.65Z"/><path d="M91.05 18.3c-.97 1.29-1.7 2.88-1.7 4.94 0 1.87.6 3.55 1.7 5.05h-.61c-.77-1.02-1.63-2.78-1.63-5.06 0-2.22.87-3.96 1.63-4.93Z"/><path d="M95.85 23.25c-.01-1.09-.59-1.95-1.63-1.95-1.1 0-1.6.79-1.71 1.95Zm-3.38.48c.01 1.42.7 2.3 1.73 2.3 1 0 1.34-.58 1.53-1.03h.54c-.23.73-.79 1.55-2.1 1.55-1.62 0-2.25-1.44-2.25-2.84 0-1.57.76-2.93 2.31-2.93 1.64 0 2.16 1.46 2.16 2.5 0 .15 0 .31-.01.45Z"/><path d="M97.58 26.42h.53V25h-.53Z" fill-rule="evenodd"/><path d="M99.87 23.65c0 1.31.67 2.25 1.69 2.25 1.33 0 1.74-.91 1.74-2.34 0-1.45-.43-2.26-1.7-2.26-1.23 0-1.73 1.09-1.73 2.34m3.93 2.4c0 1.76-.76 2.68-2.3 2.68-1.38 0-1.96-.8-2.09-1.64h.54c.19.76.8 1.12 1.56 1.12 1.39 0 1.77-.92 1.77-2.32v-.57c-.29.71-.81 1.1-1.78 1.1-1.25 0-2.2-1.04-2.2-2.75 0-1.85 1.02-2.88 2.28-2.88 1.09 0 1.55.53 1.7.97.01-.32.02-.7.03-.84h.5c0 .2-.02 1.07-.02 1.6Z"/><path d="M105.27 26.42h.53V25h-.53Z" fill-rule="evenodd"/><path d="M11.57 37.56c-.35 1.22-1.23 2.15-2.8 2.15-2.14 0-3.27-1.76-3.27-3.93 0-2.08 1.11-3.97 3.28-3.97 1.61 0 2.56.92 2.8 2.21h-.58c-.34-1-.97-1.66-2.26-1.66-1.85 0-2.63 1.75-2.63 3.41 0 1.65.77 3.39 2.67 3.39 1.21 0 1.83-.65 2.2-1.6Z"/><path d="M13.22 36.87c0 1.31.68 2.36 1.81 2.36 1.15 0 1.8-.98 1.8-2.36 0-1.3-.64-2.37-1.82-2.37-1.22 0-1.79 1.04-1.79 2.37m4.17-.01c0 1.53-.82 2.89-2.41 2.89-1.44 0-2.33-1.22-2.33-2.88 0-1.57.84-2.88 2.38-2.88 1.42 0 2.35 1.14 2.35 2.87"/><path d="M18.83 35.5c0-.48 0-.95-.01-1.39h.52c.02.18.03.89.02 1.04.24-.56.67-1.18 1.77-1.18.95 0 1.79.55 1.79 2.07v3.56h-.53V36.14c0-.98-.39-1.62-1.32-1.62-1.27 0-1.7 1.09-1.7 2.29v2.81h-.53Z"/><path d="M24.74 38.1c.18.71.67 1.15 1.51 1.15.95 0 1.33-.45 1.33-1.07 0-.63-.26-.93-1.45-1.23-1.38-.34-1.71-.77-1.71-1.5 0-.76.55-1.46 1.76-1.46s1.78.76 1.86 1.54h-.53c-.1-.46-.45-1.03-1.35-1.03-.93 0-1.19.47-1.19.91 0 .51.26.76 1.31 1.02 1.5.37 1.87.88 1.87 1.71 0 1-.79 1.62-1.91 1.62-1.21 0-1.9-.66-2.05-1.65Z"/><path d="M28.74 34.12h.99V32.4h.53v1.72h1.27v.52H30.27v3.58c0 .62.13.97.64.97.16 0 .38-.01.55-.07v.48c-.18.08-.44.1-.66.1-.68 0-1.07-.35-1.07-1.23V34.64h-.99Z"/><path d="M32.63 35.61c0-.92-.01-1.32-.01-1.5h.52c.01.18.02.53.02 1.23.31-.82.99-1.32 1.85-1.36v.59c-1.11.08-1.85.87-1.85 2.18v2.86h-.53Z"/><path d="M40.06 38.01c0 .54.01 1.4.01 1.61h-.51c-.02-.14-.03-.51-.03-.96-.22.65-.77 1.09-1.71 1.09-.77 0-1.75-.31-1.75-1.99V34.12h.52v3.51c0 .8.24 1.58 1.3 1.58 1.19 0 1.64-.69 1.64-2.27V34.12h.53Z"/><path d="M45.83 38c-.26.97-.87 1.75-2.07 1.75-1.33 0-2.28-1.02-2.28-2.86 0-1.51.78-2.9 2.34-2.9 1.35 0 1.91.99 2 1.76h-.54c-.16-.64-.56-1.24-1.47-1.24-1.13 0-1.77.99-1.77 2.37 0 1.31.6 2.37 1.71 2.37.78 0 1.25-.41 1.52-1.23Z"/><path d="M46.5 34.12h.99V32.4h.53v1.72h1.27v.52H48.02v3.58c0 .62.13.97.64.97.16 0 .38-.01.56-.07v.48c-.18.08-.44.1-.66.1-.68 0-1.07-.35-1.07-1.23V34.64H46.5Z"/><path d="M50.49 34.12h.53v5.5h-.53Zm0-2.61h.53v1.07h-.53Z"/><path d="M53.01 36.87c0 1.31.68 2.36 1.81 2.36 1.15 0 1.8-.98 1.8-2.36 0-1.3-.64-2.37-1.82-2.37-1.21 0-1.79 1.04-1.79 2.37m4.18-.01c0 1.53-.82 2.89-2.41 2.89-1.44 0-2.33-1.22-2.33-2.88 0-1.57.84-2.88 2.39-2.88 1.42 0 2.35 1.14 2.35 2.87"/><path d="M58.61 35.5c0-.48 0-.95-.01-1.39h.52c.02.18.03.89.02 1.04.23-.56.67-1.18 1.77-1.18.95 0 1.79.55 1.79 2.07v3.56h-.53V36.14c0-.98-.4-1.62-1.32-1.62-1.27 0-1.7 1.09-1.7 2.29v2.81h-.53Z"/><path d="M63.69 40.87c.52-1.07.71-2.05.75-2.66h.53c-.07.91-.41 2-.8 2.66Z"/><path d="M75.95 36.08c0-1.51.01-2.95.04-3.72h-.03c-.3 1.03-1.81 4.83-2.76 7.26h-.57c-.71-1.88-2.28-6.11-2.62-7.27H70c.05.88.08 2.67.08 3.99v3.28H69.5v-7.7h.86c1.02 2.64 2.31 6.1 2.59 6.96h.02c.17-.56 1.66-4.4 2.7-6.96h.85v7.7h-.57Z"/><path d="M78.83 39.62h.57v-7.7h-.57Z" fill-rule="evenodd"/><path d="M87.22 37.56c-.35 1.22-1.23 2.15-2.8 2.15-2.14 0-3.27-1.76-3.27-3.93 0-2.08 1.11-3.97 3.28-3.97 1.61 0 2.56.92 2.8 2.21h-.57c-.34-1-.97-1.66-2.26-1.66-1.85 0-2.63 1.75-2.63 3.41 0 1.65.77 3.39 2.67 3.39 1.21 0 1.83-.65 2.2-1.6Z"/><path d="M93.32 35.83h-3.8v3.23h4.16l-.08.55H88.94v-7.7h4.57v.55H89.51v2.82h3.8Z"/><path d="M94.65 40.87c.52-1.07.71-2.05.75-2.66h.53c-.07.91-.41 2-.8 2.66Z"/><path d="M101.04 35.71h2.06c1.2 0 1.7-.66 1.7-1.63 0-1.03-.66-1.62-1.66-1.62h-2.1Zm-.59-3.8h2.66c1.36 0 2.3.78 2.3 2.15 0 1.39-.93 2.2-2.38 2.2h-2v3.35h-.59Z"/><path d="M106.68 35.61c0-.92-.01-1.32-.01-1.5h.52c.01.18.02.53.02 1.23.31-.82.99-1.32 1.85-1.36v.59c-1.11.08-1.85.87-1.85 2.18v2.86h-.53Z"/><path d="M110.29 36.87c0 1.31.68 2.36 1.81 2.36 1.15 0 1.8-.98 1.8-2.36 0-1.3-.64-2.37-1.82-2.37-1.21 0-1.79 1.04-1.79 2.37m4.18-.01c0 1.53-.82 2.89-2.41 2.89-1.44 0-2.33-1.22-2.33-2.88 0-1.57.84-2.88 2.38-2.88 1.42 0 2.36 1.14 2.36 2.87"/><path d="M116.09 36.91c0 1.51.76 2.32 1.67 2.32 1.41 0 1.79-1 1.79-2.5 0-1.42-.33-2.23-1.69-2.23-1.05 0-1.77.87-1.77 2.41m3.97-5.4v6.52c0 .53 0 1.03.01 1.58h-.51c-.02-.13-.03-.65-.03-.93-.26.67-.86 1.06-1.79 1.06-1.38 0-2.21-1.17-2.21-2.82 0-1.69.9-2.95 2.35-2.95 1.07 0 1.49.47 1.65.82v-3.3Z"/><path d="M125.9 38.01c0 .54.01 1.4.01 1.61h-.51c-.02-.14-.03-.51-.03-.96-.22.65-.77 1.09-1.71 1.09-.77 0-1.75-.31-1.75-1.99V34.12h.52v3.51c0 .8.24 1.58 1.3 1.58 1.19 0 1.64-.69 1.64-2.27V34.12h.53Z"/><path d="M131.68 38c-.26.97-.87 1.75-2.07 1.75-1.33 0-2.28-1.02-2.28-2.86 0-1.51.78-2.9 2.34-2.9 1.35 0 1.91.99 2 1.76h-.54c-.16-.64-.56-1.24-1.47-1.24-1.13 0-1.77.99-1.77 2.37 0 1.31.6 2.37 1.71 2.37.78 0 1.25-.41 1.52-1.23Z"/><path d="M132.35 34.12h.99V32.4h.53v1.72h1.27v.52h-1.27v3.58c0 .62.13.97.64.97.16 0 .38-.01.55-.07v.48c-.18.08-.44.1-.66.1-.68 0-1.07-.35-1.07-1.23V34.64h-.99Z"/><path d="M5.92 52.82V47.84H5v-.52h.92v-.78c0-.93.26-1.94 1.45-1.94.16 0 .39.03.52.08v.53c-.16-.04-.42-.07-.57-.07-.63 0-.86.46-.86 1.42v.76H7.61v.52H6.45v4.98Z"/><path d="M8.7 50.07c0 1.31.68 2.36 1.81 2.36 1.15 0 1.8-.98 1.8-2.36 0-1.3-.64-2.37-1.82-2.37-1.21 0-1.79 1.05-1.79 2.37m4.17-.01c0 1.53-.82 2.89-2.41 2.89-1.44 0-2.33-1.22-2.33-2.88 0-1.57.84-2.88 2.39-2.88 1.42 0 2.35 1.15 2.35 2.87"/><path d="M14.5 50.07c0 1.31.68 2.36 1.81 2.36 1.15 0 1.8-.98 1.8-2.36 0-1.3-.64-2.37-1.82-2.37-1.21 0-1.79 1.05-1.79 2.37m4.18-.01c0 1.53-.82 2.89-2.41 2.89-1.44 0-2.33-1.22-2.33-2.88 0-1.57.84-2.88 2.39-2.88 1.42 0 2.35 1.15 2.35 2.87"/><path d="M19.31 47.32h.99V45.6h.53v1.72H22.1v.52H20.83v3.57c0 .62.13.97.64.97.16 0 .38-.01.55-.07v.48c-.18.08-.44.1-.66.1-.68 0-1.07-.35-1.07-1.23V47.84h-.99Z"/><path d="M27.17 49.95c0-1.28-.6-2.23-1.65-2.23-1.29 0-1.82.84-1.82 2.33 0 1.47.42 2.39 1.75 2.39 1.11 0 1.73-.97 1.73-2.49m-3.44 2.06v3.01h-.53V48.67c0-.45 0-.93-.01-1.35h.52c.02.21.02.54.02.99.33-.66.92-1.12 1.87-1.12 1.26 0 2.13 1.09 2.13 2.74 0 1.98-1.02 3.03-2.31 3.03-.94 0-1.43-.43-1.69-.94"/><path d="M29.17 48.81c0-.92-.01-1.32-.01-1.5h.52c.01.18.02.53.02 1.23.31-.82.99-1.32 1.85-1.36v.6c-1.11.08-1.85.87-1.85 2.18v2.86h-.53Z"/><path d="M32.64 47.32h.53v5.5h-.53Zm0-2.61h.53v1.07h-.53Z"/><path d="M35.03 48.7c0-.48 0-.95-.01-1.39h.52c.02.18.03.89.02 1.05.24-.56.67-1.18 1.77-1.18.95 0 1.79.55 1.79 2.07v3.56h-.53V49.34c0-.98-.39-1.62-1.32-1.62-1.27 0-1.7 1.09-1.7 2.29v2.8h-.53Z"/><path d="M40.14 47.32h.99V45.6h.53v1.72h1.27v.52H41.66v3.57c0 .62.13.97.64.97.16 0 .38-.01.55-.07v.48c-.18.08-.44.1-.66.1-.68 0-1.07-.35-1.07-1.23V47.84h-.99Z"/><path d="M43.9 54.69c.97-1.29 1.71-2.88 1.71-4.94 0-1.87-.6-3.55-1.71-5.05h.61c.77 1.02 1.63 2.78 1.63 5.06 0 2.22-.87 3.96-1.63 4.93Z"/><path d="M47.55 52.82h.53V51.4h-.53Z" fill-rule="evenodd"/></g></g></svg>