<?xml version="1.0" encoding="UTF-8"?><!DOCTYPE svg PUBLIC "-//W3C//DTD SVG 1.0//EN" "http://www.w3.org/TR/2001/REC-SVG-20010904/DTD/svg10.dtd" []><svg xmlns="http://www.w3.org/2000/svg" xmlns:xlink="http://www.w3.org/1999/xlink" height="20" stroke="#000" stroke-linecap="square" stroke-miterlimit="10" viewBox="0 0 189.4 19.52" width="189"><defs><clipPath id="a"><path d="M0 0V19.52H189.4V0Z"/></clipPath><clipPath clip-path="url(#a)" id="b"><path d="M-416.28 51.6H543.84v-540H-416.28Z"/></clipPath><clipPath clip-path="url(#b)" id="c"><path d="M-416.28 51.6H543.72v-540H-416.28Z"/></clipPath></defs><g><g fill="#fff" stroke="none"><path clip-path="url(#c)" d="M6.43 10.31c.06.69.5 1.13 1.37 1.13.75 0 1.17-.27 1.17-.9 0-.53-.33-.82-1.25-1.13-1.4-.48-1.92-1.04-1.92-1.91 0-1.11.78-2.06 2.53-2.06 1.6 0 2.47.82 2.49 2.03H9.4c-.03-.42-.22-.93-1.12-.93-.58 0-1.02.26-1.02.8 0 .38.22.62 1.11.93 1.4.49 2.09 1.05 2.09 2.09 0 1.1-.67 2.16-2.79 2.16-1.72 0-2.63-.87-2.67-2.22Z"/><path clip-path="url(#c)" d="M13.59 6.69H11.58l.25-1.15h5.42L17 6.69H14.99l-1.21 5.74H12.38Z"/><path clip-path="url(#c)" d="M20.36 8.29c.7 0 1.22-.25 1.22-.9 0-.61-.47-.75-.92-.75H19.51l-.35 1.65Zm-1.85 3.05h1.36c.76 0 1.33-.35 1.33-1.07 0-.55-.31-.89-1.16-.89H18.93Zm-.16-5.8h2.63c1.38 0 2.04.74 2.04 1.71 0 .76-.43 1.41-1.22 1.67.47.2.88.73.88 1.35 0 1.39-1.09 2.15-2.7 2.15H16.9Z"/><path clip-path="url(#c)" d="M27.68 5.48h.87l-1.32 6.22h3.48l-.26.74H26.21Z"/><path clip-path="url(#c)" d="M33.2 5.09h.83L33.8 6.19h-.83Zm-.48 2.27h.83l-1.07 5.07h-.83Z"/><path clip-path="url(#c)" d="M34.81 10.91c.06.53.38.95 1.18.95.68 0 1.04-.34 1.04-.82 0-.47-.33-.69-1.05-.96-1.09-.38-1.43-.77-1.43-1.35 0-.79.6-1.47 1.83-1.47 1.31 0 1.81.74 1.79 1.46h-.84c-.04-.36-.2-.8-1.02-.8-.53 0-.91.26-.91.72 0 .36.29.52 1.01.79 1.07.38 1.5.8 1.5 1.51 0 1.01-.81 1.59-2.02 1.59-1.29 0-1.91-.67-1.9-1.62Z"/><path clip-path="url(#c)" d="M39.07 7.36h.84l.31-1.46h.82l-.31 1.46h1.08l-.15.68H40.58l-.64 3.07c-.1.46-.07.69.36.69.15 0 .35-.01.5-.04l-.15.65c-.24.08-.48.09-.7.09-.8 0-1.05-.39-.87-1.23l.68-3.22h-.84Z"/><path clip-path="url(#c)" d="M45.74 9.7c0 1.18.57 2.1 1.84 2.1 1.81 0 2.67-1.88 2.67-3.57 0-1.26-.6-2.13-1.82-2.13-1.83 0-2.7 1.97-2.7 3.6m5.41-1.45c0 2.03-1.14 4.28-3.68 4.28-1.71 0-2.63-1.17-2.63-2.8 0-2.05 1.22-4.35 3.66-4.35 1.73 0 2.66 1.13 2.66 2.88"/><path clip-path="url(#c)" d="M52.05 12.44l.92-4.39h-.81l.15-.68h.81l.16-.72c.2-.93.68-1.65 1.69-1.65.24 0 .48.04.58.08l-.15.7c-.1-.03-.29-.05-.41-.05-.48 0-.75.31-.88.92l-.15.71h1l-.15.68h-1l-.92 4.39Z"/><path clip-path="url(#c)" d="M63.39 10.37c-.49 1.31-1.39 2.14-3.03 2.14-1.76 0-2.53-1.22-2.53-2.79 0-2.05 1.13-4.35 3.55-4.35 1.49 0 2.38.84 2.45 2.21h-.9c-.07-.86-.56-1.48-1.64-1.48-1.67 0-2.53 1.84-2.53 3.6 0 1.13.48 2.09 1.71 2.09.92 0 1.57-.46 2-1.42Z"/><path clip-path="url(#c)" d="M68.02 9.39c.03-.13.03-.25.03-.37 0-.69-.32-1.09-1.05-1.09-.77 0-1.33.53-1.59 1.46Zm-2.75.63c-.03.2-.04.31-.04.48 0 .85.4 1.34 1.12 1.34.74 0 1.08-.41 1.31-.84h.86c-.33.79-.95 1.53-2.26 1.53-1.27 0-1.86-.84-1.86-2.01 0-1.43.78-3.26 2.65-3.26 1.36 0 1.81.89 1.81 1.81 0 .32-.03.61-.13.95Z"/><path clip-path="url(#c)" d="M70.3 8.86c.1-.5.21-1.03.29-1.5h.8c-.01.13-.09.64-.19 1.07.37-.72 1.01-1.17 1.78-1.17l-.18.86c-.97.07-1.69.8-1.93 1.93l-.5 2.37h-.83Z"/><path clip-path="url(#c)" d="M73.72 7.36h.84l.31-1.46h.82l-.31 1.46h1.08l-.15.68H75.23l-.64 3.07c-.1.46-.08.69.36.69.15 0 .35-.01.5-.04l-.15.65c-.24.08-.48.09-.71.09-.8 0-1.05-.39-.87-1.23l.68-3.22h-.84Z"/><path clip-path="url(#c)" d="M78.02 5.09h.83l-.23 1.09h-.83Zm-.48 2.27h.83L77.3 12.43h-.83Z"/><path clip-path="url(#c)" d="M79.14 12.44l.92-4.39h-.81l.15-.68h.81l.16-.72c.2-.93.68-1.65 1.69-1.65.24 0 .48.04.58.08l-.15.7c-.1-.03-.29-.05-.41-.05-.48 0-.75.31-.88.92l-.15.71h1l-.15.68h-1l-.92 4.39Z"/><path clip-path="url(#c)" d="M83.53 5.09h.83l-.23 1.09H83.3Zm-.48 2.27h.83L82.8 12.43h-.83Z"/><path clip-path="url(#c)" d="M88.17 9.39c.03-.13.03-.25.03-.37 0-.69-.33-1.09-1.05-1.09-.77 0-1.33.53-1.59 1.46Zm-2.75.63c-.03.2-.04.31-.04.48 0 .85.4 1.34 1.12 1.34.74 0 1.08-.41 1.31-.84h.86c-.33.79-.95 1.53-2.27 1.53-1.27 0-1.86-.84-1.86-2.01 0-1.43.78-3.26 2.65-3.26 1.36 0 1.81.89 1.81 1.81 0 .32-.03.61-.13.95Z"/><path clip-path="url(#c)" d="M90.72 10.48c0 .9.4 1.32 1.06 1.32 1.05 0 1.6-.95 1.82-2.07.22-1.06-.1-1.74-1.08-1.74-1.18 0-1.8 1.38-1.8 2.49m4.65-5.39l-1.25 5.93c-.1.48-.2.96-.28 1.41h-.8c.01-.15.07-.48.14-.8-.34.53-.84.9-1.68.9-1.09 0-1.64-.82-1.64-1.97 0-1.49.89-3.3 2.65-3.3.86 0 1.31.46 1.41.79l.63-2.96Z"/><path clip-path="url(#c)" d="M103.21 9.13H99.96l-.53 2.56h3.71l-.27.74H98.41l1.47-6.95h4.28l-.15.74h-3.42l-.47 2.18h3.24Z"/><path clip-path="url(#c)" d="M108.35 10.91c-.35.97-1.05 1.62-2.25 1.62-1.24 0-1.84-.81-1.84-1.98 0-1.52.85-3.28 2.62-3.28 1.43 0 1.83 1.03 1.77 1.72h-.81c-.02-.57-.27-1.04-1.01-1.04-1.17 0-1.71 1.45-1.71 2.55 0 .96.43 1.36 1.1 1.36.58 0 1.02-.35 1.3-.94Z"/><path clip-path="url(#c)" d="M110.23 10.48c0 .85.4 1.35 1.14 1.35 1.22 0 1.75-1.45 1.75-2.51 0-.86-.37-1.37-1.14-1.37-1.17 0-1.75 1.44-1.75 2.53m3.75-1.13c0 1.34-.76 3.17-2.7 3.17-1.22 0-1.9-.78-1.9-2.04 0-1.4.86-3.22 2.68-3.22 1.16 0 1.92.75 1.92 2.09"/><path clip-path="url(#c)" d="M117.91 9.5l-.16.76h-2.52l.16-.76Z"/><path clip-path="url(#c)" d="M120.12 5.48h4.28l-.16.74h-3.42l-.49 2.33h3.2l-.16.74h-3.2l-.66 3.15h-.87Z"/><path clip-path="url(#c)" d="M124.67 8.86c.1-.5.21-1.03.29-1.5h.8c-.01.13-.09.64-.19 1.07.37-.72 1.01-1.17 1.78-1.17l-.18.86c-.97.07-1.69.8-1.93 1.93l-.5 2.37h-.83Z"/><path clip-path="url(#c)" d="M128.96 5.09h.83l-.23 1.09h-.83Zm-.48 2.27h.83l-1.07 5.07h-.83Z"/><path clip-path="url(#c)" d="M133.6 9.39c.03-.13.03-.25.03-.37 0-.69-.33-1.09-1.06-1.09-.77 0-1.33.53-1.59 1.46Zm-2.75.63c-.03.2-.04.31-.04.48 0 .85.41 1.34 1.12 1.34.74 0 1.08-.41 1.31-.84h.86c-.33.79-.95 1.53-2.27 1.53-1.27 0-1.86-.84-1.86-2.01 0-1.43.78-3.26 2.65-3.26 1.36 0 1.81.89 1.81 1.81 0 .32-.03.61-.13.95Z"/><path clip-path="url(#c)" d="M135.92 8.65c.09-.44.18-.87.25-1.29h.81c-.02.16-.12.73-.15.86.29-.46.78-.96 1.7-.96.97 0 1.57.56 1.26 2l-.67 3.17h-.82l.66-3.14c.17-.77-.01-1.29-.78-1.29-.94 0-1.48.86-1.7 1.9l-.54 2.53h-.83Z"/><path clip-path="url(#c)" d="M141.75 10.48c0 .9.4 1.32 1.06 1.32 1.05 0 1.6-.95 1.82-2.07.22-1.06-.1-1.74-1.08-1.74-1.18 0-1.8 1.38-1.8 2.49m4.65-5.39l-1.25 5.93c-.1.48-.2.96-.28 1.41h-.8c.01-.15.07-.48.14-.8-.34.53-.84.9-1.68.9-1.09 0-1.64-.82-1.64-1.97 0-1.49.89-3.3 2.65-3.3.86 0 1.31.46 1.41.79l.63-2.96Z"/><path clip-path="url(#c)" d="M146.5 12.43l1.55-7.34h.83l-1.55 7.34Z"/><path clip-path="url(#c)" d="M150.36 7.36c.31 2.25.51 3.92.54 4.42h.01c.29-.55.92-1.96 2.22-4.42h.88l-2.82 5.35c-.88 1.67-1.36 1.81-2.28 1.81-.21 0-.46-.03-.58-.06l.18-.73c.11.02.22.05.46.05.66 0 .9-.28 1.35-1.06l-.78-5.35Z"/><path clip-path="url(#c)" d="M158.55 5.48h.87l-.61 2.87h3.5l.61-2.87h.87l-1.47 6.95h-.87l.7-3.35h-3.5l-.7 3.35h-.87Z"/><path clip-path="url(#c)" d="M165.1 10.48c0 .85.4 1.35 1.14 1.35 1.22 0 1.75-1.45 1.75-2.51 0-.86-.37-1.37-1.14-1.37-1.17 0-1.75 1.44-1.75 2.53m3.75-1.13c0 1.34-.76 3.17-2.7 3.17-1.23 0-1.9-.78-1.9-2.04 0-1.4.86-3.22 2.68-3.22 1.15 0 1.92.75 1.92 2.09"/><path clip-path="url(#c)" d="M169.96 7.36h.84l.31-1.46h.82l-.31 1.46h1.08l-.15.68h-1.08l-.64 3.07c-.1.46-.08.69.36.69.15 0 .34-.01.5-.04l-.15.65c-.24.08-.48.09-.71.09-.8 0-1.05-.39-.87-1.23l.68-3.22h-.84Z"/><path clip-path="url(#c)" d="M176.37 9.39c.03-.13.03-.25.03-.37 0-.69-.33-1.09-1.06-1.09-.77 0-1.33.53-1.59 1.46Zm-2.75.63c-.03.2-.04.31-.04.48 0 .85.41 1.34 1.12 1.34.74 0 1.08-.41 1.31-.84h.86c-.33.79-.95 1.53-2.27 1.53-1.27 0-1.86-.84-1.86-2.01 0-1.43.78-3.26 2.65-3.26 1.36 0 1.81.89 1.81 1.81 0 .32-.03.61-.13.95Z"/><path clip-path="url(#c)" d="M177.89 12.43l1.55-7.34h.83l-1.55 7.34Z"/><path clip-path="url(#c)" d="M181.05 10.91c.06.53.38.95 1.18.95.68 0 1.03-.34 1.03-.82 0-.47-.33-.69-1.05-.96-1.09-.38-1.43-.77-1.43-1.35 0-.79.6-1.47 1.83-1.47 1.31 0 1.81.74 1.79 1.46h-.84c-.04-.36-.2-.8-1.02-.8-.53 0-.91.26-.91.72 0 .36.29.52 1.01.79 1.07.38 1.5.8 1.5 1.51 0 1.01-.81 1.59-2.02 1.59-1.29 0-1.91-.67-1.9-1.62Z"/></g></g></svg>