<?xml version="1.0" encoding="UTF-8"?><!DOCTYPE svg PUBLIC "-//W3C//DTD SVG 1.0//EN" "http://www.w3.org/TR/2001/REC-SVG-20010904/DTD/svg10.dtd" []><svg xmlns="http://www.w3.org/2000/svg" xmlns:xlink="http://www.w3.org/1999/xlink" height="44" stroke="#000" stroke-linecap="square" stroke-miterlimit="10" viewBox="0 0 214.43 44.08" width="214"><g><g fill="#fff" stroke="none"><path d="M7.09 24.74c.75 3.33 2.97 5.29 7.09 5.29 4.57 0 6.32-2.28 6.32-4.99 0-2.83-1.26-4.57-6.77-5.93-5.36-1.34-7.65-3.08-7.65-6.71 0-3.33 2.43-6.42 7.84-6.42 5.57 0 7.91 3.39 8.24 6.46H20.06c-.57-2.67-2.31-4.61-6.26-4.61-3.61 0-5.57 1.68-5.57 4.46 0 2.75 1.64 3.82 6.27 4.97 7.09 1.76 8.15 4.6 8.15 7.64 0 3.72-2.71 6.93-8.56 6.93-6.3 0-8.62-3.66-9.1-7.07Z"/><path d="M41.1 26.27c0 1.76.03 4.55.04 5.26h-1.8c-.07-.47-.11-1.65-.11-3.11-.76 2.12-2.6 3.54-5.78 3.54-2.62 0-5.91-1.04-5.91-6.52V13.51h1.84V24.99c0 2.61.82 5.15 4.36 5.15 3.99 0 5.49-2.25 5.49-7.36V13.51H41.1Z"/><path d="M47.2 26.54c.61 2.32 2.25 3.71 5.08 3.71 3.17 0 4.46-1.46 4.46-3.45 0-2.03-.86-3.03-4.86-3.99-4.68-1.12-5.82-2.54-5.82-4.92 0-2.49 1.87-4.81 5.97-4.81s6.04 2.5 6.33 5.05H56.48c-.32-1.49-1.49-3.35-4.54-3.35-3.1 0-3.99 1.53-3.99 2.96 0 1.64.86 2.46 4.41 3.32 5.1 1.23 6.35 2.89 6.35 5.6 0 3.27-2.66 5.3-6.48 5.3-4.14 0-6.44-2.17-6.94-5.41Z"/><path d="M60.74 13.51h3.34V7.91h1.87v5.6h4.27v1.74H65.95V26.9c0 2 .43 3.14 2.16 3.14.53 0 1.28-.04 1.86-.21v1.63c-.62.25-1.5.32-2.26.32-2.33 0-3.63-1.17-3.63-4.06V15.25H60.74Z"/><path d="M84.84 22.36h-3.5c-3.98 0-6.43 1.04-6.43 4.11 0 2.25 1.6 3.79 4.11 3.79 5.11 0 5.82-3.39 5.82-7.25Zm1.83 5.71c0 1.59.15 2.88.25 3.45h-1.8c-.14-.43-.25-1.23-.32-2.75-.61 1.33-2.19 3.18-5.89 3.18-4.18 0-5.98-2.71-5.98-5.41 0-3.96 3.07-5.77 8.47-5.77h3.4V18.96c0-1.79-.54-4.18-4.61-4.18-3.6 0-4.14 1.89-4.53 3.36H73.8c.22-2.01 1.46-5.06 6.44-5.06 4.12 0 6.44 1.73 6.44 5.7Z"/><path d="M92.94 13.51h1.87V31.52H92.94Zm0-8.51h1.87V8.52H92.94Z"/><path d="M101.04 18.05c0-1.58 0-3.1-.04-4.54h1.83c.07.57.11 2.89.08 3.4.79-1.82 2.26-3.83 5.96-3.83 3.21 0 6.05 1.82 6.05 6.78V31.52h-1.87V20.15c0-3.18-1.32-5.26-4.43-5.26-4.24 0-5.71 3.51-5.71 7.42v9.21h-1.87Z"/><path d="M131.53 22.36h-3.5c-3.98 0-6.43 1.04-6.43 4.11 0 2.25 1.6 3.79 4.11 3.79 5.11 0 5.82-3.39 5.82-7.25Zm1.83 5.71c0 1.59.14 2.88.25 3.45h-1.8c-.14-.43-.25-1.23-.32-2.75-.61 1.33-2.19 3.18-5.89 3.18-4.18 0-5.98-2.71-5.98-5.41 0-3.96 3.07-5.77 8.47-5.77h3.4V18.96c0-1.79-.54-4.18-4.61-4.18-3.6 0-4.14 1.89-4.54 3.36h-1.87c.22-2.01 1.46-5.06 6.44-5.06 4.12 0 6.44 1.73 6.44 5.7Z"/><path d="M153.05 22.16c0-4.47-2.21-7.33-5.61-7.33-4.47 0-6.04 3.03-6.04 7.73 0 4.22 1.39 7.66 5.82 7.66 3.61 0 5.83-3.01 5.83-8.05M139.63 5h1.87V16.51c.86-1.79 2.62-3.43 6.14-3.43 4.26 0 7.38 3.51 7.38 9.04 0 5.68-2.81 9.83-7.85 9.83-3.02 0-4.74-1.22-5.67-3.25 0 1.14-.04 2.32-.07 2.82H139.6c.04-2.05.04-4.1.04-6.15Z"/><path d="M159.97 13.51h1.87V31.52h-1.87Zm0-8.51h1.87V8.52h-1.87Z"/><path d="M168.07 31.52h1.87V5h-1.87Z" fill-rule="evenodd"/><path d="M176.17 13.51h1.87V31.52h-1.87Zm0-8.51h1.87V8.52h-1.87Z"/><path d="M181.85 13.51h3.34V7.91h1.87v5.6h4.27v1.74h-4.27V26.9c0 2 .43 3.14 2.15 3.14.53 0 1.29-.04 1.86-.21v1.63c-.62.25-1.5.32-2.26.32-2.33 0-3.63-1.17-3.63-4.06V15.25h-3.34Z"/><path d="M196.06 13.51c3.6 10.21 5.18 14.49 5.79 16.43h.04c.71-2.19 2.15-6.36 5.61-16.43h1.94l-6.76 19.05c-1.91 5.33-3.21 6.52-6.47 6.52-.64 0-1.09-.04-1.67-.11V37.12c.54.07 1.04.11 1.61.11 2.58 0 3.41-1.25 4.73-4.92L194 13.51Z"/></g></g></svg>