<?xml version="1.0" encoding="UTF-8"?><!DOCTYPE svg PUBLIC "-//W3C//DTD SVG 1.0//EN" "http://www.w3.org/TR/2001/REC-SVG-20010904/DTD/svg10.dtd" []><svg xmlns="http://www.w3.org/2000/svg" xmlns:xlink="http://www.w3.org/1999/xlink" height="41" stroke="#000" stroke-linecap="square" stroke-miterlimit="10" viewBox="0 0 525.7 41.26" width="526"><g><g fill="#fff" stroke="none"><path d="M7.63 15.32L5 5.52h.76c.64 2.35 2.08 7.77 2.29 8.92h.01c.18-.91 1.74-6.33 2.4-8.92h.81c.62 2.4 2.14 8.15 2.29 8.91h.01c.3-1.39 1.89-6.57 2.54-8.91h.75l-2.9 9.81h-.84c-.62-2.31-2.1-7.98-2.26-8.83h-.01c-.24 1.27-1.71 6.39-2.39 8.83Z"/><path d="M22.3 11.29c-.01-1.39-.75-2.48-2.07-2.48-1.4 0-2.04 1.01-2.19 2.48Zm-4.3.62c.01 1.81.89 2.93 2.2 2.93 1.28 0 1.71-.74 1.95-1.32h.69c-.29.92-1 1.98-2.67 1.98-2.06 0-2.86-1.84-2.86-3.61 0-2 .96-3.73 2.94-3.73 2.09 0 2.75 1.86 2.75 3.18 0 .2 0 .39-.01.57Z"/><path d="M27.96 10.13c0-.6 0-1.26-.01-1.81h.66c.01.24.04.84.03 1.25.28-.7.91-1.41 2.03-1.41.95 0 1.7.49 1.97 1.39.34-.73 1.02-1.39 2.21-1.39 1.05 0 2.13.62 2.13 2.56v4.61H36.3V10.8c0-.94-.33-1.96-1.59-1.96-1.32 0-1.91 1.09-1.91 2.45v4.03h-.66V10.81c0-1.02-.3-1.98-1.55-1.98-1.32 0-1.95 1.21-1.95 2.63v3.85h-.68Z"/><path d="M43.24 11.75H41.91c-1.51 0-2.44.41-2.44 1.61 0 .88.61 1.49 1.56 1.49 1.94 0 2.21-1.33 2.21-2.84Zm.66 2.24c0 .62.05 1.11.1 1.33h-.65c-.05-.17-.09-.48-.12-1.08-.23.52-.83 1.25-2.22 1.25-1.58 0-2.25-1.05-2.25-2.1 0-1.54 1.15-2.24 3.19-2.24h1.29v-.71c0-.7-.2-1.64-1.75-1.64-1.37 0-1.57.74-1.72 1.32h-.68c.08-.77.54-1.96 2.41-1.96 1.55 0 2.41.67 2.41 2.21Z"/><path d="M46.27 8.32h.68v7h-.68Zm0-3.32h.68V6.36h-.68Z"/><path d="M49.31 10.08c0-.62 0-1.2-.01-1.77h.66c.03.22.04 1.14.03 1.33.3-.71.85-1.5 2.25-1.5 1.21 0 2.28.7 2.28 2.63v4.54h-.68V10.9c0-1.25-.5-2.06-1.68-2.06-1.61 0-2.17 1.39-2.17 2.91v3.57h-.68Z"/><path d="M55.81 8.32h1.26V6.13h.68V8.32h1.62v.66H57.75v4.55c0 .78.16 1.23.82 1.23.2 0 .49-.01.7-.08v.62c-.23.1-.56.13-.84.13-.87 0-1.36-.45-1.36-1.57V8.98H55.81Z"/><path d="M64.87 11.75H63.55c-1.51 0-2.44.41-2.44 1.61 0 .88.61 1.49 1.56 1.49 1.94 0 2.21-1.33 2.21-2.84Zm.66 2.24c0 .62.05 1.11.1 1.33h-.65c-.05-.17-.09-.48-.12-1.08-.23.52-.83 1.25-2.22 1.25-1.57 0-2.25-1.05-2.25-2.1 0-1.54 1.15-2.24 3.19-2.24h1.29v-.71c0-.7-.2-1.64-1.75-1.64-1.37 0-1.57.74-1.72 1.32h-.68c.08-.77.54-1.96 2.42-1.96 1.55 0 2.41.67 2.41 2.21Z"/><path d="M67.91 8.32h.68v7h-.68Zm0-3.32h.68V6.36h-.68Z"/><path d="M70.95 10.08c0-.62 0-1.2-.01-1.77h.67c.03.22.04 1.14.03 1.33.3-.71.86-1.5 2.25-1.5 1.21 0 2.28.7 2.28 2.63v4.54h-.68V10.9c0-1.25-.5-2.06-1.68-2.06-1.61 0-2.17 1.39-2.17 2.91v3.57h-.68Z"/><path d="M81.67 13.39c.23.91.85 1.46 1.92 1.46 1.21 0 1.7-.58 1.7-1.36 0-.8-.32-1.19-1.84-1.57-1.75-.43-2.18-.98-2.18-1.9 0-.97.71-1.86 2.24-1.86s2.27.97 2.37 1.96H85.2c-.12-.59-.57-1.32-1.72-1.32-1.18 0-1.52.6-1.52 1.16 0 .64.33.97 1.67 1.3 1.91.48 2.39 1.12 2.39 2.17 0 1.27-1 2.06-2.43 2.06-1.55 0-2.41-.84-2.6-2.1Z"/><path d="M86.77 8.32h1.26V6.13h.68V8.32h1.61v.66H88.71v4.55c0 .78.16 1.23.81 1.23.2 0 .49-.01.71-.08v.62c-.23.1-.56.13-.84.13-.87 0-1.36-.45-1.36-1.57V8.98H86.77Z"/><path d="M91.72 10.22c0-1.18-.01-1.68-.01-1.9h.67c.01.22.03.67.03 1.57.39-1.05 1.26-1.68 2.36-1.74v.76c-1.41.1-2.36 1.11-2.36 2.77v3.64h-.68Z"/><path d="M96.31 11.82c0 1.67.87 3.01 2.31 3.01 1.46 0 2.29-1.25 2.29-3.01 0-1.65-.82-3.01-2.32-3.01-1.55 0-2.28 1.33-2.28 3.01m5.32-.01c0 1.95-1.05 3.68-3.07 3.68-1.83 0-2.97-1.56-2.97-3.67 0-2 1.07-3.67 3.04-3.67 1.8 0 3 1.46 3 3.66"/><path d="M103.44 10.08c0-.62 0-1.2-.01-1.77h.66c.03.22.04 1.14.03 1.33.3-.71.85-1.5 2.25-1.5 1.21 0 2.28.7 2.28 2.63v4.54h-.68V10.9c0-1.25-.5-2.06-1.68-2.06-1.61 0-2.17 1.39-2.17 2.91v3.57h-.68Z"/><path d="M111.18 11.79c0 1.67.86 2.87 2.16 2.87 1.7 0 2.21-1.16 2.21-2.98 0-1.85-.54-2.87-2.17-2.87-1.56 0-2.2 1.39-2.2 2.98m5.01 3.05c0 2.24-.96 3.42-2.93 3.42-1.76 0-2.5-1.02-2.66-2.09h.69c.24.97 1.02 1.43 1.99 1.43 1.76 0 2.25-1.18 2.25-2.96v-.73c-.37.91-1.03 1.4-2.27 1.4-1.59 0-2.81-1.33-2.81-3.5 0-2.35 1.3-3.67 2.9-3.67 1.38 0 1.98.67 2.17 1.23.01-.4.03-.9.04-1.06h.64c0 .25-.03 1.36-.03 2.03Z"/><path d="M121.71 10.22c0-1.18-.01-1.68-.01-1.9h.67c.01.22.03.67.03 1.57.39-1.05 1.26-1.68 2.36-1.74v.76c-1.41.1-2.36 1.11-2.36 2.77v3.64h-.68Z"/><path d="M130.57 11.29c-.01-1.39-.75-2.48-2.08-2.48-1.4 0-2.03 1.01-2.18 2.48Zm-4.3.62c.01 1.81.9 2.93 2.2 2.93 1.28 0 1.71-.74 1.95-1.32h.69c-.29.92-1 1.98-2.67 1.98-2.06 0-2.86-1.84-2.86-3.61 0-2 .96-3.73 2.94-3.73 2.09 0 2.75 1.86 2.75 3.18 0 .2 0 .39-.01.57Z"/><path d="M133.12 15.32h.68V5h-.68Z" fill-rule="evenodd"/><path d="M140.05 11.75h-1.33c-1.51 0-2.44.41-2.44 1.61 0 .88.61 1.49 1.56 1.49 1.94 0 2.21-1.33 2.21-2.84Zm.66 2.24c0 .62.05 1.11.1 1.33h-.65c-.05-.17-.09-.48-.12-1.08-.23.52-.83 1.25-2.22 1.25-1.58 0-2.25-1.05-2.25-2.1 0-1.54 1.15-2.24 3.19-2.24h1.29v-.71c0-.7-.2-1.64-1.75-1.64-1.37 0-1.57.74-1.72 1.32h-.68c.08-.77.54-1.96 2.41-1.96 1.55 0 2.41.67 2.41 2.21Z"/><path d="M142 8.32h1.26V6.13h.68V8.32h1.61v.66h-1.61v4.55c0 .78.16 1.23.81 1.23.2 0 .49-.01.7-.08v.62c-.23.1-.56.13-.84.13-.87 0-1.36-.45-1.36-1.57V8.98H142Z"/><path d="M147.07 8.32h.68v7h-.68Zm0-3.32h.68V6.36h-.68Z"/><path d="M150.28 11.82c0 1.67.87 3.01 2.31 3.01 1.46 0 2.29-1.25 2.29-3.01 0-1.65-.82-3.01-2.32-3.01-1.55 0-2.28 1.33-2.28 3.01m5.32-.01c0 1.95-1.04 3.68-3.07 3.68-1.83 0-2.97-1.56-2.97-3.67 0-2 1.07-3.67 3.04-3.67 1.8 0 3 1.46 3 3.66"/><path d="M157.42 10.08c0-.62 0-1.2-.01-1.77h.67c.03.22.04 1.14.03 1.33.3-.71.85-1.5 2.25-1.5 1.21 0 2.28.7 2.28 2.63v4.54h-.68V10.9c0-1.25-.5-2.06-1.68-2.06-1.62 0-2.17 1.39-2.17 2.91v3.57h-.68Z"/><path d="M164.94 13.39c.23.91.85 1.46 1.93 1.46 1.21 0 1.7-.58 1.7-1.36 0-.8-.33-1.19-1.85-1.57-1.75-.43-2.18-.98-2.18-1.9 0-.97.71-1.86 2.24-1.86s2.27.97 2.37 1.96h-.68c-.12-.59-.57-1.32-1.72-1.32-1.18 0-1.52.6-1.52 1.16 0 .64.33.97 1.67 1.3 1.91.48 2.39 1.12 2.39 2.17 0 1.27-1 2.06-2.43 2.06-1.55 0-2.41-.84-2.6-2.1Z"/><path d="M171.66 5V9.5c.38-.73 1.04-1.35 2.24-1.35.96 0 2.29.5 2.29 2.72v4.46h-.68V11.01c0-1.39-.61-2.17-1.74-2.17-1.34 0-2.12.86-2.12 2.58v3.91h-.68V5Z"/><path d="M178.55 8.32h.68v7h-.68Zm0-3.32h.68V6.36h-.68Z"/><path d="M186.65 11.67c0-1.62-.76-2.84-2.1-2.84-1.64 0-2.32 1.06-2.32 2.97 0 1.88.53 3.04 2.22 3.04 1.41 0 2.2-1.23 2.2-3.16m-4.38 2.62v3.84h-.68V10.04c0-.57 0-1.19-.01-1.72h.66c.03.27.03.69.03 1.26.42-.84 1.17-1.43 2.39-1.43 1.6 0 2.71 1.39 2.71 3.49 0 2.52-1.3 3.85-2.95 3.85-1.19 0-1.82-.55-2.16-1.21"/><path d="M189.33 13.39c.23.91.85 1.46 1.93 1.46 1.21 0 1.69-.58 1.69-1.36 0-.8-.32-1.19-1.84-1.57-1.75-.43-2.18-.98-2.18-1.9 0-.97.7-1.86 2.24-1.86s2.27.97 2.37 1.96h-.68c-.12-.59-.57-1.32-1.72-1.32-1.18 0-1.52.6-1.52 1.16 0 .64.33.97 1.67 1.3 1.91.48 2.39 1.12 2.39 2.17 0 1.27-1 2.06-2.43 2.06-1.55 0-2.41-.84-2.6-2.1Z"/><path d="M198.66 8.32c1 3.61 1.59 5.69 1.7 6.3h.01c.11-.56.79-2.76 1.85-6.3h.73c1.26 4.33 1.64 5.58 1.76 6.12h.01c.19-.77.5-1.82 1.75-6.12h.72l-2.14 7h-.75c-.73-2.48-1.61-5.52-1.75-6.16h-.01c-.14.69-.91 3.19-1.79 6.16h-.81l-1.99-7Z"/><path d="M208.76 8.32h.68v7h-.68Zm0-3.32h.68V6.36h-.68Z"/><path d="M210.87 8.32h1.26V6.13h.68V8.32h1.61v.66h-1.61v4.55c0 .78.16 1.23.81 1.23.2 0 .49-.01.71-.08v.62c-.23.1-.56.13-.84.13-.87 0-1.36-.45-1.36-1.57V8.98h-1.26Z"/><path d="M216.58 5V9.5c.38-.73 1.04-1.35 2.24-1.35.96 0 2.29.5 2.29 2.72v4.46h-.68V11.01c0-1.39-.61-2.17-1.74-2.17-1.34 0-2.12.86-2.12 2.58v3.91h-.68V5Z"/><path d="M232.29 13.04c-.26 1.21-1.07 2.45-3.05 2.45-2.09 0-3.23-1.51-3.23-3.72 0-2.1 1.21-3.82 3.32-3.82 2.24 0 2.9 1.65 2.96 2.51h-1.65c-.14-.63-.5-1.12-1.34-1.12-1 0-1.57.9-1.57 2.37 0 1.57.58 2.4 1.55 2.4.73 0 1.14-.43 1.35-1.08Z"/><path d="M233.72 10.08c0-.81-.01-1.43-.01-1.95h1.65c.02.17.05.84.05 1.33.33-.87 1.1-1.49 2.27-1.5V9.63c-1.41-.01-2.27.51-2.27 2.43v3.26h-1.69Z"/><path d="M243.18 10.97c-.01-.95-.42-1.74-1.45-1.74s-1.46.73-1.55 1.74Zm-3.03 1.11c0 1.09.53 2.02 1.57 2.02.9 0 1.18-.42 1.37-.89h1.69c-.26.9-1.01 2.27-3.11 2.27-2.26 0-3.22-1.8-3.22-3.67 0-2.22 1.1-3.86 3.29-3.86 2.35 0 3.14 1.81 3.14 3.52 0 .23 0 .4-.02.6Z"/><path d="M250.33 11.97h-.9c-1.24 0-1.78.38-1.78 1.18 0 .6.37 1.07 1.12 1.07 1.38 0 1.55-.98 1.55-2.05Zm1.64 1.59c0 .67.05 1.58.1 1.76h-1.61c-.05-.15-.1-.52-.1-.78-.25.43-.75.95-2.02.95-1.67 0-2.38-1.13-2.38-2.24 0-1.63 1.26-2.38 3.31-2.38h1.06v-.5c0-.55-.18-1.15-1.22-1.15-.93 0-1.12.44-1.22.97h-1.61c.1-1.18.81-2.26 2.89-2.24 1.81.01 2.8.75 2.8 2.44Z"/><path d="M253.1 8.12h1.12V6.12h1.69V8.12h1.42V9.46H255.9v3.78c0 .6.16.86.76.86.13 0 .33 0 .5-.03v1.22c-.35.13-.84.14-1.21.14-1.27 0-1.73-.69-1.73-1.93V9.46H253.1Z"/><path d="M258.61 8.12h1.69v7.2h-1.69Zm0-3.05h1.69v1.7h-1.69Z"/><path d="M263.32 8.12c.76 2.61 1.35 4.76 1.52 5.64h.01c.19-1.06.89-3.22 1.64-5.64h1.69l-2.5 7.2H263.9l-2.39-7.2Z"/><path d="M273.56 10.97c-.01-.95-.42-1.74-1.45-1.74s-1.46.73-1.55 1.74Zm-3.03 1.11c0 1.09.53 2.02 1.57 2.02.9 0 1.18-.42 1.37-.89h1.69c-.26.9-1.01 2.27-3.11 2.27-2.26 0-3.22-1.8-3.22-3.67 0-2.22 1.1-3.86 3.29-3.86 2.35 0 3.14 1.81 3.14 3.52 0 .23 0 .4-.02.6Z"/><path d="M280.82 13.19c.16.65.65 1.02 1.45 1.02.82 0 1.12-.33 1.12-.84 0-.53-.31-.76-1.42-1.04-2.18-.55-2.56-1.25-2.56-2.25 0-1.04.72-2.13 2.72-2.13 2.01 0 2.73 1.15 2.8 2.14h-1.61c-.07-.33-.3-.89-1.27-.89-.75 0-.99.36-.99.73 0 .42.24.62 1.42.91 2.26.55 2.61 1.34 2.61 2.4 0 1.21-.91 2.25-2.9 2.25-2.01 0-2.89-1.02-3.05-2.3Z"/><path d="M285.78 8.12h1.12V6.12h1.69V8.12h1.42V9.46h-1.42v3.78c0 .6.16.86.76.86.13 0 .34 0 .5-.03v1.22c-.35.13-.84.14-1.21.14-1.27 0-1.73-.69-1.73-1.93V9.46h-1.12Z"/><path d="M297.18 13.23c0 .7 0 1.52.01 2.09h-1.65c-.03-.19-.04-.6-.05-.91-.39.75-1.02 1.08-1.98 1.08-1.34 0-2.32-.8-2.32-2.66V8.12h1.68v4.35c0 .85.26 1.58 1.2 1.58 1.02 0 1.42-.57 1.42-2.12V8.12h1.69Z"/><path d="M300.5 11.74c0 1.52.62 2.34 1.62 2.34 1.43 0 1.65-1.18 1.65-2.39 0-1.36-.22-2.31-1.59-2.31-1.09 0-1.68.88-1.68 2.37m4.89-6.66v8.25c0 .66 0 1.33.01 2h-1.62c-.04-.21-.07-.64-.08-.84-.34.63-.97 1.01-2.05 1.01-1.77 0-2.89-1.47-2.89-3.7 0-2.22 1.19-3.83 3.15-3.83 1.08 0 1.62.42 1.79.77V5.08Z"/><path d="M307.35 8.12h1.69v7.2h-1.69Zm0-3.05h1.69v1.7h-1.69Z"/><path d="M312.29 11.72c0 1.45.64 2.38 1.68 2.38 1.06 0 1.65-.91 1.65-2.37 0-1.54-.6-2.39-1.67-2.39-1.03 0-1.65.82-1.65 2.38m5.04-.01c0 2.14-1.22 3.78-3.41 3.78-2.11 0-3.35-1.59-3.35-3.75 0-2.19 1.26-3.79 3.44-3.79 2.01 0 3.32 1.5 3.32 3.75"/><path d="M320.08 13.19c.16.65.65 1.02 1.45 1.02.82 0 1.12-.33 1.12-.84 0-.53-.31-.76-1.42-1.04-2.18-.55-2.56-1.25-2.56-2.25 0-1.04.72-2.13 2.72-2.13 2.01 0 2.73 1.15 2.8 2.14h-1.61c-.08-.33-.3-.89-1.27-.89-.75 0-.99.36-.99.73 0 .42.24.62 1.42.91 2.26.55 2.62 1.34 2.62 2.4 0 1.21-.91 2.25-2.9 2.25-2.01 0-2.89-1.02-3.05-2.3Z"/><path d="M325.12 16.94c.76-1.76.91-2.97.99-3.94h1.72c-.13 1.34-.58 2.85-1.39 3.94Z"/><path d="M337.46 11.35c-.74-2.22-1.19-3.54-1.41-4.36h-.01c-.23.91-.73 2.47-1.32 4.36Zm-3.14 1.51l-.83 2.47h-1.74L335 5.64h2.2l3.38 9.69h-1.86l-.86-2.47Z"/><path d="M343.46 15.32l-3.35-9.69h1.89l1.48 4.6c.45 1.38.82 2.62 1.03 3.58h.03c.19-.87.62-2.16 1.08-3.54l1.55-4.63h1.8l-3.44 9.69Z"/><path d="M354.23 13.19c.16.65.66 1.02 1.45 1.02.82 0 1.12-.33 1.12-.84 0-.53-.31-.76-1.42-1.04-2.18-.55-2.56-1.25-2.56-2.25 0-1.04.72-2.13 2.72-2.13s2.73 1.15 2.8 2.14h-1.61c-.08-.33-.3-.89-1.27-.89-.75 0-.99.36-.99.73 0 .42.24.62 1.42.91 2.26.55 2.62 1.34 2.62 2.4 0 1.21-.91 2.25-2.9 2.25-2.01 0-2.89-1.02-3.05-2.3Z"/><path d="M364.84 11.61c0-1.39-.57-2.23-1.58-2.23-1.21 0-1.66.8-1.66 2.35 0 1.49.4 2.36 1.58 2.36 1.11 0 1.66-.91 1.66-2.48m-3.17 2.99v3.5h-1.68V9.87c0-.58 0-1.17-.01-1.74h1.64c.03.21.06.65.06.98.32-.59.98-1.14 2.11-1.14 1.58 0 2.78 1.37 2.78 3.59 0 2.55-1.35 3.95-3.04 3.95-1.03 0-1.57-.42-1.85-.89"/><path d="M372.47 10.97c-.01-.95-.42-1.74-1.45-1.74s-1.45.73-1.55 1.74Zm-3.03 1.11c0 1.09.53 2.02 1.57 2.02.9 0 1.18-.42 1.37-.89h1.69c-.26.9-1.01 2.27-3.11 2.27-2.26 0-3.22-1.8-3.22-3.67 0-2.22 1.1-3.86 3.29-3.86 2.35 0 3.13 1.81 3.13 3.52 0 .23 0 .4-.02.6Z"/><path d="M381.65 13.04c-.26 1.21-1.07 2.45-3.05 2.45-2.09 0-3.23-1.51-3.23-3.72 0-2.1 1.21-3.82 3.32-3.82 2.24 0 2.9 1.65 2.96 2.51H380c-.14-.63-.5-1.12-1.34-1.12-1 0-1.57.9-1.57 2.37 0 1.57.58 2.4 1.55 2.4.73 0 1.14-.43 1.35-1.08Z"/><path d="M383.13 8.12h1.69v7.2h-1.69Zm0-3.05h1.69v1.7h-1.69Z"/><path d="M390.66 11.97h-.9c-1.24 0-1.78.38-1.78 1.18 0 .6.37 1.07 1.12 1.07 1.38 0 1.55-.98 1.55-2.05Zm1.65 1.59c0 .67.05 1.58.09 1.76h-1.61c-.05-.15-.09-.52-.1-.78-.25.43-.75.95-2.02.95-1.67 0-2.38-1.13-2.38-2.24 0-1.63 1.26-2.38 3.31-2.38h1.06v-.5c0-.55-.18-1.15-1.22-1.15-.93 0-1.12.44-1.22.97h-1.61c.1-1.18.81-2.26 2.89-2.24 1.81.01 2.8.75 2.8 2.44Z"/><path d="M394.3 15.32h1.69V5.08H394.3Z" fill-rule="evenodd"/><path d="M397.96 8.12h1.68v7.2h-1.68Zm0-3.05h1.68v1.7h-1.68Z"/><path d="M402.69 13.19c.16.65.65 1.02 1.45 1.02.82 0 1.12-.33 1.12-.84 0-.53-.31-.76-1.42-1.04-2.18-.55-2.56-1.25-2.56-2.25 0-1.04.72-2.13 2.72-2.13 2.01 0 2.73 1.15 2.8 2.14H405.2c-.07-.33-.3-.89-1.27-.89-.75 0-.99.36-.99.73 0 .42.24.62 1.42.91 2.26.55 2.62 1.34 2.62 2.4 0 1.21-.91 2.25-2.9 2.25-2.01 0-2.89-1.02-3.05-2.3Z"/><path d="M407.66 8.12h1.12V6.12h1.69V8.12h1.42V9.46h-1.42v3.78c0 .6.16.86.76.86.13 0 .33 0 .5-.03v1.22c-.35.13-.84.14-1.21.14-1.27 0-1.73-.69-1.73-1.93V9.46h-1.12Z"/><path d="M414.41 13.19c.16.65.65 1.02 1.45 1.02.82 0 1.12-.33 1.12-.84 0-.53-.31-.76-1.42-1.04-2.18-.55-2.56-1.25-2.56-2.25 0-1.04.72-2.13 2.72-2.13 2.01 0 2.73 1.15 2.8 2.14h-1.61c-.07-.33-.3-.89-1.27-.89-.75 0-.99.36-.99.73 0 .42.24.62 1.42.91 2.26.55 2.62 1.34 2.62 2.4 0 1.21-.91 2.25-2.9 2.25-2.01 0-2.89-1.02-3.05-2.3Z"/><path d="M419.45 16.94c.76-1.76.91-2.97.99-3.94h1.73c-.13 1.34-.58 2.85-1.39 3.94Z"/><path d="M430.76 11.97h-.9c-1.24 0-1.78.38-1.78 1.18 0 .6.37 1.07 1.12 1.07 1.38 0 1.56-.98 1.56-2.05Zm1.64 1.59c0 .67.05 1.58.09 1.76h-1.61c-.05-.15-.1-.52-.1-.78-.25.43-.75.95-2.02.95-1.67 0-2.38-1.13-2.38-2.24 0-1.63 1.26-2.38 3.31-2.38h1.06v-.5c0-.55-.18-1.15-1.22-1.15-.93 0-1.12.44-1.22.97h-1.61c.1-1.18.81-2.26 2.89-2.24 1.81.01 2.8.75 2.8 2.44Z"/><path d="M434.41 9.94c0-.62 0-1.27-.01-1.81h1.64c.04.2.06.78.07 1.01.25-.51.82-1.17 2.08-1.17 1.37 0 2.32.93 2.32 2.77v4.6h-1.69v-4.4c0-.9-.31-1.54-1.23-1.54-.99 0-1.48.66-1.48 1.99v3.95h-1.69Z"/><path d="M443.76 11.74c0 1.52.62 2.34 1.62 2.34 1.43 0 1.65-1.18 1.65-2.39 0-1.36-.22-2.31-1.59-2.31-1.09 0-1.68.88-1.68 2.37m4.89-6.66v8.25c0 .66 0 1.33.01 2h-1.62c-.04-.21-.07-.64-.08-.84-.34.63-.97 1.01-2.05 1.01-1.77 0-2.89-1.47-2.89-3.7 0-2.22 1.19-3.83 3.15-3.83 1.08 0 1.62.42 1.79.77V5.08Z"/><path d="M458.45 11.61c0-1.39-.57-2.23-1.58-2.23-1.22 0-1.66.8-1.66 2.35 0 1.49.4 2.36 1.58 2.36 1.11 0 1.66-.91 1.66-2.48m-3.17 2.99v3.5H453.6V9.87c0-.58 0-1.17-.01-1.74h1.63c.03.21.06.65.06.98.33-.59.98-1.14 2.11-1.14 1.58 0 2.78 1.37 2.78 3.59 0 2.55-1.35 3.95-3.04 3.95-1.03 0-1.57-.42-1.85-.89"/><path d="M461.71 10.08c0-.81-.01-1.43-.01-1.95h1.65c.02.17.05.84.05 1.33.33-.87 1.1-1.49 2.28-1.5V9.63c-1.41-.01-2.28.51-2.28 2.43v3.26h-1.69Z"/><path d="M468.15 11.72c0 1.45.64 2.38 1.68 2.38 1.05 0 1.65-.91 1.65-2.37 0-1.54-.6-2.39-1.67-2.39-1.03 0-1.65.82-1.65 2.38m5.04-.01c0 2.14-1.23 3.78-3.41 3.78-2.11 0-3.35-1.59-3.35-3.75 0-2.19 1.26-3.79 3.44-3.79 2.01 0 3.32 1.5 3.32 3.75"/><path d="M476.12 11.74c0 1.52.62 2.34 1.62 2.34 1.43 0 1.65-1.18 1.65-2.39 0-1.36-.22-2.31-1.59-2.31-1.09 0-1.68.88-1.68 2.37m4.89-6.66v8.25c0 .66 0 1.33.01 2H479.4c-.04-.21-.07-.64-.08-.84-.34.63-.97 1.01-2.05 1.01-1.77 0-2.89-1.47-2.89-3.7 0-2.22 1.19-3.83 3.15-3.83 1.08 0 1.62.42 1.79.77V5.08Z"/><path d="M488.92 13.23c0 .7 0 1.52.01 2.09h-1.65c-.03-.19-.04-.6-.05-.91-.39.75-1.02 1.08-1.98 1.08-1.34 0-2.32-.8-2.32-2.66V8.12h1.68v4.35c0 .85.26 1.58 1.2 1.58 1.02 0 1.42-.57 1.42-2.12V8.12h1.69Z"/><path d="M496.79 13.04c-.26 1.21-1.07 2.45-3.05 2.45-2.09 0-3.23-1.51-3.23-3.72 0-2.1 1.21-3.82 3.32-3.82 2.24 0 2.9 1.65 2.96 2.51h-1.65c-.14-.63-.5-1.12-1.34-1.12-1 0-1.57.9-1.57 2.37 0 1.57.58 2.4 1.55 2.4.73 0 1.14-.43 1.35-1.08Z"/><path d="M497.57 8.12h1.12V6.12h1.69V8.12h1.42V9.46h-1.42v3.78c0 .6.16.86.76.86.13 0 .34 0 .5-.03v1.22c-.35.13-.84.14-1.21.14-1.27 0-1.73-.69-1.73-1.93V9.46h-1.12Z"/><path d="M503.08 8.12h1.68v7.2h-1.68Zm0-3.05h1.68v1.7h-1.68Z"/><path d="M508.02 11.72c0 1.45.64 2.38 1.68 2.38 1.06 0 1.65-.91 1.65-2.37 0-1.54-.6-2.39-1.67-2.39-1.03 0-1.65.82-1.65 2.38m5.04-.01c0 2.14-1.22 3.78-3.41 3.78-2.11 0-3.35-1.59-3.35-3.75 0-2.19 1.26-3.79 3.44-3.79 2.01 0 3.32 1.5 3.32 3.75"/><path d="M514.61 9.94c0-.62 0-1.27-.01-1.81h1.63c.04.2.06.78.07 1.01.25-.51.82-1.17 2.08-1.17 1.37 0 2.32.93 2.32 2.77v4.6h-1.69v-4.4c0-.9-.31-1.54-1.23-1.54-.99 0-1.48.66-1.48 1.99v3.95h-1.69Z"/><path d="M7.26 23.08v3.97c.32-.52.91-1.09 2.06-1.09 1.24 0 2.34.74 2.34 2.76v4.61H9.98V28.98c0-1.03-.38-1.59-1.26-1.59-1.13 0-1.46.84-1.46 2.08v3.86H5.57V23.08Z"/><path d="M14.9 29.72c0 1.45.64 2.38 1.68 2.38 1.06 0 1.65-.91 1.65-2.37 0-1.54-.6-2.39-1.67-2.39-1.03 0-1.65.82-1.65 2.38m5.04-.01c0 2.14-1.23 3.78-3.41 3.78-2.11 0-3.35-1.59-3.35-3.75 0-2.19 1.26-3.79 3.44-3.79 2.01 0 3.32 1.5 3.32 3.75"/><path d="M27.44 31.23c0 .7 0 1.52.01 2.09H25.81c-.03-.19-.04-.6-.05-.91-.39.75-1.02 1.08-1.98 1.08-1.34 0-2.32-.8-2.32-2.66v-4.7h1.68v4.35c0 .85.25 1.58 1.2 1.58 1.01 0 1.42-.57 1.42-2.12V26.12h1.69Z"/><path d="M30.46 31.19c.16.65.65 1.02 1.45 1.02.82 0 1.12-.33 1.12-.84 0-.53-.31-.76-1.42-1.04-2.18-.55-2.56-1.25-2.56-2.25 0-1.04.72-2.13 2.72-2.13 2.01 0 2.73 1.15 2.8 2.14H32.97c-.08-.33-.3-.89-1.27-.89-.75 0-.99.36-.99.73 0 .42.24.62 1.42.91 2.26.55 2.62 1.34 2.62 2.4 0 1.21-.91 2.25-2.9 2.25-2.01 0-2.89-1.02-3.05-2.3Z"/><path d="M40.59 28.97c-.01-.95-.42-1.74-1.45-1.74s-1.46.73-1.55 1.74Zm-3.04 1.11c0 1.09.53 2.02 1.57 2.02.9 0 1.18-.42 1.37-.89h1.69c-.26.9-1.01 2.27-3.11 2.27-2.26 0-3.22-1.8-3.22-3.67 0-2.22 1.09-3.86 3.29-3.86 2.35 0 3.13 1.81 3.13 3.52 0 .23 0 .4-.02.6Z"/><path d="M45 31.19c.16.65.65 1.02 1.45 1.02.82 0 1.12-.33 1.12-.84 0-.53-.31-.76-1.42-1.04-2.18-.55-2.56-1.25-2.56-2.25 0-1.04.72-2.13 2.72-2.13 2.01 0 2.73 1.15 2.8 2.14H47.51c-.07-.33-.3-.89-1.27-.89-.75 0-.99.36-.99.73 0 .42.24.62 1.42.91 2.26.55 2.62 1.34 2.62 2.4 0 1.21-.91 2.25-2.9 2.25-2.01 0-2.89-1.02-3.05-2.3Z"/><path d="M53.62 26.32h1.26V24.13h.68v2.18h1.61v.66H55.56v4.55c0 .78.16 1.23.81 1.23.2 0 .49-.01.71-.08v.62c-.23.1-.56.13-.84.13-.87 0-1.36-.45-1.36-1.57V26.98H53.62Z"/><path d="M58.78 29.82c0 1.67.87 3.01 2.31 3.01 1.46 0 2.29-1.25 2.29-3.01 0-1.65-.82-3.01-2.32-3.01-1.55 0-2.28 1.33-2.28 3.01m5.32-.01c0 1.95-1.04 3.68-3.06 3.68-1.83 0-2.97-1.56-2.97-3.67 0-2 1.07-3.67 3.04-3.67 1.8 0 3 1.46 3 3.66"/><path d="M69.75 29.88c0 1.92.96 2.96 2.13 2.96 1.79 0 2.28-1.27 2.28-3.18 0-1.81-.42-2.84-2.16-2.84-1.34 0-2.25 1.11-2.25 3.07M74.81 23v8.31c0 .67 0 1.32.01 2.02h-.65c-.03-.17-.04-.83-.04-1.18-.34.85-1.1 1.35-2.28 1.35-1.76 0-2.82-1.49-2.82-3.59 0-2.16 1.15-3.75 3-3.75 1.36 0 1.9.6 2.1 1.05V23Z"/><path d="M81.62 29.29c-.01-1.39-.75-2.48-2.08-2.48-1.4 0-2.03 1.01-2.18 2.48Zm-4.3.62c.01 1.81.9 2.93 2.2 2.93 1.28 0 1.71-.74 1.95-1.32h.69c-.29.92-1 1.98-2.67 1.98-2.06 0-2.86-1.84-2.86-3.61 0-2 .96-3.73 2.94-3.73 2.09 0 2.75 1.86 2.75 3.18 0 .2 0 .39-.01.57Z"/><path d="M84.16 33.32h.68V23h-.68Z" fill-rule="evenodd"/><path d="M87.2 26.32h.68v7H87.2Zm0-3.32h.68v1.36H87.2Z"/><path d="M90.13 26.32c1.1 3.21 1.86 5.39 2.12 6.29h.01c.15-.52.91-2.61 2.22-6.29h.72l-2.56 7h-.82l-2.41-7Z"/><path d="M101.11 29.29c-.01-1.39-.75-2.48-2.08-2.48-1.4 0-2.03 1.01-2.18 2.48Zm-4.3.62c.01 1.81.9 2.93 2.2 2.93 1.28 0 1.71-.74 1.95-1.32h.69c-.29.92-1 1.98-2.67 1.98-2.06 0-2.86-1.84-2.86-3.61 0-2 .96-3.73 2.94-3.73 2.09 0 2.75 1.86 2.75 3.18 0 .2 0 .39-.01.57Z"/><path d="M103.6 28.22c0-1.18-.01-1.68-.01-1.9h.66c.01.22.03.67.03 1.57.39-1.05 1.26-1.68 2.36-1.74v.76c-1.41.1-2.36 1.11-2.36 2.77v3.64h-.68Z"/><path d="M111.79 26.32h.68v7h-.68Zm0-3.32h.68v1.36h-.68Z"/><path d="M114.83 28.08c0-.62 0-1.2-.01-1.77h.67c.03.22.04 1.14.03 1.33.3-.71.85-1.5 2.25-1.5 1.21 0 2.28.7 2.28 2.63v4.54h-.68V28.9c0-1.25-.5-2.06-1.68-2.06-1.61 0-2.17 1.39-2.17 2.91v3.57h-.68Z"/><path d="M122.39 28.08c0-.62 0-1.2-.01-1.77h.67c.03.22.04 1.14.03 1.33.3-.71.85-1.5 2.25-1.5 1.21 0 2.28.7 2.28 2.63v4.54h-.68V28.9c0-1.25-.5-2.06-1.68-2.06-1.61 0-2.17 1.39-2.17 2.91v3.57h-.68Z"/><path d="M130.13 29.82c0 1.67.87 3.01 2.31 3.01 1.46 0 2.29-1.25 2.29-3.01 0-1.65-.81-3.01-2.32-3.01-1.55 0-2.28 1.33-2.28 3.01m5.32-.01c0 1.95-1.04 3.68-3.07 3.68-1.83 0-2.97-1.56-2.97-3.67 0-2 1.07-3.67 3.04-3.67 1.8 0 3 1.46 3 3.66"/><path d="M137.17 26.32c1.1 3.21 1.86 5.39 2.11 6.29h.01c.15-.52.91-2.61 2.22-6.29h.72l-2.56 7h-.81l-2.42-7Z"/><path d="M147.57 29.75h-1.33c-1.51 0-2.44.41-2.44 1.61 0 .88.61 1.49 1.56 1.49 1.94 0 2.21-1.33 2.21-2.84Zm.66 2.24c0 .62.05 1.11.1 1.33h-.65c-.05-.17-.09-.48-.12-1.08-.23.52-.83 1.25-2.22 1.25-1.58 0-2.25-1.05-2.25-2.1 0-1.54 1.15-2.24 3.19-2.24h1.29v-.71c0-.7-.2-1.64-1.75-1.64-1.37 0-1.57.74-1.72 1.32h-.68c.08-.77.54-1.96 2.41-1.96 1.55 0 2.41.67 2.41 2.21Z"/><path d="M149.52 26.32h1.26V24.13h.68v2.18h1.61v.66h-1.61v4.55c0 .78.16 1.23.81 1.23.2 0 .49-.01.71-.08v.62c-.23.1-.56.13-.84.13-.87 0-1.36-.45-1.36-1.57V26.98h-1.26Z"/><path d="M154.59 26.32h.68v7h-.68Zm0-3.32h.68v1.36h-.68Z"/><path d="M157.52 26.32c1.1 3.21 1.86 5.39 2.11 6.29h.01c.15-.52.91-2.61 2.22-6.29h.72l-2.56 7h-.81l-2.41-7Z"/><path d="M168.51 29.29c-.01-1.39-.75-2.48-2.08-2.48-1.4 0-2.03 1.01-2.18 2.48Zm-4.3.62c.01 1.81.9 2.93 2.2 2.93 1.28 0 1.71-.74 1.96-1.32h.69c-.29.92-1 1.98-2.67 1.98-2.06 0-2.86-1.84-2.86-3.61 0-2 .96-3.73 2.94-3.73 2.09 0 2.75 1.86 2.75 3.18 0 .2 0 .39-.01.57Z"/><path d="M179.11 29.29c-.01-1.39-.75-2.48-2.08-2.48-1.4 0-2.03 1.01-2.18 2.48Zm-4.3.62c.01 1.81.9 2.93 2.2 2.93 1.28 0 1.71-.74 1.96-1.32h.69c-.29.92-1 1.98-2.67 1.98-2.06 0-2.86-1.84-2.86-3.61 0-2 .96-3.73 2.94-3.73 2.09 0 2.75 1.86 2.75 3.18 0 .2 0 .39-.01.57Z"/><path d="M181.63 26.32c1.1 3.21 1.86 5.39 2.12 6.29h.01c.15-.52.91-2.61 2.22-6.29h.72l-2.56 7h-.81l-2.42-7Z"/><path d="M192.61 29.29c-.01-1.39-.75-2.48-2.07-2.48-1.4 0-2.04 1.01-2.18 2.48Zm-4.3.62c.01 1.81.9 2.93 2.2 2.93 1.28 0 1.71-.74 1.95-1.32h.69c-.28.92-1 1.98-2.67 1.98-2.06 0-2.86-1.84-2.86-3.61 0-2 .96-3.73 2.94-3.73 2.09 0 2.75 1.86 2.75 3.18 0 .2 0 .39-.01.57Z"/><path d="M195.1 28.08c0-.62 0-1.2-.01-1.77h.67c.03.22.04 1.14.03 1.33.3-.71.85-1.5 2.25-1.5 1.21 0 2.28.7 2.28 2.63v4.54h-.68V28.9c0-1.25-.5-2.06-1.68-2.06-1.62 0-2.17 1.39-2.17 2.91v3.57h-.68Z"/><path d="M201.61 26.32h1.26V24.13h.68v2.18h1.61v.66h-1.61v4.55c0 .78.16 1.23.81 1.23.2 0 .49-.01.7-.08v.62c-.23.1-.56.13-.84.13-.87 0-1.35-.45-1.35-1.57V26.98h-1.26Z"/><path d="M210.52 29.88c0 1.92.96 2.96 2.13 2.96 1.79 0 2.28-1.27 2.28-3.18 0-1.81-.42-2.84-2.16-2.84-1.34 0-2.25 1.11-2.25 3.07M215.58 23v8.31c0 .67 0 1.32.01 2.02h-.65c-.03-.17-.04-.83-.04-1.18-.34.85-1.1 1.35-2.28 1.35-1.76 0-2.82-1.49-2.82-3.59 0-2.16 1.15-3.75 3-3.75 1.36 0 1.9.6 2.1 1.05V23Z"/><path d="M222.38 29.29c-.01-1.39-.75-2.48-2.08-2.48-1.4 0-2.04 1.01-2.18 2.48Zm-4.3.62c.01 1.81.9 2.93 2.2 2.93 1.28 0 1.71-.74 1.95-1.32h.69c-.28.92-1 1.98-2.67 1.98-2.06 0-2.86-1.84-2.86-3.61 0-2 .96-3.73 2.94-3.73 2.09 0 2.75 1.86 2.75 3.18 0 .2 0 .39-.01.57Z"/><path d="M225.04 31.39c.23.91.85 1.46 1.93 1.46 1.21 0 1.7-.58 1.7-1.36 0-.8-.33-1.19-1.85-1.57-1.75-.43-2.18-.98-2.18-1.9 0-.97.71-1.86 2.24-1.86s2.26.97 2.37 1.96h-.68c-.12-.59-.57-1.32-1.72-1.32-1.18 0-1.52.6-1.52 1.16 0 .64.33.97 1.67 1.3 1.91.48 2.39 1.12 2.39 2.17 0 1.27-1 2.06-2.43 2.06-1.55 0-2.41-.84-2.6-2.1Z"/><path d="M231.19 26.32h.68v7h-.68Zm0-3.32h.68v1.36h-.68Z"/><path d="M234.4 29.79c0 1.67.86 2.87 2.16 2.87 1.7 0 2.21-1.16 2.21-2.98 0-1.85-.54-2.87-2.17-2.87-1.56 0-2.2 1.39-2.2 2.98m5.01 3.05c0 2.24-.96 3.42-2.93 3.42-1.76 0-2.5-1.02-2.66-2.09h.69c.24.97 1.02 1.43 1.99 1.43 1.76 0 2.25-1.18 2.25-2.96v-.73c-.37.91-1.03 1.4-2.27 1.4-1.59 0-2.81-1.33-2.81-3.5 0-2.35 1.3-3.67 2.9-3.67 1.38 0 1.98.67 2.17 1.23.01-.4.03-.9.04-1.06h.64c0 .25-.03 1.36-.03 2.03Z"/><path d="M241.77 28.08c0-.62 0-1.2-.01-1.77h.66c.03.22.04 1.14.03 1.33.3-.71.85-1.5 2.25-1.5 1.21 0 2.28.7 2.28 2.63v4.54h-.68V28.9c0-1.25-.5-2.06-1.68-2.06-1.61 0-2.17 1.39-2.17 2.91v3.57h-.68Z"/><path d="M249.29 31.39c.23.91.85 1.46 1.93 1.46 1.21 0 1.69-.58 1.69-1.36 0-.8-.32-1.19-1.84-1.57-1.75-.43-2.18-.98-2.18-1.9 0-.97.7-1.86 2.24-1.86s2.27.97 2.37 1.96h-.68c-.12-.59-.57-1.32-1.72-1.32-1.18 0-1.52.6-1.52 1.16 0 .64.33.97 1.67 1.3 1.91.48 2.39 1.12 2.39 2.17 0 1.27-1 2.06-2.43 2.06-1.55 0-2.41-.84-2.6-2.1Z"/><path d="M259.12 26.32c1 3.61 1.59 5.69 1.7 6.3h.01c.11-.56.79-2.76 1.84-6.3h.73c1.26 4.33 1.64 5.58 1.76 6.12h.01c.19-.77.5-1.82 1.75-6.12h.72l-2.14 7h-.75c-.73-2.48-1.61-5.52-1.75-6.16H263c-.14.69-.91 3.19-1.79 6.16h-.81l-1.99-7Z"/><path d="M269.22 26.32h.68v7h-.68Zm0-3.32h.68v1.36h-.68Z"/><path d="M271.33 26.32h1.26V24.13h.68v2.18h1.61v.66h-1.61v4.55c0 .78.16 1.23.81 1.23.2 0 .49-.01.71-.08v.62c-.23.1-.56.13-.84.13-.87 0-1.36-.45-1.36-1.57V26.98h-1.26Z"/><path d="M277.04 23v4.5c.38-.73 1.04-1.35 2.24-1.35.96 0 2.29.5 2.29 2.72v4.46h-.68V29.01c0-1.39-.61-2.17-1.74-2.17-1.34 0-2.12.86-2.12 2.58v3.91h-.68V23Z"/><path d="M287.77 33.32V26.98H286.6v-.66h1.17v-.99c0-1.18.33-2.46 1.85-2.46.2 0 .5.04.66.1v.67c-.2-.06-.53-.08-.73-.08-.8 0-1.1.59-1.1 1.81v.97h1.48v.66h-1.48v6.35Z"/><path d="M291.44 33.32h.68V23h-.68Z" fill-rule="evenodd"/><path d="M298.37 29.75h-1.33c-1.51 0-2.44.41-2.44 1.61 0 .88.61 1.49 1.56 1.49 1.94 0 2.21-1.33 2.21-2.84Zm.66 2.24c0 .62.05 1.11.09 1.33h-.65c-.05-.17-.09-.48-.12-1.08-.23.52-.83 1.25-2.22 1.25-1.58 0-2.25-1.05-2.25-2.1 0-1.54 1.15-2.24 3.19-2.24h1.29v-.71c0-.7-.2-1.64-1.75-1.64-1.37 0-1.57.74-1.72 1.32h-.68c.08-.77.54-1.96 2.42-1.96 1.55 0 2.41.67 2.41 2.21Z"/><path d="M301.22 26.32c1 3.61 1.59 5.69 1.7 6.3h.01c.11-.56.79-2.76 1.85-6.3h.73c1.26 4.33 1.64 5.58 1.76 6.12h.01c.19-.77.5-1.82 1.75-6.12h.72l-2.14 7h-.75c-.73-2.48-1.61-5.52-1.75-6.16h-.01c-.14.69-.91 3.19-1.79 6.16h-.82l-1.99-7Z"/><path d="M311.29 33.32h.68V23h-.68Z" fill-rule="evenodd"/><path d="M318.78 29.29c-.01-1.39-.75-2.48-2.08-2.48-1.4 0-2.03 1.01-2.18 2.48Zm-4.3.62c.01 1.81.9 2.93 2.2 2.93 1.28 0 1.71-.74 1.96-1.32h.69c-.28.92-1 1.98-2.67 1.98-2.06 0-2.86-1.84-2.86-3.61 0-2 .96-3.73 2.94-3.73 2.09 0 2.75 1.86 2.75 3.18 0 .2 0 .39-.01.57Z"/><path d="M321.43 31.39c.23.91.85 1.46 1.93 1.46 1.21 0 1.7-.58 1.7-1.36 0-.8-.33-1.19-1.85-1.57-1.75-.43-2.18-.98-2.18-1.9 0-.97.71-1.86 2.24-1.86s2.27.97 2.37 1.96h-.68c-.12-.59-.57-1.32-1.72-1.32-1.18 0-1.52.6-1.52 1.16 0 .64.33.97 1.67 1.3 1.91.48 2.39 1.12 2.39 2.17 0 1.27-1 2.06-2.43 2.06-1.55 0-2.41-.84-2.6-2.1Z"/><path d="M327.75 31.39c.23.91.85 1.46 1.93 1.46 1.21 0 1.7-.58 1.7-1.36 0-.8-.33-1.19-1.85-1.57-1.75-.43-2.18-.98-2.18-1.9 0-.97.71-1.86 2.24-1.86s2.26.97 2.37 1.96h-.68c-.12-.59-.57-1.32-1.72-1.32-1.18 0-1.52.6-1.52 1.16 0 .64.33.97 1.67 1.3 1.91.48 2.39 1.12 2.39 2.17 0 1.27-1 2.06-2.43 2.06-1.55 0-2.41-.84-2.6-2.1Z"/><path d="M342.01 29.29c-.01-1.39-.75-2.48-2.07-2.48-1.4 0-2.03 1.01-2.18 2.48Zm-4.3.62c.01 1.81.89 2.93 2.2 2.93 1.28 0 1.71-.74 1.95-1.32h.69c-.28.92-1 1.98-2.67 1.98-2.06 0-2.86-1.84-2.86-3.61 0-2 .96-3.73 2.94-3.73 2.09 0 2.75 1.86 2.75 3.18 0 .2 0 .39-.01.57Z"/><path d="M344.46 26.32c1.13 1.72 1.61 2.49 1.89 2.91h.01c.33-.48 1-1.48 1.98-2.91h.77l-2.36 3.39 2.4 3.61h-.81c-.98-1.5-1.68-2.56-2.01-3.05h-.01c-.26.41-.87 1.36-1.98 3.05h-.79l2.4-3.56-2.29-3.45Z"/><path d="M354.84 29.29c-.01-1.39-.75-2.48-2.08-2.48-1.4 0-2.03 1.01-2.18 2.48Zm-4.3.62c.01 1.81.9 2.93 2.2 2.93 1.28 0 1.71-.74 1.95-1.32h.69c-.29.92-1 1.98-2.67 1.98-2.06 0-2.86-1.84-2.86-3.61 0-2 .96-3.73 2.94-3.73 2.09 0 2.75 1.86 2.75 3.18 0 .2 0 .39-.01.57Z"/><path d="M362.39 31.26c-.33 1.23-1.11 2.23-2.63 2.23-1.7 0-2.9-1.3-2.9-3.64 0-1.92.99-3.7 2.98-3.7 1.72 0 2.43 1.26 2.55 2.24h-.69c-.2-.81-.72-1.58-1.87-1.58-1.44 0-2.25 1.26-2.25 3.01 0 1.67.76 3.01 2.18 3.01.99 0 1.59-.52 1.94-1.57Z"/><path d="M369.1 31.28c0 .69.01 1.78.01 2.05h-.65c-.03-.18-.04-.65-.04-1.22-.29.83-.98 1.39-2.18 1.39-.98 0-2.23-.39-2.23-2.54V26.32h.66v4.47c0 1.02.31 2.02 1.66 2.02 1.52 0 2.09-.88 2.09-2.89v-3.6h.68Z"/><path d="M370.6 26.32h1.26V24.13h.68v2.18h1.61v.66h-1.61v4.55c0 .78.16 1.23.82 1.23.2 0 .49-.01.7-.08v.62c-.23.1-.56.13-.84.13-.87 0-1.35-.45-1.35-1.57V26.98H370.6Z"/><path d="M375.67 26.32h.68v7h-.68Zm0-3.32h.68v1.36h-.68Z"/><path d="M378.89 29.82c0 1.67.87 3.01 2.31 3.01 1.46 0 2.29-1.25 2.29-3.01 0-1.65-.82-3.01-2.32-3.01-1.55 0-2.28 1.33-2.28 3.01m5.32-.01c0 1.95-1.05 3.68-3.07 3.68-1.83 0-2.97-1.56-2.97-3.67 0-2 1.07-3.67 3.04-3.67 1.8 0 3 1.46 3 3.66"/><path d="M386.02 28.08c0-.62 0-1.2-.01-1.77h.66c.03.22.04 1.14.03 1.33.3-.71.85-1.5 2.25-1.5 1.21 0 2.28.7 2.28 2.63v4.54h-.68V28.9c0-1.25-.5-2.06-1.68-2.06-1.61 0-2.17 1.39-2.17 2.91v3.57h-.68Z"/><path d="M393.11 33.32h.68V31.52h-.68Z" fill-rule="evenodd"/></g></g></svg>