<?xml version="1.0" encoding="UTF-8"?><!DOCTYPE svg PUBLIC "-//W3C//DTD SVG 1.0//EN" "http://www.w3.org/TR/2001/REC-SVG-20010904/DTD/svg10.dtd" []><svg xmlns="http://www.w3.org/2000/svg" xmlns:xlink="http://www.w3.org/1999/xlink" height="35" stroke="#000" stroke-linecap="square" stroke-miterlimit="10" viewBox="0 0 78.61 35.17" width="79"><g><g fill="#fff" stroke="none"><path d="M5 30.17H51.56l.94-1.47H5Z"/><path d="M62.77 20.09c.69 1.22.16 2.37.16 2.37L59.4 28.03h1.75l3.8-5.89c1.62-2.45.13-4.42.13-4.42L59.31 8.3l-1.46 2.18c-.43.72 0 1.48 0 1.48Z"/><path d="M72.02 21.71H69.75c-1.62 0-2.24 1.35-2.24 1.35l-2.14 3.27c-.19.24-.42.53-.65.37s.1-.59.1-.59l2.88-4.48c.42-.7 1.18-2.08 1.18-3.3s-.96-2.79-.96-2.79L61.37 5 60.12 6.88c-.5.76-.07 1.58-.07 1.58l5.74 9.49c1.33 2.27-.56 4.75-.56 4.75l-3.46 5.37h2.87c1.46 0 2.11-1.18 2.11-1.18l1.81-2.8c.66-1.02 1.52-1.06 1.52-1.06h1.65c-1.02.43-1.49 1.49-1.49 1.49l-2.04 3.14c-.8 1.18-1.72 1.02-1.72 1.02H58.28l3.89-6.07c.92-1.38 0-2.54 0-2.54l-5.18-8.4-1.09 1.65c-.95 1.52-.03 2.4-.03 2.4l3.73 5.99c.83 1.25.24 2.01.24 2.01l-4.19 6.43H66.66c2.04 0 2.8-1.65 2.8-1.65l2.34-3.53c.56-.89 1.81-.76 1.81-.76Z"/><path d="M45.22 22.56v-.81H41.4v4.89h3.83v-.81H42.41V24.64H44.8v-.89H42.41V22.56Z"/><path d="M10.58 20.06h1V15.19h-1Z" fill-rule="evenodd"/><path d="M42.24 15.99h1.43c.19 0 .8.05.8.78 0 .76-.75.78-.75.78H42.65l2.03 2.52h1.25l-1.47-1.82c1.18-.47 1.06-1.62 1.06-1.62 0-1.4-1.4-1.42-1.4-1.42h-2.9v4.87l1.01 0Z"/><path d="M33.19 26.64H34.2V21.76H33.19Z" fill-rule="evenodd"/><path d="M40.05 26.64v-3.2c0-1.77-1.66-1.68-1.66-1.68H37.19l-.64.76v-.76H35.52l0 4.88h1.02V22.62h1.75c.7 0 .73.67.73.67v3.35Z"/><path d="M47.52 24.62h1.63c.15 0 .58-.07.58.61s-.56.58-.56.58H46.34v.83h3.14c0 0 1.26.01 1.26-1.45s-1.23-1.33-1.23-1.33H48.06c-.37 0-.77-.11-.77-.67s.59-.56.59-.56H50.6v-.86H47.5c0 0-1.24 0-1.24 1.47s1.26 1.39 1.26 1.39"/><path d="M6.29 18.05H7.92c.15 0 .58-.07.58.61s-.56.58-.56.58H5.11v.83H8.25c0 0 1.26.01 1.26-1.45 0-1.45-1.23-1.32-1.23-1.32H6.83c-.37 0-.77-.11-.77-.67s.59-.56.59-.56H9.37V15.2H6.27c0 0-1.24-.01-1.24 1.47s1.26 1.38 1.26 1.38"/><path d="M28.91 21.76v4.88h3.49v-.86H29.93V21.76Z"/><path d="M20.82 26.64h1V21.76h-1Z" fill-rule="evenodd"/><path d="M14 16.05h1.75c.7 0 .74.67.74.67v3.34h1.03V16.88c0-1.77-1.67-1.68-1.67-1.68H14.64l-.64.75v-.75H12.99v4.86H14Z"/><path d="M20.69 20.06h2.56V16.98h-.98v2.23H20.9c-.16 0-1.41-.32-1.41-1.56 0-1.6 1.52-1.6 1.52-1.6h2.27v-.86H20.76c-.65 0-2.33.57-2.32 2.5.02 1.94 1.86 2.37 2.24 2.37"/><path d="M50.61 19.26H47.8V18.07h2.4v-.89H47.8V16h2.81v-.8H46.79v4.87h3.83Z"/><path d="M24.39 22.55h1.43c.19 0 .8.06.8.78 0 .76-.76.78-.76.78H24.8l2.03 2.53h1.25l-1.47-1.83c1.18-.47 1.06-1.63 1.06-1.63 0-1.4-1.4-1.42-1.4-1.42h-2.9v4.88h1.01Z"/><path d="M37.75 15.88c.93 0 1.68.76 1.68 1.68 0 .93-.76 1.68-1.68 1.68s-1.66-.75-1.66-1.68c0-.92.74-1.68 1.66-1.68m0 4.34c1.46.01 2.65-1.18 2.66-2.64v-.02c0-1.47-1.18-2.66-2.66-2.66-1.46 0-2.66 1.19-2.66 2.66s1.2 2.66 2.66 2.66"/><path d="M31.27 16.09H32.9c.36 0 .61.4.61.77s-.25.76-.61.76H31.27Zm0 1.61l.6.82h1.07c.94 0 1.56-.78 1.56-1.66s-.63-1.66-1.56-1.66h-2.7v4.87h1.04Z"/><path d="M18.04 24.51l-1.62.01.81-2Zm-3.66 2.13h1.14l.61-1.4h2.21l.61 1.4h1.14l-2.32-4.88H16.7Z"/><path d="M26.75 15.95l.8 1.99-1.62 0Zm-1.1 2.71h2.21l.61 1.4h1.14L27.28 15.2H26.21L23.9 20.06h1.14Z"/></g></g></svg>