<?xml version="1.0" encoding="UTF-8"?><!DOCTYPE svg PUBLIC "-//W3C//DTD SVG 1.0//EN" "http://www.w3.org/TR/2001/REC-SVG-20010904/DTD/svg10.dtd" []><svg xmlns="http://www.w3.org/2000/svg" xmlns:xlink="http://www.w3.org/1999/xlink" height="27" stroke="#000" stroke-linecap="square" stroke-miterlimit="10" viewBox="0 0 278.47 27.05" width="278"><defs><clipPath id="a"><path d="M0 0V27.05H278.47V0Z"/></clipPath><clipPath clip-path="url(#a)" id="b"><path d="M-153.74 245.02H806.38V-295.1H-153.74Z"/></clipPath></defs><g><g fill="#fff" stroke="none"><path clip-path="url(#b)" d="M5.99 11.47H8.92c2.13 0 3.11-.82 3.11-2.46 0-1.54-.97-2.41-2.85-2.41H5.99Zm0 .93v5.87H5V5.67H9.39c2.41 0 3.68 1.34 3.68 3.32 0 1.6-.92 2.64-2.27 2.95 1.24.31 2.08 1.15 2.08 3.29v.49c0 .88-.07 2.07.16 2.55h-.99c-.23-.54-.18-1.55-.18-2.63v-.32c0-2.05-.59-2.91-2.91-2.91Z"/><path clip-path="url(#b)" d="M16.24 13.76c0 2.14 1.11 3.85 2.94 3.85 1.87 0 2.92-1.59 2.92-3.85 0-2.12-1.04-3.85-2.96-3.85-1.97 0-2.91 1.69-2.91 3.85m6.82-.02c0 2.51-1.35 4.74-3.95 4.74-2.36 0-3.83-2-3.83-4.72 0-2.58 1.38-4.72 3.92-4.72 2.32 0 3.86 1.87 3.86 4.7"/><path clip-path="url(#b)" d="M30.51 13.68H28.82c-1.93 0-3.11.52-3.11 2.06 0 1.12.78 1.89 1.99 1.89 2.47 0 2.82-1.7 2.82-3.63Zm.89 2.86c0 .79.07 1.44.12 1.73h-.87c-.07-.21-.12-.61-.16-1.38-.3.66-1.06 1.59-2.85 1.59-2.02 0-2.9-1.35-2.9-2.71 0-1.98 1.49-2.89 4.1-2.89H30.5v-.91c0-.9-.26-2.09-2.23-2.09-1.74 0-2.01.94-2.2 1.68h-.9c.11-1 .71-2.53 3.12-2.53 2 0 3.12.87 3.12 2.85Z"/><path clip-path="url(#b)" d="M34.71 13.83c0 2.45 1.23 3.78 2.72 3.78 2.29 0 2.9-1.63 2.9-4.06 0-2.31-.53-3.64-2.75-3.64-1.72 0-2.87 1.41-2.87 3.92M41.2 5V15.67c0 .86 0 1.69.02 2.59h-.87c-.04-.22-.05-1.06-.05-1.5-.44 1.09-1.41 1.72-2.92 1.72-2.27 0-3.63-1.91-3.63-4.61 0-2.77 1.48-4.83 3.86-4.83 1.73 0 2.43.77 2.69 1.34V5Z"/><path clip-path="url(#b)" d="M44.17 15.77c.29 1.16 1.09 1.86 2.46 1.86 1.54 0 2.16-.73 2.16-1.73 0-1.02-.42-1.52-2.35-2-2.26-.56-2.82-1.27-2.82-2.46 0-1.24.91-2.4 2.89-2.4s2.93 1.25 3.06 2.53h-.9c-.15-.75-.72-1.68-2.2-1.68-1.5 0-1.93.77-1.93 1.48 0 .82.42 1.23 2.14 1.66 2.47.61 3.07 1.45 3.07 2.8 0 1.64-1.29 2.65-3.14 2.65-2 0-3.12-1.09-3.36-2.71Z"/><path clip-path="url(#b)" d="M52.85 5v5.76c.49-.93 1.34-1.72 2.87-1.72 1.25 0 2.95.66 2.95 3.49v5.73h-.91V12.72c0-1.77-.78-2.77-2.21-2.77-1.72 0-2.7 1.1-2.7 3.3v5.02h-.91V5Z"/><path clip-path="url(#b)" d="M61.95 13.76c0 2.14 1.11 3.85 2.94 3.85 1.87 0 2.92-1.59 2.92-3.85 0-2.12-1.04-3.85-2.96-3.85-1.97 0-2.9 1.69-2.9 3.85m6.82-.02c0 2.51-1.35 4.74-3.95 4.74-2.36 0-3.83-2-3.83-4.72 0-2.58 1.38-4.72 3.92-4.72 2.32 0 3.86 1.87 3.86 4.7"/><path clip-path="url(#b)" d="M71.1 9.26c1.28 4.63 2.02 7.28 2.16 8.08h.02c.14-.73 1-3.52 2.35-8.08h.97c1.61 5.54 2.09 7.14 2.25 7.85h.02c.24-.99.64-2.34 2.23-7.85h.96l-2.75 9.01h-.99c-.94-3.19-2.06-7.06-2.23-7.89h-.02c-.17.89-1.15 4.09-2.28 7.89H72.7L70.14 9.26Z"/><path clip-path="url(#b)" d="M84.21 15.77c.29 1.16 1.09 1.86 2.46 1.86 1.54 0 2.16-.73 2.16-1.73 0-1.02-.42-1.52-2.35-2-2.26-.56-2.82-1.27-2.82-2.46 0-1.24.91-2.4 2.89-2.4s2.93 1.25 3.06 2.53h-.9c-.15-.75-.72-1.68-2.2-1.68-1.5 0-1.93.77-1.93 1.48 0 .82.42 1.23 2.14 1.66 2.47.61 3.07 1.45 3.07 2.8 0 1.64-1.29 2.65-3.14 2.65-2 0-3.12-1.09-3.36-2.71Z"/><path clip-path="url(#b)" d="M107.05 10.17l-3.04 4.85c-1.48 2.35-2.54 3.42-4.51 3.42-2 0-3.17-1.64-3.17-3.21 0-1.54.69-2.7 3.26-4.14 1.76-1.17 2.44-1.68 2.44-2.83 0-.98-.6-1.93-1.76-1.93-1.09 0-1.85.7-1.85 2 0 .81.54 1.56 1.58 2.58l7.22 7.35h-1.35l-6.58-6.71c-1.12-1.11-1.79-1.94-1.79-3.22 0-1.43.93-2.85 2.8-2.85 1.58 0 2.66 1.23 2.66 2.78 0 1.23-.66 2.03-2.8 3.39-2.44 1.42-2.86 2.31-2.86 3.5 0 1.29 1.07 2.38 2.2 2.38 1.41 0 2.34-.51 3.91-3.09l2.59-4.27Z"/><path clip-path="url(#b)" d="M125.09 12.49c0-2.46.02-4.82.07-6.08h-.05c-.49 1.71-2.94 7.88-4.48 11.86h-.95c-1.16-3.09-3.69-9.95-4.25-11.87h-.04c.09 1.44.12 4.37.12 6.53v5.35h-.97V5.67H116c1.66 4.3 3.74 9.92 4.19 11.35h.03c.28-.93 2.69-7.18 4.39-11.35h1.45v12.6h-.98Z"/><path clip-path="url(#b)" d="M135.72 15.64c0 .88.02 2.28.02 2.63h-.87c-.03-.24-.05-.83-.05-1.56-.37 1.06-1.26 1.77-2.8 1.77-1.27 0-2.86-.52-2.86-3.26V9.26h.89V15c0 1.31.4 2.58 2.11 2.58 1.93 0 2.66-1.12 2.66-3.68V9.26h.91Z"/><path clip-path="url(#b)" d="M138.75 18.27h.91V5h-.91Z" fill-rule="evenodd"/><path clip-path="url(#b)" d="M141.49 9.26h1.61V6.45h.91v2.8h2.07v.87h-2.07v5.82c0 1 .21 1.57 1.04 1.57.26 0 .62-.02.9-.11v.81c-.3.13-.73.16-1.09.16-1.13 0-1.76-.58-1.76-2.03V10.13h-1.61Z"/><path clip-path="url(#b)" d="M148.04 9.26h.91v9.01h-.91Zm0-4.26h.91V6.76h-.91Z"/><path clip-path="url(#b)" d="M151.46 14.12h4.4v-.91h-4.4Z" fill-rule="evenodd"/><path clip-path="url(#b)" d="M168 14.89c-.57 2.01-2.01 3.52-4.6 3.52-3.51 0-5.36-2.88-5.36-6.42 0-3.4 1.81-6.5 5.38-6.5 2.64 0 4.19 1.52 4.59 3.63h-.98c-.55-1.62-1.57-2.7-3.67-2.7-3.01 0-4.27 2.84-4.27 5.55 0 2.69 1.24 5.52 4.34 5.52 1.98 0 2.98-1.07 3.58-2.6Z"/><path clip-path="url(#b)" d="M170.49 9.26h.91v9.01h-.91Zm0-4.26h.91V6.76h-.91Z"/><path clip-path="url(#b)" d="M173.24 9.26h1.61V6.45h.91v2.8h2.07v.87h-2.07v5.82c0 1 .21 1.57 1.04 1.57.26 0 .62-.02.9-.11v.81c-.3.13-.73.16-1.09.16-1.13 0-1.76-.58-1.76-2.03V10.13h-1.61Z"/><path clip-path="url(#b)" d="M180.12 9.26c1.74 5.11 2.51 7.25 2.8 8.22h.02c.35-1.1 1.04-3.18 2.72-8.22h.94l-3.27 9.53c-.92 2.66-1.55 3.26-3.13 3.26-.31 0-.53-.02-.81-.05v-.92c.26.03.5.05.78.05 1.25 0 1.65-.62 2.29-2.46l-3.33-9.4Z"/><path clip-path="url(#b)" d="M199.49 13.01c-1.35-3.72-2.04-5.52-2.29-6.37h-.02c-.3.96-1.08 3.19-2.17 6.37Zm-4.81.93l-1.54 4.32h-.99l4.47-12.6h1.16l4.66 12.6h-1.07l-1.57-4.32Z"/><path clip-path="url(#b)" d="M210.94 15.61c-.42 1.58-1.43 2.87-3.39 2.87-2.19 0-3.74-1.68-3.74-4.68 0-2.47 1.28-4.76 3.85-4.76 2.23 0 3.14 1.63 3.29 2.89h-.92c-.26-1.04-.92-2.02-2.39-2.02-1.83 0-2.87 1.61-2.87 3.85 0 2.14.97 3.85 2.78 3.85 1.26 0 2.02-.66 2.47-2Z"/><path clip-path="url(#b)" d="M212.04 9.26h1.62V6.45h.91v2.8h2.07v.87h-2.07v5.82c0 1 .21 1.57 1.04 1.57.26 0 .62-.02.9-.11v.81c-.3.13-.73.16-1.09.16-1.13 0-1.76-.58-1.76-2.03V10.13h-1.62Z"/><path clip-path="url(#b)" d="M218.58 9.26h.91v9.01h-.91Zm0-4.26h.91V6.76h-.91Z"/><path clip-path="url(#b)" d="M222.41 9.26c1.4 4.1 2.37 6.91 2.7 8.06h.02c.19-.69 1.17-3.37 2.84-8.06h.96l-3.29 9.01h-1.08l-3.1-9.01Z"/><path clip-path="url(#b)" d="M235.75 13.68h-1.69c-1.93 0-3.11.52-3.11 2.06 0 1.12.78 1.89 1.99 1.89 2.47 0 2.82-1.7 2.82-3.63Zm.89 2.86c0 .79.07 1.44.12 1.73h-.87c-.07-.21-.12-.61-.16-1.38-.3.66-1.06 1.59-2.85 1.59-2.02 0-2.9-1.35-2.9-2.71 0-1.98 1.49-2.89 4.1-2.89h1.65v-.91c0-.9-.26-2.09-2.23-2.09-1.74 0-2.01.94-2.19 1.68h-.9c.11-1 .71-2.53 3.12-2.53 2 0 3.12.87 3.12 2.85Z"/><path clip-path="url(#b)" d="M238.29 9.26h1.61V6.45h.91v2.8h2.07v.87h-2.07v5.82c0 1 .21 1.57 1.04 1.57.26 0 .62-.02.9-.11v.81c-.3.13-.73.16-1.09.16-1.13 0-1.76-.58-1.76-2.03V10.13h-1.61Z"/><path clip-path="url(#b)" d="M244.83 9.26h.91v9.01h-.91Zm0-4.26h.91V6.76h-.91Z"/><path clip-path="url(#b)" d="M249.02 13.76c0 2.14 1.11 3.85 2.94 3.85 1.87 0 2.92-1.59 2.92-3.85 0-2.12-1.04-3.85-2.96-3.85-1.97 0-2.9 1.69-2.9 3.85m6.82-.02c0 2.51-1.35 4.74-3.95 4.74-2.36 0-3.83-2-3.83-4.72 0-2.58 1.38-4.72 3.92-4.72 2.32 0 3.86 1.87 3.86 4.7"/><path clip-path="url(#b)" d="M258.17 11.53c0-.79 0-1.55-.02-2.27h.89c.04.29.05 1.45.04 1.7.38-.91 1.1-1.91 2.89-1.91 1.56 0 2.93.91 2.93 3.39v5.84h-.91V12.58c0-1.59-.64-2.63-2.14-2.63-2.05 0-2.76 1.76-2.76 3.71v4.6h-.91Z"/><path clip-path="url(#b)" d="M267.9 15.77c.29 1.16 1.09 1.86 2.46 1.86 1.54 0 2.16-.73 2.16-1.73 0-1.02-.42-1.52-2.35-2-2.26-.56-2.82-1.27-2.82-2.46 0-1.24.91-2.4 2.89-2.4s2.93 1.25 3.06 2.53h-.9c-.15-.75-.72-1.68-2.2-1.68-1.5 0-1.93.77-1.93 1.48 0 .82.42 1.23 2.14 1.66 2.47.61 3.08 1.45 3.08 2.8 0 1.64-1.29 2.65-3.14 2.65-2 0-3.12-1.09-3.36-2.71Z"/></g></g></svg>