<?xml version="1.0" encoding="UTF-8"?><!DOCTYPE svg PUBLIC "-//W3C//DTD SVG 1.0//EN" "http://www.w3.org/TR/2001/REC-SVG-20010904/DTD/svg10.dtd" []><svg xmlns="http://www.w3.org/2000/svg" xmlns:xlink="http://www.w3.org/1999/xlink" height="25" stroke="#000" stroke-linecap="square" stroke-miterlimit="10" viewBox="0 0 198.19 25.02" width="198"><defs><clipPath id="a"><path d="M0 0V25.02H198.19V0Z"/></clipPath><clipPath clip-path="url(#a)" id="b"><path d="M-145.9 358.71H814.22v-540H-145.9Z"/></clipPath><clipPath clip-path="url(#b)" id="c"><path d="M-145.9 358.71H814.11v-540H-145.9Z"/></clipPath></defs><g><g fill="#fff" stroke="none"><path clip-path="url(#c)" d="M13.92 13.23c-.75 2.31-2.32 3.61-4.9 3.61C6.41 16.84 5 15.16 5 12.39c0-2.88 1.6-6.9 5.74-6.9 2.4 0 3.86 1.33 3.93 3.65H12.39c-.04-.92-.42-1.85-1.9-1.85-2.11 0-3.16 2.8-3.16 5.07 0 1.5.48 2.67 1.93 2.67 1.25 0 1.9-.75 2.35-1.8Z"/><path clip-path="url(#c)" d="M16.1 10.85c.17-.81.32-1.69.46-2.45H18.6c-.02.21-.09.83-.23 1.51.55-.99 1.27-1.67 2.67-1.67l-.43 2.18c-1.46.02-2.49.85-2.86 2.66l-.74 3.6H14.9Z"/><path clip-path="url(#c)" d="M26.76 11.58c.03-.15.03-.27.03-.37 0-.73-.31-1.34-1.24-1.34-.97 0-1.56.64-1.83 1.71Zm-3.31 1.45c-.03.18-.05.32-.05.49 0 .88.32 1.64 1.27 1.64.86 0 1.23-.48 1.5-1.01h2.19c-.45 1.23-1.47 2.68-3.87 2.68-2.16 0-3.21-1.4-3.21-3.4 0-2.18 1.16-5.2 4.34-5.2 2.36 0 3.18 1.49 3.18 3.18 0 .67-.08 1.15-.21 1.61Z"/><path clip-path="url(#c)" d="M34.85 12.96c-.52 0-.97.04-1.38.09-1.18.18-1.65.59-1.65 1.29 0 .48.3.85.98.85 1.45 0 1.82-1.22 2.02-2.1Zm1.75 1.69c-.18.86-.35 1.79-.36 2.03H34.19c.02-.24.07-.67.11-.94-.4.53-.93 1.1-2.42 1.1-1.58 0-2.24-1.15-2.24-2.13 0-2.31 1.95-2.92 3.72-3.12.67-.07 1.29-.07 1.79-.08l.07-.39c.12-.6.12-1.38-1.02-1.38-1 0-1.18.56-1.37.96H30.69c.3-1.33 1.19-2.47 3.68-2.47 1.95 0 3.39.83 2.94 3.01Z"/><path clip-path="url(#c)" d="M39.06 8.4h1.19l.47-2.23H42.8L42.35 8.4h1.51l-.36 1.66H41.99l-.84 4.17c-.1.52-.06.86.57.86.24 0 .45-.02.69-.05l-.32 1.58c-.47.15-.98.16-1.43.16-1.67 0-1.93-.99-1.64-2.44l.86-4.27H38.7Z"/><path clip-path="url(#c)" d="M46.09 5h2.1l-.42 2.05h-2.1ZM45.4 8.4h2.1l-1.7 8.29h-2.1Z"/><path clip-path="url(#c)" d="M50.95 8.4c.27 3.47.39 5.2.4 6.26h.01c.5-1.23 1.36-2.96 2.93-6.26H56.5l-4.33 8.29H49.75L48.87 8.4Z"/><path clip-path="url(#c)" d="M61.99 11.58c.03-.15.04-.27.04-.37 0-.73-.31-1.34-1.24-1.34-.97 0-1.56.64-1.83 1.71Zm-3.31 1.45c-.03.18-.05.32-.05.49 0 .88.32 1.64 1.27 1.64.86 0 1.23-.48 1.5-1.01h2.19c-.45 1.23-1.47 2.68-3.87 2.68-2.16 0-3.21-1.4-3.21-3.4 0-2.18 1.16-5.2 4.34-5.2 2.36 0 3.18 1.49 3.18 3.18 0 .67-.09 1.15-.21 1.61Z"/><path clip-path="url(#c)" d="M76.85 11.86H72.04l-.61 2.98H76.9l-.63 1.85H68.91L71.17 5.65h7.17L77.96 7.5H72.94l-.51 2.51h4.8Z"/><path clip-path="url(#c)" d="M83.38 12.96c-.52 0-.97.04-1.38.09-1.18.18-1.65.59-1.65 1.29 0 .48.3.85.98.85 1.45 0 1.82-1.22 2.02-2.1Zm1.75 1.69c-.18.86-.35 1.79-.36 2.03H82.72c.02-.24.07-.67.11-.94-.4.53-.93 1.1-2.42 1.1-1.58 0-2.24-1.15-2.24-2.13 0-2.31 1.95-2.92 3.72-3.12.67-.07 1.29-.07 1.79-.08l.07-.39c.12-.6.12-1.38-1.02-1.38-1 0-1.18.56-1.37.96H79.21c.3-1.33 1.19-2.47 3.68-2.47 1.95 0 3.39.83 2.94 3.01Z"/><path clip-path="url(#c)" d="M87.58 8.4h1.19l.47-2.23h2.09L90.88 8.4h1.51l-.36 1.66H90.52l-.84 4.17c-.11.52-.06.86.57.86.24 0 .45-.02.69-.05l-.32 1.58c-.47.15-.98.16-1.42.16-1.67 0-1.93-.99-1.64-2.44l.86-4.27H87.22Z"/><path clip-path="url(#c)" d="M97.99 11.58c.03-.15.04-.27.04-.37 0-.73-.31-1.34-1.24-1.34-.97 0-1.55.64-1.83 1.71Zm-3.31 1.45c-.03.18-.05.32-.05.49 0 .88.32 1.64 1.27 1.64.86 0 1.23-.48 1.5-1.01h2.19c-.45 1.23-1.47 2.68-3.87 2.68-2.16 0-3.21-1.4-3.21-3.4 0-2.18 1.16-5.2 4.35-5.2 2.36 0 3.18 1.49 3.18 3.18 0 .67-.09 1.15-.21 1.61Z"/><path clip-path="url(#c)" d="M102.07 10.85c.17-.81.32-1.69.46-2.45h2.03c-.02.21-.09.83-.23 1.51.55-.99 1.27-1.67 2.67-1.67l-.43 2.18c-1.46.02-2.49.85-2.86 2.66l-.74 3.6h-2.1Z"/><path clip-path="url(#c)" d="M109.23 5h2.1l-.42 2.05h-2.1Zm-.69 3.4h2.11l-1.7 8.29h-2.11Z"/><path clip-path="url(#c)" d="M116.92 11.58c.03-.15.03-.27.03-.37 0-.73-.31-1.34-1.24-1.34-.96 0-1.55.64-1.83 1.71Zm-3.31 1.45c-.03.18-.05.32-.05.49 0 .88.32 1.64 1.27 1.64.86 0 1.23-.48 1.5-1.01h2.19c-.45 1.23-1.47 2.68-3.87 2.68-2.16 0-3.21-1.4-3.21-3.4 0-2.18 1.16-5.2 4.34-5.2 2.36 0 3.18 1.49 3.18 3.18 0 .67-.09 1.15-.21 1.61Z"/><path clip-path="url(#c)" d="M121.87 14.12c.05.72.51 1.1 1.39 1.1.83 0 1.15-.39 1.15-.93 0-.53-.42-.79-1.42-1.12-1.88-.6-2.45-1.27-2.45-2.29 0-1.5 1.13-2.64 3.26-2.64 2.23 0 3.23 1.17 3.18 2.49h-2.14c-.02-.44-.25-.89-1.15-.89-.52 0-1.04.18-1.04.76 0 .44.42.61 1.41.94 1.87.61 2.52 1.37 2.52 2.52 0 1.9-1.66 2.78-3.56 2.78-2.14 0-3.38-1-3.28-2.73Z"/><path clip-path="url(#c)" d="M141.22 13.23c-.75 2.31-2.32 3.61-4.9 3.61-2.61 0-4.02-1.68-4.02-4.45 0-2.88 1.6-6.9 5.74-6.9 2.4 0 3.86 1.33 3.93 3.65h-2.28c-.05-.92-.43-1.85-1.9-1.85-2.11 0-3.16 2.8-3.16 5.07 0 1.5.48 2.67 1.93 2.67 1.25 0 1.9-.75 2.35-1.8Z"/><path clip-path="url(#c)" d="M147.54 12.96c-.52 0-.97.04-1.38.09-1.18.18-1.64.59-1.64 1.29 0 .48.3.85.98.85 1.45 0 1.82-1.22 2.02-2.1Zm1.75 1.69c-.18.86-.35 1.79-.36 2.03h-2.05c.02-.24.07-.67.11-.94-.4.53-.93 1.1-2.42 1.1-1.58 0-2.24-1.15-2.24-2.13 0-2.31 1.95-2.92 3.72-3.12.67-.07 1.29-.07 1.79-.08l.07-.39c.12-.6.12-1.38-1.02-1.38-1 0-1.18.56-1.36.96h-2.15c.3-1.33 1.19-2.47 3.68-2.47 1.95 0 3.39.83 2.94 3.01Z"/><path clip-path="url(#c)" d="M151.75 8.4h1.19l.47-2.23h2.09l-.45 2.23h1.51l-.36 1.66h-1.51l-.84 4.17c-.11.52-.06.86.57.86.24 0 .45-.02.69-.05l-.32 1.58c-.47.15-.98.16-1.43.16-1.67 0-1.93-.99-1.64-2.44l.86-4.27h-1.19Z"/><path clip-path="url(#c)" d="M162.15 11.58c.03-.15.03-.27.03-.37 0-.73-.31-1.34-1.24-1.34-.97 0-1.56.64-1.83 1.71Zm-3.31 1.45c-.03.18-.05.32-.05.49 0 .88.32 1.64 1.27 1.64.86 0 1.23-.48 1.5-1.01h2.19c-.45 1.23-1.47 2.68-3.87 2.68-2.16 0-3.21-1.4-3.21-3.4 0-2.18 1.16-5.2 4.34-5.2 2.36 0 3.18 1.49 3.18 3.18 0 .67-.08 1.15-.21 1.61Z"/><path clip-path="url(#c)" d="M166.23 10.85c.17-.81.33-1.69.46-2.45h2.03c-.02.21-.09.83-.23 1.51.55-.99 1.27-1.67 2.67-1.67l-.43 2.18c-1.46.02-2.49.85-2.86 2.66l-.74 3.6h-2.11Z"/><path clip-path="url(#c)" d="M173.39 5h2.11l-.42 2.05h-2.1Zm-.69 3.4h2.1l-1.7 8.29H171Z"/><path clip-path="url(#c)" d="M176.53 10.5c.14-.7.29-1.4.4-2.1h2.06c-.02.23-.11.83-.16 1.04.37-.5 1.08-1.2 2.42-1.2 1.58 0 2.48.99 1.98 3.44l-1.02 5.01h-2.09l1.02-5.03c.2-.93 0-1.6-.9-1.6-1.03 0-1.67.8-1.99 2.34l-.87 4.29h-2.11Z"/><path clip-path="url(#c)" d="M186.92 13.21c0 1.02.42 1.61 1.3 1.61 1.11 0 1.81-.98 2.13-2.49.24-1.12.17-2.34-1.25-2.34-1.46 0-2.18 1.75-2.18 3.22m4.77 2.27c-.55 2.68-1.26 4.54-4.39 4.54-3.01 0-3.27-1.66-3.28-2.63h2.13c.03.5.35 1 1.31 1 1.21 0 1.69-.77 2.07-2.54l.06-.25c-.53.68-1.21.99-2.24.99-1.73 0-2.65-1.3-2.65-3.21 0-2.44 1.52-5.14 4.07-5.14 1.24 0 1.91.47 2.13.99.07-.25.21-.65.27-.83h2.02c-.14.61-.31 1.37-.45 2.07Z"/><path clip-path="url(#c)" d="M31.14 17.63c0 .83-.68 1.51-1.51 1.51s-1.51-.68-1.51-1.51.68-1.51 1.51-1.51 1.51.68 1.51 1.51"/></g></g></svg>