<?xml version="1.0" encoding="UTF-8"?><!DOCTYPE svg PUBLIC "-//W3C//DTD SVG 1.0//EN" "http://www.w3.org/TR/2001/REC-SVG-20010904/DTD/svg10.dtd" []><svg xmlns="http://www.w3.org/2000/svg" xmlns:xlink="http://www.w3.org/1999/xlink" height="53" stroke="#000" stroke-linecap="square" stroke-miterlimit="10" viewBox="0 0 214.86 52.55" width="215"><defs><clipPath id="a"><path d="M0 0V52.55H214.86V0Z"/></clipPath><clipPath clip-path="url(#a)" id="b"><path d="M-59.48 358.22H900.64V-181.9H-59.48Z"/></clipPath><clipPath clip-path="url(#b)" id="c"><path d="M-59.43 358.16H900.58v-540H-59.43Z"/></clipPath></defs><g><g fill="#fff" stroke="none"><path clip-path="url(#c)" d="M14.01 34.84c.94 4.15 3.92 5.98 8.71 5.98 4.77 0 6.82-1.89 6.82-4.91 0-3.37-1.99-4.83-9.07-6.47C9.21 26.79 6.43 22.69 6.43 17.11 6.43 9.9 11.82 5 21.62 5 32.6 5 36.97 10.9 37.57 16.95H28.55c-.43-2.55-1.84-5.31-7.17-5.31-3.63 0-5.82 1.5-5.82 4.44 0 2.88 1.76 4.04 8.44 5.59 12.03 2.83 14.67 7.31 14.67 13.14 0 7.55-5.72 12.73-16.65 12.73-10.5 0-16.03-5.17-17.02-12.71Z"/><path clip-path="url(#c)" d="M54.22 5.6V30.25c0 7.94 4.08 10.29 8.54 10.29 5.12 0 8.33-2.78 8.33-10.29V5.6h8.95V29.8c0 14.14-8.28 17.75-17.4 17.75-9.34 0-17.38-3.76-17.38-17.58V5.6Z"/><path clip-path="url(#c)" d="M95.67 34.84c.94 4.15 3.92 5.98 8.71 5.98 4.77 0 6.82-1.89 6.82-4.91 0-3.37-1.99-4.83-9.07-6.47-11.26-2.64-14.04-6.74-14.04-12.32C88.09 9.9 93.48 5 103.27 5c10.98 0 15.36 5.9 15.95 11.95h-9.01c-.43-2.55-1.84-5.31-7.17-5.31-3.63 0-5.82 1.5-5.82 4.44 0 2.88 1.76 4.04 8.44 5.59 12.03 2.83 14.67 7.31 14.67 13.14 0 7.55-5.72 12.73-16.65 12.73-10.5 0-16.03-5.17-17.02-12.71Z"/><path clip-path="url(#c)" d="M136.22 12.93H123.65V5.6h34.04v7.33H145.17V46.96h-8.95Z"/><path clip-path="url(#c)" d="M180.27 30.08c-2.94-8.73-4.81-14.31-5.81-18.02h-.06c-1.02 4.08-3.09 10.57-5.44 18.02Zm-13.19 7.33l-3.23 9.55h-8.79L169.11 5.6h11.23L195 46.96h-9.4l-3.4-9.55Z"/><path clip-path="url(#c)" d="M200.91 46.96h8.94V5.6h-8.94Z" fill-rule="evenodd"/></g></g></svg>