<?xml version="1.0" encoding="UTF-8"?><!DOCTYPE svg PUBLIC "-//W3C//DTD SVG 1.0//EN" "http://www.w3.org/TR/2001/REC-SVG-20010904/DTD/svg10.dtd" []><svg xmlns="http://www.w3.org/2000/svg" xmlns:xlink="http://www.w3.org/1999/xlink" height="36" stroke="#000" stroke-linecap="square" stroke-miterlimit="10" viewBox="0 0 320.69 35.91" width="321"><g><g fill="#fff" stroke="none"><path d="M25.56 23.8c-1.18 4.01-4.15 7.04-9.49 7.04C8.81 30.84 5 25.08 5 17.99 5 11.19 8.75 5 16.1 5c5.46 0 8.66 3.04 9.49 7.25H23.57c-1.14-3.25-3.24-5.4-7.58-5.4-6.22 0-8.83 5.68-8.83 11.1 0 5.37 2.57 11.03 8.98 11.03 4.09 0 6.16-2.13 7.4-5.19Z"/><path d="M32.04 17.85c0 5.77 3.18 11.21 9.19 11.21 6.48 0 9.19-5.3 9.19-11.24 0-5.84-3.07-10.96-9.12-10.96-6.44 0-9.26 5.32-9.26 10.99m20.54-.07c0 6.88-3.68 13.13-11.46 13.13-7.11 0-11.24-5.72-11.24-12.96C29.88 10.82 33.88 5 41.37 5c6.92 0 11.21 5.43 11.21 12.78"/><path d="M58.45 5.36h2.02V28.69H73.98l-.36 1.85H58.45Z"/><path d="M78.22 5.36h2.02V28.69H93.74l-.36 1.85H78.22Z"/><path d="M112.05 20.05c-2.78-7.44-4.22-11.03-4.72-12.74h-.04c-.61 1.92-2.22 6.37-4.47 12.74Zm-9.93 1.86l-3.18 8.65H96.9l9.23-25.19h2.4l9.63 25.19h-2.2l-3.25-8.65Z"/><path d="M124.95 28.7h7.04c3.3 0 6.04-1.65 6.04-5.32 0-3.18-2.03-5.35-7.06-5.35h-6.02Zm6.2-12.53c4.32 0 5.96-1.61 5.96-4.5 0-2.47-1.72-4.46-5.22-4.46h-6.94v8.96ZM122.97 5.36h8.83c4.85 0 7.43 2.57 7.43 6.19 0 2.98-1.79 4.92-3.87 5.51 1.8.51 4.77 2.27 4.77 6.21 0 5.02-3.77 7.27-8.18 7.27h-8.98Z"/><path d="M146.59 17.85c0 5.77 3.18 11.21 9.19 11.21 6.48 0 9.19-5.3 9.19-11.24 0-5.84-3.07-10.96-9.12-10.96-6.44 0-9.26 5.32-9.26 10.99m20.54-.07c0 6.88-3.68 13.13-11.46 13.13-7.11 0-11.24-5.72-11.24-12.96 0-7.13 4.01-12.95 11.5-12.95 6.92 0 11.21 5.43 11.21 12.78"/><path d="M175.05 16.96h6.05c4.4 0 6.43-1.64 6.43-4.93 0-3.07-2-4.82-5.9-4.82h-6.58Zm0 1.85V30.55h-2.05V5.36h9.08c4.98 0 7.61 2.67 7.61 6.63 0 3.21-1.91 5.29-4.69 5.9 2.56.61 4.29 2.29 4.29 6.58v.98c0 1.76-.14 4.13.33 5.1h-2.05c-.47-1.08-.36-3.09-.36-5.26v-.64c0-4.11-1.21-5.83-6.02-5.83Z"/><path d="M209.04 20.05c-2.78-7.44-4.22-11.03-4.72-12.74h-.04c-.61 1.92-2.22 6.37-4.47 12.74Zm-9.93 1.86l-3.18 8.65h-2.05l9.23-25.19h2.4l9.63 25.19h-2.2L209.7 21.9Z"/><path d="M221.92 7.22h-8.44V5.36h18.97V7.22h-8.47V30.55h-2.05Z"/><path d="M236.54 30.55h2.02V5.36h-2.02Z" fill-rule="evenodd"/><path d="M246.6 17.85c0 5.77 3.18 11.21 9.19 11.21 6.48 0 9.19-5.3 9.19-11.24 0-5.84-3.07-10.96-9.12-10.96-6.44 0-9.26 5.32-9.26 10.99m20.54-.07c0 6.88-3.68 13.13-11.46 13.13-7.11 0-11.24-5.72-11.24-12.96 0-7.13 4.01-12.95 11.5-12.95 6.92 0 11.21 5.43 11.21 12.78"/><path d="M273.01 30.55V5.36h2.96c3.9 6.04 13.04 20.02 14.62 22.76h.04c-.22-3.61-.18-7.33-.18-11.44V5.36h2.04V30.55h-2.74c-3.72-5.81-13.01-20.39-14.8-23.17h-.04c.18 3.29.15 6.99.15 11.56V30.55Z"/><path d="M300.12 23.77c.75 3.33 2.97 5.29 7.09 5.29 4.57 0 6.32-2.28 6.32-4.99 0-2.83-1.26-4.57-6.77-5.93-5.36-1.34-7.65-3.08-7.65-6.71 0-3.33 2.43-6.43 7.84-6.43 5.57 0 7.91 3.39 8.24 6.46h-2.09c-.57-2.67-2.31-4.61-6.26-4.61-3.6 0-5.57 1.67-5.57 4.46 0 2.75 1.64 3.82 6.27 4.97 7.09 1.76 8.15 4.6 8.15 7.64 0 3.73-2.71 6.93-8.56 6.93-6.3 0-8.62-3.66-9.1-7.07Z"/></g></g></svg>