<?xml version="1.0" encoding="UTF-8"?><!DOCTYPE svg PUBLIC "-//W3C//DTD SVG 1.0//EN" "http://www.w3.org/TR/2001/REC-SVG-20010904/DTD/svg10.dtd" []><svg xmlns="http://www.w3.org/2000/svg" xmlns:xlink="http://www.w3.org/1999/xlink" height="36" stroke="#000" stroke-linecap="square" stroke-miterlimit="10" viewBox="0 0 231.39 35.84" width="231"><defs><clipPath id="a"><path d="M0 0V35.84H231.39V0Z"/></clipPath><clipPath clip-path="url(#a)" id="b"><path d="M-362.54 246.49H597.58v-540H-362.54Z"/></clipPath></defs><g><g fill="#FF00A4" stroke="none"><path clip-path="url(#b)" d="M26.11 19.01c0-4.92.04-9.63.14-12.16h-.11c-.98 3.42-5.88 15.75-8.96 23.7h-1.9C12.95 24.38 7.88 10.65 6.77 6.81H6.7c.17 2.88.24 8.73.24 13.05V30.55H5V5.36H7.93c3.32 8.59 7.49 19.83 8.39 22.69h.07c.56-1.87 5.39-14.35 8.78-22.69h2.89V30.55H26.11Z"/><path clip-path="url(#b)" d="M49.95 18.2H37.52V28.69H51.14l-.29 1.86H35.57V5.36h15V7.21H37.52v9.13H49.95Z"/><path clip-path="url(#b)" d="M68.97 20.04c-2.7-7.44-4.09-11.03-4.58-12.74h-.03c-.59 1.92-2.15 6.37-4.33 12.74ZM59.36 21.9l-3.08 8.65H54.29L63.24 5.36h2.32l9.33 25.19H72.76L69.61 21.9Z"/><path clip-path="url(#b)" d="M79.53 30.55V5.36H82.4c3.78 6.04 12.64 20.02 14.16 22.76h.04c-.21-3.61-.18-7.33-.18-11.44V5.36H98.4V30.55H95.74c-3.6-5.81-12.61-20.39-14.34-23.17h-.04c.18 3.29.14 6.99.14 11.56V30.55Z"/><path clip-path="url(#b)" d="M105.89 30.55h1.95V5.36h-1.95Z" fill-rule="evenodd"/><path clip-path="url(#b)" d="M115.34 30.55V5.36h2.87c3.78 6.04 12.64 20.02 14.16 22.76h.04c-.21-3.61-.18-7.33-.18-11.44V5.36h1.98V30.55h-2.66c-3.6-5.81-12.61-20.39-14.34-23.17h-.04c.17 3.29.14 6.99.14 11.56V30.55Z"/><path clip-path="url(#b)" d="M160.22 30.55H158.6c-.14-.3-.21-1.58-.25-4-.88 1.73-2.81 4.29-7.86 4.29-7.01 0-10.61-5.51-10.61-12.67 0-7.52 3.84-13.17 11-13.17 5.29 0 8.78 2.86 9.54 7.49h-1.95c-1.03-3.52-3.42-5.64-7.65-5.64-6.08 0-8.84 4.88-8.84 11.21 0 5.73 2.66 10.93 8.6 10.93 6.07 0 7.76-4.08 7.76-9.59v-.29h-7.82V17.25h9.71Z"/><path clip-path="url(#b)" d="M166.86 5.36h14.83V7.21H168.81v9.43h12.07V18.5H168.81V30.55h-1.95Z"/><path clip-path="url(#b)" d="M188.09 5.36V20.61c0 6.65 3.63 8.37 7.07 8.37 4.06 0 7.06-1.76 7.06-8.37V5.36h1.99V20.5c0 7.89-4.06 10.34-9.12 10.34-4.82 0-9.02-2.69-9.02-10.02V5.36Z"/><path clip-path="url(#b)" d="M211.35 5.36h1.95V28.69h13.09l-.35 1.86H211.35Z"/></g></g></svg>