<?xml version="1.0" encoding="UTF-8"?><!DOCTYPE svg PUBLIC "-//W3C//DTD SVG 1.0//EN" "http://www.w3.org/TR/2001/REC-SVG-20010904/DTD/svg10.dtd" []><svg xmlns="http://www.w3.org/2000/svg" xmlns:xlink="http://www.w3.org/1999/xlink" height="27" stroke="#000" stroke-linecap="square" stroke-miterlimit="10" viewBox="0 0 114.26 27.03" width="114"><defs><clipPath id="a"><path d="M0 0V27.03H114.26V0Z"/></clipPath><clipPath clip-path="url(#a)" id="b"><path d="M-445.43 85.59H514.69v-540H-445.43Z"/></clipPath><clipPath clip-path="url(#b)" id="c"><path d="M-445.43 85.59H514.58v-540H-445.43Z"/></clipPath></defs><g><g fill="#FB03A0" stroke="none"><path clip-path="url(#c)" d="M5 22.03H109.26V5H5Z" fill-rule="evenodd"/><path clip-path="url(#c)" d="M18.51 13.5c.24-1.16.51-2.37.68-3.03h-.03c-.45.96-2.02 3.77-3.09 5.7h-.72c-.19-1.56-.63-4.97-.65-5.71h-.03c-.1.68-.39 2.12-.62 3.2l-.52 2.51h-.75L14.1 9.9h1.19c.25 1.86.58 4.44.63 5.25h.02c.27-.61 1.85-3.36 2.92-5.25h1.2l-1.33 6.26h-.78Z" fill="#fff"/><path clip-path="url(#c)" d="M23.38 13.94c-.24.01-.55.01-.94.05-.74.08-1.4.28-1.4 1.01 0 .34.23.64.73.64 1 0 1.39-.78 1.59-1.63Zm.5 1.1c-.08.38-.19.95-.21 1.13h-.73c.02-.17.07-.45.12-.7-.23.37-.61.79-1.55.79-.92 0-1.26-.6-1.26-1.15 0-1.3 1.22-1.59 2.14-1.67.47-.04.88-.04 1.11-.05l.06-.31c.09-.43.05-.99-.82-.99-.77 0-.98.4-1.12.75h-.76c.16-.68.66-1.33 1.94-1.33 1.05 0 1.72.47 1.49 1.57Z" fill="#fff"/><path clip-path="url(#c)" d="M25.78 12.95c.09-.45.19-.93.26-1.35h.72c-.01.12-.08.58-.17.96.33-.64.91-1.05 1.6-1.05l-.16.77c-.87.06-1.53.72-1.74 1.74l-.45 2.14h-.75Z" fill="#fff"/><path clip-path="url(#c)" d="M29.64 9.56h.74l-.21.98h-.74Zm-.43 2.04h.75l-.97 4.56h-.74Z" fill="#fff"/><path clip-path="url(#c)" d="M31.14 12.76c.08-.4.16-.78.23-1.16h.73c-.02.14-.11.65-.14.78.26-.42.7-.87 1.54-.87.87 0 1.41.5 1.13 1.8l-.6 2.86h-.74l.59-2.83c.15-.69-.01-1.16-.7-1.16-.85 0-1.33.78-1.53 1.71l-.49 2.28h-.74Z" fill="#fff"/><path clip-path="url(#c)" d="M38.52 13.94c-.24.01-.55.01-.94.05-.74.08-1.4.28-1.4 1.01 0 .34.23.64.73.64 1 0 1.39-.78 1.59-1.63Zm.5 1.1c-.08.38-.19.95-.21 1.13h-.73c.01-.17.07-.45.12-.7-.23.37-.61.79-1.55.79-.92 0-1.26-.6-1.26-1.15 0-1.3 1.22-1.59 2.14-1.67.47-.04.88-.04 1.11-.05l.06-.31c.09-.43.05-.99-.82-.99-.77 0-.98.4-1.12.75H36c.16-.68.66-1.33 1.94-1.33 1.05 0 1.72.47 1.49 1.57Z" fill="#fff"/><path clip-path="url(#c)" d="M45.56 12.52c.86 0 1.46-.3 1.46-1.09 0-.66-.49-.89-1.11-.89H44.65l-.42 1.98Zm-1.97 3h1.54c.86 0 1.58-.4 1.58-1.28.01-.64-.41-1.08-1.35-1.08H44.09Zm.42-5.62h2.04c1.28 0 1.77.69 1.77 1.48s-.49 1.32-1.22 1.52c.48.16.93.63.93 1.31 0 1.34-1.04 1.95-2.42 1.95H42.69Z" fill="#fff"/><path clip-path="url(#c)" d="M51.53 13.94c-.24.01-.55.01-.94.05-.74.08-1.4.28-1.4 1.01 0 .34.23.64.73.64 1 0 1.39-.78 1.59-1.63Zm.5 1.1c-.08.38-.19.95-.21 1.13h-.73c.02-.17.07-.45.12-.7-.23.37-.62.79-1.55.79-.92 0-1.26-.6-1.26-1.15 0-1.3 1.22-1.59 2.13-1.67.47-.04.88-.04 1.11-.05l.06-.31c.09-.43.05-.99-.82-.99-.77 0-.98.4-1.12.75h-.76c.16-.68.66-1.33 1.94-1.33 1.05 0 1.72.47 1.49 1.57Z" fill="#fff"/><path clip-path="url(#c)" d="M54.23 11.6c.28 2.03.46 3.53.49 3.98h.01c.26-.49.83-1.77 2-3.98h.79l-2.54 4.82c-.79 1.51-1.22 1.63-2.06 1.63-.19 0-.41-.03-.52-.06l.16-.66c.1.02.2.04.41.04.6 0 .81-.25 1.22-.96l-.7-4.81Z" fill="#fff"/><path clip-path="url(#c)" d="M61.6 9.9h3.86l-.14.67H62.24l-.44 2.1h2.88l-.14.66H61.65l-.59 2.83h-.78Z" fill="#fff"/><path clip-path="url(#c)" d="M65.69 12.95c.09-.45.19-.93.27-1.35h.72c-.01.12-.08.58-.17.96.33-.64.91-1.05 1.6-1.05l-.16.77c-.87.06-1.53.72-1.74 1.74l-.45 2.14h-.75Z" fill="#fff"/><path clip-path="url(#c)" d="M69.04 14.42c0 .76.36 1.22 1.03 1.22 1.1 0 1.58-1.3 1.58-2.26 0-.77-.33-1.23-1.03-1.23-1.06 0-1.58 1.3-1.58 2.28m3.38-1.02c0 1.21-.68 2.86-2.44 2.86-1.1 0-1.71-.7-1.71-1.84 0-1.26.77-2.9 2.42-2.9 1.04 0 1.73.67 1.73 1.89" fill="#fff"/><path clip-path="url(#c)" d="M73.76 12.76c.08-.4.16-.78.23-1.16h.73c-.02.14-.11.65-.14.78.26-.42.7-.87 1.53-.87.87 0 1.41.5 1.13 1.8l-.6 2.86h-.74l.59-2.83c.15-.69-.01-1.16-.7-1.16-.85 0-1.33.78-1.53 1.71l-.48 2.28h-.74Z" fill="#fff"/><path clip-path="url(#c)" d="M78.42 11.6h.76l.28-1.32h.74l-.28 1.32h.97l-.14.61h-.97l-.58 2.76c-.09.42-.07.62.33.62.13 0 .31-.01.45-.04l-.13.59c-.21.07-.43.08-.64.08-.72 0-.95-.35-.79-1.1l.61-2.9h-.76Z" fill="#fff"/><path clip-path="url(#c)" d="M89.1 13.5c.24-1.16.51-2.37.68-3.03h-.03c-.45.96-2.02 3.77-3.09 5.7h-.72c-.19-1.56-.63-4.97-.65-5.71h-.03c-.1.68-.39 2.12-.62 3.2l-.52 2.51h-.75L84.69 9.9h1.19c.25 1.86.58 4.44.63 5.25h.02c.27-.61 1.85-3.36 2.92-5.25h1.2l-1.33 6.26h-.78Z" fill="#fff"/><path clip-path="url(#c)" d="M93.94 12.52c.86 0 1.46-.3 1.46-1.09 0-.66-.49-.89-1.11-.89H93.04l-.42 1.98Zm-1.97 3h1.54c.86 0 1.58-.4 1.58-1.28.01-.64-.41-1.08-1.35-1.08H92.48ZM92.4 9.9h2.04c1.28 0 1.77.69 1.77 1.48s-.49 1.32-1.22 1.52c.48.16.93.63.93 1.31 0 1.34-1.04 1.95-2.42 1.95H91.07Z" fill="#fff"/><path clip-path="url(#c)" d="M97.62 14.35c.07.84.6 1.27 1.48 1.27.83 0 1.38-.38 1.38-1.14 0-.57-.28-.92-1.29-1.31-1.16-.44-1.57-.88-1.57-1.61 0-.91.64-1.74 2.05-1.74 1.39 0 1.99.8 2 1.74h-.78c-.07-.64-.38-1.09-1.28-1.09-.79 0-1.19.46-1.19 1.01 0 .43.2.71 1.14 1.06 1.29.48 1.74 1.03 1.74 1.84 0 .98-.62 1.89-2.29 1.89-1.44 0-2.16-.79-2.19-1.91Z" fill="#fff"/></g></g></svg>