<?xml version="1.0" encoding="UTF-8"?><!DOCTYPE svg PUBLIC "-//W3C//DTD SVG 1.0//EN" "http://www.w3.org/TR/2001/REC-SVG-20010904/DTD/svg10.dtd" []><svg xmlns="http://www.w3.org/2000/svg" xmlns:xlink="http://www.w3.org/1999/xlink" height="73" stroke="#000" stroke-linecap="square" stroke-miterlimit="10" viewBox="0 0 473.97 73.22" width="474"><defs><clipPath id="a"><path d="M0 0V73.22H473.97V0Z"/></clipPath><clipPath clip-path="url(#a)" id="b"><path d="M-393.58 240.07H566.54v-540H-393.58Z"/></clipPath></defs><g><g fill="#fff" stroke="none"><path clip-path="url(#b)" d="M10.82 9.79H7.41l-.43 2.05h3.88l-.45 1.27H5.18L6.79 5.52h5.1l-.27 1.27H8.05L7.68 8.52H11.1Z"/><path clip-path="url(#b)" d="M14.07 7.41c.3.7.59 1.52.7 1.77h.01c.29-.37.64-.86 1.32-1.77h1.7l-2.34 2.77 1.23 2.92H15.08c-.3-.74-.59-1.54-.7-1.77h-.01c-.19.25-.76 1.04-1.33 1.77H11.37l2.35-2.89-1.22-2.81Z"/><path clip-path="url(#b)" d="M21.98 9.69c0-.82-.38-1.16-.95-1.16-.81 0-1.36.75-1.56 1.75-.19.94-.04 1.71.9 1.71 1.12 0 1.61-1.34 1.61-2.3m-2.95 2.89l-.57 2.7H16.97l1.32-6.23c.16-.77.26-1.28.32-1.65h1.48c0 .12-.07.5-.12.76.32-.43.86-.87 1.74-.87 1.15 0 1.83.87 1.83 2.23 0 1.78-1.09 3.68-3.12 3.68-.71 0-1.2-.3-1.39-.63"/><path clip-path="url(#b)" d="M28.25 9.6c.02-.11.02-.19.02-.25 0-.5-.22-.92-.88-.92-.68 0-1.1.44-1.3 1.18Zm-2.35 1c-.02.12-.03.22-.03.34 0 .6.23 1.12.9 1.12.61 0 .88-.33 1.07-.69h1.56c-.32.84-1.05 1.85-2.75 1.85-1.53 0-2.28-.96-2.28-2.34 0-1.5.82-3.58 3.09-3.58 1.67 0 2.26 1.02 2.26 2.19 0 .46-.06.79-.15 1.11Z"/><path clip-path="url(#b)" d="M31.14 9.1c.12-.56.23-1.16.33-1.69h1.44c-.01.14-.06.57-.16 1.04.39-.68.9-1.15 1.9-1.15l-.31 1.5c-1.04.01-1.77.58-2.03 1.83l-.52 2.47h-1.5Z"/><path clip-path="url(#b)" d="M35.4 7.41h.84l.33-1.54h1.48l-.32 1.54h1.07l-.26 1.14H37.49l-.6 2.87c-.07.35-.04.59.41.59.17 0 .32-.01.49-.04l-.23 1.08c-.34.11-.7.11-1.01.11-1.18 0-1.37-.68-1.16-1.68l.61-2.93h-.84Z"/><path clip-path="url(#b)" d="M48.3 10.74c-.53 1.58-1.65 2.48-3.48 2.48-1.85 0-2.85-1.15-2.85-3.06 0-1.98 1.14-4.74 4.08-4.74 1.7 0 2.74.91 2.79 2.51H47.22c-.03-.63-.3-1.27-1.35-1.27-1.5 0-2.25 1.93-2.25 3.49 0 1.03.34 1.83 1.37 1.83.89 0 1.35-.51 1.67-1.24Z"/><path clip-path="url(#b)" d="M54.16 11.59c-.11.51-.22 1.06-.3 1.52H52.4c.01-.16.07-.58.12-.79-.43.62-1.04.9-1.8.9-1.06 0-1.66-.71-1.39-2.01l.81-3.79h1.48l-.77 3.6c-.13.59-.03.98.6.98.65 0 1.22-.51 1.49-1.78l.6-2.79h1.49Z"/><path clip-path="url(#b)" d="M55.38 13.11l1.7-8.03h1.49l-1.7 8.03Z"/><path clip-path="url(#b)" d="M59.02 7.41h.84l.33-1.54h1.49l-.32 1.54h1.07l-.26 1.14H61.1l-.6 2.87c-.07.35-.04.59.41.59.17 0 .32-.01.49-.04l-.23 1.08c-.33.11-.7.11-1.01.11-1.18 0-1.37-.68-1.16-1.68l.61-2.93h-.84Z"/><path clip-path="url(#b)" d="M64.01 5.08h1.49l-.3 1.4H63.72Zm-.49 2.34h1.5l-1.2 5.69H62.32Z"/><path clip-path="url(#b)" d="M67.46 7.41c.19 2.38.27 3.57.28 4.3h.01c.35-.85.96-2.03 2.08-4.3H71.4l-3.08 5.69H66.61l-.62-5.69Z"/><path clip-path="url(#b)" d="M74.72 10.55c-.37 0-.69.03-.98.06-.84.13-1.17.4-1.17.88 0 .33.21.58.69.58 1.03 0 1.29-.84 1.43-1.44Zm1.24 1.16c-.12.59-.25 1.23-.25 1.39H74.25c.01-.16.05-.46.08-.64-.29.36-.66.75-1.72.75-1.12 0-1.59-.79-1.59-1.46 0-1.59 1.39-2.01 2.64-2.15.48-.04.92-.04 1.27-.06l.05-.27c.08-.41.08-.95-.72-.95-.71 0-.84.39-.97.66H71.77c.21-.92.85-1.7 2.62-1.7 1.38 0 2.41.57 2.09 2.07Z"/><path clip-path="url(#b)" d="M77.71 7.41h.84l.33-1.54h1.49l-.32 1.54h1.07l-.26 1.14H79.79l-.6 2.87c-.07.35-.04.59.41.59.17 0 .32-.01.49-.04l-.23 1.08c-.33.11-.7.11-1.01.11-1.18 0-1.37-.68-1.16-1.68l.61-2.93h-.84Z"/><path clip-path="url(#b)" d="M82.7 5.08H84.2l-.3 1.4H82.41Zm-.49 2.34h1.5l-1.2 5.69H81.01Z"/><path clip-path="url(#b)" d="M85.83 10.87c0 .79.33 1.18.91 1.18 1.07 0 1.5-1.49 1.5-2.46 0-.74-.31-1.13-.93-1.13-1.04 0-1.48 1.48-1.48 2.41m3.96-1.13c0 1.34-.78 3.47-3.2 3.47-1.58 0-2.32-.97-2.32-2.35 0-1.53.97-3.56 3.15-3.56 1.36 0 2.36.77 2.36 2.44"/><path clip-path="url(#b)" d="M91.28 8.86c.1-.48.21-.97.29-1.44h1.46c-.01.16-.08.57-.11.71.26-.34.77-.82 1.72-.82 1.12 0 1.76.68 1.4 2.36l-.73 3.44H93.82l.73-3.46c.14-.64 0-1.1-.64-1.1-.73 0-1.19.55-1.41 1.61l-.62 2.95h-1.5Z"/><path clip-path="url(#b)" d="M100.39 10.57h4.54v-.54h-4.54Z" fill-rule="evenodd"/><path clip-path="url(#b)" d="M109.84 11.04c.23 1.02.91 1.63 2.18 1.63 1.41 0 1.95-.7 1.95-1.54 0-.87-.39-1.41-2.08-1.83-1.63-.41-2.33-.93-2.33-2.05 0-1.01.74-1.96 2.39-1.96 1.69 0 2.41 1.03 2.51 1.97h-.62c-.18-.83-.71-1.42-1.93-1.42-1.11 0-1.72.52-1.72 1.38 0 .85.51 1.18 1.92 1.53 2.17.54 2.49 1.41 2.49 2.33 0 1.13-.83 2.11-2.61 2.11-1.92 0-2.63-1.12-2.77-2.16Z"/><path clip-path="url(#b)" d="M119.83 9.94c-.01-1.09-.61-1.95-1.68-1.95-1.13 0-1.65.79-1.77 1.95Zm-3.49.48c.01 1.42.73 2.3 1.78 2.3 1.03 0 1.39-.58 1.58-1.03h.56c-.23.72-.81 1.55-2.17 1.55-1.67 0-2.32-1.44-2.32-2.84 0-1.57.78-2.93 2.39-2.93 1.69 0 2.23 1.46 2.23 2.5 0 .15 0 .31-.01.45Z"/><path clip-path="url(#b)" d="M121.85 8.99c0-.48 0-.95-.01-1.39h.54c.02.18.03.89.02 1.04.24-.56.69-1.18 1.83-1.18.98 0 1.85.55 1.85 2.07v3.56h-.55V9.63c0-.98-.41-1.62-1.36-1.62-1.31 0-1.76 1.09-1.76 2.29v2.81h-.55Z"/><path clip-path="url(#b)" d="M127.99 7.61h.55v5.5h-.55Zm0-2.61h.55V6.07h-.55Z"/><path clip-path="url(#b)" d="M130.59 10.36c0 1.31.7 2.37 1.87 2.37 1.19 0 1.86-.98 1.86-2.37 0-1.3-.66-2.37-1.88-2.37-1.25 0-1.85 1.05-1.85 2.37m4.31-.01c0 1.53-.85 2.89-2.49 2.89-1.49 0-2.41-1.22-2.41-2.88 0-1.57.87-2.88 2.47-2.88 1.46 0 2.43 1.15 2.43 2.87"/><path clip-path="url(#b)" d="M136.38 9.1c0-.92-.01-1.32-.01-1.5h.54c.01.18.02.53.02 1.23.32-.82 1.02-1.32 1.91-1.36v.59c-1.14.08-1.91.87-1.91 2.18v2.86h-.55Z"/><path clip-path="url(#b)" d="M139.59 10.57h2.77v-.54h-2.77Z" fill-rule="evenodd"/><path clip-path="url(#b)" d="M144.04 13.11h.55V5h-.55Z" fill-rule="evenodd"/><path clip-path="url(#b)" d="M150.11 9.94c-.01-1.09-.61-1.95-1.68-1.95-1.13 0-1.65.79-1.77 1.95Zm-3.49.48c.01 1.42.72 2.3 1.78 2.3 1.03 0 1.39-.58 1.58-1.03h.56c-.23.72-.81 1.55-2.17 1.55-1.67 0-2.32-1.44-2.32-2.84 0-1.57.78-2.93 2.39-2.93 1.69 0 2.23 1.46 2.23 2.5 0 .15 0 .31-.01.45Z"/><path clip-path="url(#b)" d="M152.33 10.4c0 1.51.78 2.32 1.73 2.32 1.45 0 1.85-1 1.85-2.5 0-1.42-.34-2.23-1.75-2.23-1.09 0-1.83.87-1.83 2.41m4.1-5.4v6.52c0 .53 0 1.03.01 1.58h-.53c-.02-.13-.03-.65-.03-.92-.28.67-.89 1.06-1.85 1.06-1.43 0-2.29-1.17-2.29-2.82 0-1.69.93-2.95 2.43-2.95 1.1 0 1.54.47 1.71.82V5Z"/><path clip-path="url(#b)" d="M161.49 10.36c0 1.31.7 2.37 1.87 2.37 1.19 0 1.86-.98 1.86-2.37 0-1.3-.66-2.37-1.88-2.37-1.25 0-1.85 1.05-1.85 2.37m4.31-.01c0 1.53-.85 2.89-2.49 2.89-1.48 0-2.41-1.22-2.41-2.88 0-1.57.87-2.88 2.46-2.88 1.46 0 2.43 1.15 2.43 2.87"/><path clip-path="url(#b)" d="M167.2 7.61c.89 2.52 1.51 4.24 1.72 4.94h.01c.12-.41.74-2.05 1.8-4.94h.58l-2.08 5.5h-.66l-1.96-5.5Z"/><path clip-path="url(#b)" d="M176.11 9.94c-.01-1.09-.61-1.95-1.68-1.95-1.13 0-1.65.79-1.77 1.95Zm-3.49.48c.01 1.42.72 2.3 1.78 2.3 1.03 0 1.39-.58 1.58-1.03h.56c-.23.72-.81 1.55-2.17 1.55-1.67 0-2.32-1.44-2.32-2.84 0-1.57.78-2.93 2.39-2.93 1.69 0 2.23 1.46 2.23 2.5 0 .15 0 .31-.01.45Z"/><path clip-path="url(#b)" d="M178.14 9.1c0-.92-.01-1.32-.01-1.5h.54c.01.18.02.53.02 1.23.32-.82 1.02-1.32 1.91-1.36v.59c-1.14.08-1.91.87-1.91 2.18v2.86h-.55Z"/><path clip-path="url(#b)" d="M181.85 11.59c.19.72.69 1.15 1.56 1.15.98 0 1.38-.45 1.38-1.07 0-.63-.26-.93-1.5-1.23-1.42-.34-1.77-.77-1.77-1.5 0-.76.57-1.46 1.82-1.46s1.84.76 1.93 1.54h-.55c-.1-.46-.46-1.03-1.4-1.03-.96 0-1.23.47-1.23.91 0 .5.26.76 1.35 1.02 1.55.37 1.94.88 1.94 1.71 0 1-.81 1.62-1.97 1.62-1.25 0-1.96-.66-2.11-1.65Z"/><path clip-path="url(#b)" d="M186.85 7.61h.55v5.5h-.55Zm0-2.61h.55V6.07h-.55Z"/><path clip-path="url(#b)" d="M189.45 10.34c0 1.31.69 2.26 1.75 2.26 1.38 0 1.79-.91 1.79-2.34 0-1.45-.44-2.26-1.76-2.26-1.26 0-1.78 1.09-1.78 2.34m4.06 2.4c0 1.76-.78 2.68-2.38 2.68-1.43 0-2.03-.8-2.16-1.64h.56c.2.76.83 1.12 1.62 1.12 1.43 0 1.83-.92 1.83-2.32v-.57c-.3.72-.84 1.1-1.84 1.1-1.29 0-2.28-1.04-2.28-2.75 0-1.85 1.06-2.88 2.35-2.88 1.12 0 1.61.53 1.76.97.01-.32.02-.71.03-.84h.52c0 .2-.02 1.07-.02 1.6Z"/><path clip-path="url(#b)" d="M195.98 5V8.53c.31-.57.85-1.06 1.82-1.06.78 0 1.86.4 1.86 2.13v3.5h-.55V9.72c0-1.09-.49-1.71-1.41-1.71-1.09 0-1.72.67-1.72 2.02v3.07h-.55V5Z"/><path clip-path="url(#b)" d="M200.71 7.61h1.02V5.89h.55V7.61h1.31v.52h-1.31V11.7c0 .62.13.97.66.97.16 0 .4-.01.57-.07v.48c-.19.08-.45.1-.68.1-.7 0-1.1-.35-1.1-1.23V8.13h-1.02Z"/><path clip-path="url(#b)" d="M204.43 14.36c.54-1.07.74-2.05.77-2.66h.55c-.08.91-.43 2-.83 2.66Z"/><path clip-path="url(#b)" d="M209.46 7.61h1.02V5.89h.55V7.61h1.31v.52h-1.31V11.7c0 .62.13.97.66.97.16 0 .4-.01.57-.07v.48c-.19.08-.45.1-.68.1-.7 0-1.1-.35-1.1-1.23V8.13h-1.02Z"/><path clip-path="url(#b)" d="M213.48 9.1c0-.92-.01-1.32-.01-1.5h.54c.01.18.02.53.02 1.23.32-.82 1.02-1.32 1.91-1.36v.59c-1.14.08-1.91.87-1.91 2.18v2.86h-.55Z"/><path clip-path="url(#b)" d="M220.2 10.3h-1.08c-1.22 0-1.98.32-1.98 1.27 0 .69.5 1.17 1.27 1.17 1.57 0 1.79-1.04 1.79-2.23Zm.54 1.76c0 .48.04.87.08 1.04h-.53c-.04-.13-.08-.37-.1-.85-.19.41-.67.98-1.8.98-1.28 0-1.83-.83-1.83-1.65 0-1.21.94-1.76 2.59-1.76h1.05V9.27c0-.55-.16-1.29-1.42-1.29-1.11 0-1.27.58-1.4 1.03h-.55c.07-.61.44-1.54 1.96-1.54 1.25 0 1.96.53 1.96 1.74Z"/><path clip-path="url(#b)" d="M222.66 8.99c0-.48 0-.95-.01-1.39h.54c.02.18.03.89.02 1.04.24-.56.69-1.18 1.83-1.18.98 0 1.85.55 1.85 2.07v3.56h-.55V9.63c0-.98-.41-1.62-1.36-1.62-1.31 0-1.76 1.09-1.76 2.29v2.81h-.55Z"/><path clip-path="url(#b)" d="M228.77 11.59c.19.72.69 1.15 1.56 1.15.98 0 1.38-.45 1.38-1.07 0-.63-.26-.93-1.5-1.23-1.42-.34-1.77-.77-1.77-1.5 0-.76.57-1.46 1.82-1.46s1.84.76 1.93 1.54h-.55c-.1-.46-.46-1.03-1.4-1.03-.96 0-1.23.47-1.23.91 0 .5.26.76 1.35 1.02 1.55.37 1.94.88 1.94 1.71 0 1-.82 1.62-1.97 1.62-1.25 0-1.96-.66-2.11-1.65Z"/><path clip-path="url(#b)" d="M237.79 10.24c0-1.28-.62-2.23-1.7-2.23-1.33 0-1.88.84-1.88 2.33 0 1.47.43 2.39 1.8 2.39 1.14 0 1.78-.97 1.78-2.49m-3.55 2.06v3.01h-.55V8.96c0-.45 0-.94-.01-1.35h.54c.02.21.02.54.02.99.34-.66.95-1.12 1.94-1.12 1.3 0 2.2 1.09 2.2 2.74 0 1.98-1.06 3.03-2.39 3.03-.97 0-1.47-.43-1.75-.95"/><path clip-path="url(#b)" d="M243.09 10.3h-1.08c-1.22 0-1.98.32-1.98 1.27 0 .69.5 1.17 1.27 1.17 1.57 0 1.79-1.04 1.79-2.23Zm.54 1.76c0 .48.04.87.08 1.04h-.53c-.04-.13-.08-.37-.1-.85-.19.41-.67.98-1.8.98-1.28 0-1.83-.83-1.83-1.65 0-1.21.94-1.76 2.59-1.76h1.05V9.27c0-.55-.17-1.29-1.42-1.29-1.11 0-1.27.58-1.4 1.03h-.55c.07-.61.44-1.54 1.96-1.54 1.25 0 1.96.53 1.96 1.74Z"/><path clip-path="url(#b)" d="M245.55 9.1c0-.92-.01-1.32-.01-1.5h.54c.01.18.02.53.02 1.23.32-.82 1.02-1.32 1.91-1.36v.59c-1.14.08-1.91.87-1.91 2.18v2.86h-.55Z"/><path clip-path="url(#b)" d="M252.75 9.94c-.01-1.09-.61-1.95-1.68-1.95-1.13 0-1.65.79-1.77 1.95Zm-3.49.48c.01 1.42.72 2.3 1.78 2.3 1.03 0 1.39-.58 1.58-1.03h.56c-.23.72-.81 1.55-2.17 1.55-1.67 0-2.32-1.44-2.32-2.84 0-1.57.78-2.93 2.39-2.93 1.69 0 2.23 1.46 2.23 2.5 0 .15 0 .31-.01.45Z"/><path clip-path="url(#b)" d="M254.77 8.99c0-.48 0-.95-.01-1.39h.54c.02.18.03.89.02 1.04.24-.56.69-1.18 1.83-1.18.98 0 1.85.55 1.85 2.07v3.56h-.55V9.63c0-.98-.41-1.62-1.37-1.62-1.31 0-1.76 1.09-1.76 2.29v2.81h-.55Z"/><path clip-path="url(#b)" d="M260.05 7.61h1.02V5.89h.55V7.61h1.31v.52h-1.31V11.7c0 .62.13.97.66.97.16 0 .4-.01.57-.07v.48c-.19.08-.45.1-.68.1-.7 0-1.1-.35-1.1-1.23V8.13h-1.02Z"/><path clip-path="url(#b)" d="M271.27 10.24c0-1.28-.62-2.23-1.71-2.23-1.33 0-1.88.84-1.88 2.33 0 1.47.43 2.39 1.8 2.39 1.14 0 1.78-.97 1.78-2.49m-3.55 2.06v3.01h-.55V8.96c0-.45 0-.94-.01-1.35h.54c.02.21.02.54.02.99.34-.66.95-1.12 1.94-1.12 1.3 0 2.2 1.09 2.2 2.74 0 1.98-1.06 3.03-2.39 3.03-.97 0-1.47-.43-1.75-.95"/><path clip-path="url(#b)" d="M273.34 9.1c0-.92-.01-1.32-.01-1.5h.54c.01.18.02.53.02 1.23.32-.82 1.02-1.32 1.91-1.36v.59c-1.14.08-1.91.87-1.91 2.18v2.86h-.55Z"/><path clip-path="url(#b)" d="M277.07 10.36c0 1.31.7 2.37 1.87 2.37 1.19 0 1.86-.98 1.86-2.37 0-1.3-.66-2.37-1.88-2.37-1.25 0-1.85 1.05-1.85 2.37m4.31-.01c0 1.53-.85 2.89-2.49 2.89-1.48 0-2.41-1.22-2.41-2.88 0-1.57.87-2.88 2.47-2.88 1.46 0 2.43 1.15 2.43 2.87"/><path clip-path="url(#b)" d="M282.95 5h.55V6.07h-.55Zm.55 2.61v5.89c0 1.49-.37 1.93-1.34 1.93-.02 0-.24-.01-.31-.02v-.52c.09.01.19.01.25.01.78 0 .85-.44.85-1.33V7.61Z"/><path clip-path="url(#b)" d="M289.02 9.94c-.01-1.09-.6-1.95-1.68-1.95-1.13 0-1.65.79-1.77 1.95Zm-3.49.48c.01 1.42.73 2.3 1.78 2.3 1.03 0 1.39-.58 1.58-1.03h.56c-.23.72-.81 1.55-2.17 1.55-1.67 0-2.32-1.44-2.32-2.84 0-1.57.78-2.93 2.39-2.93 1.69 0 2.23 1.46 2.23 2.5 0 .15 0 .31-.01.45Z"/><path clip-path="url(#b)" d="M295.15 11.49c-.27.97-.9 1.75-2.14 1.75-1.38 0-2.35-1.02-2.35-2.86 0-1.51.8-2.9 2.42-2.9 1.4 0 1.97.99 2.07 1.76h-.56c-.16-.64-.58-1.24-1.52-1.24-1.17 0-1.83.99-1.83 2.37 0 1.31.62 2.36 1.77 2.36.8 0 1.29-.41 1.57-1.23Z"/><path clip-path="url(#b)" d="M295.84 7.61h1.02V5.89h.55V7.61h1.31v.52h-1.31V11.7c0 .62.13.97.66.97.16 0 .4-.01.57-.07v.48c-.19.08-.45.1-.68.1-.7 0-1.1-.35-1.1-1.23V8.13h-1.02Z"/><path clip-path="url(#b)" d="M302.96 9.03c0-.47 0-.99-.01-1.42h.54c.01.19.03.66.02.98.23-.55.74-1.11 1.65-1.11.77 0 1.38.38 1.6 1.09.28-.57.83-1.09 1.79-1.09.85 0 1.73.49 1.73 2.01v3.62h-.55V9.55c0-.74-.26-1.54-1.29-1.54-1.07 0-1.55.86-1.55 1.93v3.17h-.54V9.57c0-.8-.24-1.55-1.26-1.55-1.07 0-1.58.95-1.58 2.07v3.02h-.55Z"/><path clip-path="url(#b)" d="M315.36 10.3h-1.08c-1.22 0-1.98.32-1.98 1.27 0 .69.5 1.17 1.27 1.17 1.57 0 1.79-1.04 1.79-2.23Zm.54 1.76c0 .48.04.87.08 1.04h-.53c-.04-.13-.08-.37-.1-.85-.19.41-.67.98-1.8.98-1.28 0-1.83-.83-1.83-1.65 0-1.21.94-1.76 2.58-1.76h1.05V9.27c0-.55-.16-1.29-1.42-1.29-1.11 0-1.28.58-1.4 1.03h-.55c.07-.61.44-1.54 1.96-1.54 1.25 0 1.96.53 1.96 1.74Z"/><path clip-path="url(#b)" d="M317.82 8.99c0-.48 0-.95-.01-1.39h.54c.02.18.03.89.02 1.04.24-.56.69-1.18 1.83-1.18.98 0 1.85.55 1.85 2.07v3.56h-.55V9.63c0-.98-.41-1.62-1.36-1.62-1.31 0-1.76 1.09-1.76 2.29v2.81h-.55Z"/><path clip-path="url(#b)" d="M327.13 10.3h-1.08c-1.22 0-1.98.32-1.98 1.27 0 .69.49 1.17 1.27 1.17 1.57 0 1.79-1.04 1.79-2.23Zm.54 1.76c0 .48.04.87.08 1.04h-.53c-.04-.13-.08-.37-.1-.85-.19.41-.67.98-1.8.98-1.28 0-1.83-.83-1.83-1.65 0-1.21.94-1.76 2.58-1.76h1.05V9.27c0-.55-.16-1.29-1.42-1.29-1.11 0-1.28.58-1.4 1.03h-.55c.07-.61.44-1.54 1.96-1.54 1.25 0 1.96.53 1.96 1.74Z"/><path clip-path="url(#b)" d="M329.74 10.34c0 1.31.69 2.26 1.75 2.26 1.38 0 1.79-.91 1.79-2.34 0-1.45-.44-2.26-1.76-2.26-1.26 0-1.78 1.09-1.78 2.34m4.06 2.4c0 1.76-.78 2.68-2.38 2.68-1.43 0-2.03-.8-2.16-1.64h.56c.2.76.82 1.12 1.62 1.12 1.43 0 1.83-.92 1.83-2.32v-.57c-.3.72-.84 1.1-1.84 1.1-1.29 0-2.28-1.04-2.28-2.75 0-1.85 1.06-2.88 2.35-2.88 1.12 0 1.61.53 1.76.97.01-.32.02-.71.03-.84h.52c0 .2-.02 1.07-.02 1.6Z"/><path clip-path="url(#b)" d="M339.32 9.94c-.01-1.09-.61-1.95-1.68-1.95-1.13 0-1.65.79-1.77 1.95Zm-3.49.48c.01 1.42.72 2.3 1.78 2.3 1.03 0 1.39-.58 1.58-1.03h.56c-.23.72-.81 1.55-2.17 1.55-1.67 0-2.32-1.44-2.32-2.84 0-1.57.78-2.93 2.39-2.93 1.69 0 2.23 1.46 2.23 2.5 0 .15 0 .31-.01.45Z"/><path clip-path="url(#b)" d="M341.34 9.03c0-.47 0-.99-.01-1.42h.54c.01.19.03.66.02.98.23-.55.74-1.11 1.65-1.11.77 0 1.38.38 1.6 1.09.27-.57.83-1.09 1.79-1.09.85 0 1.73.49 1.73 2.01v3.62h-.55V9.55c0-.74-.26-1.54-1.29-1.54-1.07 0-1.55.86-1.55 1.93v3.17h-.54V9.57c0-.8-.24-1.55-1.26-1.55-1.07 0-1.58.95-1.58 2.07v3.02h-.55Z"/><path clip-path="url(#b)" d="M354.18 9.94c-.01-1.09-.61-1.95-1.68-1.95-1.13 0-1.65.79-1.77 1.95Zm-3.49.48c.01 1.42.72 2.3 1.78 2.3 1.03 0 1.39-.58 1.58-1.03h.56c-.23.72-.81 1.55-2.17 1.55-1.67 0-2.32-1.44-2.32-2.84 0-1.57.78-2.93 2.39-2.93 1.69 0 2.23 1.46 2.23 2.5 0 .15 0 .31-.01.45Z"/><path clip-path="url(#b)" d="M356.2 8.99c0-.48 0-.95-.01-1.39h.54c.02.18.03.89.02 1.04.24-.56.69-1.18 1.83-1.18.98 0 1.85.55 1.85 2.07v3.56h-.55V9.63c0-.98-.41-1.62-1.36-1.62-1.31 0-1.76 1.09-1.76 2.29v2.81h-.55Z"/><path clip-path="url(#b)" d="M361.48 7.61h1.02V5.89h.55V7.61h1.31v.52h-1.31V11.7c0 .62.13.97.66.97.17 0 .4-.01.57-.07v.48c-.19.08-.45.1-.68.1-.7 0-1.1-.35-1.1-1.23V8.13h-1.02Z"/><path clip-path="url(#b)" d="M365.21 14.36c.54-1.07.74-2.05.77-2.66h.55c-.08.91-.43 2-.83 2.66Z"/><path clip-path="url(#b)" d="M374.3 10.3h-1.08c-1.22 0-1.98.32-1.98 1.27 0 .69.5 1.17 1.27 1.17 1.57 0 1.79-1.04 1.79-2.23Zm.54 1.76c0 .48.04.87.08 1.04h-.53c-.04-.13-.08-.37-.1-.85-.19.41-.67.98-1.8.98-1.28 0-1.83-.83-1.83-1.65 0-1.21.94-1.76 2.58-1.76h1.05V9.27c0-.55-.17-1.29-1.42-1.29-1.11 0-1.28.58-1.4 1.03h-.55c.07-.61.44-1.54 1.96-1.54 1.25 0 1.96.53 1.96 1.74Z"/><path clip-path="url(#b)" d="M376.76 8.99c0-.48 0-.95-.01-1.39h.54c.02.18.03.89.02 1.04.24-.56.69-1.18 1.83-1.18.98 0 1.85.55 1.85 2.07v3.56h-.55V9.63c0-.98-.41-1.62-1.36-1.62-1.31 0-1.76 1.09-1.76 2.29v2.81h-.55Z"/><path clip-path="url(#b)" d="M383.04 10.4c0 1.51.78 2.32 1.73 2.32 1.45 0 1.85-1 1.85-2.5 0-1.42-.34-2.23-1.75-2.23-1.09 0-1.83.87-1.83 2.41m4.1-5.4v6.52c0 .53 0 1.03.01 1.58h-.53c-.02-.13-.03-.65-.03-.92-.28.67-.89 1.06-1.85 1.06-1.43 0-2.29-1.17-2.29-2.82 0-1.69.93-2.95 2.43-2.95 1.1 0 1.54.47 1.71.82V5Z"/><path clip-path="url(#b)" d="M395.3 10.3h-1.08c-1.22 0-1.98.32-1.98 1.27 0 .69.5 1.17 1.27 1.17 1.57 0 1.79-1.04 1.79-2.23Zm.54 1.76c0 .48.04.87.08 1.04h-.53c-.04-.13-.08-.37-.1-.85-.19.41-.67.98-1.8.98-1.28 0-1.83-.83-1.83-1.65 0-1.21.94-1.76 2.59-1.76h1.05V9.27c0-.55-.16-1.29-1.42-1.29-1.11 0-1.27.58-1.4 1.03h-.55c.07-.61.44-1.54 1.96-1.54 1.25 0 1.96.53 1.96 1.74Z"/><path clip-path="url(#b)" d="M401.81 11.49c-.27.97-.9 1.75-2.14 1.75-1.38 0-2.35-1.02-2.35-2.86 0-1.51.8-2.9 2.42-2.9 1.4 0 1.97.99 2.07 1.76h-.56c-.16-.64-.58-1.24-1.52-1.24-1.17 0-1.83.99-1.83 2.37 0 1.31.62 2.36 1.77 2.36.8 0 1.29-.41 1.57-1.23Z"/><path clip-path="url(#b)" d="M407.3 11.49c-.27.97-.9 1.75-2.14 1.75-1.38 0-2.35-1.02-2.35-2.86 0-1.51.8-2.9 2.42-2.9 1.4 0 1.97.99 2.07 1.76h-.56c-.16-.64-.58-1.24-1.52-1.24-1.17 0-1.83.99-1.83 2.37 0 1.31.62 2.36 1.77 2.36.8 0 1.29-.41 1.57-1.23Z"/><path clip-path="url(#b)" d="M408.88 10.36c0 1.31.7 2.37 1.87 2.37 1.19 0 1.86-.98 1.86-2.37 0-1.3-.66-2.37-1.88-2.37-1.25 0-1.85 1.05-1.85 2.37m4.31-.01c0 1.53-.85 2.89-2.49 2.89-1.48 0-2.41-1.22-2.41-2.88 0-1.57.87-2.88 2.47-2.88 1.46 0 2.43 1.15 2.43 2.87"/><path clip-path="url(#b)" d="M418.78 11.5c0 .54.01 1.4.01 1.61h-.53c-.02-.14-.03-.51-.03-.96-.23.65-.79 1.09-1.77 1.09-.79 0-1.8-.31-1.8-1.99V7.61h.54v3.51c0 .8.25 1.58 1.34 1.58 1.23 0 1.69-.69 1.69-2.27V7.61h.55Z"/><path clip-path="url(#b)" d="M420.7 8.99c0-.48 0-.95-.01-1.39h.54c.02.18.03.89.02 1.04.24-.56.69-1.18 1.83-1.18.98 0 1.85.55 1.85 2.07v3.56h-.55V9.63c0-.98-.41-1.62-1.36-1.62-1.31 0-1.76 1.09-1.76 2.29v2.81h-.55Z"/><path clip-path="url(#b)" d="M425.98 7.61H427V5.89h.55V7.61h1.31v.52h-1.31V11.7c0 .62.13.97.66.97.16 0 .4-.01.57-.07v.48c-.19.08-.45.1-.68.1-.7 0-1.1-.35-1.1-1.23V8.13h-1.02Z"/><path clip-path="url(#b)" d="M433.32 10.3h-1.08c-1.22 0-1.98.32-1.98 1.27 0 .69.5 1.17 1.27 1.17 1.57 0 1.79-1.04 1.79-2.23Zm.54 1.76c0 .48.04.87.08 1.04h-.53c-.04-.13-.08-.37-.1-.85-.19.41-.67.98-1.8.98-1.28 0-1.83-.83-1.83-1.65 0-1.21.94-1.76 2.58-1.76h1.05V9.27c0-.55-.17-1.29-1.42-1.29-1.11 0-1.28.58-1.4 1.03h-.55c.07-.61.44-1.54 1.96-1.54 1.25 0 1.96.53 1.96 1.74Z"/><path clip-path="url(#b)" d="M439.89 10.25c0-1.38-.68-2.26-1.73-2.26-1.38 0-1.86.94-1.86 2.38 0 1.3.43 2.35 1.79 2.35 1.11 0 1.79-.93 1.79-2.48M435.79 5h.55V8.53c.26-.55.8-1.06 1.88-1.06 1.3 0 2.26 1.07 2.26 2.76 0 1.74-.86 3-2.4 3-.92 0-1.45-.37-1.74-1 0 .35-.01.71-.02.87h-.54c.01-.63.01-1.25.01-1.88Z"/><path clip-path="url(#b)" d="M441.99 7.61h.55v5.5h-.55Zm0-2.61h.55V6.07h-.55Z"/><path clip-path="url(#b)" d="M444.45 13.11H445V5h-.55Z" fill-rule="evenodd"/><path clip-path="url(#b)" d="M446.92 7.61h.55v5.5h-.55Zm0-2.61h.55V6.07h-.55Z"/><path clip-path="url(#b)" d="M448.63 7.61h1.02V5.89h.55V7.61h1.31v.52h-1.31V11.7c0 .62.13.97.66.97.17 0 .4-.01.57-.07v.48c-.19.08-.45.1-.68.1-.7 0-1.1-.35-1.1-1.23V8.13h-1.02Z"/><path clip-path="url(#b)" d="M452.93 7.61c1.11 3.15 1.6 4.44 1.78 5.04h.01c.22-.67.66-1.95 1.73-5.04h.57l-2.07 5.82c-.58 1.63-.98 1.99-1.97 1.99-.2 0-.33-.01-.51-.03v-.55c.16.02.32.03.49.03.79 0 1.05-.39 1.45-1.52l-2.1-5.74Z"/><path clip-path="url(#b)" d="M464.43 10.3h-1.08c-1.22 0-1.98.32-1.98 1.27 0 .69.5 1.17 1.27 1.17 1.57 0 1.79-1.04 1.79-2.23Zm.54 1.76c0 .48.04.87.08 1.04h-.53c-.04-.13-.08-.37-.1-.85-.19.41-.67.98-1.8.98-1.28 0-1.83-.83-1.83-1.65 0-1.21.94-1.76 2.58-1.76h1.05V9.27c0-.55-.16-1.29-1.42-1.29-1.11 0-1.28.58-1.4 1.03h-.55c.07-.61.44-1.54 1.96-1.54 1.25 0 1.96.53 1.96 1.74Z"/><path clip-path="url(#b)" d="M466.01 7.61h1.02V5.89h.55V7.61h1.31v.52h-1.31V11.7c0 .62.13.97.66.97.16 0 .4-.01.57-.07v.48c-.19.08-.45.1-.68.1-.7 0-1.1-.35-1.1-1.23V8.13h-1.02Z"/><path clip-path="url(#b)" d="M9.43 23.14c-.01-1.09-.61-1.95-1.68-1.95-1.13 0-1.65.79-1.77 1.95Zm-3.49.48c.01 1.42.73 2.3 1.78 2.3 1.03 0 1.39-.58 1.58-1.03h.56c-.23.73-.81 1.55-2.17 1.55-1.67 0-2.32-1.44-2.32-2.84 0-1.57.78-2.93 2.39-2.93 1.69 0 2.23 1.46 2.23 2.5 0 .15 0 .31-.01.45Z"/><path clip-path="url(#b)" d="M11.48 20.81c.89 2.52 1.51 4.24 1.72 4.94h.01c.12-.41.74-2.04 1.8-4.94h.58l-2.08 5.5h-.66l-1.96-5.5Z"/><path clip-path="url(#b)" d="M20.39 23.14c-.01-1.09-.6-1.95-1.68-1.95-1.13 0-1.65.79-1.77 1.95Zm-3.49.48c.01 1.42.73 2.3 1.78 2.3 1.03 0 1.39-.58 1.58-1.03h.56c-.23.73-.81 1.55-2.17 1.55-1.67 0-2.32-1.44-2.32-2.84 0-1.57.78-2.93 2.39-2.93 1.69 0 2.23 1.46 2.23 2.5 0 .15 0 .31-.01.45Z"/><path clip-path="url(#b)" d="M22.41 22.3c0-.92-.01-1.32-.01-1.5h.54c.01.18.02.53.02 1.23.32-.82 1.02-1.32 1.91-1.36v.59c-1.14.08-1.91.87-1.91 2.18v2.86h-.55Z"/><path clip-path="url(#b)" d="M26.28 20.81c1.11 3.15 1.6 4.44 1.78 5.04h.01c.22-.67.66-1.95 1.73-5.04h.57l-2.07 5.82c-.58 1.63-.98 1.99-1.97 1.99-.2 0-.33-.01-.51-.03v-.55c.17.02.32.03.49.03.79 0 1.05-.38 1.45-1.52l-2.1-5.74Z"/><path clip-path="url(#b)" d="M36.46 24.79c.19.72.69 1.15 1.56 1.15.98 0 1.38-.45 1.38-1.07 0-.63-.27-.93-1.5-1.23-1.42-.34-1.77-.77-1.77-1.5 0-.76.57-1.46 1.82-1.46s1.84.76 1.93 1.54h-.55c-.1-.46-.46-1.03-1.4-1.03-.96 0-1.23.47-1.23.91 0 .51.27.76 1.35 1.02 1.55.37 1.94.88 1.94 1.71 0 1-.82 1.62-1.97 1.62-1.25 0-1.96-.66-2.11-1.65Z"/><path clip-path="url(#b)" d="M40.6 20.81h1.02V19.09h.55v1.72h1.31v.52H42.17V24.9c0 .62.13.97.66.97.17 0 .4-.01.57-.07v.48c-.19.08-.45.1-.68.1-.7 0-1.1-.35-1.1-1.23V21.33H40.6Z"/><path clip-path="url(#b)" d="M47.95 23.5H46.87c-1.22 0-1.98.32-1.98 1.27 0 .69.5 1.17 1.27 1.17 1.57 0 1.79-1.04 1.79-2.23Zm.54 1.76c0 .48.04.87.08 1.05h-.53c-.04-.13-.08-.37-.1-.85-.19.41-.67.98-1.8.98-1.28 0-1.83-.83-1.83-1.65 0-1.21.94-1.76 2.58-1.76h1.05v-.56c0-.55-.17-1.29-1.42-1.29-1.11 0-1.28.58-1.4 1.03h-.55c.07-.61.44-1.54 1.96-1.54 1.25 0 1.96.53 1.96 1.74Z"/><path clip-path="url(#b)" d="M50.55 23.54c0 1.31.69 2.26 1.75 2.26 1.38 0 1.79-.91 1.79-2.34 0-1.45-.44-2.26-1.76-2.26-1.26 0-1.78 1.09-1.78 2.34m4.06 2.4c0 1.76-.78 2.68-2.38 2.68-1.43 0-2.02-.8-2.16-1.64h.56c.2.76.82 1.12 1.62 1.12 1.43 0 1.83-.92 1.83-2.32v-.57c-.3.72-.84 1.1-1.84 1.1-1.29 0-2.28-1.04-2.28-2.75 0-1.85 1.06-2.88 2.36-2.88 1.12 0 1.61.53 1.76.97.01-.32.02-.7.03-.84h.52c0 .2-.02 1.07-.02 1.6Z"/><path clip-path="url(#b)" d="M60.14 23.14c-.01-1.09-.61-1.95-1.68-1.95-1.13 0-1.65.79-1.77 1.95Zm-3.49.48c.01 1.42.73 2.3 1.78 2.3 1.03 0 1.39-.58 1.58-1.03h.56c-.23.73-.81 1.55-2.17 1.55-1.67 0-2.32-1.44-2.32-2.84 0-1.57.78-2.93 2.39-2.93 1.69 0 2.23 1.46 2.23 2.5 0 .15 0 .31-.01.45Z"/><path clip-path="url(#b)" d="M61.83 25.74c0-.41.27-.69.66-.69s.65.29.65.69-.25.69-.66.69c-.38 0-.65-.3-.65-.69"/><path clip-path="url(#b)" d="M70.34 19.16H67.76v-.55h5.79v.55h-2.6v7.15h-.61Z"/><path clip-path="url(#b)" d="M77.04 23.14c-.01-1.09-.61-1.95-1.68-1.95-1.13 0-1.65.79-1.77 1.95Zm-3.49.48c.01 1.42.73 2.3 1.78 2.3 1.03 0 1.39-.58 1.58-1.03h.56c-.23.73-.81 1.55-2.17 1.55-1.67 0-2.32-1.44-2.32-2.84 0-1.57.78-2.93 2.39-2.93 1.69 0 2.23 1.46 2.23 2.5 0 .15 0 .31-.01.45Z"/><path clip-path="url(#b)" d="M83.17 24.69c-.26.97-.9 1.75-2.13 1.75-1.38 0-2.35-1.02-2.35-2.86 0-1.51.8-2.9 2.42-2.9 1.4 0 1.97.99 2.07 1.76h-.56c-.17-.64-.58-1.24-1.52-1.24-1.17 0-1.83.99-1.83 2.37 0 1.31.62 2.37 1.77 2.37.8 0 1.29-.41 1.57-1.23Z"/><path clip-path="url(#b)" d="M85.1 18.2v3.53c.31-.57.85-1.06 1.82-1.06.78 0 1.86.4 1.86 2.13v3.5h-.55V22.92c0-1.09-.49-1.71-1.41-1.71-1.09 0-1.72.67-1.72 2.02v3.07h-.55V18.2Z"/><path clip-path="url(#b)" d="M90.69 22.19c0-.48 0-.95-.01-1.39h.54c.02.18.03.89.02 1.05.24-.56.69-1.18 1.83-1.18.98 0 1.85.55 1.85 2.07v3.56h-.55V22.83c0-.98-.41-1.62-1.36-1.62-1.31 0-1.76 1.09-1.76 2.29v2.8h-.55Z"/><path clip-path="url(#b)" d="M96.97 23.56c0 1.31.7 2.36 1.87 2.36 1.19 0 1.86-.98 1.86-2.36 0-1.3-.66-2.37-1.88-2.37-1.25 0-1.85 1.05-1.85 2.37m4.31-.01c0 1.53-.85 2.89-2.49 2.89-1.48 0-2.41-1.22-2.41-2.88 0-1.57.87-2.88 2.46-2.88 1.46 0 2.43 1.15 2.43 2.87"/><path clip-path="url(#b)" d="M102.76 26.31h.55V18.2h-.55Z" fill-rule="evenodd"/><path clip-path="url(#b)" d="M105.37 23.56c0 1.31.7 2.36 1.87 2.36 1.19 0 1.86-.98 1.86-2.36 0-1.3-.66-2.37-1.88-2.37-1.25 0-1.85 1.05-1.85 2.37m4.31-.01c0 1.53-.85 2.89-2.49 2.89-1.49 0-2.41-1.22-2.41-2.88 0-1.57.87-2.88 2.46-2.88 1.46 0 2.43 1.15 2.43 2.87"/><path clip-path="url(#b)" d="M111.37 23.54c0 1.31.69 2.26 1.75 2.26 1.38 0 1.79-.91 1.79-2.34 0-1.45-.44-2.26-1.76-2.26-1.26 0-1.78 1.09-1.78 2.34m4.06 2.4c0 1.76-.78 2.68-2.38 2.68-1.43 0-2.02-.8-2.16-1.64h.56c.2.76.82 1.12 1.62 1.12 1.43 0 1.83-.92 1.83-2.32v-.57c-.3.72-.84 1.1-1.84 1.1-1.29 0-2.28-1.04-2.28-2.75 0-1.85 1.06-2.88 2.36-2.88 1.12 0 1.61.53 1.76.97.01-.32.02-.7.03-.84h.52c0 .2-.02 1.07-.02 1.6Z"/><path clip-path="url(#b)" d="M117.3 20.81c1.11 3.15 1.6 4.44 1.78 5.04h.01c.22-.67.66-1.95 1.73-5.04h.57l-2.07 5.82c-.58 1.63-.98 1.99-1.97 1.99-.2 0-.33-.01-.51-.03v-.55c.17.02.32.03.49.03.79 0 1.05-.38 1.45-1.52l-2.1-5.74Z"/><path clip-path="url(#b)" d="M130.72 23.5h-1.08c-1.22 0-1.98.32-1.98 1.27 0 .69.5 1.17 1.27 1.17 1.57 0 1.79-1.04 1.79-2.23Zm.54 1.76c0 .48.04.87.08 1.05h-.53c-.04-.13-.08-.37-.1-.85-.19.41-.67.98-1.8.98-1.28 0-1.83-.83-1.83-1.65 0-1.21.94-1.76 2.58-1.76h1.05v-.56c0-.55-.16-1.29-1.42-1.29-1.11 0-1.28.58-1.4 1.03h-.55c.07-.61.44-1.54 1.96-1.54 1.25 0 1.96.53 1.96 1.74Z"/><path clip-path="url(#b)" d="M133.12 24.79c.19.72.69 1.15 1.56 1.15.98 0 1.38-.45 1.38-1.07 0-.63-.26-.93-1.5-1.23-1.42-.34-1.77-.77-1.77-1.5 0-.76.57-1.46 1.81-1.46s1.84.76 1.93 1.54h-.55c-.1-.46-.46-1.03-1.4-1.03-.96 0-1.23.47-1.23.91 0 .51.26.76 1.35 1.02 1.55.37 1.94.88 1.94 1.71 0 1-.82 1.62-1.97 1.62-1.25 0-1.96-.66-2.11-1.65Z"/><path clip-path="url(#b)" d="M142.21 20.81h1.02V19.09h.55v1.72h1.31v.52h-1.31V24.9c0 .62.13.97.66.97.17 0 .4-.01.57-.07v.48c-.19.08-.45.1-.68.1-.7 0-1.1-.35-1.1-1.23V21.33h-1.02Z"/><path clip-path="url(#b)" d="M146.85 18.2v3.53c.31-.57.85-1.06 1.82-1.06.78 0 1.86.4 1.86 2.13v3.5h-.55V22.92c0-1.09-.49-1.71-1.41-1.71-1.09 0-1.72.67-1.72 2.02v3.07h-.55V18.2Z"/><path clip-path="url(#b)" d="M156.04 23.14c-.01-1.09-.61-1.95-1.68-1.95-1.13 0-1.65.79-1.77 1.95Zm-3.49.48c.01 1.42.72 2.3 1.78 2.3 1.03 0 1.39-.58 1.58-1.03h.56c-.23.73-.81 1.55-2.17 1.55-1.67 0-2.32-1.44-2.32-2.84 0-1.57.78-2.93 2.39-2.93 1.69 0 2.23 1.46 2.23 2.5 0 .15 0 .31-.01.45Z"/><path clip-path="url(#b)" d="M163.16 26.31h.59v-7.7h-.59Z" fill-rule="evenodd"/><path clip-path="url(#b)" d="M165.76 22.19c0-.48 0-.95-.01-1.39h.54c.02.18.03.89.02 1.05.24-.56.69-1.18 1.83-1.18.98 0 1.85.55 1.85 2.07v3.56h-.55V22.83c0-.98-.41-1.62-1.36-1.62-1.31 0-1.76 1.09-1.76 2.29v2.8h-.55Z"/><path clip-path="url(#b)" d="M171.04 20.81h1.02V19.09h.55v1.72h1.31v.52h-1.31V24.9c0 .62.13.97.66.97.16 0 .4-.01.57-.07v.48c-.19.08-.45.1-.68.1-.7 0-1.1-.35-1.1-1.23V21.33h-1.02Z"/><path clip-path="url(#b)" d="M178.7 23.14c-.01-1.09-.61-1.95-1.68-1.95-1.13 0-1.65.79-1.77 1.95Zm-3.49.48c.01 1.42.72 2.3 1.78 2.3 1.03 0 1.39-.58 1.58-1.03h.56c-.23.73-.81 1.55-2.17 1.55-1.67 0-2.32-1.44-2.32-2.84 0-1.57.78-2.93 2.39-2.93 1.69 0 2.23 1.46 2.23 2.5 0 .15 0 .31-.01.45Z"/><path clip-path="url(#b)" d="M180.76 26.31h.55V18.2h-.55Z" fill-rule="evenodd"/><path clip-path="url(#b)" d="M183.23 26.31h.55V18.2h-.55Z" fill-rule="evenodd"/><path clip-path="url(#b)" d="M185.69 20.81h.55v5.5h-.55Zm0-2.61h.55v1.07h-.55Z"/><path clip-path="url(#b)" d="M188.3 23.54c0 1.31.69 2.26 1.75 2.26 1.38 0 1.79-.91 1.79-2.34 0-1.45-.44-2.26-1.76-2.26-1.26 0-1.78 1.09-1.78 2.34m4.06 2.4c0 1.76-.78 2.68-2.38 2.68-1.43 0-2.02-.8-2.16-1.64h.56c.2.76.83 1.12 1.62 1.12 1.43 0 1.83-.92 1.83-2.32v-.57c-.3.72-.84 1.1-1.84 1.1-1.29 0-2.28-1.04-2.28-2.75 0-1.85 1.06-2.88 2.35-2.88 1.12 0 1.61.53 1.76.97.01-.32.02-.7.03-.84h.52c0 .2-.02 1.07-.02 1.6Z"/><path clip-path="url(#b)" d="M197.88 23.14c-.01-1.09-.61-1.95-1.68-1.95-1.13 0-1.65.79-1.77 1.95Zm-3.49.48c.01 1.42.73 2.3 1.78 2.3 1.03 0 1.39-.58 1.58-1.03h.56c-.23.73-.81 1.55-2.17 1.55-1.67 0-2.32-1.44-2.32-2.84 0-1.57.78-2.93 2.39-2.93 1.69 0 2.23 1.46 2.23 2.5 0 .15 0 .31-.01.45Z"/><path clip-path="url(#b)" d="M199.9 22.19c0-.48 0-.95-.01-1.39h.54c.02.18.03.89.02 1.05.24-.56.69-1.18 1.83-1.18.98 0 1.85.55 1.85 2.07v3.56h-.55V22.83c0-.98-.41-1.62-1.36-1.62-1.31 0-1.76 1.09-1.76 2.29v2.8h-.55Z"/><path clip-path="url(#b)" d="M205.18 20.81h1.02V19.09h.55v1.72h1.31v.52h-1.31V24.9c0 .62.13.97.66.97.16 0 .4-.01.57-.07v.48c-.19.08-.45.1-.68.1-.7 0-1.1-.35-1.1-1.23V21.33h-1.02Z"/><path clip-path="url(#b)" d="M214.45 24.24c.23 1.02.91 1.63 2.18 1.63 1.41 0 1.95-.7 1.95-1.54 0-.87-.38-1.41-2.08-1.83-1.63-.41-2.33-.93-2.33-2.05 0-1.01.74-1.96 2.39-1.96 1.69 0 2.41 1.03 2.51 1.97h-.62c-.18-.83-.72-1.42-1.93-1.42-1.11 0-1.71.52-1.71 1.38 0 .85.51 1.18 1.92 1.53 2.17.54 2.49 1.41 2.49 2.33 0 1.13-.82 2.11-2.61 2.11-1.92 0-2.63-1.12-2.77-2.16Z"/><path clip-path="url(#b)" d="M220.56 20.81c1.11 3.15 1.6 4.44 1.78 5.04h.01c.22-.67.66-1.95 1.73-5.04h.57l-2.07 5.82c-.58 1.63-.98 1.99-1.97 1.99-.2 0-.33-.01-.51-.03v-.55c.16.02.32.03.49.03.79 0 1.05-.38 1.45-1.52l-2.1-5.74Z"/><path clip-path="url(#b)" d="M225.98 24.79c.19.72.69 1.15 1.56 1.15.98 0 1.38-.45 1.38-1.07 0-.63-.27-.93-1.5-1.23-1.42-.34-1.77-.77-1.77-1.5 0-.76.57-1.46 1.82-1.46s1.84.76 1.92 1.54h-.55c-.1-.46-.46-1.03-1.4-1.03-.96 0-1.23.47-1.23.91 0 .51.26.76 1.35 1.02 1.55.37 1.94.88 1.94 1.71 0 1-.82 1.62-1.97 1.62-1.25 0-1.96-.66-2.11-1.65Z"/><path clip-path="url(#b)" d="M230.11 20.81h1.02V19.09h.55v1.72H233v.52h-1.31V24.9c0 .62.13.97.66.97.16 0 .4-.01.57-.07v.48c-.19.08-.45.1-.68.1-.7 0-1.1-.35-1.1-1.23V21.33h-1.02Z"/><path clip-path="url(#b)" d="M237.77 23.14c-.01-1.09-.6-1.95-1.68-1.95-1.13 0-1.65.79-1.77 1.95Zm-3.49.48c.01 1.42.72 2.3 1.78 2.3 1.03 0 1.39-.58 1.58-1.03h.56c-.23.73-.81 1.55-2.17 1.55-1.67 0-2.32-1.44-2.32-2.84 0-1.57.78-2.93 2.39-2.93 1.69 0 2.23 1.46 2.23 2.5 0 .15 0 .31-.01.45Z"/><path clip-path="url(#b)" d="M239.8 22.23c0-.47 0-.99-.01-1.42h.54c.01.19.03.66.02.98.23-.55.74-1.11 1.65-1.11.77 0 1.38.39 1.6 1.09.27-.57.83-1.09 1.79-1.09.85 0 1.73.49 1.73 2.01v3.62h-.55V22.76c0-.74-.26-1.54-1.29-1.54-1.07 0-1.55.86-1.55 1.93v3.17h-.54V22.77c0-.8-.24-1.55-1.26-1.55-1.07 0-1.58.95-1.58 2.07v3.03h-.55Z"/><path clip-path="url(#b)" d="M253.7 23.77h4.54v-.54H253.7Z" fill-rule="evenodd"/><path clip-path="url(#b)" d="M266.69 24.21c0 1.72-.76 2.21-1.78 2.21-.33 0-.47-.03-.66-.07v-.54c.15.03.43.05.68.05 1.03 0 1.17-.8 1.17-1.67V18.61h.59Z"/><path clip-path="url(#b)" d="M272.65 24.7c0 .54.01 1.4.01 1.61h-.53c-.02-.14-.03-.51-.03-.96-.23.65-.79 1.09-1.77 1.09-.79 0-1.8-.31-1.8-1.99V20.81h.54v3.51c0 .8.25 1.58 1.34 1.58 1.23 0 1.69-.69 1.69-2.27V20.81h.55Z"/><path clip-path="url(#b)" d="M274.5 24.79c.19.72.69 1.15 1.56 1.15.98 0 1.38-.45 1.38-1.07 0-.63-.27-.93-1.5-1.23-1.42-.34-1.77-.77-1.77-1.5 0-.76.57-1.46 1.82-1.46s1.84.76 1.92 1.54h-.55c-.1-.46-.46-1.03-1.4-1.03-.96 0-1.23.47-1.23.91 0 .51.27.76 1.35 1.02 1.55.37 1.94.88 1.94 1.71 0 1-.81 1.62-1.97 1.62-1.25 0-1.96-.66-2.11-1.65Z"/><path clip-path="url(#b)" d="M278.63 20.81h1.02V19.09h.55v1.72h1.31v.52h-1.31V24.9c0 .62.13.97.66.97.16 0 .4-.01.57-.07v.48c-.19.08-.45.1-.68.1-.7 0-1.1-.35-1.1-1.23V21.33h-1.02Z"/><path clip-path="url(#b)" d="M290.9 23.5h-1.08c-1.22 0-1.98.32-1.98 1.27 0 .69.5 1.17 1.27 1.17 1.57 0 1.79-1.04 1.79-2.23Zm.54 1.76c0 .48.04.87.08 1.05h-.53c-.04-.13-.08-.37-.1-.85-.19.41-.67.98-1.8.98-1.28 0-1.83-.83-1.83-1.65 0-1.21.94-1.76 2.59-1.76h1.05v-.56c0-.55-.16-1.29-1.42-1.29-1.11 0-1.28.58-1.4 1.03h-.55c.07-.61.44-1.54 1.96-1.54 1.25 0 1.96.53 1.96 1.74Z"/><path clip-path="url(#b)" d="M293.31 24.79c.19.72.69 1.15 1.56 1.15.98 0 1.38-.45 1.38-1.07 0-.63-.27-.93-1.5-1.23-1.42-.34-1.77-.77-1.77-1.5 0-.76.57-1.46 1.82-1.46s1.84.76 1.92 1.54h-.55c-.1-.46-.46-1.03-1.4-1.03-.96 0-1.23.47-1.23.91 0 .51.27.76 1.35 1.02 1.55.37 1.94.88 1.94 1.71 0 1-.82 1.62-1.97 1.62-1.25 0-1.96-.66-2.11-1.65Z"/><path clip-path="url(#b)" d="M303.37 23.56c0 1.31.7 2.36 1.87 2.36 1.19 0 1.86-.98 1.86-2.36 0-1.3-.66-2.37-1.88-2.37-1.25 0-1.85 1.05-1.85 2.37m4.31-.01c0 1.53-.85 2.89-2.49 2.89-1.48 0-2.41-1.22-2.41-2.88 0-1.57.87-2.88 2.46-2.88 1.46 0 2.43 1.15 2.43 2.87"/><path clip-path="url(#b)" d="M309.16 22.3c0-.92-.01-1.32-.01-1.5h.54c.01.18.02.53.02 1.23.32-.82 1.02-1.32 1.91-1.36v.59c-1.14.08-1.91.87-1.91 2.18v2.86h-.55Z"/><path clip-path="url(#b)" d="M316.79 24.69c-.26.97-.9 1.75-2.13 1.75-1.38 0-2.35-1.02-2.35-2.86 0-1.51.8-2.9 2.42-2.9 1.4 0 1.97.99 2.07 1.76h-.56c-.17-.64-.58-1.24-1.52-1.24-1.17 0-1.83.99-1.83 2.37 0 1.31.62 2.37 1.77 2.37.8 0 1.29-.41 1.57-1.23Z"/><path clip-path="url(#b)" d="M318.73 18.2v3.53c.31-.57.85-1.06 1.82-1.06.78 0 1.86.4 1.86 2.13v3.5h-.55V22.92c0-1.09-.49-1.71-1.41-1.71-1.09 0-1.72.67-1.72 2.02v3.07h-.55V18.2Z"/><path clip-path="url(#b)" d="M324.31 20.81h.55v5.5h-.55Zm0-2.61h.55v1.07h-.55Z"/><path clip-path="url(#b)" d="M326.92 23.6c0 1.51.78 2.32 1.73 2.32 1.45 0 1.85-1 1.85-2.5 0-1.42-.34-2.23-1.75-2.23-1.09 0-1.83.87-1.83 2.41m4.1-5.4v6.52c0 .53 0 1.03.01 1.58h-.53c-.02-.13-.03-.65-.03-.92-.28.67-.89 1.06-1.85 1.06-1.43 0-2.29-1.17-2.29-2.82 0-1.69.94-2.95 2.43-2.95 1.1 0 1.54.47 1.71.82V18.2Z"/><path clip-path="url(#b)" d="M332.88 24.79c.19.72.69 1.15 1.56 1.15.98 0 1.38-.45 1.38-1.07 0-.63-.27-.93-1.5-1.23-1.42-.34-1.77-.77-1.77-1.5 0-.76.57-1.46 1.82-1.46s1.84.76 1.92 1.54h-.55c-.1-.46-.46-1.03-1.4-1.03-.96 0-1.23.47-1.23.91 0 .51.27.76 1.35 1.02 1.55.37 1.94.88 1.94 1.71 0 1-.81 1.62-1.97 1.62-1.25 0-1.96-.66-2.11-1.65Z"/><path clip-path="url(#b)" d="M342.8 22.3c0-.92-.01-1.32-.01-1.5h.54c.01.18.02.53.02 1.23.32-.82 1.02-1.32 1.91-1.36v.59c-1.14.08-1.91.87-1.91 2.18v2.86h-.55Z"/><path clip-path="url(#b)" d="M349.99 23.14c-.01-1.09-.61-1.95-1.68-1.95-1.13 0-1.65.79-1.77 1.95Zm-3.49.48c.01 1.42.72 2.3 1.78 2.3 1.03 0 1.39-.58 1.58-1.03h.56c-.23.73-.81 1.55-2.17 1.55-1.67 0-2.32-1.44-2.32-2.84 0-1.57.78-2.93 2.39-2.93 1.69 0 2.23 1.46 2.23 2.5 0 .15 0 .31-.01.45Z"/><path clip-path="url(#b)" d="M352.15 24.79c.19.72.69 1.15 1.56 1.15.98 0 1.38-.45 1.38-1.07 0-.63-.27-.93-1.5-1.23-1.42-.34-1.77-.77-1.77-1.5 0-.76.57-1.46 1.82-1.46s1.84.76 1.92 1.54h-.55c-.1-.46-.46-1.03-1.4-1.03-.96 0-1.23.47-1.23.91 0 .51.26.76 1.35 1.02 1.55.37 1.94.88 1.94 1.71 0 1-.82 1.62-1.97 1.62-1.25 0-1.96-.66-2.11-1.65Z"/><path clip-path="url(#b)" d="M361.17 23.44c0-1.28-.62-2.23-1.71-2.23-1.33 0-1.88.83-1.88 2.33 0 1.47.43 2.39 1.8 2.39 1.14 0 1.78-.97 1.78-2.49m-3.55 2.06v3.01h-.55V22.16c0-.45 0-.94-.01-1.35h.54c.02.21.02.54.02.99.34-.66.95-1.12 1.94-1.12 1.3 0 2.2 1.09 2.2 2.74 0 1.98-1.06 3.03-2.39 3.03-.97 0-1.47-.43-1.75-.95"/><path clip-path="url(#b)" d="M363.44 23.56c0 1.31.7 2.36 1.87 2.36 1.19 0 1.86-.98 1.86-2.36 0-1.3-.66-2.37-1.88-2.37-1.25 0-1.85 1.05-1.85 2.37m4.31-.01c0 1.53-.85 2.89-2.49 2.89-1.48 0-2.41-1.22-2.41-2.88 0-1.57.87-2.88 2.47-2.88 1.46 0 2.43 1.15 2.43 2.87"/><path clip-path="url(#b)" d="M369.23 22.19c0-.48 0-.95-.01-1.39h.54c.02.18.03.89.02 1.05.24-.56.69-1.18 1.83-1.18.98 0 1.85.55 1.85 2.07v3.56h-.55V22.83c0-.98-.41-1.62-1.36-1.62-1.31 0-1.76 1.09-1.76 2.29v2.8h-.55Z"/><path clip-path="url(#b)" d="M375.51 23.6c0 1.51.78 2.32 1.73 2.32 1.45 0 1.85-1 1.85-2.5 0-1.42-.34-2.23-1.75-2.23-1.09 0-1.83.87-1.83 2.41m4.1-5.4v6.52c0 .53 0 1.03.01 1.58h-.53c-.02-.13-.03-.65-.03-.92-.28.67-.89 1.06-1.85 1.06-1.43 0-2.29-1.17-2.29-2.82 0-1.69.94-2.95 2.43-2.95 1.1 0 1.54.47 1.71.82V18.2Z"/><path clip-path="url(#b)" d="M390.55 23.44c0-1.28-.62-2.23-1.7-2.23-1.33 0-1.88.83-1.88 2.33 0 1.47.43 2.39 1.8 2.39 1.14 0 1.78-.97 1.78-2.49M387 25.49v3.01h-.55V22.16c0-.45 0-.94-.01-1.35h.54c.02.21.02.54.02.99.34-.66.95-1.12 1.94-1.12 1.3 0 2.2 1.09 2.2 2.74 0 1.98-1.06 3.03-2.39 3.03-.97 0-1.47-.43-1.75-.95"/><path clip-path="url(#b)" d="M392.62 22.3c0-.92-.01-1.32-.01-1.5h.54c.01.18.02.53.02 1.23.32-.82 1.02-1.32 1.91-1.36v.59c-1.14.08-1.91.87-1.91 2.18v2.86h-.55Z"/><path clip-path="url(#b)" d="M399.82 23.14c-.01-1.09-.61-1.95-1.68-1.95-1.13 0-1.65.79-1.77 1.95Zm-3.49.48c.01 1.42.72 2.3 1.78 2.3 1.03 0 1.39-.58 1.58-1.03h.56c-.23.73-.81 1.55-2.17 1.55-1.67 0-2.32-1.44-2.32-2.84 0-1.57.78-2.93 2.39-2.93 1.69 0 2.23 1.46 2.23 2.5 0 .15 0 .31-.01.45Z"/><path clip-path="url(#b)" d="M405.94 24.69c-.27.97-.9 1.75-2.14 1.75-1.38 0-2.35-1.02-2.35-2.86 0-1.51.8-2.9 2.42-2.9 1.4 0 1.97.99 2.07 1.76h-.56c-.16-.64-.58-1.24-1.52-1.24-1.17 0-1.83.99-1.83 2.37 0 1.31.62 2.37 1.77 2.37.8 0 1.29-.41 1.57-1.23Z"/><path clip-path="url(#b)" d="M407.47 20.81h.55v5.5h-.55Zm0-2.61h.55v1.07h-.55Z"/><path clip-path="url(#b)" d="M409.88 24.79c.19.72.69 1.15 1.56 1.15.98 0 1.38-.45 1.38-1.07 0-.63-.27-.93-1.5-1.23-1.42-.34-1.77-.77-1.77-1.5 0-.76.57-1.46 1.82-1.46s1.84.76 1.92 1.54h-.55c-.1-.46-.46-1.03-1.4-1.03-.96 0-1.23.47-1.23.91 0 .51.27.76 1.35 1.02 1.55.37 1.94.88 1.94 1.71 0 1-.82 1.62-1.97 1.62-1.25 0-1.96-.66-2.11-1.65Z"/><path clip-path="url(#b)" d="M418.48 23.14c-.01-1.09-.61-1.95-1.68-1.95-1.13 0-1.65.79-1.77 1.95Zm-3.49.48c.01 1.42.72 2.3 1.78 2.3 1.03 0 1.39-.58 1.58-1.03h.56c-.23.73-.81 1.55-2.17 1.55-1.67 0-2.32-1.44-2.32-2.84 0-1.57.78-2.93 2.39-2.93 1.69 0 2.23 1.46 2.23 2.5 0 .15 0 .31-.01.45Z"/><path clip-path="url(#b)" d="M420.55 26.31h.55V18.2h-.55Z" fill-rule="evenodd"/><path clip-path="url(#b)" d="M422.98 20.81c1.11 3.15 1.6 4.44 1.78 5.04h.01c.22-.67.66-1.95 1.73-5.04h.57L425 26.63c-.58 1.63-.98 1.99-1.97 1.99-.2 0-.33-.01-.51-.03v-.55c.16.02.32.03.49.03.79 0 1.05-.38 1.45-1.52l-2.1-5.74Z"/><path clip-path="url(#b)" d="M432.34 20.81h1.02V19.09h.55v1.72h1.31v.52h-1.31V24.9c0 .62.13.97.66.97.16 0 .4-.01.57-.07v.48c-.19.08-.45.1-.68.1-.7 0-1.1-.35-1.1-1.23V21.33h-1.02Z"/><path clip-path="url(#b)" d="M436.53 23.56c0 1.31.7 2.36 1.87 2.36 1.19 0 1.86-.98 1.86-2.36 0-1.3-.66-2.37-1.88-2.37-1.25 0-1.85 1.05-1.85 2.37m4.31-.01c0 1.53-.85 2.89-2.49 2.89-1.48 0-2.41-1.22-2.41-2.88 0-1.57.87-2.88 2.47-2.88 1.46 0 2.43 1.15 2.43 2.87"/><path clip-path="url(#b)" d="M447.23 26.31h.55V18.2h-.55Z" fill-rule="evenodd"/><path clip-path="url(#b)" d="M449.7 20.81h.55v5.5h-.55Zm0-2.61h.55v1.07h-.55Z"/><path clip-path="url(#b)" d="M452.3 23.54c0 1.31.69 2.26 1.75 2.26 1.38 0 1.79-.91 1.79-2.34 0-1.45-.44-2.26-1.76-2.26-1.26 0-1.78 1.09-1.78 2.34m4.06 2.4c0 1.76-.78 2.68-2.38 2.68-1.43 0-2.03-.8-2.16-1.64h.56c.2.76.83 1.12 1.62 1.12 1.43 0 1.83-.92 1.83-2.32v-.57c-.3.72-.84 1.1-1.84 1.1-1.29 0-2.28-1.04-2.28-2.75 0-1.85 1.06-2.88 2.35-2.88 1.12 0 1.61.53 1.76.97.01-.32.02-.7.03-.84h.52c0 .2-.02 1.07-.02 1.6Z"/><path clip-path="url(#b)" d="M458.83 18.2v3.53c.31-.57.85-1.06 1.82-1.06.78 0 1.86.4 1.86 2.13v3.5h-.55V22.92c0-1.09-.49-1.71-1.41-1.71-1.09 0-1.72.67-1.72 2.02v3.07h-.55V18.2Z"/><path clip-path="url(#b)" d="M463.56 20.81h1.02V19.09h.55v1.72h1.31v.52h-1.31V24.9c0 .62.13.97.66.97.16 0 .4-.01.57-.07v.48c-.19.08-.45.1-.68.1-.7 0-1.1-.35-1.1-1.23V21.33h-1.02Z"/><path clip-path="url(#b)" d="M467.29 27.56c.54-1.07.74-2.05.77-2.66h.55c-.08.91-.43 2-.82 2.66Z"/><path clip-path="url(#b)" d="M5 34.01H6.02V32.29h.55v1.72H7.88v.52H6.57V38.1c0 .62.13.97.66.97.17 0 .4-.01.57-.07v.48c-.19.08-.45.1-.68.1-.7 0-1.1-.35-1.1-1.23V34.53H5Z"/><path clip-path="url(#b)" d="M12.66 36.34c-.01-1.09-.6-1.95-1.68-1.95-1.13 0-1.65.79-1.77 1.95Zm-3.49.48c.01 1.42.73 2.3 1.78 2.3 1.03 0 1.39-.58 1.58-1.03h.56c-.23.73-.81 1.55-2.17 1.55-1.67 0-2.32-1.44-2.32-2.84 0-1.57.78-2.93 2.39-2.93 1.69 0 2.23 1.46 2.23 2.5 0 .15 0 .31-.01.45Z"/><path clip-path="url(#b)" d="M14.68 35.43c0-.47 0-.99-.01-1.42h.54c.01.19.03.66.02.98.23-.55.74-1.11 1.65-1.11.77 0 1.38.39 1.6 1.09.27-.57.82-1.09 1.79-1.09.85 0 1.73.49 1.73 2.01v3.62h-.55V35.96c0-.74-.26-1.54-1.29-1.54-1.07 0-1.55.86-1.55 1.93v3.17h-.54V35.97c0-.8-.24-1.55-1.26-1.55-1.07 0-1.58.95-1.58 2.07v3.03h-.55Z"/><path clip-path="url(#b)" d="M28.01 36.64c0-1.28-.62-2.23-1.71-2.23-1.33 0-1.88.84-1.88 2.33 0 1.47.43 2.39 1.8 2.39 1.14 0 1.78-.97 1.78-2.49m-3.55 2.06v3.01h-.55V35.36c0-.45 0-.94-.01-1.35h.54c.02.21.02.54.02.99.34-.66.95-1.12 1.94-1.12 1.3 0 2.2 1.09 2.2 2.74 0 1.98-1.06 3.03-2.39 3.03-.97 0-1.47-.43-1.75-.95"/><path clip-path="url(#b)" d="M33.75 36.34c-.01-1.09-.6-1.95-1.68-1.95-1.13 0-1.65.79-1.77 1.95Zm-3.49.48c.01 1.42.73 2.3 1.78 2.3 1.03 0 1.39-.58 1.58-1.03h.56c-.23.73-.81 1.55-2.17 1.55-1.67 0-2.32-1.44-2.32-2.84 0-1.57.78-2.93 2.39-2.93 1.69 0 2.23 1.46 2.23 2.5 0 .15 0 .31-.01.45Z"/><path clip-path="url(#b)" d="M35.78 35.5c0-.92-.01-1.32-.01-1.5h.54c.01.18.02.53.02 1.23.32-.83 1.02-1.32 1.91-1.36v.59c-1.14.08-1.91.87-1.91 2.18v2.86h-.55Z"/><path clip-path="url(#b)" d="M42.5 36.7H41.42c-1.22 0-1.98.32-1.98 1.27 0 .69.49 1.17 1.27 1.17 1.57 0 1.79-1.04 1.79-2.23Zm.54 1.76c0 .48.04.87.08 1.04h-.53c-.04-.13-.08-.37-.1-.85-.19.41-.67.98-1.8.98-1.28 0-1.83-.83-1.83-1.65 0-1.21.94-1.76 2.59-1.76h1.05v-.56c0-.55-.17-1.29-1.42-1.29-1.11 0-1.28.58-1.4 1.03h-.55c.07-.6.44-1.54 1.96-1.54 1.25 0 1.96.53 1.96 1.74Z"/><path clip-path="url(#b)" d="M44.08 34.01H45.1V32.29h.55v1.72h1.31v.52H45.65V38.1c0 .62.13.97.66.97.17 0 .4-.01.57-.07v.48c-.19.08-.45.1-.68.1-.7 0-1.1-.35-1.1-1.23V34.53H44.08Z"/><path clip-path="url(#b)" d="M52.16 37.9c0 .54.01 1.4.01 1.61h-.53c-.02-.14-.03-.51-.03-.96-.23.65-.79 1.09-1.77 1.09-.79 0-1.8-.31-1.8-1.99V34.01h.54v3.51c0 .8.25 1.58 1.34 1.58 1.23 0 1.69-.69 1.69-2.27V34.01h.55Z"/><path clip-path="url(#b)" d="M54.07 35.5c0-.92-.01-1.32-.01-1.5h.54c.01.18.02.53.02 1.23.32-.83 1.02-1.32 1.91-1.36v.59c-1.14.08-1.91.87-1.91 2.18v2.86h-.55Z"/><path clip-path="url(#b)" d="M61.26 36.34c-.01-1.09-.6-1.95-1.68-1.95-1.13 0-1.65.79-1.77 1.95Zm-3.49.48c.01 1.42.73 2.3 1.78 2.3 1.03 0 1.39-.58 1.58-1.03h.56c-.23.73-.81 1.55-2.17 1.55-1.67 0-2.32-1.44-2.32-2.84 0-1.57.78-2.93 2.39-2.93 1.69 0 2.23 1.46 2.23 2.5 0 .15 0 .31-.01.45Z"/><path clip-path="url(#b)" d="M62.63 40.76c.54-1.07.74-2.05.77-2.66h.55c-.08.91-.43 2-.83 2.66Z"/><path clip-path="url(#b)" d="M72.5 36.7H71.42c-1.22 0-1.98.32-1.98 1.27 0 .69.49 1.17 1.27 1.17 1.57 0 1.79-1.04 1.79-2.23Zm.54 1.76c0 .48.04.87.08 1.04h-.53c-.04-.13-.08-.37-.1-.85-.19.41-.67.98-1.8.98-1.28 0-1.83-.83-1.83-1.65 0-1.21.94-1.76 2.59-1.76h1.05v-.56c0-.55-.17-1.29-1.42-1.29-1.11 0-1.28.58-1.4 1.03h-.55c.07-.6.44-1.54 1.96-1.54 1.25 0 1.96.53 1.96 1.74Z"/><path clip-path="url(#b)" d="M74.96 35.4c0-.48 0-.95-.01-1.39h.54c.02.18.03.89.02 1.04.24-.56.69-1.18 1.83-1.18.98 0 1.85.55 1.85 2.07v3.56h-.55V36.03c0-.98-.41-1.62-1.36-1.62-1.31 0-1.76 1.09-1.76 2.29v2.81h-.55Z"/><path clip-path="url(#b)" d="M81.24 36.8c0 1.51.78 2.32 1.73 2.32 1.45 0 1.85-1 1.85-2.5 0-1.42-.34-2.23-1.75-2.23-1.09 0-1.83.87-1.83 2.41m4.1-5.4v6.52c0 .53 0 1.03.01 1.58h-.53c-.02-.13-.03-.65-.03-.92-.28.67-.89 1.06-1.85 1.06-1.43 0-2.29-1.17-2.29-2.82 0-1.69.94-2.95 2.43-2.95 1.1 0 1.54.47 1.7.83V31.4Z"/><path clip-path="url(#b)" d="M91.6 31.4v3.53c.31-.57.85-1.05 1.82-1.05.78 0 1.86.4 1.86 2.13v3.5h-.55V36.12c0-1.09-.49-1.71-1.41-1.71-1.09 0-1.72.67-1.72 2.02v3.07h-.55V31.4Z"/><path clip-path="url(#b)" d="M101.23 37.9c0 .54.01 1.4.01 1.61h-.53c-.02-.14-.03-.51-.03-.96-.23.65-.79 1.09-1.77 1.09-.79 0-1.8-.31-1.8-1.99V34.01h.54v3.51c0 .8.25 1.58 1.34 1.58 1.23 0 1.69-.69 1.69-2.27V34.01h.55Z"/><path clip-path="url(#b)" d="M103.14 35.43c0-.47 0-.99-.01-1.42h.54c.01.19.03.66.02.98.23-.55.74-1.11 1.65-1.11.77 0 1.38.39 1.6 1.09.27-.57.82-1.09 1.79-1.09.85 0 1.73.49 1.73 2.01v3.62h-.55V35.96c0-.74-.26-1.54-1.29-1.54-1.07 0-1.55.86-1.55 1.93v3.17h-.54V35.97c0-.8-.24-1.55-1.26-1.55-1.07 0-1.58.95-1.58 2.07v3.03h-.55Z"/><path clip-path="url(#b)" d="M112.37 34.01h.55v5.5h-.55Zm0-2.61h.55v1.07h-.55Z"/><path clip-path="url(#b)" d="M114.97 36.8c0 1.51.78 2.32 1.73 2.32 1.45 0 1.85-1 1.85-2.5 0-1.42-.34-2.23-1.75-2.23-1.09 0-1.83.87-1.83 2.41m4.1-5.4v6.52c0 .53 0 1.03.01 1.58h-.53c-.02-.13-.03-.65-.03-.92-.28.67-.89 1.06-1.85 1.06-1.43 0-2.29-1.17-2.29-2.82 0-1.69.94-2.95 2.43-2.95 1.1 0 1.54.47 1.7.83V31.4Z"/><path clip-path="url(#b)" d="M120.99 34.01h.55v5.5h-.55Zm0-2.61h.55v1.07h-.55Z"/><path clip-path="url(#b)" d="M122.71 34.01h1.02V32.29h.55v1.72h1.31v.52h-1.31V38.1c0 .62.13.97.66.97.16 0 .4-.01.57-.07v.48c-.19.08-.45.1-.68.1-.7 0-1.1-.35-1.1-1.23V34.53h-1.02Z"/><path clip-path="url(#b)" d="M127.01 34.01c1.11 3.15 1.6 4.45 1.78 5.04h.01c.22-.67.66-1.95 1.73-5.04h.57l-2.07 5.82c-.58 1.63-.98 1.99-1.97 1.99-.2 0-.33-.01-.51-.03v-.55c.16.02.32.03.49.03.79 0 1.05-.39 1.45-1.52l-2.1-5.74Z"/><path clip-path="url(#b)" d="M130.92 40.76c.54-1.07.74-2.05.77-2.66h.55c-.08.91-.43 2-.83 2.66Z"/><path clip-path="url(#b)" d="M137.57 34.01c.81 2.84 1.29 4.47 1.38 4.95h.01c.09-.44.64-2.17 1.5-4.95h.59c1.02 3.4 1.33 4.38 1.43 4.81h.01c.15-.6.41-1.43 1.42-4.81h.58l-1.74 5.5h-.6c-.6-1.95-1.31-4.34-1.42-4.84h-.01c-.11.54-.74 2.51-1.45 4.84h-.66l-1.62-5.5Z"/><path clip-path="url(#b)" d="M149.34 36.34c-.01-1.09-.6-1.95-1.68-1.95-1.13 0-1.65.79-1.77 1.95Zm-3.49.48c.01 1.42.72 2.3 1.78 2.3 1.03 0 1.39-.58 1.58-1.03h.56c-.23.73-.81 1.55-2.17 1.55-1.67 0-2.32-1.44-2.32-2.84 0-1.57.78-2.93 2.39-2.93 1.69 0 2.23 1.46 2.23 2.5 0 .15 0 .31-.01.45Z"/><path clip-path="url(#b)" d="M155.16 34.01h.55v5.5h-.55Zm0-2.61h.55v1.07h-.55Z"/><path clip-path="url(#b)" d="M157.62 35.4c0-.48 0-.95-.01-1.39h.54c.02.18.03.89.02 1.04.24-.56.69-1.18 1.83-1.18.98 0 1.85.55 1.85 2.07v3.56h-.55V36.03c0-.98-.41-1.62-1.36-1.62-1.31 0-1.76 1.09-1.76 2.29v2.81h-.55Z"/><path clip-path="url(#b)" d="M162.9 34.01h1.02V32.29h.55v1.72h1.31v.52h-1.31V38.1c0 .62.13.97.66.97.17 0 .4-.01.57-.07v.48c-.19.08-.45.1-.68.1-.7 0-1.1-.35-1.1-1.23V34.53H162.9Z"/><path clip-path="url(#b)" d="M170.56 36.34c-.01-1.09-.6-1.95-1.68-1.95-1.13 0-1.65.79-1.77 1.95Zm-3.49.48c.01 1.42.73 2.3 1.78 2.3 1.03 0 1.39-.58 1.58-1.03H171c-.23.73-.81 1.55-2.17 1.55-1.67 0-2.32-1.44-2.32-2.84 0-1.57.78-2.93 2.39-2.93 1.69 0 2.23 1.46 2.23 2.5 0 .15 0 .31-.01.45Z"/><path clip-path="url(#b)" d="M172.84 36.74c0 1.31.69 2.26 1.75 2.26 1.38 0 1.79-.91 1.79-2.34 0-1.45-.44-2.26-1.76-2.26-1.26 0-1.78 1.09-1.78 2.34m4.06 2.4c0 1.76-.78 2.68-2.38 2.68-1.43 0-2.03-.8-2.16-1.64h.56c.2.76.83 1.12 1.62 1.12 1.43 0 1.83-.92 1.83-2.32v-.57c-.3.72-.84 1.1-1.84 1.1-1.29 0-2.28-1.04-2.28-2.75 0-1.85 1.06-2.88 2.35-2.88 1.12 0 1.61.53 1.76.97.01-.32.02-.71.03-.84h.52c0 .2-.02 1.07-.02 1.6Z"/><path clip-path="url(#b)" d="M178.82 35.5c0-.92-.01-1.32-.01-1.5h.54c.01.18.02.53.02 1.23.32-.83 1.02-1.32 1.91-1.36v.59c-1.14.08-1.91.87-1.91 2.18v2.86h-.55Z"/><path clip-path="url(#b)" d="M185.54 36.7h-1.08c-1.22 0-1.98.32-1.98 1.27 0 .69.5 1.17 1.27 1.17 1.57 0 1.79-1.04 1.79-2.23Zm.54 1.76c0 .48.04.87.08 1.04h-.53c-.04-.13-.08-.37-.1-.85-.19.41-.67.98-1.8.98-1.28 0-1.83-.83-1.83-1.65 0-1.21.94-1.76 2.58-1.76h1.05v-.56c0-.55-.16-1.29-1.42-1.29-1.11 0-1.28.58-1.4 1.03h-.55c.07-.6.44-1.54 1.96-1.54 1.25 0 1.96.53 1.96 1.74Z"/><path clip-path="url(#b)" d="M187.12 34.01h1.02V32.29h.55v1.72H190v.52h-1.31V38.1c0 .62.13.97.66.97.16 0 .4-.01.57-.07v.48c-.19.08-.45.1-.68.1-.7 0-1.1-.35-1.1-1.23V34.53h-1.02Z"/><path clip-path="url(#b)" d="M194.78 36.34c-.01-1.09-.6-1.95-1.68-1.95-1.13 0-1.65.79-1.77 1.95Zm-3.49.48c.01 1.42.72 2.3 1.78 2.3 1.03 0 1.39-.58 1.58-1.03h.56c-.23.73-.81 1.55-2.17 1.55-1.67 0-2.32-1.44-2.32-2.84 0-1.57.78-2.93 2.39-2.93 1.69 0 2.23 1.46 2.23 2.5 0 .15 0 .31-.01.45Z"/><path clip-path="url(#b)" d="M199.76 34.01h1.02V32.29h.55v1.72h1.31v.52h-1.31V38.1c0 .62.13.97.66.97.17 0 .4-.01.57-.07v.48c-.19.08-.45.1-.68.1-.7 0-1.1-.35-1.1-1.23V34.53h-1.02Z"/><path clip-path="url(#b)" d="M207.42 36.34c-.01-1.09-.61-1.95-1.68-1.95-1.13 0-1.65.79-1.77 1.95Zm-3.49.48c.01 1.42.72 2.3 1.78 2.3 1.03 0 1.39-.58 1.58-1.03h.56c-.23.73-.81 1.55-2.17 1.55-1.67 0-2.32-1.44-2.32-2.84 0-1.57.78-2.93 2.39-2.93 1.69 0 2.23 1.46 2.23 2.5 0 .15 0 .31-.01.45Z"/><path clip-path="url(#b)" d="M213.55 37.89c-.27.97-.9 1.75-2.14 1.75-1.38 0-2.35-1.02-2.35-2.86 0-1.51.8-2.91 2.42-2.91 1.4 0 1.97.99 2.07 1.76h-.56c-.16-.64-.58-1.24-1.52-1.24-1.17 0-1.83.99-1.83 2.37 0 1.31.62 2.36 1.77 2.36.8 0 1.29-.41 1.57-1.23Z"/><path clip-path="url(#b)" d="M215.48 31.4v3.53c.31-.57.85-1.05 1.82-1.05.78 0 1.86.4 1.86 2.13v3.5h-.55V36.12c0-1.09-.49-1.71-1.41-1.71-1.09 0-1.72.67-1.72 2.02v3.07h-.55V31.4Z"/><path clip-path="url(#b)" d="M221.07 35.4c0-.48 0-.95-.01-1.39h.54c.02.18.03.89.02 1.04.24-.56.69-1.18 1.83-1.18.98 0 1.85.55 1.85 2.07v3.56h-.55V36.03c0-.98-.41-1.62-1.36-1.62-1.31 0-1.76 1.09-1.76 2.29v2.81h-.55Z"/><path clip-path="url(#b)" d="M227.36 36.76c0 1.31.7 2.36 1.87 2.36 1.19 0 1.86-.98 1.86-2.36 0-1.3-.66-2.37-1.88-2.37-1.25 0-1.85 1.05-1.85 2.37m4.31-.01c0 1.53-.85 2.89-2.49 2.89-1.48 0-2.41-1.22-2.41-2.88 0-1.57.87-2.88 2.46-2.88 1.46 0 2.43 1.15 2.43 2.87"/><path clip-path="url(#b)" d="M233.14 39.51h.55V31.4h-.55Z" fill-rule="evenodd"/><path clip-path="url(#b)" d="M235.75 36.76c0 1.31.7 2.36 1.87 2.36 1.19 0 1.86-.98 1.86-2.36 0-1.3-.66-2.37-1.88-2.37-1.25 0-1.85 1.05-1.85 2.37m4.31-.01c0 1.53-.85 2.89-2.49 2.89-1.49 0-2.41-1.22-2.41-2.88 0-1.57.87-2.88 2.46-2.88 1.46 0 2.43 1.15 2.43 2.87"/><path clip-path="url(#b)" d="M241.75 36.74c0 1.31.69 2.26 1.75 2.26 1.38 0 1.79-.91 1.79-2.34 0-1.45-.44-2.26-1.76-2.26-1.26 0-1.78 1.09-1.78 2.34m4.06 2.4c0 1.76-.78 2.68-2.38 2.68-1.43 0-2.02-.8-2.16-1.64h.56c.2.76.82 1.12 1.62 1.12 1.43 0 1.83-.92 1.83-2.32v-.57c-.3.72-.84 1.1-1.84 1.1-1.29 0-2.28-1.04-2.28-2.75 0-1.85 1.06-2.88 2.35-2.88 1.12 0 1.61.53 1.76.97.01-.32.02-.71.03-.84h.52c0 .2-.02 1.07-.02 1.6Z"/><path clip-path="url(#b)" d="M247.68 34.01c1.11 3.15 1.6 4.45 1.78 5.04h.01c.22-.67.66-1.95 1.73-5.04h.57l-2.07 5.82c-.58 1.63-.98 1.99-1.97 1.99-.2 0-.33-.01-.51-.03v-.55c.16.02.32.03.49.03.79 0 1.05-.39 1.45-1.52l-2.1-5.74Z"/><path clip-path="url(#b)" d="M255.9 34.01h1.02V32.29h.55v1.72h1.31v.52h-1.31V38.1c0 .62.13.97.66.97.17 0 .4-.01.57-.07v.48c-.19.08-.45.1-.68.1-.7 0-1.1-.35-1.1-1.23V34.53H255.9Z"/><path clip-path="url(#b)" d="M260.54 31.4v3.53c.31-.57.85-1.05 1.82-1.05.78 0 1.86.4 1.86 2.13v3.5h-.55V36.12c0-1.09-.49-1.71-1.41-1.71-1.09 0-1.72.67-1.72 2.02v3.07h-.55V31.4Z"/><path clip-path="url(#b)" d="M266.27 36.76c0 1.31.7 2.36 1.87 2.36 1.19 0 1.86-.98 1.86-2.36 0-1.3-.66-2.37-1.88-2.37-1.25 0-1.85 1.05-1.85 2.37m4.31-.01c0 1.53-.85 2.89-2.49 2.89-1.49 0-2.41-1.22-2.41-2.88 0-1.57.87-2.88 2.46-2.88 1.46 0 2.43 1.15 2.43 2.87"/><path clip-path="url(#b)" d="M276.17 37.9c0 .54.01 1.4.01 1.61h-.53c-.02-.14-.03-.51-.03-.96-.23.65-.79 1.09-1.77 1.09-.79 0-1.8-.31-1.8-1.99V34.01h.54v3.51c0 .8.25 1.58 1.34 1.58 1.23 0 1.69-.69 1.69-2.27V34.01h.55Z"/><path clip-path="url(#b)" d="M278.22 36.74c0 1.31.69 2.26 1.75 2.26 1.38 0 1.79-.91 1.79-2.34 0-1.45-.44-2.26-1.76-2.26-1.26 0-1.78 1.09-1.78 2.34m4.06 2.4c0 1.76-.78 2.68-2.38 2.68-1.43 0-2.03-.8-2.16-1.64h.56c.2.76.82 1.12 1.62 1.12 1.43 0 1.83-.92 1.83-2.32v-.57c-.3.72-.84 1.1-1.84 1.1-1.29 0-2.28-1.04-2.28-2.75 0-1.85 1.06-2.88 2.35-2.88 1.12 0 1.61.53 1.76.97.01-.32.02-.71.03-.84h.52c0 .2-.02 1.07-.02 1.6Z"/><path clip-path="url(#b)" d="M284.75 31.4v3.53c.31-.57.85-1.05 1.82-1.05.78 0 1.86.4 1.86 2.13v3.5h-.55V36.12c0-1.09-.49-1.71-1.41-1.71-1.09 0-1.72.67-1.72 2.02v3.07h-.55V31.4Z"/><path clip-path="url(#b)" d="M289.48 34.01h1.02V32.29h.55v1.72h1.31v.52h-1.31V38.1c0 .62.13.97.66.97.16 0 .4-.01.57-.07v.48c-.19.08-.45.1-.68.1-.7 0-1.1-.35-1.1-1.23V34.53h-1.02Z"/><path clip-path="url(#b)" d="M293.73 39.51V34.53h-.95v-.52h.95v-.78c0-.92.27-1.94 1.5-1.94.16 0 .41.03.54.08v.53c-.17-.04-.43-.07-.59-.07-.65 0-.89.46-.89 1.42v.76h1.2v.52h-1.2v4.98Z"/><path clip-path="url(#b)" d="M300.62 37.9c0 .54.01 1.4.01 1.61h-.53c-.02-.14-.03-.51-.03-.96-.23.65-.79 1.09-1.77 1.09-.79 0-1.8-.31-1.8-1.99V34.01h.54v3.51c0 .8.25 1.58 1.34 1.58 1.23 0 1.69-.69 1.69-2.27V34.01h.55Z"/><path clip-path="url(#b)" d="M302.53 39.51h.55V31.4h-.55Z" fill-rule="evenodd"/><path clip-path="url(#b)" d="M305 39.51h.55V31.4H305Z" fill-rule="evenodd"/><path clip-path="url(#b)" d="M307.43 34.01c1.11 3.15 1.6 4.45 1.78 5.04h.01c.22-.67.66-1.95 1.73-5.04h.57l-2.07 5.82c-.58 1.63-.98 1.99-1.97 1.99-.2 0-.33-.01-.51-.03v-.55c.16.02.32.03.49.03.79 0 1.05-.39 1.45-1.52l-2.1-5.74Z"/><path clip-path="url(#b)" d="M312.33 36.97h8.1v-.54h-8.1Z" fill-rule="evenodd"/><path clip-path="url(#b)" d="M322.24 39.51V34.53h-.95v-.52h.95v-.78c0-.92.27-1.94 1.5-1.94.16 0 .41.03.54.08v.53c-.17-.04-.43-.07-.59-.07-.65 0-.89.46-.89 1.42v.76h1.2v.52h-1.2v4.98Z"/><path clip-path="url(#b)" d="M325.03 35.5c0-.92-.01-1.32-.01-1.5h.54c.01.18.02.53.02 1.23.32-.83 1.02-1.32 1.91-1.36v.59c-1.14.08-1.91.87-1.91 2.18v2.86h-.55Z"/><path clip-path="url(#b)" d="M328.76 36.76c0 1.31.7 2.36 1.87 2.36 1.19 0 1.86-.98 1.86-2.36 0-1.3-.66-2.37-1.88-2.37-1.25 0-1.85 1.05-1.85 2.37m4.31-.01c0 1.53-.85 2.89-2.49 2.89-1.48 0-2.41-1.22-2.41-2.88 0-1.57.87-2.88 2.46-2.88 1.46 0 2.43 1.15 2.43 2.87"/><path clip-path="url(#b)" d="M334.54 35.43c0-.47 0-.99-.01-1.42h.54c.01.19.03.66.02.98.23-.55.74-1.11 1.65-1.11.77 0 1.38.39 1.59 1.09.28-.57.83-1.09 1.79-1.09.85 0 1.73.49 1.73 2.01v3.62h-.55V35.96c0-.74-.26-1.54-1.29-1.54-1.07 0-1.55.86-1.55 1.93v3.17h-.54V35.97c0-.8-.24-1.55-1.26-1.55-1.07 0-1.58.95-1.58 2.07v3.03h-.55Z"/><path clip-path="url(#b)" d="M347.56 35.5c0-.92-.01-1.32-.01-1.5h.54c.01.18.02.53.02 1.23.32-.83 1.02-1.32 1.91-1.36v.59c-1.14.08-1.91.87-1.91 2.18v2.86h-.55Z"/><path clip-path="url(#b)" d="M354.75 36.34c-.01-1.09-.61-1.95-1.68-1.95-1.13 0-1.65.79-1.77 1.95Zm-3.49.48c.01 1.42.73 2.3 1.78 2.3 1.03 0 1.39-.58 1.58-1.03h.56c-.23.73-.81 1.55-2.17 1.55-1.67 0-2.32-1.44-2.32-2.84 0-1.57.78-2.93 2.39-2.93 1.69 0 2.23 1.46 2.23 2.5 0 .15 0 .31-.01.45Z"/><path clip-path="url(#b)" d="M357.04 36.74c0 1.31.69 2.26 1.75 2.26 1.38 0 1.79-.91 1.79-2.34 0-1.45-.44-2.26-1.76-2.26-1.26 0-1.78 1.09-1.78 2.34m4.06 2.4c0 1.76-.78 2.68-2.38 2.68-1.43 0-2.02-.8-2.16-1.64h.56c.2.76.82 1.12 1.62 1.12 1.43 0 1.83-.92 1.83-2.32v-.57c-.3.72-.84 1.1-1.84 1.1-1.29 0-2.28-1.04-2.28-2.75 0-1.85 1.06-2.88 2.35-2.88 1.12 0 1.61.53 1.76.97.01-.32.02-.71.03-.84h.52c0 .2-.02 1.07-.02 1.6Z"/><path clip-path="url(#b)" d="M363.01 34.01h.55v5.5h-.55Zm0-2.61h.55v1.07h-.55Z"/><path clip-path="url(#b)" d="M365.42 37.99c.19.72.69 1.14 1.56 1.14.98 0 1.38-.45 1.38-1.07 0-.63-.26-.93-1.5-1.23-1.42-.34-1.77-.77-1.77-1.5 0-.76.57-1.46 1.82-1.46s1.84.76 1.93 1.54h-.55c-.1-.46-.46-1.03-1.4-1.03-.96 0-1.23.47-1.23.91 0 .51.27.76 1.35 1.02 1.55.37 1.94.88 1.94 1.71 0 1-.82 1.62-1.97 1.62-1.25 0-1.96-.66-2.11-1.65Z"/><path clip-path="url(#b)" d="M369.56 34.01h1.02V32.29h.55v1.72h1.31v.52h-1.31V38.1c0 .62.13.97.66.97.17 0 .4-.01.57-.07v.48c-.19.08-.45.1-.68.1-.7 0-1.1-.35-1.1-1.23V34.53h-1.02Z"/><path clip-path="url(#b)" d="M373.57 35.5c0-.92-.01-1.32-.01-1.5h.54c.01.18.02.53.02 1.23.32-.83 1.02-1.32 1.91-1.36v.59c-1.14.08-1.91.87-1.91 2.18v2.86h-.55Z"/><path clip-path="url(#b)" d="M380.3 36.7h-1.08c-1.22 0-1.98.32-1.98 1.27 0 .69.5 1.17 1.27 1.17 1.57 0 1.79-1.04 1.79-2.23Zm.54 1.76c0 .48.04.87.08 1.04h-.53c-.04-.13-.08-.37-.1-.85-.19.41-.67.98-1.8.98-1.28 0-1.83-.83-1.83-1.65 0-1.21.94-1.76 2.59-1.76h1.05v-.56c0-.55-.17-1.29-1.42-1.29-1.11 0-1.27.58-1.4 1.03h-.55c.07-.6.44-1.54 1.96-1.54 1.25 0 1.96.53 1.96 1.74Z"/><path clip-path="url(#b)" d="M381.88 34.01h1.02V32.29h.55v1.72h1.31v.52h-1.31V38.1c0 .62.13.97.66.97.17 0 .4-.01.57-.07v.48c-.19.08-.45.1-.68.1-.7 0-1.1-.35-1.1-1.23V34.53h-1.02Z"/><path clip-path="url(#b)" d="M385.99 34.01h.55v5.5h-.55Zm0-2.61h.55v1.07h-.55Z"/><path clip-path="url(#b)" d="M388.6 36.76c0 1.31.7 2.36 1.87 2.36 1.19 0 1.86-.98 1.86-2.36 0-1.3-.66-2.37-1.88-2.37-1.25 0-1.85 1.05-1.85 2.37m4.31-.01c0 1.53-.85 2.89-2.49 2.89-1.48 0-2.41-1.22-2.41-2.88 0-1.57.87-2.88 2.47-2.88 1.46 0 2.43 1.15 2.43 2.87"/><path clip-path="url(#b)" d="M394.38 35.4c0-.48 0-.95-.01-1.39h.54c.02.18.03.89.02 1.04.24-.56.69-1.18 1.83-1.18.98 0 1.85.55 1.85 2.07v3.56h-.55V36.03c0-.98-.41-1.62-1.36-1.62-1.31 0-1.76 1.09-1.76 2.29v2.81h-.55Z"/><path clip-path="url(#b)" d="M408.42 36.64c0-1.28-.62-2.23-1.7-2.23-1.33 0-1.88.84-1.88 2.33 0 1.47.43 2.39 1.8 2.39 1.14 0 1.78-.97 1.78-2.49m-3.55 2.06v3.01h-.55V35.36c0-.45 0-.94-.01-1.35h.54c.02.21.02.54.02.99.34-.66.95-1.12 1.94-1.12 1.3 0 2.2 1.09 2.2 2.74 0 1.98-1.06 3.03-2.39 3.03-.97 0-1.47-.43-1.75-.95"/><path clip-path="url(#b)" d="M410.48 39.51h.55V31.4h-.55Z" fill-rule="evenodd"/><path clip-path="url(#b)" d="M416.1 36.7h-1.08c-1.22 0-1.98.32-1.98 1.27 0 .69.49 1.17 1.27 1.17 1.57 0 1.79-1.04 1.79-2.23Zm.54 1.76c0 .48.04.87.08 1.04h-.53c-.04-.13-.08-.37-.1-.85-.19.41-.67.98-1.8.98-1.28 0-1.83-.83-1.83-1.65 0-1.21.94-1.76 2.58-1.76h1.05v-.56c0-.55-.16-1.29-1.42-1.29-1.11 0-1.28.58-1.4 1.03h-.55c.07-.6.44-1.54 1.96-1.54 1.25 0 1.96.53 1.96 1.74Z"/><path clip-path="url(#b)" d="M417.69 34.01h1.02V32.29h.55v1.72h1.31v.52h-1.31V38.1c0 .62.13.97.66.97.16 0 .4-.01.57-.07v.48c-.19.08-.45.1-.68.1-.7 0-1.1-.35-1.1-1.23V34.53h-1.02Z"/><path clip-path="url(#b)" d="M421.94 39.51V34.53H421v-.52h.95v-.78c0-.92.27-1.94 1.5-1.94.17 0 .41.03.54.08v.53c-.16-.04-.43-.07-.59-.07-.65 0-.89.46-.89 1.42v.76h1.2v.52h-1.2v4.98Z"/><path clip-path="url(#b)" d="M424.81 36.76c0 1.31.7 2.36 1.87 2.36 1.19 0 1.86-.98 1.86-2.36 0-1.3-.66-2.37-1.88-2.37-1.25 0-1.85 1.05-1.85 2.37m4.31-.01c0 1.53-.85 2.89-2.49 2.89-1.48 0-2.41-1.22-2.41-2.88 0-1.57.87-2.88 2.47-2.88 1.46 0 2.43 1.15 2.43 2.87"/><path clip-path="url(#b)" d="M430.6 35.5c0-.92-.01-1.32-.01-1.5h.54c.01.18.02.53.02 1.23.32-.83 1.02-1.32 1.91-1.36v.59c-1.14.08-1.91.87-1.91 2.18v2.86h-.55Z"/><path clip-path="url(#b)" d="M434.15 35.43c0-.47 0-.99-.01-1.42h.54c.01.19.03.66.02.98.23-.55.74-1.11 1.65-1.11.77 0 1.38.39 1.6 1.09.27-.57.82-1.09 1.79-1.09.85 0 1.73.49 1.73 2.01v3.62h-.55V35.96c0-.74-.26-1.54-1.29-1.54-1.07 0-1.55.86-1.55 1.93v3.17h-.54V35.97c0-.8-.24-1.55-1.26-1.55-1.07 0-1.58.95-1.58 2.07v3.03h-.55Z"/><path clip-path="url(#b)" d="M443.35 37.99c.19.72.69 1.14 1.56 1.14.98 0 1.38-.45 1.38-1.07 0-.63-.27-.93-1.5-1.23-1.42-.34-1.77-.77-1.77-1.5 0-.76.57-1.46 1.82-1.46s1.84.76 1.92 1.54h-.55c-.1-.46-.46-1.03-1.4-1.03-.96 0-1.23.47-1.23.91 0 .51.27.76 1.35 1.02 1.55.37 1.94.88 1.94 1.71 0 1-.81 1.62-1.97 1.62-1.25 0-1.96-.66-2.11-1.65Z"/><path clip-path="url(#b)" d="M455.37 36.7h-1.08c-1.22 0-1.98.32-1.98 1.27 0 .69.49 1.17 1.27 1.17 1.57 0 1.79-1.04 1.79-2.23Zm.54 1.76c0 .48.04.87.08 1.04h-.53c-.04-.13-.08-.37-.1-.85-.19.41-.67.98-1.8.98-1.28 0-1.83-.83-1.83-1.65 0-1.21.94-1.76 2.58-1.76h1.05v-.56c0-.55-.16-1.29-1.42-1.29-1.11 0-1.28.58-1.4 1.03h-.55c.07-.6.44-1.54 1.96-1.54 1.25 0 1.96.53 1.96 1.74Z"/><path clip-path="url(#b)" d="M457.83 35.4c0-.48 0-.95-.01-1.39h.54c.02.18.03.89.02 1.04.24-.56.69-1.18 1.83-1.18.98 0 1.85.55 1.85 2.07v3.56h-.55V36.03c0-.98-.41-1.62-1.36-1.62-1.31 0-1.76 1.09-1.76 2.29v2.81h-.55Z"/><path clip-path="url(#b)" d="M464.11 36.8c0 1.51.78 2.32 1.73 2.32 1.45 0 1.85-1 1.85-2.5 0-1.42-.34-2.23-1.75-2.23-1.09 0-1.83.87-1.83 2.41m4.1-5.4v6.52c0 .53 0 1.03.01 1.58h-.53c-.02-.13-.03-.65-.03-.92-.28.67-.89 1.06-1.85 1.06-1.43 0-2.29-1.17-2.29-2.82 0-1.69.94-2.95 2.43-2.95 1.1 0 1.54.47 1.71.83V31.4Z"/><path clip-path="url(#b)" d="M9.43 49.54c-.01-1.09-.61-1.95-1.68-1.95-1.13 0-1.65.79-1.77 1.95Zm-3.49.48c.01 1.42.73 2.3 1.78 2.3 1.03 0 1.39-.58 1.58-1.03h.56c-.23.73-.81 1.55-2.17 1.55-1.67 0-2.32-1.44-2.32-2.84 0-1.57.78-2.93 2.39-2.93 1.69 0 2.23 1.46 2.23 2.5 0 .15 0 .31-.01.45Z"/><path clip-path="url(#b)" d="M11.48 47.21c.89 2.52 1.51 4.24 1.72 4.94h.01c.12-.41.74-2.04 1.8-4.94h.58l-2.08 5.5h-.66l-1.96-5.5Z"/><path clip-path="url(#b)" d="M20.39 49.54c-.01-1.09-.6-1.95-1.68-1.95-1.13 0-1.65.79-1.77 1.95Zm-3.49.48c.01 1.42.73 2.3 1.78 2.3 1.03 0 1.39-.58 1.58-1.03h.56c-.23.73-.81 1.55-2.17 1.55-1.67 0-2.32-1.44-2.32-2.84 0-1.57.78-2.93 2.39-2.93 1.69 0 2.23 1.46 2.23 2.5 0 .15 0 .31-.01.45Z"/><path clip-path="url(#b)" d="M22.41 48.6c0-.48 0-.95-.01-1.39h.54c.02.18.03.89.02 1.05.24-.56.69-1.18 1.83-1.18.98 0 1.85.55 1.85 2.07v3.56h-.55V49.23c0-.98-.41-1.62-1.36-1.62-1.31 0-1.76 1.09-1.76 2.29v2.81h-.55Z"/><path clip-path="url(#b)" d="M27.69 47.21h1.02V45.49h.55v1.72h1.31v.52H29.27V51.3c0 .62.13.97.66.97.17 0 .4-.01.57-.07v.48c-.19.08-.45.1-.68.1-.7 0-1.1-.35-1.1-1.23V47.73H27.69Z"/><path clip-path="url(#b)" d="M38.72 49.9H37.64c-1.22 0-1.98.32-1.98 1.27 0 .69.49 1.17 1.27 1.17 1.57 0 1.79-1.05 1.79-2.23Zm.54 1.76c0 .48.04.87.08 1.04H38.8c-.04-.13-.08-.37-.1-.85-.19.41-.67.98-1.8.98-1.28 0-1.83-.83-1.83-1.65 0-1.21.94-1.76 2.58-1.76h1.05v-.56c0-.55-.17-1.29-1.42-1.29-1.11 0-1.27.58-1.4 1.03h-.55c.07-.6.44-1.54 1.96-1.54 1.25 0 1.96.53 1.96 1.74Z"/><path clip-path="url(#b)" d="M45.28 49.84c0-1.28-.62-2.23-1.71-2.23-1.33 0-1.88.84-1.88 2.33 0 1.47.43 2.39 1.8 2.39 1.14 0 1.78-.97 1.78-2.49M41.73 51.9v3.01h-.55V48.56c0-.45 0-.94-.01-1.35h.54c.02.21.02.54.02.99.34-.66.95-1.12 1.94-1.12 1.3 0 2.2 1.09 2.2 2.74 0 1.98-1.06 3.03-2.39 3.03-.97 0-1.47-.43-1.75-.95"/><path clip-path="url(#b)" d="M51.45 49.84c0-1.28-.62-2.23-1.7-2.23-1.33 0-1.88.84-1.88 2.33 0 1.47.43 2.39 1.8 2.39 1.14 0 1.78-.97 1.78-2.49M47.9 51.9v3.01h-.55V48.56c0-.45 0-.94-.01-1.35h.54c.02.21.02.54.02.99.34-.66.95-1.12 1.94-1.12 1.3 0 2.2 1.09 2.2 2.74 0 1.98-1.06 3.03-2.39 3.03-.97 0-1.47-.43-1.75-.95"/><path clip-path="url(#b)" d="M53.63 51.19c.19.72.69 1.15 1.56 1.15.98 0 1.38-.45 1.38-1.07 0-.63-.26-.93-1.5-1.23-1.42-.34-1.77-.77-1.77-1.5 0-.76.57-1.46 1.82-1.46s1.84.76 1.93 1.54h-.55c-.1-.46-.46-1.03-1.4-1.03-.96 0-1.23.47-1.23.91 0 .51.26.76 1.35 1.02 1.55.37 1.94.88 1.94 1.71 0 1-.81 1.62-1.97 1.62-1.25 0-1.96-.66-2.11-1.65Z"/><path clip-path="url(#b)" d="M61.47 47.21H62.5V45.49h.55v1.72h1.31v.52H63.05V51.3c0 .62.13.97.66.97.17 0 .4-.01.57-.07v.48c-.19.08-.45.1-.68.1-.7 0-1.1-.35-1.1-1.23V47.73H61.47Z"/><path clip-path="url(#b)" d="M65.67 49.96c0 1.31.7 2.37 1.87 2.37 1.19 0 1.86-.98 1.86-2.37 0-1.3-.66-2.37-1.88-2.37-1.25 0-1.85 1.05-1.85 2.37m4.31-.01c0 1.53-.85 2.89-2.49 2.89-1.48 0-2.41-1.22-2.41-2.88 0-1.57.87-2.88 2.46-2.88 1.46 0 2.43 1.14 2.43 2.87"/><path clip-path="url(#b)" d="M75.68 44.6v3.53c.31-.57.85-1.06 1.82-1.06.78 0 1.86.4 1.86 2.13v3.5H78.8V49.32c0-1.09-.49-1.71-1.41-1.71-1.09 0-1.72.67-1.72 2.02v3.07h-.55V44.6Z"/><path clip-path="url(#b)" d="M81.08 47.21c1.11 3.15 1.6 4.44 1.78 5.04h.01c.22-.67.66-1.95 1.73-5.04h.57L83.1 53.03c-.58 1.63-.98 1.99-1.97 1.99-.2 0-.33-.01-.51-.03v-.55c.17.02.32.03.49.03.79 0 1.05-.38 1.45-1.52l-2.1-5.74Z"/><path clip-path="url(#b)" d="M90.53 49.85c0-1.38-.68-2.26-1.73-2.26-1.38 0-1.86.94-1.86 2.38 0 1.3.43 2.35 1.79 2.35 1.11 0 1.79-.93 1.79-2.48m-4.1-5.25h.55v3.53c.26-.55.8-1.06 1.88-1.06 1.3 0 2.26 1.07 2.26 2.76 0 1.74-.86 3-2.4 3-.92 0-1.45-.37-1.74-1 0 .35-.01.71-.02.87h-.54c.01-.63.01-1.25.01-1.88Z"/><path clip-path="url(#b)" d="M92.58 48.7c0-.92-.01-1.32-.01-1.5h.54c.01.18.02.53.02 1.23.32-.82 1.02-1.32 1.91-1.36v.59c-1.14.08-1.91.87-1.91 2.18v2.86h-.55Z"/><path clip-path="url(#b)" d="M96.17 47.21h.55v5.5h-.55Zm0-2.61h.55v1.07h-.55Z"/><path clip-path="url(#b)" d="M98.78 50c0 1.51.78 2.32 1.73 2.32 1.45 0 1.85-1 1.85-2.5 0-1.42-.34-2.23-1.75-2.23-1.09 0-1.83.87-1.83 2.41m4.1-5.4v6.52c0 .53 0 1.03.01 1.58h-.53c-.02-.13-.03-.65-.03-.92-.28.67-.89 1.06-1.85 1.06-1.43 0-2.29-1.17-2.29-2.82 0-1.69.94-2.95 2.43-2.95 1.1 0 1.54.47 1.7.82V44.6Z"/><path clip-path="url(#b)" d="M108.47 51.19c.19.72.69 1.15 1.56 1.15.98 0 1.38-.45 1.38-1.07 0-.63-.26-.93-1.5-1.23-1.42-.34-1.77-.77-1.77-1.5 0-.76.57-1.46 1.82-1.46s1.84.76 1.93 1.54h-.55c-.1-.46-.46-1.03-1.4-1.03-.96 0-1.23.47-1.23.91 0 .51.26.76 1.35 1.02 1.55.37 1.94.88 1.94 1.71 0 1-.82 1.62-1.97 1.62-1.25 0-1.96-.66-2.11-1.65Z"/><path clip-path="url(#b)" d="M112.6 47.21h1.02V45.49h.55v1.72h1.31v.52h-1.31V51.3c0 .62.13.97.66.97.17 0 .4-.01.57-.07v.48c-.19.08-.45.1-.68.1-.7 0-1.1-.35-1.1-1.23V47.73H112.6Z"/><path clip-path="url(#b)" d="M116.62 48.7c0-.92-.01-1.32-.01-1.5h.54c.01.18.02.53.02 1.23.32-.82 1.02-1.32 1.91-1.36v.59c-1.14.08-1.91.87-1.91 2.18v2.86h-.55Z"/><path clip-path="url(#b)" d="M123.81 49.54c-.01-1.09-.61-1.95-1.68-1.95-1.13 0-1.65.79-1.77 1.95Zm-3.49.48c.01 1.42.73 2.3 1.78 2.3 1.03 0 1.39-.58 1.58-1.03h.56c-.23.73-.81 1.55-2.17 1.55-1.67 0-2.32-1.44-2.32-2.84 0-1.57.78-2.93 2.39-2.93 1.69 0 2.23 1.46 2.23 2.5 0 .15 0 .31-.01.45Z"/><path clip-path="url(#b)" d="M129.07 49.9h-1.08c-1.22 0-1.98.32-1.98 1.27 0 .69.49 1.17 1.27 1.17 1.57 0 1.79-1.05 1.79-2.23Zm.54 1.76c0 .48.04.87.08 1.04h-.53c-.04-.13-.08-.37-.1-.85-.19.41-.67.98-1.8.98-1.28 0-1.83-.83-1.83-1.65 0-1.21.94-1.76 2.59-1.76h1.05v-.56c0-.55-.16-1.29-1.42-1.29-1.11 0-1.28.58-1.4 1.03h-.55c.07-.6.44-1.54 1.96-1.54 1.25 0 1.96.53 1.96 1.74Z"/><path clip-path="url(#b)" d="M131.54 48.63c0-.47 0-.99-.01-1.42h.54c.01.19.03.66.02.98.23-.55.74-1.11 1.65-1.11.77 0 1.38.38 1.6 1.09.28-.57.83-1.09 1.79-1.09.85 0 1.73.49 1.73 2.01v3.62h-.55V49.15c0-.74-.26-1.54-1.29-1.54-1.07 0-1.55.86-1.55 1.93v3.17h-.54V49.17c0-.8-.24-1.55-1.26-1.55-1.07 0-1.58.95-1.58 2.07v3.02h-.55Z"/><path clip-path="url(#b)" d="M140.76 47.21h.55v5.5h-.55Zm0-2.61h.55v1.07h-.55Z"/><path clip-path="url(#b)" d="M143.23 48.6c0-.48 0-.95-.01-1.39h.54c.02.18.03.89.02 1.05.24-.56.69-1.18 1.83-1.18.98 0 1.85.55 1.85 2.07v3.56h-.55V49.23c0-.98-.41-1.62-1.36-1.62-1.31 0-1.76 1.09-1.76 2.29v2.81h-.55Z"/><path clip-path="url(#b)" d="M149.51 49.94c0 1.31.69 2.26 1.75 2.26 1.38 0 1.79-.91 1.79-2.34 0-1.45-.44-2.26-1.76-2.26-1.26 0-1.78 1.09-1.78 2.34m4.06 2.4c0 1.76-.78 2.68-2.38 2.68-1.43 0-2.02-.8-2.16-1.64h.56c.2.76.82 1.12 1.62 1.12 1.43 0 1.83-.92 1.83-2.32v-.57c-.3.72-.84 1.1-1.84 1.1-1.29 0-2.28-1.05-2.28-2.75 0-1.85 1.06-2.88 2.35-2.88 1.12 0 1.61.53 1.76.97.01-.32.02-.7.03-.84h.52c0 .2-.02 1.07-.02 1.6Z"/><path clip-path="url(#b)" d="M162.39 49.9h-1.08c-1.22 0-1.98.32-1.98 1.27 0 .69.5 1.17 1.27 1.17 1.57 0 1.79-1.05 1.79-2.23Zm.54 1.76c0 .48.04.87.08 1.04h-.53c-.04-.13-.08-.37-.1-.85-.19.41-.67.98-1.8.98-1.28 0-1.83-.83-1.83-1.65 0-1.21.94-1.76 2.59-1.76h1.05v-.56c0-.55-.16-1.29-1.42-1.29-1.11 0-1.28.58-1.4 1.03h-.55c.07-.6.44-1.54 1.96-1.54 1.25 0 1.96.53 1.96 1.74Z"/><path clip-path="url(#b)" d="M164.85 48.6c0-.48 0-.95-.01-1.39h.54c.02.18.03.89.02 1.05.24-.56.69-1.18 1.83-1.18.98 0 1.85.55 1.85 2.07v3.56h-.55V49.23c0-.98-.41-1.62-1.36-1.62-1.31 0-1.76 1.09-1.76 2.29v2.81h-.55Z"/><path clip-path="url(#b)" d="M171.13 50c0 1.51.78 2.32 1.73 2.32 1.45 0 1.85-1 1.85-2.5 0-1.42-.34-2.23-1.75-2.23-1.09 0-1.83.87-1.83 2.41m4.1-5.4v6.52c0 .53 0 1.03.01 1.58h-.53c-.02-.13-.03-.65-.03-.92-.28.67-.89 1.06-1.85 1.06-1.43 0-2.29-1.17-2.29-2.82 0-1.69.94-2.95 2.43-2.95 1.1 0 1.54.47 1.71.82V44.6Z"/><path clip-path="url(#b)" d="M180.83 48.7c0-.92-.01-1.32-.01-1.5h.54c.01.18.02.53.02 1.23.32-.82 1.02-1.32 1.91-1.36v.59c-1.14.08-1.91.87-1.91 2.18v2.86h-.55Z"/><path clip-path="url(#b)" d="M188.02 49.54c-.01-1.09-.61-1.95-1.68-1.95-1.13 0-1.65.79-1.77 1.95Zm-3.49.48c.01 1.42.72 2.3 1.78 2.3 1.03 0 1.39-.58 1.58-1.03h.56c-.23.73-.81 1.55-2.17 1.55-1.67 0-2.32-1.44-2.32-2.84 0-1.57.78-2.93 2.39-2.93 1.69 0 2.23 1.46 2.23 2.5 0 .15 0 .31-.01.45Z"/><path clip-path="url(#b)" d="M193.28 49.9H192.2c-1.22 0-1.98.32-1.98 1.27 0 .69.49 1.17 1.27 1.17 1.57 0 1.79-1.05 1.79-2.23Zm.54 1.76c0 .48.04.87.08 1.04h-.53c-.04-.13-.08-.37-.1-.85-.19.41-.67.98-1.8.98-1.28 0-1.83-.83-1.83-1.65 0-1.21.94-1.76 2.59-1.76h1.05v-.56c0-.55-.17-1.29-1.42-1.29-1.11 0-1.27.58-1.4 1.03h-.55c.07-.6.44-1.54 1.96-1.54 1.25 0 1.96.53 1.96 1.74Z"/><path clip-path="url(#b)" d="M195.74 52.71h.55V44.6h-.55Z" fill-rule="evenodd"/><path clip-path="url(#b)" d="M197.89 50.17h2.77v-.54h-2.77Z" fill-rule="evenodd"/><path clip-path="url(#b)" d="M201.4 47.21h1.02V45.49h.55v1.72h1.31v.52h-1.31V51.3c0 .62.13.97.66.97.17 0 .4-.01.57-.07v.48c-.19.08-.45.1-.68.1-.7 0-1.1-.35-1.1-1.23V47.73H201.4Z"/><path clip-path="url(#b)" d="M205.51 47.21h.55v5.5h-.55Zm0-2.61h.55v1.07h-.55Z"/><path clip-path="url(#b)" d="M207.97 48.63c0-.47 0-.99-.01-1.42h.54c.01.19.03.66.02.98.23-.55.74-1.11 1.65-1.11.77 0 1.38.38 1.6 1.09.27-.57.82-1.09 1.79-1.09.85 0 1.73.49 1.73 2.01v3.62h-.55V49.15c0-.74-.26-1.54-1.29-1.54-1.07 0-1.55.86-1.55 1.93v3.17h-.54V49.17c0-.8-.24-1.55-1.26-1.55-1.07 0-1.58.95-1.58 2.07v3.02h-.55Z"/><path clip-path="url(#b)" d="M220.81 49.54c-.01-1.09-.6-1.95-1.68-1.95-1.13 0-1.65.79-1.77 1.95Zm-3.49.48c.01 1.42.72 2.3 1.78 2.3 1.03 0 1.39-.58 1.58-1.03h.56c-.23.73-.81 1.55-2.17 1.55-1.67 0-2.32-1.44-2.32-2.84 0-1.57.78-2.93 2.39-2.93 1.69 0 2.23 1.46 2.23 2.5 0 .15 0 .31-.01.45Z"/><path clip-path="url(#b)" d="M229.75 49.9h-1.08c-1.22 0-1.98.32-1.98 1.27 0 .69.5 1.17 1.27 1.17 1.57 0 1.79-1.05 1.79-2.23Zm.54 1.76c0 .48.04.87.08 1.04h-.53c-.04-.13-.08-.37-.1-.85-.19.41-.67.98-1.8.98-1.28 0-1.83-.83-1.83-1.65 0-1.21.94-1.76 2.59-1.76h1.05v-.56c0-.55-.16-1.29-1.42-1.29-1.11 0-1.27.58-1.4 1.03h-.55c.07-.6.44-1.54 1.96-1.54 1.25 0 1.96.53 1.96 1.74Z"/><path clip-path="url(#b)" d="M232.21 48.6c0-.48 0-.95-.01-1.39h.54c.02.18.03.89.02 1.05.24-.56.69-1.18 1.83-1.18.98 0 1.85.55 1.85 2.07v3.56h-.55V49.23c0-.98-.41-1.62-1.36-1.62-1.31 0-1.76 1.09-1.76 2.29v2.81h-.55Z"/><path clip-path="url(#b)" d="M241.51 49.9h-1.08c-1.22 0-1.98.32-1.98 1.27 0 .69.5 1.17 1.27 1.17 1.57 0 1.79-1.05 1.79-2.23Zm.54 1.76c0 .48.04.87.08 1.04h-.53c-.04-.13-.08-.37-.1-.85-.19.41-.67.98-1.8.98-1.28 0-1.83-.83-1.83-1.65 0-1.21.94-1.76 2.59-1.76h1.05v-.56c0-.55-.17-1.29-1.42-1.29-1.11 0-1.28.58-1.4 1.03h-.55c.07-.6.44-1.54 1.96-1.54 1.25 0 1.96.53 1.96 1.74Z"/><path clip-path="url(#b)" d="M243.98 52.71h.55V44.6h-.55Z" fill-rule="evenodd"/><path clip-path="url(#b)" d="M246.41 47.21c1.11 3.15 1.6 4.44 1.78 5.04h.01c.22-.67.66-1.95 1.73-5.04h.57l-2.07 5.82c-.58 1.63-.98 1.99-1.97 1.99-.2 0-.33-.01-.51-.03v-.55c.16.02.32.03.49.03.79 0 1.05-.38 1.45-1.52l-2.1-5.74Z"/><path clip-path="url(#b)" d="M251.24 47.21h1.02V45.49h.55v1.72h1.31v.52h-1.31V51.3c0 .62.13.97.66.97.16 0 .4-.01.57-.07v.48c-.19.08-.45.1-.68.1-.7 0-1.1-.35-1.1-1.23V47.73h-1.02Z"/><path clip-path="url(#b)" d="M255.35 47.21h.55v5.5h-.55Zm0-2.61h.55v1.07h-.55Z"/><path clip-path="url(#b)" d="M261.86 51.09c-.27.97-.9 1.75-2.14 1.75-1.38 0-2.35-1.02-2.35-2.86 0-1.51.8-2.9 2.42-2.9 1.4 0 1.97.99 2.07 1.76h-.56c-.16-.64-.58-1.24-1.52-1.24-1.17 0-1.83.99-1.83 2.37 0 1.31.62 2.37 1.77 2.37.8 0 1.29-.41 1.57-1.23Z"/><path clip-path="url(#b)" d="M263.4 51.19c.19.72.69 1.15 1.56 1.15.98 0 1.38-.45 1.38-1.07 0-.63-.27-.93-1.5-1.23-1.42-.34-1.77-.77-1.77-1.5 0-.76.57-1.46 1.82-1.46s1.84.76 1.92 1.54h-.55c-.1-.46-.46-1.03-1.4-1.03-.96 0-1.23.47-1.23.91 0 .51.26.76 1.35 1.02 1.55.37 1.94.88 1.94 1.71 0 1-.82 1.62-1.97 1.62-1.25 0-1.96-.66-2.11-1.65Z"/><path clip-path="url(#b)" d="M268.02 50.17h8.1v-.54h-8.1Z" fill-rule="evenodd"/><path clip-path="url(#b)" d="M276.86 47.21h1.02V45.49h.55v1.72h1.31v.52h-1.31V51.3c0 .62.13.97.66.97.17 0 .4-.01.57-.07v.48c-.19.08-.45.1-.68.1-.7 0-1.1-.35-1.1-1.23V47.73h-1.02Z"/><path clip-path="url(#b)" d="M281.05 49.96c0 1.31.7 2.37 1.87 2.37 1.19 0 1.86-.98 1.86-2.37 0-1.3-.66-2.37-1.88-2.37-1.25 0-1.85 1.05-1.85 2.37m4.31-.01c0 1.53-.85 2.89-2.49 2.89-1.48 0-2.41-1.22-2.41-2.88 0-1.57.87-2.88 2.46-2.88 1.46 0 2.43 1.14 2.43 2.87"/><path clip-path="url(#b)" d="M290.51 48.63c0-.47 0-.99-.01-1.42h.54c.01.19.03.66.02.98.23-.55.74-1.11 1.65-1.11.77 0 1.38.38 1.59 1.09.28-.57.83-1.09 1.79-1.09.85 0 1.73.49 1.73 2.01v3.62h-.55V49.15c0-.74-.26-1.54-1.29-1.54-1.07 0-1.55.86-1.55 1.93v3.17h-.54V49.17c0-.8-.24-1.55-1.25-1.55-1.07 0-1.58.95-1.58 2.07v3.02h-.55Z"/><path clip-path="url(#b)" d="M299.88 49.96c0 1.31.7 2.37 1.87 2.37 1.19 0 1.86-.98 1.86-2.37 0-1.3-.66-2.37-1.88-2.37-1.25 0-1.85 1.05-1.85 2.37m4.31-.01c0 1.53-.85 2.89-2.49 2.89-1.48 0-2.41-1.22-2.41-2.88 0-1.57.87-2.88 2.47-2.88 1.46 0 2.43 1.14 2.43 2.87"/><path clip-path="url(#b)" d="M305.67 48.6c0-.48 0-.95-.01-1.39h.54c.02.18.03.89.02 1.05.24-.56.69-1.18 1.83-1.18.98 0 1.85.55 1.85 2.07v3.56h-.55V49.23c0-.98-.41-1.62-1.36-1.62-1.31 0-1.76 1.09-1.76 2.29v2.81h-.55Z"/><path clip-path="url(#b)" d="M311.81 47.21h.55v5.5h-.55Zm0-2.61h.55v1.07h-.55Z"/><path clip-path="url(#b)" d="M313.52 47.21h1.02V45.49h.55v1.72h1.31v.52h-1.31V51.3c0 .62.13.97.66.97.16 0 .4-.01.57-.07v.48c-.19.08-.45.1-.68.1-.7 0-1.1-.35-1.1-1.23V47.73h-1.02Z"/><path clip-path="url(#b)" d="M317.71 49.96c0 1.31.7 2.37 1.87 2.37 1.19 0 1.86-.98 1.86-2.37 0-1.3-.66-2.37-1.88-2.37-1.25 0-1.85 1.05-1.85 2.37m4.31-.01c0 1.53-.85 2.89-2.49 2.89-1.48 0-2.41-1.22-2.41-2.88 0-1.57.87-2.88 2.46-2.88 1.46 0 2.43 1.14 2.43 2.87"/><path clip-path="url(#b)" d="M323.5 48.7c0-.92-.01-1.32-.01-1.5h.54c.01.18.02.53.02 1.23.32-.82 1.02-1.32 1.91-1.36v.59c-1.14.08-1.91.87-1.91 2.18v2.86h-.55Z"/><path clip-path="url(#b)" d="M325.83 53.96c.54-1.07.74-2.05.77-2.66h.55c-.08.91-.43 2-.82 2.66Z"/><path clip-path="url(#b)" d="M335.96 49.54c-.01-1.09-.61-1.95-1.68-1.95-1.13 0-1.65.79-1.77 1.95Zm-3.49.48c.01 1.42.72 2.3 1.78 2.3 1.03 0 1.39-.58 1.58-1.03h.56c-.23.73-.81 1.55-2.17 1.55-1.67 0-2.32-1.44-2.32-2.84 0-1.57.78-2.93 2.39-2.93 1.69 0 2.23 1.46 2.23 2.5 0 .15 0 .31-.01.45Z"/><path clip-path="url(#b)" d="M337.99 48.6c0-.48 0-.95-.01-1.39h.54c.02.18.03.89.02 1.05.24-.56.69-1.18 1.83-1.18.98 0 1.85.55 1.85 2.07v3.56h-.55V49.23c0-.98-.41-1.62-1.36-1.62-1.31 0-1.76 1.09-1.76 2.29v2.81h-.55Z"/><path clip-path="url(#b)" d="M344.67 44.6v3.53c.31-.57.85-1.06 1.82-1.06.78 0 1.86.4 1.86 2.13v3.5h-.55V49.32c0-1.09-.49-1.71-1.41-1.71-1.09 0-1.72.67-1.72 2.02v3.07h-.55V44.6Z"/><path clip-path="url(#b)" d="M353.43 49.9h-1.08c-1.22 0-1.98.32-1.98 1.27 0 .69.5 1.17 1.27 1.17 1.57 0 1.79-1.05 1.79-2.23Zm.54 1.76c0 .48.04.87.08 1.04h-.53c-.04-.13-.08-.37-.1-.85-.19.41-.67.98-1.8.98-1.28 0-1.83-.83-1.83-1.65 0-1.21.94-1.76 2.59-1.76h1.05v-.56c0-.55-.17-1.29-1.42-1.29-1.11 0-1.27.58-1.4 1.03h-.55c.07-.6.44-1.54 1.96-1.54 1.25 0 1.96.53 1.96 1.74Z"/><path clip-path="url(#b)" d="M355.89 48.6c0-.48 0-.95-.01-1.39h.54c.02.18.03.89.02 1.05.24-.56.69-1.18 1.83-1.18.98 0 1.85.55 1.85 2.07v3.56h-.55V49.23c0-.98-.41-1.62-1.36-1.62-1.31 0-1.76 1.09-1.76 2.29v2.81h-.55Z"/><path clip-path="url(#b)" d="M366.08 51.09c-.27.97-.9 1.75-2.14 1.75-1.38 0-2.35-1.02-2.35-2.86 0-1.51.8-2.9 2.42-2.9 1.4 0 1.97.99 2.07 1.76h-.56c-.16-.64-.58-1.24-1.52-1.24-1.17 0-1.83.99-1.83 2.37 0 1.31.62 2.37 1.77 2.37.8 0 1.29-.41 1.57-1.23Z"/><path clip-path="url(#b)" d="M371.13 49.54c-.01-1.09-.61-1.95-1.68-1.95-1.13 0-1.65.79-1.77 1.95Zm-3.49.48c.01 1.42.72 2.3 1.78 2.3 1.03 0 1.39-.58 1.58-1.03h.56c-.23.73-.81 1.55-2.17 1.55-1.67 0-2.32-1.44-2.32-2.84 0-1.57.78-2.93 2.39-2.93 1.69 0 2.23 1.46 2.23 2.5 0 .15 0 .31-.01.45Z"/><path clip-path="url(#b)" d="M372.49 53.96c.54-1.07.74-2.05.77-2.66h.55c-.08.91-.43 2-.83 2.66Z"/><path clip-path="url(#b)" d="M382.25 49.9h-1.08c-1.22 0-1.98.32-1.98 1.27 0 .69.5 1.17 1.27 1.17 1.57 0 1.79-1.05 1.79-2.23Zm.54 1.76c0 .48.04.87.08 1.04h-.53c-.04-.13-.08-.37-.1-.85-.19.41-.67.98-1.8.98-1.28 0-1.83-.83-1.83-1.65 0-1.21.94-1.76 2.59-1.76h1.05v-.56c0-.55-.16-1.29-1.42-1.29-1.11 0-1.28.58-1.4 1.03h-.55c.07-.6.44-1.54 1.96-1.54 1.25 0 1.96.53 1.96 1.74Z"/><path clip-path="url(#b)" d="M384.72 48.6c0-.48 0-.95-.01-1.39h.54c.02.18.03.89.02 1.05.24-.56.69-1.18 1.83-1.18.98 0 1.85.55 1.85 2.07v3.56h-.55V49.23c0-.98-.41-1.62-1.36-1.62-1.31 0-1.76 1.09-1.76 2.29v2.81h-.55Z"/><path clip-path="url(#b)" d="M391 50c0 1.51.78 2.32 1.73 2.32 1.45 0 1.85-1 1.85-2.5 0-1.42-.34-2.23-1.75-2.23-1.09 0-1.83.87-1.83 2.41m4.1-5.4v6.52c0 .53 0 1.03.01 1.58h-.53c-.02-.13-.03-.65-.03-.92-.28.67-.89 1.06-1.85 1.06-1.43 0-2.29-1.17-2.29-2.82 0-1.69.93-2.95 2.43-2.95 1.1 0 1.54.47 1.71.82V44.6Z"/><path clip-path="url(#b)" d="M400.83 49.96c0 1.31.7 2.37 1.87 2.37 1.19 0 1.86-.98 1.86-2.37 0-1.3-.66-2.37-1.88-2.37-1.25 0-1.85 1.05-1.85 2.37m4.31-.01c0 1.53-.85 2.89-2.49 2.89-1.48 0-2.41-1.22-2.41-2.88 0-1.57.87-2.88 2.46-2.88 1.46 0 2.43 1.14 2.43 2.87"/><path clip-path="url(#b)" d="M410.72 49.84c0-1.28-.62-2.23-1.71-2.23-1.33 0-1.88.84-1.88 2.33 0 1.47.43 2.39 1.8 2.39 1.14 0 1.78-.97 1.78-2.49m-3.55 2.06v3.01h-.55V48.56c0-.45 0-.94-.01-1.35h.54c.02.21.02.54.02.99.34-.66.95-1.12 1.94-1.12 1.3 0 2.2 1.09 2.2 2.74 0 1.98-1.06 3.03-2.39 3.03-.97 0-1.47-.43-1.75-.95"/><path clip-path="url(#b)" d="M411.96 47.21h1.02V45.49h.55v1.72h1.31v.52h-1.31V51.3c0 .62.13.97.66.97.16 0 .4-.01.57-.07v.48c-.19.08-.45.1-.68.1-.7 0-1.1-.35-1.1-1.23V47.73h-1.02Z"/><path clip-path="url(#b)" d="M416.08 47.21h.55v5.5h-.55Zm0-2.61h.55v1.07h-.55Z"/><path clip-path="url(#b)" d="M418.54 48.63c0-.47 0-.99-.01-1.42h.54c.01.19.03.66.02.98.23-.55.74-1.11 1.65-1.11.77 0 1.38.38 1.59 1.09.28-.57.83-1.09 1.79-1.09.85 0 1.73.49 1.73 2.01v3.62h-.55V49.15c0-.74-.26-1.54-1.29-1.54-1.07 0-1.55.86-1.55 1.93v3.17h-.54V49.17c0-.8-.24-1.55-1.26-1.55-1.07 0-1.58.95-1.58 2.07v3.02h-.55Z"/><path clip-path="url(#b)" d="M427.77 47.21h.55v5.5h-.55Zm0-2.61h.55v1.07h-.55Z"/><path clip-path="url(#b)" d="M429.66 52.2l3.48-4.48h-3.3v-.52h3.94v.53l-3.43 4.46h3.55l-.13.52h-4.1Z"/><path clip-path="url(#b)" d="M438.72 49.54c-.01-1.09-.6-1.95-1.68-1.95-1.13 0-1.65.79-1.77 1.95Zm-3.49.48c.01 1.42.73 2.3 1.78 2.3 1.03 0 1.39-.58 1.58-1.03h.56c-.23.73-.81 1.55-2.17 1.55-1.67 0-2.32-1.44-2.32-2.84 0-1.57.78-2.93 2.39-2.93 1.69 0 2.23 1.46 2.23 2.5 0 .15 0 .31-.01.45Z"/><path clip-path="url(#b)" d="M448.02 49.54c-.01-1.09-.6-1.95-1.68-1.95-1.13 0-1.65.79-1.77 1.95Zm-3.49.48c.01 1.42.72 2.3 1.78 2.3 1.03 0 1.39-.58 1.58-1.03h.56c-.23.73-.81 1.55-2.17 1.55-1.67 0-2.32-1.44-2.32-2.84 0-1.57.78-2.93 2.39-2.93 1.69 0 2.23 1.46 2.23 2.5 0 .15 0 .31-.01.45Z"/><path clip-path="url(#b)" d="M450.07 47.21c.89 2.52 1.51 4.24 1.72 4.94h.01c.12-.41.74-2.04 1.8-4.94h.58l-2.08 5.5h-.66l-1.96-5.5Z"/><path clip-path="url(#b)" d="M458.98 49.54c-.01-1.09-.61-1.95-1.68-1.95-1.13 0-1.65.79-1.77 1.95Zm-3.49.48c.01 1.42.72 2.3 1.78 2.3 1.03 0 1.39-.58 1.58-1.03h.56c-.23.73-.81 1.55-2.17 1.55-1.67 0-2.32-1.44-2.32-2.84 0-1.57.78-2.93 2.39-2.93 1.69 0 2.23 1.46 2.23 2.5 0 .15 0 .31-.01.45Z"/><path clip-path="url(#b)" d="M461 48.7c0-.92-.01-1.32-.01-1.5h.54c.01.18.02.53.02 1.23.32-.82 1.02-1.32 1.91-1.36v.59c-1.14.08-1.91.87-1.91 2.18v2.86H461Z"/><path clip-path="url(#b)" d="M464.87 47.21c1.11 3.15 1.6 4.44 1.78 5.04h.01c.22-.67.66-1.95 1.73-5.04h.57l-2.07 5.82c-.58 1.63-.98 1.99-1.97 1.99-.2 0-.33-.01-.51-.03v-.55c.16.02.32.03.49.03.79 0 1.05-.38 1.45-1.52l-2.1-5.74Z"/><path clip-path="url(#b)" d="M5 60.41H6.02V58.69h.55v1.72H7.88v.52H6.57V64.5c0 .62.13.97.66.97.17 0 .4-.01.57-.07v.48c-.19.08-.45.1-.68.1-.7 0-1.1-.35-1.1-1.23V60.93H5Z"/><path clip-path="url(#b)" d="M9.19 63.16c0 1.31.7 2.36 1.87 2.36 1.19 0 1.86-.98 1.86-2.36 0-1.3-.66-2.37-1.88-2.37-1.25 0-1.85 1.05-1.85 2.37m4.31-.01c0 1.53-.85 2.89-2.49 2.89-1.49 0-2.41-1.22-2.41-2.88 0-1.57.87-2.88 2.46-2.88 1.46 0 2.43 1.15 2.43 2.87"/><path clip-path="url(#b)" d="M19.09 64.3c0 .54.01 1.4.01 1.61h-.53c-.02-.14-.03-.51-.03-.96-.23.65-.79 1.09-1.77 1.09-.79 0-1.8-.31-1.8-1.99V60.41h.54v3.51c0 .8.25 1.58 1.34 1.58 1.23 0 1.69-.69 1.69-2.27V60.41h.55Z"/><path clip-path="url(#b)" d="M25.05 64.29c-.26.97-.9 1.75-2.13 1.75-1.38 0-2.35-1.02-2.35-2.86 0-1.51.8-2.9 2.42-2.9 1.4 0 1.97.99 2.07 1.76h-.56c-.17-.64-.58-1.24-1.52-1.24-1.17 0-1.83.99-1.83 2.37 0 1.31.62 2.36 1.77 2.36.8 0 1.29-.41 1.57-1.23Z"/><path clip-path="url(#b)" d="M26.99 57.8v3.53c.31-.57.85-1.06 1.82-1.06.78 0 1.86.4 1.86 2.13v3.5h-.55V62.52c0-1.09-.49-1.71-1.41-1.71-1.09 0-1.72.67-1.72 2.02v3.07h-.55V57.8Z"/><path clip-path="url(#b)" d="M36.68 63.04c0-1.28-.62-2.23-1.71-2.23-1.33 0-1.88.84-1.88 2.33 0 1.47.43 2.39 1.8 2.39 1.14 0 1.78-.97 1.78-2.49m-3.55 2.06v3.01h-.55V61.76c0-.45 0-.94-.01-1.35h.54c.02.21.02.54.02.99.34-.66.95-1.12 1.94-1.12 1.3 0 2.2 1.09 2.2 2.74 0 1.98-1.06 3.02-2.39 3.02-.97 0-1.47-.43-1.75-.95"/><path clip-path="url(#b)" d="M38.96 63.16c0 1.31.7 2.36 1.87 2.36 1.19 0 1.86-.98 1.86-2.36 0-1.3-.66-2.37-1.88-2.37-1.25 0-1.85 1.05-1.85 2.37m4.31-.01c0 1.53-.85 2.89-2.49 2.89-1.49 0-2.41-1.22-2.41-2.88 0-1.57.87-2.88 2.46-2.88 1.46 0 2.43 1.15 2.43 2.87"/><path clip-path="url(#b)" d="M44.79 60.41h.55v5.5h-.55Zm0-2.61h.55v1.07h-.55Z"/><path clip-path="url(#b)" d="M47.25 61.79c0-.48 0-.95-.01-1.39h.54c.02.18.03.89.02 1.04.24-.56.69-1.18 1.83-1.18.98 0 1.85.55 1.85 2.07v3.56h-.55V62.43c0-.98-.41-1.62-1.36-1.62-1.31 0-1.76 1.09-1.76 2.29v2.81h-.55Z"/><path clip-path="url(#b)" d="M52.53 60.41h1.02V58.69h.55v1.72h1.31v.52H54.1V64.5c0 .62.13.97.66.97.17 0 .4-.01.57-.07v.48c-.19.08-.45.1-.68.1-.7 0-1.1-.35-1.1-1.23V60.93H52.53Z"/><path clip-path="url(#b)" d="M59.76 63.16c0 1.31.7 2.36 1.87 2.36 1.19 0 1.86-.98 1.86-2.36 0-1.3-.66-2.37-1.88-2.37-1.25 0-1.85 1.05-1.85 2.37m4.31-.01c0 1.53-.85 2.89-2.49 2.89-1.48 0-2.41-1.22-2.41-2.88 0-1.57.87-2.88 2.46-2.88 1.46 0 2.43 1.15 2.43 2.87"/><path clip-path="url(#b)" d="M65.77 65.91V60.93h-.95v-.52h.95v-.78c0-.92.26-1.94 1.5-1.94.16 0 .41.03.54.08v.53c-.17-.04-.43-.07-.59-.07-.65 0-.89.46-.89 1.42v.76h1.2v.52h-1.2v4.98Z"/><path clip-path="url(#b)" d="M71.33 60.41c1.11 3.15 1.6 4.44 1.78 5.04h.01c.22-.67.66-1.95 1.73-5.04h.57l-2.07 5.82c-.58 1.63-.98 1.99-1.97 1.99-.2 0-.33-.01-.51-.03v-.55c.16.02.32.03.49.03.79 0 1.05-.38 1.45-1.52l-2.1-5.74Z"/><path clip-path="url(#b)" d="M76.79 63.16c0 1.31.7 2.36 1.87 2.36 1.19 0 1.86-.98 1.86-2.36 0-1.3-.66-2.37-1.88-2.37-1.25 0-1.85 1.05-1.85 2.37m4.31-.01c0 1.53-.85 2.89-2.49 2.89-1.48 0-2.41-1.22-2.41-2.88 0-1.57.87-2.88 2.46-2.88 1.46 0 2.43 1.15 2.43 2.87"/><path clip-path="url(#b)" d="M86.69 64.3c0 .54.01 1.4.01 1.61h-.53c-.02-.14-.03-.51-.03-.96-.23.65-.79 1.09-1.77 1.09-.79 0-1.8-.31-1.8-1.99V60.41h.54v3.51c0 .8.25 1.58 1.34 1.58 1.23 0 1.69-.69 1.69-2.27V60.41h.55Z"/><path clip-path="url(#b)" d="M88.6 61.9c0-.92-.01-1.32-.01-1.5h.54c.01.18.02.53.02 1.23.32-.82 1.02-1.32 1.91-1.36v.59c-1.14.08-1.91.87-1.91 2.18v2.86H88.6Z"/><path clip-path="url(#b)" d="M98.85 62.74c-.01-1.09-.61-1.95-1.68-1.95-1.13 0-1.65.79-1.77 1.95Zm-3.49.48c.01 1.42.72 2.3 1.78 2.3 1.03 0 1.39-.58 1.58-1.03h.56c-.23.73-.81 1.55-2.17 1.55-1.67 0-2.32-1.44-2.32-2.84 0-1.57.78-2.93 2.39-2.93 1.69 0 2.23 1.46 2.23 2.5 0 .15 0 .31-.01.45Z"/><path clip-path="url(#b)" d="M100.9 60.41c.89 2.52 1.51 4.24 1.72 4.94h.01c.12-.41.74-2.04 1.8-4.94h.58l-2.08 5.5h-.66l-1.96-5.5Z"/><path clip-path="url(#b)" d="M109.81 62.74c-.01-1.09-.61-1.95-1.68-1.95-1.13 0-1.65.79-1.77 1.95Zm-3.49.48c.01 1.42.73 2.3 1.78 2.3 1.03 0 1.39-.58 1.58-1.03h.56c-.23.73-.81 1.55-2.17 1.55-1.67 0-2.32-1.44-2.32-2.84 0-1.57.78-2.93 2.39-2.93 1.69 0 2.23 1.46 2.23 2.5 0 .15 0 .31-.01.45Z"/><path clip-path="url(#b)" d="M111.83 61.79c0-.48 0-.95-.01-1.39h.54c.02.18.03.89.02 1.04.24-.56.69-1.18 1.83-1.18.98 0 1.85.55 1.85 2.07v3.56h-.55V62.43c0-.98-.41-1.62-1.36-1.62-1.31 0-1.76 1.09-1.76 2.29v2.81h-.55Z"/><path clip-path="url(#b)" d="M117.11 60.41h1.02V58.69h.55v1.72H120v.52h-1.31V64.5c0 .62.13.97.66.97.16 0 .4-.01.57-.07v.48c-.19.08-.45.1-.68.1-.7 0-1.1-.35-1.1-1.23V60.93h-1.02Z"/><path clip-path="url(#b)" d="M127.81 62.74c-.01-1.09-.61-1.95-1.68-1.95-1.13 0-1.65.79-1.77 1.95Zm-3.49.48c.01 1.42.72 2.3 1.78 2.3 1.03 0 1.39-.58 1.58-1.03h.56c-.23.73-.81 1.55-2.17 1.55-1.67 0-2.32-1.44-2.32-2.84 0-1.57.78-2.93 2.39-2.93 1.69 0 2.23 1.46 2.23 2.5 0 .15 0 .31-.01.45Z"/><path clip-path="url(#b)" d="M129.8 60.41c.91 1.35 1.31 1.96 1.53 2.29h.01c.26-.37.81-1.17 1.6-2.29h.63l-1.92 2.66 1.95 2.84h-.66c-.79-1.18-1.36-2.01-1.63-2.4h-.01c-.21.32-.7 1.07-1.61 2.4h-.64l1.95-2.79-1.86-2.71Z"/><path clip-path="url(#b)" d="M138.78 63.04c0-1.28-.62-2.23-1.7-2.23-1.33 0-1.88.84-1.88 2.33 0 1.47.43 2.39 1.8 2.39 1.14 0 1.78-.97 1.78-2.49m-3.55 2.06v3.01h-.55V61.76c0-.45 0-.94-.01-1.35h.54c.02.21.02.54.02.99.34-.66.95-1.12 1.94-1.12 1.3 0 2.2 1.09 2.2 2.74 0 1.98-1.06 3.02-2.39 3.02-.97 0-1.47-.43-1.75-.95"/><path clip-path="url(#b)" d="M144.53 62.74c-.01-1.09-.61-1.95-1.68-1.95-1.13 0-1.65.79-1.77 1.95Zm-3.49.48c.01 1.42.73 2.3 1.78 2.3 1.03 0 1.39-.58 1.58-1.03h.56c-.23.73-.81 1.55-2.17 1.55-1.67 0-2.32-1.44-2.32-2.84 0-1.57.78-2.93 2.39-2.93 1.69 0 2.23 1.46 2.23 2.5 0 .15 0 .31-.01.45Z"/><path clip-path="url(#b)" d="M146.55 61.9c0-.92-.01-1.32-.01-1.5h.54c.01.18.02.53.02 1.23.32-.82 1.02-1.32 1.91-1.36v.59c-1.14.08-1.91.87-1.91 2.18v2.86h-.55Z"/><path clip-path="url(#b)" d="M150.13 60.41h.55v5.5h-.55Zm0-2.61h.55v1.07h-.55Z"/><path clip-path="url(#b)" d="M156.21 62.74c-.01-1.09-.6-1.95-1.68-1.95-1.13 0-1.65.79-1.77 1.95Zm-3.49.48c.01 1.42.73 2.3 1.78 2.3 1.03 0 1.39-.58 1.58-1.03h.56c-.23.73-.81 1.55-2.17 1.55-1.67 0-2.32-1.44-2.32-2.84 0-1.57.78-2.93 2.39-2.93 1.69 0 2.23 1.46 2.23 2.5 0 .15 0 .31-.01.45Z"/><path clip-path="url(#b)" d="M158.23 61.79c0-.48 0-.95-.01-1.39h.54c.02.18.03.89.02 1.04.24-.56.69-1.18 1.83-1.18.98 0 1.85.55 1.85 2.07v3.56h-.55V62.43c0-.98-.41-1.62-1.36-1.62-1.31 0-1.76 1.09-1.76 2.29v2.81h-.55Z"/><path clip-path="url(#b)" d="M168.42 64.29c-.27.97-.9 1.75-2.14 1.75-1.38 0-2.35-1.02-2.35-2.86 0-1.51.8-2.9 2.42-2.9 1.4 0 1.97.99 2.07 1.76h-.56c-.16-.64-.58-1.24-1.52-1.24-1.17 0-1.83.99-1.83 2.37 0 1.31.62 2.36 1.77 2.36.8 0 1.29-.41 1.57-1.23Z"/><path clip-path="url(#b)" d="M173.47 62.74c-.01-1.09-.61-1.95-1.68-1.95-1.13 0-1.65.79-1.77 1.95Zm-3.49.48c.01 1.42.72 2.3 1.78 2.3 1.03 0 1.39-.58 1.58-1.03h.56c-.23.73-.81 1.55-2.17 1.55-1.67 0-2.32-1.44-2.32-2.84 0-1.57.78-2.93 2.39-2.93 1.69 0 2.23 1.46 2.23 2.5 0 .15 0 .31-.01.45Z"/><path clip-path="url(#b)" d="M175.25 65.91h.55V64.49h-.55Z" fill-rule="evenodd"/></g></g></svg>