<?xml version="1.0" encoding="UTF-8"?><!DOCTYPE svg PUBLIC "-//W3C//DTD SVG 1.0//EN" "http://www.w3.org/TR/2001/REC-SVG-20010904/DTD/svg10.dtd" []><svg xmlns="http://www.w3.org/2000/svg" xmlns:xlink="http://www.w3.org/1999/xlink" height="21" stroke="#000" stroke-linecap="square" stroke-miterlimit="10" viewBox="0 0 111.74 21.4" width="112"><defs><clipPath id="a"><path d="M0 0V21.4H111.74V0Z"/></clipPath><clipPath clip-path="url(#a)" id="b"><path d="M-391.04 395.72H569.08v-540H-391.04Z"/></clipPath></defs><g><g fill="#fff" stroke="none" stroke-linecap="butt"><path clip-path="url(#b)" d="M11.73 11.69c-.88-2.53-1.41-4.04-1.66-4.99h-.02c-.27 1.04-.86 2.82-1.56 4.99ZM8.02 13.41l-.98 2.82H5L8.82 5.16h2.6L15.4 16.23H13.21L12.2 13.41Z"/><path clip-path="url(#b)" d="M18.55 13.04c.27 1.19 1.1 1.75 2.5 1.75 1.43 0 2.03-.61 2.03-1.5 0-.97-.54-1.44-2.54-1.92-2.88-.68-3.67-1.71-3.67-3.22C16.85 6.32 18.22 5 20.79 5c2.83 0 3.98 1.56 4.13 3.12h-2.1c-.14-.79-.6-1.55-2.09-1.55-1.1 0-1.74.47-1.74 1.35 0 .86.52 1.21 2.36 1.64 3.2.76 3.85 1.97 3.85 3.48 0 1.94-1.46 3.33-4.31 3.33-2.8 0-4.18-1.43-4.44-3.34Z"/><path clip-path="url(#b)" d="M27.26 16.23h2.08V5.16H27.26Z" fill-rule="evenodd"/><path clip-path="url(#b)" d="M37.82 11.69c-.88-2.53-1.41-4.04-1.66-4.99h-.02c-.27 1.04-.86 2.82-1.56 4.99Zm-3.7 1.72l-.98 2.82H31.1L34.92 5.16h2.6L41.5 16.23H39.31l-1.02-2.82Z"/><path clip-path="url(#b)" d="M49.38 9.97h2.15c1.44 0 2.03-.55 2.03-1.58 0-.99-.65-1.55-1.93-1.55H49.38Zm0 1.67v4.58H47.34V5.16h4.68c2.37 0 3.64 1.3 3.64 3.01 0 1.47-.81 2.3-1.7 2.61.67.22 1.48.82 1.48 2.78v.52c0 .75-.01 1.64.15 2.14H53.61c-.2-.48-.22-1.32-.22-2.45v-.19c0-1.33-.35-1.95-2.21-1.95Z"/><path clip-path="url(#b)" d="M65.45 11.32H60.08v3.19h5.91l-.25 1.72H58.06V5.16h7.63V6.88H60.08V9.6h5.37Z"/><path clip-path="url(#b)" d="M77.5 16.23H75.96c-.09-.3-.14-.71-.17-1.23-.57.81-1.6 1.4-3.3 1.4-3.21 0-4.97-2.43-4.97-5.58C67.52 7.5 69.41 5 72.85 5c2.75 0 4.41 1.53 4.7 3.45H75.47c-.28-.91-.97-1.8-2.65-1.8-2.37 0-3.15 1.95-3.15 4.08 0 2.03.84 4 3.14 4 2.2 0 2.65-1.5 2.65-2.79v-.11H72.8V10.11h4.7Z"/><path clip-path="url(#b)" d="M80.17 16.23h2.08V5.16H80.17Z" fill-rule="evenodd"/><path clip-path="url(#b)" d="M86.71 10.65c0 2.24 1.04 4.03 3.15 4.03 2.28 0 3.13-1.9 3.13-4.01 0-2.19-.96-3.97-3.15-3.97-2.17 0-3.12 1.71-3.12 3.94m8.43 0c0 3.07-1.8 5.74-5.36 5.74-3.4 0-5.22-2.52-5.22-5.69 0-3.2 1.96-5.7 5.36-5.7 3.2 0 5.21 2.29 5.21 5.65"/><path clip-path="url(#b)" d="M97.45 16.23V5.16h2.62c1.45 2.52 4.32 7.35 4.86 8.56h.03c-.12-1.25-.11-3.11-.11-4.92V5.16h1.9V16.23h-2.48c-1.28-2.24-4.38-7.66-4.98-8.93h-.03c.08 1.07.1 3.21.1 5.19v3.73Z"/></g></g></svg>