<?xml version="1.0" encoding="UTF-8"?><!DOCTYPE svg PUBLIC "-//W3C//DTD SVG 1.0//EN" "http://www.w3.org/TR/2001/REC-SVG-20010904/DTD/svg10.dtd" []><svg xmlns="http://www.w3.org/2000/svg" xmlns:xlink="http://www.w3.org/1999/xlink" height="100" stroke="#000" stroke-linecap="square" stroke-miterlimit="10" viewBox="0 0 125.34 99.61" width="125"><defs><clipPath id="a"><path d="M0 0V99.61H125.34V0Z"/></clipPath><clipPath clip-path="url(#a)" id="b"><path d="M-349.9 319.37H610.22V-220.75H-349.9Z"/></clipPath><clipPath clip-path="url(#b)" id="c"><path d="M-349.9 319.31H610.11v-540H-349.9Z"/></clipPath></defs><g><g fill="#FB03A0" stroke="#FB03A0" stroke-linecap="butt"><path clip-path="url(#c)" d="M5.5 94.11H119.84V5.5H5.5Z" fill="none"/><path clip-path="url(#c)" d="M15.91 49.76h1.5l-1.29 6.31h3.53l-.42 1.27H14.35Z" stroke="none"/><path clip-path="url(#c)" d="M22.04 49.31h1.45l-.29 1.41H21.75Zm-.48 2.34h1.45l-1.17 5.7H20.4Z" stroke="none"/><path clip-path="url(#c)" d="M25.09 54.96c0 .7.29 1.11.9 1.11.77 0 1.24-.67 1.46-1.71.16-.77.12-1.61-.86-1.61-1 0-1.5 1.2-1.5 2.22m3.28 1.56c-.38 1.84-.87 3.12-3.02 3.12-2.07 0-2.25-1.14-2.26-1.81h1.47c.02.34.24.69.9.69.84 0 1.16-.53 1.42-1.74l.04-.17c-.36.47-.83.68-1.54.68-1.19 0-1.83-.9-1.83-2.21 0-1.68 1.05-3.53 2.8-3.53.85 0 1.31.32 1.46.68.05-.17.14-.45.19-.57H29.4c-.1.42-.21.94-.31 1.42Z" stroke="none"/><path clip-path="url(#c)" d="M32.79 49.31l-.62 3.06c.33-.42.81-.83 1.66-.83.97 0 1.71.56 1.39 2.16l-.74 3.64H33.03l.69-3.43c.15-.74.01-1.12-.63-1.12-.72 0-1.13.55-1.29 1.33l-.66 3.22H29.7l1.64-8.03Z" stroke="none"/><path clip-path="url(#c)" d="M36.44 51.65h.82l.32-1.54h1.44l-.31 1.54h1.04l-.25 1.14H38.46l-.58 2.87c-.07.35-.04.59.39.59.17 0 .31-.01.47-.03l-.22 1.08c-.32.11-.68.11-.98.11-1.15 0-1.33-.68-1.13-1.68l.59-2.93h-.82Z" stroke="none"/><path clip-path="url(#c)" d="M41.28 49.31h1.45l-.29 1.41H40.99Zm-.48 2.34h1.45l-1.17 5.7H39.63Z" stroke="none"/><path clip-path="url(#c)" d="M43.43 53.1c.1-.48.2-.96.27-1.44h1.42c-.01.16-.07.57-.11.71.26-.35.74-.83 1.66-.83 1.08 0 1.71.68 1.36 2.36l-.7 3.44H45.9l.7-3.46c.14-.64 0-1.1-.62-1.1-.71 0-1.15.55-1.37 1.61l-.6 2.95H42.56Z" stroke="none"/><path clip-path="url(#c)" d="M50.58 54.96c0 .7.29 1.11.9 1.11.77 0 1.24-.67 1.46-1.71.16-.77.12-1.61-.86-1.61-1 0-1.5 1.2-1.5 2.22m3.28 1.56c-.38 1.84-.87 3.12-3.02 3.12-2.07 0-2.25-1.14-2.26-1.81h1.47c.02.34.24.69.9.69.84 0 1.16-.53 1.42-1.74l.04-.17c-.36.47-.83.68-1.54.68-1.19 0-1.83-.9-1.83-2.21 0-1.68 1.05-3.53 2.8-3.53.85 0 1.31.32 1.46.68.05-.17.14-.45.19-.57h1.39c-.1.42-.21.94-.31 1.42Z" stroke="none"/><path clip-path="url(#c)" d="M54.63 58.52c.74-1.1 1.19-2.43 1.35-3.11h1.49c-.27 1.14-.93 2.4-1.6 3.11Z" stroke="none"/><path clip-path="url(#c)" d="M62.41 55.01c.06.76.53 1.25 1.46 1.25.8 0 1.25-.3 1.25-.99 0-.59-.36-.9-1.33-1.25-1.49-.53-2.05-1.15-2.05-2.1 0-1.22.84-2.27 2.7-2.27 1.7 0 2.63.91 2.66 2.24H65.57c-.03-.46-.23-1.03-1.2-1.03-.62 0-1.09.29-1.09.88 0 .42.23.69 1.18 1.03 1.49.54 2.23 1.15 2.23 2.3 0 1.21-.71 2.38-2.97 2.38-1.84 0-2.8-.96-2.84-2.44Z" stroke="none"/><path clip-path="url(#c)" d="M69.19 55.11c0 .79.32 1.18.88 1.18 1.04 0 1.45-1.49 1.45-2.46 0-.74-.3-1.13-.9-1.13-1 0-1.43 1.48-1.43 2.41m3.83-1.13c0 1.34-.76 3.47-3.09 3.47-1.53 0-2.24-.96-2.24-2.35 0-1.53.94-3.56 3.05-3.56 1.32 0 2.29.77 2.29 2.44" stroke="none"/><path clip-path="url(#c)" d="M78.62 55.82c-.11.5-.21 1.06-.29 1.52H76.91c.01-.16.07-.58.11-.79-.41.62-1.01.9-1.74.9-1.02 0-1.61-.71-1.35-2.01l.78-3.79h1.44l-.74 3.6c-.12.59-.03.98.58.98.63 0 1.18-.52 1.44-1.78l.58-2.79h1.45Z" stroke="none"/><path clip-path="url(#c)" d="M80.66 53.1c.1-.48.2-.96.28-1.44h1.42c-.01.16-.08.57-.11.71.26-.35.74-.83 1.66-.83 1.08 0 1.71.68 1.36 2.36l-.7 3.44H83.13l.7-3.46c.14-.64 0-1.1-.62-1.1-.71 0-1.15.55-1.37 1.61l-.6 2.95H79.79Z" stroke="none"/><path clip-path="url(#c)" d="M87.81 55.03c0 .76.29 1.18.9 1.18.88 0 1.35-.78 1.56-1.93.18-.97-.08-1.5-.89-1.5-1.01 0-1.56 1.23-1.56 2.25m4.86-5.71L91.35 55.8c-.11.52-.22 1.03-.31 1.54h-1.4c.01-.21.04-.39.09-.67-.35.51-.87.78-1.6.78-1.18 0-1.83-.87-1.83-2.26 0-1.74 1.02-3.66 2.93-3.66.79 0 1.29.33 1.42.6l.58-2.83Z" stroke="none"/><path clip-path="url(#c)" d="M91.87 58.52c.73-1.1 1.19-2.43 1.35-3.11H94.7c-.27 1.14-.93 2.4-1.6 3.11Z" stroke="none"/><path clip-path="url(#c)" d="M106.03 52.85l-2.21 2.62c-.99 1.16-1.57 2-3.23 2-1.42 0-2.2-.94-2.2-2.05 0-1.14.68-1.88 2.49-2.56.96-.38 1.45-.85 1.45-1.46 0-.31-.14-.67-.59-.67-.49 0-.71.4-.71.8 0 .36.12.74.58 1.18l3.87 4.64h-1.8l-3.34-3.94c-.37-.48-.68-1.02-.68-1.7 0-1.15.71-2.06 2.11-2.06 1.37 0 1.89.92 1.89 1.75 0 .98-.52 1.59-2.17 2.26-1.3.53-1.6.97-1.6 1.53 0 .47.35.91.98.91.7 0 1.15-.35 2.05-1.43l1.52-1.82Z" stroke="none"/><path clip-path="url(#c)" d="M20.82 67.7c.26-1.29.59-2.81.79-3.67h-.04c-.64 1.54-1.84 4.14-2.97 6.51H17.3c-.1-1.87-.28-5.1-.27-6.54h-.05c-.12.88-.42 2.52-.69 3.82l-.56 2.72H14.34l1.56-7.59h2.26c.12 1.85.23 4.44.23 5.56h.01c.39-1.03 1.62-3.49 2.58-5.56h2.27l-1.56 7.59H20.24Z" stroke="none"/><path clip-path="url(#c)" d="M28.25 69.02c-.11.5-.21 1.06-.29 1.52H26.55c.01-.16.07-.58.12-.79-.42.62-1.01.9-1.74.9-1.02 0-1.61-.71-1.35-2.01l.78-3.79H25.8l-.74 3.6c-.12.59-.03.98.58.98.63 0 1.18-.51 1.44-1.78l.58-2.79H29.1Z" stroke="none"/><path clip-path="url(#c)" d="M29.43 70.54l1.64-8.03h1.45l-1.64 8.03Z" stroke="none"/><path clip-path="url(#c)" d="M32.96 64.85h.82l.32-1.54h1.44l-.31 1.54h1.04l-.25 1.14H34.97l-.58 2.87c-.07.35-.04.59.39.59.17 0 .31-.01.47-.04l-.22 1.08c-.32.11-.68.11-.98.11-1.15 0-1.33-.68-1.13-1.68l.59-2.93h-.82Z" stroke="none"/><path clip-path="url(#c)" d="M37.8 62.51h1.45l-.29 1.41H37.51Zm-.48 2.34h1.45l-1.17 5.7H36.15Z" stroke="none"/><path clip-path="url(#c)" d="M39.92 66.45c.11-.54.22-1.09.31-1.6h1.42c-.02.13-.06.44-.11.66.36-.46.77-.77 1.53-.77.78 0 1.15.36 1.26.91.39-.5.93-.91 1.8-.91.94 0 1.64.55 1.32 2.1l-.76 3.71H45.28L46 67.03c.1-.51.08-1.04-.6-1.04-.66 0-.96.49-1.13 1.36l-.66 3.21H42.18L42.91 67c.11-.55.02-1.01-.59-1.01-.64 0-.98.47-1.17 1.43l-.64 3.12H39.08Z" stroke="none"/><path clip-path="url(#c)" d="M52.2 67.04c.02-.11.02-.19.02-.25 0-.5-.21-.92-.85-.92-.66 0-1.07.44-1.26 1.17Zm-2.28 1c-.02.12-.04.22-.04.34 0 .6.22 1.12.87 1.12.59 0 .85-.33 1.03-.69H53.3c-.31.84-1.01 1.85-2.66 1.85-1.48 0-2.21-.96-2.21-2.34 0-1.5.8-3.58 2.99-3.58 1.62 0 2.19 1.02 2.19 2.19 0 .46-.06.79-.15 1.11Z" stroke="none"/><path clip-path="url(#c)" d="M55.9 68.23c0 .76.29 1.18.89 1.18.88 0 1.35-.78 1.56-1.93.18-.97-.08-1.5-.89-1.5-1.01 0-1.56 1.23-1.56 2.25m4.86-5.71L59.43 69c-.11.52-.22 1.03-.31 1.54h-1.4c.01-.21.04-.39.09-.67-.35.51-.87.78-1.6.78-1.18 0-1.83-.87-1.83-2.26 0-1.74 1.02-3.66 2.93-3.66.79 0 1.29.33 1.42.6l.58-2.83Z" stroke="none"/><path clip-path="url(#c)" d="M62.28 62.51h1.45l-.29 1.41H62Zm-.48 2.34h1.45l-1.17 5.7H60.64Z" stroke="none"/><path clip-path="url(#c)" d="M67.14 67.99c-.36 0-.67.03-.95.06-.81.13-1.13.4-1.13.88 0 .33.21.58.67.58 1 0 1.25-.84 1.39-1.44Zm1.2 1.16c-.12.59-.24 1.23-.25 1.4H66.69c.01-.16.05-.46.08-.64-.27.36-.64.75-1.67.75-1.09 0-1.54-.79-1.54-1.46 0-1.59 1.34-2.01 2.56-2.15.46-.05.88-.05 1.23-.06l.05-.27c.08-.41.08-.95-.7-.95-.69 0-.81.39-.94.66H64.28c.21-.92.82-1.7 2.54-1.7 1.34 0 2.33.57 2.02 2.07Z" stroke="none"/><path clip-path="url(#c)" d="M16.67 79.66H17.8c.99 0 1.53-.38 1.53-1.26 0-.66-.37-1-1.16-1H17.14Zm-.76-3.5h2.56c1.54 0 2.42.89 2.42 2.14 0 1.75-1.26 2.6-3.01 2.6H16.41l-.58 2.84H14.35Z" stroke="none"/><path clip-path="url(#c)" d="M24.52 81.19c-.36 0-.67.03-.95.07-.81.13-1.13.4-1.13.88 0 .33.21.58.67.58 1 0 1.25-.84 1.39-1.44Zm1.2 1.16c-.12.59-.24 1.23-.25 1.4H24.07c.01-.16.05-.46.08-.64-.27.36-.64.75-1.67.75-1.09 0-1.54-.79-1.54-1.46 0-1.59 1.34-2.01 2.56-2.15.46-.05.89-.05 1.23-.06l.05-.27c.08-.41.08-.95-.7-.95-.69 0-.81.39-.94.66H21.66c.21-.91.82-1.7 2.53-1.7 1.34 0 2.33.57 2.02 2.07Z" stroke="none"/><path clip-path="url(#c)" d="M27.77 79.74c.12-.56.22-1.16.32-1.69h1.4c-.01.14-.06.57-.16 1.03.38-.68.88-1.14 1.83-1.14l-.3 1.5c-1.01.01-1.71.58-1.97 1.83l-.51 2.47H26.94Z" stroke="none"/><path clip-path="url(#c)" d="M31.89 78.05h.82l.32-1.54h1.44l-.31 1.54h1.04l-.25 1.14H33.91l-.58 2.87c-.07.35-.04.59.39.59.17 0 .31-.01.47-.04l-.22 1.08c-.32.11-.68.11-.98.11-1.15 0-1.33-.68-1.13-1.68l.59-2.93h-.82Z" stroke="none"/><path clip-path="url(#c)" d="M36 79.5c.1-.48.2-.96.28-1.44h1.42c-.01.16-.08.57-.11.71.26-.35.74-.83 1.66-.83 1.08 0 1.71.68 1.36 2.36l-.7 3.44H38.46l.7-3.46c.14-.64 0-1.1-.62-1.1-.71 0-1.15.55-1.37 1.61l-.6 2.95H35.13Z" stroke="none"/><path clip-path="url(#c)" d="M45.39 80.24c.02-.11.02-.19.02-.25 0-.5-.21-.92-.85-.92-.66 0-1.07.44-1.26 1.18Zm-2.28 1c-.02.12-.04.21-.04.34 0 .6.22 1.12.87 1.12.59 0 .85-.33 1.03-.69h1.51c-.31.84-1.01 1.85-2.66 1.85-1.48 0-2.21-.96-2.21-2.34 0-1.5.8-3.58 2.99-3.58 1.62 0 2.19 1.02 2.19 2.19 0 .46-.06.79-.15 1.11Z" stroke="none"/><path clip-path="url(#c)" d="M48.2 79.74c.11-.56.22-1.16.32-1.69h1.4c-.01.14-.06.57-.16 1.03.38-.68.88-1.14 1.83-1.14l-.3 1.5c-1.01.01-1.71.58-1.97 1.83l-.51 2.47H47.37Z" stroke="none"/><path clip-path="url(#c)" d="M53.11 81.98c.04.49.35.76.95.76.57 0 .8-.27.8-.64 0-.37-.29-.55-.98-.77-1.29-.41-1.69-.87-1.69-1.58 0-1.03.78-1.81 2.24-1.81 1.54 0 2.22.81 2.18 1.72H55.15c-.02-.31-.17-.61-.79-.61-.36 0-.72.12-.72.52 0 .3.29.42.97.64 1.29.42 1.74.94 1.74 1.73 0 1.31-1.14 1.91-2.45 1.91-1.47 0-2.32-.68-2.26-1.87Z" stroke="none"/><path clip-path="url(#c)" d="M20.16 27.75c0 4.41.58 8.69 4.09 8.69 3.47 0 3.99-4.04 3.99-8.78 0-4.59-.61-8.52-3.92-8.52-3.3 0-4.16 3.46-4.16 8.61m12.59-.12c0 6.29-1.87 12.43-8.55 12.43-6.57 0-8.54-5.86-8.54-12.27 0-6.35 2.17-12.27 8.64-12.27 6.32 0 8.44 5.62 8.44 12.12" stroke="none"/><path clip-path="url(#c)" d="M36.3 39.63v-.29c0-3.88 1.93-7.3 6.81-11.03 3.39-2.6 4.38-3.47 4.38-5.73 0-2.16-1.05-3.54-3.26-3.54-2.43 0-3.41 1.45-3.78 3.79h-4.2c.36-4.06 2.91-7.34 7.98-7.34 5.64 0 7.65 3.55 7.65 7.02 0 3.49-1.45 5.07-5.68 8.24-2.94 2.21-4.27 3.75-4.72 5.07H52.74l-.56 3.78Z" stroke="none"/><path clip-path="url(#c)" d="M57.01 39.63h4.63V33.65H57.01Z" fill-rule="evenodd" stroke="none"/></g></g></svg>