<?xml version="1.0" encoding="UTF-8"?><!DOCTYPE svg PUBLIC "-//W3C//DTD SVG 1.0//EN" "http://www.w3.org/TR/2001/REC-SVG-20010904/DTD/svg10.dtd" []><svg xmlns="http://www.w3.org/2000/svg" xmlns:xlink="http://www.w3.org/1999/xlink" height="81" stroke="#000" stroke-linecap="square" stroke-miterlimit="10" viewBox="0 0 162.1 80.75" width="162"><g><g fill="#fff" stroke="none"><path d="M6.03 11.15c.22 1.02.88 1.63 2.11 1.63 1.36 0 1.88-.7 1.88-1.54 0-.87-.37-1.41-2.01-1.83C6.44 9 5.76 8.48 5.76 7.37c0-1.01.71-1.96 2.31-1.96 1.64 0 2.33 1.03 2.43 1.97H9.9c-.17-.83-.69-1.42-1.86-1.42-1.08 0-1.66.52-1.66 1.38 0 .85.49 1.18 1.86 1.53 2.1.54 2.41 1.41 2.41 2.33 0 1.13-.8 2.11-2.52 2.11-1.86 0-2.55-1.12-2.68-2.16Z"/><path d="M12.17 7.72h.53v5.5h-.53Zm0-2.61h.53V6.18h-.53Z"/><path d="M14.55 9.14c0-.47 0-.99-.01-1.42h.52c.01.19.03.66.02.98.22-.55.71-1.11 1.6-1.11.74 0 1.33.38 1.54 1.09.27-.57.8-1.09 1.74-1.09.82 0 1.67.48 1.67 2.01v3.62H21.1V9.66c0-.74-.25-1.54-1.25-1.54-1.03 0-1.5.86-1.5 1.93v3.17h-.52V9.68c0-.8-.23-1.55-1.21-1.55-1.03 0-1.53.95-1.53 2.07v3.02h-.53Z"/><path d="M27.46 10.35c0-1.28-.6-2.23-1.65-2.23-1.29 0-1.82.84-1.82 2.33 0 1.47.42 2.39 1.75 2.39 1.11 0 1.73-.97 1.73-2.49M24.02 12.4v3.01h-.53V9.07c0-.45 0-.94-.01-1.35H24c.02.21.02.54.02.99.33-.66.92-1.12 1.88-1.12 1.26 0 2.13 1.09 2.13 2.74 0 1.98-1.02 3.02-2.31 3.02-.94 0-1.43-.43-1.69-.95"/><path d="M29.47 13.22H30V5.11h-.53Z" fill-rule="evenodd"/><path d="M31.85 7.72h.53v5.5h-.53Zm0-2.61h.53V6.18h-.53Z"/><path d="M34.51 13.22V8.24h-.92V7.72h.92V6.94c0-.92.26-1.94 1.45-1.94.16 0 .39.03.52.08v.53c-.16-.04-.42-.07-.58-.07-.63 0-.86.46-.86 1.42v.76H36.2v.52H35.04v4.98Z"/><path d="M37.54 7.72c1.08 3.15 1.54 4.44 1.73 5.04h.01c.21-.67.64-1.95 1.67-5.04h.55l-2 5.82c-.57 1.63-.95 1.99-1.91 1.99-.19 0-.32-.01-.49-.03v-.55c.16.02.31.03.48.03.77 0 1.01-.38 1.41-1.52L36.96 7.72Z"/><path d="M49.43 11.6c-.26.97-.87 1.75-2.07 1.75-1.33 0-2.28-1.02-2.28-2.86 0-1.51.78-2.9 2.34-2.9 1.35 0 1.91.99 2 1.76h-.54c-.16-.64-.56-1.24-1.47-1.24-1.13 0-1.77.99-1.77 2.37 0 1.31.6 2.37 1.71 2.37.78 0 1.25-.41 1.52-1.23Z"/><path d="M50.96 10.47c0 1.31.68 2.37 1.81 2.37 1.15 0 1.8-.98 1.8-2.37 0-1.3-.64-2.36-1.82-2.36-1.21 0-1.79 1.04-1.79 2.36m4.18-.01c0 1.53-.82 2.89-2.41 2.89-1.44 0-2.33-1.22-2.33-2.88 0-1.57.84-2.88 2.39-2.88 1.42 0 2.35 1.14 2.35 2.87"/><path d="M56.57 13.22h.53V5.11h-.53Z" fill-rule="evenodd"/><path d="M58.95 13.22h.53V5.11h-.53Z" fill-rule="evenodd"/><path d="M64.83 10.05c-.01-1.09-.59-1.95-1.63-1.95-1.1 0-1.6.79-1.71 1.95Zm-3.38.48c.01 1.42.7 2.3 1.73 2.3 1 0 1.34-.58 1.53-1.03h.54c-.22.73-.79 1.55-2.1 1.55-1.62 0-2.25-1.44-2.25-2.84 0-1.57.76-2.93 2.31-2.93 1.64 0 2.16 1.46 2.16 2.5 0 .15 0 .31-.01.45Z"/><path d="M70.77 11.6c-.26.97-.87 1.75-2.07 1.75-1.33 0-2.28-1.02-2.28-2.86 0-1.51.78-2.9 2.34-2.9 1.35 0 1.91.99 2 1.76h-.54c-.16-.64-.56-1.24-1.47-1.24-1.13 0-1.77.99-1.77 2.37 0 1.31.6 2.37 1.71 2.37.78 0 1.25-.41 1.52-1.23Z"/><path d="M71.44 7.72h.99V6h.53V7.72h1.27v.52H72.96v3.58c0 .62.13.97.64.97.16 0 .38-.01.55-.07v.48c-.18.08-.44.1-.66.1-.68 0-1.07-.35-1.07-1.23V8.24h-.99Z"/><path d="M75.42 7.72h.53v5.5h-.53Zm0-2.61h.53V6.18h-.53Z"/><path d="M77.95 10.47c0 1.31.68 2.37 1.81 2.37 1.15 0 1.8-.98 1.8-2.37 0-1.3-.64-2.36-1.82-2.36-1.21 0-1.79 1.04-1.79 2.36m4.18-.01c0 1.53-.82 2.89-2.41 2.89-1.44 0-2.33-1.22-2.33-2.88 0-1.57.84-2.88 2.38-2.88 1.42 0 2.36 1.14 2.36 2.87"/><path d="M83.55 9.1c0-.48 0-.95-.01-1.39h.52c.02.18.03.89.02 1.04.24-.56.67-1.18 1.77-1.18.95 0 1.79.55 1.79 2.07v3.56h-.53V9.74c0-.98-.4-1.62-1.32-1.62-1.27 0-1.71 1.09-1.71 2.29v2.8h-.53Z"/><path d="M92.51 10.47c0 1.31.68 2.37 1.81 2.37 1.15 0 1.8-.98 1.8-2.37 0-1.3-.64-2.36-1.82-2.36-1.21 0-1.79 1.04-1.79 2.36m4.18-.01c0 1.53-.82 2.89-2.41 2.89-1.44 0-2.33-1.22-2.33-2.88 0-1.57.84-2.88 2.39-2.88 1.42 0 2.35 1.14 2.35 2.87"/><path d="M98.33 13.22V8.24h-.92V7.72h.92V6.94c0-.92.26-1.94 1.45-1.94.16 0 .39.03.52.08v.53c-.16-.04-.42-.07-.58-.07-.63 0-.86.46-.86 1.42v.76h1.16v.52H98.87v4.98Z"/><path d="M103.99 10.51c0 1.51.76 2.32 1.67 2.32 1.41 0 1.79-1 1.79-2.5 0-1.42-.33-2.23-1.69-2.23-1.05 0-1.77.87-1.77 2.41m3.97-5.4v6.52c0 .53 0 1.03.01 1.59h-.51c-.02-.13-.03-.65-.03-.93-.27.67-.86 1.06-1.79 1.06-1.38 0-2.21-1.17-2.21-2.82 0-1.69.9-2.95 2.35-2.95 1.07 0 1.49.47 1.65.82V5.11Z"/><path d="M112.87 10.41h-1.04c-1.18 0-1.92.32-1.92 1.27 0 .69.48 1.17 1.23 1.17 1.52 0 1.74-1.05 1.74-2.23Zm.52 1.76c0 .48.04.87.07 1.04h-.51c-.04-.13-.07-.37-.1-.85-.18.41-.65.98-1.75.98-1.24 0-1.77-.83-1.77-1.65 0-1.21.9-1.76 2.5-1.76h1.01V9.38c0-.55-.16-1.29-1.37-1.29-1.07 0-1.24.58-1.35 1.03h-.53c.07-.61.43-1.54 1.9-1.54 1.21 0 1.9.53 1.9 1.74Z"/><path d="M114.41 7.72h.99V6h.53V7.72h1.27v.52h-1.27v3.58c0 .62.13.97.64.97.16 0 .38-.01.56-.07v.48c-.18.08-.44.1-.66.1-.68 0-1.07-.35-1.07-1.23V8.24h-.99Z"/><path d="M121.52 10.41h-1.04c-1.18 0-1.92.32-1.92 1.27 0 .69.48 1.17 1.23 1.17 1.52 0 1.74-1.05 1.74-2.23Zm.52 1.76c0 .48.04.87.08 1.04h-.51c-.04-.13-.07-.37-.1-.85-.18.41-.65.98-1.75.98-1.23 0-1.77-.83-1.77-1.65 0-1.21.91-1.76 2.5-1.76h1.01V9.38c0-.55-.16-1.29-1.38-1.29-1.08 0-1.23.58-1.35 1.03h-.53c.07-.61.43-1.54 1.9-1.54 1.21 0 1.89.53 1.89 1.74Z"/><path d="M123.57 13.22h.53V11.8h-.53Z" fill-rule="evenodd"/><path d="M5.98 23.52h.57v3.35h4.47V23.52h.58v7.7h-.58v-3.8H6.55v3.8H5.98Z"/><path d="M16.65 28.41H15.61c-1.18 0-1.92.32-1.92 1.27 0 .69.48 1.17 1.23 1.17 1.52 0 1.74-1.05 1.74-2.23Zm.52 1.76c0 .48.04.87.07 1.04h-.51c-.04-.13-.07-.37-.1-.85-.18.41-.65.98-1.75.98-1.24 0-1.77-.83-1.77-1.65 0-1.21.9-1.76 2.5-1.76h1.01v-.56c0-.55-.16-1.29-1.37-1.29-1.07 0-1.24.58-1.35 1.03h-.53c.07-.61.43-1.54 1.9-1.54 1.21 0 1.9.53 1.9 1.74Z"/><path d="M19.04 27.1c0-.48 0-.95-.01-1.39h.52c.02.18.03.89.02 1.04.24-.56.67-1.18 1.77-1.18.95 0 1.79.55 1.79 2.07v3.56H22.6V27.74c0-.98-.39-1.62-1.32-1.62-1.27 0-1.7 1.09-1.7 2.29v2.8h-.53Z"/><path d="M25.12 28.51c0 1.51.76 2.32 1.67 2.32 1.4 0 1.79-1 1.79-2.5 0-1.42-.33-2.23-1.69-2.23-1.05 0-1.77.87-1.77 2.41m3.97-5.4v6.52c0 .53 0 1.03.01 1.59H28.6c-.02-.13-.03-.65-.03-.93-.27.67-.86 1.06-1.79 1.06-1.38 0-2.21-1.17-2.21-2.82 0-1.69.91-2.95 2.35-2.95 1.07 0 1.49.47 1.65.82v-3.3Z"/><path d="M30.95 31.22h.53V23.11h-.53Z" fill-rule="evenodd"/><path d="M36.83 28.05c-.01-1.09-.59-1.95-1.63-1.95-1.1 0-1.6.79-1.71 1.95Zm-3.38.48c.01 1.42.7 2.3 1.73 2.3 1 0 1.34-.58 1.53-1.03h.54c-.22.73-.79 1.55-2.1 1.55-1.62 0-2.25-1.44-2.25-2.84 0-1.57.76-2.93 2.31-2.93 1.64 0 2.16 1.46 2.16 2.5 0 .15 0 .31-.01.45Z"/><path d="M46.21 27.43h-3.8v3.23h4.16l-.08.55H41.84v-7.7H46.4v.55H42.41v2.82h3.8Z"/><path d="M48.27 29.15c.22 1.02.88 1.63 2.11 1.63 1.36 0 1.88-.7 1.88-1.54 0-.87-.37-1.41-2.01-1.83-1.58-.41-2.26-.94-2.26-2.05 0-1.01.71-1.96 2.31-1.96 1.64 0 2.33 1.03 2.43 1.97h-.6c-.17-.83-.69-1.42-1.86-1.42-1.08 0-1.66.52-1.66 1.38 0 .85.49 1.18 1.86 1.53 2.1.54 2.41 1.41 2.41 2.33 0 1.13-.8 2.11-2.52 2.11-1.86 0-2.55-1.12-2.68-2.16Z"/><path d="M60.4 31.22h-.48c-.04-.09-.06-.48-.07-1.23-.27.53-.85 1.32-2.41 1.32-2.14 0-3.24-1.68-3.24-3.87 0-2.3 1.17-4.03 3.35-4.03 1.61 0 2.67.87 2.91 2.29h-.57c-.32-1.09-1.05-1.74-2.35-1.74-1.87 0-2.72 1.5-2.72 3.45 0 1.76.82 3.35 2.64 3.35 1.86 0 2.39-1.25 2.39-2.96v-.09H57.44v-.55H60.4Z"/><path d="M65.2 28.51c0 1.51.76 2.32 1.67 2.32 1.4 0 1.79-1 1.79-2.5 0-1.42-.33-2.23-1.69-2.23-1.05 0-1.77.87-1.77 2.41m3.97-5.4v6.52c0 .53 0 1.03.01 1.59h-.51c-.02-.13-.03-.65-.03-.93-.27.67-.86 1.06-1.79 1.06-1.38 0-2.21-1.17-2.21-2.82 0-1.69.91-2.95 2.35-2.95 1.07 0 1.49.47 1.65.82v-3.3Z"/><path d="M74.08 28.41H73.04c-1.18 0-1.92.32-1.92 1.27 0 .69.48 1.17 1.22 1.17 1.52 0 1.74-1.05 1.74-2.23Zm.52 1.76c0 .48.04.87.07 1.04h-.51c-.04-.13-.07-.37-.1-.85-.18.41-.65.98-1.75.98-1.23 0-1.77-.83-1.77-1.65 0-1.21.9-1.76 2.5-1.76h1.01v-.56c0-.55-.16-1.29-1.37-1.29-1.08 0-1.24.58-1.35 1.03h-.53c.06-.61.43-1.54 1.9-1.54 1.21 0 1.9.53 1.9 1.74Z"/><path d="M75.62 25.72h.99V24h.53v1.72H78.4v.52H77.14v3.58c0 .62.13.97.64.97.16 0 .38-.01.55-.07v.48c-.18.08-.44.1-.66.1-.68 0-1.07-.35-1.07-1.23V26.24h-.99Z"/><path d="M82.73 28.41H81.69c-1.18 0-1.92.32-1.92 1.27 0 .69.48 1.17 1.23 1.17 1.52 0 1.74-1.05 1.74-2.23Zm.52 1.76c0 .48.04.87.08 1.04h-.51c-.04-.13-.07-.37-.1-.85-.18.41-.65.98-1.75.98-1.24 0-1.77-.83-1.77-1.65 0-1.21.9-1.76 2.5-1.76h1.01v-.56c0-.55-.16-1.29-1.37-1.29-1.07 0-1.24.58-1.35 1.03h-.53c.07-.61.43-1.54 1.9-1.54 1.21 0 1.89.53 1.89 1.74Z"/><path d="M91.12 28.41H90.08c-1.18 0-1.92.32-1.92 1.27 0 .69.48 1.17 1.22 1.17 1.52 0 1.74-1.05 1.74-2.23Zm.52 1.76c0 .48.04.87.07 1.04h-.51c-.04-.13-.07-.37-.1-.85-.18.41-.65.98-1.75.98-1.24 0-1.77-.83-1.77-1.65 0-1.21.91-1.76 2.5-1.76h1.01v-.56c0-.55-.16-1.29-1.37-1.29-1.08 0-1.23.58-1.35 1.03h-.53c.06-.61.43-1.54 1.9-1.54 1.21 0 1.9.53 1.9 1.74Z"/><path d="M92.66 25.72h.99V24h.53v1.72h1.27v.52H94.18v3.58c0 .62.13.97.64.97.16 0 .38-.01.55-.07v.48c-.18.08-.44.1-.66.1-.68 0-1.07-.35-1.07-1.23V26.24h-.99Z"/><path d="M99.52 29.7c.18.71.67 1.14 1.51 1.14.95 0 1.33-.45 1.33-1.07 0-.63-.26-.93-1.45-1.23-1.37-.34-1.71-.77-1.71-1.5 0-.76.55-1.46 1.76-1.46s1.78.76 1.86 1.54h-.53c-.1-.46-.45-1.03-1.35-1.03-.93 0-1.19.47-1.19.91 0 .51.25.76 1.31 1.02 1.5.37 1.88.88 1.88 1.71 0 1-.79 1.62-1.91 1.62-1.22 0-1.9-.66-2.04-1.65Z"/><path d="M108.27 29.6c-.26.97-.87 1.75-2.07 1.75-1.33 0-2.28-1.02-2.28-2.86 0-1.51.78-2.9 2.34-2.9 1.35 0 1.91.99 2 1.76h-.54c-.16-.64-.56-1.24-1.47-1.24-1.13 0-1.77.99-1.77 2.37 0 1.31.6 2.37 1.71 2.37.78 0 1.25-.41 1.52-1.23Z"/><path d="M112.79 28.41h-1.04c-1.18 0-1.92.32-1.92 1.27 0 .69.48 1.17 1.22 1.17 1.52 0 1.74-1.05 1.74-2.23Zm.52 1.76c0 .48.04.87.08 1.04h-.51c-.04-.13-.07-.37-.1-.85-.18.41-.65.98-1.75.98-1.23 0-1.77-.83-1.77-1.65 0-1.21.91-1.76 2.5-1.76h1.01v-.56c0-.55-.16-1.29-1.38-1.29-1.07 0-1.23.58-1.35 1.03h-.53c.07-.61.43-1.54 1.9-1.54 1.21 0 1.89.53 1.89 1.74Z"/><path d="M115.18 31.22h.53V23.11h-.53Z" fill-rule="evenodd"/><path d="M121.05 28.05c-.01-1.09-.59-1.95-1.63-1.95-1.1 0-1.6.79-1.71 1.95Zm-3.38.48c.01 1.42.7 2.3 1.73 2.3 1 0 1.34-.58 1.53-1.03h.54c-.22.73-.79 1.55-2.1 1.55-1.62 0-2.25-1.44-2.25-2.84 0-1.57.76-2.93 2.31-2.93 1.64 0 2.16 1.46 2.16 2.5 0 .15 0 .31-.01.45Z"/><path d="M122.38 32.47c.52-1.07.71-2.05.75-2.66h.53c-.07.91-.41 2-.8 2.66Z"/><path d="M128.01 29.7c.18.71.67 1.14 1.51 1.14.95 0 1.33-.45 1.33-1.07 0-.63-.26-.93-1.45-1.23-1.37-.34-1.72-.77-1.72-1.5 0-.76.55-1.46 1.76-1.46s1.78.76 1.86 1.54h-.53c-.1-.46-.45-1.03-1.35-1.03-.93 0-1.19.47-1.19.91 0 .51.25.76 1.31 1.02 1.5.37 1.88.88 1.88 1.71 0 1-.79 1.62-1.91 1.62-1.21 0-1.9-.66-2.05-1.65Z"/><path d="M136.02 28.41h-1.04c-1.18 0-1.92.32-1.92 1.27 0 .69.48 1.17 1.23 1.17 1.52 0 1.74-1.05 1.74-2.23Zm.52 1.76c0 .48.04.87.07 1.04h-.51c-.04-.13-.08-.37-.1-.85-.18.41-.65.98-1.75.98-1.23 0-1.77-.83-1.77-1.65 0-1.21.91-1.76 2.5-1.76h1.01v-.56c0-.55-.16-1.29-1.38-1.29-1.07 0-1.23.58-1.35 1.03h-.53c.07-.61.43-1.54 1.9-1.54 1.21 0 1.9.53 1.9 1.74Z"/><path d="M138.12 25.72c.86 2.52 1.46 4.24 1.66 4.94h.01c.12-.41.71-2.05 1.75-4.94h.56l-2.01 5.5h-.64l-1.9-5.5Z"/><path d="M143.29 25.72h.53v5.5h-.53Zm0-2.61h.53v1.07h-.53Z"/><path d="M145.67 27.1c0-.48 0-.95-.01-1.39h.52c.02.18.03.89.02 1.04.24-.56.67-1.18 1.77-1.18.95 0 1.79.55 1.79 2.07v3.56h-.53V27.74c0-.98-.39-1.62-1.32-1.62-1.27 0-1.7 1.09-1.7 2.29v2.8h-.53Z"/><path d="M151.76 28.45c0 1.31.67 2.26 1.69 2.26 1.33 0 1.74-.91 1.74-2.34 0-1.45-.43-2.26-1.7-2.26-1.22 0-1.73 1.09-1.73 2.34m3.93 2.4c0 1.76-.76 2.68-2.3 2.68-1.39 0-1.96-.8-2.09-1.64h.54c.19.76.8 1.12 1.57 1.12 1.38 0 1.77-.92 1.77-2.32v-.57c-.29.71-.81 1.1-1.78 1.1-1.25 0-2.2-1.04-2.2-2.75 0-1.85 1.02-2.88 2.28-2.88 1.09 0 1.56.53 1.7.97.01-.32.02-.7.03-.84h.5c0 .2-.02 1.07-.02 1.6Z"/><path d="M5.01 38.92H6V37.2h.53v1.72H7.8v.52H6.53v3.58c0 .62.13.97.64.97.16 0 .38-.01.55-.07v.48c-.18.08-.44.1-.66.1-.68 0-1.07-.35-1.07-1.23V39.44H5.01Z"/><path d="M8.99 38.92h.53v5.5H8.99Zm0-2.61h.53v1.07H8.99Z"/><path d="M11.38 40.34c0-.47 0-.99-.01-1.42h.52c.01.19.03.66.02.98.22-.55.71-1.11 1.6-1.11.75 0 1.33.38 1.54 1.09.26-.57.8-1.09 1.74-1.09.82 0 1.67.48 1.67 2.01v3.62h-.53V40.87c0-.74-.25-1.54-1.25-1.54-1.03 0-1.5.86-1.5 1.92v3.17h-.52V40.88c0-.8-.23-1.55-1.21-1.55-1.03 0-1.53.95-1.53 2.07v3.02h-.53Z"/><path d="M23.81 41.25c-.01-1.09-.59-1.95-1.63-1.95-1.1 0-1.6.79-1.71 1.95Zm-3.38.48c.01 1.42.7 2.3 1.73 2.3 1 0 1.34-.58 1.53-1.03h.54c-.22.73-.79 1.55-2.1 1.55-1.62 0-2.25-1.44-2.25-2.84 0-1.57.76-2.93 2.31-2.93 1.64 0 2.16 1.46 2.16 2.5 0 .15 0 .31-.01.45Z"/><path d="M34.88 39.47l-1.85 2.97c-.91 1.44-1.55 2.09-2.75 2.09-1.21 0-1.93-1-1.93-1.96 0-.94.42-1.65 1.99-2.53 1.09-.73 1.49-1.03 1.49-1.74 0-.6-.37-1.19-1.09-1.19-.67 0-1.14.43-1.14 1.23 0 .49.33.96.97 1.58l4.41 4.49h-.8l-4.03-4.1c-.69-.68-1.1-1.19-1.1-1.97 0-.87.56-1.74 1.71-1.74.96 0 1.62.75 1.62 1.69 0 .75-.39 1.23-1.71 2.07-1.5.88-1.76 1.42-1.76 2.16 0 .79.66 1.46 1.35 1.46.86 0 1.44-.31 2.4-1.89l1.59-2.63Z"/><path d="M39.29 40.34c0-.47 0-.99-.01-1.42h.52c.01.19.03.66.02.98.22-.55.71-1.11 1.6-1.11.74 0 1.33.38 1.54 1.09.27-.57.8-1.09 1.74-1.09.82 0 1.67.48 1.67 2.01v3.62h-.53V40.87c0-.74-.26-1.54-1.25-1.54-1.03 0-1.5.86-1.5 1.92v3.17h-.52V40.88c0-.8-.23-1.55-1.21-1.55-1.03 0-1.53.95-1.53 2.07v3.02h-.53Z"/><path d="M48.23 38.92h.53v5.5h-.53Zm0-2.61h.53v1.07h-.53Z"/><path d="M50.61 40.3c0-.48 0-.94-.01-1.39h.52c.02.18.03.89.02 1.05.24-.56.67-1.18 1.77-1.18.95 0 1.79.55 1.79 2.07v3.56h-.53V40.94c0-.98-.4-1.62-1.32-1.62-1.27 0-1.7 1.09-1.7 2.29v2.81h-.53Z"/><path d="M56.56 38.92h.53v5.5h-.53Zm0-2.61h.53v1.07h-.53Z"/><path d="M58.94 40.34c0-.47 0-.99-.01-1.42h.52c.01.19.03.66.02.98.22-.55.71-1.11 1.6-1.11.75 0 1.33.38 1.54 1.09.26-.57.8-1.09 1.74-1.09.82 0 1.67.48 1.67 2.01v3.62h-.53V40.87c0-.74-.26-1.54-1.25-1.54-1.03 0-1.5.86-1.5 1.92v3.17h-.52V40.88c0-.8-.23-1.55-1.21-1.55-1.03 0-1.53.95-1.53 2.07v3.02h-.53Z"/><path d="M67.88 38.92h.53v5.5h-.53Zm0-2.61h.53v1.07h-.53Z"/><path d="M70.21 42.9c.18.71.67 1.14 1.51 1.14.95 0 1.33-.45 1.33-1.07 0-.63-.26-.93-1.45-1.23-1.38-.34-1.71-.77-1.71-1.5 0-.76.55-1.46 1.76-1.46s1.78.76 1.86 1.54h-.53c-.1-.46-.45-1.03-1.35-1.03-.93 0-1.19.47-1.19.91 0 .51.26.76 1.31 1.02 1.5.37 1.87.88 1.87 1.7 0 1-.79 1.62-1.91 1.62-1.21 0-1.9-.66-2.04-1.65Z"/><path d="M75.05 38.92h.53v5.5h-.53Zm0-2.61h.53v1.07h-.53Z"/><path d="M77.43 40.3c0-.48 0-.94-.01-1.39h.52c.02.18.03.89.02 1.05.24-.56.67-1.18 1.77-1.18.95 0 1.79.55 1.79 2.07v3.56h-.53V40.94c0-.98-.39-1.62-1.32-1.62-1.27 0-1.7 1.09-1.7 2.29v2.81h-.53Z"/><path d="M83.52 41.65c0 1.31.67 2.25 1.69 2.25 1.33 0 1.74-.91 1.74-2.34 0-1.45-.43-2.26-1.7-2.26-1.23 0-1.73 1.09-1.73 2.34m3.93 2.4c0 1.76-.76 2.68-2.3 2.68-1.38 0-1.96-.8-2.09-1.64h.54c.19.76.8 1.12 1.56 1.12 1.38 0 1.77-.92 1.77-2.32v-.57c-.29.71-.81 1.1-1.78 1.1-1.25 0-2.21-1.04-2.21-2.75 0-1.85 1.02-2.88 2.28-2.88 1.09 0 1.55.53 1.7.97.01-.32.02-.7.03-.84h.5c0 .2-.02 1.07-.02 1.6Z"/><path d="M92.71 36.31v3.53c.3-.57.82-1.05 1.76-1.05.76 0 1.8.39 1.8 2.13v3.5h-.53V41.03c0-1.09-.48-1.71-1.36-1.71-1.05 0-1.66.67-1.66 2.02v3.07h-.53V36.31Z"/><path d="M102.03 42.81c0 .54.01 1.4.01 1.61h-.51c-.02-.14-.03-.5-.03-.96-.22.65-.77 1.09-1.71 1.09-.77 0-1.75-.31-1.75-1.99V38.92h.52v3.51c0 .8.25 1.58 1.3 1.58 1.19 0 1.64-.69 1.64-2.27V38.92h.53Z"/><path d="M103.88 40.34c0-.47 0-.99-.01-1.42h.52c.01.19.03.66.02.98.22-.55.71-1.11 1.6-1.11.75 0 1.33.38 1.54 1.09.27-.57.8-1.09 1.74-1.09.82 0 1.67.48 1.67 2.01v3.62h-.53V40.87c0-.74-.26-1.54-1.25-1.54-1.03 0-1.5.86-1.5 1.92v3.17h-.52V40.88c0-.8-.23-1.55-1.21-1.55-1.03 0-1.53.95-1.53 2.07v3.02h-.53Z"/><path d="M115.89 41.61h-1.04c-1.18 0-1.92.32-1.92 1.27 0 .69.48 1.17 1.22 1.17 1.52 0 1.74-1.05 1.74-2.23Zm.52 1.76c0 .48.04.87.08 1.04h-.51c-.04-.13-.07-.37-.1-.85-.18.41-.65.98-1.75.98-1.24 0-1.77-.83-1.77-1.65 0-1.21.91-1.76 2.5-1.76h1.01v-.56c0-.55-.16-1.29-1.37-1.29-1.08 0-1.24.58-1.35 1.03h-.53c.06-.61.43-1.54 1.9-1.54 1.21 0 1.9.53 1.9 1.74Z"/><path d="M118.27 40.3c0-.48 0-.94-.01-1.39h.52c.02.18.03.89.02 1.05.23-.56.67-1.18 1.77-1.18.95 0 1.79.55 1.79 2.07v3.56h-.53V40.94c0-.98-.39-1.62-1.32-1.62-1.27 0-1.7 1.09-1.7 2.29v2.81h-.53Z"/><path d="M130.59 41.25c-.01-1.09-.59-1.95-1.63-1.95-1.1 0-1.6.79-1.71 1.95Zm-3.38.48c.01 1.42.7 2.3 1.73 2.3 1 0 1.34-.58 1.53-1.03h.54c-.22.73-.79 1.55-2.1 1.55-1.62 0-2.25-1.44-2.25-2.84 0-1.57.76-2.93 2.31-2.93 1.64 0 2.16 1.46 2.16 2.5 0 .15 0 .31-.01.45Z"/><path d="M132.55 40.41c0-.92-.01-1.32-.01-1.5h.52c.01.18.02.53.02 1.23.31-.82.99-1.32 1.85-1.36v.59c-1.11.08-1.85.87-1.85 2.18v2.86h-.53Z"/><path d="M135.99 40.41c0-.92-.01-1.32-.01-1.5h.52c.01.18.02.53.02 1.23.31-.82.99-1.32 1.85-1.36v.59c-1.11.08-1.85.87-1.85 2.18v2.86h-.53Z"/><path d="M139.6 41.67c0 1.31.68 2.37 1.81 2.37 1.15 0 1.8-.98 1.8-2.37 0-1.3-.64-2.36-1.82-2.36-1.21 0-1.79 1.04-1.79 2.36m4.18-.01c0 1.53-.82 2.89-2.41 2.89-1.44 0-2.33-1.22-2.33-2.88 0-1.57.84-2.88 2.39-2.88 1.42 0 2.36 1.14 2.36 2.87"/><path d="M145.2 40.41c0-.92-.01-1.32-.01-1.5h.52c.01.18.02.53.02 1.23.31-.82.99-1.32 1.85-1.36v.59c-1.11.08-1.85.87-1.85 2.18v2.86h-.53Z"/><path d="M147.9 44.42h.53V43h-.53Z" fill-rule="evenodd"/><path d="M7.5 55.27H5v-.55h5.6v.55H8.09v7.15H7.5Z"/><path d="M10.68 58.41c0-.92-.01-1.32-.01-1.5h.52c.01.18.02.53.02 1.23.31-.83.99-1.32 1.85-1.36v.59c-1.11.08-1.85.87-1.85 2.18v2.86h-.53Z"/><path d="M17.19 59.61H16.14c-1.18 0-1.92.32-1.92 1.27 0 .69.48 1.17 1.22 1.17 1.52 0 1.74-1.05 1.74-2.23Zm.52 1.76c0 .48.04.87.07 1.04h-.51c-.04-.13-.07-.37-.1-.85-.18.41-.65.98-1.75.98-1.24 0-1.77-.83-1.77-1.65 0-1.21.9-1.76 2.5-1.76h1.01v-.56c0-.55-.16-1.29-1.37-1.29-1.08 0-1.24.58-1.35 1.03h-.53c.06-.61.43-1.54 1.9-1.54 1.21 0 1.9.53 1.9 1.74Z"/><path d="M19.57 58.3c0-.48 0-.94-.01-1.39h.52c.02.18.03.89.02 1.04.24-.56.67-1.18 1.77-1.18.95 0 1.79.55 1.79 2.07v3.56h-.53V58.94c0-.98-.4-1.62-1.32-1.62-1.27 0-1.71 1.09-1.71 2.29v2.81h-.53Z"/><path d="M25.49 60.9c.18.71.67 1.14 1.51 1.14.95 0 1.33-.45 1.33-1.07 0-.63-.26-.93-1.45-1.23-1.37-.34-1.72-.77-1.72-1.5 0-.76.55-1.46 1.76-1.46s1.78.76 1.86 1.54h-.53c-.1-.46-.45-1.03-1.35-1.03-.93 0-1.19.47-1.19.91 0 .51.26.76 1.31 1.02 1.5.37 1.88.88 1.88 1.71 0 1-.79 1.62-1.91 1.62-1.21 0-1.9-.66-2.04-1.65Z"/><path d="M30.49 62.42V57.44h-.92v-.52h.92v-.78c0-.92.26-1.94 1.45-1.94.16 0 .39.03.52.08v.53c-.16-.04-.42-.07-.58-.07-.63 0-.86.46-.86 1.42v.76h1.16v.52H31.02v4.98Z"/><path d="M33.27 59.67c0 1.31.68 2.36 1.81 2.36 1.15 0 1.8-.98 1.8-2.36 0-1.3-.64-2.36-1.82-2.36-1.22 0-1.79 1.04-1.79 2.36m4.18-.01c0 1.53-.82 2.89-2.41 2.89-1.44 0-2.33-1.22-2.33-2.88 0-1.57.84-2.88 2.38-2.88 1.42 0 2.35 1.14 2.35 2.87"/><path d="M38.87 58.41c0-.92-.01-1.32-.01-1.5h.52c.01.18.02.53.02 1.23.31-.83.99-1.32 1.85-1.36v.59c-1.11.08-1.85.87-1.85 2.18v2.86h-.53Z"/><path d="M42.32 58.34c0-.47 0-.99-.01-1.42h.52c.01.19.03.66.02.98.22-.55.71-1.11 1.6-1.11.74 0 1.33.39 1.54 1.09.27-.57.8-1.09 1.74-1.09.82 0 1.67.48 1.67 2.01v3.62h-.53V58.87c0-.74-.26-1.54-1.25-1.54-1.03 0-1.5.86-1.5 1.93v3.17H45.6V58.88c0-.8-.23-1.55-1.21-1.55-1.03 0-1.53.95-1.53 2.07v3.03h-.53Z"/><path d="M54.27 59.67c0 1.31.68 2.36 1.81 2.36 1.15 0 1.8-.98 1.8-2.36 0-1.3-.64-2.36-1.82-2.36-1.21 0-1.79 1.04-1.79 2.36m4.18-.01c0 1.53-.82 2.89-2.41 2.89-1.44 0-2.33-1.22-2.33-2.88 0-1.57.84-2.88 2.38-2.88 1.42 0 2.35 1.14 2.35 2.87"/><path d="M63.84 59.55c0-1.28-.6-2.23-1.65-2.23-1.29 0-1.82.84-1.82 2.33 0 1.47.41 2.39 1.75 2.39 1.11 0 1.73-.97 1.73-2.49M60.4 61.61v3.01h-.53V58.27c0-.45 0-.94-.01-1.35h.52c.02.21.02.54.02.99.33-.66.92-1.12 1.88-1.12 1.26 0 2.13 1.09 2.13 2.74 0 1.98-1.02 3.03-2.31 3.03-.94 0-1.43-.43-1.69-.95"/><path d="M69.4 59.25c-.01-1.09-.59-1.95-1.63-1.95-1.1 0-1.6.79-1.71 1.95Zm-3.38.48c.01 1.42.7 2.3 1.73 2.3 1 0 1.34-.58 1.53-1.03h.54c-.22.73-.79 1.55-2.1 1.55-1.62 0-2.25-1.44-2.25-2.84 0-1.57.76-2.93 2.31-2.93 1.64 0 2.16 1.46 2.16 2.5 0 .15 0 .31-.01.45Z"/><path d="M71.36 58.41c0-.92-.01-1.32-.01-1.5h.52c.01.18.02.53.02 1.23.31-.83.99-1.32 1.85-1.36v.59c-1.11.08-1.85.87-1.85 2.18v2.86h-.53Z"/><path d="M77.87 59.61H76.83c-1.18 0-1.92.32-1.92 1.27 0 .69.48 1.17 1.22 1.17 1.52 0 1.74-1.05 1.74-2.23Zm.52 1.76c0 .48.04.87.08 1.04h-.51c-.04-.13-.07-.37-.1-.85-.18.41-.65.98-1.75.98-1.24 0-1.77-.83-1.77-1.65 0-1.21.91-1.76 2.5-1.76h1.01v-.56c0-.55-.16-1.29-1.37-1.29-1.07 0-1.23.58-1.35 1.03H74.6c.06-.61.43-1.54 1.9-1.54 1.21 0 1.9.53 1.9 1.74Z"/><path d="M79.41 56.92h.99V55.2h.53v1.72H82.2v.52H80.93v3.58c0 .62.13.97.64.97.16 0 .38-.01.55-.07v.48c-.18.08-.44.1-.66.1-.68 0-1.07-.35-1.07-1.23V57.44h-.99Z"/><path d="M83.39 56.92h.53v5.5h-.53Zm0-2.61h.53v1.07h-.53Z"/><path d="M85.91 59.67c0 1.31.68 2.36 1.81 2.36 1.15 0 1.8-.98 1.8-2.36 0-1.3-.64-2.36-1.82-2.36-1.21 0-1.79 1.04-1.79 2.36m4.18-.01c0 1.53-.82 2.89-2.41 2.89-1.44 0-2.33-1.22-2.33-2.88 0-1.57.84-2.88 2.39-2.88 1.42 0 2.35 1.14 2.35 2.87"/><path d="M91.52 58.3c0-.48 0-.94-.01-1.39h.52c.02.18.03.89.02 1.04.24-.56.67-1.18 1.77-1.18.95 0 1.79.55 1.79 2.07v3.56h-.53V58.94c0-.98-.39-1.62-1.32-1.62-1.27 0-1.7 1.09-1.7 2.29v2.81h-.53Z"/><path d="M100.53 59.61H99.49c-1.18 0-1.92.32-1.92 1.27 0 .69.48 1.17 1.22 1.17 1.52 0 1.74-1.05 1.74-2.23Zm.52 1.76c0 .48.04.87.07 1.04h-.51c-.04-.13-.08-.37-.1-.85-.18.41-.65.98-1.75.98-1.24 0-1.77-.83-1.77-1.65 0-1.21.9-1.76 2.5-1.76h1.01v-.56c0-.55-.16-1.29-1.37-1.29-1.08 0-1.24.58-1.35 1.03h-.53c.06-.61.43-1.54 1.9-1.54 1.21 0 1.89.53 1.89 1.74Z"/><path d="M102.92 62.42h.53V54.31h-.53Z" fill-rule="evenodd"/><path d="M108.32 59.71c0 1.51.76 2.32 1.67 2.32 1.4 0 1.79-1 1.79-2.5 0-1.42-.33-2.23-1.69-2.23-1.05 0-1.77.87-1.77 2.41m3.97-5.4v6.52c0 .53 0 1.03.01 1.58h-.51c-.02-.13-.03-.65-.03-.93-.27.67-.86 1.06-1.79 1.06-1.38 0-2.21-1.17-2.21-2.82 0-1.69.9-2.95 2.35-2.95 1.07 0 1.49.47 1.65.83v-3.3Z"/><path d="M117.2 59.61h-1.04c-1.18 0-1.92.32-1.92 1.27 0 .69.48 1.17 1.23 1.17 1.52 0 1.74-1.05 1.74-2.23Zm.52 1.76c0 .48.04.87.08 1.04h-.51c-.04-.13-.08-.37-.1-.85-.18.41-.65.98-1.75.98-1.23 0-1.77-.83-1.77-1.65 0-1.21.91-1.76 2.5-1.76h1.01v-.56c0-.55-.16-1.29-1.38-1.29-1.07 0-1.23.58-1.35 1.03h-.53c.07-.61.43-1.54 1.9-1.54 1.21 0 1.89.53 1.89 1.74Z"/><path d="M118.73 56.92h.99V55.2h.53v1.72h1.27v.52h-1.27v3.58c0 .62.13.97.64.97.16 0 .38-.01.55-.07v.48c-.18.08-.44.1-.66.1-.68 0-1.07-.35-1.07-1.23V57.44h-.99Z"/><path d="M125.85 59.61h-1.04c-1.18 0-1.92.32-1.92 1.27 0 .69.48 1.17 1.23 1.17 1.52 0 1.74-1.05 1.74-2.23Zm.52 1.76c0 .48.04.87.07 1.04h-.51c-.04-.13-.08-.37-.1-.85-.18.41-.65.98-1.75.98-1.24 0-1.77-.83-1.77-1.65 0-1.21.9-1.76 2.5-1.76h1.01v-.56c0-.55-.16-1.29-1.37-1.29-1.08 0-1.23.58-1.35 1.03h-.53c.06-.61.43-1.54 1.9-1.54 1.21 0 1.89.53 1.89 1.74Z"/><path d="M131.11 56.92h.53v5.5h-.53Zm0-2.61h.53v1.07h-.53Z"/><path d="M133.5 58.3c0-.48 0-.94-.01-1.39h.52c.02.18.03.89.02 1.04.24-.56.67-1.18 1.77-1.18.95 0 1.79.55 1.79 2.07v3.56h-.53V58.94c0-.98-.39-1.62-1.32-1.62-1.27 0-1.71 1.09-1.71 2.29v2.81h-.53Z"/><path d="M138.61 56.92h.99V55.2h.53v1.72h1.27v.52h-1.27v3.58c0 .62.13.97.64.97.16 0 .38-.01.55-.07v.48c-.18.08-.44.1-.66.1-.68 0-1.07-.35-1.07-1.23V57.44h-.99Z"/><path d="M142.67 59.67c0 1.31.68 2.36 1.81 2.36 1.15 0 1.8-.98 1.8-2.36 0-1.3-.64-2.36-1.82-2.36-1.21 0-1.79 1.04-1.79 2.36m4.17-.01c0 1.53-.82 2.89-2.41 2.89-1.44 0-2.33-1.22-2.33-2.88 0-1.57.84-2.88 2.38-2.88 1.42 0 2.36 1.14 2.36 2.87"/><path d="M10.36 71.83H6.55v3.23h4.16l-.08.55H5.98v-7.7h4.57v.55H6.55v2.82h3.8Z"/><path d="M12.41 73.55c.22 1.02.88 1.63 2.11 1.63 1.36 0 1.89-.7 1.89-1.54 0-.87-.37-1.41-2.01-1.83-1.58-.41-2.26-.94-2.26-2.05 0-1.01.71-1.96 2.31-1.96 1.64 0 2.33 1.03 2.43 1.97h-.6c-.17-.83-.69-1.42-1.86-1.42-1.08 0-1.66.52-1.66 1.38 0 .85.49 1.18 1.86 1.53 2.1.54 2.41 1.41 2.41 2.33 0 1.13-.8 2.11-2.52 2.11-1.86 0-2.55-1.12-2.68-2.16Z"/><path d="M24.54 75.62h-.48c-.04-.09-.06-.48-.07-1.23-.27.53-.85 1.32-2.41 1.32-2.14 0-3.24-1.68-3.24-3.87 0-2.3 1.17-4.03 3.35-4.03 1.61 0 2.67.87 2.91 2.29h-.57c-.32-1.09-1.05-1.74-2.35-1.74-1.87 0-2.72 1.5-2.72 3.44 0 1.76.82 3.35 2.64 3.35 1.86 0 2.39-1.25 2.39-2.96v-.09H21.58v-.55h2.96Z"/><path d="M29.2 71.54c0-.47 0-.99-.01-1.42h.52c.01.19.03.66.02.98.22-.55.71-1.11 1.6-1.11.75 0 1.33.38 1.55 1.09.26-.57.8-1.09 1.73-1.09.82 0 1.67.48 1.67 2.01v3.62h-.53V72.06c0-.74-.26-1.54-1.25-1.54-1.03 0-1.5.86-1.5 1.92v3.17h-.52V72.08c0-.8-.23-1.55-1.21-1.55-1.03 0-1.53.95-1.53 2.07v3.02H29.2Z"/><path d="M41.63 72.45c-.01-1.09-.59-1.95-1.63-1.95-1.1 0-1.6.79-1.72 1.95Zm-3.38.48c.01 1.42.7 2.3 1.73 2.3 1 0 1.34-.58 1.53-1.03h.54c-.22.73-.79 1.55-2.1 1.55-1.62 0-2.25-1.44-2.25-2.84 0-1.57.76-2.93 2.31-2.93 1.64 0 2.16 1.46 2.16 2.5 0 .15 0 .31-.01.45Z"/><path d="M42.88 70.12h.99V68.4h.53v1.72h1.27v.52H44.4v3.58c0 .62.13.97.64.97.16 0 .38-.01.55-.07v.48c-.18.08-.44.1-.66.1-.68 0-1.07-.35-1.07-1.23V70.63h-.99Z"/><path d="M46.77 71.61c0-.92-.01-1.32-.01-1.5h.52c.01.18.02.53.02 1.23.31-.82.99-1.32 1.85-1.36v.59c-1.11.08-1.85.87-1.85 2.18v2.86h-.53Z"/><path d="M50.24 70.12h.53v5.5h-.53Zm0-2.61h.53v1.07h-.53Z"/><path d="M56.54 74c-.26.97-.87 1.75-2.07 1.75-1.33 0-2.28-1.02-2.28-2.86 0-1.51.78-2.9 2.34-2.9 1.35 0 1.91.99 2 1.76H56c-.16-.64-.56-1.24-1.47-1.24-1.13 0-1.77.99-1.77 2.36 0 1.31.6 2.36 1.72 2.36.78 0 1.25-.41 1.52-1.23Z"/><path d="M58.04 74.1c.18.72.67 1.15 1.51 1.15.95 0 1.33-.45 1.33-1.07 0-.63-.26-.93-1.45-1.23-1.37-.34-1.71-.77-1.71-1.5 0-.76.55-1.46 1.76-1.46s1.78.76 1.87 1.54h-.53c-.1-.46-.45-1.03-1.35-1.03-.93 0-1.19.47-1.19.91 0 .51.25.76 1.31 1.02 1.5.37 1.87.88 1.87 1.71 0 1-.79 1.62-1.91 1.62-1.21 0-1.9-.66-2.04-1.65Z"/><path d="M71.98 70.67l-1.85 2.97c-.91 1.44-1.55 2.09-2.75 2.09-1.21 0-1.93-1-1.93-1.96 0-.93.42-1.65 1.99-2.53 1.09-.73 1.49-1.03 1.49-1.74 0-.61-.37-1.19-1.09-1.19-.67 0-1.14.43-1.14 1.23 0 .49.33.96.97 1.58l4.41 4.49h-.8l-4.03-4.1c-.69-.68-1.1-1.19-1.1-1.97 0-.87.56-1.74 1.71-1.74.96 0 1.62.75 1.62 1.69 0 .75-.4 1.23-1.71 2.07-1.5.88-1.76 1.42-1.76 2.16 0 .79.66 1.46 1.35 1.46.86 0 1.44-.31 2.4-1.89l1.59-2.63Z"/><path d="M82.31 75.62h-.48c-.04-.09-.06-.48-.07-1.23-.27.53-.85 1.32-2.41 1.32-2.14 0-3.24-1.68-3.24-3.87 0-2.3 1.17-4.03 3.35-4.03 1.61 0 2.67.87 2.91 2.29H81.8c-.32-1.09-1.05-1.74-2.35-1.74-1.86 0-2.71 1.5-2.71 3.44 0 1.76.82 3.35 2.64 3.35 1.86 0 2.39-1.25 2.39-2.96v-.09H79.35v-.55h2.96Z"/><path d="M84.35 67.92h.57v3.35H89.4V67.92h.58v7.7H89.4v-3.8H84.92v3.8h-.57Z"/><path d="M97.92 75.62h-.48c-.04-.09-.06-.48-.07-1.23-.27.53-.85 1.32-2.41 1.32-2.14 0-3.24-1.68-3.24-3.87 0-2.3 1.17-4.03 3.35-4.03 1.61 0 2.67.87 2.91 2.29h-.57c-.32-1.09-1.05-1.74-2.35-1.74-1.87 0-2.72 1.5-2.72 3.44 0 1.76.82 3.35 2.64 3.35 1.86 0 2.39-1.25 2.39-2.96v-.09H94.96v-.55h2.96Z"/><path d="M106.49 74c-.26.97-.87 1.75-2.07 1.75-1.33 0-2.28-1.02-2.28-2.86 0-1.51.78-2.9 2.34-2.9 1.35 0 1.91.99 2 1.76h-.54c-.16-.64-.56-1.24-1.47-1.24-1.13 0-1.77.99-1.77 2.36 0 1.31.6 2.36 1.71 2.36.78 0 1.25-.41 1.52-1.23Z"/><path d="M111.01 72.81h-1.04c-1.18 0-1.92.32-1.92 1.27 0 .69.48 1.17 1.23 1.17 1.52 0 1.74-1.05 1.74-2.23Zm.52 1.76c0 .48.04.87.07 1.05h-.51c-.04-.13-.07-.37-.1-.85-.18.41-.65.98-1.75.98-1.24 0-1.77-.83-1.77-1.65 0-1.21.9-1.76 2.5-1.76H111v-.56c0-.55-.16-1.29-1.37-1.29-1.08 0-1.24.58-1.35 1.03h-.53c.06-.61.43-1.54 1.89-1.54 1.22 0 1.9.53 1.9 1.74Z"/><path d="M113.4 75.62h.53V67.51h-.53Z" fill-rule="evenodd"/><path d="M119.7 74c-.26.97-.87 1.75-2.07 1.75-1.33 0-2.28-1.02-2.28-2.86 0-1.51.78-2.9 2.34-2.9 1.35 0 1.91.99 2 1.76h-.54c-.16-.64-.56-1.24-1.47-1.24-1.13 0-1.77.99-1.77 2.36 0 1.31.6 2.36 1.71 2.36.78 0 1.25-.41 1.52-1.23Z"/><path d="M124.98 74.01c0 .54.01 1.4.01 1.61h-.51c-.02-.14-.03-.51-.03-.96-.23.65-.77 1.09-1.71 1.09-.77 0-1.75-.31-1.75-1.99V70.12h.52v3.51c0 .8.24 1.58 1.3 1.58 1.19 0 1.64-.69 1.64-2.27V70.12h.53Z"/><path d="M126.83 75.62h.53V67.51h-.53Z" fill-rule="evenodd"/><path d="M132.27 72.81h-1.04c-1.18 0-1.92.32-1.92 1.27 0 .69.48 1.17 1.23 1.17 1.52 0 1.74-1.05 1.74-2.23Zm.52 1.76c0 .48.04.87.07 1.05h-.51c-.04-.13-.07-.37-.1-.85-.18.41-.65.98-1.75.98-1.24 0-1.77-.83-1.77-1.65 0-1.21.9-1.76 2.5-1.76h1.01v-.56c0-.55-.16-1.29-1.37-1.29-1.08 0-1.24.58-1.35 1.03H129c.06-.61.43-1.54 1.9-1.54 1.22 0 1.9.53 1.9 1.74Z"/><path d="M133.81 70.12h.99V68.4h.53v1.72h1.27v.52h-1.27v3.58c0 .62.13.97.64.97.16 0 .38-.01.55-.07v.48c-.18.08-.44.1-.66.1-.68 0-1.07-.35-1.07-1.23V70.63h-.99Z"/><path d="M137.79 70.12h.53v5.5h-.53Zm0-2.61h.53v1.07h-.53Z"/><path d="M140.32 72.87c0 1.31.68 2.37 1.81 2.37 1.15 0 1.8-.98 1.8-2.37 0-1.3-.64-2.36-1.82-2.36-1.21 0-1.79 1.04-1.79 2.36m4.18-.01c0 1.53-.82 2.89-2.41 2.89-1.44 0-2.33-1.22-2.33-2.88 0-1.57.84-2.88 2.39-2.88 1.42 0 2.35 1.14 2.35 2.87"/><path d="M145.92 71.5c0-.48 0-.94-.01-1.39h.52c.02.18.03.89.02 1.04.24-.56.67-1.18 1.77-1.18.95 0 1.79.55 1.79 2.07v3.56h-.53V72.14c0-.98-.39-1.62-1.32-1.62-1.27 0-1.7 1.09-1.7 2.29v2.81h-.53Z"/><path d="M151.83 74.1c.18.72.67 1.15 1.51 1.15.95 0 1.33-.45 1.33-1.07 0-.63-.26-.93-1.45-1.23-1.37-.34-1.71-.77-1.71-1.5 0-.76.55-1.46 1.76-1.46s1.78.76 1.87 1.54h-.53c-.1-.46-.45-1.03-1.35-1.03-.93 0-1.19.47-1.19.91 0 .51.25.76 1.31 1.02 1.5.37 1.87.88 1.87 1.71 0 1-.79 1.62-1.91 1.62-1.21 0-1.9-.66-2.05-1.65Z"/><path d="M156.57 75.62h.53V74.2h-.53Z" fill-rule="evenodd"/></g></g></svg>