<?xml version="1.0" encoding="UTF-8"?><!DOCTYPE svg PUBLIC "-//W3C//DTD SVG 1.0//EN" "http://www.w3.org/TR/2001/REC-SVG-20010904/DTD/svg10.dtd" []><svg xmlns="http://www.w3.org/2000/svg" xmlns:xlink="http://www.w3.org/1999/xlink" height="37" stroke="#000" stroke-linecap="square" stroke-miterlimit="10" viewBox="0 0 68.78 36.95" width="69"><defs><clipPath id="a"><path d="M0 0V36.95H68.78V0Z"/></clipPath><clipPath clip-path="url(#a)" id="b"><path d="M-790.7 338.6H169.42v-540H-790.7Z"/></clipPath></defs><g><g fill="#fff" stroke="none"><path clip-path="url(#b)" d="M5 6.33H20.31V8.19H7.02v9.43H19.48v1.86H7.02V31.52H5Z"/><path clip-path="url(#b)" d="M36.45 21.14c-.04-3.53-1.96-6.32-5.46-6.32-3.68 0-5.36 2.57-5.75 6.32ZM25.13 22.75c.04 4.59 2.35 7.46 5.79 7.46 3.36 0 4.5-1.89 5.14-3.35h1.91c-.75 2.37-2.66 5.09-7.12 5.09-5.49 0-7.62-4.71-7.62-9.29 0-5.16 2.57-9.58 7.84-9.58 5.56 0 7.34 4.78 7.34 8.2 0 .51 0 1.01-.04 1.48Z"/><path clip-path="url(#b)" d="M55.1 21.14c-.04-3.53-1.96-6.32-5.46-6.32-3.68 0-5.36 2.57-5.75 6.32ZM43.78 22.75c.04 4.59 2.35 7.46 5.79 7.46 3.36 0 4.5-1.89 5.14-3.35h1.91c-.75 2.37-2.66 5.09-7.12 5.09-5.49 0-7.62-4.71-7.62-9.29 0-5.16 2.57-9.58 7.84-9.58 5.56 0 7.34 4.78 7.34 8.2 0 .51 0 1.01-.04 1.48Z"/><path clip-path="url(#b)" d="M61.91 31.52h1.87V5H61.91Z" fill-rule="evenodd"/></g></g></svg>