<?xml version="1.0" encoding="UTF-8"?><!DOCTYPE svg PUBLIC "-//W3C//DTD SVG 1.0//EN" "http://www.w3.org/TR/2001/REC-SVG-20010904/DTD/svg10.dtd" []><svg xmlns="http://www.w3.org/2000/svg" xmlns:xlink="http://www.w3.org/1999/xlink" height="23" stroke="#000" stroke-linecap="square" stroke-miterlimit="10" viewBox="0 0 150.35 23.2" width="150"><defs><clipPath id="a"><path d="M0 0V23.2H150.35V0Z"/></clipPath><clipPath clip-path="url(#a)" id="b"><path d="M-700.59 279.63H259.53V-260.49H-700.59Z"/></clipPath></defs><g><g fill="#FF00A4" stroke="none"><path clip-path="url(#b)" d="M8.37 5C7.2 6.58 6.23 8.68 6.23 11.26c0 2.36.79 4.57 2.14 6.42H7.03C5.99 16.24 5 14.06 5 11.25 5 8.47 6.02 6.4 7.03 5Z"/><path clip-path="url(#b)" d="M11.64 14.06h1.89c2.14 0 3.15-1.59 3.15-3.74 0-1.86-.92-3.58-3.14-3.58h-1.9Zm-1.4-8.52h3.44c2.67 0 4.46 1.86 4.46 4.76 0 2.87-1.74 4.97-4.51 4.97H10.25Z"/><path clip-path="url(#b)" d="M23.86 11.84H22.8c-1.33 0-2.01.39-2.01 1.33 0 .7.46 1.22 1.28 1.22 1.58 0 1.79-1.1 1.79-2.33Zm1.3 1.82c0 .66.05 1.41.09 1.61H23.98c-.06-.16-.1-.5-.11-.89-.24.46-.78 1.06-2.09 1.06-1.64 0-2.33-1.1-2.33-2.19 0-1.6 1.22-2.33 3.27-2.33h1.14v-.57c0-.6-.19-1.32-1.4-1.32-1.09 0-1.28.54-1.4 1.09H19.77c.09-1.04.72-2.15 2.72-2.14 1.72.01 2.67.72 2.67 2.36Z"/><path clip-path="url(#b)" d="M27.77 8.14c1.04 3.23 1.65 5.18 1.82 5.89h.01c.21-.79.68-2.42 1.75-5.89H32.7l-2.45 7.44c-.69 2.08-1.22 2.62-2.68 2.62-.21 0-.49-.01-.77-.05V16.98c.17.02.37.04.55.04.84 0 1.18-.37 1.56-1.48L26.33 8.14Z"/><path clip-path="url(#b)" d="M34.77 13.21c.19.74.72 1.17 1.62 1.17.96 0 1.33-.41 1.33-1.02 0-.63-.31-.91-1.57-1.23-2.03-.51-2.43-1.15-2.43-2.13 0-1.02.72-2.04 2.55-2.04s2.57 1.09 2.65 2.07H37.63c-.09-.42-.4-1.04-1.43-1.04-.9 0-1.17.44-1.17.88 0 .5.27.74 1.51 1.05 2.14.52 2.54 1.26 2.54 2.32 0 1.24-.94 2.18-2.74 2.18-1.85 0-2.72-.96-2.89-2.23Z"/><path clip-path="url(#b)" d="M44.04 8.28c.14-1.13.92-2.39 2.88-2.39 1.89 0 2.75 1.17 2.75 2.41 0 1.12-.64 1.69-1.17 1.9v.03c.76.26 1.55.92 1.55 2.31 0 1.44-.86 2.9-3.15 2.9-2.11 0-2.97-1.36-3.1-2.59h1.32c.17.78.73 1.47 1.84 1.47 1.21 0 1.72-.82 1.72-1.79 0-1.15-.67-1.7-1.84-1.7h-.67V9.72h.57c1.12 0 1.6-.44 1.6-1.37 0-.8-.5-1.34-1.45-1.34-1.04 0-1.4.58-1.55 1.26Z"/><path clip-path="url(#b)" d="M51.62 12.27h5.39v-1.2H51.62Z" fill-rule="evenodd"/><path clip-path="url(#b)" d="M60.15 15.27V7.68c-.44.31-1.32.65-1.8.73V7.32c.72-.18 1.58-.7 2.17-1.3h.99v9.26Z"/><path clip-path="url(#b)" d="M65.04 10.65c0 1.74.27 3.63 1.79 3.63s1.77-1.79 1.77-3.68c0-1.78-.28-3.57-1.73-3.57-1.48 0-1.82 1.6-1.82 3.62m4.95-.06c0 2.33-.66 4.84-3.18 4.84-2.47 0-3.17-2.36-3.17-4.78 0-2.4.77-4.78 3.21-4.78 2.41 0 3.14 2.3 3.14 4.71"/><path clip-path="url(#b)" d="M76.94 10.14h2.06c1.22 0 1.88-.6 1.88-1.7 0-1.15-.77-1.7-1.83-1.7H76.94Zm-1.41-4.6h3.64c1.87 0 3.14 1.08 3.14 2.87 0 1.94-1.36 2.93-3.21 2.93H76.94v3.93H75.54Z"/><path clip-path="url(#b)" d="M84.57 11.7c0 1.53.72 2.6 1.9 2.6 1.2 0 1.88-1.03 1.88-2.6 0-1.58-.67-2.61-1.9-2.61-1.21 0-1.87 1-1.87 2.61m5.14-.02c0 2.08-1.16 3.75-3.29 3.75-2.01 0-3.22-1.58-3.22-3.72 0-2.12 1.19-3.75 3.3-3.75 1.94 0 3.21 1.48 3.21 3.72"/><path clip-path="url(#b)" d="M92.17 13.21c.19.74.73 1.17 1.62 1.17.96 0 1.33-.41 1.33-1.02 0-.63-.31-.91-1.57-1.23-2.03-.51-2.43-1.15-2.43-2.13 0-1.02.72-2.04 2.55-2.04s2.57 1.09 2.65 2.07H95.03c-.09-.42-.4-1.04-1.43-1.04-.9 0-1.17.44-1.17.88 0 .5.27.74 1.51 1.05 2.13.52 2.54 1.26 2.54 2.32 0 1.24-.94 2.18-2.74 2.18-1.85 0-2.72-.96-2.89-2.23Z"/><path clip-path="url(#b)" d="M97.19 8.14h1.17V6.07h1.33V8.14h1.49v1.1H99.69v4.05c0 .67.16.99.78.99.16 0 .39-.01.57-.05v1.01c-.31.12-.74.13-1.08.13-1.13 0-1.6-.61-1.6-1.8V9.24H97.19Z"/><path clip-path="url(#b)" d="M102.29 12.29h3.6V11.06h-3.6Z" fill-rule="evenodd"/><path clip-path="url(#b)" d="M113.89 10.79h-4.65v3.26h5.11l-.18 1.22h-6.3V5.54h6.24V6.76h-4.87v2.8h4.65Z"/><path clip-path="url(#b)" d="M116.49 8.14c.88 2.82 1.53 4.98 1.73 5.87h.01c.17-.87.9-3.01 1.85-5.87h1.35l-2.52 7.13h-1.45l-2.4-7.13Z"/><path clip-path="url(#b)" d="M126.98 11.03c-.01-1.11-.54-2-1.67-2-1.16 0-1.66.83-1.77 2Zm-3.48.94c.01 1.34.66 2.34 1.79 2.34 1.03 0 1.36-.53 1.58-1.04h1.34c-.27.91-1.01 2.17-2.96 2.17-2.19 0-3.1-1.81-3.1-3.65 0-2.14 1.05-3.82 3.17-3.82 2.26 0 3 1.83 3 3.4 0 .22 0 .4-.02.59Z"/><path clip-path="url(#b)" d="M129.95 9.93c0-.62 0-1.25-.01-1.8h1.29c.03.2.05.9.05 1.12.27-.58.83-1.29 2.14-1.29s2.3.85 2.3 2.72v4.58H134.4V10.86c0-1.02-.38-1.72-1.39-1.72-1.21 0-1.72.92-1.72 2.32v3.81h-1.33Z"/><path clip-path="url(#b)" d="M136.89 8.14h1.17V6.07h1.33V8.14h1.49v1.1h-1.49v4.05c0 .67.16.99.78.99.16 0 .39-.01.57-.05v1.01c-.31.12-.74.13-1.08.13-1.13 0-1.6-.61-1.6-1.8V9.24h-1.17Z"/><path clip-path="url(#b)" d="M141.98 17.69c1.17-1.58 2.14-3.68 2.14-6.26 0-2.36-.79-4.57-2.14-6.42h1.33c1.04 1.44 2.03 3.63 2.03 6.44 0 2.78-1.02 4.85-2.03 6.25Z"/></g></g></svg>