<?xml version="1.0" encoding="UTF-8"?><!DOCTYPE svg PUBLIC "-//W3C//DTD SVG 1.0//EN" "http://www.w3.org/TR/2001/REC-SVG-20010904/DTD/svg10.dtd" []><svg xmlns="http://www.w3.org/2000/svg" xmlns:xlink="http://www.w3.org/1999/xlink" height="21" stroke="#000" stroke-linecap="square" stroke-miterlimit="10" viewBox="0 0 105.59 21.42" width="106"><defs><clipPath id="a"><path d="M0 0V21.42H105.59V0Z"/></clipPath><clipPath clip-path="url(#a)" id="b"><path d="M-392.25 243.07H567.87v-540H-392.25Z"/></clipPath></defs><g><g fill="#fff" stroke="none" stroke-linecap="butt"><path clip-path="url(#b)" d="M6.66 10.42H9.09c1.44 0 2.21-.68 2.21-1.95 0-1.32-.9-1.95-2.15-1.95H6.66ZM5 5.16H9.29c2.2 0 3.7 1.23 3.7 3.27 0 2.21-1.61 3.35-3.79 3.35H6.66v4.49H5Z"/><path clip-path="url(#b)" d="M15.18 5.16h1.65V9.74h5.54V5.16h1.65V16.28H22.37V11.14H16.83v5.14H15.18Z"/><path clip-path="url(#b)" d="M27.13 16.28h1.65V5.16H27.13Z" fill-rule="evenodd"/><path clip-path="url(#b)" d="M31.9 5.16h1.65v9.72h5.75l-.22 1.4H31.9Z"/><path clip-path="url(#b)" d="M41.01 16.28h1.65V5.16H41.01Z" fill-rule="evenodd"/><path clip-path="url(#b)" d="M47.44 10.42h2.43c1.44 0 2.21-.68 2.21-1.95 0-1.32-.91-1.95-2.16-1.95H47.44ZM45.78 5.16h4.29c2.2 0 3.7 1.23 3.7 3.27 0 2.21-1.61 3.35-3.79 3.35H47.44v4.49H45.78Z"/><path clip-path="url(#b)" d="M57.62 10.42h2.43c1.44 0 2.21-.68 2.21-1.95 0-1.32-.91-1.95-2.16-1.95H57.62ZM55.96 5.16h4.29c2.2 0 3.7 1.23 3.7 3.27 0 2.21-1.61 3.35-3.79 3.35H57.62v4.49H55.96Z"/><path clip-path="url(#b)" d="M66.14 16.28h1.65V5.16H66.14Z" fill-rule="evenodd"/><path clip-path="url(#b)" d="M70.9 16.28V5.16h2.15c1.56 2.58 4.85 7.91 5.46 9.12h.02c-.11-1.38-.1-3.16-.1-4.98V5.16h1.54V16.28H77.95c-1.42-2.37-4.89-8.17-5.56-9.42h-.02c.08 1.21.09 3.17.09 5.18v4.25Z"/><path clip-path="url(#b)" d="M90.18 11.16H84.69v3.72h6.03l-.21 1.4H83.08V5.16h7.36v1.4H84.69v3.2h5.49Z"/><path clip-path="url(#b)" d="M93.84 13.15c.29 1.29 1.18 1.97 2.73 1.97 1.65 0 2.31-.76 2.31-1.76 0-1.08-.54-1.66-2.71-2.18-2.7-.65-3.57-1.59-3.57-3.14C92.59 6.34 93.86 5 96.36 5c2.7 0 3.81 1.54 3.96 3.03H98.65c-.18-.93-.76-1.73-2.34-1.73-1.28 0-2.01.57-2.01 1.58 0 .99.6 1.38 2.52 1.85 3.18.77 3.77 2 3.77 3.45 0 1.84-1.37 3.24-4.13 3.24-2.8 0-4.06-1.5-4.3-3.27Z"/></g></g></svg>