<?xml version="1.0" encoding="UTF-8"?><!DOCTYPE svg PUBLIC "-//W3C//DTD SVG 1.0//EN" "http://www.w3.org/TR/2001/REC-SVG-20010904/DTD/svg10.dtd" []><svg xmlns="http://www.w3.org/2000/svg" xmlns:xlink="http://www.w3.org/1999/xlink" height="19" stroke="#000" stroke-linecap="square" stroke-miterlimit="10" viewBox="0 0 253.18 18.53" width="253"><g><g fill="#fff" stroke="none" stroke-linecap="butt"><path d="M8.83 7.55c-.12-.06-.45-.21-.87-.21-.85 0-1.26.54-1.26 1.26 0 .7.44 1.27 1.27 1.27.36 0 .7-.1.91-.23l.11.34c-.32.21-.73.28-1.11.28-1.04 0-1.65-.72-1.65-1.63 0-1.03.81-1.67 1.72-1.67.47 0 .87.13.99.24ZM5.45 8.6c0 1.34.99 2.39 2.29 2.39C9.01 11 10 9.94 10 8.57c0-1.34-.99-2.4-2.26-2.4-1.3 0-2.29 1.06-2.29 2.43m5-.03c0 1.55-1.19 2.79-2.71 2.79S5 10.12 5 8.57C5 7.04 6.21 5.8 7.74 5.8s2.71 1.24 2.71 2.77"/><path d="M17.13 11.63v-.03c0-.74.63-1.66 1.81-2.58 1.03-.8 1.29-1.04 1.29-1.79 0-.65-.36-1.21-1.21-1.21-.81 0-1.23.39-1.39 1.25h-.46c.12-.99.74-1.68 1.85-1.68 1.2 0 1.71.82 1.71 1.61 0 .92-.39 1.22-1.49 2.12-.87.71-1.4 1.28-1.58 1.85h3.31l-.08.44Z"/><path d="M24.12 8.68c0 1.15.24 2.63 1.42 2.63 1.21 0 1.44-1.41 1.44-2.68 0-1.13-.23-2.59-1.4-2.59-1.22 0-1.46 1.33-1.46 2.65m3.36-.05c0 1.36-.35 3.12-1.94 3.12-1.54 0-1.93-1.61-1.93-3.07s.41-3.07 1.95-3.07 1.91 1.62 1.91 3.02"/><path d="M30.19 11.63v-.03c0-.74.63-1.66 1.81-2.58 1.03-.8 1.29-1.04 1.29-1.79 0-.65-.36-1.21-1.21-1.21-.81 0-1.23.39-1.39 1.25h-.46c.12-.99.74-1.68 1.85-1.68 1.2 0 1.71.82 1.71 1.61 0 .92-.39 1.22-1.48 2.12-.87.71-1.4 1.28-1.58 1.85h3.31l-.08.44Z"/><path d="M40.11 6.15H37.56c-.06.58-.24 1.7-.31 2.07.27-.34.69-.58 1.36-.58 1.03 0 1.76.69 1.76 1.96 0 1.16-.59 2.14-1.92 2.14-.98 0-1.68-.58-1.86-1.55h.48c.15.63.61 1.12 1.4 1.12.93 0 1.4-.66 1.4-1.68 0-.87-.38-1.55-1.3-1.55-.83 0-1.17.34-1.43.9l-.45-.13c.19-.79.4-2.44.48-3.14h3Z"/><path d="M43.15 11.63h.45V10.47h-.45Z" fill-rule="evenodd"/><path d="M50.93 9.38c0 1.07.58 1.94 1.53 1.94.97 0 1.52-.8 1.52-1.94 0-1.06-.54-1.94-1.54-1.94-1.03 0-1.51.86-1.51 1.94m3.53-.01c0 1.25-.69 2.37-2.03 2.37-1.22 0-1.97-1-1.97-2.36 0-1.29.71-2.36 2.02-2.36 1.2 0 1.99.94 1.99 2.35"/><path d="M57.38 8.36c0-.76-.01-1.08-.01-1.23h.44c.01.15.02.43.02 1.01.26-.68.84-1.08 1.57-1.12v.49c-.94.06-1.57.71-1.57 1.78v2.34h-.45Z"/><path d="M65.34 10.31c-.22.79-.74 1.43-1.75 1.43-1.12 0-1.93-.84-1.93-2.34 0-1.23.66-2.38 1.98-2.38 1.14 0 1.61.81 1.69 1.44h-.46c-.14-.52-.48-1.02-1.24-1.02-.95 0-1.49.81-1.49 1.94 0 1.07.5 1.94 1.45 1.94.66 0 1.05-.33 1.29-1.01Z"/><path d="M68.63 5V7.89c.25-.47.69-.87 1.48-.87.64 0 1.52.33 1.52 1.75v2.86h-.45V8.86c0-.89-.41-1.4-1.15-1.4-.89 0-1.4.55-1.4 1.66v2.51h-.45V5Z"/><path d="M74.91 7.13h.45v4.5h-.45Zm0-2.13h.45v.87h-.45Z"/><path d="M78.76 9.42c0 1.23.64 1.9 1.41 1.9 1.19 0 1.51-.82 1.51-2.04 0-1.16-.28-1.83-1.43-1.83-.89 0-1.49.71-1.49 1.97M82.11 5v5.34c0 .43 0 .85.01 1.3h-.43c-.02-.11-.03-.53-.03-.76-.23.55-.73.86-1.51.86-1.17 0-1.87-.95-1.87-2.3 0-1.39.77-2.41 1.99-2.41.9 0 1.26.39 1.4.67V5Z"/><path d="M92.17 9.34h-.88c-1 0-1.62.26-1.62 1.03 0 .57.4.95 1.04.95 1.29 0 1.47-.85 1.47-1.83Zm.44 1.44c0 .4.04.71.06.86h-.43c-.04-.11-.06-.31-.08-.69-.15.33-.55.8-1.48.8-1.04 0-1.49-.67-1.49-1.35 0-.99.76-1.44 2.11-1.44h.86V8.49c0-.45-.13-1.05-1.16-1.05-.91 0-1.04.48-1.14.84h-.45c.05-.49.36-1.26 1.6-1.26 1.03 0 1.6.43 1.6 1.42Z"/><path d="M95.85 10.39c.15.59.57.94 1.28.94.8 0 1.12-.37 1.12-.87s-.21-.76-1.22-1.01c-1.16-.28-1.45-.63-1.45-1.22 0-.62.47-1.2 1.49-1.2s1.5.62 1.58 1.26H98.2c-.08-.38-.38-.85-1.14-.85-.78 0-1.01.39-1.01.75 0 .41.22.62 1.11.84 1.27.31 1.58.72 1.58 1.4 0 .82-.67 1.32-1.61 1.32-1.03 0-1.6-.54-1.73-1.35Z"/><path d="M101.76 10.39c.15.59.57.94 1.28.94.8 0 1.13-.37 1.13-.87s-.22-.76-1.23-1.01c-1.16-.28-1.45-.63-1.45-1.22 0-.62.47-1.2 1.48-1.2s1.5.62 1.58 1.26h-.45c-.08-.38-.38-.85-1.14-.85-.78 0-1.01.39-1.01.75 0 .41.22.62 1.11.84 1.27.31 1.59.72 1.59 1.4 0 .82-.67 1.32-1.61 1.32-1.03 0-1.6-.54-1.73-1.35Z"/><path d="M110.51 9.04c-.01-.89-.49-1.59-1.38-1.59-.93 0-1.35.65-1.45 1.59Zm-2.85.4c.01 1.16.59 1.88 1.46 1.88.85 0 1.14-.48 1.3-.85h.46c-.19.59-.67 1.27-1.77 1.27-1.37 0-1.9-1.18-1.9-2.32 0-1.29.64-2.4 1.95-2.4 1.39 0 1.83 1.2 1.83 2.04 0 .13 0 .25-.01.37Z"/><path d="M113.87 8.3c0-.39 0-.81-.01-1.16h.44c.01.15.03.54.02.8.19-.45.6-.91 1.35-.91.63 0 1.12.31 1.3.89.23-.47.67-.89 1.47-.89.69 0 1.41.4 1.41 1.65v2.96h-.45V8.73c0-.6-.22-1.26-1.05-1.26-.87 0-1.27.7-1.27 1.58v2.59h-.44V8.74c0-.66-.2-1.27-1.03-1.27-.87 0-1.3.77-1.3 1.69v2.48h-.45Z"/><path d="M126.49 9.29c0-1.12-.56-1.85-1.41-1.85-1.12 0-1.52.77-1.52 1.94 0 1.06.35 1.93 1.47 1.93.91 0 1.47-.75 1.47-2.02M123.13 5h.45V7.89c.22-.45.66-.86 1.54-.86 1.06 0 1.85.87 1.85 2.26 0 1.42-.7 2.46-1.96 2.46-.76 0-1.19-.31-1.42-.82 0 .29-.01.59-.02.71h-.44c.01-.51.01-1.03.01-1.54Z"/><path d="M129.88 11.64h.45V5h-.45Z" fill-rule="evenodd"/><path d="M133.58 7.13c.91 2.58 1.31 3.64 1.46 4.12h.01c.18-.55.54-1.59 1.41-4.12h.47l-1.69 4.76c-.48 1.33-.8 1.63-1.61 1.63-.16 0-.27-.01-.41-.03v-.45c.14.02.26.03.4.03.65 0 .86-.31 1.19-1.24l-1.72-4.7Z"/><path d="M138.87 11.63h.45V10.47h-.45Z" fill-rule="evenodd"/><path d="M149.18 9.34h-.88c-1 0-1.62.26-1.62 1.03 0 .57.4.95 1.03.95 1.29 0 1.47-.85 1.47-1.83Zm.44 1.44c0 .4.04.71.06.86h-.43c-.04-.11-.06-.31-.08-.69-.15.33-.55.8-1.48.8-1.04 0-1.49-.67-1.49-1.35 0-.99.76-1.44 2.12-1.44h.86V8.49c0-.45-.14-1.05-1.16-1.05-.91 0-1.05.48-1.14.84h-.45c.05-.49.36-1.26 1.6-1.26 1.03 0 1.6.43 1.6 1.42Z"/><path d="M152.9 11.64h.45V5h-.45Z" fill-rule="evenodd"/><path d="M156.63 11.64h.45V5h-.45Z" fill-rule="evenodd"/><path d="M164.5 8.36c0-.76-.01-1.08-.01-1.23h.44c.01.15.02.43.02 1.01.26-.68.84-1.08 1.57-1.12v.49c-.94.06-1.57.71-1.57 1.78v2.34h-.45Z"/><path d="M169.14 7.13h.45v4.5h-.45Zm0-2.13h.45v.87h-.45Z"/><path d="M172.98 9.37c0 1.07.57 1.84 1.43 1.84 1.12 0 1.47-.75 1.47-1.92 0-1.19-.36-1.85-1.44-1.85-1.03 0-1.46.89-1.46 1.92m3.32 1.96c0 1.44-.64 2.2-1.94 2.2-1.17 0-1.66-.66-1.77-1.34h.46c.16.62.67.92 1.32.92 1.17 0 1.49-.76 1.49-1.9v-.47c-.24.58-.68.9-1.5.9-1.05 0-1.86-.85-1.86-2.25 0-1.51.86-2.36 1.93-2.36.92 0 1.32.43 1.44.79.01-.26.02-.58.03-.68h.42c0 .16-.02.87-.02 1.31Z"/><path d="M180.03 5V7.89c.25-.47.69-.87 1.49-.87.64 0 1.52.33 1.52 1.75v2.86h-.45V8.86c0-.89-.4-1.4-1.15-1.4-.89 0-1.41.55-1.41 1.66v2.51h-.45V5Z"/><path d="M185.61 7.13h.84V5.73h.45v1.4h1.07v.42H186.9v2.93c0 .5.11.79.54.79.14 0 .32-.01.47-.05v.4c-.15.06-.37.08-.56.08-.58 0-.9-.29-.9-1.01V7.56h-.84Z"/><path d="M190.84 10.39c.15.59.57.94 1.28.94.8 0 1.13-.37 1.13-.87s-.22-.76-1.22-1.01c-1.16-.28-1.45-.63-1.45-1.22 0-.62.47-1.2 1.48-1.2s1.5.62 1.58 1.26h-.45c-.08-.38-.38-.85-1.14-.85-.78 0-1.01.39-1.01.75 0 .41.22.62 1.11.84 1.27.31 1.58.72 1.58 1.4 0 .82-.67 1.32-1.61 1.32-1.03 0-1.6-.54-1.73-1.35Z"/><path d="M200.78 8.36c0-.76-.01-1.08-.01-1.23h.44c.01.15.02.43.02 1.01.26-.68.84-1.08 1.57-1.12v.49c-.94.06-1.57.71-1.57 1.78v2.34h-.45Z"/><path d="M208.37 9.04c-.01-.89-.49-1.59-1.38-1.59-.93 0-1.35.65-1.45 1.59Zm-2.85.4c.01 1.16.59 1.88 1.46 1.88.85 0 1.13-.48 1.3-.85h.46c-.19.59-.67 1.27-1.77 1.27-1.37 0-1.9-1.18-1.9-2.32 0-1.29.64-2.4 1.95-2.4 1.39 0 1.83 1.2 1.83 2.04 0 .13 0 .25-.01.37Z"/><path d="M211.84 10.39c.15.59.57.94 1.28.94.8 0 1.13-.37 1.13-.87s-.22-.76-1.22-1.01c-1.16-.28-1.45-.63-1.45-1.22 0-.62.47-1.2 1.48-1.2s1.5.62 1.58 1.26h-.45c-.08-.38-.38-.85-1.14-.85-.78 0-1.01.39-1.01.75 0 .41.22.62 1.11.84 1.27.31 1.58.72 1.58 1.4 0 .82-.67 1.32-1.61 1.32-1.03 0-1.6-.54-1.73-1.35Z"/><path d="M220.59 9.04c-.01-.89-.49-1.59-1.38-1.59-.93 0-1.35.65-1.45 1.59Zm-2.85.4c.01 1.16.59 1.88 1.46 1.88.85 0 1.13-.48 1.3-.85h.46c-.19.59-.67 1.27-1.77 1.27-1.37 0-1.9-1.18-1.9-2.32 0-1.29.64-2.4 1.95-2.4 1.39 0 1.83 1.2 1.83 2.04 0 .13 0 .25-.01.37Z"/><path d="M223.96 8.36c0-.76-.01-1.08-.01-1.23h.44c.01.15.02.43.02 1.01.26-.68.84-1.08 1.57-1.12v.49c-.94.06-1.57.71-1.57 1.78v2.34h-.45Z"/><path d="M228.85 7.13c.73 2.06 1.23 3.47 1.4 4.04h.01c.1-.33.6-1.68 1.48-4.04h.48l-1.7 4.5h-.54l-1.6-4.5Z"/><path d="M237.85 9.04c-.01-.89-.49-1.59-1.38-1.59-.93 0-1.35.65-1.45 1.59Zm-2.85.4c.01 1.16.59 1.88 1.46 1.88.85 0 1.14-.48 1.3-.85h.46c-.19.59-.67 1.27-1.77 1.27-1.37 0-1.9-1.18-1.9-2.32 0-1.29.64-2.4 1.95-2.4 1.39 0 1.83 1.2 1.83 2.04 0 .13 0 .25-.01.37Z"/><path d="M241.38 9.42c0 1.23.64 1.9 1.41 1.9 1.19 0 1.51-.82 1.51-2.04 0-1.16-.28-1.83-1.43-1.83-.89 0-1.49.71-1.49 1.97M244.74 5v5.34c0 .43 0 .85.01 1.3h-.43c-.02-.11-.03-.53-.03-.76-.23.55-.73.86-1.51.86-1.17 0-1.87-.95-1.87-2.3 0-1.39.77-2.41 1.99-2.41.9 0 1.26.39 1.4.67V5Z"/><path d="M247.73 11.63h.45V10.47h-.45Z" fill-rule="evenodd"/></g></g></svg>