<?xml version="1.0" encoding="UTF-8"?><!DOCTYPE svg PUBLIC "-//W3C//DTD SVG 1.0//EN" "http://www.w3.org/TR/2001/REC-SVG-20010904/DTD/svg10.dtd" []><svg xmlns="http://www.w3.org/2000/svg" xmlns:xlink="http://www.w3.org/1999/xlink" height="31" stroke="#000" stroke-linecap="square" stroke-miterlimit="10" viewBox="0 0 162.13 31.38" width="162"><g><g fill="#fff" stroke="none"><path d="M9.48 9.93C8.89 8.19 8.54 7.15 8.37 6.5H8.36c-.18.72-.57 1.94-1.04 3.43ZM7.01 11.11l-.65 1.94H5L7.54 5.44H9.27l2.65 7.61H10.47l-.68-1.94Z"/><path d="M12.02 7.39h.88V5.82h1.32V7.39h1.12V8.44H14.22v2.97c0 .47.13.68.6.68.1 0 .26 0 .39-.03v.96c-.28.1-.66.11-.95.11-1 0-1.36-.54-1.36-1.52V8.44h-.88Z"/><path d="M15.48 7.39h.88V5.82h1.32V7.39H18.8V8.44H17.68v2.97c0 .47.13.68.59.68.1 0 .26 0 .39-.03v.96c-.28.1-.66.11-.95.11-.99 0-1.36-.54-1.36-1.52V8.44h-.88Z"/><path d="M22.92 10.41h-.71c-.97 0-1.4.3-1.4.93 0 .47.29.84.88.84 1.08 0 1.22-.77 1.22-1.61Zm1.29 1.25c0 .53.04 1.24.07 1.38H23.02c-.04-.12-.08-.41-.08-.62-.2.34-.59.75-1.59.75-1.31 0-1.87-.89-1.87-1.76 0-1.28.99-1.87 2.6-1.87h.83V9.16c0-.43-.14-.9-.96-.9-.73 0-.88.34-.96.76H19.74c.08-.93.64-1.77 2.27-1.76 1.42.01 2.2.59 2.2 1.92Z"/><path d="M25.78 7.39h1.32v5.65H25.78Zm0-2.39h1.32V6.34H25.78Z"/><path d="M28.67 8.82c0-.48 0-1-.01-1.42h1.29c.03.15.05.61.05.79.2-.4.64-.92 1.63-.92 1.08 0 1.82.73 1.82 2.18v3.61H32.12V9.59c0-.71-.25-1.21-.97-1.21-.77 0-1.16.52-1.16 1.56v3.1H28.67Z"/><path d="M39.25 8.74h1.43c.96 0 1.35-.38 1.35-1.09 0-.68-.43-1.07-1.29-1.07H39.25Zm0 1.15v3.15H37.9V5.44h3.11c1.57 0 2.42.89 2.42 2.07 0 1.01-.54 1.58-1.13 1.8.45.15.99.56.99 1.91v.36c0 .52 0 1.13.1 1.47H42.07c-.13-.33-.14-.91-.14-1.68v-.13c0-.92-.23-1.34-1.47-1.34Z"/><path d="M48.13 9.63c-.01-.75-.33-1.37-1.14-1.37s-1.14.58-1.21 1.37Zm-2.38.87c0 .86.42 1.59 1.23 1.59.71 0 .92-.33 1.08-.69h1.33c-.2.7-.8 1.78-2.44 1.78-1.78 0-2.53-1.41-2.53-2.88 0-1.74.86-3.03 2.59-3.03 1.84 0 2.46 1.43 2.46 2.77 0 .18 0 .32-.02.47Z"/><path d="M50.67 13.05h1.32V5H50.67Z" fill-rule="evenodd"/><path d="M56.92 9.63c-.01-.75-.33-1.37-1.14-1.37s-1.14.58-1.21 1.37Zm-2.38.87c0 .86.42 1.59 1.23 1.59.71 0 .92-.33 1.08-.69h1.33c-.2.7-.8 1.78-2.44 1.78-1.78 0-2.53-1.41-2.53-2.88 0-1.74.86-3.03 2.59-3.03 1.84 0 2.46 1.43 2.46 2.77 0 .18 0 .32-.02.47Z"/><path d="M60.3 7.39c.59 2.05 1.06 3.74 1.19 4.43h.01c.15-.83.7-2.53 1.29-4.43h1.33l-1.96 5.65H60.76L58.88 7.39Z"/><path d="M67.98 10.41h-.71c-.97 0-1.4.3-1.4.93 0 .47.29.84.88.84 1.08 0 1.22-.77 1.22-1.61Zm1.29 1.25c0 .53.04 1.24.07 1.38H68.08c-.04-.12-.07-.41-.08-.62-.2.34-.59.75-1.59.75-1.31 0-1.86-.89-1.86-1.76 0-1.28.99-1.87 2.6-1.87h.83V9.16c0-.43-.14-.9-.95-.9-.73 0-.88.34-.96.76H64.8c.08-.93.64-1.77 2.27-1.76 1.42.01 2.2.59 2.2 1.92Z"/><path d="M70.85 8.82c0-.48 0-1-.01-1.42h1.28c.03.15.05.61.05.79.2-.4.64-.92 1.63-.92 1.08 0 1.82.73 1.82 2.18v3.61H74.3V9.59c0-.71-.24-1.21-.97-1.21-.77 0-1.16.52-1.16 1.56v3.1H70.85Z"/><path d="M76.48 7.39h.88V5.82h1.32V7.39H79.8V8.44H78.69v2.97c0 .47.13.68.59.68.1 0 .26 0 .39-.03v.96c-.28.1-.66.11-.95.11-.99 0-1.36-.54-1.36-1.52V8.44h-.88Z"/><path d="M85.18 11.88h1.31c1.52 0 2.22-1.15 2.22-2.72 0-1.33-.64-2.56-2.21-2.56H85.18ZM83.8 5.44h2.82c2.12 0 3.52 1.46 3.52 3.71 0 2.23-1.36 3.89-3.58 3.89H83.8Z"/><path d="M94.53 10.41h-.71c-.97 0-1.39.3-1.39.93 0 .47.29.84.88.84 1.08 0 1.22-.77 1.22-1.61Zm1.29 1.25c0 .53.04 1.24.08 1.38H94.63c-.04-.12-.08-.41-.08-.62-.2.34-.59.75-1.59.75-1.31 0-1.87-.89-1.87-1.76 0-1.28.99-1.87 2.6-1.87h.83V9.16c0-.43-.14-.9-.96-.9-.73 0-.88.34-.96.76H91.35c.08-.93.63-1.77 2.27-1.76 1.42.01 2.2.59 2.2 1.92Z"/><path d="M96.7 7.39h.88V5.82H98.9V7.39h1.12V8.44H98.9v2.97c0 .47.13.68.59.68.1 0 .26 0 .39-.03v.96c-.28.1-.66.11-.95.11-.99 0-1.36-.54-1.36-1.52V8.44H96.7Z"/><path d="M104.14 10.41h-.71c-.97 0-1.39.3-1.39.93 0 .47.29.84.88.84 1.08 0 1.22-.77 1.22-1.61Zm1.29 1.25c0 .53.04 1.24.07 1.38h-1.26c-.04-.12-.08-.41-.08-.62-.2.34-.59.75-1.59.75-1.31 0-1.87-.89-1.87-1.76 0-1.28.99-1.87 2.6-1.87h.83V9.16c0-.43-.15-.9-.96-.9-.73 0-.88.34-.96.76h-1.26c.08-.93.64-1.77 2.27-1.76 1.42.01 2.2.59 2.2 1.92Z"/><path d="M109.92 5.44h5V6.62h-3.65V8.69h3.42V9.88h-3.42v3.17h-1.35Z"/><path d="M117.03 10.22c0 1.14.5 1.87 1.32 1.87.83 0 1.29-.72 1.29-1.86 0-1.21-.47-1.88-1.31-1.88-.81 0-1.3.64-1.3 1.87m3.96-.01c0 1.68-.96 2.97-2.68 2.97-1.65 0-2.63-1.25-2.63-2.94 0-1.72.99-2.98 2.7-2.98 1.58 0 2.61 1.18 2.61 2.95"/><path d="M122.21 8.93c0-.64 0-1.12-.01-1.54h1.3c.02.14.04.66.04 1.05.26-.69.87-1.17 1.79-1.18V8.58c-1.11-.01-1.79.4-1.79 1.91v2.56h-1.32Z"/><path d="M11.87 23.97c-.31 1.38-1.31 2.38-3.09 2.38-2.29 0-3.4-1.71-3.4-3.87 0-2.08 1.13-3.95 3.46-3.95 1.88 0 2.83 1.13 3.02 2.4H10.48c-.19-.67-.63-1.27-1.69-1.27-1.42 0-1.98 1.32-1.98 2.76 0 1.36.51 2.79 2.02 2.79 1.07 0 1.46-.7 1.65-1.25Z"/><path d="M16.18 23.61h-.71c-.97 0-1.4.3-1.4.93 0 .47.29.84.88.84 1.08 0 1.22-.77 1.22-1.61Zm1.29 1.25c0 .53.04 1.24.07 1.38H16.28c-.04-.12-.08-.4-.08-.62-.2.34-.59.75-1.59.75-1.31 0-1.87-.89-1.87-1.76 0-1.28.99-1.87 2.6-1.87h.83v-.39c0-.43-.14-.9-.96-.9-.73 0-.88.34-.96.76H13c.08-.93.64-1.77 2.27-1.76 1.42.01 2.2.59 2.2 1.92Z"/><path d="M19.04 26.25h1.32V18.2H19.04Z" fill-rule="evenodd"/><path d="M26.51 24.45c-.2.95-.84 1.93-2.4 1.93-1.64 0-2.53-1.19-2.53-2.92 0-1.65.95-3 2.6-3 1.76 0 2.28 1.3 2.32 1.97h-1.3c-.11-.5-.39-.88-1.05-.88-.79 0-1.23.71-1.23 1.86 0 1.23.46 1.89 1.21 1.89.58 0 .89-.34 1.06-.85Z"/><path d="M32.27 24.6c0 .55 0 1.2.01 1.64h-1.3c-.02-.15-.03-.47-.04-.72-.31.59-.8.85-1.56.85-1.05 0-1.82-.62-1.82-2.09v-3.7h1.32v3.42c0 .67.2 1.24.94 1.24.8 0 1.12-.45 1.12-1.66V20.59h1.32Z"/><path d="M33.82 26.25h1.32V18.2H33.82Z" fill-rule="evenodd"/><path d="M39.74 23.61h-.71c-.97 0-1.39.3-1.39.93 0 .47.29.84.88.84 1.08 0 1.22-.77 1.22-1.61Zm1.29 1.25c0 .53.04 1.24.07 1.38H39.84c-.04-.12-.08-.4-.08-.62-.2.34-.59.75-1.59.75-1.31 0-1.87-.89-1.87-1.76 0-1.28.99-1.87 2.6-1.87h.83v-.39c0-.43-.15-.9-.96-.9-.73 0-.88.34-.96.76H36.56c.08-.93.64-1.77 2.27-1.76 1.42.01 2.2.59 2.2 1.92Z"/><path d="M41.92 20.59h.88V19.01h1.32v1.58h1.12v1.05H44.12v2.97c0 .47.13.68.6.68.1 0 .26 0 .39-.03v.96c-.28.1-.66.11-.95.11-.99 0-1.36-.54-1.36-1.52V21.64h-.88Z"/><path d="M46.24 20.59h1.32v5.65H46.24Zm0-2.39h1.32v1.34H46.24Z"/><path d="M50.12 23.42c0 1.14.5 1.87 1.32 1.87.83 0 1.29-.72 1.29-1.86 0-1.21-.47-1.88-1.31-1.88-.81 0-1.3.64-1.3 1.87m3.96-.01c0 1.68-.96 2.97-2.68 2.97-1.65 0-2.63-1.25-2.63-2.94 0-1.72.99-2.98 2.7-2.98 1.58 0 2.61 1.18 2.61 2.95"/><path d="M55.31 22.02c0-.48 0-1-.01-1.43h1.28c.03.15.05.61.05.79.2-.4.64-.92 1.63-.92 1.08 0 1.82.73 1.82 2.18v3.61H58.76V22.79c0-.71-.24-1.21-.97-1.21-.77 0-1.16.52-1.16 1.56v3.1H55.31Z"/><path d="M65.59 22.41c0 1.54.69 2.77 2.1 2.77 1.52 0 2.08-1.3 2.08-2.75 0-1.51-.64-2.73-2.1-2.73s-2.08 1.18-2.08 2.71m5.61 0c0 2.11-1.2 3.95-3.57 3.95-2.26 0-3.47-1.73-3.47-3.91 0-2.2 1.3-3.91 3.57-3.91 2.13 0 3.47 1.58 3.47 3.88"/><path d="M72.87 26.25v-4.6h-.83V20.59h.83v-.56c0-1.12.5-1.94 1.7-1.94.23 0 .54.03.67.07v1.1c-.1-.02-.24-.03-.37-.03-.49 0-.67.23-.67.91v.46h1v1.05h-1v4.6Z"/><path d="M85.07 26.25H84.05c-.06-.2-.09-.49-.11-.85-.38.56-1.07.97-2.2.97-2.13 0-3.3-1.67-3.3-3.83 0-2.28 1.26-4 3.55-4 1.83 0 2.94 1.05 3.12 2.37H83.72c-.18-.63-.64-1.24-1.76-1.24-1.58 0-2.1 1.34-2.1 2.8 0 1.4.56 2.75 2.09 2.75 1.46 0 1.76-1.03 1.76-1.92v-.07H81.95V22.04h3.12Z"/><path d="M86.85 18.64h1.38v3.04H91.5V18.64h1.38v7.61H91.5V22.86H88.24v3.39H86.85Z"/><path d="M101.07 26.25h-1.02c-.06-.2-.09-.49-.11-.85-.38.56-1.07.97-2.2.97-2.13 0-3.3-1.67-3.3-3.83 0-2.28 1.26-4 3.55-4 1.83 0 2.94 1.05 3.12 2.37H99.72c-.18-.63-.64-1.24-1.76-1.24-1.58 0-2.1 1.34-2.1 2.8 0 1.4.56 2.75 2.09 2.75 1.46 0 1.77-1.03 1.77-1.92v-.07H97.95V22.04h3.12Z"/><path d="M110.48 22.87H106.9v2.19h3.93l-.17 1.18h-5.11V18.64h5.08v1.18H106.9v1.87h3.57Z"/><path d="M111.94 22.05c0-.49 0-.98-.01-1.46h1.27c.02.15.05.5.05.74.27-.45.72-.87 1.55-.87.78 0 1.25.42 1.45.91.31-.49.8-.91 1.71-.91.93 0 1.73.59 1.73 2.07v3.71h-1.29V22.7c0-.56-.2-1.12-.89-1.12-.73 0-1.02.52-1.02 1.43v3.24h-1.3v-3.5c0-.63-.16-1.16-.88-1.16-.7 0-1.04.51-1.04 1.51v3.15h-1.31Z"/><path d="M121.23 20.59h1.32v5.65h-1.32Zm0-2.39h1.32v1.34h-1.32Z"/><path d="M124.95 24.57c.13.51.51.8 1.14.8.64 0 .88-.26.88-.66 0-.42-.24-.6-1.11-.82-1.71-.43-2.01-.98-2.01-1.76 0-.82.57-1.67 2.14-1.67s2.14.91 2.2 1.68h-1.26c-.06-.26-.24-.7-.99-.7-.59 0-.77.28-.77.57 0 .33.19.49 1.12.71 1.77.43 2.05 1.05 2.05 1.88 0 .96-.71 1.76-2.28 1.76-1.58 0-2.27-.8-2.4-1.8Z"/><path d="M130.44 24.57c.13.51.51.8 1.14.8.64 0 .88-.26.88-.66 0-.42-.24-.6-1.11-.82-1.71-.43-2.01-.98-2.01-1.76 0-.82.57-1.67 2.14-1.67s2.14.91 2.2 1.68h-1.26c-.06-.26-.24-.7-.99-.7-.59 0-.77.28-.77.57 0 .33.19.49 1.12.71 1.77.43 2.05 1.05 2.05 1.88 0 .96-.71 1.76-2.28 1.76-1.58 0-2.27-.8-2.4-1.8Z"/><path d="M134.99 20.59h1.32v5.65h-1.32Zm0-2.39h1.32v1.34h-1.32Z"/><path d="M138.87 23.42c0 1.14.5 1.87 1.32 1.87.83 0 1.29-.72 1.29-1.86 0-1.21-.47-1.88-1.31-1.88-.81 0-1.3.64-1.3 1.87m3.96-.01c0 1.68-.96 2.97-2.68 2.97-1.65 0-2.63-1.25-2.63-2.94 0-1.72.99-2.98 2.7-2.98 1.58 0 2.61 1.18 2.61 2.95"/><path d="M144.05 22.02c0-.48 0-1-.01-1.43h1.28c.03.15.05.61.05.79.2-.4.64-.92 1.63-.92 1.08 0 1.82.73 1.82 2.18v3.61H147.5V22.79c0-.71-.24-1.21-.97-1.21-.77 0-1.16.52-1.16 1.56v3.1h-1.32Z"/><path d="M151.18 24.57c.13.51.52.8 1.14.8.64 0 .88-.26.88-.66 0-.42-.24-.6-1.11-.82-1.71-.43-2.01-.98-2.01-1.76 0-.82.57-1.67 2.14-1.67s2.14.91 2.2 1.68h-1.26c-.06-.26-.24-.7-.99-.7-.59 0-.78.28-.78.57 0 .33.19.49 1.12.71 1.77.43 2.05 1.05 2.05 1.88 0 .96-.71 1.76-2.28 1.76-1.58 0-2.27-.8-2.4-1.8Z"/><path d="M155.72 26.25h1.41V24.42h-1.41Z" fill-rule="evenodd"/></g></g></svg>