<?xml version="1.0" encoding="UTF-8"?><!DOCTYPE svg PUBLIC "-//W3C//DTD SVG 1.0//EN" "http://www.w3.org/TR/2001/REC-SVG-20010904/DTD/svg10.dtd" []><svg xmlns="http://www.w3.org/2000/svg" xmlns:xlink="http://www.w3.org/1999/xlink" height="38" stroke="#000" stroke-linecap="square" stroke-miterlimit="10" viewBox="0 0 123.39 38.35" width="123"><g><g fill="#FB03A0" stroke="none"><path d="M5 33.35H118.39V5H5Z" fill-rule="evenodd"/><path d="M31.4 20.33c-.38 1.8-1.69 3.11-4.03 3.11-2.97 0-4.37-2.17-4.37-4.91 0-2.65 1.45-5.02 4.46-5.02 2.49 0 3.7 1.51 3.93 3.12H29.37c-.2-.74-.7-1.49-1.97-1.49-1.67 0-2.31 1.55-2.31 3.31 0 1.63.56 3.35 2.37 3.35 1.32 0 1.74-.91 1.91-1.48Z" fill="#fff"/><path d="M39.04 19.37c-.66-2.04-1.09-3.34-1.31-4.21h-.01c-.23.95-.7 2.47-1.23 4.21Zm-2.98 1.71l-.73 2.23H33.35l3.18-9.66h2.54l3.31 9.66H40.25l-.77-2.23Z" fill="#fff"/><path d="M45.82 15.36H42.98V13.65h7.7v1.71H47.84v7.95H45.82Z" fill="#fff"/><path d="M59.71 19.14H55.24V21.6h4.93l-.24 1.71H53.28V13.65h6.63v1.71H55.24v2.07h4.47Z" fill="#fff"/><path d="M64.95 17.78h1.7c1.11 0 1.54-.43 1.54-1.24 0-.79-.5-1.23-1.49-1.23H64.95Zm0 1.66v3.86H62.97V13.65h4.11c2.04 0 3.14 1.16 3.14 2.65 0 1.3-.68 2-1.36 2.29.46.18 1.16.67 1.16 2.4v.48c0 .65.01 1.39.13 1.84H68.24c-.16-.42-.19-1.14-.19-2.17V21c0-1.06-.26-1.56-1.77-1.56Z" fill="#fff"/><path d="M79.8 19.14H75.33V21.6h4.93l-.24 1.71H73.37V13.65H80v1.71H75.33v2.07H79.8Z" fill="#fff"/><path d="M85.04 17.78h1.7c1.11 0 1.53-.43 1.53-1.24 0-.79-.5-1.23-1.49-1.23H85.04Zm0 1.66v3.86H83.06V13.65h4.11c2.04 0 3.14 1.16 3.14 2.65 0 1.3-.68 2-1.36 2.29.46.18 1.16.67 1.16 2.4v.48c0 .65.01 1.39.13 1.84H88.33c-.16-.42-.2-1.14-.2-2.17V21c0-1.06-.26-1.56-1.76-1.56Z" fill="#fff"/><path d="M94.91 20.48c.21.97.89 1.4 1.97 1.4s1.54-.44 1.54-1.15c0-.79-.45-1.13-2.05-1.51-2.54-.62-3.18-1.57-3.18-2.88 0-1.68 1.22-2.83 3.43-2.83 2.48 0 3.47 1.38 3.61 2.79H98.2c-.1-.59-.42-1.24-1.62-1.24-.82 0-1.32.35-1.32 1.04 0 .67.4.94 1.91 1.31 2.72.66 3.32 1.71 3.32 3.07 0 1.76-1.29 2.97-3.76 2.97-2.37 0-3.62-1.21-3.85-2.97Z" fill="#fff"/></g></g></svg>