<?xml version="1.0" encoding="UTF-8"?><!DOCTYPE svg PUBLIC "-//W3C//DTD SVG 1.0//EN" "http://www.w3.org/TR/2001/REC-SVG-20010904/DTD/svg10.dtd" []><svg xmlns="http://www.w3.org/2000/svg" xmlns:xlink="http://www.w3.org/1999/xlink" height="38" stroke="#000" stroke-linecap="square" stroke-miterlimit="10" viewBox="0 0 123.39 38.35" width="123"><g><g fill="#FB03A0" stroke="none"><path d="M5 33.35H118.39V5H5Z" fill-rule="evenodd"/><path d="M34.28 23.31l-3.3-9.66h2.17l1.39 4.46c.42 1.35.74 2.49.96 3.48h.03c.19-.9.56-2.08 1-3.45l1.46-4.49h2.06l-3.39 9.66Z" fill="#fff"/><path d="M48.97 19.14H44.5V21.6h4.93l-.24 1.71H42.54V13.65h6.63v1.71H44.5v2.07h4.47Z" fill="#fff"/><path d="M52.23 23.31V13.65h2.51c1.17 2.17 3.33 6.08 3.76 7.13h.03c-.1-1.01-.1-2.69-.1-4.27V13.65h1.83v9.66H57.87c-1.01-1.89-3.4-6.38-3.86-7.5h-.03c.07.85.09 2.83.09 4.56v2.94Z" fill="#fff"/><path d="M65.74 13.65V19.4c0 1.85.92 2.4 1.93 2.4 1.16 0 1.88-.65 1.88-2.4V13.65h2.02V19.3c0 3.3-1.87 4.14-3.93 4.14-2.11 0-3.93-.88-3.93-4.1V13.65Z" fill="#fff"/><path d="M81.5 19.14H77.02V21.6h4.93l-.24 1.71H75.06V13.65h6.63v1.71H77.02v2.07H81.5Z" fill="#fff"/><path d="M86.29 20.48c.21.97.89 1.4 1.97 1.4s1.54-.44 1.54-1.15c0-.79-.45-1.13-2.05-1.51-2.55-.62-3.18-1.57-3.18-2.88 0-1.68 1.22-2.83 3.43-2.83 2.48 0 3.47 1.38 3.61 2.79H89.58c-.1-.59-.42-1.24-1.62-1.24-.82 0-1.32.35-1.32 1.04 0 .67.4.94 1.91 1.31 2.72.66 3.32 1.71 3.32 3.07 0 1.76-1.29 2.97-3.76 2.97-2.37 0-3.62-1.21-3.85-2.97Z" fill="#fff"/></g></g></svg>