<?xml version="1.0" encoding="UTF-8"?><!DOCTYPE svg PUBLIC "-//W3C//DTD SVG 1.0//EN" "http://www.w3.org/TR/2001/REC-SVG-20010904/DTD/svg10.dtd" []><svg xmlns="http://www.w3.org/2000/svg" xmlns:xlink="http://www.w3.org/1999/xlink" height="25" stroke="#000" stroke-linecap="square" stroke-miterlimit="10" viewBox="0 0 121.24 24.66" width="121"><g><g fill="#fff" stroke="none"><path d="M25.68 12.67c-.54 0-.91.52-.91 1.28 0 .79.34 1.34.92 1.34.6 0 .98-.51.98-1.29 0-.9-.39-1.32-.99-1.32"/><path d="M40 12.38c-.67 0-1.05.38-1.05.99H41c0-.52-.47-.99-1-.99"/><path d="M18.59 12.38c-.67 0-1.05.38-1.05.99h2.05c0-.52-.46-.99-1-.99"/><path d="M32.82 12.67c-.54 0-.91.52-.91 1.28 0 .79.34 1.34.93 1.34s.98-.51.98-1.29c0-.9-.39-1.32-.99-1.32"/><path d="M56.32 13.76c-.1.74-.48 1.31-1.3 1.31-1.29 0-1.53-1.02-1.53-2.11 0-1.49.54-2.25 1.43-2.25.79 0 1.3.46 1.38 1.27H58.7c-.2-1.99-1.52-3.16-3.89-3.16-2.16 0-3.86 1.56-3.86 4.06 0 2.51 1.55 4.08 4.1 4.08 2.04 0 3.47-1.2 3.7-3.2Z"/><path d="M62.36 12.48c.58-.03.95.59.95 1.42 0 1.06-.37 1.53-.97 1.53-.57 0-.97-.46-.97-1.53 0-.63.23-1.42.99-1.42m-3.23 1.54c0 1.92 1.4 2.91 3.2 2.91s3.2-.97 3.2-3.03c0-1.75-1.23-2.92-3.21-2.92-1.9 0-3.19 1.08-3.19 3.04"/><path d="M69.95 10.97c-.87 0-1.42.42-1.73 1.3H68.2V11.13H66.17v5.63H68.4V14.82c0-1.21.46-1.64 1.37-1.64.15 0 .31.04.46.07V11c-.1-.01-.19-.03-.29-.03"/><path d="M73.64 15.22c-.58 0-.91-.54-.91-1.32 0-.75.37-1.27.9-1.27.59 0 .98.42.98 1.31 0 .78-.38 1.28-.97 1.28m.69-4.24c-.65 0-1.45.31-1.76 1h-.02v-.84H70.53v7.54h2.23V16.21c.38.47.83.72 1.44.72 1.26 0 2.63-.81 2.63-3.02 0-1.55-.82-2.93-2.52-2.93"/><path d="M80.48 15.42c-.57 0-.97-.46-.97-1.53 0-.64.23-1.42.99-1.42.58-.03.95.59.95 1.42 0 1.06-.36 1.53-.97 1.53m-.01-4.45c-1.9 0-3.19 1.08-3.19 3.04 0 1.92 1.4 2.91 3.2 2.91s3.2-.97 3.2-3.03c0-1.75-1.23-2.92-3.21-2.92"/><path d="M86.36 12.27h-.02V11.13H84.31v5.63h2.24V14.82c0-1.21.46-1.64 1.38-1.64.15 0 .31.04.46.07V11c-.1-.01-.19-.03-.29-.03-.87 0-1.42.42-1.73 1.3"/><path d="M91.49 15.66c-.44 0-.71-.19-.71-.47 0-.73.96-.56 1.7-.91.05.77-.2 1.39-.99 1.39m3.22.28V13.3c0-1.34-.16-2.33-2.83-2.33-2.23 0-3.07.7-3.07 1.89h2.15c.05-.48.47-.55.78-.55.24 0 .73.05.73.46 0 1.05-4.01-.11-4.01 2.45 0 1.17.95 1.7 2.01 1.7.84 0 1.48-.17 2.12-.76l.11.6h2.31v-.11c-.29-.24-.3-.4-.3-.72"/><path d="M98.23 9.38h-2.2v1.75H95.2v1.29h.79v2.35c0 1.95.36 2.15 3.29 1.99v-1.6h-.35c-.62 0-.7-.18-.7-.7V12.42H99.3V11.13H98.23Z"/><path d="M100.16 10.41h2.23V8.82h-2.23Z" fill-rule="evenodd"/><path d="M100.17 16.77h2.23V11.13h-2.23Z" fill-rule="evenodd"/><path d="M106.33 15.42c-.57 0-.97-.46-.97-1.53 0-.64.23-1.42.99-1.42.58-.03.95.59.95 1.42 0 1.06-.37 1.53-.97 1.53m-.01-4.45c-1.9 0-3.19 1.08-3.19 3.04 0 1.92 1.4 2.91 3.2 2.91s3.2-.97 3.2-3.03c0-1.75-1.22-2.92-3.21-2.92"/><path d="M114.06 10.97c-.85 0-1.4.36-1.9 1.04v-.88h-2.04v5.63h2.24V13.9c0-.72.18-1.16.87-1.16.64 0 .79.49.79 1.05v2.98h2.23V13.39c0-1.55-.7-2.42-2.18-2.42"/><path d="M46.31 16.85H44.05V9.03h2.26Zm-6.25-1.22c.36 0 .68-.16.85-.5h2.16c-.39 1.41-1.83 1.88-3.15 1.88-1.82 0-3.24-1.04-3.24-2.95 0-1.87 1.4-3.06 3.23-3.06 2.11 0 3.38 1.45 3.35 3.52H38.94c0 .67.52 1.12 1.12 1.12m-6.66 1.38c-.62 0-1.07-.25-1.46-.73v2.5H29.69V11.16h2.03v.85h.02c.32-.7 1.13-1.01 1.78-1.01 1.72 0 2.54 1.4 2.54 2.96 0 2.24-1.39 3.05-2.66 3.05m-7.14 0c-.62 0-1.07-.25-1.46-.73v2.5H22.55V11.16h2.03v.85h.02c.31-.7 1.13-1.01 1.78-1.01 1.72 0 2.54 1.4 2.54 2.96 0 2.24-1.39 3.05-2.66 3.05m-7.61-1.38c.36 0 .68-.16.85-.5h2.16c-.39 1.41-1.82 1.88-3.15 1.88-1.82 0-3.24-1.04-3.24-2.95 0-1.87 1.4-3.06 3.22-3.06 2.11 0 3.38 1.45 3.35 3.52H17.53c0 .67.52 1.12 1.12 1.12m-3.62 1.2h-2.5L9.97 12.6 12.65 9.1h2.47l-2.64 3.53Zm-5.1 0H7.77V9.11H9.94Zm8.71-9.11L17.63 9.08l-2.49 0 1.05-1.37H5V19.66H49.04V7.72Z"/><path d="M16.19 7.71L18.28 5h2.42L18.67 7.71"/></g></g></svg>