<?xml version="1.0" encoding="UTF-8"?><!DOCTYPE svg PUBLIC "-//W3C//DTD SVG 1.0//EN" "http://www.w3.org/TR/2001/REC-SVG-20010904/DTD/svg10.dtd" []><svg xmlns="http://www.w3.org/2000/svg" xmlns:xlink="http://www.w3.org/1999/xlink" height="341" stroke="#000" stroke-linecap="square" stroke-miterlimit="10" viewBox="0 0 54.91 340.75" width="55"><g><g fill="#fff" stroke="#fff" stroke-linecap="butt" stroke-width=".8"><path d="M16.7 300.56H49.51V5.4H16.7Z" fill="none"/><path d="M5 335.75H41.94V286.41H5Z" fill="#FB03A0" fill-rule="evenodd" stroke="none"/><path d="M36.87 264.85v1.62c-.26.02-.82-.04-1.14-.09.93.68 1.28 1.56 1.28 2.82 0 2.37-1.78 3.57-4.21 3.57-3.08 0-6.51-1.77-6.51-5.52 0-2.39 1.43-3.78 3.35-3.79v2.07c-.76.05-1.65.53-1.65 1.97 0 2.19 2.61 3.13 4.66 3.13 1.59 0 2.65-.62 2.65-2.03 0-1.71-1.16-2.22-2.39-2.46l-.05-.01v2.33l-1.87-.39v-4.29Z" stroke="none"/><path d="M31.36 261.72c-.77-.16-1.6-.31-2.32-.44v-1.92c.2.01.78.08 1.42.22-.94-.52-1.57-1.2-1.57-2.52l2.06.41c.02 1.38.8 2.36 2.51 2.71l3.4.7v1.99Z" stroke="none"/><path d="M32.05 251.64c-.15-.03-.26-.03-.35-.03-.69 0-1.27.29-1.27 1.17 0 .91.6 1.47 1.62 1.73Zm1.37 3.13c.17.03.3.05.47.05.83 0 1.55-.3 1.55-1.2 0-.81-.45-1.16-.95-1.42v-2.07c1.16.42 2.54 1.39 2.54 3.66 0 2.04-1.32 3.04-3.21 3.04-2.06 0-4.92-1.1-4.92-4.11 0-2.23 1.41-3.01 3.01-3.01.63 0 1.08.08 1.52.2Z" stroke="none"/><path d="M32.05 243.47c-.15-.03-.26-.03-.35-.03-.69 0-1.27.29-1.27 1.17 0 .91.6 1.47 1.62 1.73Zm1.37 3.13c.17.03.3.05.47.05.83 0 1.55-.3 1.55-1.2 0-.81-.45-1.17-.95-1.42v-2.07c1.16.42 2.54 1.39 2.54 3.66 0 2.04-1.32 3.04-3.21 3.04-2.06 0-4.92-1.1-4.92-4.11 0-2.23 1.41-3.01 3.01-3.01.63 0 1.08.08 1.52.2Z" stroke="none"/><path d="M31.03 239.56c-.67-.13-1.33-.27-1.99-.38v-1.95c.22.01.78.1.98.15-.47-.35-1.13-1.02-1.13-2.29 0-1.49.93-2.35 3.25-1.87l4.73.97v1.98l-4.75-.97c-.88-.19-1.51 0-1.51.85 0 .97.76 1.58 2.21 1.88l4.05.83v1.99Z" stroke="none"/><path d="M26.44 226.13v-2.06l8.68 1.78V221l1.75.58v6.69Z" stroke="none"/><path d="M33.8 217.87c1.09 0 1.62-.44 1.62-1.22 0-1.43-2.04-1.99-3.38-1.99-1.02 0-1.56.41-1.56 1.24 0 1.38 2.03 1.97 3.31 1.97m-1.55-5.27c1.84 0 4.77 1.04 4.77 4.26 0 2.11-1.33 3.08-3.23 3.08-2.1 0-4.89-1.29-4.89-4.19 0-1.82 1.06-3.15 3.36-3.15" stroke="none"/><path d="M33.59 209.35c.97 0 1.52-.4 1.52-1.23 0-1.06-.92-1.71-2.35-2.02-1.06-.22-2.21-.16-2.21 1.18 0 1.38 1.65 2.06 3.04 2.06m2.14-4.51c2.53.52 4.29 1.2 4.29 4.15 0 2.84-1.57 3.09-2.49 3.1v-2.02c.47-.03.95-.33.95-1.24 0-1.15-.73-1.6-2.4-1.96l-.24-.05c.64.5.94 1.14.94 2.12 0 1.63-1.23 2.51-3.04 2.51-2.31 0-4.85-1.44-4.85-3.85 0-1.17.44-1.81.93-2.01-.24-.06-.62-.2-.78-.26v-1.91c.58.13 1.3.29 1.95.43Z" stroke="none"/><path d="M29.04 201.41v-1.99l7.83 1.6v1.99Zm-3.21-.65v-1.99l1.93.4v1.99Z" stroke="none"/><path d="M34.45 196.95c.68-.05 1.04-.48 1.04-1.31 0-.78-.37-1.09-.88-1.09-.5 0-.75.4-1.06 1.35-.56 1.78-1.2 2.32-2.17 2.32-1.42 0-2.49-1.07-2.49-3.09 0-2.11 1.11-3.06 2.36-3v2.02c-.42.02-.84.23-.84 1.09 0 .49.17.99.72.99.42 0 .58-.4.89-1.34.57-1.77 1.3-2.39 2.38-2.39 1.8 0 2.63 1.57 2.63 3.37 0 2.02-.94 3.19-2.57 3.11Z" stroke="none"/><path d="M29.04 190.9v-1.12l-2.11-.44v-1.98l2.11.43v-1.43l1.57.34v1.43l3.94.79c.49.1.81.06.81-.54 0-.23-.02-.43-.05-.65l1.49.3c.15.45.15.93.15 1.35 0 1.58-.93 1.82-2.3 1.55l-4.03-.82v1.12Z" stroke="none"/><path d="M29.04 184.91v-1.99l7.83 1.6v1.99Zm-3.21-.65v-1.99l1.93.4v1.99Z" stroke="none"/><path d="M34.31 175.56c1.48.42 2.71 1.43 2.71 3.68 0 1.91-1.17 2.93-3.03 2.93-2.28 0-5.1-1.27-5.1-4.08 0-2.46 1.79-3.08 2.79-2.98v1.94c-.6.02-1.22.21-1.22 1.1 0 1.4 2.18 1.96 3.42 1.96 1.09 0 1.58-.43 1.58-1.13 0-.67-.38-1.12-1.15-1.43Z" stroke="none"/><path d="M34.45 172.54c.68-.05 1.04-.48 1.04-1.31 0-.78-.37-1.09-.88-1.09-.5 0-.75.4-1.06 1.35-.56 1.78-1.2 2.32-2.17 2.32-1.42 0-2.49-1.07-2.49-3.09 0-2.11 1.11-3.06 2.36-3v2.02c-.42.02-.84.23-.84 1.09 0 .49.17.99.72.99.42 0 .58-.4.89-1.34.57-1.77 1.3-2.39 2.38-2.39 1.8 0 2.63 1.57 2.63 3.37 0 2.02-.94 3.19-2.57 3.11Z" stroke="none"/><path d="M30.69 152.38l3.59 3.04c1.6 1.36 2.75 2.16 2.75 4.44 0 1.96-1.29 3.02-2.82 3.02-1.56 0-2.58-.94-3.51-3.43-.52-1.33-1.17-1.99-2-1.99-.42 0-.93.19-.93.82 0 .68.56.98 1.09.98.5 0 1.02-.16 1.63-.8l6.38-5.32v2.48l-5.42 4.6c-.66.51-1.4.93-2.33.93-1.58 0-2.83-.98-2.83-2.9 0-1.89 1.26-2.59 2.41-2.59 1.34 0 2.18.72 3.11 2.99.73 1.79 1.33 2.21 2.1 2.21.65 0 1.25-.48 1.25-1.35 0-.95-.47-1.57-1.97-2.82l-2.51-2.09Z" stroke="none"/><path d="M32.96 139.21c-1.78-.36-3.87-.81-5.04-1.09v.06c2.11.89 5.69 2.53 8.96 4.08v1.79c-2.57.14-7.01.38-8.98.38v.07c1.21.16 3.46.58 5.25.95l3.74.77v1.91l-10.43-2.14v-3.12c2.54-.16 6.1-.32 7.65-.32v-.02c-1.41-.53-4.8-2.23-7.65-3.55v-3.12L36.87 138v2.01Z" stroke="none"/><path d="M33.35 130.82c0 .49.04.92.09 1.31.17 1.12.55 1.56 1.21 1.56.45 0 .8-.28.8-.92 0-1.38-1.15-1.72-1.98-1.91Zm1.6-1.65c.81.17 1.69.33 1.92.34v1.94c-.22-.02-.63-.07-.88-.11.49.38 1.03.88 1.03 2.29 0 1.49-1.09 2.12-2.01 2.12-2.18 0-2.76-1.85-2.95-3.52-.06-.63-.06-1.22-.08-1.7l-.37-.07c-.57-.11-1.31-.11-1.31.96 0 .95.53 1.12.91 1.29v2.03c-1.26-.29-2.33-1.13-2.33-3.49 0-1.84.79-3.2 2.84-2.78Z" stroke="none"/><path d="M29.04 126.85v-1.12l-2.11-.44V123.3l2.11.43v-1.43l1.57.34v1.43l3.94.8c.49.1.81.05.81-.54 0-.23-.02-.43-.05-.65l1.49.3c.15.45.15.93.15 1.35 0 1.58-.93 1.82-2.3 1.55l-4.03-.82v1.12Z" stroke="none"/><path d="M32.05 117.01c-.15-.03-.26-.03-.35-.03-.69 0-1.27.29-1.27 1.17 0 .91.6 1.47 1.62 1.73Zm1.37 3.13c.17.03.3.05.47.05.83 0 1.55-.3 1.55-1.2 0-.81-.45-1.16-.95-1.42v-2.07c1.16.42 2.54 1.39 2.54 3.66 0 2.04-1.32 3.03-3.21 3.03-2.06 0-4.92-1.09-4.92-4.11 0-2.23 1.41-3.01 3.01-3.01.63 0 1.08.08 1.52.2Z" stroke="none"/><path d="M31.36 113.16c-.77-.16-1.6-.31-2.32-.44V110.8c.2.01.78.08 1.42.22-.94-.52-1.57-1.2-1.57-2.52l2.06.41c.02 1.38.8 2.36 2.51 2.71l3.4.7v1.99Z" stroke="none"/><path d="M29.04 107.04v-1.99l7.83 1.6v1.99Zm-3.21-.65V104.4l1.93.4v1.99Z" stroke="none"/><path d="M33.35 99.71c0 .49.04.92.09 1.31.17 1.12.55 1.56 1.21 1.56.45 0 .8-.28.8-.93 0-1.37-1.15-1.72-1.98-1.91Zm1.6-1.65c.81.17 1.69.33 1.92.34v1.94c-.22-.02-.63-.07-.88-.11.49.38 1.03.88 1.03 2.29 0 1.49-1.09 2.12-2.01 2.12-2.18 0-2.76-1.85-2.95-3.52-.06-.63-.06-1.22-.08-1.7l-.37-.07c-.57-.11-1.31-.11-1.31.96 0 .95.53 1.12.91 1.29v2.03c-1.26-.29-2.33-1.13-2.33-3.49 0-1.84.79-3.2 2.84-2.78Z" stroke="none"/><path d="M36.87 96.39L25.83 94.13V92.14L36.87 94.4Z" stroke="none"/><path d="M34.45 90.33c.68-.05 1.04-.48 1.04-1.31 0-.78-.37-1.09-.88-1.09-.5 0-.75.4-1.06 1.35-.56 1.78-1.2 2.32-2.17 2.32-1.42 0-2.49-1.07-2.49-3.09 0-2.11 1.11-3.06 2.36-3v2.02c-.42.02-.84.23-.84 1.09 0 .49.17.99.72.99.42 0 .58-.4.89-1.34.57-1.77 1.3-2.39 2.38-2.39 1.8 0 2.63 1.57 2.63 3.37 0 2.02-.94 3.19-2.57 3.11Z" stroke="none"/><path d="M33.67 78.94c1.05-.08 1.71-.73 1.71-2.01 0-1.1-.41-1.72-1.36-1.72-.81 0-1.24.49-1.71 1.83-.73 2.05-1.58 2.81-2.89 2.81-1.68 0-3.12-1.15-3.12-3.71 0-2.34 1.25-3.62 3.08-3.66v2.1c-.63.05-1.41.32-1.41 1.65 0 .86.4 1.49 1.21 1.49.58 0 .95-.32 1.41-1.62.74-2.05 1.59-3.07 3.16-3.07 1.66 0 3.27.98 3.27 4.09 0 2.52-1.32 3.85-3.36 3.91Z" stroke="none"/><path d="M34.78 65.24c.69.15 1.46.29 2.09.39v1.95c-.22-.01-.8-.1-1.08-.16.85.57 1.23 1.38 1.23 2.4 0 1.41-.97 2.22-2.76 1.85l-5.21-1.08V68.62l4.94 1.02c.81.17 1.34.04 1.34-.8 0-.87-.71-1.62-2.45-1.98l-3.84-.8V64.07Z" stroke="none"/><path d="M32.18 57.57c-1.12 0-1.59.5-1.59 1.26 0 1.08 1.03 1.81 2.4 2.08 1.3.26 2.35.06 2.35-1.2 0-1.49-1.84-2.14-3.17-2.14m3.97 3.93l3.72.76v1.98l-8.56-1.75c-1.06-.22-1.76-.35-2.27-.43V60.09c.17 0 .69.1 1.05.16-.6-.42-1.2-1.14-1.2-2.32 0-1.53 1.2-2.43 3.06-2.43 2.45 0 5.07 1.45 5.07 4.15 0 .94-.42 1.59-.87 1.85" stroke="none"/><path d="M32.18 48.67c-1.12 0-1.59.5-1.59 1.26 0 1.08 1.03 1.8 2.4 2.08 1.3.26 2.35.06 2.35-1.2 0-1.49-1.84-2.14-3.17-2.14m3.97 3.93l3.72.76v1.98l-8.56-1.75c-1.06-.22-1.76-.35-2.27-.43V51.19c.17 0 .69.1 1.05.16-.6-.42-1.2-1.14-1.2-2.32 0-1.53 1.2-2.43 3.06-2.43 2.45 0 5.07 1.45 5.07 4.15 0 .94-.42 1.59-.87 1.85" stroke="none"/><path d="M36.87 45.82L25.83 43.56V41.57l11.04 2.26Z" stroke="none"/><path d="M29.04 40.18V38.19l7.83 1.6v1.99Zm-3.21-.65V37.53l1.93.4v1.99Z" stroke="none"/><path d="M32.05 32.25c-.15-.03-.26-.03-.35-.03-.69 0-1.27.29-1.27 1.17 0 .91.6 1.47 1.62 1.73Zm1.37 3.13c.17.03.3.05.47.05.83 0 1.55-.3 1.55-1.2 0-.81-.45-1.16-.95-1.42V30.75c1.16.42 2.54 1.39 2.54 3.66 0 2.04-1.32 3.04-3.21 3.04-2.06 0-4.92-1.1-4.92-4.11 0-2.23 1.41-3.01 3.01-3.01.63 0 1.08.08 1.52.2Z" stroke="none"/><path d="M31.36 28.4c-.77-.16-1.6-.31-2.32-.44V26.04c.2.01.78.08 1.42.22-.94-.52-1.57-1.2-1.57-2.52l2.06.41c.02 1.38.8 2.36 2.51 2.71l3.4.7v1.99Z" stroke="none"/><path d="M34.45 21.64c.68-.05 1.04-.48 1.04-1.31 0-.78-.37-1.09-.88-1.09-.5 0-.75.4-1.06 1.35-.56 1.78-1.2 2.32-2.17 2.32-1.42 0-2.49-1.07-2.49-3.09 0-2.11 1.11-3.06 2.36-3v2.02c-.42.02-.84.23-.84 1.09 0 .49.17.99.72.99.42 0 .58-.4.89-1.34.57-1.77 1.3-2.39 2.38-2.39 1.8 0 2.63 1.57 2.63 3.37 0 2.02-.94 3.19-2.57 3.11Z" stroke="none"/><path d="M21.02 325.19c3.17 0 6.26-.41 6.26-2.94 0-2.5-2.91-2.87-6.33-2.87-3.3 0-6.14.44-6.14 2.82s2.49 2.99 6.21 2.99m-.08-9.06c4.53 0 8.95 1.35 8.95 6.15 0 4.73-4.22 6.14-8.84 6.14-4.57 0-8.84-1.56-8.84-6.22 0-4.55 4.05-6.08 8.73-6.08" stroke="none"/><path d="M29.57 313.57h-.21c-2.8 0-5.26-1.39-7.94-4.9-1.87-2.44-2.5-3.15-4.12-3.15-1.56 0-2.55.76-2.55 2.35 0 1.75 1.04 2.45 2.73 2.72v3.02c-2.92-.26-5.28-2.09-5.28-5.74 0-4.06 2.56-5.51 5.06-5.51 2.52 0 3.65 1.04 5.94 4.09 1.59 2.12 2.7 3.07 3.65 3.4v-8.11l2.72.4Z" stroke="none"/><path d="M25.27 298.66h4.31v-3.33H25.27Z" fill-rule="evenodd" stroke="none"/></g></g></svg>