<?xml version="1.0" encoding="UTF-8"?><!DOCTYPE svg PUBLIC "-//W3C//DTD SVG 1.0//EN" "http://www.w3.org/TR/2001/REC-SVG-20010904/DTD/svg10.dtd" []><svg xmlns="http://www.w3.org/2000/svg" xmlns:xlink="http://www.w3.org/1999/xlink" height="348" stroke="#000" stroke-linecap="square" stroke-miterlimit="10" viewBox="0 0 54.91 347.95" width="55"><g><g fill="#fff" stroke="#fff" stroke-linecap="butt" stroke-width=".8"><path d="M16.69 307.76H49.51V5.4H16.69Z" fill="none"/><path d="M5 342.95H41.94V293.61H5Z" fill="#FB03A0" fill-rule="evenodd" stroke="none"/><path d="M33.61 277.35c2.18.71 3.41 2.19 3.41 4.63 0 2.47-1.59 3.8-4.21 3.8-2.72 0-6.52-1.51-6.52-5.43 0-2.27 1.25-3.65 3.45-3.72v2.15c-.87.04-1.75.4-1.75 1.79 0 1.99 2.65 2.99 4.79 2.99 1.41 0 2.52-.45 2.52-1.83 0-1.18-.71-1.8-1.7-2.23Z" stroke="none"/><path d="M32.05 270.93c-.15-.03-.26-.03-.35-.03-.68 0-1.26.29-1.26 1.17 0 .91.6 1.47 1.61 1.73Zm1.37 3.13c.17.03.3.05.47.05.83 0 1.55-.3 1.55-1.2 0-.81-.45-1.16-.95-1.42v-2.07c1.16.42 2.54 1.39 2.54 3.66 0 2.04-1.32 3.04-3.21 3.04-2.06 0-4.92-1.09-4.92-4.11 0-2.23 1.41-3.01 3.01-3.01.63 0 1.08.08 1.52.2Z" stroke="none"/><path d="M31.36 267.08c-.77-.16-1.6-.31-2.32-.44v-1.92c.2.01.78.08 1.42.22-.94-.52-1.57-1.2-1.57-2.52l2.07.41c.02 1.38.8 2.36 2.51 2.71l3.4.7v1.99Z" stroke="none"/><path d="M29.04 261.4v-1.12l-2.11-.44v-1.98l2.11.43v-1.43l1.57.34v1.43l3.94.79c.49.1.81.06.81-.54 0-.23-.01-.43-.05-.65l1.49.3c.15.45.15.93.15 1.35 0 1.58-.93 1.83-2.3 1.55l-4.03-.82v1.12Z" stroke="none"/><path d="M29.04 255.41v-1.99l7.83 1.6v1.99Zm-3.21-.65v-1.99l1.93.4v1.99Z" stroke="none"/><path d="M36.87 252.63l-6.26-1.26v1.07l-1.57-.34v-1.07l-.76-.16c-1.61-.34-2.6-1.22-2.6-2.77 0-.35.05-.85.11-1.02l1.64.34c-.02.11-.04.33-.04.48 0 .58.32.87.92.99l.73.15v-1.27l1.57.34v1.27l6.26 1.26Z" stroke="none"/><path d="M29.04 246.36v-1.99l7.83 1.6v1.99Zm-3.21-.65v-1.99l1.93.4v1.99Z" stroke="none"/><path d="M32.05 238.44c-.15-.03-.26-.03-.35-.03-.68 0-1.26.29-1.26 1.17 0 .91.6 1.47 1.61 1.73Zm1.37 3.13c.17.03.3.05.47.05.83 0 1.55-.3 1.55-1.2 0-.81-.45-1.16-.95-1.42v-2.07c1.16.42 2.54 1.39 2.54 3.66 0 2.04-1.32 3.04-3.21 3.04-2.06 0-4.92-1.1-4.92-4.11 0-2.23 1.41-3.01 3.01-3.01.63 0 1.08.08 1.52.2Z" stroke="none"/><path d="M33.69 233.35c1.04 0 1.63-.4 1.63-1.23 0-1.22-1.07-1.85-2.65-2.14-1.33-.25-2.07.11-2.07 1.22 0 1.39 1.69 2.15 3.09 2.15m-7.85-6.68l8.92 1.82c.71.15 1.42.3 2.12.42v1.92c-.29-.01-.54-.05-.93-.12.71.49 1.08 1.19 1.08 2.2 0 1.62-1.19 2.52-3.1 2.52-2.39 0-5.03-1.4-5.03-4.02 0-1.08.45-1.78.82-1.95l-3.88-.8Z" stroke="none"/><path d="M33.67 220.71c1.05-.08 1.71-.73 1.71-2.01 0-1.09-.41-1.72-1.36-1.72-.81 0-1.24.49-1.71 1.83-.73 2.06-1.58 2.81-2.89 2.81-1.68 0-3.12-1.15-3.12-3.71 0-2.34 1.25-3.62 3.08-3.66v2.1c-.63.04-1.41.32-1.41 1.65 0 .86.4 1.49 1.21 1.49.58 0 .95-.32 1.41-1.62.74-2.05 1.59-3.07 3.16-3.07 1.66 0 3.27.98 3.27 4.09 0 2.52-1.32 3.85-3.35 3.91Z" stroke="none"/><path d="M34.78 207.01c.69.15 1.46.29 2.09.39v1.95c-.22-.01-.8-.1-1.08-.16.85.57 1.23 1.38 1.23 2.4 0 1.41-.98 2.21-2.76 1.85l-5.21-1.08v-1.98l4.94 1.02c.81.17 1.34.04 1.34-.8 0-.87-.71-1.62-2.45-1.98l-3.84-.8v-1.99Z" stroke="none"/><path d="M34.45 203.45c.68-.05 1.04-.48 1.04-1.31 0-.78-.36-1.09-.88-1.09-.5 0-.75.4-1.06 1.35-.56 1.78-1.2 2.32-2.17 2.32-1.42 0-2.49-1.07-2.49-3.09 0-2.11 1.11-3.06 2.36-3v2.02c-.42.02-.84.24-.84 1.09 0 .49.17.99.72.99.42 0 .58-.4.88-1.34.58-1.77 1.3-2.39 2.38-2.39 1.8 0 2.63 1.57 2.63 3.37 0 2.02-.94 3.19-2.57 3.11Z" stroke="none"/><path d="M29.04 197.4v-1.12l-2.11-.44v-1.98l2.11.43v-1.43l1.57.34v1.43l3.94.79c.49.1.81.06.81-.54 0-.23-.01-.43-.05-.65l1.49.3c.15.45.15.93.15 1.35 0 1.58-.93 1.82-2.3 1.55l-4.03-.82v1.12Z" stroke="none"/><path d="M33.35 188.1c0 .49.04.92.09 1.31.17 1.12.55 1.56 1.21 1.56.45 0 .8-.29.8-.93 0-1.37-1.15-1.72-1.98-1.91Zm1.6-1.65c.81.17 1.69.33 1.92.34v1.94c-.23-.02-.63-.07-.88-.11.5.38 1.03.88 1.03 2.29 0 1.49-1.09 2.12-2.01 2.12-2.18 0-2.76-1.85-2.95-3.52-.06-.63-.06-1.22-.08-1.69l-.37-.07c-.57-.11-1.31-.11-1.31.96 0 .95.53 1.12.91 1.29v2.03c-1.26-.29-2.34-1.13-2.34-3.49 0-1.84.79-3.2 2.84-2.78Z" stroke="none"/><path d="M29.04 183.18v-1.99l7.83 1.6v1.99Zm-3.21-.65v-1.99l1.93.4v1.99Z" stroke="none"/><path d="M31.03 179.56c-.67-.13-1.33-.27-1.99-.38v-1.95c.22.02.78.1.98.15-.47-.35-1.13-1.02-1.13-2.29 0-1.49.93-2.35 3.25-1.87l4.73.97v1.98l-4.75-.97c-.88-.19-1.51 0-1.51.86 0 .97.76 1.58 2.21 1.88l4.05.83v1.99Z" stroke="none"/><path d="M33.35 167.28c0 .49.04.92.09 1.31.17 1.12.55 1.56 1.21 1.56.45 0 .8-.28.8-.93 0-1.37-1.15-1.72-1.98-1.91Zm1.6-1.65c.81.17 1.69.33 1.92.34v1.94c-.23-.02-.63-.07-.88-.11.5.38 1.03.88 1.03 2.29 0 1.49-1.09 2.12-2.01 2.12-2.18 0-2.76-1.85-2.95-3.52-.06-.63-.06-1.22-.08-1.69l-.37-.07c-.57-.11-1.31-.11-1.31.96 0 .95.53 1.12.91 1.29v2.03c-1.26-.29-2.34-1.13-2.34-3.49 0-1.84.79-3.21 2.84-2.78Z" stroke="none"/><path d="M32.05 157.96c-.98 0-1.47.42-1.47 1.25 0 1.04.79 1.73 2.43 2.04 1.52.29 2.33-.06 2.33-1.17 0-1.54-2.01-2.12-3.29-2.12m-6.22 3.73V159.7l4.08.84c-.59-.47-1.02-1.18-1.02-2.22 0-1.58 1.24-2.44 2.94-2.44 2.39 0 5.19 1.28 5.19 4.08 0 1.04-.41 1.62-.89 1.86.22.05.57.13.74.19v1.95c-.52-.11-1.21-.26-2-.43Z" stroke="none"/><path d="M36.87 155.13l-11.04-2.26v-1.99l11.04 2.26Z" stroke="none"/><path d="M32.05 145.61c-.15-.03-.26-.03-.35-.03-.68 0-1.26.29-1.26 1.17 0 .91.6 1.47 1.61 1.73Zm1.37 3.13c.17.03.3.05.47.05.83 0 1.55-.3 1.55-1.2 0-.81-.45-1.16-.95-1.42V144.1c1.16.42 2.54 1.39 2.54 3.66 0 2.04-1.32 3.04-3.21 3.04-2.06 0-4.92-1.09-4.92-4.11 0-2.23 1.41-3.01 3.01-3.01.63 0 1.08.08 1.52.2Z" stroke="none"/><path d="M36.87 136.96l-10.43 1.35v-2.05l4.82-.52c1.47-.16 3.08-.26 3.69-.27v-.03c-.97-.39-2.32-1.07-3.78-1.86l-4.73-2.54V128.9l10.43 5.72Z" stroke="none"/><path d="M32.05 124.67c-.15-.03-.26-.03-.35-.03-.68 0-1.26.29-1.26 1.17 0 .91.6 1.47 1.61 1.73Zm1.37 3.13c.17.03.3.05.47.05.83 0 1.55-.3 1.55-1.2 0-.81-.45-1.16-.95-1.42v-2.07c1.16.42 2.54 1.39 2.54 3.66 0 2.04-1.32 3.04-3.21 3.04-2.06 0-4.92-1.09-4.92-4.11 0-2.23 1.41-3.01 3.01-3.01.63 0 1.08.08 1.52.2Z" stroke="none"/><path d="M31.03 120.76c-.67-.13-1.33-.27-1.99-.38v-1.95c.22.02.78.1.98.15-.47-.35-1.13-1.02-1.13-2.29 0-1.49.93-2.35 3.25-1.87l4.73.97v1.98l-4.75-.97c-.88-.19-1.51 0-1.51.86 0 .97.76 1.58 2.21 1.88l4.05.83v1.99Z" stroke="none"/><path d="M34.78 106.45c.69.15 1.46.29 2.09.39v1.95c-.22-.01-.8-.09-1.08-.16.85.57 1.23 1.38 1.23 2.4 0 1.41-.98 2.22-2.76 1.85l-5.21-1.08v-1.98l4.94 1.02c.81.17 1.34.04 1.34-.8 0-.87-.71-1.62-2.45-1.98l-3.84-.8v-1.99Z" stroke="none"/><path d="M32.05 99.34c-.15-.03-.26-.03-.35-.03-.68 0-1.26.29-1.26 1.17 0 .91.6 1.47 1.61 1.73Zm1.37 3.13c.17.03.3.05.47.05.83 0 1.55-.3 1.55-1.2 0-.81-.45-1.16-.95-1.42V97.83c1.16.42 2.54 1.39 2.54 3.66 0 2.04-1.32 3.03-3.21 3.03-2.06 0-4.92-1.09-4.92-4.11 0-2.23 1.41-3.01 3.01-3.01.63 0 1.08.08 1.52.2Z" stroke="none"/><path d="M34.45 94.66c.68-.05 1.04-.49 1.04-1.31 0-.78-.36-1.09-.88-1.09-.5 0-.75.4-1.06 1.35-.56 1.78-1.2 2.32-2.17 2.32-1.42 0-2.49-1.07-2.49-3.09 0-2.11 1.11-3.06 2.36-3v2.02c-.42.02-.84.23-.84 1.09 0 .49.17.99.72.99.42 0 .58-.4.88-1.33.58-1.77 1.3-2.39 2.38-2.39 1.8 0 2.63 1.57 2.63 3.37 0 2.02-.94 3.19-2.57 3.11Z" stroke="none"/><path d="M30.69 74.49l3.59 3.04c1.6 1.37 2.75 2.16 2.75 4.44 0 1.96-1.29 3.02-2.82 3.02-1.56 0-2.58-.94-3.51-3.43-.52-1.33-1.17-1.99-2-1.99-.42 0-.93.19-.93.82 0 .68.56.98 1.09.98.5 0 1.02-.16 1.63-.8l6.38-5.32v2.48l-5.42 4.6c-.66.51-1.4.93-2.33.93-1.58 0-2.83-.98-2.83-2.9 0-1.89 1.26-2.59 2.41-2.59 1.34 0 2.18.72 3.11 2.99.73 1.79 1.33 2.21 2.1 2.21.65 0 1.25-.48 1.25-1.35 0-.95-.47-1.57-1.97-2.82l-2.51-2.09Z" stroke="none"/><path d="M33.61 61.37c2.18.71 3.41 2.19 3.41 4.63 0 2.47-1.59 3.8-4.21 3.8-2.72 0-6.52-1.51-6.52-5.43 0-2.27 1.25-3.65 3.45-3.72V62.8c-.87.04-1.75.4-1.75 1.79 0 1.99 2.65 2.99 4.79 2.99 1.41 0 2.52-.45 2.52-1.83 0-1.18-.71-1.8-1.7-2.23Z" stroke="none"/><path d="M33.35 55.4c0 .49.04.92.09 1.31.17 1.12.55 1.56 1.21 1.56.45 0 .8-.28.8-.93 0-1.38-1.15-1.72-1.98-1.91Zm1.6-1.65c.81.17 1.69.33 1.92.34v1.94c-.23-.02-.63-.07-.88-.11.5.38 1.03.88 1.03 2.29 0 1.49-1.09 2.12-2.01 2.12-2.18 0-2.76-1.85-2.95-3.52-.06-.63-.06-1.22-.08-1.69l-.37-.07c-.57-.11-1.31-.11-1.31.96 0 .95.53 1.12.91 1.29v2.03c-1.26-.29-2.34-1.13-2.34-3.49 0-1.84.79-3.2 2.84-2.78Z" stroke="none"/><path d="M29.04 51.42V50.3l-2.11-.44V47.88l2.11.43V46.88l1.57.34v1.43l3.94.8c.49.1.81.06.81-.54 0-.23-.01-.43-.05-.65l1.49.3c.15.45.15.93.15 1.35 0 1.58-.93 1.82-2.3 1.55l-4.03-.82v1.12Z" stroke="none"/><path d="M32.05 41.59c-.15-.03-.26-.03-.35-.03-.68 0-1.26.29-1.26 1.17 0 .91.6 1.47 1.61 1.73Zm1.37 3.13c.17.03.3.05.47.05.83 0 1.55-.3 1.55-1.2 0-.81-.45-1.16-.95-1.42V40.08c1.16.42 2.54 1.39 2.54 3.66 0 2.04-1.32 3.04-3.21 3.04-2.06 0-4.92-1.1-4.92-4.11 0-2.23 1.41-3.01 3.01-3.01.63 0 1.08.08 1.52.2Z" stroke="none"/><path d="M31.36 37.74c-.77-.16-1.6-.31-2.32-.44V35.38c.2.01.78.08 1.42.22-.94-.52-1.57-1.2-1.57-2.53l2.07.41c.02 1.38.8 2.36 2.51 2.71l3.4.7v1.99Z" stroke="none"/><path d="M32.05 27.66c-.15-.03-.26-.03-.35-.03-.68 0-1.26.29-1.26 1.17 0 .91.6 1.47 1.61 1.73Zm1.37 3.13c.17.03.3.05.47.05.83 0 1.55-.3 1.55-1.2 0-.81-.45-1.16-.95-1.42V26.16c1.16.42 2.54 1.39 2.54 3.66 0 2.04-1.32 3.03-3.21 3.03-2.06 0-4.92-1.1-4.92-4.11 0-2.23 1.41-3.01 3.01-3.01.63 0 1.08.08 1.52.2Z" stroke="none"/><path d="M31.36 23.81c-.77-.16-1.6-.31-2.32-.44V21.45c.2.01.78.08 1.42.22-.94-.52-1.57-1.2-1.57-2.52l2.07.41c.02 1.38.8 2.36 2.51 2.71l3.4.7v1.99Z" stroke="none"/><path d="M34.45 17.05c.68-.05 1.04-.49 1.04-1.31 0-.78-.36-1.09-.88-1.09-.5 0-.75.4-1.06 1.35-.56 1.78-1.2 2.32-2.17 2.32-1.42 0-2.49-1.07-2.49-3.09 0-2.11 1.11-3.06 2.36-3v2.02c-.42.02-.84.23-.84 1.09 0 .49.17.99.72.99.42 0 .58-.4.88-1.34.58-1.77 1.3-2.39 2.38-2.39 1.8 0 2.63 1.57 2.63 3.37 0 2.02-.94 3.19-2.57 3.11Z" stroke="none"/><path d="M21.02 332.4c3.17 0 6.26-.41 6.26-2.94 0-2.5-2.91-2.87-6.33-2.87-3.3 0-6.14.44-6.14 2.82s2.49 2.99 6.2 2.99m-.08-9.06c4.53 0 8.95 1.35 8.95 6.15 0 4.73-4.22 6.15-8.84 6.15-4.57 0-8.84-1.56-8.84-6.22 0-4.55 4.05-6.08 8.73-6.08" stroke="none"/><path d="M29.57 317.63H16.28c.45.78.89 2.28 1 3.13H14.82c-.32-1.47-1.26-3.06-2.34-4.07v-2.24h17.1Z" stroke="none"/><path d="M25.27 310.91h4.31v-3.33H25.27Z" fill-rule="evenodd" stroke="none"/></g></g></svg>