<?xml version="1.0" encoding="UTF-8"?><!DOCTYPE svg PUBLIC "-//W3C//DTD SVG 1.0//EN" "http://www.w3.org/TR/2001/REC-SVG-20010904/DTD/svg10.dtd" []><svg xmlns="http://www.w3.org/2000/svg" xmlns:xlink="http://www.w3.org/1999/xlink" height="47" stroke="#000" stroke-linecap="square" stroke-miterlimit="10" viewBox="0 0 164.91 46.85" width="165"><g><g fill="#fff" stroke="none"><path d="M11.64 13.16H10.62c-.06-.2-.09-.49-.11-.85-.38.56-1.07.97-2.2.97-2.13 0-3.3-1.67-3.3-3.83 0-2.28 1.26-4 3.55-4 1.83 0 2.94 1.05 3.12 2.37H10.29c-.18-.63-.64-1.24-1.76-1.24-1.58 0-2.1 1.34-2.1 2.8 0 1.4.56 2.75 2.09 2.75 1.46 0 1.77-1.03 1.77-1.92v-.07H8.51V8.95h3.12Z"/><path d="M16.62 9.74c-.01-.75-.33-1.37-1.14-1.37s-1.14.58-1.22 1.37Zm-2.38.87c0 .86.42 1.59 1.23 1.59.71 0 .92-.33 1.08-.69h1.33c-.2.7-.8 1.78-2.44 1.78-1.78 0-2.53-1.41-2.53-2.88 0-1.74.86-3.04 2.59-3.04 1.84 0 2.46 1.43 2.46 2.77 0 .18 0 .32-.02.47Z"/><path d="M18.58 7.5h.88V5.92h1.32V7.5H21.9V8.55H20.78v2.97c0 .47.13.68.6.68.1 0 .26 0 .39-.03v.96c-.28.1-.66.11-.95.11-1 0-1.36-.54-1.36-1.52V8.55h-.88Z"/><path d="M30.81 9.78H27.24v2.19h3.93l-.17 1.18H25.9V5.55h5.08V6.73H27.24V8.6h3.57Z"/><path d="M32.28 8.92c0-.48 0-1-.01-1.42h1.28c.03.15.05.61.05.79.2-.4.64-.92 1.63-.92 1.07 0 1.82.73 1.82 2.18v3.61H35.73V9.7c0-.71-.24-1.21-.97-1.21-.78 0-1.16.52-1.16 1.56v3.1H32.28Z"/><path d="M39.63 10.34c0 1.19.49 1.84 1.27 1.84 1.12 0 1.3-.92 1.3-1.88 0-1.06-.17-1.82-1.25-1.82-.85 0-1.32.69-1.32 1.86m3.84-5.23v6.48c0 .52 0 1.04.01 1.57H42.2c-.03-.16-.05-.5-.06-.66-.27.49-.77.79-1.61.79-1.39 0-2.27-1.16-2.27-2.91s.93-3.01 2.47-3.01c.85 0 1.27.33 1.4.6V5.11Z"/><path d="M44.84 10.93h2.91V9.73H44.84Z" fill-rule="evenodd"/><path d="M50.02 6.73H47.73V5.55h5.95V6.73H51.41v6.43H50.02Z"/><path d="M54.63 10.33c0 1.14.5 1.87 1.32 1.87.83 0 1.29-.72 1.29-1.86 0-1.21-.47-1.88-1.31-1.88-.81 0-1.3.64-1.3 1.87m3.96-.01c0 1.68-.96 2.97-2.68 2.97-1.65 0-2.63-1.25-2.63-2.94 0-1.72.99-2.98 2.7-2.98 1.58 0 2.61 1.18 2.61 2.95"/><path d="M59.83 10.93h2.91V9.73H59.83Z" fill-rule="evenodd"/><path d="M69.15 9.78H65.58v2.19h3.93l-.17 1.18H64.23V5.55h5.08V6.73H65.58V8.6h3.57Z"/><path d="M70.62 8.92c0-.48 0-1-.01-1.42h1.28c.03.15.05.61.05.79.2-.4.64-.92 1.63-.92 1.08 0 1.82.73 1.82 2.18v3.61H74.07V9.7c0-.71-.24-1.21-.97-1.21-.77 0-1.16.52-1.16 1.56v3.1H70.62Z"/><path d="M77.96 10.34c0 1.19.49 1.84 1.27 1.84 1.12 0 1.3-.92 1.3-1.88 0-1.06-.17-1.82-1.25-1.82-.85 0-1.32.69-1.32 1.86M81.8 5.11v6.48c0 .52 0 1.04.01 1.57H80.54c-.03-.16-.05-.5-.06-.66-.27.49-.77.79-1.61.79-1.39 0-2.27-1.16-2.27-2.91s.93-3.01 2.47-3.01c.85 0 1.28.33 1.4.6V5.11Z"/><path d="M88.01 13.16L85.38 5.55h1.48l1.16 3.61c.35 1.08.65 2.06.81 2.81h.02c.15-.68.48-1.69.85-2.78l1.22-3.64h1.41l-2.7 7.61Z"/><path d="M93.16 7.5h1.32v5.65H93.16Zm0-2.39h1.32V6.45H93.16Z"/><path d="M96.88 11.48c.13.51.52.8 1.14.8.64 0 .88-.26.88-.66 0-.42-.24-.6-1.11-.82-1.71-.43-2.01-.98-2.01-1.76 0-.82.57-1.67 2.14-1.67s2.14.91 2.2 1.68H98.85c-.06-.26-.24-.69-.99-.69-.59 0-.77.28-.77.57 0 .33.19.49 1.12.72 1.77.43 2.05 1.05 2.05 1.88 0 .96-.71 1.76-2.28 1.76-1.58 0-2.27-.8-2.4-1.8Z"/><path d="M101.43 7.5h1.32v5.65h-1.32Zm0-2.39h1.32V6.45h-1.32Z"/><path d="M108.14 10.25c0-1.04-.41-1.77-1.27-1.77-.97 0-1.31.66-1.31 1.88 0 1.03.3 1.83 1.28 1.83.84 0 1.3-.76 1.3-1.94M104.3 5.11h1.32V8.17c.23-.4.7-.8 1.63-.8 1.45 0 2.24 1.24 2.24 2.86 0 1.65-.82 3.06-2.38 3.06-.83 0-1.23-.28-1.5-.74 0 .22-.03.46-.05.61h-1.27c.01-.62.01-1.25.01-1.86Z"/><path d="M110.71 7.5h1.32v5.65h-1.32Zm0-2.39h1.32V6.45h-1.32Z"/><path d="M113.59 13.16h1.32V5.11h-1.32Z" fill-rule="evenodd"/><path d="M116.47 7.5h1.32v5.65h-1.32Zm0-2.39h1.32V6.45h-1.32Z"/><path d="M118.78 7.5h.88V5.92h1.32V7.5h1.12V8.55h-1.12v2.97c0 .47.13.68.59.68.1 0 .26 0 .39-.03v.96c-.28.1-.66.11-.95.11-.99 0-1.35-.54-1.35-1.52V8.55h-.88Z"/><path d="M124.15 7.5c.67 2.21 1.16 3.87 1.27 4.41h.01c.14-.59.48-1.87 1.22-4.41h1.32l-1.88 5.85c-.53 1.63-.96 2.1-2.21 2.1-.15 0-.42-.01-.67-.04V14.29c.11.01.28.02.41.02.6 0 .88-.24 1.12-.97L122.73 7.5Z"/><path d="M132.84 9.32c0 1.54.69 2.77 2.1 2.77 1.52 0 2.08-1.3 2.08-2.75 0-1.51-.64-2.73-2.1-2.73s-2.08 1.18-2.08 2.71m5.61 0c0 2.11-1.2 3.95-3.57 3.95-2.26 0-3.47-1.73-3.47-3.91 0-2.2 1.3-3.91 3.57-3.91 2.13 0 3.47 1.58 3.47 3.88"/><path d="M140.12 13.16V8.55h-.83V7.5h.83V6.94c0-1.12.5-1.94 1.69-1.94.24 0 .54.02.67.07v1.1c-.1-.02-.24-.04-.37-.04-.49 0-.67.23-.67.91V7.5h1V8.55h-1v4.6Z"/><path d="M10.29 22.98H6.72v2.19h3.93l-.17 1.18H5.38V18.75h5.08v1.18H6.72V21.8h3.57Z"/><path d="M12.95 24.16c.18.81.73 1.2 1.66 1.2.95 0 1.35-.42 1.35-1.03 0-.67-.36-.99-1.69-1.32-1.91-.47-2.44-1.18-2.44-2.22 0-1.26.91-2.17 2.62-2.17 1.89 0 2.65 1.07 2.75 2.15H15.79c-.1-.54-.4-1.06-1.4-1.06-.73 0-1.16.32-1.16.93s.35.83 1.57 1.13c2.13.52 2.57 1.35 2.57 2.39 0 1.33-.97 2.29-2.87 2.29-1.86 0-2.79-.98-2.95-2.3Z"/><path d="M25.09 26.36H24.07c-.06-.2-.09-.49-.11-.85-.38.56-1.07.97-2.2.97-2.13 0-3.31-1.67-3.31-3.83 0-2.28 1.26-4 3.55-4 1.83 0 2.93 1.05 3.12 2.37H23.75c-.18-.63-.64-1.24-1.76-1.24-1.58 0-2.1 1.34-2.1 2.8 0 1.4.56 2.75 2.09 2.75 1.46 0 1.77-1.03 1.77-1.92v-.07H21.97V22.15h3.12Z"/><path d="M30.96 25.19h1.31c1.52 0 2.22-1.15 2.22-2.72 0-1.33-.64-2.56-2.21-2.56H30.96Zm-1.38-6.44H32.4c2.12 0 3.52 1.46 3.52 3.71 0 2.23-1.36 3.89-3.58 3.89H29.58Z"/><path d="M40.31 23.72H39.6c-.97 0-1.4.3-1.4.93 0 .47.29.84.88.84 1.08 0 1.22-.77 1.22-1.61Zm1.29 1.25c0 .53.04 1.24.08 1.38H40.41c-.04-.12-.08-.41-.08-.62-.19.34-.59.75-1.59.75-1.31 0-1.87-.89-1.87-1.76 0-1.28.99-1.87 2.6-1.87h.83v-.39c0-.44-.15-.9-.96-.9-.73 0-.88.34-.96.76H37.13c.08-.93.64-1.77 2.27-1.76 1.42.01 2.2.59 2.2 1.91Z"/><path d="M42.48 20.7h.88V19.12h1.32V20.7H45.8v1.05H44.69v2.97c0 .47.13.68.59.68.1 0 .26 0 .39-.03v.96c-.28.1-.66.11-.95.11-.99 0-1.36-.54-1.36-1.52V21.75h-.88Z"/><path d="M49.93 23.72h-.71c-.97 0-1.39.3-1.39.93 0 .47.29.84.88.84 1.08 0 1.22-.77 1.22-1.61Zm1.29 1.25c0 .53.04 1.24.07 1.38H50.03c-.04-.12-.08-.41-.08-.62-.2.34-.59.75-1.59.75-1.31 0-1.86-.89-1.86-1.76 0-1.28.99-1.87 2.6-1.87h.83v-.39c0-.44-.15-.9-.96-.9-.73 0-.88.34-.96.76H46.75c.08-.93.64-1.77 2.27-1.76 1.42.01 2.2.59 2.2 1.91Z"/><path d="M52.06 27.63c.6-1.38.71-2.33.78-3.1h1.35c-.1 1.05-.45 2.24-1.09 3.1Z"/><path d="M62.12 23.24c-.59-1.74-.94-2.78-1.11-3.43h-.01c-.18.71-.57 1.94-1.04 3.43Zm-2.47 1.18l-.65 1.94H57.65l2.54-7.61h1.73l2.65 7.61H63.11l-.68-1.94Z"/><path d="M66.61 23.48c0 1.05.51 1.7 1.26 1.7 1 0 1.28-.71 1.28-1.76s-.22-1.75-1.25-1.75c-.78 0-1.29.64-1.29 1.8m3.8 2.24c0 1.82-.67 2.92-2.65 2.92-1.88 0-2.32-1.09-2.39-1.77h1.35c.12.47.47.75 1.1.75 1.07 0 1.3-.68 1.3-1.86v-.33c-.29.54-.76.86-1.6.86-1.41 0-2.26-1.19-2.26-2.76 0-1.79 1.03-2.97 2.38-2.97.97 0 1.38.47 1.48.77.01-.19.04-.54.05-.64h1.26c-.01.44-.01 1.08-.01 1.63Z"/><path d="M72.97 23.48c0 1.05.51 1.7 1.26 1.7 1 0 1.28-.71 1.28-1.76s-.22-1.75-1.25-1.75c-.78 0-1.29.64-1.29 1.8m3.8 2.24c0 1.82-.67 2.92-2.65 2.92-1.88 0-2.32-1.09-2.39-1.77h1.35c.12.47.47.75 1.1.75 1.07 0 1.3-.68 1.3-1.86v-.33c-.29.54-.76.86-1.6.86-1.41 0-2.26-1.19-2.26-2.76 0-1.79 1.03-2.97 2.38-2.97.97 0 1.38.47 1.48.77.01-.19.04-.54.05-.64h1.26c-.01.44-.01 1.08-.01 1.63Z"/><path d="M78.3 22.24c0-.64 0-1.12-.01-1.54h1.3c.02.14.04.66.04 1.05.26-.69.86-1.17 1.79-1.18v1.32c-1.11-.01-1.79.4-1.79 1.91v2.56H78.3Z"/><path d="M85.73 22.94c-.01-.75-.33-1.37-1.14-1.37s-1.14.58-1.21 1.37Zm-2.38.87c0 .86.42 1.59 1.23 1.59.71 0 .92-.33 1.08-.69h1.33c-.2.7-.79 1.78-2.44 1.78-1.78 0-2.53-1.41-2.53-2.88 0-1.74.86-3.03 2.59-3.03 1.84 0 2.46 1.42 2.46 2.77 0 .18 0 .32-.02.47Z"/><path d="M89.39 23.48c0 1.05.51 1.7 1.26 1.7 1 0 1.28-.71 1.28-1.76s-.22-1.75-1.25-1.75c-.78 0-1.29.64-1.29 1.8m3.8 2.24c0 1.82-.67 2.92-2.65 2.92-1.89 0-2.32-1.09-2.39-1.77H89.5c.12.47.47.75 1.09.75 1.07 0 1.3-.68 1.3-1.86v-.33c-.29.54-.76.86-1.6.86-1.41 0-2.26-1.19-2.26-2.76 0-1.79 1.03-2.97 2.38-2.97.97 0 1.38.47 1.48.77.01-.19.04-.54.05-.64H93.2c-.01.44-.01 1.08-.01 1.63Z"/><path d="M97.72 23.72h-.71c-.97 0-1.39.3-1.39.93 0 .47.29.84.88.84 1.08 0 1.22-.77 1.22-1.61Zm1.29 1.25c0 .53.04 1.24.07 1.38H97.83c-.04-.12-.08-.41-.08-.62-.2.34-.59.75-1.59.75-1.31 0-1.87-.89-1.87-1.76 0-1.28.99-1.87 2.6-1.87h.83v-.39c0-.44-.15-.9-.96-.9-.73 0-.88.34-.96.76H94.54c.08-.93.64-1.77 2.27-1.76 1.42.01 2.2.59 2.2 1.91Z"/><path d="M99.9 20.7h.88V19.12h1.32V20.7h1.12v1.05H102.1v2.97c0 .47.13.68.59.68.1 0 .26 0 .39-.03v.96c-.28.1-.66.11-.95.11-.99 0-1.36-.54-1.36-1.52V21.75H99.9Z"/><path d="M107.58 22.94c-.01-.75-.33-1.37-1.14-1.37s-1.14.58-1.21 1.37Zm-2.38.87c0 .86.42 1.59 1.23 1.59.71 0 .92-.33 1.08-.69h1.33c-.2.7-.8 1.78-2.44 1.78-1.78 0-2.53-1.41-2.53-2.88 0-1.74.86-3.03 2.59-3.03 1.84 0 2.46 1.42 2.46 2.77 0 .18 0 .32-.02.47Z"/><path d="M111.22 23.54c0 1.19.49 1.84 1.27 1.84 1.12 0 1.3-.92 1.3-1.88 0-1.06-.17-1.82-1.25-1.82-.85 0-1.32.69-1.32 1.86m3.84-5.23v6.48c0 .52 0 1.04.01 1.57H113.8c-.03-.16-.05-.5-.06-.66-.27.49-.77.79-1.61.79-1.39 0-2.27-1.16-2.27-2.91 0-1.74.93-3.01 2.47-3.01.85 0 1.27.33 1.41.6V18.31Z"/><path d="M119.51 18.75h5v1.18h-3.65V22h3.42v1.18h-3.42v3.17h-1.35Z"/><path d="M125.5 22.24c0-.64 0-1.12-.01-1.54h1.3c.02.14.04.66.04 1.05.26-.69.86-1.17 1.79-1.18v1.32c-1.11-.01-1.79.4-1.79 1.91v2.56H125.5Z"/><path d="M130.56 23.53c0 1.14.5 1.87 1.32 1.87.83 0 1.29-.72 1.29-1.86 0-1.21-.47-1.88-1.31-1.88-.81 0-1.3.64-1.3 1.87m3.96-.01c0 1.68-.96 2.97-2.68 2.97-1.65 0-2.63-1.25-2.63-2.94 0-1.72.99-2.97 2.7-2.97 1.58 0 2.61 1.17 2.61 2.95"/><path d="M135.74 22.16c0-.49 0-.98-.01-1.46H137c.02.15.05.5.05.74.27-.45.72-.87 1.55-.87.78 0 1.25.42 1.45.91.31-.49.8-.91 1.7-.91.93 0 1.73.58 1.73 2.07v3.71h-1.29V22.81c0-.56-.2-1.12-.89-1.12-.73 0-1.02.52-1.02 1.43v3.24h-1.3v-3.5c0-.63-.16-1.17-.88-1.17-.7 0-1.04.51-1.04 1.51v3.15h-1.31Z"/><path d="M151.67 23.24c-.59-1.74-.94-2.78-1.11-3.43h-.01c-.18.71-.57 1.94-1.04 3.43Zm-2.47 1.18l-.65 1.94h-1.36l2.54-7.61h1.73l2.65 7.61h-1.46l-.68-1.94Z"/><path d="M155.13 22.13c0-.48 0-1-.01-1.43h1.28c.03.15.05.61.05.79.2-.4.64-.92 1.63-.92 1.08 0 1.82.73 1.82 2.18v3.61h-1.32V22.9c0-.71-.24-1.21-.97-1.21-.77 0-1.16.52-1.16 1.56v3.1h-1.32Z"/><path d="M10.29 36.18H6.72v2.19h3.93l-.17 1.18H5.38V31.95h5.08v1.18H6.72V35h3.57Z"/><path d="M11.76 35.33c0-.48 0-1-.01-1.42h1.28c.03.15.05.61.05.79.2-.4.64-.92 1.63-.92 1.08 0 1.82.73 1.82 2.18v3.61H15.22V36.1c0-.71-.24-1.21-.97-1.21-.77 0-1.16.52-1.16 1.56v3.1H11.76Z"/><path d="M17.4 33.9h.88V32.32H19.6V33.9h1.12v1.05H19.6v2.97c0 .47.13.67.59.67.1 0 .26 0 .39-.03v.96c-.28.1-.66.11-.95.11-.99 0-1.36-.54-1.36-1.52V34.95H17.4Z"/><path d="M21.73 33.9h1.32v5.65H21.73Zm0-2.39h1.32v1.34H21.73Z"/><path d="M24.6 35.44c0-.64 0-1.12-.01-1.53h1.3c.02.14.04.66.04 1.05.26-.69.86-1.17 1.79-1.18v1.32c-1.11-.01-1.79.4-1.79 1.91v2.56H24.6Z"/><path d="M32.04 36.14c-.01-.75-.33-1.37-1.14-1.37s-1.14.58-1.21 1.37Zm-2.38.87c0 .86.42 1.59 1.23 1.59.71 0 .92-.33 1.08-.69h1.33c-.2.7-.79 1.78-2.44 1.78-1.78 0-2.53-1.41-2.53-2.88 0-1.74.86-3.03 2.59-3.03 1.84 0 2.46 1.43 2.46 2.77 0 .18 0 .32-.02.47Z"/><path d="M42.32 36.18H38.75v2.19h3.93l-.17 1.18H37.4V31.95h5.08v1.18H38.75V35h3.57Z"/><path d="M48.42 37.76c-.2.95-.84 1.93-2.39 1.93-1.64 0-2.53-1.19-2.53-2.92 0-1.65.95-3 2.6-3 1.76 0 2.28 1.3 2.32 1.97h-1.3c-.11-.5-.39-.88-1.05-.88-.78 0-1.23.7-1.23 1.86 0 1.23.46 1.89 1.22 1.89.58 0 .89-.34 1.06-.85Z"/><path d="M50.6 36.73c0 1.14.5 1.87 1.32 1.87.83 0 1.29-.72 1.29-1.86 0-1.21-.47-1.88-1.31-1.88-.81 0-1.3.64-1.3 1.87m3.96-.01c0 1.68-.96 2.97-2.68 2.97-1.65 0-2.63-1.25-2.63-2.94 0-1.72.99-2.97 2.7-2.97 1.58 0 2.61 1.18 2.61 2.95"/><path d="M56.72 37.88c.13.51.52.8 1.14.8.64 0 .88-.26.88-.66 0-.42-.24-.6-1.11-.82-1.71-.43-2.01-.98-2.01-1.77 0-.82.57-1.67 2.14-1.67s2.15.9 2.2 1.68H58.69c-.06-.26-.24-.69-.99-.69-.59 0-.78.28-.78.57 0 .33.19.49 1.12.72 1.77.43 2.05 1.05 2.05 1.88 0 .96-.71 1.76-2.28 1.76-1.58 0-2.27-.8-2.4-1.8Z"/><path d="M62.03 33.9c.67 2.2 1.16 3.87 1.27 4.41h.01c.14-.59.48-1.87 1.22-4.41h1.32l-1.88 5.85c-.54 1.63-.96 2.1-2.21 2.1-.15 0-.42-.01-.67-.04V40.69c.11.01.28.02.41.02.6 0 .88-.24 1.12-.97L60.61 33.9Z"/><path d="M67.67 37.88c.13.51.51.8 1.14.8.64 0 .88-.26.88-.66 0-.42-.24-.6-1.11-.82-1.71-.43-2.01-.98-2.01-1.77 0-.82.57-1.67 2.14-1.67s2.15.9 2.2 1.68H69.64c-.06-.26-.24-.69-.99-.69-.59 0-.78.28-.78.57 0 .33.19.49 1.12.72 1.77.43 2.05 1.05 2.05 1.88 0 .96-.71 1.76-2.28 1.76-1.58 0-2.27-.8-2.4-1.8Z"/><path d="M71.58 33.9h.88V32.32h1.32V33.9H74.9v1.05H73.78v2.97c0 .47.13.67.59.67.1 0 .26 0 .39-.03v.96c-.28.1-.66.11-.95.11-.99 0-1.36-.54-1.36-1.52V34.95h-.88Z"/><path d="M79.26 36.14c-.01-.75-.33-1.37-1.14-1.37s-1.14.58-1.22 1.37Zm-2.38.87c0 .86.42 1.59 1.23 1.59.71 0 .92-.33 1.08-.69h1.33c-.2.7-.8 1.78-2.44 1.78-1.78 0-2.53-1.41-2.53-2.88 0-1.74.86-3.03 2.59-3.03 1.84 0 2.46 1.43 2.46 2.77 0 .18 0 .32-.02.47Z"/><path d="M81.81 35.36c0-.49 0-.98-.01-1.46h1.27c.02.15.05.5.05.74.27-.45.72-.87 1.55-.87.78 0 1.25.42 1.45.91.31-.49.8-.91 1.7-.91.93 0 1.73.58 1.73 2.07v3.71h-1.3V36.01c0-.56-.2-1.12-.89-1.12-.73 0-1.02.52-1.02 1.43v3.24h-1.3v-3.5c0-.63-.16-1.17-.88-1.17-.7 0-1.04.51-1.04 1.51v3.15H81.81Z"/><path d="M90.84 39.56h1.41V37.73H90.84Z" fill-rule="evenodd"/></g></g></svg>