<?xml version="1.0" encoding="UTF-8"?><!DOCTYPE svg PUBLIC "-//W3C//DTD SVG 1.0//EN" "http://www.w3.org/TR/2001/REC-SVG-20010904/DTD/svg10.dtd" []><svg xmlns="http://www.w3.org/2000/svg" xmlns:xlink="http://www.w3.org/1999/xlink" height="95" stroke="#000" stroke-linecap="square" stroke-miterlimit="10" viewBox="0 0 376.23 95.4" width="376"><g><g fill="#fff" stroke="none"><path d="M8.28 6.38H5V5.66h7.38v.72H9.08v9.08h-.8Z"/><path d="M17.75 11.38c-1.08-2.89-1.64-4.29-1.84-4.96H15.9c-.24.75-.87 2.48-1.74 4.96Zm-3.86.72l-1.24 3.36h-.8l3.59-9.8h.93l3.75 9.8h-.86L18.01 12.1Z"/><path d="M22.76 14.74H25.5c1.28 0 2.35-.64 2.35-2.07 0-1.24-.79-2.08-2.75-2.08H22.76Zm2.41-4.88c1.68 0 2.32-.63 2.32-1.75 0-.96-.67-1.74-2.03-1.74h-2.7V9.87ZM21.99 5.66h3.43c1.89 0 2.89 1 2.89 2.41 0 1.16-.7 1.92-1.51 2.14.7.2 1.85.88 1.85 2.42 0 1.95-1.47 2.83-3.18 2.83H21.99Z"/><path d="M31.03 5.66h.79v9.08h5.26l-.14.72h-5.9Z"/><path d="M44.5 10.66H39.5v4.08h5.47l-.12.72H38.72V5.66h6.03v.72H39.5V9.93H44.5Z"/><path d="M49.5 6.38H46.22V5.66H53.6v.72H50.3v9.08h-.8Z"/><path d="M55.18 15.46h.78V5.66h-.78Z" fill-rule="evenodd"/><path d="M67.46 10.97c0-1.91.01-3.75.06-4.73h-.04c-.4 1.33-2.36 6.13-3.6 9.22h-.77c-.93-2.4-2.97-7.74-3.42-9.24h-.03c.07 1.12.1 3.4.1 5.08v4.16h-.78V5.66h1.18c1.33 3.34 3.01 7.71 3.37 8.83h.03c.22-.73 2.17-5.58 3.53-8.83h1.16v9.8h-.78Z"/><path d="M77.03 10.66H72.04v4.08h5.47l-.12.72H71.26V5.66h6.03v.72H72.04V9.93h4.99Z"/><path d="M79.75 12.82c.29 1.3 1.16 2.06 2.76 2.06 1.78 0 2.46-.89 2.46-1.94 0-1.1-.49-1.78-2.64-2.31-2.09-.52-2.98-1.2-2.98-2.61 0-1.3.95-2.5 3.05-2.5 2.17 0 3.08 1.32 3.21 2.51H84.8c-.22-1.04-.9-1.79-2.43-1.79-1.4 0-2.17.65-2.17 1.73 0 1.07.64 1.49 2.44 1.93 2.76.69 3.17 1.79 3.17 2.97 0 1.45-1.06 2.7-3.33 2.7-2.45 0-3.36-1.42-3.54-2.75Z"/><path d="M91.1 8.45h.73v7.01H91.1Zm0-3.31h.73V6.51H91.1Z"/><path d="M94.22 13.52c.24.9.88 1.45 1.98 1.45 1.24 0 1.73-.57 1.73-1.34 0-.79-.34-1.18-1.89-1.55-1.82-.44-2.27-.99-2.27-1.91 0-.97.73-1.87 2.32-1.87s2.35.97 2.46 1.97h-.73c-.12-.58-.58-1.31-1.77-1.31-1.21 0-1.55.6-1.55 1.15 0 .64.33.96 1.71 1.29 1.99.48 2.47 1.13 2.47 2.18 0 1.27-1.03 2.07-2.52 2.07-1.61 0-2.51-.85-2.7-2.11Z"/><path d="M102.82 8.45h1.3V6.27h.73V8.45h1.66v.68h-1.66v4.53c0 .78.17 1.22.84 1.22.21 0 .5-.01.72-.08v.63c-.24.1-.58.13-.88.13-.91 0-1.41-.45-1.41-1.58V9.13h-1.3Z"/><path d="M108.77 5.14V9.62c.39-.72 1.07-1.34 2.31-1.34 1 0 2.37.51 2.37 2.72v4.46h-.73V11.15c0-1.38-.62-2.15-1.78-2.15-1.38 0-2.17.85-2.17 2.56v3.91h-.73V5.14Z"/><path d="M120.46 11.42c-.01-1.38-.76-2.46-2.13-2.46-1.43 0-2.09 1-2.24 2.46Zm-4.4.63c.01 1.79.91 2.9 2.25 2.9 1.31 0 1.75-.73 2-1.3h.74c-.29.92-1.04 1.98-2.77 1.98-2.13 0-2.97-1.83-2.97-3.62 0-2.01 1-3.73 3.05-3.73 2.17 0 2.86 1.86 2.86 3.19 0 .2 0 .39-.01.58Z"/><path d="M127.8 15.46V7.16c-.48.42-1.52.94-2.06 1.06V7.55c.61-.21 1.5-.75 2.2-1.37h.62v9.29Z"/><path d="M131.31 13.52c.24.9.88 1.45 1.98 1.45 1.23 0 1.73-.57 1.73-1.34 0-.79-.34-1.18-1.89-1.55-1.82-.44-2.27-.99-2.27-1.91 0-.97.73-1.87 2.33-1.87s2.35.97 2.46 1.97h-.73c-.12-.58-.58-1.31-1.77-1.31-1.21 0-1.55.6-1.55 1.15 0 .64.33.96 1.72 1.29 1.98.48 2.47 1.13 2.47 2.18 0 1.27-1.03 2.07-2.52 2.07-1.61 0-2.51-.85-2.7-2.11Z"/><path d="M136.58 8.45h1.3V6.27h.73V8.45h1.66v.68H138.6v4.53c0 .78.17 1.22.84 1.22.21 0 .5-.01.72-.08v.63c-.24.1-.58.13-.88.13-.91 0-1.41-.45-1.41-1.58V9.13h-1.3Z"/><path d="M145.13 8.45h.73v7.01h-.73Zm0-3.31h.73V6.51h-.73Z"/><path d="M148.28 10.22c0-.62 0-1.21-.01-1.77h.71c.03.22.04 1.12.03 1.32.31-.71.88-1.49 2.32-1.49 1.25 0 2.35.71 2.35 2.64v4.54h-.73V11.04c0-1.24-.51-2.05-1.72-2.05-1.65 0-2.22 1.37-2.22 2.89v3.58h-.73Z"/><path d="M158.37 8.45h1.3V6.27h.73V8.45h1.66v.68h-1.66v4.53c0 .78.17 1.22.84 1.22.21 0 .5-.01.72-.08v.63c-.24.1-.58.13-.88.13-.91 0-1.41-.45-1.41-1.58V9.13h-1.3Z"/><path d="M164.31 5.14V9.62c.39-.72 1.07-1.34 2.31-1.34 1 0 2.37.51 2.37 2.72v4.46h-.73V11.15c0-1.38-.62-2.15-1.78-2.15-1.38 0-2.17.85-2.17 2.56v3.91h-.73V5.14Z"/><path d="M176 11.42c-.01-1.38-.76-2.46-2.12-2.46-1.43 0-2.09 1-2.24 2.46Zm-4.4.63c.01 1.79.91 2.9 2.25 2.9 1.31 0 1.75-.73 2-1.3h.74c-.29.92-1.04 1.98-2.77 1.98-2.13 0-2.97-1.83-2.97-3.62 0-2.01 1-3.73 3.05-3.73 2.16 0 2.85 1.86 2.85 3.19 0 .2 0 .39-.01.58Z"/><path d="M181.89 8.45h.73v7.01h-.73Zm0-3.31h.73V6.51h-.73Z"/><path d="M185.04 10.22c0-.62 0-1.21-.02-1.77h.71c.03.22.04 1.12.03 1.32.31-.71.88-1.49 2.32-1.49 1.25 0 2.35.71 2.35 2.64v4.54h-.73V11.04c0-1.24-.51-2.05-1.72-2.05-1.65 0-2.22 1.37-2.22 2.89v3.58h-.73Z"/><path d="M193.08 12.01c0 1.91.98 2.94 2.18 2.94 1.84 0 2.34-1.27 2.34-3.16 0-1.8-.43-2.83-2.21-2.83-1.38 0-2.31 1.1-2.31 3.05m5.22-6.87v8.3c0 .67 0 1.32.01 2.02h-.7c-.03-.17-.04-.82-.04-1.17-.35.85-1.13 1.34-2.35 1.34-1.82 0-2.92-1.48-2.92-3.59 0-2.16 1.19-3.76 3.1-3.76 1.39 0 1.95.6 2.16 1.04V5.14Z"/><path d="M205.98 13.42c0 .69.02 1.77.02 2.05h-.7c-.03-.18-.04-.64-.04-1.21-.3.82-1.01 1.38-2.25 1.38-1.02 0-2.3-.4-2.3-2.54V8.45h.71v4.46c0 1.02.32 2.01 1.7 2.01 1.55 0 2.14-.87 2.14-2.86V8.45h.73Z"/><path d="M208.35 13.52c.24.9.88 1.45 1.98 1.45 1.23 0 1.73-.57 1.73-1.34 0-.79-.34-1.18-1.89-1.55-1.82-.44-2.27-.99-2.27-1.91 0-.97.73-1.87 2.32-1.87s2.35.97 2.46 1.97h-.73c-.12-.58-.58-1.31-1.77-1.31-1.21 0-1.55.6-1.55 1.15 0 .64.33.96 1.72 1.29 1.98.48 2.47 1.13 2.47 2.18 0 1.27-1.04 2.07-2.52 2.07-1.61 0-2.51-.85-2.7-2.11Z"/><path d="M213.62 8.45h1.3V6.27h.73V8.45h1.66v.68h-1.66v4.53c0 .78.17 1.22.84 1.22.21 0 .5-.01.72-.08v.63c-.24.1-.58.13-.88.13-.91 0-1.41-.45-1.41-1.58V9.13h-1.3Z"/><path d="M218.75 10.36c0-1.17-.01-1.67-.01-1.91h.72c.01.22.03.68.03 1.56.4-1.05 1.3-1.68 2.43-1.73v.78c-1.46.1-2.43 1.09-2.43 2.76v3.63h-.73Z"/><path d="M223.74 8.45c1.4 3.97 2.02 5.64 2.25 6.39h.02c.28-.85.83-2.48 2.18-6.39h.76l-2.63 7.41c-.74 2.07-1.25 2.54-2.52 2.54-.25 0-.42-.01-.65-.04v-.72c.21.03.4.04.63.04 1 0 1.33-.49 1.84-1.91l-2.68-7.32Z"/><path d="M232.67 8.45h1.3V6.27h.73V8.45h1.66v.68H234.7v4.53c0 .78.17 1.22.84 1.22.21 0 .5-.01.72-.08v.63c-.24.1-.58.13-.88.13-.91 0-1.41-.45-1.41-1.58V9.13h-1.3Z"/><path d="M238.06 11.96c0 1.66.89 2.99 2.36 2.99 1.5 0 2.35-1.24 2.35-2.99 0-1.65-.83-2.99-2.38-2.99-1.58 0-2.34 1.32-2.34 2.99m5.48-.01c0 1.95-1.08 3.69-3.18 3.69-1.9 0-3.08-1.56-3.08-3.67 0-2.01 1.11-3.67 3.15-3.67 1.87 0 3.11 1.46 3.11 3.66"/><path d="M248.7 8.45h.73v7.01h-.73Zm0-3.31h.73V6.51h-.73Z"/><path d="M251.82 13.52c.24.9.88 1.45 1.98 1.45 1.23 0 1.73-.57 1.73-1.34 0-.79-.34-1.18-1.89-1.55-1.82-.44-2.27-.99-2.27-1.91 0-.97.73-1.87 2.33-1.87s2.35.97 2.46 1.97h-.73c-.12-.58-.58-1.31-1.77-1.31-1.21 0-1.55.6-1.55 1.15 0 .64.33.96 1.72 1.29 1.98.48 2.47 1.13 2.47 2.18 0 1.27-1.03 2.07-2.52 2.07-1.61 0-2.51-.85-2.7-2.11Z"/><path d="M258.37 13.52c.24.9.88 1.45 1.97 1.45 1.24 0 1.73-.57 1.73-1.34 0-.79-.33-1.18-1.89-1.55-1.82-.44-2.27-.99-2.27-1.91 0-.97.73-1.87 2.33-1.87s2.35.97 2.46 1.97h-.73c-.12-.58-.58-1.31-1.77-1.31-1.21 0-1.55.6-1.55 1.15 0 .64.33.96 1.72 1.29 1.98.48 2.47 1.13 2.47 2.18 0 1.27-1.03 2.07-2.52 2.07-1.61 0-2.51-.85-2.7-2.11Z"/><path d="M269.82 13.42c0 .69.01 1.77.01 2.05h-.7c-.03-.18-.04-.64-.04-1.21-.3.82-1.01 1.38-2.25 1.38-1.02 0-2.3-.4-2.3-2.54V8.45h.71v4.46c0 1.02.32 2.01 1.7 2.01 1.55 0 2.14-.87 2.14-2.86V8.45h.73Z"/><path d="M276.83 11.42c-.01-1.38-.76-2.46-2.13-2.46-1.43 0-2.08 1-2.24 2.46Zm-4.4.63c.01 1.79.91 2.9 2.25 2.9 1.31 0 1.75-.73 2-1.3h.74c-.29.92-1.04 1.98-2.77 1.98-2.13 0-2.96-1.83-2.96-3.62 0-2.01 1-3.73 3.05-3.73 2.17 0 2.86 1.86 2.86 3.19 0 .2 0 .39-.02.58Z"/><path d="M286.84 11.9h-1.36c-1.55 0-2.5.41-2.5 1.6 0 .88.62 1.47 1.6 1.47 1.99 0 2.26-1.32 2.26-2.82Zm.71 2.22c0 .62.06 1.12.1 1.34h-.7c-.06-.17-.1-.48-.13-1.07-.24.52-.85 1.24-2.29 1.24-1.63 0-2.33-1.05-2.33-2.1 0-1.54 1.19-2.24 3.29-2.24h1.32v-.71c0-.7-.21-1.62-1.79-1.62-1.4 0-1.61.73-1.77 1.31h-.73c.08-.78.57-1.97 2.51-1.97 1.61 0 2.51.67 2.51 2.22Z"/><path d="M289.99 10.22c0-.62 0-1.21-.01-1.77h.71c.03.22.04 1.12.03 1.32.31-.71.88-1.49 2.32-1.49 1.25 0 2.35.71 2.35 2.64v4.54h-.73V11.04c0-1.24-.51-2.05-1.72-2.05-1.65 0-2.22 1.37-2.22 2.89v3.58h-.73Z"/><path d="M305.7 11.42c-.01-1.38-.76-2.46-2.13-2.46-1.43 0-2.08 1-2.24 2.46Zm-4.4.63c.01 1.79.91 2.9 2.25 2.9 1.31 0 1.75-.73 2-1.3h.74c-.29.92-1.04 1.98-2.77 1.98-2.13 0-2.96-1.83-2.96-3.62 0-2.01 1-3.73 3.05-3.73 2.17 0 2.86 1.86 2.86 3.19 0 .2 0 .39-.02.58Z"/><path d="M313.54 13.4c-.33 1.23-1.15 2.23-2.73 2.23-1.76 0-3.01-1.31-3.01-3.64 0-1.92 1.03-3.7 3.09-3.7 1.79 0 2.52 1.27 2.64 2.25h-.74c-.21-.81-.74-1.57-1.92-1.57-1.47 0-2.31 1.25-2.31 2.99 0 1.67.78 3 2.24 3 1.01 0 1.63-.52 1.99-1.56Z"/><path d="M315.58 11.96c0 1.66.89 2.99 2.36 2.99 1.5 0 2.35-1.24 2.35-2.99 0-1.65-.83-2.99-2.38-2.99-1.58 0-2.34 1.32-2.34 2.99m5.48-.01c0 1.95-1.08 3.69-3.17 3.69-1.9 0-3.08-1.56-3.08-3.67 0-2.01 1.11-3.67 3.15-3.67 1.87 0 3.11 1.46 3.11 3.66"/><path d="M322.87 12.24h3.54v-.71h-3.54Z" fill-rule="evenodd"/><path d="M328.71 15.46V9.13h-1.2V8.45h1.2V7.47c0-1.18.35-2.47 1.91-2.47.21 0 .52.04.69.1v.69c-.21-.06-.54-.08-.75-.08-.82 0-1.13.58-1.13 1.79v.96h1.52v.68h-1.52v6.33Z"/><path d="M332.28 10.36c0-1.17-.01-1.67-.01-1.91h.71c.02.22.03.68.03 1.56.4-1.05 1.3-1.68 2.44-1.73v.78c-1.46.1-2.44 1.09-2.44 2.76v3.63h-.73Z"/><path d="M336.87 8.45h.73v7.01h-.73Zm0-3.31h.73V6.51h-.73Z"/><path d="M344.61 11.42c-.01-1.38-.76-2.46-2.12-2.46-1.43 0-2.09 1-2.24 2.46Zm-4.4.63c.01 1.79.91 2.9 2.25 2.9 1.31 0 1.75-.73 2-1.3h.74c-.29.92-1.04 1.98-2.77 1.98-2.13 0-2.97-1.83-2.97-3.62 0-2.01 1-3.73 3.05-3.73 2.16 0 2.85 1.86 2.85 3.19 0 .2 0 .39-.01.58Z"/><path d="M347.2 10.22c0-.62 0-1.21-.01-1.77h.71c.03.22.04 1.12.03 1.32.31-.71.88-1.49 2.32-1.49 1.25 0 2.35.71 2.35 2.64v4.54h-.73V11.04c0-1.24-.51-2.05-1.73-2.05-1.65 0-2.22 1.37-2.22 2.89v3.58h-.73Z"/><path d="M355.24 12.01c0 1.91.99 2.94 2.19 2.94 1.84 0 2.33-1.27 2.33-3.16 0-1.8-.43-2.83-2.21-2.83-1.38 0-2.31 1.1-2.31 3.05m5.22-6.87v8.3c0 .67 0 1.32.01 2.02h-.7c-.03-.17-.04-.82-.04-1.17-.35.85-1.13 1.34-2.35 1.34-1.82 0-2.92-1.48-2.92-3.59 0-2.16 1.19-3.76 3.1-3.76 1.39 0 1.95.6 2.16 1.04V5.14Z"/><path d="M362.88 15.46h.73V5.14h-.73Z" fill-rule="evenodd"/><path d="M366.02 8.45c1.4 3.97 2.02 5.64 2.25 6.39h.02c.28-.85.83-2.48 2.18-6.39h.76l-2.63 7.41c-.74 2.07-1.25 2.54-2.52 2.54-.25 0-.42-.01-.65-.04v-.72c.21.03.4.04.63.04 1 0 1.33-.49 1.84-1.91l-2.68-7.32Z"/><path d="M6.06 28.36c0-1.17-.01-1.67-.01-1.91h.71c.02.22.03.68.03 1.56.4-1.05 1.3-1.68 2.43-1.73v.78c-1.46.1-2.43 1.09-2.43 2.76v3.63H6.06Z"/><path d="M15.24 29.42c-.01-1.38-.76-2.46-2.13-2.46-1.43 0-2.08 1-2.24 2.46Zm-4.4.63c.01 1.79.91 2.9 2.25 2.9 1.31 0 1.75-.73 2-1.3h.74c-.29.92-1.04 1.98-2.77 1.98-2.13 0-2.97-1.83-2.97-3.62 0-2.01 1-3.73 3.05-3.73 2.17 0 2.86 1.86 2.86 3.19 0 .2 0 .39-.02.58Z"/><path d="M23.05 29.8c0-1.62-.78-2.83-2.16-2.83-1.68 0-2.38 1.06-2.38 2.95 0 1.87.54 3.02 2.28 3.02 1.45 0 2.26-1.22 2.26-3.15m-4.49 2.63v3.83h-.73V28.18c0-.57 0-1.19-.01-1.72h.71c.03.26.03.68.03 1.25.43-.83 1.2-1.42 2.46-1.42 1.65 0 2.8 1.39 2.8 3.49 0 2.52-1.35 3.85-3.04 3.85-1.23 0-1.87-.54-2.22-1.2"/><path d="M26 29.96c0 1.66.89 2.99 2.36 2.99 1.5 0 2.35-1.24 2.35-2.99 0-1.65-.83-2.99-2.38-2.99-1.58 0-2.34 1.32-2.34 2.99m5.48-.01c0 1.95-1.08 3.69-3.18 3.69-1.9 0-3.08-1.56-3.08-3.67 0-2.01 1.11-3.67 3.15-3.67 1.87 0 3.1 1.46 3.1 3.66"/><path d="M33.34 28.36c0-1.17-.01-1.67-.01-1.91h.71c.02.22.03.68.03 1.56.41-1.05 1.3-1.68 2.43-1.73v.78c-1.46.1-2.43 1.09-2.43 2.76v3.63h-.73Z"/><path d="M37.44 26.45h1.3V24.27h.73v2.18h1.66v.68H39.47v4.53c0 .78.17 1.22.84 1.22.21 0 .5-.01.72-.08v.63c-.24.1-.58.13-.88.13-.91 0-1.41-.45-1.41-1.58V27.13h-1.3Z"/><path d="M46.44 30c0 1.52.72 2.95 2.25 2.95 1.72 0 2.28-1.16 2.28-3.04 0-1.84-.47-2.94-2.22-2.94-1.49 0-2.31 1.27-2.31 3.02m4.51 2.28c-.34.8-1 1.35-2.39 1.35-1.61 0-2.89-1.33-2.89-3.59 0-2.42 1.43-3.76 3.07-3.76 1.42 0 2.04.7 2.21 1.21-.01-.31.01-.68.03-1.04h.7c-.01.82-.01 1.3-.01 1.95v7.86h-.71Z"/><path d="M59.35 31.42c0 .69.01 1.77.01 2.05h-.7c-.03-.18-.04-.64-.04-1.21-.3.82-1.01 1.38-2.25 1.38-1.02 0-2.3-.4-2.3-2.54V26.45h.72v4.46c0 1.02.32 2.01 1.7 2.01 1.55 0 2.14-.87 2.14-2.86V26.45h.73Z"/><path d="M65.88 29.9H64.52c-1.55 0-2.5.41-2.5 1.6 0 .88.62 1.47 1.6 1.47 1.99 0 2.26-1.32 2.26-2.82Zm.71 2.22c0 .62.06 1.12.1 1.34H66c-.06-.17-.1-.48-.13-1.07-.24.52-.85 1.24-2.29 1.24-1.63 0-2.33-1.05-2.33-2.1 0-1.54 1.19-2.24 3.29-2.24h1.32v-.71c0-.7-.21-1.62-1.79-1.62-1.4 0-1.61.73-1.77 1.31h-.73c.08-.78.57-1.97 2.51-1.97 1.6 0 2.51.67 2.51 2.22Z"/><path d="M69.03 28.22c0-.62 0-1.21-.01-1.77h.71c.03.22.04 1.12.03 1.32.31-.71.88-1.49 2.32-1.49 1.25 0 2.35.71 2.35 2.64v4.54h-.73V29.04c0-1.24-.51-2.05-1.72-2.05-1.65 0-2.22 1.37-2.22 2.89v3.58h-.73Z"/><path d="M75.77 26.45h1.3V24.27h.73v2.18h1.66v.68H77.8v4.53c0 .78.17 1.22.84 1.22.21 0 .5-.01.72-.08v.63c-.24.1-.58.13-.88.13-.91 0-1.41-.45-1.41-1.58V27.13h-1.3Z"/><path d="M81.03 26.45h.73v7.01h-.73Zm0-3.31h.73v1.37h-.73Z"/><path d="M84.53 33.46V27.13h-1.2v-.68h1.2v-.99c0-1.18.35-2.47 1.91-2.47.21 0 .52.04.69.1v.69c-.21-.06-.54-.08-.75-.08-.82 0-1.13.58-1.13 1.79v.96h1.52v.68H85.26v6.33Z"/><path d="M88.58 26.45c1.4 3.97 2.02 5.64 2.25 6.39h.01c.28-.85.83-2.48 2.18-6.39h.76l-2.63 7.41c-.74 2.07-1.25 2.54-2.52 2.54-.25 0-.42-.01-.65-.04v-.72c.21.03.41.04.63.04 1 0 1.33-.49 1.84-1.91l-2.68-7.32Z"/><path d="M95.35 26.45h.73v7.01h-.73Zm0-3.31h.73v1.37h-.73Z"/><path d="M98.5 28.22c0-.62 0-1.21-.01-1.77h.71c.03.22.04 1.12.03 1.32.31-.71.88-1.49 2.32-1.49 1.25 0 2.35.71 2.35 2.64v4.54h-.73V29.04c0-1.24-.51-2.05-1.72-2.05-1.65 0-2.22 1.37-2.22 2.89v3.58H98.5Z"/><path d="M106.54 29.93c0 1.66.88 2.85 2.21 2.85 1.74 0 2.27-1.16 2.27-2.96 0-1.83-.55-2.85-2.22-2.85-1.59 0-2.25 1.37-2.25 2.96m5.16 3.05c0 2.24-.99 3.43-3.04 3.43-1.84 0-2.59-1.03-2.76-2.09h.74c.25.96 1.04 1.42 2.04 1.42 1.81 0 2.31-1.17 2.31-2.94v-.72c-.38.9-1.06 1.39-2.33 1.39-1.65 0-2.9-1.34-2.9-3.5 0-2.35 1.35-3.67 3-3.67 1.42 0 2.04.67 2.23 1.23.01-.4.03-.89.04-1.06h.68c0 .26-.03 1.36-.03 2.03Z"/><path d="M116.61 26.45h1.3V24.27h.73v2.18h1.66v.68h-1.66v4.53c0 .78.17 1.22.84 1.22.21 0 .5-.01.72-.08v.63c-.24.1-.58.13-.88.13-.91 0-1.41-.45-1.41-1.58V27.13h-1.3Z"/><path d="M122.56 23.14v4.48c.39-.72 1.07-1.34 2.31-1.34 1 0 2.37.51 2.37 2.72v4.46h-.73V29.15c0-1.38-.62-2.15-1.78-2.15-1.38 0-2.17.85-2.17 2.56v3.91h-.73V23.14Z"/><path d="M134.25 29.42c-.02-1.38-.76-2.46-2.13-2.46-1.43 0-2.08 1-2.24 2.46Zm-4.41.63c.01 1.79.92 2.9 2.25 2.9 1.31 0 1.75-.73 2-1.3h.74c-.29.92-1.04 1.98-2.77 1.98-2.13 0-2.97-1.83-2.97-3.62 0-2.01 1-3.73 3.05-3.73 2.16 0 2.86 1.86 2.86 3.19 0 .2 0 .39-.01.58Z"/><path d="M145.55 31.4c-.33 1.23-1.15 2.23-2.73 2.23-1.76 0-3.01-1.31-3.01-3.64 0-1.92 1.03-3.7 3.09-3.7 1.79 0 2.52 1.27 2.65 2.25h-.74c-.21-.81-.74-1.57-1.92-1.57-1.47 0-2.31 1.25-2.31 2.99 0 1.67.78 3 2.24 3 1.02 0 1.63-.52 1.99-1.56Z"/><path d="M151.47 29.9h-1.36c-1.55 0-2.5.41-2.5 1.6 0 .88.62 1.47 1.6 1.47 1.99 0 2.27-1.32 2.27-2.82Zm.71 2.22c0 .62.06 1.12.1 1.34h-.7c-.05-.17-.1-.48-.12-1.07-.24.52-.85 1.24-2.29 1.24-1.63 0-2.33-1.05-2.33-2.1 0-1.54 1.19-2.24 3.3-2.24h1.33v-.71c0-.7-.21-1.62-1.79-1.62-1.4 0-1.61.73-1.76 1.31h-.73c.08-.78.57-1.97 2.51-1.97 1.6 0 2.5.67 2.5 2.22Z"/><path d="M154.62 28.36c0-1.17-.01-1.67-.01-1.91h.71c.02.22.03.68.03 1.56.4-1.05 1.3-1.68 2.44-1.73v.78c-1.46.1-2.44 1.09-2.44 2.76v3.63h-.73Z"/><path d="M164.55 29.82c0-1.74-.86-2.85-2.18-2.85-1.74 0-2.35 1.18-2.35 3.01 0 1.64.54 2.98 2.27 2.98 1.41 0 2.27-1.17 2.27-3.13m-5.22-6.68h.73v4.48c.33-.69 1.02-1.33 2.39-1.33 1.66 0 2.87 1.36 2.87 3.52 0 2.21-1.09 3.83-3.06 3.83-1.17 0-1.84-.47-2.21-1.27 0 .44-.01.9-.03 1.1h-.71c.01-.8.01-1.6.01-2.4Z"/><path d="M167.48 29.96c0 1.66.89 2.99 2.36 2.99 1.5 0 2.35-1.24 2.35-2.99 0-1.65-.83-2.99-2.38-2.99-1.58 0-2.34 1.32-2.34 2.99m5.48-.01c0 1.95-1.08 3.69-3.17 3.69-1.9 0-3.08-1.56-3.08-3.67 0-2.01 1.11-3.67 3.15-3.67 1.87 0 3.1 1.46 3.1 3.66"/><path d="M174.82 28.22c0-.62 0-1.21-.02-1.77h.72c.03.22.04 1.12.03 1.32.31-.71.88-1.49 2.32-1.49 1.25 0 2.35.71 2.35 2.64v4.54h-.73V29.04c0-1.24-.51-2.05-1.72-2.05-1.65 0-2.22 1.37-2.22 2.89v3.58h-.73Z"/><path d="M186.4 29.96c0 1.66.89 2.99 2.36 2.99 1.5 0 2.35-1.24 2.35-2.99 0-1.65-.83-2.99-2.38-2.99-1.58 0-2.34 1.32-2.34 2.99m5.48-.01c0 1.95-1.08 3.69-3.17 3.69-1.9 0-3.08-1.56-3.08-3.67 0-2.01 1.11-3.67 3.15-3.67 1.87 0 3.1 1.46 3.1 3.66"/><path d="M194.77 27.13v6.33h-.73V27.13h-1.2v-.68h1.2v-.96c0-1.21.28-2.49 1.85-2.49.21 0 .47.01.63.1v.68c-.2-.07-.47-.1-.67-.1-.78 0-1.08.51-1.08 1.71v1.07h2.8v-.96c0-1.21.3-2.49 1.85-2.49.21 0 .47.01.63.1v.68c-.2-.07-.47-.1-.67-.1-.78 0-1.08.51-1.08 1.71v1.07h1.48v.68H198.3v6.33h-.73V27.13Z"/><path d="M201.25 31.52c.24.9.88 1.45 1.98 1.45 1.24 0 1.73-.57 1.73-1.34 0-.79-.34-1.18-1.89-1.55-1.82-.44-2.27-.99-2.27-1.91 0-.97.73-1.87 2.32-1.87s2.35.97 2.46 1.97h-.73c-.12-.58-.58-1.31-1.77-1.31-1.21 0-1.55.6-1.55 1.15 0 .64.33.96 1.72 1.29 1.98.48 2.47 1.13 2.47 2.18 0 1.27-1.03 2.07-2.52 2.07-1.61 0-2.51-.85-2.7-2.11Z"/><path d="M212.19 29.42c-.02-1.38-.76-2.46-2.13-2.46-1.43 0-2.09 1-2.24 2.46Zm-4.4.63c.01 1.79.91 2.9 2.25 2.9 1.31 0 1.75-.73 2-1.3h.74c-.29.92-1.04 1.98-2.77 1.98-2.13 0-2.97-1.83-2.97-3.62 0-2.01 1-3.73 3.05-3.73 2.16 0 2.85 1.86 2.85 3.19 0 .2 0 .39-.01.58Z"/><path d="M213.85 26.45h1.3V24.27h.73v2.18h1.66v.68h-1.66v4.53c0 .78.17 1.22.84 1.22.21 0 .5-.01.72-.08v.63c-.24.1-.58.13-.88.13-.91 0-1.41-.45-1.41-1.58V27.13h-1.3Z"/><path d="M226.76 29.9H225.4c-1.55 0-2.5.41-2.5 1.6 0 .88.62 1.47 1.6 1.47 1.99 0 2.27-1.32 2.27-2.82Zm.71 2.22c0 .62.06 1.12.1 1.34h-.7c-.05-.17-.1-.48-.13-1.07-.24.52-.85 1.24-2.29 1.24-1.63 0-2.33-1.05-2.33-2.1 0-1.54 1.19-2.24 3.29-2.24h1.32v-.71c0-.7-.21-1.62-1.79-1.62-1.4 0-1.61.73-1.76 1.31h-.73c.08-.78.57-1.97 2.51-1.97 1.6 0 2.51.67 2.51 2.22Z"/><path d="M230.02 33.46V27.13h-1.2v-.68h1.2v-.99c0-1.18.34-2.47 1.91-2.47.21 0 .52.04.69.1v.69c-.21-.06-.54-.08-.75-.08-.82 0-1.13.58-1.13 1.79v.96h1.52v.68h-1.52v6.33Z"/><path d="M232.34 26.45h1.3V24.27h.73v2.18h1.66v.68h-1.66v4.53c0 .78.17 1.22.84 1.22.21 0 .5-.01.72-.08v.63c-.24.1-.58.13-.88.13-.91 0-1.41-.45-1.41-1.58V27.13h-1.3Z"/><path d="M242.1 29.42c-.02-1.38-.76-2.46-2.13-2.46-1.43 0-2.08 1-2.24 2.46Zm-4.41.63c.01 1.79.92 2.9 2.25 2.9 1.31 0 1.75-.73 2-1.3h.74c-.29.92-1.04 1.98-2.77 1.98-2.13 0-2.97-1.83-2.97-3.62 0-2.01 1-3.73 3.05-3.73 2.16 0 2.85 1.86 2.85 3.19 0 .2 0 .39-.01.58Z"/><path d="M244.69 28.36c0-1.17-.01-1.67-.01-1.91h.71c.02.22.03.68.03 1.56.4-1.05 1.3-1.68 2.43-1.73v.78c-1.46.1-2.43 1.09-2.43 2.76v3.63h-.73Z"/><path d="M257.05 29.9h-1.36c-1.55 0-2.5.41-2.5 1.6 0 .88.62 1.47 1.6 1.47 1.99 0 2.27-1.32 2.27-2.82Zm.71 2.22c0 .62.06 1.12.1 1.34h-.7c-.06-.17-.1-.48-.12-1.07-.24.52-.85 1.24-2.29 1.24-1.63 0-2.33-1.05-2.33-2.1 0-1.54 1.19-2.24 3.3-2.24h1.32v-.71c0-.7-.21-1.62-1.79-1.62-1.4 0-1.61.73-1.77 1.31h-.73c.09-.78.57-1.97 2.51-1.97 1.6 0 2.5.67 2.5 2.22Z"/><path d="M260.19 28.22c0-.62 0-1.21-.01-1.77h.71c.03.22.04 1.12.03 1.32.31-.71.88-1.49 2.32-1.49 1.25 0 2.35.71 2.35 2.64v4.54h-.73V29.04c0-1.24-.51-2.05-1.72-2.05-1.65 0-2.22 1.37-2.22 2.89v3.58h-.73Z"/><path d="M276.14 29.42c-.02-1.38-.76-2.46-2.13-2.46-1.43 0-2.08 1-2.24 2.46Zm-4.41.63c.01 1.79.92 2.9 2.25 2.9 1.31 0 1.75-.73 2-1.3h.74c-.29.92-1.04 1.98-2.77 1.98-2.13 0-2.97-1.83-2.97-3.62 0-2.01 1-3.73 3.05-3.73 2.16 0 2.86 1.86 2.86 3.19 0 .2 0 .39-.02.58Z"/><path d="M278.8 26.45c1.12 3.19 1.9 5.38 2.17 6.27h.01c.16-.53.94-2.62 2.28-6.27h.77l-2.65 7.01h-.87l-2.49-7.01Z"/><path d="M290.11 29.42c-.01-1.38-.76-2.46-2.12-2.46-1.43 0-2.09 1-2.24 2.46Zm-4.4.63c.01 1.79.91 2.9 2.25 2.9 1.31 0 1.75-.73 2-1.3h.74c-.29.92-1.04 1.98-2.77 1.98-2.13 0-2.96-1.83-2.96-3.62 0-2.01 1-3.73 3.05-3.73 2.17 0 2.85 1.86 2.85 3.19 0 .2 0 .39-.01.58Z"/><path d="M292.71 28.22c0-.62 0-1.21-.01-1.77h.71c.03.22.04 1.12.03 1.32.31-.71.88-1.49 2.32-1.49 1.25 0 2.35.71 2.35 2.64v4.54h-.73V29.04c0-1.24-.51-2.05-1.72-2.05-1.65 0-2.22 1.37-2.22 2.89v3.58h-.73Z"/><path d="M299.45 26.45h1.3V24.27h.73v2.18h1.66v.68h-1.66v4.53c0 .78.17 1.22.84 1.22.21 0 .5-.01.72-.08v.63c-.24.1-.58.13-.88.13-.91 0-1.41-.45-1.41-1.58V27.13h-1.3Z"/><path d="M304.68 33.46h.73V31.64h-.73Z" fill-rule="evenodd"/><path d="M316.18 29.38c-1.08-2.89-1.64-4.29-1.84-4.96h-.01c-.24.75-.86 2.48-1.74 4.96Zm-3.86.72l-1.24 3.36h-.8l3.59-9.8h.93l3.75 9.8h-.86l-1.26-3.36Z"/><path d="M328.9 31.4c-.33 1.23-1.15 2.23-2.73 2.23-1.76 0-3.01-1.31-3.01-3.64 0-1.92 1.03-3.7 3.09-3.7 1.79 0 2.52 1.27 2.65 2.25h-.74c-.21-.81-.74-1.57-1.92-1.57-1.47 0-2.31 1.25-2.31 2.99 0 1.67.78 3 2.24 3 1.02 0 1.63-.52 1.99-1.56Z"/><path d="M335.31 29.42c-.01-1.38-.76-2.46-2.12-2.46-1.43 0-2.09 1-2.24 2.46Zm-4.4.63c.01 1.79.91 2.9 2.25 2.9 1.31 0 1.75-.73 2-1.3h.74c-.29.92-1.04 1.98-2.77 1.98-2.13 0-2.96-1.83-2.96-3.62 0-2.01 1-3.73 3.05-3.73 2.16 0 2.85 1.86 2.85 3.19 0 .2 0 .39-.02.58Z"/><path d="M337.91 28.36c0-1.17-.01-1.67-.01-1.91h.72c.01.22.03.68.03 1.56.4-1.05 1.3-1.68 2.43-1.73v.78c-1.46.1-2.43 1.09-2.43 2.76v3.63h-.73Z"/><path d="M342 26.45h1.3V24.27h.73v2.18h1.66v.68h-1.66v4.53c0 .78.17 1.22.84 1.22.21 0 .5-.01.72-.08v.63c-.24.1-.58.13-.88.13-.91 0-1.41-.45-1.41-1.58V27.13H342Z"/><path d="M347.26 26.45h.73v7.01h-.73Zm0-3.31h.73v1.37h-.73Z"/><path d="M350.76 33.46V27.13h-1.2v-.68h1.2v-.99c0-1.18.35-2.47 1.91-2.47.21 0 .52.04.69.1v.69c-.21-.06-.54-.08-.75-.08-.82 0-1.13.58-1.13 1.79v.96h1.52v.68h-1.52v6.33Z"/><path d="M354.44 26.45h.73v7.01h-.73Zm0-3.31h.73v1.37h-.73Z"/><path d="M362.18 29.42c-.01-1.38-.76-2.46-2.12-2.46-1.43 0-2.09 1-2.24 2.46Zm-4.4.63c.01 1.79.91 2.9 2.25 2.9 1.31 0 1.75-.73 2-1.3h.74c-.29.92-1.04 1.98-2.77 1.98-2.13 0-2.97-1.83-2.97-3.62 0-2.01 1-3.73 3.05-3.73 2.16 0 2.85 1.86 2.85 3.19 0 .2 0 .39-.01.58Z"/><path d="M365.05 30.01c0 1.91.99 2.94 2.18 2.94 1.84 0 2.34-1.27 2.34-3.16 0-1.8-.43-2.83-2.21-2.83-1.38 0-2.31 1.1-2.31 3.05m5.22-6.87v8.3c0 .67 0 1.32.01 2.02h-.7c-.03-.17-.04-.82-.04-1.17-.35.85-1.13 1.34-2.35 1.34-1.82 0-2.91-1.48-2.91-3.59 0-2.16 1.19-3.76 3.1-3.76 1.39 0 1.95.6 2.16 1.04V23.14Z"/><path d="M10.65 47.42c-.01-1.38-.76-2.46-2.12-2.46-1.43 0-2.09 1-2.24 2.46Zm-4.4.63c.01 1.79.91 2.9 2.25 2.9 1.31 0 1.75-.73 2-1.3h.74c-.29.92-1.04 1.98-2.77 1.98-2.13 0-2.96-1.83-2.96-3.62 0-2.01 1-3.73 3.05-3.73 2.16 0 2.85 1.86 2.85 3.19 0 .2 0 .39-.01.58Z"/><path d="M18.49 49.4c-.33 1.23-1.15 2.23-2.73 2.23-1.76 0-3.01-1.31-3.01-3.64 0-1.92 1.03-3.7 3.09-3.7 1.79 0 2.52 1.27 2.65 2.25h-.74c-.21-.81-.74-1.57-1.92-1.57-1.47 0-2.31 1.25-2.31 2.99 0 1.67.78 3 2.24 3 1.02 0 1.63-.52 1.99-1.56Z"/><path d="M20.52 47.96c0 1.66.89 2.99 2.36 2.99 1.5 0 2.35-1.24 2.35-2.99 0-1.65-.84-2.99-2.38-2.99-1.58 0-2.33 1.32-2.33 2.99M26 47.94c0 1.95-1.08 3.69-3.17 3.69-1.9 0-3.08-1.56-3.08-3.67 0-2.01 1.11-3.67 3.15-3.67 1.87 0 3.1 1.46 3.1 3.66"/><path d="M27.82 48.24h3.54v-.71H27.82Z" fill-rule="evenodd"/><path d="M33.65 51.46V45.13h-1.2v-.68h1.2v-.99c0-1.18.35-2.47 1.91-2.47.21 0 .52.04.69.1v.69c-.21-.06-.54-.08-.75-.08-.82 0-1.13.58-1.13 1.79v.96H35.9v.68H34.38v6.33Z"/><path d="M37.22 46.36c0-1.17-.01-1.67-.01-1.91h.71c.02.22.03.68.03 1.56.41-1.05 1.3-1.68 2.43-1.73v.78c-1.46.1-2.43 1.09-2.43 2.76v3.63h-.73Z"/><path d="M41.81 44.45h.73v7.01h-.73Zm0-3.31h.73v1.37h-.73Z"/><path d="M49.55 47.42c-.02-1.38-.76-2.46-2.13-2.46-1.43 0-2.08 1-2.24 2.46Zm-4.41.63c.01 1.79.92 2.9 2.25 2.9 1.31 0 1.75-.73 2-1.3h.74c-.29.92-1.04 1.98-2.77 1.98-2.13 0-2.97-1.83-2.97-3.62 0-2.01 1-3.73 3.05-3.73 2.16 0 2.86 1.86 2.86 3.19 0 .2 0 .39-.01.58Z"/><path d="M52.15 46.22c0-.62 0-1.21-.02-1.77h.71c.03.22.04 1.12.03 1.32.31-.71.88-1.49 2.32-1.49 1.25 0 2.35.71 2.35 2.64v4.54h-.73V47.04c0-1.24-.51-2.05-1.73-2.05-1.65 0-2.22 1.37-2.22 2.89v3.58h-.73Z"/><path d="M60.18 48.01c0 1.91.98 2.94 2.18 2.94 1.84 0 2.33-1.27 2.33-3.16 0-1.8-.43-2.83-2.21-2.83-1.38 0-2.31 1.1-2.31 3.05m5.22-6.87v8.3c0 .67 0 1.32.01 2.02h-.7c-.03-.17-.04-.82-.04-1.17-.35.85-1.13 1.34-2.35 1.34-1.82 0-2.92-1.48-2.92-3.59 0-2.16 1.19-3.76 3.1-3.76 1.39 0 1.95.6 2.16 1.04V41.14Z"/><path d="M67.82 51.46h.73V41.14h-.73Z" fill-rule="evenodd"/><path d="M70.96 44.45c1.4 3.97 2.02 5.64 2.25 6.39h.01c.28-.85.84-2.48 2.18-6.39h.76l-2.63 7.41c-.74 2.07-1.25 2.54-2.52 2.54-.25 0-.42-.01-.65-.04v-.72c.21.03.41.04.63.04 1 0 1.33-.49 1.84-1.91l-2.67-7.32Z"/><path d="M82.11 46.36c0-1.17-.01-1.67-.01-1.91h.71c.02.22.03.68.03 1.56.4-1.05 1.3-1.68 2.44-1.73v.78c-1.46.1-2.44 1.09-2.44 2.76v3.63h-.73Z"/><path d="M91.29 47.42c-.01-1.38-.76-2.46-2.12-2.46-1.43 0-2.08 1-2.24 2.46Zm-4.4.63c.01 1.79.91 2.9 2.25 2.9 1.31 0 1.75-.73 2-1.3h.74c-.29.92-1.04 1.98-2.77 1.98-2.13 0-2.96-1.83-2.96-3.62 0-2.01 1-3.73 3.05-3.73 2.16 0 2.85 1.86 2.85 3.19 0 .2 0 .39-.02.58Z"/><path d="M99.1 47.8c0-1.62-.78-2.83-2.16-2.83-1.68 0-2.38 1.06-2.38 2.95 0 1.87.54 3.02 2.28 3.02 1.45 0 2.25-1.22 2.25-3.15m-4.49 2.63v3.83h-.73V46.18c0-.57 0-1.19-.01-1.72h.71c.03.26.03.68.03 1.25.43-.83 1.2-1.42 2.46-1.42 1.65 0 2.8 1.39 2.8 3.49 0 2.52-1.35 3.85-3.04 3.85-1.23 0-1.87-.54-2.22-1.2"/><path d="M102.05 47.96c0 1.66.89 2.99 2.36 2.99 1.5 0 2.35-1.24 2.35-2.99 0-1.65-.83-2.99-2.38-2.99-1.58 0-2.33 1.32-2.33 2.99m5.48-.01c0 1.95-1.08 3.69-3.18 3.69-1.9 0-3.08-1.56-3.08-3.67 0-2.01 1.11-3.67 3.15-3.67 1.87 0 3.1 1.46 3.1 3.66"/><path d="M109.4 46.36c0-1.17-.01-1.67-.01-1.91h.71c.01.22.03.68.03 1.56.4-1.05 1.3-1.68 2.43-1.73v.78c-1.46.1-2.43 1.09-2.43 2.76v3.63h-.73Z"/><path d="M113.49 44.45h1.3V42.27h.73v2.18h1.66v.68h-1.66v4.53c0 .78.17 1.22.84 1.22.21 0 .5-.01.72-.08v.63c-.24.1-.58.13-.88.13-.91 0-1.41-.45-1.41-1.58V45.13h-1.3Z"/><path d="M118.25 53.06c.69-1.37.94-2.61.98-3.4h.73c-.1 1.17-.55 2.56-1.06 3.4Z"/><path d="M126.55 51.46V45.13h-1.2v-.68h1.2v-.99c0-1.18.35-2.47 1.91-2.47.21 0 .52.04.69.1v.69c-.21-.06-.54-.08-.75-.08-.82 0-1.13.58-1.13 1.79v.96h1.52v.68h-1.52v6.33Z"/><path d="M134.64 47.42c-.01-1.38-.76-2.46-2.12-2.46-1.43 0-2.08 1-2.24 2.46Zm-4.4.63c.01 1.79.91 2.9 2.25 2.9 1.31 0 1.75-.73 2-1.3h.74c-.29.92-1.04 1.98-2.77 1.98-2.13 0-2.96-1.83-2.96-3.62 0-2.01 1-3.73 3.05-3.73 2.16 0 2.85 1.86 2.85 3.19 0 .2 0 .39-.02.58Z"/><path d="M141.35 47.9h-1.36c-1.55 0-2.5.41-2.5 1.6 0 .88.62 1.47 1.6 1.47 1.99 0 2.27-1.32 2.27-2.82Zm.71 2.22c0 .62.06 1.12.1 1.34h-.7c-.05-.17-.1-.48-.13-1.07-.24.52-.85 1.24-2.29 1.24-1.63 0-2.33-1.05-2.33-2.1 0-1.54 1.19-2.24 3.29-2.24h1.32v-.71c0-.7-.21-1.62-1.79-1.62-1.4 0-1.61.73-1.76 1.31h-.73c.08-.78.57-1.97 2.51-1.97 1.6 0 2.51.67 2.51 2.22Z"/><path d="M143.39 44.45h1.3V42.27h.73v2.18h1.66v.68h-1.66v4.53c0 .78.17 1.22.84 1.22.21 0 .5-.01.72-.08v.63c-.24.1-.58.13-.88.13-.91 0-1.41-.45-1.41-1.58V45.13h-1.3Z"/><path d="M153.71 49.42c0 .69.02 1.77.02 2.05h-.7c-.03-.18-.04-.64-.04-1.21-.3.82-1.01 1.38-2.25 1.38-1.02 0-2.3-.4-2.3-2.54V44.45h.71v4.46c0 1.02.32 2.01 1.7 2.01 1.55 0 2.14-.87 2.14-2.86V44.45h.73Z"/><path d="M156.13 46.36c0-1.17-.01-1.67-.01-1.91h.71c.02.22.03.68.03 1.56.4-1.05 1.3-1.68 2.43-1.73v.78c-1.46.1-2.43 1.09-2.43 2.76v3.63h-.73Z"/><path d="M160.73 44.45h.73v7.01h-.73Zm0-3.31h.73v1.37h-.73Z"/><path d="M163.88 46.22c0-.62 0-1.21-.02-1.77h.71c.03.22.04 1.12.03 1.32.31-.71.88-1.49 2.32-1.49 1.25 0 2.35.71 2.35 2.64v4.54h-.73V47.04c0-1.24-.51-2.05-1.73-2.05-1.65 0-2.22 1.37-2.22 2.89v3.58h-.73Z"/><path d="M171.92 47.93c0 1.66.88 2.85 2.21 2.85 1.74 0 2.27-1.16 2.27-2.96 0-1.83-.55-2.85-2.23-2.85-1.59 0-2.25 1.37-2.25 2.96m5.16 3.05c0 2.24-.99 3.43-3.04 3.43-1.84 0-2.59-1.03-2.76-2.09h.74c.25.96 1.04 1.42 2.04 1.42 1.81 0 2.31-1.17 2.31-2.94v-.72c-.38.9-1.06 1.39-2.33 1.39-1.65 0-2.9-1.34-2.9-3.5 0-2.35 1.34-3.67 3-3.67 1.42 0 2.04.67 2.23 1.23.02-.4.03-.89.04-1.06h.68c0 .26-.03 1.36-.03 2.03Z"/><path d="M189.15 49.4c-.33 1.23-1.15 2.23-2.73 2.23-1.76 0-3.01-1.31-3.01-3.64 0-1.92 1.03-3.7 3.09-3.7 1.79 0 2.52 1.27 2.65 2.25h-.74c-.21-.81-.74-1.57-1.92-1.57-1.47 0-2.31 1.25-2.31 2.99 0 1.67.78 3 2.24 3 1.02 0 1.63-.52 1.99-1.56Z"/><path d="M195.07 47.9h-1.36c-1.55 0-2.5.41-2.5 1.6 0 .88.62 1.47 1.6 1.47 1.99 0 2.26-1.32 2.26-2.82Zm.72 2.22c0 .62.06 1.12.1 1.34h-.7c-.06-.17-.1-.48-.13-1.07-.24.52-.85 1.24-2.29 1.24-1.63 0-2.33-1.05-2.33-2.1 0-1.54 1.19-2.24 3.3-2.24h1.32v-.71c0-.7-.21-1.62-1.79-1.62-1.4 0-1.61.73-1.77 1.31h-.73c.09-.78.57-1.97 2.51-1.97 1.6 0 2.51.67 2.51 2.22Z"/><path d="M198.22 46.36c0-1.17-.01-1.67-.01-1.91h.71c.02.22.03.68.03 1.56.4-1.05 1.3-1.68 2.43-1.73v.78c-1.46.1-2.43 1.09-2.43 2.76v3.63h-.73Z"/><path d="M208.15 47.82c0-1.74-.86-2.85-2.18-2.85-1.74 0-2.35 1.18-2.35 3.01 0 1.64.54 2.98 2.27 2.98 1.41 0 2.27-1.17 2.27-3.13m-5.22-6.68h.73v4.48c.34-.69 1.02-1.33 2.39-1.33 1.66 0 2.87 1.36 2.87 3.52 0 2.21-1.09 3.83-3.05 3.83-1.18 0-1.84-.47-2.21-1.27 0 .44-.02.9-.03 1.1h-.71c.01-.8.01-1.6.01-2.4Z"/><path d="M211.08 47.96c0 1.66.89 2.99 2.36 2.99 1.5 0 2.35-1.24 2.35-2.99 0-1.65-.83-2.99-2.38-2.99-1.58 0-2.34 1.32-2.34 2.99m5.48-.01c0 1.95-1.08 3.69-3.17 3.69-1.9 0-3.08-1.56-3.08-3.67 0-2.01 1.11-3.67 3.15-3.67 1.87 0 3.11 1.46 3.11 3.66"/><path d="M218.43 46.22c0-.62 0-1.21-.01-1.77h.71c.03.22.04 1.12.03 1.32.31-.71.88-1.49 2.32-1.49 1.25 0 2.35.71 2.35 2.64v4.54h-.73V47.04c0-1.24-.51-2.05-1.73-2.05-1.65 0-2.22 1.37-2.22 2.89v3.58h-.73Z"/><path d="M230.72 46.36c0-1.17-.01-1.67-.01-1.91h.71c.02.22.03.68.03 1.56.4-1.05 1.3-1.68 2.43-1.73v.78c-1.46.1-2.43 1.09-2.43 2.76v3.63h-.73Z"/><path d="M239.91 47.42c-.01-1.38-.76-2.46-2.12-2.46-1.43 0-2.09 1-2.24 2.46Zm-4.4.63c.01 1.79.91 2.9 2.25 2.9 1.31 0 1.75-.73 2-1.3h.74c-.29.92-1.04 1.98-2.77 1.98-2.13 0-2.97-1.83-2.97-3.62 0-2.01 1-3.73 3.05-3.73 2.16 0 2.85 1.86 2.85 3.19 0 .2 0 .39-.01.58Z"/><path d="M242.78 48.01c0 1.91.98 2.94 2.18 2.94 1.84 0 2.34-1.27 2.34-3.16 0-1.8-.43-2.83-2.21-2.83-1.38 0-2.31 1.1-2.31 3.05M248 41.14v8.3c0 .67 0 1.32.01 2.02h-.7c-.03-.17-.04-.82-.04-1.17-.35.85-1.13 1.34-2.35 1.34-1.82 0-2.92-1.48-2.92-3.59 0-2.16 1.19-3.76 3.1-3.76 1.39 0 1.95.6 2.16 1.04V41.14Z"/><path d="M255.68 49.42c0 .69.01 1.77.01 2.05H255c-.03-.18-.04-.64-.04-1.21-.3.82-1.01 1.38-2.25 1.38-1.02 0-2.3-.4-2.3-2.54V44.45h.71v4.46c0 1.02.32 2.01 1.7 2.01 1.55 0 2.14-.87 2.14-2.86V44.45h.73Z"/><path d="M263.29 49.4c-.33 1.23-1.15 2.23-2.73 2.23-1.76 0-3.01-1.31-3.01-3.64 0-1.92 1.03-3.7 3.09-3.7 1.79 0 2.52 1.27 2.65 2.25h-.74c-.21-.81-.74-1.57-1.92-1.57-1.47 0-2.31 1.25-2.31 2.99 0 1.67.78 3 2.24 3 1.02 0 1.63-.52 1.99-1.56Z"/><path d="M264.16 44.45h1.3V42.27h.73v2.18h1.66v.68h-1.66v4.53c0 .78.17 1.22.84 1.22.21 0 .5-.01.72-.08v.63c-.24.1-.58.13-.88.13-.91 0-1.41-.45-1.41-1.58V45.13h-1.3Z"/><path d="M269.42 44.45h.73v7.01h-.73Zm0-3.31h.73v1.37h-.73Z"/><path d="M272.78 47.96c0 1.66.89 2.99 2.36 2.99 1.5 0 2.35-1.24 2.35-2.99 0-1.65-.84-2.99-2.38-2.99-1.58 0-2.34 1.32-2.34 2.99m5.48-.01c0 1.95-1.08 3.69-3.18 3.69-1.9 0-3.08-1.56-3.08-3.67 0-2.01 1.11-3.67 3.15-3.67 1.87 0 3.11 1.46 3.11 3.66"/><path d="M280.13 46.22c0-.62 0-1.21-.01-1.77h.71c.03.22.04 1.12.03 1.32.31-.71.88-1.49 2.32-1.49 1.25 0 2.35.71 2.35 2.64v4.54h-.73V47.04c0-1.24-.51-2.05-1.72-2.05-1.65 0-2.22 1.37-2.22 2.89v3.58h-.73Z"/><path d="M296.54 47.9h-1.36c-1.55 0-2.5.41-2.5 1.6 0 .88.62 1.47 1.6 1.47 1.99 0 2.27-1.32 2.27-2.82Zm.71 2.22c0 .62.06 1.12.1 1.34h-.7c-.05-.17-.1-.48-.12-1.07-.24.52-.85 1.24-2.29 1.24-1.63 0-2.33-1.05-2.33-2.1 0-1.54 1.19-2.24 3.29-2.24h1.33v-.71c0-.7-.21-1.62-1.79-1.62-1.4 0-1.61.73-1.76 1.31h-.73c.08-.78.57-1.97 2.51-1.97 1.61 0 2.5.67 2.5 2.22Z"/><path d="M299.69 46.22c0-.62 0-1.21-.01-1.77h.71c.03.22.04 1.12.03 1.32.31-.71.88-1.49 2.32-1.49 1.25 0 2.35.71 2.35 2.64v4.54h-.73V47.04c0-1.24-.51-2.05-1.73-2.05-1.65 0-2.22 1.37-2.22 2.89v3.58h-.73Z"/><path d="M311.55 47.9h-1.36c-1.55 0-2.5.41-2.5 1.6 0 .88.62 1.47 1.6 1.47 1.99 0 2.27-1.32 2.27-2.82Zm.71 2.22c0 .62.06 1.12.1 1.34h-.7c-.05-.17-.1-.48-.12-1.07-.24.52-.85 1.24-2.29 1.24-1.63 0-2.33-1.05-2.33-2.1 0-1.54 1.19-2.24 3.29-2.24h1.33v-.71c0-.7-.21-1.62-1.79-1.62-1.4 0-1.61.73-1.76 1.31h-.73c.08-.78.57-1.97 2.51-1.97 1.6 0 2.5.67 2.5 2.22Z"/><path d="M314.7 51.46h.73V41.14h-.73Z" fill-rule="evenodd"/><path d="M317.84 44.45c1.4 3.97 2.02 5.64 2.25 6.39h.02c.28-.85.83-2.48 2.18-6.39h.76l-2.63 7.41c-.74 2.07-1.25 2.54-2.52 2.54-.25 0-.42-.01-.65-.04v-.72c.21.03.41.04.63.04 1 0 1.33-.49 1.84-1.91l-2.67-7.32Z"/><path d="M324.74 49.52c.24.9.88 1.45 1.98 1.45 1.23 0 1.73-.57 1.73-1.34 0-.79-.34-1.18-1.89-1.55-1.82-.44-2.27-.99-2.27-1.91 0-.97.73-1.87 2.33-1.87s2.35.97 2.46 1.97h-.73c-.12-.58-.58-1.31-1.77-1.31-1.21 0-1.55.6-1.55 1.15 0 .64.33.96 1.72 1.29 1.98.48 2.47 1.13 2.47 2.18 0 1.27-1.03 2.07-2.52 2.07-1.61 0-2.51-.85-2.7-2.11Z"/><path d="M331.09 44.45h.73v7.01h-.73Zm0-3.31h.73v1.37h-.73Z"/><path d="M334.21 49.52c.24.9.88 1.45 1.98 1.45 1.24 0 1.73-.57 1.73-1.34 0-.79-.34-1.18-1.89-1.55-1.82-.44-2.27-.99-2.27-1.91 0-.97.73-1.87 2.33-1.87s2.35.97 2.46 1.97h-.73c-.12-.58-.58-1.31-1.77-1.31-1.21 0-1.55.6-1.55 1.15 0 .64.33.96 1.72 1.29 1.98.48 2.47 1.13 2.47 2.18 0 1.27-1.03 2.07-2.52 2.07-1.61 0-2.51-.85-2.7-2.11Z"/><path d="M345.21 51.46V45.13h-1.2v-.68h1.2v-.99c0-1.18.35-2.47 1.91-2.47.21 0 .52.04.69.1v.69c-.21-.06-.54-.08-.75-.08-.82 0-1.13.58-1.13 1.79v.96h1.52v.68h-1.52v6.33Z"/><path d="M348.78 46.36c0-1.17-.01-1.67-.01-1.91h.71c.02.22.03.68.03 1.56.41-1.05 1.3-1.68 2.44-1.73v.78c-1.46.1-2.44 1.09-2.44 2.76v3.63h-.73Z"/><path d="M353.59 47.96c0 1.66.89 2.99 2.36 2.99 1.5 0 2.35-1.24 2.35-2.99 0-1.65-.83-2.99-2.38-2.99-1.58 0-2.34 1.32-2.34 2.99m5.48-.01c0 1.95-1.08 3.69-3.17 3.69-1.9 0-3.08-1.56-3.08-3.67 0-2.01 1.11-3.67 3.15-3.67 1.87 0 3.1 1.46 3.1 3.66"/><path d="M360.93 46.26c0-.6 0-1.26-.01-1.81h.71c.02.24.04.83.03 1.24.29-.7.94-1.41 2.1-1.41.98 0 1.75.49 2.03 1.38.35-.73 1.05-1.38 2.28-1.38 1.08 0 2.2.62 2.2 2.57v4.61h-.73V46.94c0-.93-.33-1.95-1.63-1.95-1.35 0-1.96 1.08-1.96 2.43v4.04h-.71V46.95c0-1.02-.3-1.96-1.58-1.96-1.35 0-2 1.19-2 2.61v3.86h-.73Z"/><path d="M11.28 65.8c0-1.62-.78-2.83-2.16-2.83-1.68 0-2.38 1.06-2.38 2.95 0 1.87.54 3.02 2.28 3.02 1.45 0 2.25-1.22 2.25-3.15M6.79 68.43v3.83H6.06V64.18c0-.57 0-1.19-.01-1.72h.71c.03.26.03.68.03 1.25.43-.83 1.2-1.42 2.46-1.42 1.65 0 2.8 1.39 2.8 3.49 0 2.52-1.35 3.85-3.04 3.85-1.23 0-1.87-.54-2.22-1.2"/><path d="M13.93 64.36c0-1.17-.01-1.67-.01-1.91h.71c.01.22.03.68.03 1.56.4-1.05 1.3-1.68 2.43-1.73v.78c-1.46.1-2.43 1.09-2.43 2.76v3.63h-.73Z"/><path d="M18.73 65.96c0 1.66.89 2.99 2.36 2.99 1.5 0 2.35-1.24 2.35-2.99 0-1.65-.84-2.99-2.38-2.99-1.58 0-2.34 1.32-2.34 2.99m5.48-.01c0 1.95-1.08 3.69-3.18 3.69-1.9 0-3.08-1.56-3.08-3.67 0-2.01 1.11-3.67 3.15-3.67 1.87 0 3.1 1.46 3.1 3.66"/><path d="M26.37 69.46V63.13h-1.2v-.68h1.2v-.99c0-1.18.34-2.47 1.91-2.47.21 0 .52.04.69.1v.69c-.21-.06-.54-.08-.75-.08-.82 0-1.13.58-1.13 1.79v.96h1.52v.68H27.1v6.33Z"/><path d="M34.46 65.42c-.01-1.38-.76-2.46-2.12-2.46-1.43 0-2.09 1-2.24 2.46Zm-4.4.63c.01 1.79.91 2.9 2.25 2.9 1.31 0 1.75-.73 2-1.3h.74c-.29.92-1.04 1.98-2.77 1.98-2.13 0-2.97-1.83-2.97-3.62 0-2.01 1-3.73 3.05-3.73 2.16 0 2.85 1.86 2.85 3.19 0 .2 0 .39-.01.58Z"/><path d="M37.25 67.52c.24.9.88 1.45 1.98 1.45 1.24 0 1.73-.57 1.73-1.34 0-.79-.33-1.18-1.89-1.55-1.82-.44-2.27-.99-2.27-1.91 0-.97.73-1.87 2.32-1.87s2.35.97 2.46 1.97h-.73c-.12-.58-.58-1.31-1.77-1.31-1.21 0-1.55.6-1.55 1.15 0 .64.33.96 1.71 1.29 1.99.48 2.47 1.13 2.47 2.18 0 1.27-1.03 2.07-2.52 2.07-1.61 0-2.51-.85-2.7-2.11Z"/><path d="M43.81 67.52c.24.9.88 1.45 1.97 1.45 1.24 0 1.74-.57 1.74-1.34 0-.79-.34-1.18-1.89-1.55-1.82-.44-2.27-.99-2.27-1.91 0-.97.73-1.87 2.33-1.87s2.35.97 2.46 1.97h-.73c-.12-.58-.58-1.31-1.77-1.31-1.21 0-1.55.6-1.55 1.15 0 .64.33.96 1.72 1.29 1.98.48 2.47 1.13 2.47 2.18 0 1.27-1.03 2.07-2.52 2.07-1.61 0-2.51-.85-2.7-2.11Z"/><path d="M50.16 62.45h.73v7.01h-.73Zm0-3.31h.73v1.37h-.73Z"/><path d="M53.52 65.96c0 1.66.89 2.99 2.36 2.99 1.5 0 2.35-1.24 2.35-2.99 0-1.65-.83-2.99-2.38-2.99-1.58 0-2.34 1.32-2.34 2.99M59 65.94c0 1.95-1.08 3.69-3.17 3.69-1.9 0-3.08-1.56-3.08-3.67 0-2.01 1.11-3.67 3.15-3.67 1.87 0 3.1 1.46 3.1 3.66"/><path d="M60.87 64.22c0-.62 0-1.21-.02-1.77h.71c.03.22.04 1.12.03 1.32.31-.71.88-1.49 2.32-1.49 1.25 0 2.35.71 2.35 2.64v4.54h-.73V65.04c0-1.24-.51-2.05-1.72-2.05-1.65 0-2.22 1.37-2.22 2.89v3.58h-.73Z"/><path d="M72.73 65.9H71.37c-1.55 0-2.5.41-2.5 1.6 0 .88.62 1.47 1.6 1.47 1.99 0 2.27-1.32 2.27-2.82Zm.71 2.22c0 .62.06 1.12.1 1.34h-.7c-.05-.17-.1-.48-.12-1.07-.24.52-.85 1.24-2.29 1.24-1.63 0-2.33-1.05-2.33-2.1 0-1.54 1.19-2.24 3.3-2.24h1.32v-.71c0-.7-.21-1.62-1.79-1.62-1.4 0-1.61.73-1.77 1.31h-.73c.09-.78.57-1.97 2.51-1.97 1.6 0 2.5.67 2.5 2.22Z"/><path d="M75.88 69.46h.73V59.14h-.73Z" fill-rule="evenodd"/><path d="M86.92 65.9H85.56c-1.55 0-2.5.41-2.5 1.6 0 .88.62 1.47 1.6 1.47 1.99 0 2.27-1.32 2.27-2.82Zm.71 2.22c0 .62.06 1.12.1 1.34h-.7c-.05-.17-.1-.48-.12-1.07-.24.52-.85 1.24-2.29 1.24-1.63 0-2.33-1.05-2.33-2.1 0-1.54 1.19-2.24 3.3-2.24h1.32v-.71c0-.7-.21-1.62-1.79-1.62-1.4 0-1.61.73-1.76 1.31h-.73c.09-.78.57-1.97 2.51-1.97 1.6 0 2.5.67 2.5 2.22Z"/><path d="M90.29 65.93c0 1.66.88 2.85 2.21 2.85 1.74 0 2.27-1.16 2.27-2.96 0-1.83-.55-2.85-2.23-2.85-1.59 0-2.25 1.37-2.25 2.96m5.16 3.05c0 2.24-.99 3.43-3.04 3.43-1.84 0-2.59-1.03-2.76-2.09h.74c.25.96 1.04 1.42 2.04 1.42 1.81 0 2.31-1.17 2.31-2.94v-.72c-.38.9-1.06 1.39-2.33 1.39-1.65 0-2.9-1.34-2.9-3.5 0-2.35 1.34-3.67 3-3.67 1.42 0 2.04.67 2.23 1.23.01-.4.03-.89.04-1.06h.68c0 .26-.03 1.36-.03 2.03Z"/><path d="M102.46 65.42c-.02-1.38-.76-2.46-2.13-2.46-1.43 0-2.09 1-2.24 2.46Zm-4.41.63c.01 1.79.92 2.9 2.25 2.9 1.31 0 1.75-.73 2-1.3h.74c-.29.92-1.04 1.98-2.77 1.98-2.13 0-2.97-1.83-2.97-3.62 0-2.01 1-3.73 3.05-3.73 2.17 0 2.85 1.86 2.85 3.19 0 .2 0 .39-.01.58Z"/><path d="M105.05 64.22c0-.62 0-1.21-.01-1.77h.71c.03.22.04 1.12.03 1.32.31-.71.88-1.49 2.32-1.49 1.25 0 2.35.71 2.35 2.64v4.54h-.73V65.04c0-1.24-.51-2.05-1.72-2.05-1.65 0-2.22 1.37-2.22 2.89v3.58h-.73Z"/><path d="M118.06 67.4c-.33 1.23-1.15 2.23-2.73 2.23-1.76 0-3.01-1.31-3.01-3.64 0-1.92 1.03-3.7 3.09-3.7 1.79 0 2.52 1.27 2.65 2.25h-.74c-.21-.81-.74-1.57-1.92-1.57-1.47 0-2.31 1.25-2.31 2.99 0 1.67.78 3 2.24 3 1.02 0 1.63-.52 1.99-1.56Z"/><path d="M119.98 62.45c1.4 3.97 2.02 5.64 2.25 6.39h.02c.28-.85.83-2.48 2.18-6.39h.76l-2.63 7.41c-.74 2.07-1.25 2.54-2.52 2.54-.25 0-.42-.01-.65-.04v-.72c.21.03.41.04.63.04 1 0 1.33-.49 1.84-1.91l-2.67-7.32Z"/><path d="M125.52 69.46h.73V67.64h-.73Z" fill-rule="evenodd"/><path d="M134.38 60.38H131.1v-.72h7.38v.72h-3.3v9.08h-.8Z"/><path d="M140.44 59.14v4.48c.39-.72 1.07-1.34 2.31-1.34 1 0 2.37.51 2.37 2.72v4.46h-.73V65.15c0-1.38-.62-2.15-1.78-2.15-1.38 0-2.17.85-2.17 2.56v3.91h-.73V59.14Z"/><path d="M147.54 62.45h.73v7.01h-.73Zm0-3.31h.73v1.37h-.73Z"/><path d="M150.65 67.52c.24.9.88 1.45 1.97 1.45 1.24 0 1.74-.57 1.74-1.34 0-.79-.34-1.18-1.89-1.55-1.82-.44-2.27-.99-2.27-1.91 0-.97.73-1.87 2.32-1.87s2.35.97 2.46 1.97h-.73c-.12-.58-.58-1.31-1.77-1.31-1.21 0-1.55.6-1.55 1.15 0 .64.33.96 1.72 1.29 1.98.48 2.47 1.13 2.47 2.18 0 1.27-1.03 2.07-2.52 2.07-1.61 0-2.51-.85-2.7-2.11Z"/><path d="M160.79 64.36c0-1.17-.01-1.67-.01-1.91h.71c.01.22.03.68.03 1.56.4-1.05 1.3-1.68 2.43-1.73v.78c-1.46.1-2.43 1.09-2.43 2.76v3.63h-.73Z"/><path d="M169.97 65.42c-.02-1.38-.76-2.46-2.13-2.46-1.43 0-2.09 1-2.24 2.46Zm-4.4.63c.01 1.79.91 2.9 2.25 2.9 1.31 0 1.75-.73 2-1.3h.74c-.29.92-1.04 1.98-2.77 1.98-2.13 0-2.97-1.83-2.97-3.62 0-2.01 1-3.73 3.05-3.73 2.16 0 2.85 1.86 2.85 3.19 0 .2 0 .39-.01.58Z"/><path d="M177.78 65.8c0-1.62-.78-2.83-2.16-2.83-1.68 0-2.38 1.06-2.38 2.95 0 1.87.54 3.02 2.28 3.02 1.45 0 2.25-1.22 2.25-3.15m-4.49 2.63v3.83h-.73V64.18c0-.57 0-1.19-.01-1.72h.71c.03.26.03.68.03 1.25.43-.83 1.2-1.42 2.46-1.42 1.65 0 2.8 1.39 2.8 3.49 0 2.52-1.35 3.85-3.04 3.85-1.23 0-1.87-.54-2.22-1.2"/><path d="M180.72 65.96c0 1.66.89 2.99 2.36 2.99 1.5 0 2.35-1.24 2.35-2.99 0-1.65-.84-2.99-2.38-2.99-1.58 0-2.34 1.32-2.34 2.99m5.48-.01c0 1.95-1.08 3.69-3.17 3.69-1.9 0-3.08-1.56-3.08-3.67 0-2.01 1.11-3.67 3.15-3.67 1.87 0 3.11 1.46 3.11 3.66"/><path d="M188.07 64.36c0-1.17-.01-1.67-.01-1.91h.71c.02.22.03.68.03 1.56.4-1.05 1.3-1.68 2.43-1.73v.78c-1.46.1-2.43 1.09-2.43 2.76v3.63h-.73Z"/><path d="M192.17 62.45h1.3V60.27h.73v2.18h1.66v.68h-1.66v4.53c0 .78.17 1.22.84 1.22.21 0 .5-.01.72-.08v.63c-.24.1-.58.13-.88.13-.91 0-1.41-.45-1.41-1.58V63.13h-1.3Z"/><path d="M206.38 67.4c-.33 1.23-1.15 2.23-2.73 2.23-1.76 0-3.01-1.31-3.01-3.64 0-1.92 1.03-3.7 3.09-3.7 1.79 0 2.52 1.27 2.64 2.25h-.74c-.21-.81-.74-1.57-1.92-1.57-1.47 0-2.31 1.25-2.31 2.99 0 1.67.78 3 2.24 3 1.02 0 1.63-.52 1.99-1.56Z"/><path d="M212.31 65.9h-1.36c-1.55 0-2.5.41-2.5 1.6 0 .88.62 1.47 1.6 1.47 1.99 0 2.27-1.32 2.27-2.82Zm.71 2.22c0 .62.05 1.12.1 1.34h-.7c-.05-.17-.1-.48-.13-1.07-.24.52-.85 1.24-2.29 1.24-1.63 0-2.33-1.05-2.33-2.1 0-1.54 1.19-2.24 3.29-2.24h1.32v-.71c0-.7-.21-1.62-1.79-1.62-1.4 0-1.61.73-1.76 1.31h-.73c.08-.78.57-1.97 2.51-1.97 1.6 0 2.51.67 2.51 2.22Z"/><path d="M215.46 64.22c0-.62 0-1.21-.02-1.77h.72c.03.22.04 1.12.03 1.32.31-.71.88-1.49 2.32-1.49 1.25 0 2.35.71 2.35 2.64v4.54h-.73V65.04c0-1.24-.51-2.05-1.72-2.05-1.65 0-2.22 1.37-2.22 2.89v3.58h-.73Z"/><path d="M232.28 65.82c0-1.74-.86-2.85-2.18-2.85-1.74 0-2.35 1.18-2.35 3.01 0 1.64.54 2.98 2.27 2.98 1.41 0 2.27-1.17 2.27-3.13m-5.22-6.68h.73v4.48c.34-.69 1.02-1.33 2.39-1.33 1.66 0 2.87 1.36 2.87 3.52 0 2.21-1.09 3.83-3.06 3.83-1.17 0-1.84-.47-2.21-1.27 0 .44-.02.9-.03 1.1h-.71c.01-.8.01-1.6.01-2.4Z"/><path d="M239.59 65.42c-.01-1.38-.76-2.46-2.12-2.46-1.43 0-2.09 1-2.24 2.46Zm-4.4.63c.01 1.79.91 2.9 2.25 2.9 1.31 0 1.75-.73 2-1.3h.74c-.29.92-1.04 1.98-2.77 1.98-2.14 0-2.97-1.83-2.97-3.62 0-2.01 1-3.73 3.05-3.73 2.16 0 2.85 1.86 2.85 3.19 0 .2 0 .39-.01.58Z"/><path d="M246.01 62.45c1.03 3.6 1.62 5.66 1.74 6.29h.02c.11-.57.8-2.74 1.89-6.29h.78c1.29 4.31 1.68 5.55 1.81 6.11h.01c.2-.77.51-1.82 1.79-6.11h.77l-2.21 7.01h-.8c-.75-2.49-1.65-5.49-1.79-6.14H250c-.14.69-.93 3.18-1.83 6.14h-.87l-2.06-7.01Z"/><path d="M256.42 62.45h.73v7.01h-.73Zm0-3.31h.73v1.37h-.73Z"/><path d="M259.78 66.01c0 1.91.98 2.94 2.19 2.94 1.84 0 2.34-1.27 2.34-3.16 0-1.8-.43-2.83-2.21-2.83-1.38 0-2.31 1.1-2.31 3.05M265 59.14v8.3c0 .67 0 1.32.01 2.02h-.7c-.03-.17-.04-.82-.04-1.17-.35.85-1.13 1.34-2.35 1.34-1.82 0-2.91-1.48-2.91-3.59 0-2.16 1.19-3.76 3.1-3.76 1.39 0 1.95.6 2.16 1.04V59.14Z"/><path d="M272.01 65.42c-.01-1.38-.76-2.46-2.12-2.46-1.43 0-2.09 1-2.24 2.46Zm-4.4.63c.01 1.79.91 2.9 2.25 2.9 1.31 0 1.75-.73 2-1.3h.74c-.29.92-1.04 1.98-2.77 1.98-2.13 0-2.96-1.83-2.96-3.62 0-2.01 1-3.73 3.05-3.73 2.16 0 2.85 1.86 2.85 3.19 0 .2 0 .39-.01.58Z"/><path d="M274.66 69.46h.73V59.14h-.73Z" fill-rule="evenodd"/><path d="M277.8 62.45c1.4 3.97 2.02 5.64 2.25 6.39h.01c.28-.85.83-2.48 2.18-6.39h.76l-2.63 7.41c-.74 2.07-1.25 2.54-2.52 2.54-.25 0-.42-.01-.65-.04v-.72c.21.03.41.04.63.04 1 0 1.33-.49 1.84-1.91L277 62.45Z"/><path d="M293.52 67.42c0 .69.02 1.77.02 2.05h-.7c-.03-.18-.04-.64-.04-1.21-.3.82-1.01 1.38-2.25 1.38-1.02 0-2.3-.4-2.3-2.54V62.45h.72v4.46c0 1.02.32 2.01 1.7 2.01 1.55 0 2.14-.87 2.14-2.86V62.45h.73Z"/><path d="M295.07 62.45h1.3V60.27h.73v2.18h1.66v.68h-1.66v4.53c0 .78.17 1.22.84 1.22.21 0 .5-.01.72-.08v.63c-.24.1-.58.13-.88.13-.91 0-1.41-.45-1.41-1.58V63.13h-1.3Z"/><path d="M300.32 62.45h.73v7.01h-.73Zm0-3.31h.73v1.37h-.73Z"/><path d="M303.47 69.46h.73V59.14h-.73Z" fill-rule="evenodd"/><path d="M306.62 62.45h.73v7.01h-.73Zm0-3.31h.73v1.37h-.73Z"/><path d="M309.05 68.8l4.41-5.67h-4.18v-.68h5.03v.69l-4.35 5.64h4.51l-.17.68h-5.24Z"/><path d="M320.58 65.42c-.02-1.38-.76-2.46-2.13-2.46-1.43 0-2.09 1-2.24 2.46Zm-4.41.63c.01 1.79.92 2.9 2.25 2.9 1.31 0 1.75-.73 2-1.3h.74c-.29.92-1.04 1.98-2.77 1.98-2.13 0-2.97-1.83-2.97-3.62 0-2.01 1-3.73 3.05-3.73 2.16 0 2.85 1.86 2.85 3.19 0 .2 0 .39-.01.58Z"/><path d="M323.45 66.01c0 1.91.98 2.94 2.19 2.94 1.84 0 2.34-1.27 2.34-3.16 0-1.8-.43-2.83-2.21-2.83-1.38 0-2.31 1.1-2.31 3.05m5.22-6.87v8.3c0 .67 0 1.32.01 2.02h-.7c-.03-.17-.04-.82-.04-1.17-.35.85-1.13 1.34-2.35 1.34-1.82 0-2.92-1.48-2.92-3.59 0-2.16 1.19-3.76 3.1-3.76 1.39 0 1.95.6 2.16 1.04V59.14Z"/><path d="M335.06 69.46V63.13h-1.2v-.68h1.2v-.99c0-1.18.35-2.47 1.91-2.47.21 0 .52.04.69.1v.69c-.21-.06-.54-.08-.75-.08-.82 0-1.13.58-1.13 1.79v.96h1.52v.68h-1.52v6.33Z"/><path d="M338.77 65.96c0 1.66.89 2.99 2.36 2.99 1.5 0 2.35-1.24 2.35-2.99 0-1.65-.84-2.99-2.38-2.99-1.58 0-2.33 1.32-2.33 2.99m5.48-.01c0 1.95-1.08 3.69-3.17 3.69-1.9 0-3.08-1.56-3.08-3.67 0-2.01 1.11-3.67 3.15-3.67 1.87 0 3.1 1.46 3.1 3.66"/><path d="M346.11 64.36c0-1.17-.01-1.67-.01-1.91h.71c.02.22.03.68.03 1.56.4-1.05 1.3-1.68 2.43-1.73v.78c-1.46.1-2.43 1.09-2.43 2.76v3.63h-.73Z"/><path d="M6.06 82.26c0-.6 0-1.26-.01-1.81h.71c.01.24.04.83.03 1.24.29-.7.94-1.41 2.1-1.41.98 0 1.75.49 2.03 1.38.35-.73 1.05-1.38 2.28-1.38 1.08 0 2.2.62 2.2 2.57v4.61h-.73V82.94c0-.93-.33-1.95-1.63-1.95-1.35 0-1.96 1.08-1.96 2.43v4.04h-.72V82.95c0-1.02-.3-1.96-1.58-1.96-1.35 0-2 1.19-2 2.61v3.86H6.06Z"/><path d="M21.85 83.9H20.49c-1.55 0-2.5.41-2.5 1.6 0 .88.62 1.47 1.6 1.47 1.99 0 2.27-1.32 2.27-2.82Zm.71 2.22c0 .62.06 1.12.1 1.34h-.7c-.05-.17-.1-.48-.13-1.07-.24.52-.85 1.24-2.29 1.24-1.63 0-2.33-1.05-2.33-2.1 0-1.54 1.19-2.24 3.29-2.24h1.32v-.71c0-.7-.21-1.62-1.79-1.62-1.4 0-1.61.73-1.76 1.31h-.73c.08-.78.57-1.97 2.51-1.97 1.6 0 2.51.67 2.51 2.22Z"/><path d="M25 82.36c0-1.17-.01-1.67-.01-1.91h.71c.01.22.03.68.03 1.56.41-1.05 1.3-1.68 2.44-1.73v.78c-1.46.1-2.44 1.09-2.44 2.76v3.63H25Z"/><path d="M30.43 84.05c.64-.69 2.58-2.66 3.52-3.6h.93l-2.77 2.79 3.11 4.22h-.9l-2.74-3.76-1.16 1.12v2.64H29.7V77.14h.73Z"/><path d="M40.93 83.42c-.01-1.38-.76-2.46-2.13-2.46-1.43 0-2.08 1-2.24 2.46Zm-4.4.63c.01 1.79.91 2.9 2.25 2.9 1.31 0 1.75-.73 2-1.3h.74c-.29.92-1.04 1.98-2.77 1.98-2.13 0-2.97-1.83-2.97-3.62 0-2.01 1-3.73 3.05-3.73 2.17 0 2.86 1.86 2.86 3.19 0 .2 0 .39-.02.58Z"/><path d="M42.59 80.45h1.3V78.27h.73v2.18h1.66v.68H44.62v4.53c0 .78.17 1.22.84 1.22.21 0 .5-.01.72-.08v.63c-.24.1-.58.13-.88.13-.91 0-1.41-.45-1.41-1.58V81.13h-1.3Z"/><path d="M47.85 80.45h.73v7.01h-.73Zm0-3.31h.73v1.37h-.73Z"/><path d="M51 82.22c0-.62 0-1.21-.01-1.77h.71c.03.22.04 1.12.03 1.32.31-.71.88-1.49 2.32-1.49 1.25 0 2.35.71 2.35 2.64v4.54h-.73V83.04c0-1.24-.51-2.05-1.72-2.05-1.65 0-2.22 1.37-2.22 2.89v3.58H51Z"/><path d="M59.04 83.93c0 1.66.88 2.85 2.21 2.85 1.74 0 2.27-1.16 2.27-2.96 0-1.83-.55-2.85-2.23-2.85-1.59 0-2.25 1.37-2.25 2.96m5.16 3.05c0 2.24-.99 3.43-3.04 3.43-1.84 0-2.59-1.03-2.76-2.09h.74c.25.96 1.04 1.42 2.04 1.42 1.81 0 2.31-1.17 2.31-2.94v-.72c-.38.9-1.06 1.39-2.33 1.39-1.64 0-2.9-1.34-2.9-3.5 0-2.35 1.34-3.67 3-3.67 1.43 0 2.04.67 2.24 1.23.01-.4.03-.89.04-1.06h.68c0 .26-.03 1.36-.03 2.03Z"/><path d="M70.4 82.26c0-.6 0-1.26-.01-1.81h.71c.02.24.04.83.03 1.24.29-.7.94-1.41 2.1-1.41.98 0 1.75.49 2.03 1.38.35-.73 1.05-1.38 2.28-1.38 1.08 0 2.2.62 2.2 2.57v4.61h-.73V82.94c0-.93-.34-1.95-1.63-1.95-1.35 0-1.96 1.08-1.96 2.43v4.04h-.71V82.95c0-1.02-.3-1.96-1.58-1.96-1.35 0-2 1.19-2 2.61v3.86H70.4Z"/><path d="M86.19 83.9H84.83c-1.55 0-2.5.41-2.5 1.6 0 .88.62 1.47 1.6 1.47 1.99 0 2.26-1.32 2.26-2.82Zm.71 2.22c0 .62.06 1.12.1 1.34h-.7c-.05-.17-.1-.48-.12-1.07-.24.52-.85 1.24-2.29 1.24-1.63 0-2.33-1.05-2.33-2.1 0-1.54 1.19-2.24 3.3-2.24h1.32v-.71c0-.7-.21-1.62-1.79-1.62-1.4 0-1.61.73-1.77 1.31H81.9c.09-.78.57-1.97 2.51-1.97 1.6 0 2.5.67 2.5 2.22Z"/><path d="M88.23 80.45h1.3V78.27h.73v2.18h1.66v.68H90.26v4.53c0 .78.17 1.22.84 1.22.21 0 .5-.01.72-.08v.63c-.24.1-.58.13-.88.13-.91 0-1.41-.45-1.41-1.58V81.13h-1.3Z"/><path d="M97.99 83.42c-.02-1.38-.76-2.46-2.13-2.46-1.43 0-2.08 1-2.24 2.46Zm-4.4.63c.01 1.79.91 2.9 2.25 2.9 1.31 0 1.75-.73 2-1.3h.74c-.29.92-1.04 1.98-2.77 1.98-2.13 0-2.96-1.83-2.96-3.62 0-2.01 1-3.73 3.05-3.73 2.17 0 2.86 1.86 2.86 3.19 0 .2 0 .39-.02.58Z"/><path d="M100.58 82.36c0-1.17-.01-1.67-.01-1.91h.71c.02.22.03.68.03 1.56.4-1.05 1.3-1.68 2.43-1.73v.78c-1.46.1-2.43 1.09-2.43 2.76v3.63h-.73Z"/><path d="M105.18 80.45h.73v7.01h-.73Zm0-3.31h.73v1.37h-.73Z"/><path d="M112.35 83.9h-1.36c-1.55 0-2.5.41-2.5 1.6 0 .88.62 1.47 1.6 1.47 1.99 0 2.26-1.32 2.26-2.82Zm.71 2.22c0 .62.06 1.12.1 1.34h-.7c-.06-.17-.1-.48-.13-1.07-.24.52-.85 1.24-2.29 1.24-1.63 0-2.33-1.05-2.33-2.1 0-1.54 1.19-2.24 3.29-2.24h1.32v-.71c0-.7-.21-1.62-1.79-1.62-1.4 0-1.61.73-1.77 1.31h-.73c.08-.78.57-1.97 2.51-1.97 1.6 0 2.51.67 2.51 2.22Z"/><path d="M115.49 87.46h.73V77.14h-.73Z" fill-rule="evenodd"/><path d="M118.61 85.52c.24.9.88 1.45 1.97 1.45 1.24 0 1.74-.57 1.74-1.34 0-.79-.34-1.18-1.89-1.55-1.82-.44-2.27-.99-2.27-1.91 0-.97.73-1.87 2.32-1.87s2.35.97 2.46 1.97h-.73c-.12-.58-.58-1.31-1.77-1.31-1.21 0-1.55.6-1.55 1.15 0 .64.33.96 1.72 1.29 1.99.48 2.47 1.13 2.47 2.18 0 1.27-1.03 2.07-2.52 2.07-1.61 0-2.51-.85-2.7-2.11Z"/><path d="M132.85 83.9h-1.36c-1.55 0-2.5.41-2.5 1.6 0 .88.62 1.47 1.6 1.47 1.99 0 2.26-1.32 2.26-2.82Zm.72 2.22c0 .62.06 1.12.1 1.34h-.7c-.06-.17-.1-.48-.13-1.07-.24.52-.85 1.24-2.29 1.24-1.63 0-2.33-1.05-2.33-2.1 0-1.54 1.19-2.24 3.29-2.24h1.32v-.71c0-.7-.21-1.62-1.79-1.62-1.4 0-1.61.73-1.77 1.31h-.73c.09-.78.57-1.97 2.51-1.97 1.6 0 2.51.67 2.51 2.22Z"/><path d="M136.01 82.22c0-.62 0-1.21-.02-1.77h.71c.03.22.04 1.12.03 1.32.31-.71.88-1.49 2.32-1.49 1.25 0 2.35.71 2.35 2.64v4.54h-.73V83.04c0-1.24-.51-2.05-1.72-2.05-1.65 0-2.22 1.37-2.22 2.89v3.58h-.73Z"/><path d="M144.04 84.01c0 1.91.98 2.94 2.19 2.94 1.84 0 2.33-1.27 2.33-3.16 0-1.8-.43-2.83-2.21-2.83-1.38 0-2.31 1.1-2.31 3.05m5.22-6.87v8.3c0 .67 0 1.32.01 2.02h-.7c-.03-.17-.04-.82-.04-1.17-.35.85-1.13 1.34-2.35 1.34-1.82 0-2.92-1.48-2.92-3.59 0-2.16 1.19-3.76 3.1-3.76 1.39 0 1.95.6 2.16 1.04V77.14Z"/><path d="M155.46 82.26c0-.6 0-1.26-.01-1.81h.71c.01.24.04.83.03 1.24.3-.7.94-1.41 2.1-1.41.98 0 1.75.49 2.03 1.38.35-.73 1.05-1.38 2.28-1.38 1.08 0 2.2.62 2.2 2.57v4.61h-.73V82.94c0-.93-.33-1.95-1.63-1.95-1.35 0-1.96 1.08-1.96 2.43v4.04h-.72V82.95c0-1.02-.3-1.96-1.58-1.96-1.35 0-2 1.19-2 2.61v3.86h-.73Z"/><path d="M167.44 83.96c0 1.66.89 2.99 2.36 2.99 1.5 0 2.35-1.24 2.35-2.99 0-1.65-.83-2.99-2.38-2.99-1.58 0-2.34 1.32-2.34 2.99m5.48-.01c0 1.95-1.08 3.69-3.18 3.69-1.9 0-3.08-1.56-3.08-3.67 0-2.01 1.11-3.67 3.15-3.67 1.87 0 3.11 1.46 3.11 3.66"/><path d="M174.78 82.36c0-1.17-.01-1.67-.01-1.91h.71c.02.22.03.68.03 1.56.4-1.05 1.3-1.68 2.43-1.73v.78c-1.46.1-2.43 1.09-2.43 2.76v3.63h-.73Z"/><path d="M183.97 83.42c-.01-1.38-.76-2.46-2.12-2.46-1.43 0-2.09 1-2.24 2.46Zm-4.4.63c.01 1.79.91 2.9 2.25 2.9 1.31 0 1.75-.73 2-1.3h.74c-.29.92-1.04 1.98-2.77 1.98-2.13 0-2.97-1.83-2.97-3.62 0-2.01 1-3.73 3.05-3.73 2.16 0 2.85 1.86 2.85 3.19 0 .2 0 .39-.01.58Z"/><path d="M186.25 87.46h.73V85.64h-.73Z" fill-rule="evenodd"/></g></g></svg>