<?xml version="1.0" encoding="UTF-8"?><!DOCTYPE svg PUBLIC "-//W3C//DTD SVG 1.0//EN" "http://www.w3.org/TR/2001/REC-SVG-20010904/DTD/svg10.dtd" []><svg xmlns="http://www.w3.org/2000/svg" xmlns:xlink="http://www.w3.org/1999/xlink" height="44" stroke="#000" stroke-linecap="square" stroke-miterlimit="10" viewBox="0 0 782.05 44.48" width="782"><g><g stroke="none"><path d="M5 39.48H777.05V35.22H5Z" fill-rule="evenodd"/><path d="M27.69 17.24c0 4.4.57 8.69 4.09 8.69 3.47 0 3.99-4.04 3.99-8.78 0-4.59-.61-8.52-3.92-8.52-3.3 0-4.16 3.46-4.16 8.61m12.59-.12c0 6.29-1.87 12.43-8.55 12.43-6.57 0-8.54-5.86-8.54-12.28C23.2 10.93 25.37 5 31.84 5c6.31 0 8.44 5.62 8.44 12.12" fill="#fff"/><path d="M48.2 29.12V10.65c-1.09.63-3.17 1.24-4.35 1.38V8.63c2.04-.44 4.24-1.74 5.65-3.25H52.6V29.12Z" fill="#fff"/><path d="M57.54 29.12h4.63V23.14H57.54Z" fill="#fff" fill-rule="evenodd"/><path d="M220.7 17.24c0 4.4.57 8.69 4.09 8.69 3.47 0 3.99-4.04 3.99-8.78 0-4.59-.61-8.52-3.92-8.52-3.3 0-4.16 3.46-4.16 8.61m12.59-.12c0 6.29-1.87 12.43-8.55 12.43-6.57 0-8.54-5.86-8.54-12.28 0-6.35 2.17-12.27 8.64-12.27 6.32 0 8.44 5.62 8.44 12.12" fill="#fff"/><path d="M236.83 29.12v-.28c0-3.89 1.93-7.3 6.81-11.03 3.39-2.6 4.38-3.47 4.38-5.72 0-2.16-1.05-3.54-3.27-3.54-2.43 0-3.41 1.45-3.78 3.79h-4.2c.36-4.06 2.91-7.34 7.98-7.34 5.64 0 7.65 3.55 7.65 7.02 0 3.49-1.45 5.07-5.68 8.24-2.94 2.21-4.27 3.75-4.72 5.07h11.27l-.56 3.78Z" fill="#fff"/><path d="M257.55 29.12h4.63V23.14h-4.63Z" fill="#fff" fill-rule="evenodd"/><path d="M618.7 17.24c0 4.4.57 8.69 4.09 8.69 3.47 0 3.99-4.04 3.99-8.78 0-4.59-.61-8.52-3.92-8.52-3.3 0-4.16 3.46-4.16 8.61m12.59-.12c0 6.29-1.87 12.43-8.55 12.43-6.57 0-8.54-5.86-8.54-12.28 0-6.35 2.17-12.27 8.64-12.27 6.32 0 8.44 5.62 8.44 12.12" fill="#fff"/><path d="M645.59 15.04c0-2.32.01-4.06.09-5.57-.92 1.93-4.41 7.06-6.67 10.38h6.58Zm0 14.07V23.53H635.08V19.59l9.87-14.16h4.7V19.86h2.83l-.41 3.67h-2.42v5.59Z" fill="#fff"/><path d="M655.58 29.12h4.63V23.14h-4.63Z" fill="#fff" fill-rule="evenodd"/><path d="M416.59 17.24c0 4.4.58 8.69 4.09 8.69 3.47 0 3.99-4.04 3.99-8.78 0-4.59-.61-8.52-3.92-8.52-3.3 0-4.16 3.46-4.16 8.61m12.59-.12c0 6.29-1.87 12.43-8.55 12.43-6.57 0-8.54-5.86-8.54-12.28 0-6.35 2.17-12.27 8.64-12.27 6.32 0 8.44 5.62 8.44 12.12" fill="#fff"/><path d="M432.92 11.37C433.26 8.45 435.26 5 440.7 5c5.13 0 7.42 3.07 7.42 6.34 0 2.87-1.61 4.26-2.91 4.84v.1c1.68.6 3.84 2.17 3.84 5.8 0 3.54-2.1 7.47-8.39 7.47-5.84 0-7.99-3.69-8.26-6.83h4.23c.36 1.78 1.6 3.34 4.16 3.34 2.64 0 3.86-1.78 3.86-4.03 0-2.52-1.35-3.88-4.17-3.88h-1.92v-3.5h1.67c2.53 0 3.59-.93 3.59-3.08 0-1.8-1.09-3.02-3.26-3.02-2.47 0-3.19 1.4-3.5 2.82Z" fill="#fff"/><path d="M452.95 29.12h4.63V23.14h-4.63Z" fill="#fff" fill-rule="evenodd"/></g></g></svg>