<?xml version="1.0" encoding="UTF-8"?><!DOCTYPE svg PUBLIC "-//W3C//DTD SVG 1.0//EN" "http://www.w3.org/TR/2001/REC-SVG-20010904/DTD/svg10.dtd" []><svg xmlns="http://www.w3.org/2000/svg" xmlns:xlink="http://www.w3.org/1999/xlink" height="106" stroke="#000" stroke-linecap="square" stroke-miterlimit="10" viewBox="0 0 155 106.13" width="155"><defs><clipPath id="a"><path d="M0 0V106.13H155V0Z"/></clipPath><clipPath clip-path="url(#a)" id="b"><path d="M-700.29 248.1H259.83V-292.02H-700.29Z"/></clipPath></defs><g><g fill="#fff" stroke="none"><path clip-path="url(#b)" d="M7.12 11.19H9.88c1.63 0 2.36-.86 2.36-2.22 0-1.44-.93-2.21-2.3-2.21H7.12ZM6 5.76H9.97c2.03 0 3.43 1.17 3.43 3.18 0 2.09-1.42 3.26-3.53 3.26H7.12v4.74H6Z"/><path clip-path="url(#b)" d="M20.14 12.24c-.02-1.47-.77-2.64-2.21-2.64-1.5 0-2.17 1.08-2.33 2.64Zm-4.58.83c.01 1.88.93 3.11 2.34 3.11 1.36 0 1.81-.76 2.08-1.39h1.05c-.32 1.05-1.15 2.33-3.17 2.33-2.41 0-3.36-2.09-3.36-4.15 0-2.34 1.14-4.29 3.45-4.29 2.45 0 3.24 2.12 3.24 3.72 0 .23 0 .45-.02.66Z"/><path clip-path="url(#b)" d="M23.19 11.07c0-1.25-.01-1.86-.02-2.19h1.02c.02.24.04.81.04 1.73.43-1.15 1.4-1.87 2.67-1.92V9.79c-1.61.08-2.67 1.11-2.67 3.08v4.06H23.19Z"/><path clip-path="url(#b)" d="M29.2 16.94V9.81H27.9V8.88h1.3V7.82c0-1.41.45-2.82 2.19-2.82.26 0 .62.04.81.11v.96c-.21-.06-.55-.09-.77-.09-.87 0-1.19.6-1.19 1.9v1h1.64v.93H30.24v7.12Z"/><path clip-path="url(#b)" d="M33.71 12.91c0 1.85.93 3.28 2.47 3.28 1.57 0 2.45-1.34 2.45-3.27 0-1.86-.87-3.28-2.48-3.28-1.63 0-2.44 1.39-2.44 3.28m6-.02c0 2.28-1.24 4.24-3.59 4.24-2.16 0-3.49-1.79-3.49-4.21 0-2.34 1.27-4.22 3.57-4.22 2.11 0 3.51 1.68 3.51 4.2"/><path clip-path="url(#b)" d="M41.71 11.07c0-1.25-.01-1.86-.02-2.19h1.02c.02.24.04.81.04 1.73.43-1.15 1.4-1.87 2.67-1.92V9.79c-1.61.08-2.67 1.11-2.67 3.08v4.06H41.71Z"/><path clip-path="url(#b)" d="M46.91 10.96c0-.69 0-1.44-.02-2.08H47.9c.02.26.05.91.04 1.35.34-.77 1.04-1.54 2.31-1.54 1.1 0 1.91.57 2.21 1.53.4-.8 1.16-1.53 2.51-1.53 1.23 0 2.45.74 2.45 2.95v5.3H56.4V11.77c0-1.01-.35-2.1-1.7-2.1-1.4 0-2.02 1.14-2.02 2.64v4.63H51.67V11.8c0-1.11-.32-2.13-1.65-2.13-1.39 0-2.07 1.23-2.07 2.82v4.44H46.91Z"/><path clip-path="url(#b)" d="M64.49 12.91H63.08c-1.65 0-2.61.46-2.61 1.73 0 .93.63 1.59 1.67 1.59 2.07 0 2.35-1.43 2.35-3.04ZM65.5 15.3c0 .72.06 1.39.11 1.63h-.99c-.06-.19-.11-.55-.14-1.15-.27.57-.92 1.35-2.49 1.35-1.82 0-2.6-1.22-2.6-2.44 0-1.78 1.34-2.6 3.67-2.6h1.41v-.76c0-.76-.23-1.74-1.86-1.74-1.45 0-1.68.77-1.84 1.41H59.76c.1-.99.69-2.32 2.88-2.32 1.84 0 2.86.79 2.86 2.59Z"/><path clip-path="url(#b)" d="M68.11 10.91c0-.7 0-1.4-.02-2.03h1.01c.03.25.05 1.21.04 1.44.33-.76.97-1.63 2.53-1.63 1.42 0 2.61.86 2.61 3.04v5.2H73.25V11.89c0-1.33-.52-2.22-1.8-2.22-1.68 0-2.3 1.39-2.3 3.09v4.18H68.11Z"/><path clip-path="url(#b)" d="M82.81 14.52c-.35 1.4-1.26 2.61-3.11 2.61-2.04 0-3.4-1.54-3.4-4.18 0-2.24 1.19-4.26 3.49-4.26 2.1 0 2.9 1.54 3.02 2.63H81.77c-.22-.88-.76-1.69-2-1.69-1.53 0-2.39 1.35-2.39 3.28 0 1.88.82 3.28 2.33 3.28 1.06 0 1.7-.57 2.06-1.67Z"/><path clip-path="url(#b)" d="M89.81 12.24c-.02-1.47-.77-2.64-2.21-2.64-1.5 0-2.17 1.08-2.33 2.64Zm-4.58.83c.01 1.88.93 3.11 2.34 3.11 1.36 0 1.81-.76 2.08-1.39H90.7c-.32 1.05-1.15 2.33-3.17 2.33-2.41 0-3.36-2.09-3.36-4.15 0-2.34 1.14-4.29 3.45-4.29 2.45 0 3.24 2.12 3.24 3.72 0 .23 0 .45-.02.66Z"/><path clip-path="url(#b)" d="M96.96 11.07c0-1.25-.01-1.86-.02-2.19h1.02c.02.24.04.81.04 1.73.43-1.15 1.4-1.87 2.67-1.92V9.79C99.06 9.88 98 10.9 98 12.88v4.06H96.96Z"/><path clip-path="url(#b)" d="M107.25 12.24c-.02-1.47-.77-2.64-2.21-2.64-1.5 0-2.17 1.08-2.33 2.64Zm-4.58.83c.01 1.88.93 3.11 2.35 3.11 1.36 0 1.81-.76 2.08-1.39h1.05c-.32 1.05-1.15 2.33-3.17 2.33-2.41 0-3.36-2.09-3.36-4.15 0-2.34 1.14-4.29 3.45-4.29 2.45 0 3.24 2.12 3.24 3.72 0 .23 0 .45-.02.66Z"/><path clip-path="url(#b)" d="M116.02 12.74c0-1.8-.82-3.09-2.26-3.09-1.76 0-2.48 1.15-2.48 3.23 0 2.04.57 3.3 2.37 3.3 1.53 0 2.37-1.32 2.37-3.44m-4.69 3.09v4.3H110.3V10.85c0-.66 0-1.35-.02-1.97h1.01c.03.29.04.77.04 1.37.45-.9 1.28-1.56 2.65-1.56 1.82 0 3.12 1.58 3.12 4.01 0 2.89-1.5 4.43-3.39 4.43-1.32 0-2.01-.59-2.38-1.29"/><path clip-path="url(#b)" d="M119.7 12.91c0 1.85.93 3.28 2.47 3.28 1.57 0 2.45-1.34 2.45-3.27 0-1.86-.87-3.28-2.48-3.28-1.63 0-2.44 1.39-2.44 3.28m6-.02c0 2.28-1.24 4.24-3.59 4.24-2.16 0-3.49-1.79-3.49-4.21 0-2.34 1.27-4.22 3.57-4.22 2.11 0 3.51 1.68 3.51 4.2"/><path clip-path="url(#b)" d="M127.7 11.07c0-1.25-.01-1.86-.02-2.19h1.02c.02.24.04.81.04 1.73.43-1.15 1.4-1.87 2.67-1.92V9.79c-1.61.08-2.67 1.11-2.67 3.08v4.06H127.7Z"/><path clip-path="url(#b)" d="M132.43 8.88h1.4V6.43h1.04V8.88h1.79v.93h-1.79v5c0 .85.18 1.31.91 1.31.21 0 .52-.01.75-.08v.86c-.3.12-.71.15-1.06.15-1.1 0-1.65-.58-1.65-1.89V9.81h-1.4Z"/><path clip-path="url(#b)" d="M138.86 14.68c.25.97.92 1.55 2.08 1.55 1.28 0 1.79-.59 1.79-1.42 0-.84-.37-1.25-1.99-1.65-2.11-.53-2.59-1.19-2.59-2.27 0-1.12.81-2.2 2.68-2.2s2.71 1.15 2.82 2.29h-1.02c-.13-.61-.58-1.39-1.85-1.39-1.23 0-1.6.62-1.6 1.22 0 .68.35 1.01 1.84 1.39 2.27.56 2.78 1.34 2.78 2.54 0 1.44-1.12 2.4-2.9 2.4-1.89 0-2.88-1.01-3.09-2.45Z"/><path clip-path="url(#b)" d="M144.84 18.77c.78-1.66 1.04-3.07 1.09-4.02h1.05c-.12 1.38-.62 2.99-1.26 4.02Z"/><path clip-path="url(#b)" d="M6.04 35.68c.25.97.92 1.55 2.08 1.55 1.28 0 1.79-.59 1.79-1.42 0-.84-.37-1.25-1.99-1.65-2.11-.53-2.59-1.19-2.59-2.27 0-1.12.81-2.2 2.68-2.2s2.71 1.15 2.82 2.29H9.8c-.13-.61-.58-1.39-1.85-1.39-1.24 0-1.6.62-1.6 1.22 0 .68.35 1.01 1.84 1.39 2.27.56 2.78 1.34 2.78 2.54 0 1.44-1.12 2.4-2.9 2.4-1.89 0-2.88-1.01-3.09-2.45Z"/><path clip-path="url(#b)" d="M18.83 35.59c0 .79.01 1.97.02 2.35h-1c-.03-.21-.05-.72-.05-1.31-.35.92-1.13 1.51-2.44 1.51-1.21 0-2.57-.55-2.57-2.93V29.88h1.02v5.08c0 1.12.34 2.19 1.77 2.19 1.6 0 2.21-.93 2.21-3.1V29.88h1.04Z"/><path clip-path="url(#b)" d="M21.63 35.68c.25.97.92 1.55 2.08 1.55 1.28 0 1.79-.59 1.79-1.42 0-.84-.37-1.25-1.99-1.65-2.11-.53-2.59-1.19-2.59-2.27 0-1.12.81-2.2 2.68-2.2s2.71 1.15 2.82 2.29H25.39c-.13-.61-.58-1.39-1.85-1.39-1.23 0-1.6.62-1.6 1.22 0 .68.35 1.01 1.84 1.39 2.27.56 2.78 1.34 2.78 2.54 0 1.44-1.12 2.4-2.9 2.4-1.89 0-2.88-1.01-3.09-2.45Z"/><path clip-path="url(#b)" d="M27.43 29.88h1.4V27.43h1.04v2.45h1.79v.93H29.87v5c0 .85.19 1.31.91 1.31.21 0 .52-.01.75-.08v.86c-.3.12-.71.15-1.06.15-1.1 0-1.65-.58-1.65-1.89V30.81h-1.4Z"/><path clip-path="url(#b)" d="M37.88 33.91H36.48c-1.65 0-2.61.46-2.61 1.73 0 .93.64 1.59 1.67 1.59 2.07 0 2.35-1.43 2.35-3.04ZM38.9 36.3c0 .72.06 1.39.11 1.63h-.99c-.06-.19-.11-.55-.14-1.15-.27.57-.92 1.35-2.49 1.35-1.82 0-2.6-1.22-2.6-2.44 0-1.78 1.34-2.6 3.67-2.6h1.41v-.76c0-.76-.23-1.74-1.86-1.74-1.45 0-1.68.77-1.84 1.41H33.16c.1-.99.69-2.32 2.88-2.32 1.84 0 2.86.79 2.86 2.59Z"/><path clip-path="url(#b)" d="M41.51 29.88h1.04v8.05H41.51Zm0-3.72h1.04V27.8H41.51Z"/><path clip-path="url(#b)" d="M45.15 31.91c0-.7 0-1.4-.02-2.03h1.01c.03.25.05 1.21.04 1.44.33-.76.97-1.63 2.53-1.63 1.42 0 2.61.86 2.61 3.04v5.2H50.29V32.89c0-1.33-.52-2.22-1.8-2.22-1.68 0-2.3 1.39-2.3 3.09v4.18H45.15Z"/><path clip-path="url(#b)" d="M58.37 33.91H56.96c-1.65 0-2.61.46-2.61 1.73 0 .93.63 1.59 1.67 1.59 2.07 0 2.35-1.43 2.35-3.04Zm1.01 2.39c0 .72.06 1.39.11 1.63H58.5c-.06-.19-.11-.55-.14-1.15-.27.57-.92 1.35-2.49 1.35-1.82 0-2.6-1.22-2.6-2.44 0-1.78 1.34-2.6 3.67-2.6h1.41v-.76c0-.76-.23-1.74-1.86-1.74-1.45 0-1.68.77-1.84 1.41H53.64c.1-.99.69-2.32 2.88-2.32 1.84 0 2.86.79 2.86 2.59Z"/><path clip-path="url(#b)" d="M67.72 33.76c0-1.89-.88-3.12-2.3-3.12-1.81 0-2.45 1.27-2.45 3.29 0 1.8.57 3.25 2.37 3.25 1.49 0 2.38-1.29 2.38-3.42m-5.73-7.6h1.04v4.98c.36-.75 1.11-1.45 2.58-1.45 1.89 0 3.19 1.61 3.19 4.05 0 2.5-1.2 4.39-3.4 4.39-1.28 0-1.98-.51-2.39-1.37 0 .47-.02.96-.04 1.18H61.97c.02-.91.02-1.82.02-2.73Z"/><path clip-path="url(#b)" d="M70.85 29.88h1.04v8.05H70.85Zm0-3.72h1.04V27.8H70.85Z"/><path clip-path="url(#b)" d="M74.5 37.93h1.04V26.16H74.5Z" fill-rule="evenodd"/><path clip-path="url(#b)" d="M78.14 29.88h1.04v8.05H78.14Zm0-3.72h1.04V27.8H78.14Z"/><path clip-path="url(#b)" d="M80.78 29.88h1.4V27.43h1.04v2.45h1.79v.93H83.22v5c0 .85.19 1.31.91 1.31.21 0 .52-.01.75-.08v.86c-.3.12-.71.15-1.06.15-1.1 0-1.65-.58-1.65-1.89V30.81h-1.4Z"/><path clip-path="url(#b)" d="M87.22 29.88c1.43 4.27 2.12 6.27 2.36 7.12h.02c.28-.95.88-2.81 2.28-7.12h1.06l-2.87 8.48c-.81 2.37-1.38 2.93-2.87 2.93-.26 0-.5-.02-.77-.05v-.99c.22.03.44.04.67.04 1.06 0 1.43-.51 1.95-2.03l-2.95-8.39Z"/><path clip-path="url(#b)" d="M98.65 31.96c0-.69 0-1.44-.02-2.08h1.01c.02.26.05.91.04 1.35.34-.77 1.04-1.54 2.31-1.54 1.1 0 1.91.57 2.21 1.53.4-.8 1.16-1.53 2.51-1.53 1.23 0 2.45.74 2.45 2.95v5.3h-1.03V32.77c0-1.01-.35-2.1-1.7-2.1-1.4 0-2.02 1.14-2.02 2.64v4.63H103.4V32.8c0-1.11-.32-2.13-1.65-2.13-1.39 0-2.07 1.23-2.07 2.82v4.44H98.65Z"/><path clip-path="url(#b)" d="M116.81 33.24c-.02-1.47-.77-2.64-2.21-2.64-1.5 0-2.17 1.08-2.33 2.64Zm-4.58.83c.01 1.88.93 3.11 2.35 3.11 1.36 0 1.81-.76 2.08-1.39h1.05c-.32 1.05-1.15 2.33-3.16 2.33-2.41 0-3.36-2.09-3.36-4.15 0-2.34 1.14-4.29 3.45-4.29 2.45 0 3.24 2.12 3.24 3.72 0 .23 0 .45-.02.66Z"/><path clip-path="url(#b)" d="M118.88 29.88h1.4V27.43h1.04v2.45h1.79v.93h-1.79v5c0 .85.19 1.31.91 1.31.21 0 .52-.01.75-.08v.86c-.3.12-.71.15-1.06.15-1.1 0-1.65-.58-1.65-1.89V30.81h-1.4Z"/><path clip-path="url(#b)" d="M124.68 32.07c0-1.25-.01-1.86-.02-2.19h1.02c.02.24.04.81.04 1.73.43-1.15 1.4-1.87 2.67-1.92v1.11c-1.61.08-2.67 1.11-2.67 3.08v4.06h-1.04Z"/><path clip-path="url(#b)" d="M129.95 29.88h1.04v8.05h-1.04Zm0-3.72h1.04V27.8h-1.04Z"/><path clip-path="url(#b)" d="M139.51 35.52c-.35 1.4-1.26 2.61-3.11 2.61-2.04 0-3.4-1.54-3.4-4.18 0-2.24 1.19-4.26 3.49-4.26 2.1 0 2.9 1.54 3.02 2.63h-1.04c-.22-.88-.76-1.69-2-1.69-1.53 0-2.39 1.35-2.39 3.28 0 1.88.82 3.28 2.33 3.28 1.06 0 1.7-.57 2.06-1.67Z"/><path clip-path="url(#b)" d="M141.88 35.68c.25.97.92 1.55 2.08 1.55 1.28 0 1.79-.59 1.79-1.42 0-.84-.37-1.25-1.99-1.65-2.11-.53-2.59-1.19-2.59-2.27 0-1.12.81-2.2 2.68-2.2s2.71 1.15 2.82 2.29h-1.02c-.13-.61-.58-1.39-1.85-1.39-1.23 0-1.6.62-1.6 1.22 0 .68.35 1.01 1.84 1.39 2.27.56 2.78 1.34 2.78 2.54 0 1.44-1.12 2.4-2.9 2.4-1.89 0-2.88-1.01-3.09-2.45Z"/><path clip-path="url(#b)" d="M147.86 39.77c.78-1.66 1.04-3.07 1.09-4.02H150c-.12 1.38-.62 2.99-1.26 4.02Z"/><path clip-path="url(#b)" d="M5.75 58.93H6.78V47.16H5.75Z" fill-rule="evenodd"/><path clip-path="url(#b)" d="M14.43 54.24c-.02-1.47-.77-2.64-2.21-2.64-1.5 0-2.17 1.08-2.33 2.64Zm-4.58.83c.01 1.88.93 3.11 2.35 3.11 1.36 0 1.81-.76 2.08-1.39h1.05c-.32 1.05-1.15 2.33-3.17 2.33-2.41 0-3.36-2.09-3.36-4.15 0-2.34 1.14-4.29 3.45-4.29 2.45 0 3.24 2.12 3.24 3.72 0 .23 0 .45-.02.66Z"/><path clip-path="url(#b)" d="M17.93 56.68c.25.97.92 1.55 2.07 1.55 1.28 0 1.79-.59 1.79-1.42 0-.84-.37-1.25-1.99-1.65-2.11-.53-2.59-1.19-2.59-2.27 0-1.12.81-2.2 2.68-2.2s2.71 1.15 2.82 2.29H21.69c-.13-.61-.58-1.39-1.85-1.39-1.23 0-1.6.62-1.6 1.22 0 .68.35 1.01 1.84 1.39 2.27.56 2.79 1.34 2.79 2.54 0 1.44-1.12 2.4-2.9 2.4-1.89 0-2.88-1.01-3.09-2.45Z"/><path clip-path="url(#b)" d="M25.32 56.68c.25.97.92 1.55 2.08 1.55 1.28 0 1.79-.59 1.79-1.42 0-.84-.37-1.25-1.99-1.65-2.11-.53-2.59-1.19-2.59-2.27 0-1.12.81-2.2 2.68-2.2s2.71 1.15 2.82 2.29H29.08c-.13-.61-.58-1.39-1.85-1.39-1.23 0-1.6.62-1.6 1.22 0 .68.35 1.01 1.84 1.39 2.27.56 2.79 1.34 2.79 2.54 0 1.44-1.12 2.4-2.9 2.4-1.89 0-2.88-1.01-3.09-2.45Z"/><path clip-path="url(#b)" d="M32.76 54.91c0 1.85.93 3.28 2.47 3.28 1.57 0 2.45-1.34 2.45-3.27 0-1.86-.87-3.28-2.48-3.28-1.63 0-2.44 1.39-2.44 3.28m6-.02c0 2.28-1.24 4.24-3.59 4.24-2.16 0-3.49-1.79-3.49-4.21 0-2.34 1.27-4.22 3.57-4.22 2.11 0 3.51 1.68 3.51 4.2"/><path clip-path="url(#b)" d="M40.76 52.91c0-.7 0-1.4-.02-2.03h1.01c.03.25.05 1.21.04 1.44.33-.76.97-1.63 2.53-1.63 1.42 0 2.61.86 2.61 3.04v5.2H45.9V53.89c0-1.33-.52-2.22-1.8-2.22-1.68 0-2.3 1.39-2.3 3.09v4.18H40.76Z"/><path clip-path="url(#b)" d="M49.77 56.68c.25.97.92 1.55 2.07 1.55 1.28 0 1.79-.59 1.79-1.42 0-.84-.37-1.25-1.99-1.65-2.11-.53-2.59-1.19-2.59-2.27 0-1.12.81-2.2 2.68-2.2s2.71 1.15 2.82 2.29H53.53c-.13-.61-.58-1.39-1.85-1.39-1.23 0-1.6.62-1.6 1.22 0 .68.35 1.01 1.84 1.39 2.27.56 2.79 1.34 2.79 2.54 0 1.44-1.12 2.4-2.9 2.4-1.89 0-2.88-1.01-3.09-2.45Z"/><path clip-path="url(#b)" d="M60.84 58.93h1.04V47.16H60.84Z" fill-rule="evenodd"/><path clip-path="url(#b)" d="M69.52 54.24c-.02-1.47-.77-2.64-2.21-2.64-1.5 0-2.17 1.08-2.33 2.64Zm-4.58.83c.01 1.88.93 3.11 2.35 3.11 1.36 0 1.81-.76 2.08-1.39h1.05c-.32 1.05-1.15 2.33-3.17 2.33-2.41 0-3.36-2.09-3.36-4.15 0-2.34 1.14-4.29 3.45-4.29 2.45 0 3.24 2.12 3.24 3.72 0 .23 0 .45-.02.66Z"/><path clip-path="url(#b)" d="M77.11 54.91H75.71c-1.65 0-2.61.46-2.61 1.73 0 .93.64 1.59 1.67 1.59 2.07 0 2.35-1.43 2.35-3.04Zm1.02 2.39c0 .72.06 1.39.11 1.63h-.99c-.06-.19-.11-.55-.14-1.15-.27.57-.93 1.35-2.49 1.35-1.82 0-2.6-1.22-2.6-2.44 0-1.78 1.34-2.6 3.67-2.6H77.1v-.76c0-.76-.23-1.74-1.86-1.74-1.45 0-1.68.77-1.84 1.41H72.39c.1-.99.69-2.32 2.88-2.32 1.84 0 2.86.79 2.86 2.59Z"/><path clip-path="url(#b)" d="M80.74 53.07c0-1.25-.01-1.86-.02-2.19h1.02c.02.24.04.81.04 1.73.43-1.15 1.4-1.87 2.67-1.92v1.11c-1.61.08-2.67 1.11-2.67 3.08v4.06H80.74Z"/><path clip-path="url(#b)" d="M85.95 52.91c0-.7 0-1.4-.02-2.03h1.01c.03.25.05 1.21.04 1.44.33-.76.97-1.63 2.53-1.63 1.42 0 2.61.86 2.61 3.04v5.2H91.08V53.89c0-1.33-.52-2.22-1.8-2.22-1.68 0-2.3 1.39-2.3 3.09v4.18H85.95Z"/><path clip-path="url(#b)" d="M99.75 54.24c-.02-1.47-.77-2.64-2.21-2.64-1.5 0-2.17 1.08-2.33 2.64Zm-4.58.83c.01 1.88.93 3.11 2.34 3.11 1.36 0 1.81-.76 2.08-1.39h1.05c-.32 1.05-1.15 2.33-3.16 2.33-2.41 0-3.36-2.09-3.36-4.15 0-2.34 1.14-4.29 3.45-4.29 2.45 0 3.24 2.12 3.24 3.72 0 .23 0 .45-.02.66Z"/><path clip-path="url(#b)" d="M103.39 54.96c0 2.09 1.01 3.21 2.3 3.21 1.95 0 2.44-1.43 2.44-3.43 0-1.95-.43-3.11-2.31-3.11-1.47 0-2.42 1.21-2.42 3.32m5.73-7.8v9.48c0 .76 0 1.51.02 2.3h-1c-.03-.2-.05-.89-.06-1.26-.39.92-1.22 1.45-2.54 1.45-2.02 0-3.24-1.69-3.24-4.13 0-2.48 1.33-4.31 3.46-4.31 1.48 0 2.1.64 2.32 1.13V47.16Z"/><path clip-path="url(#b)" d="M110.51 60.77c.78-1.66 1.04-3.07 1.09-4.02h1.05c-.12 1.38-.62 2.99-1.26 4.02Z"/><path clip-path="url(#b)" d="M5.75 71.88H6.78v8.05H5.75Zm0-3.72H6.78V69.8H5.75Z"/><path clip-path="url(#b)" d="M9.39 73.96c0-.69 0-1.44-.02-2.08h1.01c.02.26.05.91.04 1.35.34-.77 1.04-1.54 2.31-1.54 1.1 0 1.91.57 2.21 1.53.4-.8 1.16-1.53 2.51-1.53 1.23 0 2.45.74 2.45 2.95v5.3H18.88V74.77c0-1.01-.35-2.1-1.7-2.1-1.4 0-2.02 1.14-2.02 2.64v4.63H14.14V74.8c0-1.11-.32-2.13-1.65-2.13-1.39 0-2.07 1.23-2.07 2.82v4.44H9.39Z"/><path clip-path="url(#b)" d="M28.23 75.74c0-1.8-.82-3.09-2.26-3.09-1.76 0-2.48 1.15-2.48 3.23 0 2.04.57 3.3 2.37 3.3 1.53 0 2.37-1.32 2.37-3.44m-4.69 3.09v4.3H22.51V73.85c0-.66 0-1.35-.01-1.97h1.01c.03.29.04.77.04 1.37.46-.9 1.28-1.56 2.65-1.56 1.82 0 3.11 1.58 3.11 4.01 0 2.89-1.5 4.43-3.39 4.43-1.32 0-2.01-.59-2.38-1.29"/><path clip-path="url(#b)" d="M31.33 74.07c0-1.25-.01-1.86-.02-2.19h1.02c.02.24.04.81.04 1.73.43-1.15 1.4-1.87 2.67-1.92v1.11c-1.61.08-2.67 1.11-2.67 3.08v4.06H31.33Z"/><path clip-path="url(#b)" d="M37.07 75.91c0 1.85.93 3.28 2.47 3.28 1.57 0 2.45-1.34 2.45-3.27 0-1.86-.87-3.28-2.48-3.28-1.63 0-2.44 1.39-2.44 3.28m6-.02c0 2.28-1.24 4.24-3.59 4.24-2.16 0-3.49-1.79-3.49-4.21 0-2.34 1.27-4.22 3.57-4.22 2.11 0 3.51 1.68 3.51 4.2"/><path clip-path="url(#b)" d="M45.24 71.88c1.17 3.51 1.99 6 2.26 7.02h.02c.18-.73 1.03-3.14 2.39-7.02h1.07l-2.91 8.05H46.88l-2.75-8.05Z"/><path clip-path="url(#b)" d="M57.58 75.24c-.02-1.47-.77-2.64-2.21-2.64-1.5 0-2.17 1.08-2.33 2.64ZM53 76.08c.01 1.88.93 3.11 2.34 3.11 1.36 0 1.81-.76 2.08-1.39h1.05c-.32 1.05-1.15 2.33-3.17 2.33-2.41 0-3.36-2.09-3.36-4.15 0-2.34 1.14-4.29 3.45-4.29 2.45 0 3.24 2.12 3.24 3.72 0 .23 0 .45-.02.66Z"/><path clip-path="url(#b)" d="M60.63 73.96c0-.69 0-1.44-.02-2.08h1.01c.02.26.05.91.04 1.35.34-.77 1.04-1.54 2.31-1.54 1.1 0 1.91.57 2.21 1.53.4-.8 1.16-1.53 2.51-1.53 1.23 0 2.45.74 2.45 2.95v5.3H70.12V74.77c0-1.01-.35-2.1-1.7-2.1-1.4 0-2.02 1.14-2.02 2.64v4.63H65.38V74.8c0-1.11-.32-2.13-1.65-2.13-1.39 0-2.07 1.23-2.07 2.82v4.44H60.63Z"/><path clip-path="url(#b)" d="M78.79 75.24c-.02-1.47-.77-2.64-2.21-2.64-1.5 0-2.17 1.08-2.33 2.64Zm-4.58.83c.01 1.88.93 3.11 2.35 3.11 1.36 0 1.81-.76 2.08-1.39h1.05c-.32 1.05-1.15 2.33-3.16 2.33-2.41 0-3.36-2.09-3.36-4.15 0-2.34 1.14-4.29 3.45-4.29 2.45 0 3.24 2.12 3.24 3.72 0 .23 0 .45-.02.66Z"/><path clip-path="url(#b)" d="M81.84 73.91c0-.7 0-1.4-.02-2.03h1.01c.03.25.05 1.21.04 1.44.33-.76.97-1.63 2.53-1.63 1.42 0 2.61.86 2.61 3.04v5.2H86.98V74.89c0-1.33-.52-2.22-1.8-2.22-1.68 0-2.3 1.39-2.3 3.09v4.18H81.84Z"/><path clip-path="url(#b)" d="M89.45 71.88h1.4V69.43h1.04v2.45h1.79v.93H91.89v5c0 .85.19 1.31.91 1.31.21 0 .52-.01.75-.08v.86c-.29.12-.71.15-1.06.15-1.1 0-1.65-.58-1.65-1.89V72.81h-1.4Z"/><path clip-path="url(#b)" d="M5.75 95.07c0-1.25-.01-1.86-.02-2.19H6.75c.02.24.04.81.04 1.73.43-1.15 1.4-1.87 2.67-1.92v1.11c-1.61.08-2.67 1.11-2.67 3.08v4.06H5.75Z"/><path clip-path="url(#b)" d="M16.04 96.24c-.02-1.47-.77-2.64-2.21-2.64-1.5 0-2.17 1.08-2.33 2.64Zm-4.58.83c.01 1.88.93 3.11 2.34 3.11 1.36 0 1.81-.76 2.08-1.39h1.05c-.32 1.05-1.15 2.33-3.17 2.33-2.41 0-3.36-2.09-3.36-4.15 0-2.34 1.14-4.29 3.45-4.29 2.45 0 3.24 2.12 3.24 3.72 0 .23 0 .45-.02.66Z"/><path clip-path="url(#b)" d="M25.1 98.52c-.35 1.4-1.26 2.61-3.11 2.61-2.04 0-3.4-1.54-3.4-4.18 0-2.24 1.19-4.26 3.49-4.26 2.1 0 2.9 1.54 3.02 2.63H24.06c-.22-.88-.76-1.69-2-1.69-1.53 0-2.39 1.35-2.39 3.28 0 1.88.82 3.28 2.33 3.28 1.06 0 1.7-.57 2.06-1.67Z"/><path clip-path="url(#b)" d="M27.55 96.91c0 1.85.93 3.28 2.47 3.28 1.57 0 2.45-1.34 2.45-3.27 0-1.86-.87-3.28-2.48-3.28-1.63 0-2.44 1.39-2.44 3.28m6-.02c0 2.28-1.24 4.24-3.59 4.24-2.16 0-3.49-1.79-3.49-4.21 0-2.34 1.27-4.22 3.57-4.22 2.11 0 3.51 1.68 3.51 4.2"/><path clip-path="url(#b)" d="M35.56 94.96c0-.69 0-1.44-.02-2.08h1.01c.02.26.05.91.04 1.35.34-.77 1.04-1.54 2.31-1.54 1.1 0 1.91.57 2.21 1.53.4-.8 1.16-1.53 2.51-1.53 1.23 0 2.45.74 2.45 2.95v5.3H45.05V95.77c0-1.01-.35-2.1-1.7-2.1-1.4 0-2.02 1.14-2.02 2.64v4.63H40.31V95.8c0-1.11-.32-2.13-1.65-2.13-1.39 0-2.07 1.23-2.07 2.82v4.44H35.56Z"/><path clip-path="url(#b)" d="M48.68 94.96c0-.69 0-1.44-.02-2.08h1.01c.02.26.05.91.04 1.35.34-.77 1.04-1.54 2.31-1.54 1.1 0 1.91.57 2.21 1.53.4-.8 1.16-1.53 2.51-1.53 1.23 0 2.45.74 2.45 2.95v5.3H58.17V95.77c0-1.01-.35-2.1-1.69-2.1-1.4 0-2.03 1.14-2.03 2.64v4.63H53.43V95.8c0-1.11-.32-2.13-1.65-2.13-1.39 0-2.07 1.23-2.07 2.82v4.44H48.68Z"/><path clip-path="url(#b)" d="M66.84 96.24c-.02-1.47-.77-2.64-2.21-2.64-1.5 0-2.17 1.08-2.33 2.64Zm-4.58.83c.01 1.88.93 3.11 2.34 3.11 1.36 0 1.81-.76 2.08-1.39h1.05c-.32 1.05-1.15 2.33-3.16 2.33-2.41 0-3.36-2.09-3.36-4.15 0-2.34 1.14-4.29 3.45-4.29 2.45 0 3.24 2.12 3.24 3.72 0 .23 0 .45-.02.66Z"/><path clip-path="url(#b)" d="M69.89 94.91c0-.7 0-1.4-.02-2.03h1.01c.03.25.05 1.21.04 1.44.33-.76.97-1.63 2.53-1.63 1.42 0 2.61.86 2.61 3.04v5.2H75.03V95.89c0-1.33-.52-2.22-1.8-2.22-1.68 0-2.3 1.39-2.3 3.09v4.18H69.89Z"/><path clip-path="url(#b)" d="M79.16 96.96c0 2.09 1.01 3.21 2.3 3.21 1.95 0 2.44-1.43 2.44-3.43 0-1.95-.43-3.11-2.31-3.11-1.47 0-2.42 1.21-2.42 3.32m5.73-7.8v9.48c0 .76 0 1.51.02 2.3h-1c-.03-.2-.05-.89-.06-1.26-.39.92-1.22 1.45-2.54 1.45-2.02 0-3.24-1.69-3.24-4.13 0-2.48 1.33-4.31 3.46-4.31 1.48 0 2.1.64 2.32 1.13V89.16Z"/><path clip-path="url(#b)" d="M91.91 96.91H90.51c-1.65 0-2.62.46-2.62 1.73 0 .93.64 1.59 1.67 1.59 2.07 0 2.35-1.43 2.35-3.04Zm1.02 2.39c0 .72.06 1.39.11 1.63h-.99c-.06-.19-.11-.55-.14-1.15-.27.57-.92 1.35-2.49 1.35-1.82 0-2.6-1.22-2.6-2.44 0-1.78 1.34-2.6 3.67-2.6H91.9v-.76c0-.76-.23-1.74-1.86-1.74-1.45 0-1.68.77-1.84 1.41H87.18c.1-.99.69-2.32 2.88-2.32 1.84 0 2.86.79 2.86 2.59Z"/><path clip-path="url(#b)" d="M94.35 92.88h1.4V90.43h1.04v2.45h1.79v.93H96.79v5c0 .85.19 1.31.91 1.31.21 0 .52-.01.75-.08v.86c-.3.12-.71.15-1.06.15-1.1 0-1.65-.58-1.65-1.89V93.81h-1.4Z"/><path clip-path="url(#b)" d="M100.24 92.88h1.04v8.05h-1.04Zm0-3.72h1.04V90.8h-1.04Z"/><path clip-path="url(#b)" d="M104.38 96.91c0 1.85.93 3.28 2.47 3.28 1.57 0 2.45-1.34 2.45-3.27 0-1.86-.87-3.28-2.48-3.28-1.63 0-2.44 1.39-2.44 3.28m6-.02c0 2.28-1.24 4.24-3.59 4.24-2.16 0-3.49-1.79-3.49-4.21 0-2.34 1.27-4.22 3.57-4.22 2.11 0 3.51 1.68 3.51 4.2"/><path clip-path="url(#b)" d="M112.38 94.91c0-.7 0-1.4-.02-2.03h1.01c.03.25.05 1.21.04 1.44.33-.76.97-1.63 2.53-1.63 1.42 0 2.61.86 2.61 3.04v5.2h-1.04V95.89c0-1.33-.52-2.22-1.8-2.22-1.68 0-2.3 1.39-2.3 3.09v4.18h-1.04Z"/><path clip-path="url(#b)" d="M121.38 98.68c.25.97.92 1.55 2.08 1.55 1.28 0 1.79-.59 1.79-1.42 0-.84-.37-1.25-1.99-1.65-2.11-.53-2.59-1.19-2.59-2.27 0-1.12.81-2.2 2.68-2.2s2.71 1.15 2.82 2.29h-1.02c-.13-.61-.58-1.39-1.85-1.39-1.23 0-1.6.62-1.6 1.22 0 .68.35 1.01 1.84 1.39 2.27.56 2.78 1.34 2.78 2.54 0 1.44-1.12 2.4-2.9 2.4-1.89 0-2.88-1.01-3.09-2.45Z"/><path clip-path="url(#b)" d="M128.21 100.93h1.07v-2.2h-1.07Z" fill-rule="evenodd"/></g></g></svg>