<?xml version="1.0" encoding="UTF-8"?><!DOCTYPE svg PUBLIC "-//W3C//DTD SVG 1.0//EN" "http://www.w3.org/TR/2001/REC-SVG-20010904/DTD/svg10.dtd" []><svg xmlns="http://www.w3.org/2000/svg" xmlns:xlink="http://www.w3.org/1999/xlink" height="59" stroke="#000" stroke-linecap="square" stroke-miterlimit="10" viewBox="0 0 375.47 59.4" width="375"><g><g fill="#fff" stroke="none"><path d="M11.71 10.66H6.72v4.08h5.47l-.11.72H5.93V5.66h6.03v.72H6.72V9.93h4.99Z"/><path d="M14.43 12.82c.29 1.3 1.16 2.06 2.76 2.06 1.78 0 2.46-.89 2.46-1.94 0-1.1-.49-1.78-2.64-2.31-2.09-.52-2.98-1.2-2.98-2.61 0-1.3.95-2.5 3.05-2.5 2.17 0 3.08 1.32 3.21 2.51h-.81c-.22-1.04-.9-1.79-2.43-1.79-1.4 0-2.17.65-2.17 1.73 0 1.07.64 1.49 2.44 1.93 2.76.69 3.17 1.79 3.17 2.97 0 1.45-1.06 2.7-3.33 2.7-2.45 0-3.36-1.42-3.54-2.75Z"/><path d="M30.38 15.46h-.65c-.06-.12-.09-.62-.1-1.56-.36.67-1.13 1.67-3.16 1.67-2.82 0-4.26-2.14-4.26-4.93 0-2.93 1.55-5.13 4.42-5.13 2.12 0 3.52 1.11 3.83 2.92h-.78c-.42-1.37-1.37-2.2-3.08-2.2-2.44 0-3.55 1.9-3.55 4.36 0 2.23 1.07 4.25 3.45 4.25 2.44 0 3.12-1.59 3.12-3.73v-.11H26.49v-.72h3.9Z"/><path d="M38.02 11.8c0-1.62-.78-2.83-2.16-2.83-1.68 0-2.38 1.06-2.38 2.95 0 1.87.54 3.02 2.28 3.02 1.45 0 2.25-1.22 2.25-3.15m-4.49 2.63v3.83H32.8V10.18c0-.57 0-1.19-.01-1.72h.71c.03.26.03.68.03 1.25.43-.83 1.2-1.42 2.46-1.42 1.65 0 2.8 1.39 2.8 3.49 0 2.52-1.35 3.85-3.04 3.85-1.23 0-1.87-.54-2.22-1.2"/><path d="M45.34 11.42c-.02-1.38-.76-2.46-2.13-2.46-1.43 0-2.08 1-2.24 2.46Zm-4.41.63c.01 1.79.92 2.9 2.25 2.9 1.31 0 1.75-.73 2-1.3h.74c-.29.92-1.04 1.98-2.77 1.98-2.13 0-2.97-1.83-2.97-3.62 0-2.01 1-3.73 3.05-3.73 2.16 0 2.86 1.86 2.86 3.19 0 .2 0 .39-.02.58Z"/><path d="M48.22 12.01c0 1.91.98 2.94 2.18 2.94 1.84 0 2.33-1.27 2.33-3.16 0-1.8-.43-2.83-2.21-2.83-1.38 0-2.31 1.1-2.31 3.05m5.22-6.87v8.3c0 .67 0 1.32.01 2.02h-.7c-.03-.17-.04-.82-.04-1.17-.35.85-1.13 1.34-2.35 1.34-1.82 0-2.92-1.48-2.92-3.59 0-2.16 1.19-3.76 3.1-3.76 1.39 0 1.95.6 2.16 1.04V5.14Z"/><path d="M55.86 8.45h.73v7.01h-.73Zm0-3.31h.73V6.51h-.73Z"/><path d="M63.03 11.9H61.66c-1.55 0-2.5.41-2.5 1.6 0 .88.62 1.47 1.6 1.47 1.99 0 2.27-1.32 2.27-2.82Zm.71 2.22c0 .62.05 1.12.1 1.34h-.7c-.05-.17-.1-.48-.13-1.07-.24.52-.85 1.24-2.29 1.24-1.63 0-2.33-1.05-2.33-2.1 0-1.54 1.19-2.24 3.29-2.24h1.32v-.71c0-.7-.21-1.62-1.79-1.62-1.4 0-1.61.73-1.76 1.31h-.73c.08-.78.57-1.97 2.51-1.97 1.61 0 2.51.67 2.51 2.22Z"/><path d="M70.82 8.45h.73v7.01h-.73Zm0-3.31h.73V6.51h-.73Z"/><path d="M73.93 13.52c.24.9.88 1.45 1.98 1.45 1.24 0 1.74-.57 1.74-1.34 0-.79-.34-1.18-1.89-1.55-1.82-.44-2.27-.99-2.27-1.91 0-.97.73-1.87 2.32-1.87s2.35.97 2.46 1.97h-.73c-.12-.58-.58-1.31-1.77-1.31-1.21 0-1.55.6-1.55 1.15 0 .64.33.96 1.72 1.29 1.98.48 2.47 1.13 2.47 2.18 0 1.27-1.03 2.07-2.52 2.07-1.61 0-2.51-.85-2.7-2.11Z"/><path d="M84.78 8.45c1.4 3.97 2.02 5.64 2.25 6.39h.01c.28-.85.84-2.48 2.18-6.39h.76l-2.63 7.41c-.74 2.07-1.25 2.54-2.52 2.54-.25 0-.42-.01-.65-.04v-.72c.21.03.41.04.63.04 1 0 1.33-.49 1.84-1.91L83.98 8.45Z"/><path d="M91.74 11.96c0 1.66.89 2.99 2.36 2.99 1.5 0 2.35-1.24 2.35-2.99 0-1.65-.83-2.99-2.38-2.99-1.58 0-2.34 1.32-2.34 2.99m5.48-.01c0 1.95-1.08 3.69-3.17 3.69-1.9 0-3.08-1.56-3.08-3.67 0-2.01 1.11-3.67 3.15-3.67 1.87 0 3.1 1.46 3.1 3.66"/><path d="M104.35 13.42c0 .69.01 1.77.01 2.05h-.7c-.03-.18-.04-.64-.04-1.21-.3.82-1.01 1.38-2.25 1.38-1.02 0-2.3-.4-2.3-2.54V8.45h.71v4.46c0 1.02.32 2.01 1.7 2.01 1.55 0 2.14-.87 2.14-2.86V8.45h.73Z"/><path d="M106.77 10.36c0-1.17-.01-1.67-.01-1.91h.71c.01.22.03.68.03 1.56.4-1.05 1.3-1.68 2.43-1.73v.78c-1.46.1-2.43 1.09-2.43 2.76v3.63h-.73Z"/><path d="M116.34 11.96c0 1.66.89 2.99 2.36 2.99 1.5 0 2.35-1.24 2.35-2.99 0-1.65-.84-2.99-2.38-2.99-1.58 0-2.33 1.32-2.33 2.99m5.48-.01c0 1.95-1.08 3.69-3.17 3.69-1.9 0-3.08-1.56-3.08-3.67 0-2.01 1.11-3.67 3.15-3.67 1.87 0 3.1 1.46 3.1 3.66"/><path d="M123.68 10.22c0-.62 0-1.21-.01-1.77h.71c.03.22.04 1.12.03 1.32.31-.71.88-1.49 2.32-1.49 1.25 0 2.35.71 2.35 2.64v4.54h-.73V11.04c0-1.24-.51-2.05-1.72-2.05-1.65 0-2.22 1.37-2.22 2.89v3.58h-.73Z"/><path d="M136.1 11.42c-.01-1.38-.76-2.46-2.12-2.46-1.43 0-2.08 1-2.24 2.46Zm-4.4.63c.01 1.79.91 2.9 2.25 2.9 1.31 0 1.75-.73 2-1.3h.74c-.29.92-1.04 1.98-2.77 1.98-2.13 0-2.96-1.83-2.96-3.62 0-2.01 1-3.73 3.05-3.73 2.16 0 2.85 1.86 2.85 3.19 0 .2 0 .39-.02.58Z"/><path d="M138.64 12.24h3.54v-.71h-3.54Z" fill-rule="evenodd"/><path d="M144.32 13.52c.24.9.88 1.45 1.97 1.45 1.24 0 1.73-.57 1.73-1.34 0-.79-.33-1.18-1.89-1.55-1.82-.44-2.27-.99-2.27-1.91 0-.97.73-1.87 2.33-1.87s2.35.97 2.46 1.97h-.73c-.12-.58-.58-1.31-1.77-1.31-1.21 0-1.55.6-1.55 1.15 0 .64.33.96 1.72 1.29 1.98.48 2.47 1.13 2.47 2.18 0 1.27-1.03 2.07-2.52 2.07-1.61 0-2.51-.85-2.7-2.11Z"/><path d="M149.59 8.45h1.3V6.27h.73V8.45h1.66v.68h-1.66v4.53c0 .78.17 1.22.84 1.22.21 0 .5-.01.72-.08v.63c-.24.1-.58.13-.88.13-.91 0-1.41-.45-1.41-1.58V9.13h-1.3Z"/><path d="M154.98 11.96c0 1.66.89 2.99 2.36 2.99 1.5 0 2.35-1.24 2.35-2.99 0-1.65-.83-2.99-2.38-2.99-1.58 0-2.34 1.32-2.34 2.99m5.48-.01c0 1.95-1.08 3.69-3.17 3.69-1.9 0-3.08-1.56-3.08-3.67 0-2.01 1.11-3.67 3.15-3.67 1.87 0 3.1 1.46 3.1 3.66"/><path d="M167.54 11.8c0-1.62-.78-2.83-2.16-2.83-1.68 0-2.38 1.06-2.38 2.95 0 1.87.54 3.02 2.28 3.02 1.45 0 2.25-1.22 2.25-3.15m-4.49 2.63v3.83h-.73V10.18c0-.57 0-1.19-.01-1.72h.71c.03.26.03.68.03 1.25.43-.83 1.2-1.42 2.46-1.42 1.65 0 2.8 1.39 2.8 3.49 0 2.52-1.35 3.85-3.04 3.85-1.23 0-1.87-.54-2.22-1.2"/><path d="M175.05 12.01c0 1.91.99 2.94 2.18 2.94 1.84 0 2.34-1.27 2.34-3.16 0-1.8-.43-2.83-2.21-2.83-1.38 0-2.31 1.1-2.31 3.05m5.22-6.87v8.3c0 .67 0 1.32.01 2.02h-.7c-.03-.17-.04-.82-.04-1.17-.35.85-1.13 1.34-2.35 1.34-1.82 0-2.92-1.48-2.92-3.59 0-2.16 1.19-3.76 3.1-3.76 1.39 0 1.95.6 2.16 1.04V5.14Z"/><path d="M182.69 8.45h.73v7.01h-.73Zm0-3.31h.73V6.51h-.73Z"/><path d="M186.06 11.93c0 1.66.88 2.85 2.21 2.85 1.74 0 2.27-1.16 2.27-2.96 0-1.83-.55-2.85-2.22-2.85-1.59 0-2.25 1.37-2.25 2.96m5.16 3.05c0 2.24-.99 3.43-3.04 3.43-1.84 0-2.59-1.03-2.76-2.09h.74c.25.96 1.04 1.42 2.04 1.42 1.81 0 2.31-1.17 2.31-2.94v-.72c-.38.9-1.06 1.39-2.33 1.39-1.65 0-2.9-1.34-2.9-3.5 0-2.35 1.34-3.67 3-3.67 1.42 0 2.04.67 2.23 1.23.01-.4.03-.89.04-1.06h.68c0 .26-.03 1.36-.03 2.03Z"/><path d="M193.64 8.45h.73v7.01h-.73Zm0-3.31h.73V6.51h-.73Z"/><path d="M195.84 8.45h1.3V6.27h.73V8.45h1.66v.68h-1.66v4.53c0 .78.17 1.22.84 1.22.21 0 .5-.01.72-.08v.63c-.24.1-.58.13-.88.13-.91 0-1.41-.45-1.41-1.58V9.13h-1.3Z"/><path d="M205.22 11.9h-1.36c-1.55 0-2.5.41-2.5 1.6 0 .88.62 1.47 1.6 1.47 1.99 0 2.27-1.32 2.27-2.82Zm.71 2.22c0 .62.06 1.12.1 1.34h-.7c-.05-.17-.1-.48-.13-1.07-.24.52-.85 1.24-2.29 1.24-1.63 0-2.33-1.05-2.33-2.1 0-1.54 1.19-2.24 3.29-2.24h1.32v-.71c0-.7-.21-1.62-1.79-1.62-1.4 0-1.61.73-1.76 1.31h-.73c.08-.78.57-1.97 2.51-1.97 1.61 0 2.51.67 2.51 2.22Z"/><path d="M208.37 15.46h.73V5.14h-.73Z" fill-rule="evenodd"/><path d="M221.38 11.8c0-1.62-.78-2.83-2.16-2.83-1.68 0-2.38 1.06-2.38 2.95 0 1.87.54 3.02 2.28 3.02 1.45 0 2.26-1.22 2.26-3.15m-4.49 2.63v3.83h-.73V10.18c0-.57 0-1.19-.01-1.72h.71c.03.26.03.68.03 1.25.43-.83 1.2-1.42 2.46-1.42 1.65 0 2.8 1.39 2.8 3.49 0 2.52-1.35 3.85-3.04 3.85-1.23 0-1.87-.54-2.22-1.2"/><path d="M224.03 15.46h.73V5.14h-.73Z" fill-rule="evenodd"/><path d="M231.2 11.9h-1.36c-1.55 0-2.5.41-2.5 1.6 0 .88.62 1.47 1.6 1.47 1.99 0 2.26-1.32 2.26-2.82Zm.71 2.22c0 .62.06 1.12.1 1.34h-.7c-.06-.17-.1-.48-.13-1.07-.24.52-.85 1.24-2.29 1.24-1.63 0-2.33-1.05-2.33-2.1 0-1.54 1.19-2.24 3.3-2.24h1.32v-.71c0-.7-.21-1.62-1.79-1.62-1.4 0-1.61.73-1.76 1.31h-.73c.09-.78.57-1.97 2.51-1.97 1.6 0 2.51.67 2.51 2.22Z"/><path d="M233.24 8.45h1.3V6.27h.73V8.45h1.66v.68h-1.66v4.53c0 .78.17 1.22.84 1.22.21 0 .5-.01.72-.08v.63c-.24.1-.58.13-.88.13-.91 0-1.41-.45-1.41-1.58V9.13h-1.3Z"/><path d="M238.67 15.46V9.13h-1.2V8.45h1.2V7.47c0-1.18.34-2.47 1.91-2.47.21 0 .52.04.69.1v.69c-.21-.06-.54-.08-.75-.08-.82 0-1.13.58-1.13 1.79v.96h1.52v.68h-1.52v6.33Z"/><path d="M242.38 11.96c0 1.66.89 2.99 2.36 2.99 1.5 0 2.35-1.24 2.35-2.99 0-1.65-.84-2.99-2.38-2.99-1.58 0-2.33 1.32-2.33 2.99m5.48-.01c0 1.95-1.08 3.69-3.17 3.69-1.9 0-3.08-1.56-3.08-3.67 0-2.01 1.11-3.67 3.15-3.67 1.87 0 3.1 1.46 3.1 3.66"/><path d="M249.72 10.36c0-1.17-.01-1.67-.01-1.91h.71c.02.22.03.68.03 1.56.4-1.05 1.3-1.68 2.43-1.73v.78c-1.46.1-2.43 1.09-2.43 2.76v3.63h-.73Z"/><path d="M254.27 10.26c0-.6 0-1.26-.01-1.81h.71c.01.24.04.83.03 1.24.29-.7.94-1.41 2.1-1.41.98 0 1.75.49 2.03 1.38.35-.73 1.05-1.38 2.28-1.38 1.08 0 2.2.62 2.2 2.57v4.61h-.73V10.94c0-.93-.34-1.95-1.63-1.95-1.35 0-1.96 1.08-1.96 2.43v4.04h-.71V10.95c0-1.02-.3-1.96-1.59-1.96-1.35 0-2 1.19-2 2.61v3.86h-.73Z"/><path d="M270.89 11.96c0 1.66.89 2.99 2.36 2.99 1.5 0 2.35-1.24 2.35-2.99 0-1.65-.84-2.99-2.38-2.99-1.58 0-2.34 1.32-2.34 2.99m5.48-.01c0 1.95-1.08 3.69-3.17 3.69-1.9 0-3.08-1.56-3.08-3.67 0-2.01 1.11-3.67 3.15-3.67 1.87 0 3.11 1.46 3.11 3.66"/><path d="M278.54 15.46V9.13h-1.2V8.45h1.2V7.47c0-1.18.35-2.47 1.91-2.47.21 0 .52.04.69.1v.69c-.21-.06-.54-.08-.75-.08-.82 0-1.13.58-1.13 1.79v.96h1.52v.68h-1.52v6.33Z"/><path d="M292.67 10.66h-4.99v4.08h5.47l-.12.72h-6.14V5.66h6.03v.72h-5.24V9.93h4.99Z"/><path d="M295.39 12.82c.29 1.3 1.16 2.06 2.76 2.06 1.78 0 2.46-.89 2.46-1.94 0-1.1-.49-1.78-2.64-2.31-2.09-.52-2.98-1.2-2.98-2.61 0-1.3.95-2.5 3.05-2.5 2.17 0 3.08 1.32 3.21 2.51h-.81c-.22-1.04-.9-1.79-2.44-1.79-1.4 0-2.17.65-2.17 1.73 0 1.07.64 1.49 2.44 1.93 2.76.69 3.17 1.79 3.17 2.97 0 1.45-1.06 2.7-3.33 2.7-2.45 0-3.36-1.42-3.54-2.75Z"/><path d="M311.34 15.46h-.65c-.06-.12-.09-.62-.1-1.56-.36.67-1.13 1.67-3.16 1.67-2.82 0-4.26-2.14-4.26-4.93 0-2.93 1.54-5.13 4.42-5.13 2.12 0 3.52 1.11 3.83 2.92h-.78c-.42-1.37-1.37-2.2-3.08-2.2-2.44 0-3.55 1.9-3.55 4.36 0 2.23 1.07 4.25 3.45 4.25 2.44 0 3.12-1.59 3.12-3.73v-.11h-3.14v-.72h3.9Z"/><path d="M318.53 12.01c0 1.91.99 2.94 2.18 2.94 1.84 0 2.34-1.27 2.34-3.16 0-1.8-.43-2.83-2.21-2.83-1.38 0-2.31 1.1-2.31 3.05m5.22-6.87v8.3c0 .67 0 1.32.01 2.02h-.7c-.03-.17-.04-.82-.04-1.17-.35.85-1.13 1.34-2.35 1.34-1.82 0-2.92-1.48-2.92-3.59 0-2.16 1.19-3.76 3.1-3.76 1.39 0 1.95.6 2.16 1.04V5.14Z"/><path d="M330.19 11.9h-1.36c-1.55 0-2.5.41-2.5 1.6 0 .88.62 1.47 1.6 1.47 1.99 0 2.27-1.32 2.27-2.82Zm.71 2.22c0 .62.06 1.12.1 1.34h-.7c-.05-.17-.1-.48-.12-1.07-.24.52-.85 1.24-2.29 1.24-1.63 0-2.33-1.05-2.33-2.1 0-1.54 1.19-2.24 3.29-2.24h1.33v-.71c0-.7-.21-1.62-1.79-1.62-1.4 0-1.61.73-1.76 1.31h-.73c.09-.78.57-1.97 2.51-1.97 1.6 0 2.5.67 2.5 2.22Z"/><path d="M332.23 8.45h1.3V6.27h.73V8.45h1.66v.68h-1.66v4.53c0 .78.17 1.22.84 1.22.21 0 .5-.01.72-.08v.63c-.24.1-.58.13-.88.13-.91 0-1.41-.45-1.41-1.58V9.13h-1.3Z"/><path d="M341.6 11.9h-1.36c-1.55 0-2.5.41-2.5 1.6 0 .88.62 1.47 1.6 1.47 1.99 0 2.27-1.32 2.27-2.82Zm.71 2.22c0 .62.06 1.12.1 1.34h-.7c-.06-.17-.1-.48-.12-1.07-.24.52-.85 1.24-2.29 1.24-1.63 0-2.33-1.05-2.33-2.1 0-1.54 1.19-2.24 3.3-2.24h1.32v-.71c0-.7-.21-1.62-1.79-1.62-1.4 0-1.61.73-1.77 1.31h-.73c.09-.78.57-1.97 2.51-1.97 1.6 0 2.5.67 2.5 2.22Z"/><path d="M353.52 11.9h-1.36c-1.55 0-2.5.41-2.5 1.6 0 .88.62 1.47 1.6 1.47 1.99 0 2.26-1.32 2.26-2.82Zm.72 2.22c0 .62.06 1.12.1 1.34h-.7c-.06-.17-.1-.48-.13-1.07-.24.52-.85 1.24-2.29 1.24-1.63 0-2.33-1.05-2.33-2.1 0-1.54 1.19-2.24 3.29-2.24h1.32v-.71c0-.7-.21-1.62-1.79-1.62-1.4 0-1.61.73-1.77 1.31h-.73c.09-.78.57-1.97 2.51-1.97 1.6 0 2.51.67 2.51 2.22Z"/><path d="M356.67 10.22c0-.62 0-1.21-.02-1.77h.71c.03.22.04 1.12.03 1.32.31-.71.88-1.49 2.32-1.49 1.25 0 2.35.71 2.35 2.64v4.54h-.73V11.04c0-1.24-.51-2.05-1.73-2.05-1.65 0-2.22 1.37-2.22 2.89v3.58h-.73Z"/><path d="M364.71 12.01c0 1.91.98 2.94 2.18 2.94 1.84 0 2.33-1.27 2.33-3.16 0-1.8-.43-2.83-2.21-2.83-1.38 0-2.31 1.1-2.31 3.05m5.22-6.87v8.3c0 .67 0 1.32.01 2.02h-.7c-.03-.17-.04-.82-.04-1.17-.35.85-1.13 1.34-2.35 1.34-1.82 0-2.91-1.48-2.91-3.59 0-2.16 1.19-3.76 3.1-3.76 1.39 0 1.95.6 2.16 1.04V5.14Z"/><path d="M5.74 31.52c.24.9.88 1.45 1.98 1.45 1.24 0 1.73-.57 1.73-1.34 0-.79-.34-1.18-1.89-1.55-1.82-.44-2.27-.99-2.27-1.91 0-.97.73-1.87 2.32-1.87s2.35.97 2.46 1.97H9.35c-.12-.58-.58-1.31-1.77-1.31-1.21 0-1.55.6-1.55 1.15 0 .64.33.96 1.71 1.29 1.99.48 2.47 1.13 2.47 2.18 0 1.27-1.03 2.07-2.52 2.07-1.61 0-2.51-.85-2.7-2.11Z"/><path d="M12.31 29.96c0 1.66.89 2.99 2.36 2.99 1.5 0 2.35-1.24 2.35-2.99 0-1.65-.83-2.99-2.38-2.99-1.58 0-2.34 1.32-2.34 2.99m5.48-.01c0 1.95-1.08 3.69-3.17 3.69-1.9 0-3.08-1.56-3.08-3.67 0-2.01 1.11-3.67 3.15-3.67 1.87 0 3.1 1.46 3.1 3.66"/><path d="M19.65 33.46h.73V23.14h-.73Z" fill-rule="evenodd"/><path d="M28.07 31.42c0 .69.01 1.77.01 2.05h-.7c-.03-.18-.04-.64-.04-1.21-.3.82-1.01 1.38-2.25 1.38-1.02 0-2.3-.4-2.3-2.54V26.45h.72v4.46c0 1.02.32 2.01 1.7 2.01 1.55 0 2.14-.87 2.14-2.86V26.45h.73Z"/><path d="M29.61 26.45h1.3V24.27h.73v2.18H33.3v.68H31.64v4.53c0 .78.17 1.22.84 1.22.21 0 .5-.01.72-.08v.63c-.24.1-.58.13-.88.13-.91 0-1.41-.45-1.41-1.58V27.13h-1.3Z"/><path d="M34.87 26.45h.73v7.01h-.73Zm0-3.31h.73v1.37h-.73Z"/><path d="M38.23 29.96c0 1.66.89 2.99 2.36 2.99 1.5 0 2.35-1.24 2.35-2.99 0-1.65-.84-2.99-2.38-2.99-1.58 0-2.33 1.32-2.33 2.99m5.48-.01c0 1.95-1.08 3.69-3.17 3.69-1.9 0-3.08-1.56-3.08-3.67 0-2.01 1.11-3.67 3.15-3.67 1.87 0 3.1 1.46 3.1 3.66"/><path d="M45.58 28.22c0-.62 0-1.21-.01-1.77h.71c.03.22.04 1.12.03 1.32.31-.71.88-1.49 2.32-1.49 1.25 0 2.35.71 2.35 2.64v4.54h-.73V29.04c0-1.24-.51-2.05-1.73-2.05-1.65 0-2.22 1.37-2.22 2.89v3.58h-.73Z"/><path d="M53.4 31.52c.24.9.88 1.45 1.98 1.45 1.23 0 1.73-.57 1.73-1.34 0-.79-.34-1.18-1.89-1.55-1.82-.44-2.27-.99-2.27-1.91 0-.97.73-1.87 2.33-1.87s2.35.97 2.46 1.97h-.73c-.12-.58-.58-1.31-1.77-1.31-1.21 0-1.55.6-1.55 1.15 0 .64.33.96 1.72 1.29 1.98.48 2.47 1.13 2.47 2.18 0 1.27-1.03 2.07-2.52 2.07-1.61 0-2.51-.85-2.7-2.11Z"/><path d="M68.67 33.46V27.13h-1.2v-.68h1.2v-.99c0-1.18.35-2.47 1.91-2.47.21 0 .52.04.69.1v.69c-.21-.06-.54-.08-.75-.08-.82 0-1.13.58-1.13 1.79v.96h1.52v.68H69.4v6.33Z"/><path d="M72.38 29.96c0 1.66.89 2.99 2.36 2.99 1.5 0 2.35-1.24 2.35-2.99 0-1.65-.83-2.99-2.38-2.99-1.58 0-2.34 1.32-2.34 2.99m5.48-.01c0 1.95-1.08 3.69-3.17 3.69-1.9 0-3.08-1.56-3.08-3.67 0-2.01 1.11-3.67 3.15-3.67 1.87 0 3.1 1.46 3.1 3.66"/><path d="M79.73 28.36c0-1.17-.01-1.67-.01-1.91h.71c.02.22.03.68.03 1.56.4-1.05 1.3-1.68 2.43-1.73v.78c-1.46.1-2.43 1.09-2.43 2.76v3.63h-.73Z"/><path d="M98.35 31.4c-.33 1.23-1.15 2.23-2.73 2.23-1.76 0-3.01-1.31-3.01-3.64 0-1.92 1.03-3.7 3.09-3.7 1.79 0 2.52 1.27 2.65 2.25h-.74c-.21-.81-.74-1.57-1.92-1.57-1.47 0-2.31 1.25-2.31 2.99 0 1.67.78 3 2.24 3 1.02 0 1.63-.52 1.99-1.56Z"/><path d="M100.39 29.96c0 1.66.89 2.99 2.36 2.99 1.5 0 2.35-1.24 2.35-2.99 0-1.65-.83-2.99-2.38-2.99-1.58 0-2.34 1.32-2.34 2.99m5.48-.01c0 1.95-1.08 3.69-3.17 3.69-1.9 0-3.08-1.56-3.08-3.67 0-2.01 1.11-3.67 3.15-3.67 1.87 0 3.1 1.46 3.1 3.66"/><path d="M107.73 28.36c0-1.17-.01-1.67-.01-1.91h.71c.01.22.03.68.03 1.56.4-1.05 1.3-1.68 2.43-1.73v.78c-1.46.1-2.43 1.09-2.43 2.76v3.63h-.73Z"/><path d="M117.5 29.8c0-1.62-.78-2.83-2.16-2.83-1.68 0-2.38 1.06-2.38 2.95 0 1.87.54 3.02 2.28 3.02 1.45 0 2.26-1.22 2.26-3.15m-4.49 2.63v3.83h-.73V28.18c0-.57 0-1.19-.01-1.72h.71c.03.26.03.68.03 1.25.43-.83 1.2-1.42 2.46-1.42 1.65 0 2.8 1.39 2.8 3.49 0 2.52-1.35 3.85-3.04 3.85-1.23 0-1.87-.54-2.22-1.2"/><path d="M120.45 29.96c0 1.66.89 2.99 2.36 2.99 1.5 0 2.35-1.24 2.35-2.99 0-1.65-.83-2.99-2.38-2.99-1.58 0-2.34 1.32-2.34 2.99m5.48-.01c0 1.95-1.08 3.69-3.17 3.69-1.9 0-3.08-1.56-3.08-3.67 0-2.01 1.11-3.67 3.15-3.67 1.87 0 3.1 1.46 3.1 3.66"/><path d="M127.79 28.36c0-1.17-.01-1.67-.01-1.91h.71c.01.22.03.68.03 1.56.41-1.05 1.3-1.68 2.43-1.73v.78c-1.46.1-2.43 1.09-2.43 2.76v3.63h-.73Z"/><path d="M136.38 29.9h-1.36c-1.55 0-2.5.41-2.5 1.6 0 .88.62 1.47 1.6 1.47 1.99 0 2.26-1.32 2.26-2.82Zm.71 2.22c0 .62.06 1.12.1 1.34h-.7c-.05-.17-.1-.48-.13-1.07-.24.52-.85 1.24-2.29 1.24-1.63 0-2.33-1.05-2.33-2.1 0-1.54 1.19-2.24 3.3-2.24h1.32v-.71c0-.7-.21-1.62-1.79-1.62-1.4 0-1.61.73-1.76 1.31h-.73c.08-.78.57-1.97 2.51-1.97 1.61 0 2.51.67 2.51 2.22Z"/><path d="M138.42 26.45h1.3V24.27h.73v2.18h1.66v.68h-1.66v4.53c0 .78.17 1.22.84 1.22.21 0 .5-.01.72-.08v.63c-.24.1-.58.13-.88.13-.91 0-1.41-.45-1.41-1.58V27.13h-1.3Z"/><path d="M148.18 29.42c-.01-1.38-.76-2.46-2.12-2.46-1.43 0-2.09 1-2.24 2.46Zm-4.4.63c.01 1.79.91 2.9 2.25 2.9 1.31 0 1.75-.73 2-1.3h.74c-.29.92-1.04 1.98-2.77 1.98-2.13 0-2.97-1.83-2.97-3.62 0-2.01 1-3.73 3.05-3.73 2.16 0 2.85 1.86 2.85 3.19 0 .2 0 .39-.01.58Z"/><path d="M150.97 31.52c.24.9.88 1.45 1.98 1.45 1.24 0 1.73-.57 1.73-1.34 0-.79-.34-1.18-1.89-1.55-1.82-.44-2.27-.99-2.27-1.91 0-.97.73-1.87 2.32-1.87s2.35.97 2.46 1.97h-.73c-.12-.58-.58-1.31-1.77-1.31-1.21 0-1.55.6-1.55 1.15 0 .64.33.96 1.72 1.29 1.98.48 2.47 1.13 2.47 2.18 0 1.27-1.04 2.07-2.52 2.07-1.61 0-2.51-.85-2.7-2.11Z"/><path d="M156.43 35.06c.69-1.37.94-2.61.98-3.4h.73c-.1 1.17-.55 2.56-1.06 3.4Z"/><path d="M169.14 30.82c.29 1.3 1.16 2.06 2.76 2.06 1.78 0 2.46-.89 2.46-1.94 0-1.1-.49-1.78-2.64-2.31-2.08-.52-2.98-1.2-2.98-2.61 0-1.3.95-2.5 3.05-2.5 2.17 0 3.08 1.32 3.2 2.51h-.81c-.22-1.04-.9-1.79-2.43-1.79-1.4 0-2.17.65-2.17 1.73 0 1.07.64 1.49 2.44 1.93 2.76.69 3.17 1.79 3.17 2.97 0 1.45-1.06 2.7-3.33 2.7-2.45 0-3.36-1.42-3.54-2.75Z"/><path d="M185.9 28.97c0-1.91.01-3.75.06-4.73h-.04c-.4 1.33-2.36 6.13-3.6 9.22h-.77c-.93-2.4-2.97-7.74-3.42-9.24h-.03c.07 1.12.1 3.4.1 5.08v4.16h-.78v-9.8h1.18c1.33 3.34 3.01 7.71 3.37 8.83h.03c.22-.73 2.17-5.58 3.53-8.83h1.16v9.8h-.78Z"/><path d="M195.47 28.66h-4.99v4.08h5.47l-.12.72h-6.14v-9.8h6.03v.72h-5.24v3.55h4.99Z"/><path d="M197.94 31.52c.24.9.88 1.45 1.98 1.45 1.24 0 1.73-.57 1.73-1.34 0-.79-.34-1.18-1.89-1.55-1.82-.44-2.27-.99-2.27-1.91 0-.97.73-1.87 2.33-1.87s2.35.97 2.46 1.97h-.73c-.12-.58-.58-1.31-1.77-1.31-1.21 0-1.55.6-1.55 1.15 0 .64.33.96 1.72 1.29 1.98.48 2.47 1.13 2.47 2.18 0 1.27-1.03 2.07-2.52 2.07-1.61 0-2.51-.85-2.7-2.11Z"/><path d="M203.41 35.06c.69-1.37.94-2.61.98-3.4h.73c-.1 1.17-.55 2.56-1.06 3.4Z"/><path d="M219.91 29.9h-1.36c-1.55 0-2.5.41-2.5 1.6 0 .88.62 1.47 1.6 1.47 1.99 0 2.27-1.32 2.27-2.82Zm.71 2.22c0 .62.06 1.12.1 1.34h-.7c-.05-.17-.1-.48-.12-1.07-.24.52-.85 1.24-2.29 1.24-1.63 0-2.33-1.05-2.33-2.1 0-1.54 1.19-2.24 3.3-2.24h1.32v-.71c0-.7-.21-1.62-1.79-1.62-1.4 0-1.61.73-1.76 1.31h-.73c.09-.78.57-1.97 2.51-1.97 1.6 0 2.5.67 2.5 2.22Z"/><path d="M223.06 28.22c0-.62 0-1.21-.01-1.77h.71c.03.22.04 1.12.03 1.32.31-.71.88-1.49 2.32-1.49 1.25 0 2.35.71 2.35 2.64v4.54h-.73V29.04c0-1.24-.51-2.05-1.72-2.05-1.65 0-2.22 1.37-2.22 2.89v3.58h-.73Z"/><path d="M231.1 30.01c0 1.91.98 2.94 2.18 2.94 1.84 0 2.34-1.27 2.34-3.16 0-1.8-.43-2.83-2.21-2.83-1.38 0-2.31 1.1-2.31 3.05m5.22-6.87v8.3c0 .67 0 1.32.01 2.02h-.7c-.03-.17-.04-.82-.04-1.17-.35.85-1.13 1.34-2.35 1.34-1.82 0-2.92-1.48-2.92-3.59 0-2.16 1.19-3.76 3.1-3.76 1.39 0 1.95.6 2.16 1.04V23.14Z"/><path d="M247.66 33.46V27.13h-1.2v-.68h1.2v-.99c0-1.18.35-2.47 1.91-2.47.21 0 .52.04.69.1v.69c-.21-.06-.54-.08-.75-.08-.82 0-1.13.58-1.13 1.79v.96h1.52v.68h-1.52v6.33Z"/><path d="M251.34 26.45h.73v7.01h-.73Zm0-3.31h.73v1.37h-.73Z"/><path d="M254.49 28.22c0-.62 0-1.21-.01-1.77h.71c.03.22.04 1.12.03 1.32.31-.71.88-1.49 2.32-1.49 1.25 0 2.35.71 2.35 2.64v4.54h-.73V29.04c0-1.24-.51-2.05-1.72-2.05-1.65 0-2.22 1.37-2.22 2.89v3.58h-.73Z"/><path d="M266.35 29.9h-1.36c-1.55 0-2.5.41-2.5 1.6 0 .88.62 1.47 1.6 1.47 1.99 0 2.27-1.32 2.27-2.82Zm.71 2.22c0 .62.06 1.12.1 1.34h-.7c-.05-.17-.1-.48-.12-1.07-.24.52-.85 1.24-2.29 1.24-1.63 0-2.33-1.05-2.33-2.1 0-1.54 1.19-2.24 3.29-2.24h1.33v-.71c0-.7-.21-1.62-1.79-1.62-1.4 0-1.61.73-1.76 1.31h-.73c.08-.78.57-1.97 2.51-1.97 1.61 0 2.5.67 2.5 2.22Z"/><path d="M269.5 28.22c0-.62 0-1.21-.01-1.77h.71c.03.22.04 1.12.03 1.32.31-.71.88-1.49 2.32-1.49 1.25 0 2.35.71 2.35 2.64v4.54h-.73V29.04c0-1.24-.51-2.05-1.72-2.05-1.65 0-2.22 1.37-2.22 2.89v3.58h-.73Z"/><path d="M282.5 31.4c-.33 1.23-1.15 2.23-2.73 2.23-1.76 0-3.01-1.31-3.01-3.64 0-1.92 1.03-3.7 3.09-3.7 1.79 0 2.52 1.27 2.65 2.25h-.74c-.21-.81-.74-1.57-1.92-1.57-1.47 0-2.31 1.25-2.31 2.99 0 1.67.78 3 2.24 3 1.02 0 1.63-.52 1.99-1.56Z"/><path d="M284.44 26.45h.73v7.01h-.73Zm0-3.31h.73v1.37h-.73Z"/><path d="M291.61 29.9h-1.36c-1.55 0-2.5.41-2.5 1.6 0 .88.62 1.47 1.6 1.47 1.99 0 2.26-1.32 2.26-2.82Zm.71 2.22c0 .62.06 1.12.1 1.34h-.7c-.06-.17-.1-.48-.13-1.07-.24.52-.85 1.24-2.29 1.24-1.63 0-2.33-1.05-2.33-2.1 0-1.54 1.19-2.24 3.29-2.24h1.32v-.71c0-.7-.21-1.62-1.79-1.62-1.4 0-1.61.73-1.77 1.31h-.73c.08-.78.57-1.97 2.51-1.97 1.6 0 2.51.67 2.51 2.22Z"/><path d="M294.75 33.46h.73V23.14h-.73Z" fill-rule="evenodd"/><path d="M306.64 26.45h.73v7.01h-.73Zm0-3.31h.73v1.37h-.73Z"/><path d="M309.79 28.22c0-.62 0-1.21-.01-1.77h.71c.03.22.04 1.12.03 1.32.31-.71.88-1.49 2.32-1.49 1.25 0 2.35.71 2.35 2.64v4.54h-.73V29.04c0-1.24-.51-2.05-1.72-2.05-1.65 0-2.22 1.37-2.22 2.89v3.58h-.73Z"/><path d="M317.61 31.52c.24.9.88 1.45 1.98 1.45 1.24 0 1.73-.57 1.73-1.34 0-.79-.33-1.18-1.89-1.55-1.82-.44-2.26-.99-2.26-1.91 0-.97.73-1.87 2.32-1.87s2.35.97 2.46 1.97h-.73c-.12-.58-.58-1.31-1.77-1.31-1.21 0-1.55.6-1.55 1.15 0 .64.33.96 1.72 1.29 1.98.48 2.47 1.13 2.47 2.18 0 1.27-1.03 2.07-2.52 2.07-1.61 0-2.51-.85-2.7-2.11Z"/><path d="M322.88 26.45h1.3V24.27h.73v2.18h1.66v.68H324.9v4.53c0 .78.17 1.22.84 1.22.21 0 .5-.01.72-.08v.63c-.24.1-.58.13-.88.13-.91 0-1.41-.45-1.41-1.58V27.13h-1.3Z"/><path d="M328.13 26.45h.73v7.01h-.73Zm0-3.31h.73v1.37h-.73Z"/><path d="M330.34 26.45h1.3V24.27h.73v2.18h1.66v.68h-1.66v4.53c0 .78.17 1.22.84 1.22.21 0 .5-.01.72-.08v.63c-.24.1-.58.13-.88.13-.91 0-1.41-.45-1.41-1.58V27.13h-1.3Z"/><path d="M340.66 31.42c0 .69.01 1.77.01 2.05h-.7c-.03-.18-.04-.64-.04-1.21-.3.82-1.01 1.38-2.25 1.38-1.02 0-2.3-.4-2.3-2.54V26.45h.71v4.46c0 1.02.32 2.01 1.7 2.01 1.56 0 2.14-.87 2.14-2.86V26.45h.73Z"/><path d="M342.21 26.45h1.3V24.27h.73v2.18h1.66v.68h-1.66v4.53c0 .78.17 1.22.84 1.22.21 0 .5-.01.72-.08v.63c-.24.1-.58.13-.88.13-.91 0-1.41-.45-1.41-1.58V27.13h-1.3Z"/><path d="M347.47 26.45h.73v7.01h-.73Zm0-3.31h.73v1.37h-.73Z"/><path d="M350.83 29.96c0 1.66.89 2.99 2.36 2.99 1.5 0 2.35-1.24 2.35-2.99 0-1.65-.83-2.99-2.38-2.99-1.58 0-2.34 1.32-2.34 2.99m5.48-.01c0 1.95-1.08 3.69-3.17 3.69-1.9 0-3.08-1.56-3.08-3.67 0-2.01 1.11-3.67 3.15-3.67 1.87 0 3.1 1.46 3.1 3.66"/><path d="M358.18 28.22c0-.62 0-1.21-.01-1.77h.71c.03.22.04 1.12.03 1.32.31-.71.88-1.49 2.32-1.49 1.25 0 2.35.71 2.35 2.64v4.54h-.73V29.04c0-1.24-.51-2.05-1.73-2.05-1.65 0-2.22 1.37-2.22 2.89v3.58h-.73Z"/><path d="M365.99 31.52c.24.9.88 1.45 1.97 1.45 1.24 0 1.74-.57 1.74-1.34 0-.79-.34-1.18-1.89-1.55-1.82-.44-2.27-.99-2.27-1.91 0-.97.73-1.87 2.32-1.87s2.35.97 2.46 1.97h-.73c-.12-.58-.58-1.31-1.77-1.31-1.21 0-1.55.6-1.55 1.15 0 .64.33.96 1.72 1.29 1.99.48 2.47 1.13 2.47 2.18 0 1.27-1.03 2.07-2.52 2.07-1.61 0-2.51-.85-2.7-2.11Z"/><path d="M9.83 47.9H8.47c-1.55 0-2.5.41-2.5 1.6 0 .88.62 1.47 1.6 1.47 1.99 0 2.27-1.32 2.27-2.82Zm.71 2.22c0 .62.05 1.12.1 1.34h-.7c-.06-.17-.1-.48-.13-1.07-.24.52-.85 1.24-2.29 1.24-1.63 0-2.33-1.05-2.33-2.1 0-1.54 1.19-2.24 3.3-2.24H9.81v-.71c0-.7-.21-1.62-1.79-1.62-1.4 0-1.61.73-1.76 1.31H5.53c.08-.78.57-1.97 2.51-1.97 1.6 0 2.51.67 2.51 2.22Z"/><path d="M18.15 49.4c-.33 1.23-1.15 2.23-2.73 2.23-1.76 0-3.01-1.31-3.01-3.64 0-1.92 1.03-3.7 3.09-3.7 1.79 0 2.52 1.27 2.64 2.25h-.74c-.21-.81-.74-1.57-1.92-1.57-1.47 0-2.31 1.25-2.31 2.99 0 1.67.78 3 2.24 3 1.02 0 1.63-.52 1.99-1.56Z"/><path d="M19.9 46.36c0-1.17-.01-1.67-.01-1.91h.71c.02.22.03.68.03 1.56.41-1.05 1.3-1.68 2.44-1.73v.78c-1.46.1-2.44 1.09-2.44 2.76v3.63H19.9Z"/><path d="M24.71 47.96c0 1.66.89 2.99 2.36 2.99 1.5 0 2.35-1.24 2.35-2.99 0-1.65-.83-2.99-2.38-2.99-1.58 0-2.33 1.32-2.33 2.99m5.48-.01c0 1.95-1.08 3.69-3.17 3.69-1.9 0-3.08-1.56-3.08-3.67 0-2.01 1.11-3.67 3.15-3.67 1.87 0 3.1 1.46 3.1 3.66"/><path d="M32.23 49.52c.24.9.88 1.45 1.98 1.45 1.23 0 1.73-.57 1.73-1.34 0-.79-.34-1.18-1.89-1.55-1.82-.44-2.27-.99-2.27-1.91 0-.97.73-1.87 2.33-1.87s2.35.97 2.46 1.97h-.73c-.12-.58-.58-1.31-1.76-1.31-1.21 0-1.56.6-1.56 1.15 0 .64.33.96 1.72 1.29 1.98.48 2.47 1.13 2.47 2.18 0 1.27-1.03 2.07-2.52 2.07-1.61 0-2.51-.85-2.7-2.11Z"/><path d="M38.78 49.52c.24.9.88 1.45 1.98 1.45 1.24 0 1.73-.57 1.73-1.34 0-.79-.34-1.18-1.89-1.55-1.82-.44-2.27-.99-2.27-1.91 0-.97.73-1.87 2.33-1.87s2.35.97 2.46 1.97h-.73c-.12-.58-.58-1.31-1.77-1.31-1.21 0-1.55.6-1.55 1.15 0 .64.33.96 1.72 1.29 1.98.48 2.47 1.13 2.47 2.18 0 1.27-1.03 2.07-2.52 2.07-1.61 0-2.51-.85-2.7-2.11Z"/><path d="M47.87 44.45h1.3V42.27h.73v2.18h1.66v.68H49.9v4.53c0 .78.17 1.22.84 1.22.21 0 .5-.01.72-.08v.63c-.24.1-.58.13-.88.13-.91 0-1.41-.45-1.41-1.58V45.13h-1.3Z"/><path d="M53.81 41.14v4.48c.39-.72 1.07-1.34 2.31-1.34 1 0 2.37.51 2.37 2.72v4.46h-.73V47.15c0-1.38-.62-2.15-1.78-2.15-1.38 0-2.17.85-2.17 2.56v3.91h-.73V41.14Z"/><path d="M65.5 47.42c-.01-1.38-.76-2.46-2.12-2.46-1.43 0-2.09 1-2.24 2.46Zm-4.4.63c.01 1.79.91 2.9 2.25 2.9 1.31 0 1.75-.73 2-1.3h.74c-.29.92-1.04 1.98-2.77 1.98-2.13 0-2.96-1.83-2.96-3.62 0-2.01 1-3.73 3.05-3.73 2.16 0 2.86 1.86 2.86 3.19 0 .2 0 .39-.02.58Z"/><path d="M76.99 47.38c-1.08-2.89-1.64-4.29-1.84-4.96h-.01c-.24.75-.87 2.48-1.74 4.96Zm-3.86.72l-1.24 3.36h-.8l3.59-9.8h.93l3.75 9.8h-.86L77.24 48.1Z"/><path d="M81.37 49.52c.24.9.88 1.45 1.97 1.45 1.24 0 1.74-.57 1.74-1.34 0-.79-.34-1.18-1.89-1.55-1.82-.44-2.27-.99-2.27-1.91 0-.97.73-1.87 2.32-1.87s2.35.97 2.46 1.97h-.73c-.12-.58-.58-1.31-1.77-1.31-1.21 0-1.55.6-1.55 1.15 0 .64.33.96 1.72 1.29 1.99.48 2.47 1.13 2.47 2.18 0 1.27-1.03 2.07-2.52 2.07-1.61 0-2.51-.85-2.7-2.11Z"/><path d="M87.72 44.45h.73v7.01h-.73Zm0-3.31h.73v1.37h-.73Z"/><path d="M94.89 47.9H93.53c-1.55 0-2.5.41-2.5 1.6 0 .88.62 1.47 1.6 1.47 1.99 0 2.27-1.32 2.27-2.82Zm.71 2.22c0 .62.06 1.12.1 1.34H95c-.05-.17-.1-.48-.12-1.07-.24.52-.85 1.24-2.29 1.24-1.63 0-2.33-1.05-2.33-2.1 0-1.54 1.19-2.24 3.3-2.24h1.32v-.71c0-.7-.21-1.62-1.79-1.62-1.4 0-1.61.73-1.77 1.31h-.73c.09-.78.57-1.97 2.51-1.97 1.6 0 2.5.67 2.5 2.22Z"/><path d="M102.84 46.48h2.68c1.57 0 2.23-.83 2.23-2.06 0-1.31-.86-2.04-2.17-2.04h-2.73Zm-.8-4.82h3.51c1.8 0 3.03 1 3.03 2.74 0 1.77-1.23 2.81-3.13 2.81h-2.62v4.26h-.8Z"/><path d="M114.25 47.9h-1.36c-1.55 0-2.5.41-2.5 1.6 0 .88.62 1.47 1.6 1.47 1.99 0 2.27-1.32 2.27-2.82Zm.71 2.22c0 .62.06 1.12.1 1.34h-.7c-.05-.17-.1-.48-.13-1.07-.24.52-.85 1.24-2.29 1.24-1.63 0-2.33-1.05-2.33-2.1 0-1.54 1.19-2.24 3.29-2.24h1.32v-.71c0-.7-.21-1.62-1.79-1.62-1.4 0-1.61.73-1.76 1.31h-.73c.08-.78.57-1.97 2.51-1.97 1.6 0 2.51.67 2.51 2.22Z"/><path d="M122.58 49.4c-.33 1.23-1.15 2.23-2.73 2.23-1.76 0-3.01-1.31-3.01-3.64 0-1.92 1.03-3.7 3.09-3.7 1.79 0 2.52 1.27 2.65 2.25h-.74c-.21-.81-.74-1.57-1.92-1.57-1.47 0-2.31 1.25-2.31 2.99 0 1.67.78 3 2.24 3 1.02 0 1.63-.52 1.99-1.56Z"/><path d="M124.51 44.45h.73v7.01h-.73Zm0-3.31h.73v1.37h-.73Z"/><path d="M128.01 51.46V45.13h-1.2v-.68h1.2v-.99c0-1.18.35-2.47 1.91-2.47.21 0 .52.04.69.1v.69c-.21-.06-.54-.08-.75-.08-.82 0-1.13.58-1.13 1.79v.96h1.52v.68h-1.52v6.33Z"/><path d="M131.69 44.45h.73v7.01h-.73Zm0-3.31h.73v1.37h-.73Z"/><path d="M140.02 49.4c-.33 1.23-1.15 2.23-2.73 2.23-1.76 0-3.01-1.31-3.01-3.64 0-1.92 1.03-3.7 3.09-3.7 1.79 0 2.52 1.27 2.65 2.25h-.74c-.21-.81-.74-1.57-1.92-1.57-1.47 0-2.31 1.25-2.31 2.99 0 1.67.78 3 2.24 3 1.02 0 1.63-.52 1.99-1.56Z"/><path d="M145.55 46.36c0-1.17-.01-1.67-.01-1.91h.71c.01.22.03.68.03 1.56.41-1.05 1.3-1.68 2.43-1.73v.78c-1.46.1-2.43 1.09-2.43 2.76v3.63h-.73Z"/><path d="M154.74 47.42c-.02-1.38-.76-2.46-2.13-2.46-1.43 0-2.09 1-2.24 2.46Zm-4.41.63c.01 1.79.92 2.9 2.25 2.9 1.31 0 1.75-.73 2-1.3h.74c-.29.92-1.04 1.98-2.77 1.98-2.13 0-2.97-1.83-2.97-3.62 0-2.01 1-3.73 3.05-3.73 2.17 0 2.85 1.86 2.85 3.19 0 .2 0 .39-.01.58Z"/><path d="M157.7 47.93c0 1.66.88 2.85 2.21 2.85 1.74 0 2.27-1.16 2.27-2.96 0-1.83-.55-2.85-2.22-2.85-1.6 0-2.25 1.37-2.25 2.96m5.16 3.05c0 2.24-.99 3.43-3.04 3.43-1.84 0-2.59-1.03-2.76-2.09h.74c.25.96 1.04 1.42 2.04 1.42 1.81 0 2.31-1.17 2.31-2.94v-.72c-.38.9-1.06 1.39-2.33 1.39-1.65 0-2.9-1.34-2.9-3.5 0-2.35 1.35-3.67 3-3.67 1.42 0 2.04.67 2.23 1.23.02-.4.03-.89.04-1.06h.68c0 .26-.03 1.36-.03 2.03Z"/><path d="M165.28 44.45h.73v7.01h-.73Zm0-3.31h.73v1.37h-.73Z"/><path d="M168.64 47.96c0 1.66.89 2.99 2.36 2.99 1.5 0 2.35-1.24 2.35-2.99 0-1.65-.83-2.99-2.38-2.99-1.58 0-2.34 1.32-2.34 2.99m5.48-.01c0 1.95-1.08 3.69-3.17 3.69-1.9 0-3.08-1.56-3.08-3.67 0-2.01 1.11-3.67 3.15-3.67 1.87 0 3.1 1.46 3.1 3.66"/><path d="M175.99 46.22c0-.62 0-1.21-.01-1.77h.71c.03.22.04 1.12.03 1.32.31-.71.88-1.49 2.32-1.49 1.25 0 2.35.71 2.35 2.64v4.54h-.73V47.04c0-1.24-.51-2.05-1.72-2.05-1.65 0-2.22 1.37-2.22 2.89v3.58h-.73Z"/><path d="M186.55 44.45h1.3V42.27h.73v2.18h1.66v.68h-1.66v4.53c0 .78.17 1.22.84 1.22.21 0 .5-.01.72-.08v.63c-.24.1-.58.13-.88.13-.91 0-1.41-.45-1.41-1.58V45.13h-1.3Z"/><path d="M191.94 47.96c0 1.66.89 2.99 2.36 2.99 1.5 0 2.35-1.24 2.35-2.99 0-1.65-.83-2.99-2.38-2.99-1.58 0-2.33 1.32-2.33 2.99m5.48-.01c0 1.95-1.08 3.69-3.17 3.69-1.9 0-3.08-1.56-3.08-3.67 0-2.01 1.11-3.67 3.15-3.67 1.87 0 3.1 1.46 3.1 3.66"/><path d="M207.18 47.9h-1.36c-1.55 0-2.5.41-2.5 1.6 0 .88.62 1.47 1.6 1.47 1.99 0 2.26-1.32 2.26-2.82Zm.71 2.22c0 .62.06 1.12.1 1.34h-.7c-.06-.17-.1-.48-.13-1.07-.24.52-.85 1.24-2.29 1.24-1.63 0-2.33-1.05-2.33-2.1 0-1.54 1.19-2.24 3.29-2.24h1.32v-.71c0-.7-.21-1.62-1.79-1.62-1.4 0-1.61.73-1.77 1.31h-.73c.08-.78.57-1.97 2.51-1.97 1.6 0 2.51.67 2.51 2.22Z"/><path d="M209.22 44.45h1.3V42.27h.73v2.18h1.66v.68h-1.66v4.53c0 .78.17 1.22.84 1.22.21 0 .5-.01.72-.08v.63c-.24.1-.58.13-.88.13-.91 0-1.41-.45-1.41-1.58V45.13h-1.3Z"/><path d="M213.47 44.45h1.3V42.27h.73v2.18h1.66v.68H215.5v4.53c0 .78.17 1.22.84 1.22.21 0 .5-.01.72-.08v.63c-.24.1-.58.13-.88.13-.91 0-1.41-.45-1.41-1.58V45.13h-1.3Z"/><path d="M222.85 47.9h-1.36c-1.55 0-2.5.41-2.5 1.6 0 .88.62 1.47 1.6 1.47 1.99 0 2.26-1.32 2.26-2.82Zm.71 2.22c0 .62.06 1.12.1 1.34h-.7c-.06-.17-.1-.48-.13-1.07-.24.52-.85 1.24-2.29 1.24-1.63 0-2.33-1.05-2.33-2.1 0-1.54 1.19-2.24 3.29-2.24h1.32v-.71c0-.7-.21-1.62-1.79-1.62-1.4 0-1.61.73-1.76 1.31h-.73c.08-.78.57-1.97 2.51-1.97 1.6 0 2.51.67 2.51 2.22Z"/><path d="M225.99 44.45h.73v7.01h-.73Zm0-3.31h.73v1.37h-.73Z"/><path d="M229.15 46.22c0-.62 0-1.21-.01-1.77h.71c.03.22.04 1.12.03 1.32.31-.71.88-1.49 2.32-1.49 1.25 0 2.35.71 2.35 2.64v4.54h-.73V47.04c0-1.24-.51-2.05-1.72-2.05-1.65 0-2.22 1.37-2.22 2.89v3.58h-.73Z"/><path d="M246.75 46.66h-4.99v4.08h5.47l-.12.72h-6.14v-9.8h6.03v.72h-5.24v3.55h4.99Z"/><path d="M249.48 48.82c.29 1.3 1.16 2.06 2.76 2.06 1.78 0 2.46-.89 2.46-1.94 0-1.1-.49-1.78-2.64-2.31-2.08-.52-2.98-1.2-2.98-2.61 0-1.3.95-2.5 3.05-2.5 2.17 0 3.08 1.32 3.2 2.51h-.81c-.22-1.04-.9-1.79-2.43-1.79-1.4 0-2.17.65-2.17 1.73 0 1.07.64 1.49 2.44 1.93 2.76.69 3.17 1.79 3.17 2.97 0 1.45-1.06 2.7-3.33 2.7-2.45 0-3.36-1.42-3.54-2.75Z"/><path d="M265.43 51.46h-.65c-.06-.12-.08-.62-.1-1.56-.35.67-1.13 1.67-3.16 1.67-2.82 0-4.26-2.14-4.26-4.93 0-2.93 1.54-5.13 4.42-5.13 2.12 0 3.53 1.11 3.83 2.92h-.79c-.41-1.37-1.37-2.2-3.07-2.2-2.44 0-3.55 1.9-3.55 4.36 0 2.23 1.07 4.25 3.45 4.25 2.44 0 3.11-1.59 3.11-3.73v-.11h-3.14v-.72h3.9Z"/><path d="M271.75 47.93c0 1.66.88 2.85 2.21 2.85 1.74 0 2.27-1.16 2.27-2.96 0-1.83-.55-2.85-2.23-2.85-1.6 0-2.25 1.37-2.25 2.96m5.16 3.05c0 2.24-.99 3.43-3.04 3.43-1.84 0-2.59-1.03-2.76-2.09h.74c.25.96 1.04 1.42 2.04 1.42 1.81 0 2.31-1.17 2.31-2.94v-.72c-.38.9-1.06 1.39-2.33 1.39-1.65 0-2.9-1.34-2.9-3.5 0-2.35 1.34-3.67 3-3.67 1.42 0 2.04.67 2.23 1.23.01-.4.03-.89.04-1.06h.68c0 .26-.03 1.36-.03 2.03Z"/><path d="M279.55 47.96c0 1.66.89 2.99 2.36 2.99 1.5 0 2.35-1.24 2.35-2.99 0-1.65-.83-2.99-2.38-2.99-1.58 0-2.34 1.32-2.34 2.99m5.48-.01c0 1.95-1.08 3.69-3.17 3.69-1.9 0-3.08-1.56-3.08-3.67 0-2.01 1.11-3.67 3.15-3.67 1.87 0 3.1 1.46 3.1 3.66"/><path d="M291.01 47.9h-1.36c-1.55 0-2.5.41-2.5 1.6 0 .88.62 1.47 1.6 1.47 1.99 0 2.27-1.32 2.27-2.82Zm.71 2.22c0 .62.06 1.12.1 1.34h-.7c-.05-.17-.1-.48-.12-1.07-.24.52-.85 1.24-2.29 1.24-1.63 0-2.33-1.05-2.33-2.1 0-1.54 1.19-2.24 3.3-2.24H291v-.71c0-.7-.21-1.62-1.79-1.62-1.4 0-1.61.73-1.76 1.31h-.73c.09-.78.57-1.97 2.51-1.97 1.6 0 2.5.67 2.5 2.22Z"/><path d="M294.16 51.46h.73V41.14h-.73Z" fill-rule="evenodd"/><path d="M297.27 49.52c.24.9.88 1.45 1.98 1.45 1.24 0 1.74-.57 1.74-1.34 0-.79-.34-1.18-1.89-1.55-1.82-.44-2.27-.99-2.27-1.91 0-.97.73-1.87 2.33-1.87s2.35.97 2.46 1.97h-.73c-.12-.58-.58-1.31-1.77-1.31-1.21 0-1.55.6-1.55 1.15 0 .64.33.96 1.72 1.29 1.98.48 2.47 1.13 2.47 2.18 0 1.27-1.03 2.07-2.52 2.07-1.61 0-2.51-.85-2.7-2.11Z"/></g></g></svg>