<?xml version="1.0" encoding="UTF-8"?><!DOCTYPE svg PUBLIC "-//W3C//DTD SVG 1.0//EN" "http://www.w3.org/TR/2001/REC-SVG-20010904/DTD/svg10.dtd" []><svg xmlns="http://www.w3.org/2000/svg" xmlns:xlink="http://www.w3.org/1999/xlink" height="36" stroke="#000" stroke-linecap="square" stroke-miterlimit="10" viewBox="0 0 145.52 35.84" width="146"><g><g fill="#fff" stroke="none"><path d="M24.91 23.8c-1.15 4.01-4.02 7.04-9.2 7.04C8.69 30.84 5 25.08 5 17.99 5 11.19 8.63 5 15.76 5c5.29 0 8.39 3.04 9.19 7.25H22.99c-1.1-3.25-3.14-5.4-7.34-5.4-6.03 0-8.55 5.69-8.55 11.1 0 5.37 2.49 11.03 8.69 11.03 3.96 0 5.96-2.13 7.17-5.19Z"/><path d="M30.51 5.36h1.95V28.69H45.55l-.35 1.85H30.51Z"/><path d="M49.65 30.55h1.95V5.36H49.65Z" fill-rule="evenodd"/><path d="M73.48 18.2H61.05V28.69H74.66l-.29 1.86H59.1V5.36h15V7.22H61.05v9.13H73.48Z"/><path d="M79.81 30.55V5.36h2.87c3.78 6.04 12.64 20.02 14.16 22.76h.04c-.21-3.61-.18-7.33-.18-11.44V5.36h1.98V30.55H96.02c-3.6-5.81-12.6-20.39-14.34-23.17h-.04c.18 3.29.14 6.99.14 11.56V30.55Z"/><path d="M111.04 7.22h-8.17V5.36h18.37V7.22h-8.21V30.55h-1.99Z"/><path d="M125.44 23.77c.73 3.33 2.88 5.29 6.86 5.29 4.43 0 6.12-2.28 6.12-4.99 0-2.83-1.22-4.57-6.56-5.93-5.19-1.34-7.41-3.08-7.41-6.71 0-3.33 2.35-6.43 7.59-6.43 5.39 0 7.66 3.39 7.98 6.46h-2.02c-.55-2.67-2.24-4.61-6.06-4.61-3.49 0-5.39 1.68-5.39 4.46 0 2.75 1.59 3.82 6.08 4.97 6.87 1.76 7.89 4.6 7.89 7.64 0 3.73-2.63 6.93-8.29 6.93-6.1 0-8.35-3.66-8.81-7.07Z"/></g></g></svg>