<?xml version="1.0" encoding="UTF-8"?><!DOCTYPE svg PUBLIC "-//W3C//DTD SVG 1.0//EN" "http://www.w3.org/TR/2001/REC-SVG-20010904/DTD/svg10.dtd" []><svg xmlns="http://www.w3.org/2000/svg" xmlns:xlink="http://www.w3.org/1999/xlink" height="65" stroke="#000" stroke-linecap="square" stroke-miterlimit="10" viewBox="0 0 140.28 64.82" width="140"><g><g fill="#fff" stroke="none"><path d="M5.82 11.04c.22 1.02.88 1.63 2.11 1.63 1.36 0 1.89-.7 1.89-1.54 0-.87-.37-1.41-2.01-1.83-1.58-.41-2.26-.93-2.26-2.05 0-1.01.71-1.96 2.31-1.96 1.64 0 2.33 1.03 2.43 1.97h-.6c-.17-.83-.69-1.42-1.86-1.42-1.08 0-1.66.52-1.66 1.38 0 .85.49 1.18 1.86 1.53 2.1.54 2.41 1.41 2.41 2.33 0 1.13-.8 2.11-2.52 2.11-1.86 0-2.54-1.12-2.68-2.16Z"/><path d="M11.19 7.61h.99V5.89h.53V7.61h1.27v.52H12.71V11.7c0 .62.13.97.64.97.16 0 .38-.01.55-.07v.49c-.18.08-.44.1-.66.1-.68 0-1.07-.35-1.07-1.23V8.12h-.99Z"/><path d="M15.08 9.1c0-.93-.01-1.32-.01-1.5h.52c.01.18.02.53.02 1.23.31-.82.99-1.32 1.85-1.36v.6c-1.11.08-1.85.87-1.85 2.18v2.86h-.53Z"/><path d="M22.04 9.94c-.01-1.09-.59-1.95-1.63-1.95-1.1 0-1.6.79-1.71 1.95Zm-3.38.48c.01 1.42.7 2.3 1.72 2.3 1 0 1.34-.58 1.53-1.03h.54c-.22.73-.79 1.55-2.1 1.55-1.62 0-2.25-1.44-2.25-2.84 0-1.57.76-2.93 2.31-2.93 1.64 0 2.16 1.46 2.16 2.5 0 .15 0 .31-.01.45Z"/><path d="M27.14 10.3H26.09c-1.18 0-1.92.32-1.92 1.26 0 .69.48 1.17 1.22 1.17 1.52 0 1.74-1.04 1.74-2.23Zm.52 1.76c0 .48.04.87.08 1.04h-.51c-.04-.13-.07-.37-.1-.85-.18.41-.65.98-1.75.98-1.23 0-1.77-.82-1.77-1.65 0-1.21.91-1.76 2.5-1.76h1.01V9.27c0-.55-.16-1.29-1.37-1.29-1.08 0-1.23.58-1.35 1.03h-.53c.06-.6.43-1.54 1.9-1.54 1.21 0 1.9.53 1.9 1.74Z"/><path d="M29.52 9.03c0-.47 0-.99-.01-1.42h.52c.01.19.03.66.02.98.22-.55.72-1.11 1.6-1.11.75 0 1.33.39 1.54 1.09.27-.57.8-1.09 1.74-1.09.82 0 1.67.49 1.67 2.01v3.62h-.53V9.55c0-.74-.26-1.54-1.25-1.54-1.03 0-1.5.86-1.5 1.93v3.17H32.8V9.57c0-.8-.23-1.55-1.21-1.55-1.03 0-1.53.95-1.53 2.07v3.02h-.53Z"/><path d="M38.46 13.11h.53V5h-.53Z" fill-rule="evenodd"/><path d="M40.84 7.61h.53v5.5h-.53Zm0-2.61h.53V6.07h-.53Z"/><path d="M43.23 8.99c0-.48 0-.95-.01-1.39h.52c.02.18.03.89.02 1.05.23-.56.67-1.18 1.77-1.18.95 0 1.79.55 1.79 2.07v3.56h-.53V9.63c0-.98-.39-1.62-1.32-1.62-1.27 0-1.7 1.09-1.7 2.29v2.8h-.53Z"/><path d="M52.67 9.94c-.01-1.09-.59-1.95-1.63-1.95-1.1 0-1.6.79-1.71 1.95Zm-3.38.48c.01 1.42.7 2.3 1.72 2.3 1 0 1.34-.58 1.53-1.03h.54c-.22.73-.79 1.55-2.1 1.55-1.62 0-2.25-1.44-2.25-2.84 0-1.57.76-2.93 2.31-2.93 1.64 0 2.16 1.46 2.16 2.5 0 .15 0 .31-.01.45Z"/><path d="M61.42 11.49c-.26.97-.87 1.75-2.07 1.75-1.33 0-2.28-1.02-2.28-2.86 0-1.51.78-2.9 2.34-2.9 1.35 0 1.91.99 2 1.76h-.54c-.16-.64-.56-1.24-1.47-1.24-1.13 0-1.77.99-1.77 2.36 0 1.31.59 2.37 1.71 2.37.78 0 1.25-.41 1.52-1.23Z"/><path d="M62.96 10.36c0 1.31.68 2.37 1.81 2.37 1.15 0 1.8-.98 1.8-2.37 0-1.3-.64-2.36-1.82-2.36-1.21 0-1.79 1.04-1.79 2.36m4.18-.01c0 1.53-.82 2.89-2.41 2.89-1.44 0-2.33-1.22-2.33-2.88 0-1.57.84-2.88 2.39-2.88 1.42 0 2.35 1.15 2.35 2.87"/><path d="M68.56 9.03c0-.47 0-.99-.01-1.42h.52c.01.19.03.66.02.98.22-.55.71-1.11 1.6-1.11.74 0 1.33.39 1.54 1.09.27-.57.8-1.09 1.73-1.09.82 0 1.67.49 1.67 2.01v3.62h-.53V9.55c0-.74-.26-1.54-1.25-1.54-1.03 0-1.5.86-1.5 1.93v3.17h-.52V9.57c0-.8-.23-1.55-1.22-1.55-1.03 0-1.53.95-1.53 2.07v3.02h-.53Z"/><path d="M81.47 10.24c0-1.28-.6-2.23-1.65-2.23C78.53 8 78 8.84 78 10.34c0 1.47.42 2.39 1.75 2.39 1.11 0 1.73-.97 1.73-2.49M78.03 12.3v3.01H77.5V8.96c0-.45 0-.94-.01-1.35h.52c.02.21.02.54.02.99.33-.66.92-1.12 1.87-1.12 1.26 0 2.13 1.09 2.13 2.74 0 1.98-1.02 3.02-2.31 3.02-.94 0-1.43-.43-1.69-.94"/><path d="M83.47 13.11h.53V5h-.53Z" fill-rule="evenodd"/><path d="M85.86 7.61h.53v5.5h-.53Zm0-2.61h.53V6.07h-.53Z"/><path d="M92.17 11.49c-.26.97-.87 1.75-2.07 1.75-1.33 0-2.28-1.02-2.28-2.86 0-1.51.78-2.9 2.34-2.9 1.35 0 1.91.99 2 1.76h-.54c-.16-.64-.56-1.24-1.47-1.24-1.13 0-1.77.99-1.77 2.36 0 1.31.6 2.37 1.71 2.37.78 0 1.25-.41 1.52-1.23Z"/><path d="M96.68 10.3H95.64c-1.18 0-1.92.32-1.92 1.26 0 .69.48 1.17 1.23 1.17 1.52 0 1.74-1.04 1.74-2.23Zm.52 1.76c0 .48.04.87.08 1.04h-.51c-.04-.13-.08-.37-.1-.85-.18.41-.65.98-1.75.98-1.23 0-1.77-.82-1.77-1.65 0-1.21.91-1.76 2.5-1.76h1.01V9.27c0-.55-.16-1.29-1.38-1.29-1.08 0-1.23.58-1.35 1.03h-.53c.06-.6.42-1.54 1.9-1.54 1.21 0 1.9.53 1.9 1.74Z"/><path d="M98.22 7.61h.99V5.89h.53V7.61h1.27v.52H99.74V11.7c0 .62.13.97.64.97.16 0 .38-.01.55-.07v.49c-.18.08-.44.1-.66.1-.68 0-1.07-.35-1.07-1.23V8.12h-.99Z"/><path d="M105.63 9.94c-.01-1.09-.59-1.95-1.63-1.95-1.1 0-1.6.79-1.72 1.95Zm-3.38.48c.01 1.42.7 2.3 1.72 2.3 1 0 1.34-.58 1.53-1.03h.54c-.22.73-.79 1.55-2.1 1.55-1.62 0-2.25-1.44-2.25-2.84 0-1.57.76-2.93 2.31-2.93 1.64 0 2.16 1.46 2.16 2.5 0 .15 0 .31-.01.45Z"/><path d="M107.78 10.4c0 1.51.76 2.32 1.67 2.32 1.41 0 1.79-1 1.79-2.5 0-1.42-.33-2.23-1.69-2.23-1.05 0-1.77.87-1.77 2.41M111.76 5v6.52c0 .53 0 1.03.01 1.58h-.51c-.02-.13-.03-.65-.03-.92-.27.67-.86 1.06-1.79 1.06-1.38 0-2.22-1.17-2.22-2.82 0-1.69.91-2.95 2.35-2.95 1.07 0 1.49.47 1.65.82V5Z"/><path d="M121.03 9.32h-3.8v3.23h4.16l-.08.55h-4.65V5.41h4.57v.55h-3.99V8.77h3.8Z"/><path d="M123.09 11.04c.22 1.02.88 1.63 2.11 1.63 1.36 0 1.89-.7 1.89-1.54 0-.87-.37-1.41-2.01-1.83-1.58-.41-2.26-.93-2.26-2.05 0-1.01.71-1.96 2.31-1.96 1.64 0 2.33 1.03 2.43 1.97h-.6c-.17-.83-.69-1.42-1.86-1.42-1.08 0-1.66.52-1.66 1.38 0 .85.49 1.18 1.86 1.53 2.1.54 2.41 1.41 2.41 2.33 0 1.13-.8 2.11-2.52 2.11-1.86 0-2.55-1.12-2.68-2.16Z"/><path d="M135.22 13.11h-.48c-.04-.09-.06-.48-.07-1.23-.27.53-.85 1.32-2.41 1.32-2.14 0-3.24-1.68-3.24-3.87 0-2.3 1.17-4.03 3.35-4.03 1.61 0 2.67.87 2.91 2.29h-.58c-.32-1.09-1.05-1.74-2.35-1.74-1.86 0-2.72 1.5-2.72 3.44 0 1.76.82 3.36 2.64 3.36 1.86 0 2.39-1.25 2.39-2.96V9.6h-2.41V9.05h2.96Z"/><path d="M5.6 22.31c0-.93-.01-1.32-.01-1.5h.52c.01.18.02.53.02 1.23.31-.82.99-1.32 1.85-1.36v.6c-1.11.08-1.85.87-1.85 2.18v2.86H5.6Z"/><path d="M12.56 23.14c-.01-1.09-.59-1.95-1.63-1.95-1.1 0-1.6.79-1.71 1.95Zm-3.38.48c.01 1.42.7 2.3 1.72 2.3 1 0 1.34-.58 1.53-1.03h.54c-.22.73-.79 1.55-2.1 1.55-1.62 0-2.25-1.44-2.25-2.84 0-1.57.76-2.93 2.31-2.93 1.64 0 2.16 1.46 2.16 2.5 0 .15 0 .31-.01.45Z"/><path d="M18.5 23.44c0-1.28-.6-2.23-1.65-2.23-1.29 0-1.82.84-1.82 2.33 0 1.47.41 2.39 1.75 2.39 1.11 0 1.73-.97 1.73-2.49M15.06 25.5v3.01h-.53V22.16c0-.45 0-.93-.01-1.35h.52c.02.21.02.54.02.99.33-.66.92-1.12 1.88-1.12 1.26 0 2.13 1.09 2.13 2.74 0 1.98-1.02 3.02-2.31 3.02-.94 0-1.43-.43-1.69-.94"/><path d="M20.7 23.56c0 1.31.68 2.36 1.81 2.36 1.15 0 1.8-.98 1.8-2.36 0-1.3-.64-2.37-1.82-2.37-1.21 0-1.79 1.04-1.79 2.37m4.17-.01c0 1.53-.82 2.89-2.41 2.89-1.44 0-2.33-1.22-2.33-2.88 0-1.57.84-2.88 2.39-2.88 1.42 0 2.35 1.15 2.35 2.87"/><path d="M26.3 22.31c0-.93-.01-1.32-.01-1.5h.52c.01.18.02.53.02 1.23.31-.82.99-1.32 1.85-1.36v.6c-1.11.08-1.85.87-1.85 2.18v2.86H26.3Z"/><path d="M29.39 20.81h.99V19.09h.53v1.72h1.27v.52H30.92V24.9c0 .62.13.97.64.97.16 0 .38-.01.55-.07v.49c-.18.08-.44.1-.66.1-.68 0-1.07-.35-1.07-1.23V21.33h-.99Z"/><path d="M33.38 20.81h.53v5.5h-.53Zm0-2.61h.53v1.07h-.53Z"/><path d="M35.76 22.19c0-.48 0-.95-.01-1.39h.52c.02.18.03.89.02 1.05.23-.56.67-1.18 1.77-1.18.95 0 1.79.55 1.79 2.07v3.56h-.53V22.83c0-.98-.4-1.62-1.32-1.62-1.27 0-1.71 1.09-1.71 2.29v2.8h-.53Z"/><path d="M41.84 23.54c0 1.31.67 2.26 1.69 2.26 1.33 0 1.74-.91 1.74-2.34 0-1.45-.43-2.26-1.7-2.26-1.23 0-1.73 1.09-1.73 2.34m3.93 2.4c0 1.76-.76 2.68-2.3 2.68-1.39 0-1.96-.8-2.09-1.64h.54c.19.76.8 1.12 1.57 1.12 1.39 0 1.77-.92 1.77-2.32v-.57c-.29.72-.81 1.1-1.78 1.1-1.25 0-2.2-1.04-2.2-2.75 0-1.85 1.02-2.88 2.28-2.88 1.09 0 1.56.53 1.7.97.01-.32.02-.7.03-.84h.5c0 .2-.02 1.07-.02 1.6Z"/><path d="M54.48 23.44c0-1.28-.6-2.23-1.65-2.23-1.29 0-1.82.84-1.82 2.33 0 1.47.42 2.39 1.75 2.39 1.11 0 1.73-.97 1.73-2.49M51.04 25.5v3.01h-.53V22.16c0-.45 0-.93-.01-1.35h.52c.02.21.02.54.02.99.33-.66.92-1.12 1.87-1.12 1.26 0 2.13 1.09 2.13 2.74 0 1.98-1.02 3.02-2.31 3.02-.94 0-1.43-.43-1.69-.94"/><path d="M56.48 22.31c0-.93-.01-1.32-.01-1.5h.52c.01.18.02.53.02 1.23.31-.82.99-1.32 1.85-1.36v.6c-1.11.08-1.85.87-1.85 2.18v2.86h-.53Z"/><path d="M60.09 23.56c0 1.31.68 2.36 1.81 2.36 1.15 0 1.8-.98 1.8-2.36 0-1.3-.64-2.37-1.82-2.37-1.21 0-1.79 1.04-1.79 2.37m4.18-.01c0 1.53-.82 2.89-2.41 2.89-1.44 0-2.33-1.22-2.33-2.88 0-1.57.84-2.88 2.39-2.88 1.42 0 2.35 1.15 2.35 2.87"/><path d="M69.68 24.69c-.26.97-.87 1.75-2.07 1.75-1.33 0-2.28-1.02-2.28-2.86 0-1.51.78-2.9 2.34-2.9 1.35 0 1.91.99 2 1.76h-.54c-.16-.64-.56-1.24-1.47-1.24-1.13 0-1.77.99-1.77 2.37 0 1.31.59 2.36 1.71 2.36.78 0 1.25-.41 1.52-1.23Z"/><path d="M74.57 23.14c-.01-1.09-.59-1.95-1.63-1.95-1.1 0-1.6.79-1.72 1.95Zm-3.38.48c.01 1.42.7 2.3 1.73 2.3 1 0 1.34-.58 1.53-1.03h.54c-.22.73-.79 1.55-2.1 1.55-1.62 0-2.25-1.44-2.25-2.84 0-1.57.76-2.93 2.31-2.93 1.64 0 2.16 1.46 2.16 2.5 0 .15 0 .31-.01.45Z"/><path d="M76.66 24.79c.18.72.67 1.14 1.51 1.14.95 0 1.33-.45 1.33-1.07 0-.63-.26-.93-1.45-1.23-1.37-.34-1.72-.77-1.72-1.5 0-.76.55-1.46 1.76-1.46s1.78.76 1.87 1.54h-.53c-.1-.46-.45-1.03-1.35-1.03-.93 0-1.19.47-1.19.91 0 .51.25.76 1.31 1.02 1.5.37 1.87.88 1.87 1.71 0 1-.79 1.62-1.91 1.62-1.21 0-1.9-.66-2.05-1.65Z"/><path d="M81.62 24.79c.18.72.67 1.14 1.51 1.14.95 0 1.33-.45 1.33-1.07 0-.63-.26-.93-1.45-1.23-1.37-.34-1.71-.77-1.71-1.5 0-.76.55-1.46 1.76-1.46s1.78.76 1.86 1.54h-.53c-.09-.46-.45-1.03-1.35-1.03-.93 0-1.19.47-1.19.91 0 .51.26.76 1.31 1.02 1.5.37 1.88.88 1.88 1.71 0 1-.79 1.62-1.91 1.62-1.21 0-1.9-.66-2.04-1.65Z"/><path d="M89.95 23.14c-.01-1.09-.59-1.95-1.63-1.95-1.1 0-1.6.79-1.72 1.95Zm-3.38.48c.01 1.42.7 2.3 1.73 2.3 1 0 1.34-.58 1.53-1.03h.54c-.23.73-.79 1.55-2.1 1.55-1.62 0-2.25-1.44-2.25-2.84 0-1.57.76-2.93 2.31-2.93 1.64 0 2.16 1.46 2.16 2.5 0 .15 0 .31-.01.45Z"/><path d="M92.04 24.79c.18.72.67 1.14 1.51 1.14.95 0 1.33-.45 1.33-1.07 0-.63-.26-.93-1.45-1.23-1.37-.34-1.72-.77-1.72-1.5 0-.76.55-1.46 1.76-1.46s1.78.76 1.86 1.54h-.53c-.1-.46-.45-1.03-1.35-1.03-.93 0-1.19.47-1.19.91 0 .51.26.76 1.31 1.02 1.5.37 1.88.88 1.88 1.71 0 1-.79 1.62-1.91 1.62-1.22 0-1.9-.66-2.05-1.65Z"/><path d="M7.07 44.31L5 36.61h.6c.5 1.85 1.63 6.11 1.8 7.01h.01c.14-.72 1.36-4.97 1.89-7.01h.64c.49 1.88 1.68 6.4 1.8 7h.01c.23-1.09 1.48-5.16 1.99-7h.59l-2.28 7.7h-.66c-.49-1.82-1.65-6.27-1.78-6.93H9.59c-.19 1-1.34 5.02-1.88 6.93Z"/><path d="M15.45 38.81h.53v5.5h-.53Zm0-2.61h.53v1.07h-.53Z"/><path d="M17.84 40.19c0-.48 0-.95-.01-1.39h.52c.02.18.03.89.02 1.05.23-.56.67-1.18 1.77-1.18.95 0 1.79.55 1.79 2.07v3.56h-.53V40.83c0-.98-.4-1.62-1.32-1.62-1.27 0-1.7 1.09-1.7 2.29v2.8h-.53Z"/><path d="M26.66 40.23c0-.47 0-.99-.01-1.42h.52c.01.19.03.66.02.98.22-.55.71-1.11 1.6-1.11.75 0 1.33.39 1.55 1.09.26-.57.8-1.09 1.73-1.09.82 0 1.67.49 1.67 2.01v3.62h-.53V40.75c0-.74-.26-1.54-1.25-1.54-1.03 0-1.5.86-1.5 1.93v3.17h-.52V40.77c0-.8-.23-1.55-1.22-1.55-1.03 0-1.53.95-1.53 2.07v3.03h-.53Z"/><path d="M35.73 41.56c0 1.31.68 2.36 1.81 2.36 1.15 0 1.8-.98 1.8-2.36 0-1.3-.64-2.37-1.82-2.37-1.21 0-1.79 1.04-1.79 2.37m4.18-.01c0 1.53-.82 2.89-2.41 2.89-1.44 0-2.33-1.22-2.33-2.88 0-1.57.84-2.88 2.39-2.88 1.42 0 2.35 1.15 2.35 2.87"/><path d="M41.33 40.31c0-.93-.01-1.32-.01-1.5h.52c.01.18.02.53.02 1.23.31-.82.99-1.32 1.85-1.36v.6c-1.11.08-1.85.87-1.85 2.18v2.86h-.53Z"/><path d="M48.3 41.14c-.01-1.09-.59-1.95-1.63-1.95-1.1 0-1.6.79-1.71 1.95Zm-3.38.48c.01 1.42.7 2.3 1.72 2.3 1 0 1.34-.58 1.53-1.03h.54c-.22.73-.79 1.55-2.1 1.55-1.62 0-2.25-1.44-2.25-2.84 0-1.57.76-2.93 2.31-2.93 1.64 0 2.16 1.46 2.16 2.5 0 .15 0 .31-.01.45Z"/><path d="M57.11 41.45c0-1.38-.66-2.26-1.67-2.26-1.33 0-1.8.93-1.8 2.38 0 1.3.42 2.36 1.74 2.36 1.08 0 1.74-.92 1.74-2.48M53.14 36.2h.53v3.53c.26-.55.78-1.06 1.82-1.06 1.26 0 2.18 1.07 2.18 2.76 0 1.74-.83 3-2.32 3-.89 0-1.41-.37-1.68-1 0 .35-.01.72-.02.87h-.52c.01-.63.01-1.25.01-1.88Z"/><path d="M63.09 42.7c0 .54.01 1.4.01 1.61h-.51c-.02-.14-.03-.51-.03-.96-.22.65-.77 1.09-1.71 1.09-.77 0-1.75-.31-1.75-1.99V38.81h.52v3.51c0 .8.25 1.58 1.3 1.58 1.19 0 1.64-.69 1.64-2.27V38.81h.53Z"/><path d="M64.88 42.79c.18.71.67 1.14 1.51 1.14.95 0 1.33-.45 1.33-1.07 0-.63-.26-.93-1.45-1.23-1.38-.34-1.71-.77-1.71-1.5 0-.76.55-1.46 1.76-1.46s1.78.76 1.86 1.54h-.53c-.1-.46-.45-1.03-1.35-1.03-.93 0-1.19.47-1.19.91 0 .51.26.76 1.31 1.02 1.5.37 1.87.88 1.87 1.7 0 1-.79 1.62-1.91 1.62-1.21 0-1.9-.66-2.05-1.65Z"/><path d="M69.71 38.81h.53v5.5h-.53Zm0-2.61h.53v1.07h-.53Z"/><path d="M72.1 40.19c0-.48 0-.95-.01-1.39h.52c.02.18.03.89.02 1.05.23-.56.67-1.18 1.77-1.18.95 0 1.79.55 1.79 2.07v3.56h-.53V40.83c0-.98-.39-1.62-1.32-1.62-1.27 0-1.7 1.09-1.7 2.29v2.8H72.1Z"/><path d="M81.54 41.14c-.01-1.09-.59-1.95-1.63-1.95-1.1 0-1.6.79-1.72 1.95Zm-3.38.48c.01 1.42.7 2.3 1.73 2.3 1 0 1.34-.58 1.53-1.03h.54c-.22.73-.79 1.55-2.1 1.55-1.62 0-2.25-1.44-2.25-2.84 0-1.57.76-2.93 2.31-2.93 1.64 0 2.16 1.46 2.16 2.5 0 .15 0 .31-.01.45Z"/><path d="M83.62 42.79c.18.71.67 1.14 1.51 1.14.95 0 1.33-.45 1.33-1.07 0-.63-.26-.93-1.45-1.23-1.37-.34-1.72-.77-1.72-1.5 0-.76.55-1.46 1.76-1.46s1.78.76 1.86 1.54h-.53c-.1-.46-.45-1.03-1.35-1.03-.93 0-1.19.47-1.19.91 0 .51.26.76 1.31 1.02 1.5.37 1.88.88 1.88 1.7 0 1-.79 1.62-1.91 1.62-1.22 0-1.9-.66-2.04-1.65Z"/><path d="M88.59 42.79c.18.71.67 1.14 1.51 1.14.95 0 1.33-.45 1.33-1.07 0-.63-.26-.93-1.45-1.23-1.38-.34-1.71-.77-1.71-1.5 0-.76.55-1.46 1.76-1.46s1.78.76 1.86 1.54h-.53c-.1-.46-.45-1.03-1.35-1.03-.93 0-1.19.47-1.19.91 0 .51.26.76 1.31 1.02 1.5.37 1.87.88 1.87 1.7 0 1-.79 1.62-1.91 1.62-1.21 0-1.9-.66-2.05-1.65Z"/><path d="M96.44 41.6c0 1.51.76 2.32 1.67 2.32 1.41 0 1.79-1 1.79-2.5 0-1.42-.33-2.23-1.69-2.23-1.05 0-1.77.87-1.77 2.41m3.97-5.4v6.52c0 .53 0 1.03.01 1.58h-.51c-.02-.13-.03-.65-.03-.92-.27.67-.86 1.06-1.79 1.06-1.38 0-2.21-1.17-2.21-2.82 0-1.69.91-2.95 2.35-2.95 1.07 0 1.49.47 1.65.82V36.2Z"/><path d="M105.76 41.14c-.01-1.09-.59-1.95-1.63-1.95-1.1 0-1.6.79-1.72 1.95Zm-3.38.48c.01 1.42.7 2.3 1.73 2.3 1 0 1.34-.58 1.53-1.03h.54c-.22.73-.79 1.55-2.1 1.55-1.62 0-2.25-1.44-2.25-2.84 0-1.57.76-2.93 2.31-2.93 1.64 0 2.16 1.46 2.16 2.5 0 .15 0 .31-.01.45Z"/><path d="M110.85 41.5h-1.04c-1.18 0-1.92.32-1.92 1.26 0 .69.48 1.17 1.22 1.17 1.52 0 1.74-1.04 1.74-2.23Zm.52 1.76c0 .48.04.87.08 1.04h-.51c-.04-.13-.08-.37-.1-.85-.18.41-.65.98-1.75.98-1.23 0-1.77-.82-1.77-1.65 0-1.21.91-1.76 2.5-1.76h1.01v-.56c0-.55-.16-1.29-1.38-1.29-1.08 0-1.23.58-1.35 1.03h-.53c.07-.6.43-1.54 1.9-1.54 1.21 0 1.89.53 1.89 1.74Z"/><path d="M113.24 44.31h.53V36.2h-.53Z" fill-rule="evenodd"/><path d="M115.57 42.79c.18.71.67 1.14 1.51 1.14.95 0 1.33-.45 1.33-1.07 0-.63-.26-.93-1.45-1.23-1.38-.34-1.71-.77-1.71-1.5 0-.76.55-1.46 1.76-1.46s1.78.76 1.87 1.54h-.53c-.1-.46-.45-1.03-1.35-1.03-.93 0-1.19.47-1.19.91 0 .51.25.76 1.31 1.02 1.5.37 1.87.88 1.87 1.7 0 1-.79 1.62-1.91 1.62-1.21 0-1.9-.66-2.04-1.65Z"/><path d="M129.51 39.36l-1.85 2.97c-.9 1.44-1.55 2.09-2.75 2.09-1.21 0-1.93-1-1.93-1.96 0-.93.42-1.65 1.99-2.53 1.09-.73 1.49-1.03 1.49-1.74 0-.6-.37-1.19-1.09-1.19-.67 0-1.14.43-1.14 1.23 0 .49.33.96.97 1.58l4.41 4.49h-.8l-4.03-4.1c-.69-.68-1.1-1.19-1.1-1.97 0-.87.56-1.74 1.7-1.74.96 0 1.62.75 1.62 1.69 0 .75-.39 1.23-1.7 2.07-1.5.88-1.76 1.42-1.76 2.16 0 .79.66 1.46 1.35 1.46.86 0 1.44-.31 2.4-1.89l1.59-2.63Z"/><path d="M9.57 54.64c0-1.28-.6-2.23-1.65-2.23-1.29 0-1.82.84-1.82 2.33 0 1.47.42 2.39 1.75 2.39 1.11 0 1.72-.97 1.72-2.49M6.13 56.69v3.01H5.6V53.36c0-.45 0-.94-.01-1.35h.52c.02.21.02.54.02.99.33-.66.92-1.12 1.87-1.12 1.26 0 2.13 1.09 2.13 2.74 0 1.98-1.02 3.03-2.31 3.03-.94 0-1.43-.43-1.69-.95"/><path d="M11.57 53.5c0-.92-.01-1.32-.01-1.5h.52c.01.18.02.53.02 1.23.31-.82.99-1.32 1.85-1.36v.59c-1.11.08-1.85.87-1.85 2.18v2.86h-.53Z"/><path d="M15.18 54.76c0 1.31.68 2.37 1.81 2.37 1.15 0 1.8-.98 1.8-2.37 0-1.3-.64-2.36-1.82-2.36-1.21 0-1.79 1.04-1.79 2.36m4.17-.01c0 1.53-.82 2.89-2.41 2.89-1.44 0-2.33-1.22-2.33-2.88 0-1.57.84-2.88 2.39-2.88 1.42 0 2.35 1.14 2.35 2.87"/><path d="M20.88 49.4h.53v1.07h-.53Zm.53 2.61v5.89c0 1.49-.36 1.93-1.3 1.93-.02 0-.23-.01-.3-.02v-.52c.09.01.18.01.24.01.76 0 .82-.44.82-1.33V52.01Z"/><path d="M26.76 54.34c-.01-1.09-.59-1.95-1.63-1.95-1.1 0-1.6.79-1.71 1.95Zm-3.38.48c.01 1.42.7 2.3 1.73 2.3 1 0 1.34-.58 1.53-1.03h.54c-.22.73-.79 1.55-2.1 1.55-1.62 0-2.25-1.44-2.25-2.84 0-1.57.76-2.93 2.31-2.93 1.64 0 2.16 1.46 2.16 2.5 0 .15 0 .31-.01.45Z"/><path d="M32.69 55.89c-.26.97-.87 1.75-2.07 1.75-1.33 0-2.28-1.02-2.28-2.86 0-1.51.78-2.9 2.34-2.9 1.35 0 1.91.99 2 1.76h-.54c-.16-.64-.56-1.24-1.47-1.24-1.13 0-1.77.99-1.77 2.36 0 1.31.6 2.37 1.71 2.37.78 0 1.25-.41 1.52-1.23Z"/><path d="M33.37 52.01h.99V50.29h.53v1.72h1.27v.52H34.89V56.1c0 .62.13.97.64.97.16 0 .38-.01.55-.07v.48c-.18.08-.44.1-.66.1-.68 0-1.07-.35-1.07-1.23V52.53h-.99Z"/><path d="M39.43 52.01h.99V50.29h.53v1.72h1.27v.52H40.95V56.1c0 .62.13.97.64.97.16 0 .38-.01.55-.07v.48c-.18.08-.44.1-.66.1-.68 0-1.07-.35-1.07-1.23V52.53h-.99Z"/><path d="M46.84 54.34c-.01-1.09-.59-1.95-1.63-1.95-1.1 0-1.6.79-1.72 1.95Zm-3.38.48c.01 1.42.7 2.3 1.72 2.3 1 0 1.34-.58 1.53-1.03h.54c-.22.73-.79 1.55-2.1 1.55-1.62 0-2.25-1.44-2.25-2.84 0-1.57.76-2.93 2.31-2.93 1.64 0 2.16 1.46 2.16 2.5 0 .15 0 .31-.01.45Z"/><path d="M48.8 53.39c0-.48 0-.94-.01-1.39h.52c.02.18.03.89.02 1.05.23-.56.67-1.18 1.77-1.18.95 0 1.79.55 1.79 2.07v3.56h-.53V54.03c0-.98-.4-1.62-1.32-1.62-1.27 0-1.7 1.09-1.7 2.29v2.81H48.8Z"/><path d="M54.88 54.8c0 1.51.76 2.32 1.67 2.32 1.4 0 1.79-1 1.79-2.5 0-1.42-.33-2.23-1.69-2.23-1.05 0-1.77.87-1.77 2.41m3.97-5.4v6.52c0 .53 0 1.03.01 1.58h-.51c-.02-.13-.03-.65-.03-.92-.27.67-.86 1.06-1.79 1.06-1.38 0-2.21-1.17-2.21-2.82 0-1.69.9-2.95 2.35-2.95 1.06 0 1.49.47 1.65.82V49.4Z"/><path d="M64.2 54.34c-.01-1.09-.59-1.95-1.63-1.95-1.1 0-1.6.79-1.71 1.95Zm-3.38.48c.01 1.42.7 2.3 1.72 2.3 1 0 1.34-.58 1.53-1.03h.54c-.22.73-.79 1.55-2.1 1.55-1.62 0-2.25-1.44-2.25-2.84 0-1.57.76-2.93 2.31-2.93 1.64 0 2.16 1.46 2.16 2.5 0 .15 0 .31-.01.45Z"/><path d="M66.17 53.5c0-.92-.01-1.32-.01-1.5h.52c.01.18.02.53.02 1.23.31-.82.99-1.32 1.85-1.36v.59c-1.11.08-1.85.87-1.85 2.18v2.86h-.53Z"/><path d="M69.77 55.99c.18.72.67 1.15 1.51 1.15.95 0 1.33-.45 1.33-1.07 0-.63-.26-.94-1.45-1.23-1.37-.34-1.71-.77-1.71-1.5 0-.76.55-1.46 1.76-1.46s1.78.76 1.86 1.54h-.53c-.09-.46-.45-1.03-1.35-1.03-.93 0-1.19.47-1.19.91 0 .51.25.76 1.31 1.02 1.5.37 1.88.88 1.88 1.7 0 1-.79 1.62-1.91 1.62-1.22 0-1.9-.66-2.05-1.65Z"/></g></g></svg>