<?xml version="1.0" encoding="UTF-8"?><!DOCTYPE svg PUBLIC "-//W3C//DTD SVG 1.0//EN" "http://www.w3.org/TR/2001/REC-SVG-20010904/DTD/svg10.dtd" []><svg xmlns="http://www.w3.org/2000/svg" xmlns:xlink="http://www.w3.org/1999/xlink" height="59" stroke="#000" stroke-linecap="square" stroke-miterlimit="10" viewBox="0 0 267.79 58.61" width="268"><g><g fill="#fff" stroke="none"><path d="M55.91 5.7H52.72V5h7.13v.7h-3.2v9.1h-.75Z"/><path d="M59.89 11.3c0 1.67.87 3.01 2.31 3.01 1.46 0 2.29-1.25 2.29-3.01 0-1.65-.82-3.01-2.32-3.01-1.55 0-2.28 1.33-2.28 3.01m5.32-.01c0 1.95-1.04 3.68-3.07 3.68-1.83 0-2.97-1.55-2.97-3.67 0-2 1.07-3.67 3.04-3.67 1.81 0 3 1.46 3 3.66"/><path d="M86.16 10.77c-.01-1.39-.75-2.48-2.07-2.48-1.4 0-2.04 1.01-2.18 2.48Zm-4.3.62c.01 1.81.9 2.93 2.2 2.93 1.28 0 1.71-.74 1.95-1.32h.69c-.29.92-1 1.97-2.67 1.97-2.06 0-2.86-1.84-2.86-3.61 0-2 .96-3.73 2.94-3.73 2.09 0 2.75 1.86 2.75 3.18 0 .2 0 .39-.01.57Z"/><path d="M88.65 9.57c0-.62 0-1.2-.01-1.77h.67c.03.22.04 1.13.03 1.33.3-.71.85-1.5 2.25-1.5 1.21 0 2.28.7 2.28 2.63V14.8h-.68V10.38c0-1.25-.5-2.06-1.68-2.06-1.62 0-2.17 1.39-2.17 2.91V14.8h-.68Z"/><path d="M96.17 12.87c.23.91.85 1.46 1.93 1.46 1.21 0 1.69-.57 1.69-1.36 0-.8-.32-1.19-1.85-1.57-1.75-.43-2.18-.98-2.18-1.9 0-.97.71-1.86 2.24-1.86s2.26.97 2.37 1.96H99.7c-.12-.59-.57-1.32-1.72-1.32-1.18 0-1.52.6-1.52 1.16 0 .64.33.97 1.67 1.3 1.91.48 2.39 1.12 2.39 2.17 0 1.27-1 2.06-2.43 2.06-1.55 0-2.41-.84-2.6-2.1Z"/><path d="M107.24 12.76c0 .69.01 1.78.01 2.04h-.65c-.03-.18-.04-.65-.04-1.22-.28.83-.98 1.39-2.18 1.39-.98 0-2.23-.39-2.23-2.54V7.8h.67v4.47c0 1.02.31 2.02 1.65 2.02 1.52 0 2.09-.88 2.09-2.88V7.8h.68Z"/><path d="M109.6 9.71c0-1.18-.01-1.68-.01-1.9h.66c.01.22.03.67.03 1.57.39-1.05 1.26-1.68 2.36-1.74v.76c-1.41.1-2.36 1.11-2.36 2.77V14.8h-.68Z"/><path d="M118.47 10.77c-.01-1.39-.75-2.48-2.08-2.48-1.4 0-2.03 1.01-2.18 2.48Zm-4.3.62c.01 1.81.9 2.93 2.2 2.93 1.28 0 1.71-.74 1.96-1.32h.69c-.29.92-1 1.97-2.67 1.97-2.06 0-2.86-1.84-2.86-3.61 0-2 .96-3.73 2.94-3.73 2.09 0 2.75 1.86 2.75 3.18 0 .2 0 .39-.01.57Z"/><path d="M140.09 10.77c-.01-1.39-.75-2.48-2.08-2.48-1.4 0-2.03 1.01-2.18 2.48Zm-4.3.62c.01 1.81.9 2.93 2.2 2.93 1.28 0 1.71-.74 1.95-1.32h.69c-.29.92-1 1.97-2.67 1.97-2.06 0-2.86-1.84-2.86-3.61 0-2 .96-3.73 2.94-3.73 2.09 0 2.75 1.86 2.75 3.18 0 .2 0 .39-.01.57Z"/><path d="M142.61 7.8c1.1 3.21 1.86 5.39 2.12 6.29h.01c.15-.52.91-2.6 2.22-6.29h.72l-2.56 7h-.82l-2.41-7Z"/><path d="M153.59 10.77c-.01-1.39-.75-2.48-2.07-2.48-1.4 0-2.03 1.01-2.18 2.48Zm-4.3.62c.01 1.81.9 2.93 2.2 2.93 1.28 0 1.71-.74 1.96-1.32h.69c-.28.92-1 1.97-2.67 1.97-2.06 0-2.86-1.84-2.86-3.61 0-2 .96-3.73 2.94-3.73 2.09 0 2.75 1.86 2.75 3.18 0 .2 0 .39-.01.57Z"/><path d="M156.08 9.71c0-1.18-.01-1.68-.01-1.9h.67c.01.22.03.67.03 1.57.39-1.05 1.26-1.68 2.36-1.74v.76c-1.41.1-2.36 1.11-2.36 2.77V14.8h-.68Z"/><path d="M160.86 7.8c1.37 4.01 1.97 5.66 2.2 6.42h.01c.27-.85.81-2.48 2.13-6.42h.7l-2.55 7.41c-.72 2.07-1.21 2.53-2.43 2.53-.24 0-.41-.01-.62-.04V17c.2.03.39.04.61.04.98 0 1.29-.49 1.79-1.93L160.11 7.8Z"/><path d="M186.47 10.77c-.01-1.39-.75-2.48-2.07-2.48-1.4 0-2.03 1.01-2.19 2.48Zm-4.3.62c.01 1.81.9 2.93 2.2 2.93 1.28 0 1.71-.74 1.95-1.32h.69c-.29.92-1 1.97-2.67 1.97-2.06 0-2.86-1.84-2.86-3.61 0-2 .96-3.73 2.94-3.73 2.09 0 2.75 1.86 2.75 3.18 0 .2 0 .39-.01.57Z"/><path d="M188.99 7.8c1.1 3.21 1.86 5.39 2.11 6.29h.01c.15-.52.91-2.6 2.22-6.29h.72l-2.56 7h-.81l-2.42-7Z"/><path d="M199.97 10.77c-.01-1.39-.75-2.48-2.07-2.48-1.4 0-2.04 1.01-2.18 2.48Zm-4.3.62c.01 1.81.89 2.93 2.2 2.93 1.28 0 1.71-.74 1.95-1.32h.69c-.28.92-1 1.97-2.67 1.97-2.06 0-2.86-1.84-2.86-3.61 0-2 .96-3.73 2.94-3.73 2.09 0 2.75 1.86 2.75 3.18 0 .2 0 .39-.01.57Z"/><path d="M202.46 9.57c0-.62 0-1.2-.01-1.77h.66c.03.22.04 1.13.03 1.33.3-.71.85-1.5 2.25-1.5 1.21 0 2.28.7 2.28 2.63V14.8h-.68V10.38c0-1.25-.5-2.06-1.68-2.06-1.61 0-2.17 1.39-2.17 2.91V14.8h-.68Z"/><path d="M208.97 7.8h1.26V5.62h.68V7.8h1.62v.66h-1.62v4.55c0 .79.17 1.23.82 1.23.2 0 .49-.01.7-.09v.62c-.23.1-.56.13-.84.13-.87 0-1.36-.45-1.36-1.57V8.46h-1.26Z"/><path d="M228.73 9.61c0-.6 0-1.26-.01-1.81h.67c.01.24.04.84.03 1.25.29-.7.91-1.41 2.04-1.41.95 0 1.7.49 1.97 1.39.34-.73 1.02-1.39 2.21-1.39 1.05 0 2.13.62 2.13 2.56V14.8h-.68V10.28c0-.94-.32-1.96-1.59-1.96-1.32 0-1.91 1.09-1.91 2.45V14.8h-.67V10.3c0-1.02-.3-1.98-1.55-1.98-1.32 0-1.95 1.21-1.95 2.63V14.8h-.68Z"/><path d="M244.55 10.77c-.01-1.39-.75-2.48-2.08-2.48-1.4 0-2.03 1.01-2.18 2.48Zm-4.3.62c.01 1.81.9 2.93 2.2 2.93 1.28 0 1.71-.74 1.96-1.32h.69c-.29.92-1 1.97-2.67 1.97-2.06 0-2.86-1.84-2.86-3.61 0-2 .96-3.73 2.94-3.73 2.09 0 2.75 1.86 2.75 3.18 0 .2 0 .39-.01.57Z"/><path d="M251.56 10.77c-.01-1.39-.75-2.48-2.08-2.48-1.4 0-2.03 1.01-2.18 2.48Zm-4.3.62c.01 1.81.9 2.93 2.2 2.93 1.27 0 1.71-.74 1.95-1.32h.69c-.29.92-1 1.97-2.67 1.97-2.06 0-2.86-1.84-2.86-3.61 0-2 .96-3.73 2.94-3.73 2.09 0 2.75 1.86 2.75 3.18 0 .2 0 .39-.01.57Z"/><path d="M253.14 7.8h1.26V5.62h.68V7.8h1.62v.66h-1.62v4.55c0 .79.16 1.23.82 1.23.2 0 .49-.01.71-.09v.62c-.23.1-.56.13-.84.13-.87 0-1.36-.45-1.36-1.57V8.46h-1.26Z"/><path d="M258.44 12.87c.23.91.86 1.46 1.93 1.46 1.21 0 1.7-.57 1.7-1.36 0-.8-.33-1.19-1.85-1.57-1.75-.43-2.18-.98-2.18-1.9 0-.97.7-1.86 2.24-1.86s2.27.97 2.37 1.96h-.68c-.12-.59-.57-1.32-1.72-1.32-1.18 0-1.52.6-1.52 1.16 0 .64.33.97 1.67 1.3 1.91.48 2.39 1.12 2.39 2.17 0 1.27-1 2.06-2.43 2.06-1.55 0-2.42-.84-2.6-2.1Z"/><path d="M5.54 27.61c0-.6 0-1.26-.01-1.81h.67c.01.24.04.84.03 1.25.29-.7.91-1.41 2.03-1.41.95 0 1.7.49 1.97 1.39.34-.73 1.02-1.39 2.21-1.39 1.04 0 2.13.62 2.13 2.56V32.8h-.68V28.28c0-.94-.33-1.96-1.59-1.96-1.32 0-1.91 1.09-1.91 2.45V32.8H9.72V28.3c0-1.02-.3-1.98-1.55-1.98-1.32 0-1.95 1.21-1.95 2.63V32.8H5.54Z"/><path d="M21.37 28.77c-.01-1.39-.75-2.48-2.07-2.48-1.4 0-2.04 1.01-2.18 2.48Zm-4.3.62c.01 1.81.89 2.93 2.2 2.93 1.28 0 1.71-.74 1.95-1.32h.69c-.28.92-1 1.97-2.67 1.97-2.06 0-2.86-1.84-2.86-3.61 0-2 .96-3.73 2.94-3.73 2.09 0 2.75 1.86 2.75 3.18 0 .2 0 .39-.01.57Z"/><path d="M27.85 29.23H26.52c-1.51 0-2.44.41-2.44 1.61 0 .88.61 1.49 1.56 1.49 1.94 0 2.21-1.33 2.21-2.84Zm.66 2.24c0 .62.06 1.11.1 1.33h-.65c-.05-.17-.09-.48-.12-1.08-.23.52-.83 1.25-2.22 1.25-1.58 0-2.25-1.05-2.25-2.1 0-1.54 1.15-2.24 3.19-2.24h1.29v-.71c0-.7-.2-1.64-1.75-1.64-1.37 0-1.57.74-1.72 1.32h-.68c.08-.77.54-1.96 2.41-1.96 1.55 0 2.41.67 2.41 2.21Z"/><path d="M30.81 30.87c.23.91.85 1.46 1.93 1.46 1.21 0 1.7-.57 1.7-1.36 0-.8-.32-1.19-1.85-1.57-1.75-.43-2.18-.98-2.18-1.9 0-.97.71-1.86 2.24-1.86s2.26.97 2.37 1.96h-.68c-.12-.59-.57-1.32-1.72-1.32-1.18 0-1.52.6-1.52 1.16 0 .64.32.97 1.67 1.3 1.91.48 2.39 1.12 2.39 2.17 0 1.27-1 2.06-2.43 2.06-1.55 0-2.41-.84-2.6-2.1Z"/><path d="M41.88 30.76c0 .69.01 1.78.01 2.04h-.65c-.03-.18-.04-.65-.04-1.22-.28.83-.98 1.39-2.18 1.39-.98 0-2.23-.39-2.23-2.54V25.8h.67v4.47c0 1.02.31 2.02 1.65 2.02 1.52 0 2.09-.88 2.09-2.88V25.8h.68Z"/><path d="M44.24 27.71c0-1.18-.01-1.68-.01-1.9h.67c.01.22.03.67.03 1.57.39-1.05 1.26-1.68 2.36-1.74v.76c-1.41.1-2.36 1.11-2.36 2.77V32.8h-.68Z"/><path d="M52.52 29.23H51.19c-1.51 0-2.44.41-2.44 1.61 0 .88.61 1.49 1.56 1.49 1.94 0 2.21-1.33 2.21-2.84Zm.67 2.24c0 .62.05 1.11.1 1.33h-.65c-.05-.17-.09-.48-.12-1.08-.23.52-.83 1.25-2.22 1.25-1.57 0-2.25-1.05-2.25-2.1 0-1.54 1.15-2.24 3.19-2.24h1.29v-.71c0-.7-.2-1.64-1.75-1.64-1.37 0-1.57.74-1.72 1.32h-.68c.08-.77.54-1.96 2.41-1.96 1.55 0 2.42.67 2.42 2.21Z"/><path d="M60.62 29.16c0-1.75-.84-2.87-2.13-2.87-1.7 0-2.29 1.19-2.29 3.03 0 1.65.53 3 2.21 3 1.37 0 2.21-1.18 2.21-3.15m-5.06-6.68h.68v4.5c.33-.7.99-1.34 2.32-1.34 1.6 0 2.78 1.36 2.78 3.52 0 2.21-1.06 3.82-2.96 3.82-1.14 0-1.79-.48-2.14-1.27 0 .45-.01.91-.03 1.11h-.67c.01-.8.01-1.6.01-2.4Z"/><path d="M63.15 32.8h.68V22.48h-.68Z" fill-rule="evenodd"/><path d="M70.63 28.77c-.01-1.39-.75-2.48-2.07-2.48-1.4 0-2.04 1.01-2.19 2.48Zm-4.3.62c.01 1.81.9 2.93 2.2 2.93 1.28 0 1.71-.74 1.95-1.32h.69c-.28.92-1 1.97-2.67 1.97-2.06 0-2.86-1.84-2.86-3.61 0-2 .96-3.73 2.94-3.73 2.09 0 2.75 1.86 2.75 3.18 0 .2 0 .39-.01.57Z"/><path d="M88.42 27.99H83.58V32.1h5.3l-.11.7H82.85V23h5.82v.7H83.58v3.59h4.84Z"/><path d="M91.03 30.17c.28 1.3 1.12 2.07 2.69 2.07 1.74 0 2.4-.9 2.4-1.96 0-1.11-.48-1.79-2.56-2.32-2.01-.52-2.88-1.19-2.88-2.6 0-1.29.91-2.49 2.94-2.49 2.09 0 2.97 1.32 3.09 2.51h-.76c-.22-1.05-.88-1.81-2.37-1.81-1.37 0-2.12.66-2.12 1.75 0 1.08.62 1.5 2.37 1.95 2.67.69 3.07 1.79 3.07 2.97 0 1.44-1.02 2.69-3.22 2.69-2.37 0-3.24-1.43-3.42-2.74Z"/><path d="M106.48 32.8h-.61c-.05-.11-.08-.62-.1-1.57-.34.67-1.09 1.68-3.07 1.68-2.73 0-4.12-2.14-4.12-4.93 0-2.93 1.49-5.13 4.27-5.13 2.05 0 3.4 1.11 3.7 2.91h-.73c-.41-1.39-1.34-2.21-3-2.21-2.38 0-3.46 1.9-3.46 4.38 0 2.24 1.04 4.27 3.36 4.27 2.38 0 3.04-1.6 3.04-3.77v-.11h-3.07v-.7h3.77Z"/><path d="M118.42 29.3c0 1.67.87 3.01 2.31 3.01 1.46 0 2.29-1.25 2.29-3.01 0-1.65-.81-3.01-2.32-3.01-1.55 0-2.28 1.33-2.28 3.01m5.32-.01c0 1.95-1.04 3.68-3.07 3.68-1.83 0-2.97-1.55-2.97-3.67 0-2 1.07-3.67 3.04-3.67 1.8 0 3 1.46 3 3.66"/><path d="M130.61 29.16c0-1.75-.84-2.87-2.13-2.87-1.7 0-2.29 1.19-2.29 3.03 0 1.65.53 3 2.21 3 1.37 0 2.21-1.18 2.21-3.15m-5.06-6.68h.68v4.5c.32-.7.99-1.34 2.32-1.34 1.6 0 2.78 1.36 2.78 3.52 0 2.21-1.06 3.82-2.96 3.82-1.14 0-1.79-.48-2.14-1.27 0 .45-.01.91-.03 1.11h-.67c.01-.8.01-1.6.01-2.4Z"/><path d="M133.26 22.48h.68v1.36h-.68Zm.68 3.32v7.49c0 1.89-.46 2.45-1.65 2.45-.03 0-.3-.01-.38-.03v-.66c.11.01.23.01.31.01.96 0 1.04-.56 1.04-1.69V25.8Z"/><path d="M140.75 28.77c-.01-1.39-.75-2.48-2.08-2.48-1.4 0-2.03 1.01-2.18 2.48Zm-4.3.62c.01 1.81.9 2.93 2.2 2.93 1.28 0 1.71-.74 1.96-1.32h.69c-.29.92-1 1.97-2.67 1.97-2.06 0-2.86-1.84-2.86-3.61 0-2 .96-3.73 2.94-3.73 2.09 0 2.75 1.86 2.75 3.18 0 .2 0 .39-.01.57Z"/><path d="M148.3 30.75c-.32 1.23-1.11 2.23-2.63 2.23-1.7 0-2.9-1.3-2.9-3.64 0-1.92.99-3.7 2.98-3.7 1.72 0 2.43 1.26 2.55 2.24h-.69c-.2-.81-.72-1.58-1.87-1.58-1.44 0-2.25 1.26-2.25 3.01 0 1.67.76 3.01 2.18 3.01.99 0 1.59-.52 1.94-1.57Z"/><path d="M149.15 25.8h1.26V23.62h.68V25.8h1.62v.66h-1.62v4.55c0 .79.16 1.23.82 1.23.2 0 .49-.01.71-.09v.62c-.23.1-.56.13-.84.13-.87 0-1.36-.45-1.36-1.57V26.46h-1.26Z"/><path d="M154.22 25.8h.68v7h-.68Zm0-3.32h.68v1.36h-.68Z"/><path d="M157.15 25.8c1.1 3.21 1.86 5.39 2.12 6.29h.01c.15-.52.91-2.6 2.23-6.29h.72l-2.56 7h-.81l-2.41-7Z"/><path d="M168.13 28.77c-.01-1.39-.75-2.48-2.08-2.48-1.4 0-2.03 1.01-2.18 2.48Zm-4.3.62c.01 1.81.9 2.93 2.2 2.93 1.28 0 1.71-.74 1.95-1.32h.69c-.29.92-1 1.97-2.67 1.97-2.06 0-2.86-1.84-2.86-3.61 0-2 .96-3.73 2.94-3.73 2.09 0 2.75 1.86 2.75 3.18 0 .2 0 .39-.01.57Z"/><path d="M170.79 30.87c.23.91.85 1.46 1.93 1.46 1.21 0 1.7-.57 1.7-1.36 0-.8-.33-1.19-1.85-1.57-1.75-.43-2.18-.98-2.18-1.9 0-.97.7-1.86 2.24-1.86s2.27.97 2.37 1.96h-.68c-.12-.59-.57-1.32-1.72-1.32-1.18 0-1.52.6-1.52 1.16 0 .64.33.97 1.67 1.3 1.91.48 2.39 1.12 2.39 2.17 0 1.27-1 2.06-2.43 2.06-1.55 0-2.41-.84-2.6-2.1Z"/><path d="M190.43 29.23H189.1c-1.51 0-2.44.41-2.44 1.61 0 .88.61 1.49 1.56 1.49 1.94 0 2.21-1.33 2.21-2.84Zm.66 2.24c0 .62.05 1.11.1 1.33h-.65c-.05-.17-.09-.48-.12-1.08-.23.52-.83 1.25-2.22 1.25-1.57 0-2.25-1.05-2.25-2.1 0-1.54 1.15-2.24 3.19-2.24h1.29v-.71c0-.7-.2-1.64-1.75-1.64-1.37 0-1.57.74-1.72 1.32h-.68c.08-.77.54-1.96 2.42-1.96 1.55 0 2.41.67 2.41 2.21Z"/><path d="M193.47 27.57c0-.62 0-1.2-.01-1.77h.67c.03.22.04 1.13.03 1.33.3-.71.85-1.5 2.25-1.5 1.21 0 2.28.7 2.28 2.63V32.8H198V28.38c0-1.25-.5-2.06-1.68-2.06-1.62 0-2.17 1.39-2.17 2.91V32.8h-.68Z"/><path d="M201.21 29.36c0 1.92.96 2.96 2.13 2.96 1.79 0 2.28-1.27 2.28-3.18 0-1.81-.42-2.84-2.16-2.84-1.34 0-2.25 1.11-2.25 3.07m5.06-6.88v8.31c0 .67 0 1.32.01 2.02h-.65c-.03-.17-.04-.83-.04-1.18-.34.85-1.1 1.34-2.28 1.34-1.76 0-2.82-1.48-2.82-3.59 0-2.16 1.15-3.75 3-3.75 1.36 0 1.9.6 2.1 1.05v-4.2Z"/><path d="M218.13 27.71c0-1.18-.01-1.68-.01-1.9h.67c.01.22.03.67.03 1.57.39-1.05 1.26-1.68 2.36-1.74v.76c-1.41.1-2.36 1.11-2.36 2.77V32.8h-.68Z"/><path d="M226.99 28.77c-.01-1.39-.75-2.48-2.07-2.48-1.4 0-2.04 1.01-2.19 2.48Zm-4.3.62c.01 1.81.89 2.93 2.2 2.93 1.28 0 1.71-.74 1.95-1.32h.69c-.28.92-1 1.97-2.67 1.97-2.06 0-2.86-1.84-2.86-3.61 0-2 .96-3.73 2.94-3.73 2.09 0 2.75 1.86 2.75 3.18 0 .2 0 .39-.01.57Z"/><path d="M229.73 29.36c0 1.92.96 2.96 2.13 2.96 1.79 0 2.28-1.27 2.28-3.18 0-1.81-.42-2.84-2.16-2.84-1.34 0-2.25 1.11-2.25 3.07m5.06-6.88v8.31c0 .67 0 1.32.01 2.02h-.65c-.03-.17-.04-.83-.04-1.18-.34.85-1.1 1.34-2.28 1.34-1.76 0-2.82-1.48-2.82-3.59 0-2.16 1.15-3.75 3-3.75 1.36 0 1.9.6 2.1 1.05v-4.2Z"/><path d="M242.22 30.76c0 .69.01 1.78.01 2.04h-.65c-.03-.18-.04-.65-.04-1.22-.28.83-.98 1.39-2.18 1.39-.98 0-2.23-.39-2.23-2.54V25.8h.66v4.47c0 1.02.31 2.02 1.65 2.02 1.52 0 2.09-.88 2.09-2.88V25.8h.68Z"/><path d="M249.57 30.75c-.33 1.23-1.11 2.23-2.63 2.23-1.7 0-2.9-1.3-2.9-3.64 0-1.92.99-3.7 2.98-3.7 1.72 0 2.43 1.26 2.55 2.24h-.69c-.21-.81-.72-1.58-1.87-1.58-1.44 0-2.25 1.26-2.25 3.01 0 1.67.76 3.01 2.18 3.01.99 0 1.59-.52 1.94-1.57Z"/><path d="M255.79 28.77c-.01-1.39-.75-2.48-2.08-2.48-1.4 0-2.04 1.01-2.18 2.48Zm-4.3.62c.01 1.81.9 2.93 2.2 2.93 1.28 0 1.71-.74 1.95-1.32h.69c-.29.92-1 1.97-2.67 1.97-2.06 0-2.86-1.84-2.86-3.61 0-2 .96-3.73 2.94-3.73 2.09 0 2.75 1.86 2.75 3.18 0 .2 0 .39-.01.57Z"/><path d="M258.45 30.87c.23.91.85 1.46 1.93 1.46 1.21 0 1.69-.57 1.69-1.36 0-.8-.32-1.19-1.85-1.57-1.75-.43-2.18-.98-2.18-1.9 0-.97.7-1.86 2.24-1.86s2.26.97 2.37 1.96h-.68c-.12-.59-.57-1.32-1.72-1.32-1.18 0-1.52.6-1.52 1.16 0 .64.32.97 1.67 1.3 1.91.48 2.39 1.12 2.39 2.17 0 1.27-1 2.06-2.43 2.06-1.55 0-2.41-.84-2.6-2.1Z"/><path d="M9.99 46.77c-.01-1.39-.75-2.48-2.07-2.48-1.4 0-2.03 1.01-2.18 2.48Zm-4.3.62c.01 1.81.9 2.93 2.2 2.93 1.28 0 1.71-.74 1.95-1.32h.69c-.28.92-1 1.97-2.67 1.97C5.8 50.97 5 49.14 5 47.36c0-2 .96-3.73 2.94-3.73 2.09 0 2.75 1.86 2.75 3.18 0 .2 0 .39-.01.57Z"/><path d="M12.48 45.57c0-.62 0-1.21-.01-1.77h.67c.03.22.04 1.13.03 1.33.3-.71.85-1.5 2.25-1.5 1.21 0 2.28.7 2.28 2.63V50.8h-.68V46.38c0-1.25-.5-2.06-1.68-2.06-1.62 0-2.17 1.39-2.17 2.91V50.8h-.68Z"/><path d="M19.74 43.8c1.1 3.21 1.86 5.39 2.12 6.29h.01c.15-.52.91-2.61 2.22-6.29h.72l-2.56 7h-.81l-2.42-7Z"/><path d="M26.31 43.8h.68v7h-.68Zm0-3.32h.68v1.36h-.68Z"/><path d="M29.35 45.71c0-1.18-.01-1.68-.01-1.9H30c.01.22.03.67.03 1.57.39-1.05 1.26-1.68 2.36-1.74v.76c-1.41.1-2.36 1.11-2.36 2.77V50.8h-.68Z"/><path d="M33.95 47.3c0 1.67.87 3.01 2.31 3.01 1.46 0 2.29-1.25 2.29-3.01 0-1.65-.82-3.01-2.32-3.01-1.55 0-2.28 1.33-2.28 3.01m5.32-.01c0 1.95-1.04 3.68-3.06 3.68-1.83 0-2.97-1.56-2.97-3.67 0-2 1.07-3.67 3.04-3.67 1.81 0 3 1.46 3 3.66"/><path d="M41.08 45.57c0-.62 0-1.21-.01-1.77h.66c.03.22.04 1.13.03 1.33.3-.71.85-1.5 2.25-1.5 1.21 0 2.28.7 2.28 2.63V50.8h-.68V46.38c0-1.25-.5-2.06-1.68-2.06-1.61 0-2.17 1.39-2.17 2.91V50.8h-.68Z"/><path d="M48.64 45.61c0-.6 0-1.26-.01-1.81h.66c.01.24.04.84.03 1.25.29-.7.91-1.42 2.04-1.42.95 0 1.69.49 1.97 1.39.34-.73 1.02-1.39 2.21-1.39 1.04 0 2.13.62 2.13 2.56V50.8h-.68V46.28c0-.94-.32-1.96-1.59-1.96-1.32 0-1.91 1.09-1.91 2.45V50.8h-.66V46.3c0-1.02-.3-1.98-1.55-1.98-1.32 0-1.95 1.21-1.95 2.63V50.8h-.68Z"/><path d="M64.47 46.77c-.01-1.39-.75-2.48-2.08-2.48-1.4 0-2.03 1.01-2.18 2.48Zm-4.3.62c.01 1.81.9 2.93 2.2 2.93 1.28 0 1.71-.74 1.96-1.32h.69c-.29.92-1 1.97-2.67 1.97-2.06 0-2.86-1.83-2.86-3.61 0-2 .96-3.73 2.94-3.73 2.09 0 2.75 1.86 2.75 3.18 0 .2 0 .39-.01.57Z"/><path d="M66.96 45.57c0-.62 0-1.21-.01-1.77h.66c.03.22.04 1.13.03 1.33.3-.71.85-1.5 2.25-1.5 1.21 0 2.28.7 2.28 2.63V50.8h-.68V46.38c0-1.25-.5-2.06-1.68-2.06-1.61 0-2.17 1.39-2.17 2.91V50.8h-.68Z"/><path d="M73.46 43.8h1.26V41.62h.68V43.8h1.61v.66H75.4v4.55c0 .78.16 1.23.81 1.23.2 0 .49-.01.71-.08v.62c-.23.1-.56.13-.84.13-.87 0-1.36-.45-1.36-1.57V44.46H73.46Z"/><path d="M82.52 47.23H81.19c-1.51 0-2.44.41-2.44 1.61 0 .88.61 1.49 1.56 1.49 1.94 0 2.21-1.33 2.21-2.84Zm.67 2.24c0 .62.05 1.11.1 1.33h-.65c-.05-.17-.09-.47-.12-1.08-.23.52-.83 1.25-2.22 1.25-1.57 0-2.25-1.05-2.25-2.1 0-1.54 1.15-2.24 3.19-2.24h1.29v-.71c0-.7-.2-1.64-1.75-1.64-1.37 0-1.57.74-1.72 1.32h-.68c.08-.77.54-1.96 2.41-1.96 1.55 0 2.42.67 2.42 2.21Z"/><path d="M85.56 50.8h.68V40.48h-.68Z" fill-rule="evenodd"/><path d="M92.25 43.8h.68v7h-.68Zm0-3.32h.68v1.36h-.68Z"/><path d="M95.29 45.61c0-.6 0-1.26-.01-1.81h.67c.01.24.04.84.03 1.25.29-.7.91-1.42 2.03-1.42.95 0 1.7.49 1.97 1.39.34-.73 1.02-1.39 2.21-1.39 1.04 0 2.13.62 2.13 2.56V50.8h-.68V46.28c0-.94-.33-1.96-1.59-1.96-1.32 0-1.91 1.09-1.91 2.45V50.8h-.66V46.3c0-1.02-.3-1.98-1.55-1.98-1.32 0-1.95 1.21-1.95 2.63V50.8h-.68Z"/><path d="M111.73 47.15c0-1.62-.76-2.84-2.1-2.84-1.64 0-2.32 1.07-2.32 2.97 0 1.88.53 3.04 2.23 3.04 1.41 0 2.2-1.23 2.2-3.17m-4.38 2.62v3.84h-.68V45.52c0-.57 0-1.19-.01-1.72h.67c.03.27.03.69.03 1.26.42-.84 1.17-1.43 2.39-1.43 1.6 0 2.71 1.39 2.71 3.49 0 2.52-1.3 3.85-2.94 3.85-1.19 0-1.82-.55-2.16-1.2"/><path d="M118.26 47.23h-1.33c-1.51 0-2.44.41-2.44 1.61 0 .88.61 1.49 1.56 1.49 1.94 0 2.21-1.33 2.21-2.84Zm.66 2.24c0 .62.06 1.11.1 1.33h-.65c-.05-.17-.09-.47-.12-1.08-.23.52-.83 1.25-2.22 1.25-1.57 0-2.25-1.05-2.25-2.1 0-1.54 1.15-2.24 3.19-2.24h1.29v-.71c0-.7-.2-1.64-1.75-1.64-1.37 0-1.57.74-1.72 1.32h-.68c.08-.77.54-1.96 2.41-1.96 1.55 0 2.41.67 2.41 2.21Z"/><path d="M126.29 48.75c-.33 1.23-1.11 2.23-2.63 2.23-1.7 0-2.9-1.3-2.9-3.64 0-1.92.99-3.7 2.98-3.7 1.72 0 2.43 1.26 2.55 2.24h-.69c-.2-.81-.72-1.58-1.87-1.58-1.44 0-2.25 1.26-2.25 3.01 0 1.67.76 3.01 2.18 3.01.99 0 1.59-.52 1.94-1.57Z"/><path d="M127.14 43.8h1.26V41.62h.68V43.8h1.61v.66h-1.61v4.55c0 .78.16 1.23.81 1.23.2 0 .49-.01.71-.08v.62c-.23.1-.56.13-.84.13-.87 0-1.36-.45-1.36-1.57V44.46h-1.26Z"/><path d="M132.18 50.8h.68V49h-.68Z" fill-rule="evenodd"/></g></g></svg>