<?xml version="1.0" encoding="UTF-8"?><!DOCTYPE svg PUBLIC "-//W3C//DTD SVG 1.0//EN" "http://www.w3.org/TR/2001/REC-SVG-20010904/DTD/svg10.dtd" []><svg xmlns="http://www.w3.org/2000/svg" xmlns:xlink="http://www.w3.org/1999/xlink" height="341" stroke="#000" stroke-linecap="square" stroke-miterlimit="10" viewBox="0 0 54.91 340.75" width="55"><g><g fill="#fff" stroke="#fff" stroke-linecap="butt" stroke-width=".8"><path d="M16.7 300.56H49.51V5.4H16.7Z" fill="none"/><path d="M5 335.75H41.94V286.41H5Z" fill="#FB03A0" fill-rule="evenodd" stroke="none"/><path d="M33.61 259.35c2.18.71 3.41 2.19 3.41 4.63 0 2.47-1.59 3.8-4.21 3.8-2.72 0-6.52-1.51-6.52-5.43 0-2.27 1.26-3.65 3.45-3.72v2.15c-.87.04-1.75.4-1.75 1.79 0 1.99 2.65 2.99 4.79 2.99 1.41 0 2.52-.45 2.52-1.83 0-1.18-.71-1.8-1.7-2.23Z" stroke="none"/><path d="M33.36 253.38c0 .49.04.92.09 1.31.17 1.12.55 1.56 1.22 1.56.45 0 .8-.29.8-.93 0-1.37-1.15-1.72-1.99-1.91Zm1.6-1.65c.81.17 1.69.33 1.92.34v1.94c-.22-.02-.63-.07-.88-.11.5.38 1.04.88 1.04 2.29 0 1.49-1.09 2.12-2.01 2.12-2.18 0-2.76-1.85-2.95-3.52-.06-.63-.06-1.22-.08-1.7l-.37-.07c-.57-.11-1.3-.11-1.3.96 0 .95.53 1.12.91 1.29v2.03c-1.26-.29-2.34-1.13-2.34-3.49 0-1.84.79-3.21 2.84-2.78Z" stroke="none"/><path d="M31.36 248.93c-.77-.16-1.6-.31-2.32-.44v-1.92c.2.01.78.08 1.42.22-.94-.52-1.57-1.2-1.57-2.52l2.07.41c.02 1.38.8 2.36 2.51 2.71l3.4.7v1.99Z" stroke="none"/><path d="M32.05 238.3c-.97 0-1.46.42-1.46 1.26 0 1.04.79 1.73 2.43 2.04 1.52.29 2.33-.06 2.33-1.17 0-1.54-2.01-2.12-3.29-2.12m-6.22 3.73v-1.99l4.08.84c-.59-.47-1.02-1.18-1.02-2.22 0-1.58 1.24-2.44 2.94-2.44 2.39 0 5.19 1.28 5.19 4.08 0 1.04-.41 1.62-.89 1.86.22.05.57.13.74.19v1.95c-.52-.11-1.21-.26-2-.43Z" stroke="none"/><path d="M33.8 233.08c1.09 0 1.62-.44 1.62-1.22 0-1.43-2.04-1.99-3.38-1.99-1.01 0-1.55.41-1.55 1.24 0 1.38 2.03 1.97 3.31 1.97m-1.55-5.27c1.84 0 4.77 1.04 4.77 4.26 0 2.11-1.33 3.08-3.23 3.08-2.1 0-4.9-1.29-4.9-4.19 0-1.82 1.06-3.15 3.36-3.15" stroke="none"/><path d="M31.03 225.83c-.67-.13-1.33-.27-1.99-.38V223.5c.22.02.78.1.98.15-.47-.35-1.13-1.02-1.13-2.29 0-1.49.93-2.35 3.25-1.87l4.73.97v1.98l-4.75-.97c-.88-.19-1.51 0-1.51.85 0 .97.76 1.58 2.21 1.88l4.05.83v1.99Z" stroke="none"/><path d="M28.19 210.95v2.95l-1.75-.37v-7.95l1.75.37v2.94l8.68 1.77v2.06Z" stroke="none"/><path d="M31.36 206.16c-.77-.16-1.6-.31-2.32-.44V203.8c.2.01.78.08 1.42.22-.94-.52-1.57-1.2-1.57-2.52l2.07.41c.02 1.38.8 2.36 2.51 2.71l3.4.7v1.99Z" stroke="none"/><path d="M33.36 196.85c0 .49.04.92.09 1.31.17 1.12.55 1.56 1.22 1.56.45 0 .8-.28.8-.93 0-1.37-1.15-1.72-1.99-1.91Zm1.6-1.65c.81.17 1.69.33 1.92.34v1.94c-.22-.02-.63-.07-.88-.11.5.38 1.04.88 1.04 2.29 0 1.49-1.09 2.12-2.01 2.12-2.18 0-2.76-1.85-2.95-3.52-.06-.63-.06-1.22-.08-1.69l-.37-.07c-.57-.11-1.3-.11-1.3.96 0 .95.53 1.12.91 1.29v2.03c-1.26-.29-2.34-1.13-2.34-3.49 0-1.84.79-3.2 2.84-2.78Z" stroke="none"/><path d="M34.31 186.61c1.48.42 2.71 1.43 2.71 3.68 0 1.91-1.16 2.93-3.03 2.93-2.28 0-5.1-1.27-5.1-4.08 0-2.46 1.79-3.07 2.79-2.98v1.94c-.6.02-1.21.21-1.21 1.1 0 1.4 2.18 1.95 3.42 1.95 1.1 0 1.58-.43 1.58-1.13 0-.67-.38-1.12-1.15-1.43Z" stroke="none"/><path d="M32.24 182.69c-.74-.72-2.19-2.2-3.19-3.23v-2.4c1.05 1.06 2.07 2.17 3.05 3.22l4.77-1.76v2.23l-3.48 1.08 1.02 1.27 2.46.5v1.99l-11.04-2.26v-1.99Z" stroke="none"/><path d="M29.04 176v-1.99l7.83 1.6v1.99Zm-3.21-.65v-1.99l1.93.4v1.99Z" stroke="none"/><path d="M31.03 172.38c-.67-.13-1.33-.27-1.99-.38v-1.95c.22.02.78.1.98.15-.47-.35-1.13-1.02-1.13-2.29 0-1.49.93-2.35 3.25-1.87l4.73.97v1.98l-4.75-.97c-.88-.19-1.51 0-1.51.85 0 .97.76 1.58 2.21 1.88l4.05.83v1.99Z" stroke="none"/><path d="M33.59 162.56c.97 0 1.52-.4 1.52-1.23 0-1.05-.92-1.71-2.35-2.01-1.06-.22-2.21-.16-2.21 1.18 0 1.38 1.65 2.06 3.04 2.06m2.14-4.52c2.53.52 4.29 1.2 4.29 4.15 0 2.84-1.57 3.09-2.49 3.1v-2.02c.47-.03.95-.33.95-1.24 0-1.15-.73-1.6-2.4-1.96l-.24-.05c.64.5.94 1.14.94 2.12 0 1.63-1.23 2.51-3.04 2.51-2.31 0-4.85-1.44-4.85-3.85 0-1.17.45-1.81.93-2.01-.24-.06-.62-.2-.78-.26v-1.91c.58.13 1.3.3 1.95.43Z" stroke="none"/><path d="M30.69 141.59l3.59 3.04c1.6 1.37 2.75 2.16 2.75 4.44 0 1.96-1.29 3.02-2.83 3.02-1.56 0-2.58-.94-3.51-3.43-.52-1.33-1.17-1.99-2-1.99-.42 0-.93.19-.93.81 0 .68.56.98 1.09.98.5 0 1.02-.16 1.63-.8l6.38-5.32v2.48l-5.42 4.6c-.66.51-1.4.94-2.33.94-1.58 0-2.83-.98-2.83-2.9 0-1.89 1.26-2.59 2.41-2.59 1.35 0 2.18.72 3.11 2.99.73 1.79 1.33 2.21 2.1 2.21.65 0 1.25-.48 1.25-1.35 0-.95-.47-1.57-1.96-2.82l-2.51-2.09Z" stroke="none"/><path d="M32.74 134.72c1.58 0 2.57-.69 2.57-2.11 0-2.27-2.53-3.18-4.71-3.18-1.53 0-2.6.59-2.6 2.07 0 2.14 2.54 3.23 4.74 3.23m-2.11-7.41c3.21 0 6.39 1.73 6.39 5.57 0 2.68-1.83 3.98-4.2 3.98-3.1 0-6.53-1.83-6.53-5.49 0-2.79 1.92-4.06 4.34-4.06" stroke="none"/><path d="M30.61 122.98l6.26 1.26v1.98l-6.26-1.26v1.08l-1.57-.34v-1.07l-.79-.16c-1.62-.33-2.58-1.18-2.58-2.73 0-.34.05-.77.11-.94l1.64.34c-.02.11-.04.29-.04.44 0 .59.4.83.89.92l.76.15v-2.42l-.79-.16c-1.62-.33-2.58-1.18-2.58-2.73 0-.34.05-.77.11-.94l1.64.34c-.02.11-.04.29-.04.44 0 .6.4.8.89.91l.76.16v-1.29l1.57.34v1.27l6.26 1.27v2l-6.26-1.27Z" stroke="none"/><path d="M34.45 115.05c.68-.05 1.04-.48 1.04-1.31 0-.78-.37-1.09-.88-1.09-.5 0-.75.4-1.06 1.35-.56 1.78-1.2 2.32-2.17 2.32-1.42 0-2.5-1.07-2.5-3.09 0-2.11 1.11-3.06 2.36-3v2.02c-.42.02-.84.23-.84 1.09 0 .49.17.99.72.99.42 0 .58-.4.89-1.34.57-1.77 1.3-2.39 2.38-2.39 1.8 0 2.63 1.57 2.63 3.37 0 2.02-.94 3.19-2.57 3.11Z" stroke="none"/><path d="M32.05 104.17c-.15-.03-.26-.03-.35-.03-.69 0-1.27.29-1.27 1.17 0 .91.6 1.47 1.62 1.73Zm1.37 3.13c.17.03.3.05.47.05.83 0 1.54-.3 1.54-1.2 0-.81-.45-1.16-.95-1.42v-2.07c1.16.42 2.53 1.39 2.53 3.66 0 2.04-1.32 3.04-3.21 3.04-2.06 0-4.92-1.09-4.92-4.11 0-2.23 1.41-3.01 3.01-3.01.63 0 1.08.08 1.52.2Z" stroke="none"/><path d="M29.04 100.73V99.61l-2.11-.44V97.19l2.11.43V96.19l1.57.34v1.43l3.94.79c.49.1.81.05.81-.54 0-.23-.01-.43-.05-.65l1.49.3c.15.45.15.93.15 1.35 0 1.58-.93 1.83-2.3 1.55l-4.03-.82v1.12Z" stroke="none"/><path d="M31.26 89.28V87.73c0-1.37-.53-2.1-1.73-2.1-.91 0-1.37.51-1.37 1.59v1.42Zm-4.81 1.04V86.8c0-2.12 1.22-3.33 2.94-3.33 2.4 0 3.57 1.74 3.57 4.14v2.03l3.91.8v2.04Z" stroke="none"/><path d="M33.36 78.48c0 .49.04.92.09 1.31.17 1.12.55 1.56 1.22 1.56.45 0 .8-.29.8-.93 0-1.38-1.15-1.72-1.99-1.91Zm1.6-1.65c.81.17 1.69.33 1.92.34v1.94c-.22-.02-.63-.07-.88-.11.5.38 1.04.88 1.04 2.29 0 1.49-1.09 2.12-2.01 2.12-2.18 0-2.76-1.85-2.95-3.52-.06-.63-.06-1.22-.08-1.69l-.37-.07c-.57-.11-1.3-.11-1.3.96 0 .95.53 1.12.91 1.29v2.03c-1.26-.29-2.34-1.13-2.34-3.49 0-1.84.79-3.21 2.84-2.78Z" stroke="none"/><path d="M31.36 74.03c-.77-.16-1.6-.31-2.32-.44V71.67c.2.01.78.08 1.42.22-.94-.52-1.57-1.2-1.57-2.52l2.07.41c.02 1.39.8 2.36 2.51 2.71l3.4.7v1.99Z" stroke="none"/><path d="M29.04 68.36V67.24l-2.11-.44V64.82l2.11.43V63.82l1.57.34v1.43l3.94.79c.49.1.81.06.81-.54 0-.23-.01-.43-.05-.65l1.49.3c.15.45.15.93.15 1.35 0 1.58-.93 1.82-2.3 1.55l-4.03-.82V68.7Z" stroke="none"/><path d="M31.03 62.71c-.67-.13-1.33-.27-1.99-.38V60.38c.22.02.78.1.98.15-.47-.35-1.13-1.02-1.13-2.29 0-1.49.93-2.35 3.25-1.87l4.73.97v1.98l-4.75-.97c-.88-.19-1.51 0-1.51.86 0 .97.76 1.58 2.21 1.88l4.05.83v1.99Z" stroke="none"/><path d="M32.05 49.8c-.15-.03-.26-.03-.35-.03-.69 0-1.27.29-1.27 1.17 0 .91.6 1.47 1.62 1.73Zm1.37 3.13c.17.03.3.05.47.05.83 0 1.54-.3 1.54-1.2 0-.81-.45-1.16-.95-1.42V48.29c1.16.42 2.53 1.39 2.53 3.66 0 2.04-1.32 3.04-3.21 3.04-2.06 0-4.92-1.1-4.92-4.11 0-2.23 1.41-3.01 3.01-3.01.63 0 1.08.08 1.52.2Z" stroke="none"/><path d="M31.36 45.95c-.77-.16-1.6-.31-2.32-.44V43.59c.2.01.78.08 1.42.22-.94-.52-1.57-1.2-1.57-2.52l2.07.41c.02 1.38.8 2.36 2.51 2.71l3.4.7v1.99Z" stroke="none"/><path d="M34.45 39.19c.68-.05 1.04-.48 1.04-1.31 0-.78-.37-1.09-.88-1.09-.5 0-.75.4-1.06 1.35-.56 1.78-1.2 2.32-2.17 2.32-1.42 0-2.5-1.07-2.5-3.09 0-2.11 1.11-3.06 2.36-3v2.02c-.42.02-.84.23-.84 1.09 0 .49.17.99.72.99.42 0 .58-.4.89-1.33.57-1.77 1.3-2.39 2.38-2.39 1.8 0 2.63 1.57 2.63 3.37 0 2.02-.94 3.19-2.57 3.11Z" stroke="none"/><path d="M21.02 325.2c3.17 0 6.26-.41 6.26-2.94 0-2.5-2.91-2.87-6.33-2.87-3.3 0-6.14.44-6.14 2.82s2.49 2.99 6.2 2.99m-.08-9.06c4.53 0 8.95 1.35 8.95 6.15 0 4.73-4.22 6.14-8.84 6.14-4.57 0-8.84-1.56-8.84-6.22 0-4.55 4.05-6.08 8.73-6.08" stroke="none"/><path d="M16.79 313.44c-2.1-.24-4.58-1.68-4.58-5.6 0-3.69 2.21-5.34 4.57-5.34 2.06 0 3.07 1.16 3.49 2.1h.07c.44-1.21 1.56-2.76 4.18-2.76 2.55 0 5.38 1.51 5.38 6.04 0 4.21-2.66 5.75-4.92 5.94v-3.05c1.28-.26 2.4-1.15 2.4-3 0-1.9-1.28-2.78-2.9-2.78-1.81 0-2.79.97-2.79 3v1.38H19.16v-1.2c0-1.82-.67-2.58-2.22-2.58-1.3 0-2.18.78-2.18 2.35 0 1.78 1.01 2.29 2.03 2.52Z" stroke="none"/><path d="M25.27 299.01h4.31v-3.33H25.27Z" fill-rule="evenodd" stroke="none"/></g></g></svg>