<?xml version="1.0" encoding="UTF-8"?><!DOCTYPE svg PUBLIC "-//W3C//DTD SVG 1.0//EN" "http://www.w3.org/TR/2001/REC-SVG-20010904/DTD/svg10.dtd" []><svg xmlns="http://www.w3.org/2000/svg" xmlns:xlink="http://www.w3.org/1999/xlink" height="30" stroke="#000" stroke-linecap="square" stroke-miterlimit="10" viewBox="0 0 58.16 30.16" width="58"><g><g fill="#fff" stroke="none"><path d="M48.24 14.94v.57h1.82c0 .92 0 3.19-.47 3.89-.25.47-.8.97-1.82.97-.97 0-2.19-.43-2.46-2.46-.15-1-.15-2.68-.15-3.36 0-1.39.08-3.14.54-4.03.43-.85 1.15-1.1 1.39-1.21.33-.08.64-.1.97-.1 2.49 0 3.18 2.57 3.31 3.36l.02.07h.47l-.1-3.79h-.39c0 0-.49.61-.57.67-.67-.43-1.49-.85-2.72-.85-1.54 0-3.03.8-4.11 2.15-1.15 1.47-1.39 2.57-1.39 3.83 0 1.57.39 2.93 1.21 4.08 1.04 1.49 2.44 2.25 4.13 2.25 2.19 0 3.54-1.25 4.11-2.39.25-.57.35-2.07.39-2.82v-.21h.72v-.57H48.23ZM39.31 9.16c-.8-.25-1.67-.25-2.68-.25H31.95V9.4h1.57V20.26H31.98v.54h5.19v-.54H35.6V9.42h.75c1.62 0 2.36 0 2.79.9.1.21.25.64.25 1.82s-.15 1.82-.49 2.21c-.49.54-1.1.57-2.03.57H36.3v.57c1.39 0 2.31-.03 3.21-.35 1.1-.39 2.25-1.47 2.25-3.01-.01-1.4-.93-2.54-2.45-2.97m-8.65-.25h.08v3.54h-.43v-.03c-.33-1.29-.67-2.11-1.04-2.39-.61-.57-1.15-.57-1.92-.57h-.49V20.3h1.67v.54H22.95V20.3h1.74V9.46h-.4c-1.04 0-1.43 0-1.97.43-.57.47-.97 1.29-1.18 2.49v.08h-.47V8.92Z"/><path d="M18.18 24.66H12.43c-.33 0-.33 0-.57.18 0 0-.08.02-.1.08h-.02c-.08 0 .15-.25-.15-.25H5.26c-.15 0-.25.1-.25.25 0 .1.1.25.25.25H18.2c.15 0 .25-.15.25-.25-.01-.14-.11-.25-.27-.25m-4.68-.67h4.68c.15 0 .25-.1.25-.25 0-.1-.1-.25-.25-.25H13.77c-.15 0-.28.15-.43.25-.09.08-.21.28.16.25m-8.26 0h6.57c.18 0 .25-.1.25-.25.03-.1.1-.25-.1-.25H5.25c-.15 0-.25.15-.25.25.01.15.11.25.25.25m9.65-1.4c-.07.08-.1.25.03.25h3.26c.15 0 .25-.1.25-.25s-.1-.25-.25-.25H15.54c-.24.01-.35-.02-.64.25m-9.65-.24c-.15 0-.25.1-.25.25s.1.25.25.25h6.98c.15 0 .21-.1.25-.25.02-.15.08-.25-.1-.25Zm12.93-1.15h-1.1c-.25-.02-.35.08-.57.22-.02.03-.28.25.08.28h1.62c.15 0 .25-.15.25-.25-.03-.14-.13-.24-.28-.24M5.25 21.7h7.37c.1 0 .18-.08.22-.25.08-.21.08-.25-.1-.25H5.25c-.15 0-.25.1-.25.25.01.11.11.25.25.25M17.8 20.27c-.08.07-.28.21.28.25h.1c.15 0 .25-.1.25-.25 0-.1-.1-.25-.25-.25h-.08c-.03.04-.2.15-.3.25m-12.55.25h7.72c.1 0 .18 0 .25-.25.02-.15.1-.25-.1-.25H5.25c-.15 0-.25.15-.25.25.01.15.11.25.25.25m0-1.15h8.12c.15 0 .18-.1.25-.25.02-.15.07-.25-.1-.25H5.25c-.15 0-.25.1-.25.25s.11.25.25.25m-.24-1.39c0 .1.1.25.25.25h8.47c.15 0 .18-.07.25-.25.08-.25.03-.25-.15-.25H5.25c-.14 0-.24.1-.24.25m.24-.92h8.39c.21 0 .21-.1.03-.25-.28-.18-.25-.22-.61-.22H5.25c-.15 0-.25.1-.25.22.01.13.11.25.25.25m0-1.15h6.9c.25 0 .03-.18-.08-.25-.28-.21-.28-.25-.72-.25H5.25c-.15 0-.25.1-.25.25s.11.25.25.25m0-1.14h5.16c.47 0 .21-.18.1-.25-.28-.25-.43-.25-.54-.25H5.25c-.15 0-.25.1-.25.25.01.1.11.25.25.25m0-1.18H8.87c.43 0 .15-.15.08-.25-.39-.28-.39-.21-.67-.25H5.25c-.15 0-.25.15-.25.25.01.13.11.25.25.25m10.59-1.4c.03-.1.18-.25-.18-.25H5.25c-.15 0-.25.1-.25.25 0 .18.02.25.25.25H15.54c.15 0 .25-.04.3-.25m.16-1.39H5.25c-.15 0-.25.1-.25.25s.1.25.25.25H15.91c.25 0 .28-.1.33-.25.03-.13.1-.25-.23-.25m-10.76-.7H16.4c.1 0 .18-.15.22-.25.07-.25-.08-.21-.22-.21H5.25c-.15 0-.25.1-.25.21.01.15.11.25.25.25m0-1.12h11.4c.25 0 .25-.08.33-.25.1-.28-.03-.25-.21-.25H5.26c-.15 0-.25.1-.25.25 0 .14.1.25.24.25m0-1.15H17.11c.1 0 .18-.02.21-.25.07-.25 0-.25-.21-.25H5.25c-.15 0-.25.1-.25.25s.11.25.25.25m0-1.19H17.51c.15 0 .18-.1.22-.25.02-.1.1-.25-.22-.22H5.25c-.15 0-.25.1-.25.22.01.15.11.25.25.25M5.01 5.25c0-.15.1-.25.25-.25H18.02c.1 0 .15 0 .08.25-.03.15-.1.25-.25.25H5.25c-.14 0-.24-.1-.24-.25" fill-rule="evenodd"/></g></g></svg>