<?xml version="1.0" encoding="UTF-8"?><!DOCTYPE svg PUBLIC "-//W3C//DTD SVG 1.0//EN" "http://www.w3.org/TR/2001/REC-SVG-20010904/DTD/svg10.dtd" []><svg xmlns="http://www.w3.org/2000/svg" xmlns:xlink="http://www.w3.org/1999/xlink" height="138" stroke="#000" stroke-linecap="square" stroke-miterlimit="10" viewBox="0 0 315.01 137.5" width="315"><defs><clipPath id="a"><path d="M0 0V137.5H315.01V0Z"/></clipPath><clipPath clip-path="url(#a)" id="b"><path d="M-55.1 414.78H905.02V-125.34H-55.1Z"/></clipPath><clipPath clip-path="url(#b)" id="c"><path d="M-55.06 414.72H904.95v-540H-55.06Z"/></clipPath></defs><g><g fill="#fff" stroke="#fff"><path clip-path="url(#c)" d="M28.53 25.96l-2.63-9.8h.76c.64 2.35 2.08 7.77 2.29 8.92h.01c.18-.91 1.74-6.33 2.4-8.92h.81c.62 2.4 2.14 8.15 2.29 8.91h.01c.3-1.39 1.89-6.57 2.54-8.91h.75l-2.9 9.8h-.84c-.62-2.31-2.1-7.98-2.26-8.82h-.01c-.24 1.27-1.71 6.39-2.39 8.82Z" stroke="none"/><path clip-path="url(#c)" d="M43.2 21.93c-.01-1.39-.75-2.48-2.08-2.48-1.4 0-2.03 1.01-2.18 2.48Zm-4.3.62c.01 1.81.9 2.93 2.2 2.93 1.28 0 1.71-.74 1.95-1.32h.69c-.29.92-1 1.98-2.67 1.98-2.06 0-2.86-1.84-2.86-3.61 0-2 .96-3.73 2.94-3.73 2.09 0 2.75 1.86 2.75 3.18 0 .2 0 .39-.01.57Z" stroke="none"/><path clip-path="url(#c)" d="M51.84 18.96c1 3.61 1.59 5.69 1.69 6.3h.01c.11-.56.79-2.76 1.85-6.3h.73c1.26 4.33 1.64 5.58 1.76 6.12h.01c.19-.77.5-1.82 1.75-6.12h.72l-2.14 7h-.75c-.73-2.48-1.61-5.52-1.75-6.16h-.01c-.14.69-.91 3.19-1.79 6.16h-.81l-1.99-7Z" stroke="none"/><path clip-path="url(#c)" d="M62.08 22.46c0 1.67.87 3.01 2.31 3.01 1.47 0 2.29-1.25 2.29-3.01 0-1.65-.81-3.01-2.32-3.01-1.55 0-2.28 1.33-2.28 3.01m5.32-.01c0 1.95-1.04 3.68-3.07 3.68-1.83 0-2.97-1.55-2.97-3.67 0-2 1.07-3.67 3.04-3.67 1.8 0 3 1.46 3 3.66" stroke="none"/><path clip-path="url(#c)" d="M69.21 20.86c0-1.18-.01-1.68-.01-1.9h.67c.01.22.03.67.03 1.57.39-1.05 1.26-1.68 2.36-1.74v.76c-1.41.1-2.36 1.11-2.36 2.77v3.64h-.68Z" stroke="none"/><path clip-path="url(#c)" d="M74.42 22.57c.62-.69 2.52-2.68 3.43-3.61h.87l-2.69 2.79 3.02 4.22h-.84l-2.67-3.77-1.13 1.12v2.65h-.68V15.64h.68Z" stroke="none"/><path clip-path="url(#c)" d="M86.38 18.96c1 3.61 1.59 5.69 1.7 6.3h.01c.11-.56.79-2.76 1.85-6.3h.73c1.26 4.33 1.64 5.58 1.76 6.12h.01c.19-.77.5-1.82 1.75-6.12h.72l-2.14 7h-.75c-.73-2.48-1.61-5.52-1.75-6.16h-.01c-.14.69-.91 3.19-1.79 6.16h-.81l-1.99-7Z" stroke="none"/><path clip-path="url(#c)" d="M96.48 18.96h.68v7h-.68Zm0-3.32h.68v1.36h-.68Z" stroke="none"/><path clip-path="url(#c)" d="M98.6 18.96h1.26V16.77h.68v2.18h1.61v.66h-1.61v4.55c0 .79.16 1.23.81 1.23.2 0 .49-.01.71-.08v.62c-.23.1-.56.13-.84.13-.87 0-1.36-.45-1.36-1.57V19.62H98.6Z" stroke="none"/><path clip-path="url(#c)" d="M104.31 15.64v4.5c.38-.73 1.04-1.35 2.24-1.35.96 0 2.29.5 2.29 2.72v4.45h-.68V21.65c0-1.39-.61-2.17-1.74-2.17-1.34 0-2.12.85-2.12 2.58v3.91h-.68V15.64Z" stroke="none"/><path clip-path="url(#c)" d="M121.78 21.93c-.01-1.39-.75-2.48-2.07-2.48-1.4 0-2.04 1.01-2.18 2.48Zm-4.3.62c.01 1.81.9 2.93 2.2 2.93 1.28 0 1.71-.74 1.95-1.32h.69c-.29.92-1 1.98-2.67 1.98-2.06 0-2.86-1.84-2.86-3.61 0-2 .96-3.73 2.94-3.73 2.09 0 2.75 1.86 2.75 3.18 0 .2 0 .39-.01.57Z" stroke="none"/><path clip-path="url(#c)" d="M124.3 18.96c1.1 3.21 1.86 5.39 2.12 6.29h.01c.15-.52.91-2.61 2.22-6.29h.72l-2.56 7H126l-2.42-7Z" stroke="none"/><path clip-path="url(#c)" d="M135.28 21.93c-.01-1.39-.75-2.48-2.07-2.48-1.4 0-2.04 1.01-2.18 2.48Zm-4.3.62c.01 1.81.9 2.93 2.2 2.93 1.28 0 1.71-.74 1.95-1.32h.69c-.29.92-1 1.98-2.67 1.98-2.06 0-2.86-1.84-2.86-3.61 0-2 .96-3.73 2.94-3.73 2.09 0 2.75 1.86 2.75 3.18 0 .2 0 .39-.01.57Z" stroke="none"/><path clip-path="url(#c)" d="M137.78 20.72c0-.62 0-1.21-.01-1.77h.67c.03.22.04 1.13.03 1.33.3-.71.85-1.5 2.25-1.5 1.21 0 2.28.7 2.28 2.63v4.54h-.68V21.53c0-1.25-.5-2.06-1.68-2.06-1.62 0-2.17 1.39-2.17 2.91v3.57h-.68Z" stroke="none"/><path clip-path="url(#c)" d="M144.28 18.96h1.26V16.77h.68v2.18h1.61v.66h-1.61v4.55c0 .79.16 1.23.81 1.23.2 0 .49-.01.71-.08v.62c-.23.1-.56.13-.84.13-.87 0-1.36-.45-1.36-1.57V19.62h-1.26Z" stroke="none"/><path clip-path="url(#c)" d="M154.47 18.96h1.26V16.77h.68v2.18h1.61v.66h-1.61v4.55c0 .79.16 1.23.81 1.23.2 0 .49-.01.71-.08v.62c-.23.1-.56.13-.84.13-.87 0-1.36-.45-1.36-1.57V19.62h-1.26Z" stroke="none"/><path clip-path="url(#c)" d="M163.91 21.93c-.01-1.39-.75-2.48-2.08-2.48-1.4 0-2.03 1.01-2.18 2.48Zm-4.3.62c.01 1.81.89 2.93 2.2 2.93 1.27 0 1.71-.74 1.95-1.32h.69c-.29.92-1 1.98-2.67 1.98-2.06 0-2.86-1.84-2.86-3.61 0-2 .96-3.73 2.94-3.73 2.09 0 2.75 1.86 2.75 3.18 0 .2 0 .39-.01.57Z" stroke="none"/><path clip-path="url(#c)" d="M171.46 23.9c-.33 1.23-1.11 2.23-2.63 2.23-1.7 0-2.9-1.3-2.9-3.64 0-1.92.99-3.7 2.99-3.7 1.72 0 2.43 1.26 2.55 2.24h-.69c-.2-.81-.72-1.58-1.87-1.58-1.44 0-2.25 1.26-2.25 3.01 0 1.67.76 3.01 2.18 3.01.99 0 1.59-.52 1.94-1.57Z" stroke="none"/><path clip-path="url(#c)" d="M173.85 15.64v4.5c.38-.73 1.04-1.35 2.24-1.35.96 0 2.29.5 2.29 2.72v4.45h-.68V21.65c0-1.39-.61-2.17-1.74-2.17-1.34 0-2.12.85-2.12 2.58v3.91h-.68V15.64Z" stroke="none"/><path clip-path="url(#c)" d="M191.93 22.3c0-1.62-.76-2.84-2.1-2.84-1.64 0-2.32 1.07-2.32 2.97 0 1.88.53 3.04 2.22 3.04 1.41 0 2.2-1.23 2.2-3.16m-4.38 2.62v3.84h-.68V20.68c0-.57 0-1.19-.01-1.72h.66c.03.27.03.69.03 1.26.42-.84 1.17-1.43 2.39-1.43 1.6 0 2.71 1.39 2.71 3.49 0 2.52-1.3 3.85-2.94 3.85-1.19 0-1.82-.55-2.16-1.2" stroke="none"/><path clip-path="url(#c)" d="M194.48 20.86c0-1.18-.01-1.68-.01-1.9h.67c.01.22.03.67.03 1.57.39-1.05 1.26-1.68 2.36-1.74v.76c-1.41.1-2.36 1.11-2.36 2.77v3.64h-.68Z" stroke="none"/><path clip-path="url(#c)" d="M199.07 22.46c0 1.67.87 3.01 2.31 3.01 1.46 0 2.29-1.25 2.29-3.01 0-1.65-.81-3.01-2.32-3.01-1.55 0-2.28 1.33-2.28 3.01m5.32-.01c0 1.95-1.04 3.68-3.07 3.68-1.83 0-2.97-1.55-2.97-3.67 0-2 1.07-3.67 3.04-3.67 1.8 0 3 1.46 3 3.66" stroke="none"/><path clip-path="url(#c)" d="M206.11 18.96c1.1 3.21 1.86 5.39 2.12 6.29h.01c.15-.52.91-2.61 2.22-6.29h.72l-2.56 7h-.81l-2.42-7Z" stroke="none"/><path clip-path="url(#c)" d="M212.69 18.96h.68v7h-.68Zm0-3.32h.68v1.36h-.68Z" stroke="none"/><path clip-path="url(#c)" d="M215.9 22.51c0 1.92.96 2.95 2.13 2.95 1.79 0 2.28-1.27 2.28-3.18 0-1.81-.42-2.84-2.16-2.84-1.34 0-2.25 1.11-2.25 3.07m5.06-6.88v8.31c0 .67 0 1.32.01 2.02h-.65c-.03-.17-.04-.83-.04-1.18-.34.85-1.1 1.34-2.28 1.34-1.76 0-2.82-1.48-2.82-3.59 0-2.16 1.15-3.75 3-3.75 1.36 0 1.9.6 2.1 1.05v-4.2Z" stroke="none"/><path clip-path="url(#c)" d="M227.76 21.93c-.01-1.39-.75-2.48-2.08-2.48-1.4 0-2.04 1.01-2.18 2.48Zm-4.3.62c.01 1.81.9 2.93 2.2 2.93 1.28 0 1.71-.74 1.95-1.32h.69c-.29.92-1 1.98-2.67 1.98-2.06 0-2.86-1.84-2.86-3.61 0-2 .96-3.73 2.94-3.73 2.09 0 2.75 1.86 2.75 3.18 0 .2 0 .39-.01.57Z" stroke="none"/><path clip-path="url(#c)" d="M230.25 20.86c0-1.18-.01-1.68-.01-1.9h.67c.01.22.03.67.03 1.57.39-1.05 1.26-1.68 2.36-1.74v.76c-1.41.1-2.36 1.11-2.36 2.77v3.64h-.68Z" stroke="none"/><path clip-path="url(#c)" d="M234.84 24.03c.23.91.86 1.46 1.93 1.46 1.21 0 1.7-.58 1.7-1.36 0-.8-.33-1.19-1.85-1.57-1.75-.43-2.18-.98-2.18-1.9 0-.97.7-1.86 2.24-1.86s2.27.97 2.37 1.96h-.68c-.12-.59-.57-1.32-1.72-1.32-1.18 0-1.52.6-1.52 1.16 0 .64.33.97 1.67 1.3 1.91.48 2.39 1.12 2.39 2.17 0 1.27-1 2.06-2.43 2.06-1.55 0-2.42-.84-2.61-2.1Z" stroke="none"/><path clip-path="url(#c)" d="M251.12 22.39h-1.33c-1.51 0-2.44.41-2.44 1.61 0 .88.61 1.49 1.56 1.49 1.94 0 2.21-1.33 2.21-2.84Zm.67 2.24c0 .62.05 1.11.09 1.33h-.65c-.05-.17-.09-.48-.12-1.08-.23.52-.83 1.25-2.22 1.25-1.57 0-2.25-1.05-2.25-2.1 0-1.54 1.15-2.24 3.19-2.24h1.29v-.71c0-.7-.2-1.64-1.75-1.64-1.37 0-1.57.74-1.72 1.32h-.68c.08-.77.54-1.96 2.41-1.96 1.55 0 2.42.67 2.42 2.21Z" stroke="none"/><path clip-path="url(#c)" d="M254.15 20.72c0-.62 0-1.21-.01-1.77h.66c.03.22.04 1.13.03 1.33.3-.71.86-1.5 2.25-1.5 1.21 0 2.28.7 2.28 2.63v4.54h-.68V21.53c0-1.25-.5-2.06-1.68-2.06-1.61 0-2.17 1.39-2.17 2.91v3.57h-.68Z" stroke="none"/><path clip-path="url(#c)" d="M261.89 22.51c0 1.92.96 2.95 2.13 2.95 1.79 0 2.28-1.27 2.28-3.18 0-1.81-.42-2.84-2.16-2.84-1.34 0-2.25 1.11-2.25 3.07m5.06-6.88v8.31c0 .67 0 1.32.01 2.02h-.65c-.03-.17-.04-.83-.04-1.18-.34.85-1.1 1.34-2.28 1.34-1.76 0-2.82-1.48-2.82-3.59 0-2.16 1.15-3.75 3-3.75 1.36 0 1.9.6 2.1 1.05v-4.2Z" stroke="none"/><path clip-path="url(#c)" d="M275.62 22.51c0 1.92.96 2.95 2.13 2.95 1.79 0 2.28-1.27 2.28-3.18 0-1.81-.42-2.84-2.16-2.84-1.34 0-2.25 1.11-2.25 3.07m5.06-6.88v8.31c0 .67 0 1.32.01 2.02h-.65c-.03-.17-.04-.83-.04-1.18-.34.85-1.1 1.34-2.28 1.34-1.76 0-2.82-1.48-2.82-3.59 0-2.16 1.15-3.75 3-3.75 1.36 0 1.9.6 2.1 1.05v-4.2Z" stroke="none"/><path clip-path="url(#c)" d="M283.04 18.96h.68v7h-.68Zm0-3.32h.68v1.36h-.68Z" stroke="none"/><path clip-path="url(#c)" d="M286.25 22.43c0 1.67.85 2.87 2.16 2.87 1.7 0 2.21-1.16 2.21-2.98 0-1.85-.54-2.87-2.17-2.87-1.56 0-2.2 1.39-2.2 2.98m5.01 3.05c0 2.24-.96 3.42-2.93 3.42-1.76 0-2.5-1.02-2.66-2.09h.69c.24.97 1.02 1.43 1.99 1.43 1.76 0 2.25-1.18 2.25-2.95v-.73c-.37.91-1.03 1.4-2.26 1.4-1.59 0-2.81-1.33-2.81-3.5 0-2.35 1.3-3.67 2.9-3.67 1.38 0 1.98.67 2.17 1.23.01-.41.03-.9.04-1.07h.64c0 .25-.03 1.36-.03 2.03Z" stroke="none"/><path clip-path="url(#c)" d="M293.61 18.96h.68v7h-.68Zm0-3.32h.68v1.36h-.68Z" stroke="none"/><path clip-path="url(#c)" d="M295.73 18.96h1.26V16.77h.68v2.18h1.61v.66h-1.61v4.55c0 .79.16 1.23.81 1.23.2 0 .49-.01.7-.08v.62c-.23.1-.56.13-.84.13-.87 0-1.36-.45-1.36-1.57V19.62h-1.26Z" stroke="none"/><path clip-path="url(#c)" d="M304.79 22.39h-1.33c-1.51 0-2.44.41-2.44 1.61 0 .88.61 1.49 1.56 1.49 1.94 0 2.21-1.33 2.21-2.84Zm.66 2.24c0 .62.05 1.11.1 1.33h-.65c-.05-.17-.09-.48-.12-1.08-.23.52-.83 1.25-2.22 1.25-1.57 0-2.25-1.05-2.25-2.1 0-1.54 1.15-2.24 3.19-2.24h1.29v-.71c0-.7-.2-1.64-1.75-1.64-1.37 0-1.57.74-1.72 1.32h-.68c.08-.77.54-1.96 2.42-1.96 1.55 0 2.41.67 2.41 2.21Z" stroke="none"/><path clip-path="url(#c)" d="M307.82 25.96h.68V15.64h-.68Z" fill-rule="evenodd" stroke="none"/><path clip-path="url(#c)" d="M31.11 39.93c-.01-1.39-.75-2.48-2.08-2.48-1.4 0-2.03 1.01-2.18 2.48Zm-4.3.62c.01 1.81.9 2.93 2.2 2.93 1.28 0 1.71-.74 1.95-1.32h.69c-.29.92-1 1.98-2.67 1.98-2.06 0-2.86-1.84-2.86-3.61 0-2 .96-3.73 2.94-3.73 2.09 0 2.75 1.86 2.75 3.18 0 .2 0 .39-.01.57Z" stroke="none"/><path clip-path="url(#c)" d="M33.6 38.72c0-.62 0-1.21-.01-1.77h.67c.03.22.04 1.13.03 1.33.3-.71.86-1.5 2.25-1.5 1.21 0 2.28.7 2.28 2.63v4.54h-.68V39.53c0-1.25-.5-2.06-1.68-2.06-1.61 0-2.17 1.39-2.17 2.91v3.57H33.6Z" stroke="none"/><path clip-path="url(#c)" d="M41.34 40.43c0 1.67.86 2.87 2.16 2.87 1.7 0 2.21-1.16 2.21-2.98 0-1.85-.54-2.87-2.17-2.87-1.56 0-2.2 1.39-2.2 2.98m5 3.05c0 2.24-.96 3.42-2.93 3.42-1.76 0-2.5-1.02-2.66-2.09h.69c.25.97 1.02 1.43 2 1.43 1.76 0 2.25-1.18 2.25-2.95v-.73c-.37.91-1.03 1.4-2.27 1.4-1.59 0-2.81-1.33-2.81-3.5 0-2.35 1.3-3.67 2.9-3.67 1.38 0 1.98.67 2.17 1.23.01-.41.03-.9.04-1.07h.64c0 .25-.03 1.36-.03 2.03Z" stroke="none"/><path clip-path="url(#c)" d="M52.57 40.39H51.24c-1.51 0-2.44.41-2.44 1.61 0 .88.61 1.49 1.56 1.49 1.94 0 2.21-1.33 2.21-2.84Zm.67 2.24c0 .62.05 1.11.1 1.33h-.65c-.05-.17-.09-.48-.12-1.08-.23.52-.83 1.25-2.22 1.25-1.57 0-2.25-1.05-2.25-2.1 0-1.54 1.15-2.24 3.19-2.24h1.29v-.71c0-.7-.2-1.64-1.75-1.64-1.37 0-1.57.74-1.72 1.32H48.4c.08-.77.54-1.96 2.41-1.96 1.55 0 2.42.67 2.42 2.21Z" stroke="none"/><path clip-path="url(#c)" d="M55.78 40.43c0 1.67.85 2.87 2.16 2.87 1.69 0 2.21-1.16 2.21-2.98 0-1.85-.54-2.87-2.17-2.87-1.56 0-2.2 1.39-2.2 2.98m5.01 3.05c0 2.24-.96 3.42-2.93 3.42-1.76 0-2.5-1.02-2.66-2.09h.69c.25.97 1.02 1.43 1.99 1.43 1.76 0 2.25-1.18 2.25-2.95v-.73c-.37.91-1.03 1.4-2.26 1.4-1.59 0-2.81-1.33-2.81-3.5 0-2.35 1.3-3.67 2.9-3.67 1.38 0 1.98.67 2.17 1.23.01-.41.03-.9.04-1.07h.64c0 .25-.03 1.36-.03 2.03Z" stroke="none"/><path clip-path="url(#c)" d="M67.59 39.93c-.01-1.39-.75-2.48-2.07-2.48-1.4 0-2.04 1.01-2.18 2.48Zm-4.3.62c.01 1.81.9 2.93 2.2 2.93 1.27 0 1.71-.74 1.95-1.32h.69c-.28.92-1 1.98-2.67 1.98-2.06 0-2.86-1.84-2.86-3.61 0-2 .96-3.73 2.94-3.73 2.09 0 2.75 1.86 2.75 3.18 0 .2 0 .39-.01.57Z" stroke="none"/><path clip-path="url(#c)" d="M70.08 38.76c0-.6 0-1.26-.01-1.81h.67c.01.24.04.84.03 1.25.29-.7.91-1.41 2.04-1.41.95 0 1.7.49 1.97 1.39.34-.73 1.02-1.39 2.21-1.39 1.04 0 2.13.62 2.13 2.56v4.61h-.68V39.43c0-.94-.33-1.96-1.59-1.96-1.32 0-1.91 1.09-1.91 2.45v4.03h-.67V39.45c0-1.02-.3-1.98-1.55-1.98-1.32 0-1.95 1.21-1.95 2.63v3.85h-.68Z" stroke="none"/><path clip-path="url(#c)" d="M85.91 39.93c-.01-1.39-.75-2.48-2.07-2.48-1.4 0-2.04 1.01-2.18 2.48Zm-4.3.62c.01 1.81.89 2.93 2.2 2.93 1.28 0 1.71-.74 1.95-1.32h.69c-.28.92-1 1.98-2.67 1.98-2.06 0-2.86-1.84-2.86-3.61 0-2 .96-3.73 2.94-3.73 2.09 0 2.75 1.86 2.75 3.18 0 .2 0 .39-.01.57Z" stroke="none"/><path clip-path="url(#c)" d="M88.4 38.72c0-.62 0-1.21-.01-1.77h.66c.03.22.04 1.13.03 1.33.3-.71.86-1.5 2.25-1.5 1.21 0 2.28.7 2.28 2.63v4.54h-.68V39.53c0-1.25-.5-2.06-1.68-2.06-1.62 0-2.17 1.39-2.17 2.91v3.57H88.4Z" stroke="none"/><path clip-path="url(#c)" d="M94.9 36.96h1.26V34.77h.68v2.18h1.61v.66H96.84v4.55c0 .79.16 1.23.81 1.23.2 0 .49-.01.71-.08v.62c-.23.1-.56.13-.84.13-.87 0-1.36-.45-1.36-1.57V37.62H94.9Z" stroke="none"/><path clip-path="url(#c)" d="M108.61 40.3c0-1.62-.76-2.84-2.1-2.84-1.64 0-2.32 1.07-2.32 2.97 0 1.88.53 3.04 2.23 3.04 1.41 0 2.2-1.23 2.2-3.16m-4.38 2.62v3.84h-.68V38.68c0-.57 0-1.19-.01-1.72h.66c.03.27.03.69.03 1.26.42-.84 1.17-1.43 2.39-1.43 1.6 0 2.71 1.39 2.71 3.49 0 2.52-1.3 3.85-2.94 3.85-1.19 0-1.82-.55-2.16-1.2" stroke="none"/><path clip-path="url(#c)" d="M111.15 43.96h.68V33.64h-.68Z" fill-rule="evenodd" stroke="none"/><path clip-path="url(#c)" d="M118.08 40.39h-1.33c-1.51 0-2.44.41-2.44 1.61 0 .88.61 1.49 1.56 1.49 1.94 0 2.21-1.33 2.21-2.84Zm.67 2.24c0 .62.05 1.11.09 1.33h-.65c-.05-.17-.09-.48-.12-1.08-.23.52-.83 1.25-2.22 1.25-1.57 0-2.25-1.05-2.25-2.1 0-1.54 1.15-2.24 3.19-2.24h1.29v-.71c0-.7-.2-1.64-1.75-1.64-1.37 0-1.57.74-1.72 1.32h-.68c.08-.77.54-1.96 2.41-1.96 1.55 0 2.42.67 2.42 2.21Z" stroke="none"/><path clip-path="url(#c)" d="M120.03 36.96h1.26V34.77h.68v2.18h1.61v.66h-1.61v4.55c0 .79.16 1.23.81 1.23.2 0 .49-.01.71-.08v.62c-.23.1-.56.13-.84.13-.87 0-1.36-.45-1.36-1.57V37.62h-1.26Z" stroke="none"/><path clip-path="url(#c)" d="M125.28 43.96V37.62h-1.17v-.66h1.17v-.99c0-1.18.33-2.47 1.85-2.47.2 0 .5.04.66.1v.67c-.2-.06-.53-.08-.73-.08-.8 0-1.1.59-1.1 1.81v.97h1.48v.66h-1.48v6.34Z" stroke="none"/><path clip-path="url(#c)" d="M128.82 40.46c0 1.67.87 3.01 2.31 3.01 1.46 0 2.29-1.25 2.29-3.01 0-1.65-.81-3.01-2.32-3.01-1.55 0-2.28 1.33-2.28 3.01m5.32-.01c0 1.95-1.04 3.68-3.07 3.68-1.83 0-2.97-1.55-2.97-3.67 0-2 1.07-3.67 3.04-3.67 1.8 0 3 1.46 3 3.66" stroke="none"/><path clip-path="url(#c)" d="M135.95 38.86c0-1.18-.01-1.68-.01-1.9h.66c.01.22.03.67.03 1.57.39-1.05 1.26-1.68 2.36-1.74v.76c-1.41.1-2.36 1.11-2.36 2.77v3.64h-.68Z" stroke="none"/><path clip-path="url(#c)" d="M140.33 38.76c0-.6 0-1.26-.01-1.81h.66c.01.24.04.84.03 1.25.28-.7.91-1.41 2.03-1.41.95 0 1.7.49 1.97 1.39.34-.73 1.02-1.39 2.21-1.39 1.04 0 2.13.62 2.13 2.56v4.61h-.68V39.43c0-.94-.33-1.96-1.59-1.96-1.32 0-1.91 1.09-1.91 2.45v4.03h-.66V39.45c0-1.02-.3-1.98-1.55-1.98-1.32 0-1.95 1.21-1.95 2.63v3.85h-.68Z" stroke="none"/><path clip-path="url(#c)" d="M151.67 42.03c.23.91.85 1.46 1.93 1.46 1.21 0 1.7-.58 1.7-1.36 0-.8-.33-1.19-1.85-1.57-1.75-.43-2.18-.98-2.18-1.9 0-.97.7-1.86 2.24-1.86s2.26.97 2.37 1.96h-.68c-.12-.59-.57-1.32-1.72-1.32-1.18 0-1.52.6-1.52 1.16 0 .64.33.97 1.67 1.3 1.91.48 2.39 1.12 2.39 2.17 0 1.27-1 2.06-2.43 2.06-1.55 0-2.41-.84-2.6-2.1Z" stroke="none"/><path clip-path="url(#c)" d="M160.38 36.96h1.26V34.77h.68v2.18h1.61v.66h-1.61v4.55c0 .79.16 1.23.81 1.23.2 0 .49-.01.71-.08v.62c-.23.1-.56.13-.84.13-.87 0-1.36-.45-1.36-1.57V37.62h-1.26Z" stroke="none"/><path clip-path="url(#c)" d="M165.54 40.46c0 1.67.87 3.01 2.31 3.01 1.47 0 2.29-1.25 2.29-3.01 0-1.65-.81-3.01-2.32-3.01-1.55 0-2.28 1.33-2.28 3.01m5.32-.01c0 1.95-1.04 3.68-3.07 3.68-1.83 0-2.97-1.55-2.97-3.67 0-2 1.07-3.67 3.04-3.67 1.8 0 3 1.46 3 3.66" stroke="none"/><path clip-path="url(#c)" d="M180.7 39.93c-.01-1.39-.75-2.48-2.07-2.48-1.4 0-2.04 1.01-2.18 2.48Zm-4.3.62c.01 1.81.9 2.93 2.2 2.93 1.28 0 1.71-.74 1.95-1.32h.69c-.29.92-1 1.98-2.67 1.98-2.06 0-2.86-1.84-2.86-3.61 0-2 .96-3.73 2.94-3.73 2.09 0 2.75 1.86 2.75 3.18 0 .2 0 .39-.01.57Z" stroke="none"/><path clip-path="url(#c)" d="M183.19 38.72c0-.62 0-1.21-.01-1.77h.66c.03.22.04 1.13.03 1.33.3-.71.85-1.5 2.25-1.5 1.21 0 2.28.7 2.28 2.63v4.54h-.68V39.53c0-1.25-.5-2.06-1.68-2.06-1.62 0-2.17 1.39-2.17 2.91v3.57h-.68Z" stroke="none"/><path clip-path="url(#c)" d="M191.43 33.64v4.5c.38-.73 1.04-1.35 2.24-1.35.96 0 2.29.5 2.29 2.72v4.45h-.68V39.65c0-1.39-.61-2.17-1.74-2.17-1.34 0-2.12.85-2.12 2.58v3.91h-.68V33.64Z" stroke="none"/><path clip-path="url(#c)" d="M202.22 40.39h-1.33c-1.5 0-2.44.41-2.44 1.61 0 .88.61 1.49 1.56 1.49 1.94 0 2.21-1.33 2.21-2.84Zm.66 2.24c0 .62.05 1.11.1 1.33h-.65c-.05-.17-.09-.48-.12-1.08-.23.52-.83 1.25-2.22 1.25-1.57 0-2.25-1.05-2.25-2.1 0-1.54 1.15-2.24 3.19-2.24h1.29v-.71c0-.7-.2-1.64-1.75-1.64-1.37 0-1.57.74-1.72 1.32h-.68c.08-.77.54-1.96 2.41-1.96 1.55 0 2.41.67 2.41 2.21Z" stroke="none"/><path clip-path="url(#c)" d="M205.26 38.72c0-.62 0-1.21-.01-1.77h.67c.03.22.04 1.13.03 1.33.3-.71.86-1.5 2.25-1.5 1.21 0 2.28.7 2.28 2.63v4.54h-.68V39.53c0-1.25-.5-2.06-1.68-2.06-1.62 0-2.17 1.39-2.17 2.91v3.57h-.68Z" stroke="none"/><path clip-path="url(#c)" d="M217.82 41.9c-.33 1.23-1.11 2.23-2.63 2.23-1.7 0-2.9-1.3-2.9-3.64 0-1.92.99-3.7 2.98-3.7 1.72 0 2.43 1.26 2.55 2.24h-.69c-.2-.81-.72-1.58-1.87-1.58-1.44 0-2.25 1.26-2.25 3.01 0 1.67.76 3.01 2.18 3.01.99 0 1.59-.52 1.94-1.57Z" stroke="none"/><path clip-path="url(#c)" d="M224.04 39.93c-.01-1.39-.75-2.48-2.08-2.48-1.4 0-2.03 1.01-2.18 2.48Zm-4.3.62c.01 1.81.89 2.93 2.2 2.93 1.28 0 1.71-.74 1.95-1.32h.69c-.29.92-1 1.98-2.67 1.98-2.06 0-2.86-1.84-2.86-3.61 0-2 .96-3.73 2.94-3.73 2.09 0 2.75 1.86 2.75 3.18 0 .2 0 .39-.01.57Z" stroke="none"/><path clip-path="url(#c)" d="M234.55 39.93c-.01-1.39-.75-2.48-2.08-2.48-1.4 0-2.04 1.01-2.18 2.48Zm-4.3.62c.01 1.81.9 2.93 2.2 2.93 1.28 0 1.71-.74 1.95-1.32h.69c-.29.92-1 1.98-2.67 1.98-2.06 0-2.86-1.84-2.86-3.61 0-2 .96-3.73 2.94-3.73 2.09 0 2.75 1.86 2.75 3.18 0 .2 0 .39-.01.57Z" stroke="none"/><path clip-path="url(#c)" d="M238.07 37.62v6.34h-.68V37.62h-1.17v-.66h1.17v-.97c0-1.21.26-2.49 1.78-2.49.2 0 .45.02.61.1v.66c-.19-.07-.46-.1-.65-.1-.76 0-1.06.52-1.06 1.72v1.08h2.73v-.97c0-1.21.29-2.49 1.78-2.49.2 0 .45.02.61.1v.66c-.19-.07-.46-.1-.65-.1-.76 0-1.06.52-1.06 1.72v1.08h1.44v.66h-1.44v6.34h-.68V37.62Z" stroke="none"/><path clip-path="url(#c)" d="M244.34 36.96h.68v7h-.68Zm0-3.32h.68v1.36h-.68Z" stroke="none"/><path clip-path="url(#c)" d="M252.37 41.9c-.33 1.23-1.11 2.23-2.63 2.23-1.7 0-2.9-1.3-2.9-3.64 0-1.92.99-3.7 2.98-3.7 1.72 0 2.43 1.26 2.55 2.24h-.69c-.2-.81-.72-1.58-1.87-1.58-1.44 0-2.25 1.26-2.25 3.01 0 1.67.76 3.01 2.18 3.01.99 0 1.59-.52 1.94-1.57Z" stroke="none"/><path clip-path="url(#c)" d="M254.25 36.96h.68v7h-.68Zm0-3.32h.68v1.36h-.68Z" stroke="none"/><path clip-path="url(#c)" d="M261.73 39.93c-.01-1.39-.75-2.48-2.07-2.48-1.4 0-2.04 1.01-2.18 2.48Zm-4.3.62c.01 1.81.89 2.93 2.2 2.93 1.28 0 1.71-.74 1.95-1.32h.69c-.29.92-1 1.98-2.67 1.98-2.06 0-2.86-1.84-2.86-3.61 0-2 .96-3.73 2.94-3.73 2.09 0 2.75 1.86 2.75 3.18 0 .2 0 .39-.01.57Z" stroke="none"/><path clip-path="url(#c)" d="M264.23 38.72c0-.62 0-1.21-.01-1.77h.67c.03.22.04 1.13.03 1.33.3-.71.86-1.5 2.25-1.5 1.21 0 2.28.7 2.28 2.63v4.54h-.68V39.53c0-1.25-.5-2.06-1.68-2.06-1.61 0-2.17 1.39-2.17 2.91v3.57h-.68Z" stroke="none"/><path clip-path="url(#c)" d="M276.78 41.9c-.33 1.23-1.11 2.23-2.63 2.23-1.7 0-2.9-1.3-2.9-3.64 0-1.92.99-3.7 2.99-3.7 1.72 0 2.43 1.26 2.55 2.24h-.69c-.2-.81-.72-1.58-1.87-1.58-1.44 0-2.25 1.26-2.25 3.01 0 1.67.76 3.01 2.18 3.01.99 0 1.59-.52 1.94-1.57Z" stroke="none"/><path clip-path="url(#c)" d="M278.62 36.96c1.37 4.01 1.97 5.66 2.2 6.42h.01c.27-.85.81-2.48 2.13-6.42h.7l-2.55 7.41c-.72 2.07-1.21 2.54-2.43 2.54-.24 0-.41-.01-.62-.04v-.7c.2.03.39.04.61.04.98 0 1.29-.49 1.79-1.93l-2.59-7.31Z" stroke="none"/><path clip-path="url(#c)" d="M292.67 40.39h-1.33c-1.51 0-2.44.41-2.44 1.61 0 .88.61 1.49 1.56 1.49 1.94 0 2.21-1.33 2.21-2.84Zm.67 2.24c0 .62.05 1.11.1 1.33h-.65c-.05-.17-.09-.48-.12-1.08-.23.52-.83 1.25-2.22 1.25-1.57 0-2.25-1.05-2.25-2.1 0-1.54 1.15-2.24 3.19-2.24h1.29v-.71c0-.7-.2-1.64-1.75-1.64-1.37 0-1.57.74-1.72 1.32h-.68c.08-.77.54-1.96 2.41-1.96 1.55 0 2.42.67 2.42 2.21Z" stroke="none"/><path clip-path="url(#c)" d="M295.7 38.72c0-.62 0-1.21-.01-1.77h.67c.03.22.04 1.13.03 1.33.3-.71.86-1.5 2.25-1.5 1.21 0 2.28.7 2.28 2.63v4.54h-.68V39.53c0-1.25-.5-2.06-1.68-2.06-1.61 0-2.17 1.39-2.17 2.91v3.57h-.68Z" stroke="none"/><path clip-path="url(#c)" d="M303.44 40.51c0 1.92.96 2.95 2.13 2.95 1.79 0 2.28-1.27 2.28-3.18 0-1.81-.42-2.84-2.16-2.84-1.34 0-2.25 1.11-2.25 3.07m5.06-6.88v8.31c0 .67 0 1.32.01 2.02h-.65c-.03-.17-.04-.83-.04-1.18-.34.85-1.1 1.34-2.28 1.34-1.76 0-2.82-1.48-2.82-3.59 0-2.16 1.15-3.75 3-3.75 1.36 0 1.9.6 2.1 1.05v-4.2Z" stroke="none"/><path clip-path="url(#c)" d="M30.65 58.39H29.32c-1.5 0-2.44.41-2.44 1.61 0 .88.61 1.49 1.56 1.49 1.94 0 2.21-1.33 2.21-2.84Zm.67 2.24c0 .62.05 1.11.09 1.33h-.65c-.05-.17-.09-.48-.12-1.08-.23.52-.83 1.25-2.22 1.25-1.57 0-2.25-1.05-2.25-2.1 0-1.54 1.15-2.24 3.19-2.24h1.29v-.71c0-.7-.2-1.64-1.75-1.64-1.37 0-1.57.74-1.72 1.32h-.68c.08-.77.54-1.96 2.42-1.96 1.55 0 2.42.67 2.42 2.21Z" stroke="none"/><path clip-path="url(#c)" d="M38.67 59.92c0 .69.01 1.78.01 2.04h-.65c-.03-.18-.04-.64-.04-1.22-.28.83-.98 1.39-2.18 1.39-.98 0-2.22-.39-2.22-2.53V54.96h.66v4.47c0 1.02.31 2.02 1.66 2.02 1.52 0 2.09-.88 2.09-2.89v-3.6h.68Z" stroke="none"/><path clip-path="url(#c)" d="M41.21 58.51c0 1.92.96 2.95 2.13 2.95 1.79 0 2.28-1.27 2.28-3.18 0-1.81-.42-2.84-2.16-2.84-1.34 0-2.25 1.11-2.25 3.07m5.06-6.88v8.31c0 .67 0 1.32.01 2.02h-.65c-.03-.17-.04-.83-.04-1.18-.34.85-1.1 1.34-2.28 1.34-1.76 0-2.82-1.48-2.82-3.59 0-2.16 1.15-3.75 3-3.75 1.36 0 1.9.6 2.1 1.05v-4.2Z" stroke="none"/><path clip-path="url(#c)" d="M48.62 54.96h.68v7h-.68Zm0-3.32h.68v1.36h-.68Z" stroke="none"/><path clip-path="url(#c)" d="M56.11 57.93c-.01-1.39-.75-2.48-2.07-2.48-1.4 0-2.04 1.01-2.18 2.48Zm-4.3.62c.01 1.81.89 2.93 2.2 2.93 1.28 0 1.71-.74 1.95-1.32h.69c-.28.92-1 1.98-2.67 1.98-2.06 0-2.86-1.84-2.86-3.61 0-2 .96-3.73 2.94-3.73 2.09 0 2.75 1.86 2.75 3.18 0 .2 0 .39-.01.57Z" stroke="none"/><path clip-path="url(#c)" d="M58.6 56.72c0-.62 0-1.21-.01-1.77h.67c.03.22.04 1.13.03 1.33.3-.71.85-1.5 2.25-1.5 1.21 0 2.28.7 2.28 2.63v4.54h-.68V57.53c0-1.25-.5-2.06-1.68-2.06-1.61 0-2.17 1.39-2.17 2.91v3.57H58.6Z" stroke="none"/><path clip-path="url(#c)" d="M71.16 59.9c-.33 1.23-1.11 2.23-2.63 2.23-1.7 0-2.9-1.3-2.9-3.64 0-1.92.99-3.7 2.99-3.7 1.72 0 2.43 1.26 2.55 2.24h-.69c-.2-.81-.72-1.58-1.87-1.58-1.44 0-2.25 1.26-2.25 3.01 0 1.67.76 3.01 2.18 3.01.99 0 1.59-.52 1.94-1.57Z" stroke="none"/><path clip-path="url(#c)" d="M77.38 57.93c-.01-1.39-.75-2.48-2.07-2.48-1.4 0-2.04 1.01-2.18 2.48Zm-4.3.62c.01 1.81.9 2.93 2.2 2.93 1.28 0 1.71-.74 1.95-1.32h.69c-.29.92-1 1.98-2.67 1.98-2.06 0-2.86-1.84-2.86-3.61 0-2 .96-3.73 2.94-3.73 2.09 0 2.75 1.86 2.75 3.18 0 .2 0 .39-.01.57Z" stroke="none"/><path clip-path="url(#c)" d="M87.98 57.93c-.01-1.39-.75-2.48-2.08-2.48-1.4 0-2.03 1.01-2.18 2.48Zm-4.3.62c.01 1.81.89 2.93 2.2 2.93 1.28 0 1.71-.74 1.95-1.32h.69c-.29.92-1 1.98-2.67 1.98-2.06 0-2.86-1.84-2.86-3.61 0-2 .96-3.73 2.94-3.73 2.09 0 2.75 1.86 2.75 3.18 0 .2 0 .39-.01.57Z" stroke="none"/><path clip-path="url(#c)" d="M90.43 54.96c1.13 1.72 1.61 2.49 1.89 2.91h.01c.33-.48 1-1.48 1.98-2.91h.77l-2.36 3.39 2.4 3.61h-.81c-.98-1.5-1.68-2.56-2.01-3.05h-.01c-.26.41-.87 1.36-1.98 3.05h-.79l2.4-3.56-2.29-3.45Z" stroke="none"/><path clip-path="url(#c)" d="M101.51 58.3c0-1.62-.76-2.84-2.1-2.84-1.64 0-2.32 1.07-2.32 2.97 0 1.88.53 3.04 2.23 3.04 1.41 0 2.2-1.23 2.2-3.16m-4.38 2.62v3.84h-.68V56.68c0-.57 0-1.19-.01-1.72h.66c.03.27.03.69.03 1.26.42-.84 1.17-1.43 2.39-1.43 1.6 0 2.71 1.39 2.71 3.49 0 2.52-1.3 3.85-2.94 3.85-1.19 0-1.82-.55-2.16-1.2" stroke="none"/><path clip-path="url(#c)" d="M108.59 57.93c-.01-1.39-.75-2.48-2.07-2.48-1.4 0-2.04 1.01-2.18 2.48Zm-4.3.62c.01 1.81.89 2.93 2.2 2.93 1.28 0 1.71-.74 1.95-1.32h.69c-.28.92-1 1.98-2.67 1.98-2.06 0-2.86-1.84-2.86-3.61 0-2 .96-3.73 2.94-3.73 2.09 0 2.75 1.86 2.75 3.18 0 .2 0 .39-.01.57Z" stroke="none"/><path clip-path="url(#c)" d="M111.08 56.86c0-1.18-.01-1.68-.01-1.9h.67c.01.22.03.67.03 1.57.39-1.05 1.26-1.68 2.36-1.74v.76c-1.41.1-2.36 1.11-2.36 2.77v3.64h-.68Z" stroke="none"/><path clip-path="url(#c)" d="M115.5 54.96h.68v7h-.68Zm0-3.32h.68v1.36h-.68Z" stroke="none"/><path clip-path="url(#c)" d="M122.98 57.93c-.01-1.39-.75-2.48-2.07-2.48-1.4 0-2.04 1.01-2.18 2.48Zm-4.3.62c.01 1.81.9 2.93 2.2 2.93 1.28 0 1.71-.74 1.95-1.32h.69c-.29.92-1 1.98-2.67 1.98-2.06 0-2.86-1.84-2.86-3.61 0-2 .96-3.73 2.94-3.73 2.09 0 2.75 1.86 2.75 3.18 0 .2 0 .39-.01.57Z" stroke="none"/><path clip-path="url(#c)" d="M125.48 56.72c0-.62 0-1.21-.01-1.77h.67c.03.22.04 1.13.03 1.33.3-.71.86-1.5 2.25-1.5 1.21 0 2.28.7 2.28 2.63v4.54h-.68V57.53c0-1.25-.5-2.06-1.68-2.06-1.62 0-2.17 1.39-2.17 2.91v3.57h-.68Z" stroke="none"/><path clip-path="url(#c)" d="M138.03 59.9c-.33 1.23-1.11 2.23-2.63 2.23-1.7 0-2.9-1.3-2.9-3.64 0-1.92.99-3.7 2.99-3.7 1.72 0 2.43 1.26 2.55 2.24h-.69c-.2-.81-.72-1.58-1.87-1.58-1.44 0-2.25 1.26-2.25 3.01 0 1.67.76 3.01 2.18 3.01.99 0 1.59-.52 1.94-1.57Z" stroke="none"/><path clip-path="url(#c)" d="M144.26 57.93c-.01-1.39-.75-2.48-2.07-2.48-1.4 0-2.03 1.01-2.18 2.48Zm-4.3.62c.01 1.81.89 2.93 2.2 2.93 1.28 0 1.71-.74 1.95-1.32h.69c-.29.92-1 1.98-2.67 1.98-2.06 0-2.86-1.84-2.86-3.61 0-2 .96-3.73 2.94-3.73 2.09 0 2.75 1.86 2.75 3.18 0 .2 0 .39-.01.57Z" stroke="none"/><path clip-path="url(#c)" d="M146.45 61.96h.68V60.15h-.68Z" fill-rule="evenodd" stroke="none"/><path clip-path="url(#c)" d="M34.68 87.96H33.37c-.07-.26-.12-.63-.14-1.08-.48.71-1.36 1.23-2.8 1.23-2.72 0-4.21-2.12-4.21-4.88 0-2.91 1.61-5.1 4.52-5.1 2.33 0 3.74 1.34 3.98 3.02H32.96c-.24-.8-.82-1.57-2.25-1.57-2.01 0-2.67 1.71-2.67 3.57 0 1.78.71 3.5 2.66 3.5 1.86 0 2.25-1.31 2.25-2.44v-.09H30.7V82.61h3.98Z" fill="#FB03A0" stroke="none"/><path clip-path="url(#c)" d="M38 84.36c0 1.45.64 2.38 1.68 2.38 1.06 0 1.65-.91 1.65-2.37 0-1.54-.6-2.39-1.67-2.39-1.03 0-1.65.82-1.65 2.38m5.04-.02c0 2.14-1.23 3.78-3.41 3.78-2.11 0-3.35-1.59-3.35-3.75 0-2.19 1.26-3.79 3.44-3.79 2.01 0 3.32 1.5 3.32 3.75" fill="#FB03A0" stroke="none"/><path clip-path="url(#c)" d="M48.49 84.6h-.9c-1.24 0-1.78.38-1.78 1.18 0 .6.37 1.07 1.12 1.07 1.38 0 1.56-.98 1.56-2.05Zm1.64 1.59c0 .68.05 1.58.1 1.76H48.62c-.06-.15-.1-.52-.1-.78-.25.43-.75.95-2.03.95-1.67 0-2.37-1.13-2.37-2.24 0-1.63 1.26-2.38 3.31-2.38h1.06v-.5c0-.55-.18-1.15-1.22-1.15-.93 0-1.12.44-1.22.97H44.44c.1-1.18.81-2.26 2.89-2.25 1.81.01 2.8.75 2.8 2.44Z" fill="#FB03A0" stroke="none"/><path clip-path="url(#c)" d="M52.13 87.96h1.69V77.71H52.13Z" fill="#FB03A0" fill-rule="evenodd" stroke="none"/><path clip-path="url(#c)" d="M56.17 85.73h1.75v2.23H56.17Zm0-4.92h1.75v2.23H56.17Z" fill="#FB03A0" stroke="none"/><path clip-path="url(#c)" d="M70.08 78.86H66.9v-.7h7.14v.7h-3.2v9.1h-.75Z" stroke="none"/><path clip-path="url(#c)" d="M74.07 84.46c0 1.67.87 3.01 2.31 3.01 1.47 0 2.29-1.25 2.29-3.01 0-1.65-.81-3.01-2.32-3.01-1.55 0-2.28 1.33-2.28 3.01m5.32-.01c0 1.95-1.04 3.68-3.07 3.68-1.83 0-2.97-1.55-2.97-3.67 0-2 1.07-3.67 3.04-3.67 1.8 0 3 1.46 3 3.66" stroke="none"/><path clip-path="url(#c)" d="M89.12 84.46c0 1.67.87 3.01 2.31 3.01 1.46 0 2.29-1.25 2.29-3.01 0-1.65-.81-3.01-2.32-3.01-1.55 0-2.28 1.33-2.28 3.01m5.32-.01c0 1.95-1.04 3.68-3.07 3.68-1.83 0-2.97-1.55-2.97-3.67 0-2 1.07-3.67 3.04-3.67 1.8 0 3 1.46 3 3.66" stroke="none"/><path clip-path="url(#c)" d="M97.21 81.62v6.34h-.68V81.62H95.37v-.66h1.17v-.97c0-1.21.26-2.49 1.78-2.49.2 0 .45.02.61.1v.66c-.19-.07-.46-.1-.65-.1-.76 0-1.06.52-1.06 1.72v1.08h2.73v-.97c0-1.21.28-2.49 1.78-2.49.2 0 .45.02.61.1v.66c-.19-.07-.46-.1-.65-.1-.76 0-1.06.52-1.06 1.72v1.08h1.44v.66h-1.44v6.34h-.68V81.62Z" stroke="none"/><path clip-path="url(#c)" d="M107.75 83.93c-.01-1.39-.75-2.48-2.07-2.48-1.4 0-2.04 1.01-2.18 2.48Zm-4.3.62c.01 1.81.9 2.93 2.2 2.93 1.28 0 1.71-.74 1.95-1.32h.69c-.28.92-1 1.98-2.67 1.98-2.06 0-2.86-1.84-2.86-3.61 0-2 .96-3.73 2.94-3.73 2.09 0 2.75 1.86 2.75 3.18 0 .2 0 .39-.01.57Z" stroke="none"/><path clip-path="url(#c)" d="M110.24 82.86c0-1.18-.01-1.68-.01-1.9h.67c.01.22.03.67.03 1.57.39-1.05 1.26-1.68 2.36-1.74v.76c-1.41.1-2.36 1.11-2.36 2.77v3.64h-.68Z" stroke="none"/><path clip-path="url(#c)" d="M127.51 85.9c-.33 1.23-1.11 2.23-2.63 2.23-1.7 0-2.9-1.3-2.9-3.64 0-1.92.99-3.7 2.99-3.7 1.72 0 2.43 1.26 2.55 2.24h-.69c-.2-.81-.72-1.58-1.87-1.58-1.44 0-2.25 1.26-2.25 3.01 0 1.67.76 3.01 2.18 3.01.99 0 1.59-.52 1.94-1.57Z" stroke="none"/><path clip-path="url(#c)" d="M129.21 87.96h.68V77.64h-.68Z" fill-rule="evenodd" stroke="none"/><path clip-path="url(#c)" d="M132.25 80.96h.68v7h-.68Zm0-3.32h.68v1.36h-.68Z" stroke="none"/><path clip-path="url(#c)" d="M139.73 83.93c-.01-1.39-.75-2.48-2.07-2.48-1.4 0-2.04 1.01-2.18 2.48Zm-4.3.62c.01 1.81.9 2.93 2.2 2.93 1.28 0 1.71-.74 1.95-1.32h.69c-.29.92-1 1.98-2.67 1.98-2.06 0-2.86-1.84-2.86-3.61 0-2 .96-3.73 2.94-3.73 2.09 0 2.75 1.86 2.75 3.18 0 .2 0 .39-.01.57Z" stroke="none"/><path clip-path="url(#c)" d="M142.23 82.72c0-.62 0-1.21-.01-1.77h.67c.03.22.04 1.13.03 1.33.3-.71.86-1.5 2.25-1.5 1.21 0 2.28.7 2.28 2.63v4.54h-.68V83.53c0-1.25-.5-2.06-1.68-2.06-1.62 0-2.17 1.39-2.17 2.91v3.57h-.68Z" stroke="none"/><path clip-path="url(#c)" d="M148.73 80.96H150V78.77h.68v2.18h1.61v.66h-1.61v4.55c0 .79.16 1.23.81 1.23.2 0 .49-.01.71-.08v.62c-.23.1-.56.13-.84.13-.87 0-1.36-.45-1.36-1.57V81.62h-1.26Z" stroke="none"/><path clip-path="url(#c)" d="M154.04 86.03c.23.91.85 1.46 1.93 1.46 1.21 0 1.7-.58 1.7-1.36 0-.8-.33-1.19-1.84-1.57-1.75-.43-2.18-.98-2.18-1.9 0-.97.71-1.86 2.24-1.86s2.26.97 2.37 1.96h-.68c-.12-.59-.57-1.32-1.72-1.32-1.18 0-1.52.6-1.52 1.16 0 .64.32.97 1.67 1.3 1.91.48 2.39 1.12 2.39 2.17 0 1.27-1 2.06-2.43 2.06-1.55 0-2.41-.84-2.6-2.1Z" stroke="none"/><path clip-path="url(#c)" d="M167.93 86.03c.23.91.86 1.46 1.93 1.46 1.21 0 1.7-.58 1.7-1.36 0-.8-.33-1.19-1.85-1.57-1.75-.43-2.18-.98-2.18-1.9 0-.97.71-1.86 2.24-1.86s2.27.97 2.37 1.96h-.68c-.12-.59-.57-1.32-1.72-1.32-1.18 0-1.52.6-1.52 1.16 0 .64.32.97 1.67 1.3 1.91.48 2.39 1.12 2.39 2.17 0 1.27-1 2.06-2.43 2.06-1.55 0-2.42-.84-2.61-2.1Z" stroke="none"/><path clip-path="url(#c)" d="M178.54 83.93c-.01-1.39-.75-2.48-2.08-2.48-1.4 0-2.03 1.01-2.18 2.48Zm-4.3.62c.01 1.81.9 2.93 2.2 2.93 1.28 0 1.71-.74 1.95-1.32h.69c-.29.92-1 1.98-2.67 1.98-2.06 0-2.86-1.84-2.86-3.61 0-2 .96-3.73 2.94-3.73 2.09 0 2.75 1.86 2.75 3.18 0 .2 0 .39-.01.57Z" stroke="none"/><path clip-path="url(#c)" d="M185.02 84.39h-1.33c-1.51 0-2.44.41-2.44 1.61 0 .88.61 1.49 1.56 1.49 1.94 0 2.21-1.33 2.21-2.84Zm.66 2.24c0 .62.05 1.11.1 1.33h-.65c-.05-.17-.09-.48-.12-1.08-.23.52-.83 1.25-2.22 1.25-1.57 0-2.25-1.05-2.25-2.1 0-1.54 1.15-2.24 3.19-2.24H185v-.71c0-.7-.2-1.64-1.75-1.64-1.37 0-1.57.74-1.72 1.32h-.68c.08-.77.54-1.96 2.42-1.96 1.55 0 2.41.67 2.41 2.21Z" stroke="none"/><path clip-path="url(#c)" d="M188.05 82.76c0-.6 0-1.26-.01-1.81h.66c.01.24.04.84.03 1.25.28-.7.91-1.41 2.03-1.41.95 0 1.7.49 1.97 1.39.34-.73 1.02-1.39 2.21-1.39 1.04 0 2.13.62 2.13 2.56v4.61h-.68V83.43c0-.94-.33-1.96-1.59-1.96-1.32 0-1.91 1.09-1.91 2.45v4.03h-.66V83.45c0-1.02-.3-1.98-1.55-1.98-1.32 0-1.95 1.21-1.95 2.63v3.85h-.68Z" stroke="none"/><path clip-path="url(#c)" d="M199.43 87.96h.68V77.64h-.68Z" fill-rule="evenodd" stroke="none"/><path clip-path="url(#c)" d="M206.91 83.93c-.01-1.39-.75-2.48-2.08-2.48-1.4 0-2.04 1.01-2.18 2.48Zm-4.3.62c.01 1.81.9 2.93 2.2 2.93 1.28 0 1.71-.74 1.95-1.32h.69c-.29.92-1 1.98-2.67 1.98-2.06 0-2.86-1.84-2.86-3.61 0-2 .96-3.73 2.94-3.73 2.09 0 2.75 1.86 2.75 3.18 0 .2 0 .39-.01.57Z" stroke="none"/><path clip-path="url(#c)" d="M209.57 86.03c.23.91.86 1.46 1.93 1.46 1.21 0 1.7-.58 1.7-1.36 0-.8-.33-1.19-1.85-1.57-1.75-.43-2.18-.98-2.18-1.9 0-.97.71-1.86 2.24-1.86s2.26.97 2.37 1.96h-.68c-.12-.59-.57-1.32-1.72-1.32-1.18 0-1.52.6-1.52 1.16 0 .64.32.97 1.67 1.3 1.91.48 2.39 1.12 2.39 2.17 0 1.27-1 2.06-2.43 2.06-1.55 0-2.42-.84-2.61-2.1Z" stroke="none"/><path clip-path="url(#c)" d="M215.89 86.03c.23.91.86 1.46 1.93 1.46 1.21 0 1.7-.58 1.7-1.36 0-.8-.33-1.19-1.85-1.57-1.75-.43-2.18-.98-2.18-1.9 0-.97.7-1.86 2.24-1.86s2.27.97 2.37 1.96h-.68c-.12-.59-.57-1.32-1.72-1.32-1.18 0-1.52.6-1.52 1.16 0 .64.33.97 1.67 1.3 1.91.48 2.39 1.12 2.39 2.17 0 1.27-1 2.06-2.43 2.06-1.55 0-2.41-.84-2.6-2.1Z" stroke="none"/><path clip-path="url(#c)" d="M229.79 80.96h.68v7h-.68Zm0-3.32h.68v1.36h-.68Z" stroke="none"/><path clip-path="url(#c)" d="M232.82 82.72c0-.62 0-1.21-.01-1.77h.67c.03.22.04 1.13.03 1.33.3-.71.86-1.5 2.25-1.5 1.21 0 2.28.7 2.28 2.63v4.54h-.68V83.53c0-1.25-.5-2.06-1.68-2.06-1.61 0-2.17 1.39-2.17 2.91v3.57h-.68Z" stroke="none"/><path clip-path="url(#c)" d="M239.33 80.96h1.26V78.77h.68v2.18h1.61v.66h-1.61v4.55c0 .79.16 1.23.81 1.23.2 0 .49-.01.71-.08v.62c-.23.1-.56.13-.84.13-.87 0-1.36-.45-1.36-1.57V81.62h-1.26Z" stroke="none"/><path clip-path="url(#c)" d="M248.77 83.93c-.01-1.39-.75-2.48-2.08-2.48-1.4 0-2.04 1.01-2.18 2.48Zm-4.3.62c.01 1.81.9 2.93 2.2 2.93 1.28 0 1.71-.74 1.95-1.32h.69c-.29.92-1 1.98-2.67 1.98-2.06 0-2.86-1.84-2.86-3.61 0-2 .96-3.73 2.94-3.73 2.09 0 2.75 1.86 2.75 3.18 0 .2 0 .39-.01.57Z" stroke="none"/><path clip-path="url(#c)" d="M251.58 84.43c0 1.67.85 2.87 2.16 2.87 1.7 0 2.21-1.16 2.21-2.98 0-1.85-.54-2.87-2.17-2.87-1.56 0-2.2 1.39-2.2 2.98m5.01 3.05c0 2.24-.96 3.42-2.93 3.42-1.76 0-2.5-1.02-2.66-2.09h.69c.24.97 1.02 1.43 1.99 1.43 1.76 0 2.25-1.18 2.25-2.95v-.73c-.37.91-1.03 1.4-2.26 1.4-1.59 0-2.81-1.33-2.81-3.5 0-2.35 1.3-3.67 2.9-3.67 1.38 0 1.98.67 2.17 1.23.01-.41.03-.9.04-1.07h.64c0 .25-.03 1.36-.03 2.03Z" stroke="none"/><path clip-path="url(#c)" d="M258.95 82.86c0-1.18-.01-1.68-.01-1.9h.66c.01.22.03.67.03 1.57.39-1.05 1.26-1.68 2.36-1.74v.76c-1.41.1-2.36 1.11-2.36 2.77v3.64h-.68Z" stroke="none"/><path clip-path="url(#c)" d="M267.23 84.39H265.9c-1.5 0-2.44.41-2.44 1.61 0 .88.61 1.49 1.56 1.49 1.94 0 2.21-1.33 2.21-2.84Zm.67 2.24c0 .62.05 1.11.09 1.33h-.65c-.05-.17-.09-.48-.12-1.08-.23.52-.83 1.25-2.22 1.25-1.57 0-2.25-1.05-2.25-2.1 0-1.54 1.15-2.24 3.19-2.24h1.29v-.71c0-.7-.2-1.64-1.75-1.64-1.37 0-1.57.74-1.72 1.32h-.68c.08-.77.54-1.96 2.41-1.96 1.55 0 2.42.67 2.42 2.21Z" stroke="none"/><path clip-path="url(#c)" d="M269.18 80.96h1.26V78.77h.68v2.18h1.61v.66h-1.61v4.55c0 .79.16 1.23.81 1.23.2 0 .49-.01.71-.08v.62c-.23.1-.56.13-.84.13-.87 0-1.36-.45-1.36-1.57V81.62h-1.26Z" stroke="none"/><path clip-path="url(#c)" d="M274.25 80.96h.68v7h-.68Zm0-3.32h.68v1.36h-.68Z" stroke="none"/><path clip-path="url(#c)" d="M277.47 84.46c0 1.67.87 3.01 2.31 3.01 1.46 0 2.29-1.25 2.29-3.01 0-1.65-.81-3.01-2.32-3.01-1.55 0-2.28 1.33-2.28 3.01m5.32-.01c0 1.95-1.04 3.68-3.07 3.68-1.83 0-2.97-1.55-2.97-3.67 0-2 1.07-3.67 3.04-3.67 1.8 0 3 1.46 3 3.66" stroke="none"/><path clip-path="url(#c)" d="M284.6 82.72c0-.62 0-1.21-.01-1.77h.66c.03.22.04 1.13.03 1.33.3-.71.86-1.5 2.25-1.5 1.21 0 2.28.7 2.28 2.63v4.54h-.68V83.53c0-1.25-.5-2.06-1.68-2.06-1.61 0-2.17 1.39-2.17 2.91v3.57h-.68Z" stroke="none"/><path clip-path="url(#c)" d="M300.08 84.46c0 1.67.87 3.01 2.31 3.01 1.46 0 2.29-1.25 2.29-3.01 0-1.65-.81-3.01-2.32-3.01-1.55 0-2.28 1.33-2.28 3.01m5.32-.01c0 1.95-1.04 3.68-3.07 3.68-1.83 0-2.97-1.55-2.97-3.67 0-2 1.07-3.67 3.04-3.67 1.8 0 3 1.46 3 3.66" stroke="none"/><path clip-path="url(#c)" d="M307.5 87.96V81.62h-1.17v-.66h1.17v-.99c0-1.18.33-2.47 1.85-2.47.2 0 .5.04.67.1v.67c-.2-.06-.53-.08-.73-.08-.8 0-1.1.59-1.1 1.81v.97h1.48v.66h-1.48v6.34Z" stroke="none"/><path clip-path="url(#c)" d="M25.64 98.96H26.9V96.77h.68v2.18h1.61v.66H27.58v4.55c0 .79.16 1.23.81 1.23.2 0 .49-.01.7-.08v.62c-.23.1-.56.13-.84.13-.87 0-1.36-.45-1.36-1.57V99.62H25.64Z" stroke="none"/><path clip-path="url(#c)" d="M35.08 101.93c-.01-1.39-.75-2.48-2.07-2.48-1.4 0-2.03 1.01-2.18 2.48Zm-4.3.62c.01 1.81.89 2.93 2.2 2.93 1.28 0 1.71-.74 1.95-1.32h.69c-.29.92-1 1.98-2.67 1.98-2.06 0-2.86-1.84-2.86-3.61 0-2 .96-3.73 2.94-3.73 2.09 0 2.75 1.86 2.75 3.18 0 .2 0 .39-.01.57Z" stroke="none"/><path clip-path="url(#c)" d="M42.63 103.9c-.33 1.23-1.11 2.23-2.63 2.23-1.7 0-2.9-1.3-2.9-3.64 0-1.92.99-3.7 2.99-3.7 1.72 0 2.43 1.26 2.55 2.24h-.69c-.2-.81-.72-1.58-1.87-1.58-1.44 0-2.25 1.26-2.25 3.01 0 1.67.76 3.01 2.18 3.01.99 0 1.59-.52 1.94-1.57Z" stroke="none"/><path clip-path="url(#c)" d="M45.01 95.64v4.5c.38-.73 1.04-1.35 2.24-1.35.96 0 2.29.5 2.29 2.72v4.45h-.68v-4.31c0-1.39-.61-2.17-1.74-2.17-1.34 0-2.12.85-2.12 2.58v3.91h-.68V95.64Z" stroke="none"/><path clip-path="url(#c)" d="M51.9 100.72c0-.62 0-1.21-.01-1.77h.67c.03.22.04 1.13.03 1.33.3-.71.86-1.5 2.25-1.5 1.21 0 2.28.7 2.28 2.63v4.54h-.68v-4.43c0-1.25-.5-2.06-1.68-2.06-1.62 0-2.17 1.39-2.17 2.91v3.57H51.9Z" stroke="none"/><path clip-path="url(#c)" d="M59.64 102.46c0 1.67.87 3.01 2.31 3.01 1.46 0 2.29-1.25 2.29-3.01 0-1.65-.81-3.01-2.32-3.01-1.55 0-2.28 1.33-2.28 3.01m5.32-.01c0 1.95-1.04 3.68-3.07 3.68-1.83 0-2.97-1.55-2.97-3.67 0-2 1.07-3.67 3.04-3.67 1.8 0 3 1.46 3 3.66" stroke="none"/><path clip-path="url(#c)" d="M66.77 105.96h.68V95.64h-.68Z" fill-rule="evenodd" stroke="none"/><path clip-path="url(#c)" d="M69.99 102.46c0 1.67.87 3.01 2.31 3.01 1.46 0 2.29-1.25 2.29-3.01 0-1.65-.81-3.01-2.32-3.01-1.55 0-2.28 1.33-2.28 3.01m5.32-.01c0 1.95-1.04 3.68-3.07 3.68-1.83 0-2.97-1.55-2.97-3.67 0-2 1.07-3.67 3.04-3.67 1.8 0 3 1.46 3 3.66" stroke="none"/><path clip-path="url(#c)" d="M77.39 102.43c0 1.67.85 2.87 2.16 2.87 1.7 0 2.21-1.16 2.21-2.98 0-1.85-.54-2.87-2.17-2.87-1.56 0-2.2 1.39-2.2 2.98m5.01 3.05c0 2.24-.96 3.42-2.93 3.42-1.76 0-2.5-1.02-2.66-2.09h.69c.24.97 1.02 1.43 1.99 1.43 1.76 0 2.25-1.18 2.25-2.95v-.73c-.37.91-1.03 1.4-2.26 1.4-1.59 0-2.81-1.33-2.81-3.5 0-2.35 1.3-3.67 2.9-3.67 1.38 0 1.98.67 2.17 1.23.01-.41.03-.9.04-1.07h.64c0 .25-.03 1.36-.03 2.03Z" stroke="none"/><path clip-path="url(#c)" d="M84.7 98.96c1.37 4.01 1.97 5.66 2.2 6.42h.01c.27-.85.81-2.48 2.13-6.42h.71l-2.55 7.41c-.72 2.07-1.21 2.54-2.43 2.54-.24 0-.41-.01-.62-.04v-.7c.2.03.39.04.61.04.98 0 1.29-.49 1.79-1.93l-2.59-7.31Z" stroke="none"/><path clip-path="url(#c)" d="M93.66 98.96h1.26V96.77h.68v2.18h1.61v.66H95.6v4.55c0 .79.16 1.23.81 1.23.2 0 .49-.01.71-.08v.62c-.23.1-.56.13-.84.13-.87 0-1.36-.45-1.36-1.57V99.62H93.66Z" stroke="none"/><path clip-path="url(#c)" d="M99.37 95.64v4.5c.38-.73 1.04-1.35 2.24-1.35.96 0 2.29.5 2.29 2.72v4.45h-.68v-4.31c0-1.39-.61-2.17-1.74-2.17-1.34 0-2.12.85-2.12 2.58v3.91h-.68V95.64Z" stroke="none"/><path clip-path="url(#c)" d="M110.16 102.39h-1.33c-1.51 0-2.44.41-2.44 1.61 0 .88.61 1.49 1.56 1.49 1.94 0 2.21-1.33 2.21-2.84Zm.66 2.24c0 .62.05 1.11.1 1.33h-.65c-.05-.17-.09-.48-.12-1.08-.23.52-.83 1.25-2.22 1.25-1.57 0-2.25-1.05-2.25-2.1 0-1.54 1.15-2.24 3.19-2.24h1.29v-.71c0-.7-.2-1.64-1.75-1.64-1.37 0-1.57.74-1.72 1.32H106c.08-.77.54-1.96 2.41-1.96 1.55 0 2.41.67 2.41 2.21Z" stroke="none"/><path clip-path="url(#c)" d="M112.11 98.96h1.26V96.77h.68v2.18h1.61v.66h-1.61v4.55c0 .79.16 1.23.81 1.23.2 0 .49-.01.71-.08v.62c-.23.1-.56.13-.84.13-.87 0-1.36-.45-1.36-1.57V99.62h-1.26Z" stroke="none"/><path clip-path="url(#c)" d="M120.68 98.96h.68v7h-.68Zm0-3.32h.68v1.36h-.68Z" stroke="none"/><path clip-path="url(#c)" d="M123.72 100.76c0-.6 0-1.26-.01-1.81h.66c.01.24.04.84.03 1.25.28-.7.91-1.41 2.03-1.41.95 0 1.7.49 1.97 1.39.34-.73 1.02-1.39 2.21-1.39 1.04 0 2.13.62 2.13 2.56v4.61h-.68v-4.52c0-.94-.33-1.96-1.59-1.96-1.32 0-1.91 1.09-1.91 2.45v4.03h-.66v-4.51c0-1.02-.3-1.98-1.55-1.98-1.32 0-1.95 1.21-1.95 2.63v3.85h-.68Z" stroke="none"/><path clip-path="url(#c)" d="M140.15 102.3c0-1.62-.76-2.84-2.1-2.84-1.64 0-2.32 1.07-2.32 2.97 0 1.88.53 3.04 2.22 3.04 1.41 0 2.2-1.23 2.2-3.16m-4.38 2.62v3.84h-.68v-8.08c0-.57 0-1.19-.01-1.72h.66c.03.27.03.69.03 1.26.42-.84 1.17-1.43 2.39-1.43 1.6 0 2.71 1.39 2.71 3.49 0 2.52-1.3 3.85-2.94 3.85-1.19 0-1.82-.55-2.16-1.2" stroke="none"/><path clip-path="url(#c)" d="M142.7 100.86c0-1.18-.01-1.68-.01-1.9h.66c.01.22.03.67.03 1.57.39-1.05 1.26-1.68 2.36-1.74v.76c-1.41.1-2.36 1.11-2.36 2.77v3.64h-.68Z" stroke="none"/><path clip-path="url(#c)" d="M147.3 102.46c0 1.67.87 3.01 2.31 3.01 1.46 0 2.29-1.25 2.29-3.01 0-1.65-.81-3.01-2.32-3.01-1.55 0-2.28 1.33-2.28 3.01m5.32-.01c0 1.95-1.04 3.68-3.07 3.68-1.83 0-2.97-1.55-2.97-3.67 0-2 1.07-3.67 3.04-3.67 1.8 0 3 1.46 3 3.66" stroke="none"/><path clip-path="url(#c)" d="M154.33 98.96c1.1 3.21 1.86 5.39 2.12 6.29h.01c.15-.52.91-2.61 2.23-6.29h.72l-2.56 7h-.81l-2.42-7Z" stroke="none"/><path clip-path="url(#c)" d="M165.32 101.93c-.01-1.39-.75-2.48-2.08-2.48-1.4 0-2.03 1.01-2.18 2.48Zm-4.3.62c.01 1.81.9 2.93 2.2 2.93 1.28 0 1.71-.74 1.95-1.32h.69c-.29.92-1 1.98-2.67 1.98-2.06 0-2.86-1.84-2.86-3.61 0-2 .96-3.73 2.94-3.73 2.09 0 2.75 1.86 2.75 3.18 0 .2 0 .39-.01.57Z" stroke="none"/><path clip-path="url(#c)" d="M167.97 104.03c.23.91.85 1.46 1.93 1.46 1.21 0 1.7-.58 1.7-1.36 0-.8-.33-1.19-1.85-1.57-1.75-.43-2.18-.98-2.18-1.9 0-.97.7-1.86 2.24-1.86s2.27.97 2.37 1.96h-.68c-.12-.59-.57-1.32-1.72-1.32-1.18 0-1.52.6-1.52 1.16 0 .64.33.97 1.67 1.3 1.91.48 2.39 1.12 2.39 2.17 0 1.27-1 2.06-2.43 2.06-1.55 0-2.41-.84-2.6-2.1Z" stroke="none"/><path clip-path="url(#c)" d="M182.69 102.3c0-1.62-.76-2.84-2.1-2.84-1.64 0-2.32 1.07-2.32 2.97 0 1.88.53 3.04 2.23 3.04 1.41 0 2.2-1.23 2.2-3.16m-4.38 2.62v3.84h-.68v-8.08c0-.57 0-1.19-.01-1.72h.67c.03.27.03.69.03 1.26.42-.84 1.17-1.43 2.39-1.43 1.6 0 2.71 1.39 2.71 3.49 0 2.52-1.3 3.85-2.94 3.85-1.19 0-1.82-.55-2.16-1.2" stroke="none"/><path clip-path="url(#c)" d="M185.23 105.96h.68V95.64h-.68Z" fill-rule="evenodd" stroke="none"/><path clip-path="url(#c)" d="M192.16 102.39h-1.33c-1.51 0-2.44.41-2.44 1.61 0 .88.61 1.49 1.56 1.49 1.94 0 2.21-1.33 2.21-2.84Zm.66 2.24c0 .62.05 1.11.1 1.33h-.65c-.05-.17-.09-.48-.12-1.08-.23.52-.83 1.25-2.22 1.25-1.57 0-2.25-1.05-2.25-2.1 0-1.54 1.15-2.24 3.19-2.24h1.29v-.71c0-.7-.2-1.64-1.75-1.64-1.37 0-1.57.74-1.72 1.32H188c.08-.77.54-1.96 2.42-1.96 1.55 0 2.41.67 2.41 2.21Z" stroke="none"/><path clip-path="url(#c)" d="M195.2 100.72c0-.62 0-1.21-.01-1.77h.66c.03.22.04 1.13.03 1.33.3-.71.85-1.5 2.25-1.5 1.21 0 2.28.7 2.28 2.63v4.54h-.68v-4.43c0-1.25-.5-2.06-1.68-2.06-1.61 0-2.17 1.39-2.17 2.91v3.57h-.68Z" stroke="none"/><path clip-path="url(#c)" d="M202.76 100.72c0-.62 0-1.21-.01-1.77h.67c.03.22.04 1.13.03 1.33.3-.71.86-1.5 2.25-1.5 1.21 0 2.28.7 2.28 2.63v4.54h-.68v-4.43c0-1.25-.5-2.06-1.68-2.06-1.62 0-2.17 1.39-2.17 2.91v3.57h-.68Z" stroke="none"/><path clip-path="url(#c)" d="M210.33 98.96h.68v7h-.68Zm0-3.32h.68v1.36h-.68Z" stroke="none"/><path clip-path="url(#c)" d="M213.36 100.72c0-.62 0-1.21-.01-1.77h.67c.03.22.04 1.13.03 1.33.3-.71.86-1.5 2.25-1.5 1.21 0 2.28.7 2.28 2.63v4.54h-.68v-4.43c0-1.25-.5-2.06-1.68-2.06-1.61 0-2.17 1.39-2.17 2.91v3.57h-.68Z" stroke="none"/><path clip-path="url(#c)" d="M221.11 102.43c0 1.67.85 2.87 2.16 2.87 1.7 0 2.21-1.16 2.21-2.98 0-1.85-.54-2.87-2.17-2.87-1.56 0-2.2 1.39-2.2 2.98m5.01 3.05c0 2.24-.96 3.42-2.93 3.42-1.76 0-2.5-1.02-2.66-2.09h.69c.24.97 1.02 1.43 1.99 1.43 1.76 0 2.25-1.18 2.25-2.95v-.73c-.37.91-1.03 1.4-2.27 1.4-1.59 0-2.81-1.33-2.81-3.5 0-2.35 1.3-3.67 2.9-3.67 1.38 0 1.98.67 2.17 1.23.01-.41.03-.9.04-1.07h.64c0 .25-.03 1.36-.03 2.03Z" stroke="none"/><path clip-path="url(#c)" d="M227.49 107.56c.67-1.36.91-2.6.95-3.39h.68c-.1 1.16-.53 2.55-1.02 3.39Z" stroke="none"/><path clip-path="url(#c)" d="M238.95 101.93c-.01-1.39-.75-2.48-2.08-2.48-1.4 0-2.04 1.01-2.18 2.48Zm-4.3.62c.01 1.81.9 2.93 2.2 2.93 1.28 0 1.71-.74 1.95-1.32h.69c-.29.92-1 1.98-2.67 1.98-2.06 0-2.86-1.84-2.86-3.61 0-2 .96-3.73 2.94-3.73 2.09 0 2.75 1.86 2.75 3.18 0 .2 0 .39-.01.57Z" stroke="none"/><path clip-path="url(#c)" d="M241.44 100.72c0-.62 0-1.21-.01-1.77h.67c.03.22.04 1.13.03 1.33.3-.71.86-1.5 2.25-1.5 1.21 0 2.28.7 2.28 2.63v4.54h-.68v-4.43c0-1.25-.5-2.06-1.68-2.06-1.62 0-2.17 1.39-2.17 2.91v3.57h-.68Z" stroke="none"/><path clip-path="url(#c)" d="M249.19 102.43c0 1.67.86 2.87 2.16 2.87 1.7 0 2.21-1.16 2.21-2.98 0-1.85-.54-2.87-2.17-2.87-1.56 0-2.2 1.39-2.2 2.98m5.01 3.05c0 2.24-.96 3.42-2.93 3.42-1.76 0-2.5-1.02-2.66-2.09h.69c.25.97 1.02 1.43 2 1.43 1.76 0 2.25-1.18 2.25-2.95v-.73c-.37.91-1.03 1.4-2.27 1.4-1.59 0-2.81-1.33-2.81-3.5 0-2.35 1.3-3.67 2.9-3.67 1.38 0 1.98.67 2.17 1.23.01-.41.03-.9.04-1.07h.64c0 .25-.03 1.36-.03 2.03Z" stroke="none"/><path clip-path="url(#c)" d="M260.41 102.39h-1.33c-1.5 0-2.44.41-2.44 1.61 0 .88.61 1.49 1.56 1.49 1.94 0 2.21-1.33 2.21-2.84Zm.67 2.24c0 .62.05 1.11.1 1.33h-.65c-.05-.17-.09-.48-.12-1.08-.23.52-.83 1.25-2.22 1.25-1.57 0-2.25-1.05-2.25-2.1 0-1.54 1.15-2.24 3.19-2.24h1.29v-.71c0-.7-.2-1.64-1.75-1.64-1.37 0-1.57.74-1.72 1.32h-.68c.08-.77.54-1.96 2.42-1.96 1.55 0 2.42.67 2.42 2.21Z" stroke="none"/><path clip-path="url(#c)" d="M263.62 102.43c0 1.67.85 2.87 2.16 2.87 1.7 0 2.21-1.16 2.21-2.98 0-1.85-.54-2.87-2.17-2.87-1.56 0-2.2 1.39-2.2 2.98m5.01 3.05c0 2.24-.96 3.42-2.93 3.42-1.76 0-2.5-1.02-2.66-2.09h.69c.24.97 1.02 1.43 1.99 1.43 1.76 0 2.25-1.18 2.25-2.95v-.73c-.37.91-1.03 1.4-2.27 1.4-1.59 0-2.81-1.33-2.81-3.5 0-2.35 1.3-3.67 2.9-3.67 1.38 0 1.98.67 2.17 1.23.01-.41.03-.9.04-1.07h.64c0 .25-.03 1.36-.03 2.03Z" stroke="none"/><path clip-path="url(#c)" d="M275.44 101.93c-.01-1.39-.75-2.48-2.08-2.48-1.4 0-2.04 1.01-2.18 2.48Zm-4.3.62c.01 1.81.9 2.93 2.2 2.93 1.28 0 1.71-.74 1.95-1.32h.69c-.29.92-1 1.98-2.67 1.98-2.06 0-2.86-1.84-2.86-3.61 0-2 .96-3.73 2.94-3.73 2.09 0 2.75 1.86 2.75 3.18 0 .2 0 .39-.01.57Z" stroke="none"/><path clip-path="url(#c)" d="M277.93 100.76c0-.6 0-1.26-.01-1.81h.67c.01.24.04.84.03 1.25.29-.7.91-1.41 2.04-1.41.95 0 1.7.49 1.97 1.39.34-.73 1.02-1.39 2.21-1.39 1.04 0 2.13.62 2.13 2.56v4.61h-.68v-4.52c0-.94-.33-1.96-1.59-1.96-1.32 0-1.91 1.09-1.91 2.45v4.03h-.67v-4.51c0-1.02-.3-1.98-1.55-1.98-1.32 0-1.95 1.21-1.95 2.63v3.85h-.68Z" stroke="none"/><path clip-path="url(#c)" d="M293.75 101.93c-.01-1.39-.75-2.48-2.07-2.48-1.4 0-2.04 1.01-2.18 2.48Zm-4.3.62c.01 1.81.89 2.93 2.2 2.93 1.27 0 1.71-.74 1.95-1.32h.69c-.28.92-1 1.98-2.67 1.98-2.06 0-2.86-1.84-2.86-3.61 0-2 .96-3.73 2.94-3.73 2.09 0 2.75 1.86 2.75 3.18 0 .2 0 .39-.01.57Z" stroke="none"/><path clip-path="url(#c)" d="M296.24 100.72c0-.62 0-1.21-.01-1.77h.66c.03.22.04 1.13.03 1.33.3-.71.86-1.5 2.25-1.5 1.21 0 2.28.7 2.28 2.63v4.54h-.68v-4.43c0-1.25-.5-2.06-1.68-2.06-1.61 0-2.17 1.39-2.17 2.91v3.57h-.68Z" stroke="none"/><path clip-path="url(#c)" d="M302.75 98.96h1.26V96.77h.68v2.18h1.61v.66h-1.61v4.55c0 .79.16 1.23.81 1.23.2 0 .49-.01.71-.08v.62c-.23.1-.56.13-.84.13-.87 0-1.36-.45-1.36-1.57V99.62h-1.26Z" stroke="none"/><path clip-path="url(#c)" d="M307.35 107.56c.66-1.36.91-2.6.95-3.39h.68c-.1 1.16-.53 2.55-1.02 3.39Z" stroke="none"/><path clip-path="url(#c)" d="M30.65 120.39H29.32c-1.5 0-2.44.41-2.44 1.61 0 .88.61 1.49 1.56 1.49 1.94 0 2.21-1.33 2.21-2.84Zm.67 2.24c0 .62.05 1.11.09 1.33h-.65c-.05-.17-.09-.48-.12-1.08-.23.52-.83 1.25-2.22 1.25-1.57 0-2.25-1.05-2.25-2.1 0-1.54 1.15-2.24 3.19-2.24h1.29v-.71c0-.7-.2-1.64-1.75-1.64-1.37 0-1.57.74-1.72 1.32h-.68c.08-.77.54-1.96 2.42-1.96 1.55 0 2.42.67 2.42 2.21Z" stroke="none"/><path clip-path="url(#c)" d="M33.68 118.72c0-.62 0-1.21-.01-1.77h.67c.03.22.04 1.13.03 1.33.3-.71.85-1.5 2.25-1.5 1.21 0 2.28.7 2.28 2.63v4.54h-.68v-4.43c0-1.25-.5-2.06-1.68-2.06-1.61 0-2.17 1.39-2.17 2.91v3.57h-.68Z" stroke="none"/><path clip-path="url(#c)" d="M41.42 120.51c0 1.92.96 2.95 2.13 2.95 1.79 0 2.28-1.27 2.28-3.18 0-1.81-.42-2.84-2.16-2.84-1.34 0-2.25 1.11-2.25 3.07m5.06-6.88v8.31c0 .67 0 1.32.01 2.02h-.65c-.03-.17-.04-.83-.04-1.18-.34.85-1.1 1.34-2.28 1.34-1.76 0-2.82-1.48-2.82-3.59 0-2.16 1.15-3.75 3-3.75 1.36 0 1.9.6 2.1 1.05v-4.2Z" stroke="none"/><path clip-path="url(#c)" d="M57.56 120.3c0-1.62-.76-2.84-2.1-2.84-1.64 0-2.32 1.07-2.32 2.97 0 1.88.53 3.04 2.22 3.04 1.41 0 2.2-1.23 2.2-3.16m-4.38 2.62v3.84H52.5v-8.08c0-.57 0-1.19-.01-1.72h.67c.03.27.03.69.03 1.26.42-.84 1.17-1.43 2.39-1.43 1.6 0 2.71 1.39 2.71 3.49 0 2.52-1.3 3.85-2.94 3.85-1.19 0-1.82-.55-2.16-1.2" stroke="none"/><path clip-path="url(#c)" d="M60.36 120.46c0 1.67.87 3.01 2.31 3.01 1.46 0 2.29-1.25 2.29-3.01 0-1.65-.81-3.01-2.32-3.01-1.55 0-2.28 1.33-2.28 3.01m5.32-.01c0 1.95-1.04 3.68-3.06 3.68-1.83 0-2.97-1.55-2.97-3.67 0-2 1.07-3.67 3.04-3.67 1.8 0 3 1.46 3 3.66" stroke="none"/><path clip-path="url(#c)" d="M67.63 122.03c.23.91.85 1.46 1.93 1.46 1.21 0 1.7-.58 1.7-1.36 0-.8-.33-1.19-1.85-1.57-1.75-.43-2.18-.98-2.18-1.9 0-.97.71-1.86 2.24-1.86s2.26.97 2.37 1.96h-.68c-.12-.59-.57-1.32-1.72-1.32-1.18 0-1.52.6-1.52 1.16 0 .64.33.97 1.67 1.3 1.91.48 2.39 1.12 2.39 2.17 0 1.27-1 2.06-2.43 2.06-1.55 0-2.42-.84-2.61-2.1Z" stroke="none"/><path clip-path="url(#c)" d="M72.73 116.96h1.26v-2.18h.68v2.18h1.61v.66H74.67v4.55c0 .79.16 1.23.81 1.23.2 0 .49-.01.71-.08v.62c-.23.1-.56.13-.84.13-.87 0-1.36-.45-1.36-1.57v-4.87H72.73Z" stroke="none"/><path clip-path="url(#c)" d="M77.34 120.72h3.42v-.69H77.34Z" fill-rule="evenodd" stroke="none"/><path clip-path="url(#c)" d="M87.37 119.93c-.01-1.39-.75-2.48-2.08-2.48-1.4 0-2.03 1.01-2.18 2.48Zm-4.3.62c.01 1.81.9 2.93 2.2 2.93 1.28 0 1.71-.74 1.95-1.32h.69c-.29.92-1 1.98-2.67 1.98-2.06 0-2.86-1.84-2.86-3.61 0-2 .96-3.73 2.94-3.73 2.09 0 2.75 1.86 2.75 3.18 0 .2 0 .39-.01.57Z" stroke="none"/><path clip-path="url(#c)" d="M89.89 116.96c1.1 3.21 1.86 5.39 2.12 6.29h.01c.15-.52.91-2.61 2.22-6.29h.72l-2.56 7h-.81l-2.42-7Z" stroke="none"/><path clip-path="url(#c)" d="M100.87 119.93c-.01-1.39-.75-2.48-2.07-2.48-1.4 0-2.04 1.01-2.18 2.48Zm-4.3.62c.01 1.81.9 2.93 2.2 2.93 1.28 0 1.71-.74 1.95-1.32h.69c-.29.92-1 1.98-2.67 1.98-2.06 0-2.86-1.84-2.86-3.61 0-2 .96-3.73 2.94-3.73 2.09 0 2.75 1.86 2.75 3.18 0 .2 0 .39-.01.57Z" stroke="none"/><path clip-path="url(#c)" d="M103.37 118.72c0-.62 0-1.21-.01-1.77h.67c.03.22.04 1.13.03 1.33.3-.71.86-1.5 2.25-1.5 1.21 0 2.28.7 2.28 2.63v4.54h-.68v-4.43c0-1.25-.5-2.06-1.68-2.06-1.62 0-2.17 1.39-2.17 2.91v3.57h-.68Z" stroke="none"/><path clip-path="url(#c)" d="M109.87 116.96h1.26v-2.18h.68v2.18h1.61v.66h-1.61v4.55c0 .79.16 1.23.81 1.23.2 0 .49-.01.71-.08v.62c-.23.1-.56.13-.84.13-.87 0-1.36-.45-1.36-1.57v-4.87h-1.26Z" stroke="none"/><path clip-path="url(#c)" d="M118.6 116.96h.68v7h-.68Zm0-3.32h.68v1.36h-.68Z" stroke="none"/><path clip-path="url(#c)" d="M121.64 118.72c0-.62 0-1.21-.01-1.77h.66c.03.22.04 1.13.03 1.33.3-.71.85-1.5 2.25-1.5 1.21 0 2.28.7 2.28 2.63v4.54h-.68v-4.43c0-1.25-.5-2.06-1.68-2.06-1.61 0-2.17 1.39-2.17 2.91v3.57h-.68Z" stroke="none"/><path clip-path="url(#c)" d="M129.16 122.03c.23.91.85 1.46 1.93 1.46 1.21 0 1.7-.58 1.7-1.36 0-.8-.33-1.19-1.85-1.57-1.75-.43-2.18-.98-2.18-1.9 0-.97.71-1.86 2.24-1.86s2.26.97 2.37 1.96h-.68c-.12-.59-.57-1.32-1.72-1.32-1.18 0-1.52.6-1.52 1.16 0 .64.32.97 1.67 1.3 1.91.48 2.39 1.12 2.39 2.17 0 1.27-1 2.06-2.43 2.06-1.55 0-2.42-.84-2.61-2.1Z" stroke="none"/><path clip-path="url(#c)" d="M135.32 116.96H136v7h-.68Zm0-3.32H136v1.36h-.68Z" stroke="none"/><path clip-path="url(#c)" d="M138.53 120.43c0 1.67.85 2.87 2.16 2.87 1.7 0 2.21-1.16 2.21-2.98 0-1.85-.54-2.87-2.17-2.87-1.56 0-2.2 1.39-2.2 2.98m5.01 3.05c0 2.24-.96 3.42-2.93 3.42-1.76 0-2.5-1.02-2.66-2.09h.69c.24.97 1.02 1.43 1.99 1.43 1.76 0 2.25-1.18 2.25-2.95v-.73c-.37.91-1.03 1.4-2.26 1.4-1.59 0-2.81-1.33-2.81-3.5 0-2.35 1.3-3.67 2.9-3.67 1.38 0 1.98.67 2.17 1.23.01-.41.03-.9.04-1.07h.64c0 .25-.03 1.36-.03 2.03Z" stroke="none"/><path clip-path="url(#c)" d="M146.57 113.64v4.5c.38-.73 1.04-1.35 2.24-1.35.96 0 2.29.5 2.29 2.72v4.45h-.68v-4.31c0-1.39-.61-2.17-1.74-2.17-1.34 0-2.12.85-2.12 2.58v3.91h-.68V113.64Z" stroke="none"/><path clip-path="url(#c)" d="M152.4 116.96h1.26v-2.18h.68v2.18h1.61v.66h-1.61v4.55c0 .79.16 1.23.81 1.23.2 0 .49-.01.71-.08v.62c-.23.1-.56.13-.84.13-.87 0-1.36-.45-1.36-1.57v-4.87H152.4Z" stroke="none"/><path clip-path="url(#c)" d="M157.7 122.03c.23.91.85 1.46 1.93 1.46 1.21 0 1.7-.58 1.7-1.36 0-.8-.33-1.19-1.84-1.57-1.75-.43-2.18-.98-2.18-1.9 0-.97.71-1.86 2.24-1.86s2.26.97 2.37 1.96h-.68c-.12-.59-.57-1.32-1.72-1.32-1.18 0-1.52.6-1.52 1.16 0 .64.32.97 1.67 1.3 1.91.48 2.39 1.12 2.39 2.17 0 1.27-1 2.06-2.43 2.06-1.55 0-2.41-.84-2.6-2.1Z" stroke="none"/><path clip-path="url(#c)" d="M163.74 123.96h.68v-1.81h-.68Z" fill-rule="evenodd" stroke="none"/><path clip-path="url(#c)" d="M18.09 132H5.5V5.5H18.09" fill="none" stroke="#FF00A4" stroke-linecap="butt"/></g></g></svg>