<?xml version="1.0" encoding="UTF-8"?><!DOCTYPE svg PUBLIC "-//W3C//DTD SVG 1.0//EN" "http://www.w3.org/TR/2001/REC-SVG-20010904/DTD/svg10.dtd" []><svg xmlns="http://www.w3.org/2000/svg" xmlns:xlink="http://www.w3.org/1999/xlink" height="27" stroke="#000" stroke-linecap="square" stroke-miterlimit="10" viewBox="0 0 108.27 27.03" width="108"><defs><clipPath id="a"><path d="M0 0V27.03H108.27V0Z"/></clipPath><clipPath clip-path="url(#a)" id="b"><path d="M-702.66 85.59H257.46v-540H-702.66Z"/></clipPath><clipPath clip-path="url(#b)" id="c"><path d="M-702.66 85.59H257.35v-540H-702.66Z"/></clipPath></defs><g><g fill="#FB03A0" stroke="none"><path clip-path="url(#c)" d="M5 22.03h98.27V5H5Z" fill-rule="evenodd"/><path clip-path="url(#c)" d="M22.16 14.35c.07.84.59 1.27 1.48 1.27.83 0 1.38-.38 1.38-1.14 0-.57-.28-.92-1.29-1.31-1.16-.44-1.57-.88-1.57-1.61 0-.91.65-1.74 2.05-1.74 1.39 0 1.99.8 2 1.74h-.78c-.07-.64-.38-1.09-1.27-1.09-.79 0-1.19.46-1.19 1.01 0 .43.2.71 1.14 1.06 1.29.48 1.74 1.03 1.74 1.84 0 .98-.62 1.89-2.29 1.89-1.44 0-2.16-.79-2.19-1.91Z" fill="#fff"/><path clip-path="url(#c)" d="M28.05 9.56h.74l-.21.98h-.74Zm-.43 2.04h.74l-.97 4.56h-.74Z" fill="#fff"/><path clip-path="url(#c)" d="M29.55 12.76c.08-.4.16-.78.23-1.16h.73c-.02.14-.11.65-.14.78.26-.42.7-.87 1.54-.87.87 0 1.41.5 1.13 1.8l-.6 2.86H31.7l.59-2.83c.15-.69-.01-1.16-.7-1.16-.85 0-1.33.78-1.53 1.71l-.48 2.28h-.74Z" fill="#fff"/><path clip-path="url(#c)" d="M34.81 14.34c0 .77.34 1.16.96 1.16.85 0 1.36-.79 1.57-1.74.19-.87-.02-1.6-.96-1.6-1.02 0-1.57 1.11-1.57 2.18m2.82 1.38c-.31 1.45-.76 2.33-2.33 2.33-1.52 0-1.7-.85-1.7-1.38h.75c.01.42.29.78 1.03.78.96 0 1.27-.65 1.51-1.73l.09-.41c-.31.51-.78.83-1.48.83-.91 0-1.48-.63-1.48-1.75 0-1.36.81-2.88 2.31-2.88.79 0 1.2.4 1.29.74.05-.21.14-.52.19-.65h.71c-.09.36-.19.81-.27 1.21Z" fill="#fff"/><path clip-path="url(#c)" d="M42.03 13.94c-.24.01-.55.01-.94.05-.74.08-1.4.28-1.4 1.01 0 .34.23.64.73.64 1 0 1.39-.78 1.59-1.63Zm.5 1.1c-.08.38-.19.95-.21 1.13h-.73c.02-.17.07-.45.12-.7-.23.37-.61.79-1.55.79-.92 0-1.26-.6-1.26-1.15 0-1.3 1.22-1.59 2.14-1.67.47-.04.88-.04 1.11-.05l.06-.31c.09-.43.05-.99-.82-.99-.77 0-.98.4-1.12.75H39.5c.16-.68.66-1.33 1.94-1.33 1.05 0 1.72.47 1.49 1.57Z" fill="#fff"/><path clip-path="url(#c)" d="M47.5 13.32c0-.76-.36-1.15-.95-1.15-.86 0-1.44.85-1.63 1.74-.21 1.01.04 1.7.96 1.7 1.11 0 1.61-1.29 1.61-2.3m-2.89 2.24l-.51 2.4h-.75l1.06-5.01c.14-.62.22-1.06.27-1.34h.73c-.01.1-.08.51-.14.79.32-.49.81-.88 1.55-.88.92 0 1.45.69 1.45 1.73 0 1.49-.85 3.01-2.4 3.01-.74 0-1.12-.35-1.27-.7" fill="#fff"/><path clip-path="url(#c)" d="M49.84 14.42c0 .76.36 1.22 1.03 1.22 1.1 0 1.58-1.3 1.58-2.26 0-.77-.33-1.23-1.03-1.23-1.06 0-1.58 1.3-1.58 2.28m3.38-1.02c0 1.21-.68 2.86-2.44 2.86-1.1 0-1.71-.7-1.71-1.84 0-1.26.77-2.9 2.42-2.9 1.04 0 1.73.67 1.73 1.89" fill="#fff"/><path clip-path="url(#c)" d="M54.53 12.95c.09-.45.19-.93.26-1.35h.72c-.01.12-.08.58-.17.96.33-.64.91-1.05 1.6-1.05l-.17.77c-.87.06-1.52.72-1.74 1.74l-.45 2.14h-.74Z" fill="#fff"/><path clip-path="url(#c)" d="M60.36 13.43c.02-.12.03-.23.03-.33 0-.62-.29-.98-.95-.98-.69 0-1.2.48-1.43 1.31ZM57.89 14c-.02.18-.04.28-.04.43 0 .77.37 1.2 1.01 1.2.67 0 .97-.37 1.18-.75h.78c-.3.71-.85 1.38-2.04 1.38-1.14 0-1.68-.76-1.68-1.81 0-1.28.7-2.93 2.39-2.93 1.22 0 1.63.8 1.63 1.63 0 .29-.03.55-.11.85Z" fill="#fff"/><path clip-path="url(#c)" d="M68.47 13.2H65.55l-.48 2.3h3.34l-.25.67H64.15L65.48 9.9h3.86l-.14.67H66.11l-.42 1.96h2.92Z" fill="#fff"/><path clip-path="url(#c)" d="M73.29 16.17l-1.18-2.59H72.1l-2.14 2.59h-.91l2.73-3.22-1.4-3.04h.84l1.11 2.46h.01l2.1-2.46h.88l-2.66 3.07 1.48 3.19Z" fill="#fff"/><path clip-path="url(#c)" d="M76.52 12.93h1.35c.97 0 1.6-.38 1.6-1.32 0-.73-.49-1.05-1.28-1.05H77.02ZM76.38 9.9h2c1.24 0 1.91.71 1.91 1.66 0 1.36-1 2.02-2.42 2.02h-1.5l-.54 2.58h-.78Z" fill="#fff"/><path clip-path="url(#c)" d="M81.8 13.71c0 1.07.52 1.89 1.66 1.89 1.63 0 2.41-1.69 2.41-3.22 0-1.14-.54-1.91-1.64-1.91-1.65 0-2.43 1.77-2.43 3.24m4.87-1.31c0 1.83-1.02 3.85-3.32 3.85-1.54 0-2.37-1.05-2.37-2.52 0-1.85 1.1-3.92 3.29-3.92 1.56 0 2.39 1.02 2.39 2.59" fill="#fff"/></g></g></svg>