<?xml version="1.0" encoding="UTF-8"?><!DOCTYPE svg PUBLIC "-//W3C//DTD SVG 1.0//EN" "http://www.w3.org/TR/2001/REC-SVG-20010904/DTD/svg10.dtd" []><svg xmlns="http://www.w3.org/2000/svg" xmlns:xlink="http://www.w3.org/1999/xlink" height="31" stroke="#000" stroke-linecap="square" stroke-miterlimit="10" viewBox="0 0 156.92 31.38" width="157"><g><g fill="#fff" stroke="none"><path d="M6.63 10.85c.18.82.73 1.2 1.66 1.2.95 0 1.35-.42 1.35-1.03 0-.67-.36-.99-1.69-1.32C6.03 9.24 5.5 8.54 5.5 7.49c0-1.26.91-2.17 2.62-2.17 1.89 0 2.65 1.07 2.75 2.15H9.47c-.1-.54-.4-1.06-1.39-1.06-.73 0-1.16.32-1.16.93s.35.83 1.57 1.13c2.13.52 2.56 1.35 2.56 2.39 0 1.33-.97 2.29-2.87 2.29-1.86 0-2.78-.98-2.95-2.3Z"/><path d="M11.65 7.39h.88V5.82h1.32V7.39h1.12V8.44H13.86v2.97c0 .47.13.68.59.68.1 0 .26 0 .39-.03v.96c-.28.1-.66.11-.95.11-.99 0-1.36-.54-1.36-1.52V8.44h-.88Z"/><path d="M15.99 8.93c0-.64 0-1.12-.01-1.54h1.3c.02.14.04.66.04 1.05.26-.69.86-1.17 1.79-1.18V8.58c-1.11-.01-1.79.4-1.79 1.91v2.56H15.99Z"/><path d="M23.43 9.63c-.01-.75-.33-1.37-1.14-1.37s-1.14.58-1.21 1.37Zm-2.38.87c0 .86.42 1.59 1.23 1.59.71 0 .92-.33 1.08-.69h1.33c-.2.7-.8 1.78-2.44 1.78-1.78 0-2.53-1.41-2.53-2.88 0-1.74.86-3.03 2.59-3.03 1.84 0 2.46 1.43 2.46 2.77 0 .18 0 .32-.02.47Z"/><path d="M29.05 10.41h-.71c-.97 0-1.4.3-1.4.93 0 .47.29.84.88.84 1.08 0 1.22-.77 1.22-1.61Zm1.29 1.25c0 .53.04 1.24.07 1.38H29.15c-.04-.12-.07-.41-.08-.62-.2.34-.59.75-1.59.75-1.31 0-1.87-.89-1.87-1.76 0-1.28.99-1.87 2.6-1.87h.83V9.16c0-.43-.14-.9-.96-.9-.73 0-.88.34-.96.76H25.87c.08-.93.64-1.77 2.27-1.76 1.42.01 2.2.59 2.2 1.92Z"/><path d="M31.91 8.85c0-.49 0-.98-.01-1.46h1.27c.02.15.05.5.05.74.27-.45.72-.87 1.54-.87.78 0 1.25.42 1.45.91.31-.49.8-.91 1.71-.91.93 0 1.73.58 1.73 2.08v3.71H38.35V9.5c0-.56-.2-1.12-.9-1.12-.73 0-1.02.52-1.02 1.43v3.24h-1.3V9.55c0-.63-.16-1.17-.88-1.17-.71 0-1.04.51-1.04 1.51v3.15H31.91Z"/><path d="M41.21 13.05h1.32V5H41.21Z" fill-rule="evenodd"/><path d="M44.08 7.39h1.32v5.65H44.08Zm0-2.39h1.32V6.34H44.08Z"/><path d="M46.97 8.82c0-.48 0-1-.01-1.42h1.28c.03.15.05.61.05.79.2-.4.64-.92 1.63-.92 1.07 0 1.82.73 1.82 2.18v3.61H50.42V9.59c0-.71-.24-1.21-.97-1.21-.78 0-1.16.52-1.16 1.56v3.1H46.97Z"/><path d="M56.66 9.63c-.01-.75-.33-1.37-1.14-1.37s-1.14.58-1.21 1.37Zm-2.38.87c0 .86.42 1.59 1.23 1.59.71 0 .92-.33 1.08-.69h1.33c-.2.7-.79 1.78-2.44 1.78-1.78 0-2.53-1.41-2.53-2.88 0-1.74.86-3.03 2.59-3.03 1.84 0 2.46 1.43 2.46 2.77 0 .18 0 .32-.02.47Z"/><path d="M63.41 11.88h1.31c1.52 0 2.22-1.15 2.22-2.72 0-1.33-.64-2.56-2.21-2.56H63.41ZM62.03 5.44h2.82c2.12 0 3.52 1.46 3.52 3.71 0 2.23-1.36 3.89-3.58 3.89H62.03Z"/><path d="M72.75 10.41h-.71c-.97 0-1.4.3-1.4.93 0 .47.29.84.88.84 1.08 0 1.22-.77 1.22-1.61Zm1.29 1.25c0 .53.04 1.24.07 1.38H72.85c-.04-.12-.07-.41-.08-.62-.2.34-.59.75-1.59.75-1.31 0-1.87-.89-1.87-1.76 0-1.28.99-1.87 2.6-1.87h.83V9.16c0-.43-.15-.9-.96-.9-.73 0-.88.34-.96.76H69.57c.08-.93.63-1.77 2.27-1.76 1.42.01 2.2.59 2.2 1.92Z"/><path d="M74.93 7.39h.88V5.82h1.32V7.39h1.12V8.44H77.13v2.97c0 .47.13.68.59.68.1 0 .26 0 .39-.03v.96c-.28.1-.66.11-.95.11-.99 0-1.35-.54-1.35-1.52V8.44h-.88Z"/><path d="M82.37 10.41h-.71c-.97 0-1.4.3-1.4.93 0 .47.29.84.88.84 1.08 0 1.22-.77 1.22-1.61Zm1.29 1.25c0 .53.04 1.24.07 1.38H82.47c-.04-.12-.07-.41-.08-.62-.2.34-.59.75-1.59.75-1.31 0-1.87-.89-1.87-1.76 0-1.28.99-1.87 2.6-1.87h.83V9.16c0-.43-.15-.9-.96-.9-.73 0-.88.34-.96.76H79.19c.08-.93.64-1.77 2.27-1.76 1.42.01 2.2.59 2.2 1.92Z"/><path d="M94.36 10.06c0-1.34.02-2.79.05-3.63h-.05c-.34 1.44-1.23 4.23-1.98 6.61H91.19c-.57-2.04-1.5-5.19-1.82-6.63h-.04c.06.89.09 2.5.09 3.8v2.83H88.15V5.44H90.2c.66 2.12 1.44 4.8 1.67 5.88h.01c.18-.91 1.12-3.81 1.83-5.88H95.7v7.61H94.36Z"/><path d="M100.34 10.41h-.71c-.97 0-1.39.3-1.39.93 0 .47.29.84.88.84 1.08 0 1.22-.77 1.22-1.61Zm1.29 1.25c0 .53.04 1.24.07 1.38h-1.26c-.04-.12-.07-.41-.08-.62-.2.34-.59.75-1.59.75-1.31 0-1.87-.89-1.87-1.76 0-1.28.99-1.87 2.6-1.87h.83V9.16c0-.43-.15-.9-.96-.9-.73 0-.88.34-.96.76H97.16c.08-.93.63-1.77 2.27-1.76 1.42.01 2.2.59 2.2 1.92Z"/><path d="M103.21 8.82c0-.48 0-1-.01-1.42h1.28c.03.15.05.61.05.79.2-.4.64-.92 1.63-.92 1.07 0 1.82.73 1.82 2.18v3.61h-1.32V9.59c0-.71-.24-1.21-.97-1.21-.77 0-1.16.52-1.16 1.56v3.1h-1.32Z"/><path d="M112.56 10.41h-.71c-.97 0-1.4.3-1.4.93 0 .47.29.84.88.84 1.08 0 1.22-.77 1.22-1.61Zm1.29 1.25c0 .53.04 1.24.07 1.38h-1.26c-.04-.12-.07-.41-.08-.62-.2.34-.59.75-1.59.75-1.31 0-1.87-.89-1.87-1.76 0-1.28.99-1.87 2.6-1.87h.83V9.16c0-.43-.15-.9-.96-.9-.73 0-.88.34-.96.76h-1.26c.08-.93.64-1.77 2.27-1.76 1.42.01 2.2.59 2.2 1.92Z"/><path d="M116.45 10.17c0 1.05.51 1.7 1.26 1.7 1 0 1.28-.7 1.28-1.76s-.22-1.75-1.25-1.75c-.78 0-1.29.64-1.29 1.8m3.8 2.24c0 1.82-.67 2.92-2.65 2.92-1.88 0-2.32-1.09-2.38-1.77h1.35c.12.47.47.75 1.1.75 1.07 0 1.3-.68 1.3-1.86v-.33c-.29.54-.76.86-1.6.86-1.41 0-2.26-1.19-2.26-2.76 0-1.79 1.03-2.98 2.38-2.98.98 0 1.38.47 1.48.78.01-.19.04-.54.05-.64h1.26c-.01.44-.01 1.08-.01 1.63Z"/><path d="M125.19 9.63c-.01-.75-.33-1.37-1.14-1.37s-1.14.58-1.21 1.37Zm-2.38.87c0 .86.42 1.59 1.23 1.59.71 0 .92-.33 1.08-.69h1.33c-.2.7-.8 1.78-2.44 1.78-1.78 0-2.53-1.41-2.53-2.88 0-1.74.86-3.03 2.59-3.03 1.84 0 2.46 1.43 2.46 2.77 0 .18 0 .32-.02.47Z"/><path d="M127.74 8.85c0-.49 0-.98-.01-1.46h1.27c.02.15.05.5.05.74.27-.45.72-.87 1.54-.87.78 0 1.25.42 1.45.91.31-.49.8-.91 1.71-.91.93 0 1.73.58 1.73 2.08v3.71h-1.29V9.5c0-.56-.2-1.12-.89-1.12-.73 0-1.02.52-1.02 1.43v3.24h-1.3V9.55c0-.63-.16-1.17-.88-1.17-.71 0-1.04.51-1.04 1.51v3.15h-1.31Z"/><path d="M140.41 9.63c-.01-.75-.33-1.37-1.14-1.37s-1.14.58-1.21 1.37Zm-2.38.87c0 .86.42 1.59 1.23 1.59.71 0 .92-.33 1.08-.69h1.33c-.2.7-.8 1.78-2.44 1.78-1.78 0-2.53-1.41-2.53-2.88 0-1.74.86-3.03 2.59-3.03 1.84 0 2.46 1.43 2.46 2.77 0 .18 0 .32-.02.47Z"/><path d="M142.96 8.82c0-.48 0-1-.01-1.42h1.29c.03.15.05.61.05.79.2-.4.64-.92 1.63-.92 1.08 0 1.82.73 1.82 2.18v3.61h-1.32V9.59c0-.71-.24-1.21-.97-1.21-.77 0-1.16.52-1.16 1.56v3.1h-1.32Z"/><path d="M148.6 7.39h.88V5.82h1.32V7.39h1.12V8.44H150.8v2.97c0 .47.13.68.59.68.1 0 .26 0 .39-.03v.96c-.28.1-.66.11-.95.11-.99 0-1.36-.54-1.36-1.52V8.44h-.88Z"/><path d="M9.48 23.13c-.58-1.74-.94-2.78-1.11-3.43H8.36c-.18.71-.57 1.94-1.04 3.43ZM7.01 24.31l-.65 1.94H5l2.54-7.61H9.27l2.65 7.61H10.47l-.68-1.94Z"/><path d="M17.48 24.45c-.2.95-.84 1.93-2.4 1.93-1.64 0-2.53-1.19-2.53-2.92 0-1.65.95-3 2.6-3 1.76 0 2.28 1.3 2.32 1.97h-1.3c-.11-.5-.39-.88-1.05-.88-.79 0-1.23.71-1.23 1.86 0 1.23.46 1.89 1.21 1.89.58 0 .89-.34 1.06-.85Z"/><path d="M18.6 22.13c0-.64 0-1.12-.01-1.54h1.3c.02.14.04.66.04 1.05.26-.69.86-1.17 1.79-1.18v1.32c-1.11-.01-1.79.4-1.79 1.91v2.56H18.6Z"/><path d="M23.66 23.42c0 1.14.5 1.87 1.32 1.87.83 0 1.29-.72 1.29-1.86 0-1.21-.47-1.88-1.31-1.88-.81 0-1.3.64-1.3 1.87m3.96-.01c0 1.68-.96 2.97-2.68 2.97-1.65 0-2.63-1.25-2.63-2.94 0-1.72.99-2.98 2.7-2.98 1.58 0 2.61 1.18 2.61 2.95"/><path d="M29.79 24.57c.13.51.51.8 1.14.8.64 0 .88-.26.88-.66 0-.42-.24-.6-1.11-.82-1.71-.43-2.01-.98-2.01-1.76 0-.82.57-1.67 2.14-1.67s2.14.91 2.2 1.68H31.76c-.06-.26-.24-.7-.99-.7-.59 0-.78.28-.78.57 0 .33.19.49 1.12.71 1.77.43 2.05 1.05 2.05 1.88 0 .96-.71 1.76-2.28 1.76-1.58 0-2.27-.8-2.4-1.8Z"/><path d="M35.27 24.57c.13.51.51.8 1.14.8.64 0 .88-.26.88-.66 0-.42-.24-.6-1.11-.82-1.71-.43-2.01-.98-2.01-1.76 0-.82.57-1.67 2.14-1.67s2.14.91 2.2 1.68H37.24c-.06-.26-.24-.7-.99-.7-.59 0-.78.28-.78.57 0 .33.19.49 1.12.71 1.77.43 2.05 1.05 2.05 1.88 0 .96-.71 1.76-2.28 1.76-1.58 0-2.27-.8-2.4-1.8Z"/><path d="M46.45 23.13c-.59-1.74-.94-2.78-1.11-3.43h-.01c-.18.71-.57 1.94-1.04 3.43Zm-2.47 1.18l-.65 1.94H41.97l2.54-7.61h1.73l2.65 7.61H47.44l-.68-1.94Z"/><path d="M49.88 26.25H51.2V18.2H49.88Z" fill-rule="evenodd"/><path d="M52.75 26.25h1.32V18.2H52.75Z" fill-rule="evenodd"/><path d="M62.26 23.13c-.58-1.74-.94-2.78-1.11-3.43h-.01c-.18.71-.57 1.94-1.04 3.43Zm-2.46 1.18l-.65 1.94H57.78l2.54-7.61h1.73l2.65 7.61H63.25l-.68-1.94Z"/><path d="M66.65 24.57c.13.51.51.8 1.14.8.64 0 .88-.26.88-.66 0-.42-.24-.6-1.11-.82-1.71-.43-2.01-.98-2.01-1.76 0-.82.57-1.67 2.14-1.67s2.15.91 2.2 1.68H68.63c-.06-.26-.24-.7-.99-.7-.59 0-.78.28-.78.57 0 .33.19.49 1.12.71 1.77.43 2.05 1.05 2.05 1.88 0 .96-.71 1.76-2.28 1.76-1.58 0-2.27-.8-2.4-1.8Z"/><path d="M72.14 24.57c.13.51.51.8 1.14.8.64 0 .88-.26.88-.66 0-.42-.24-.6-1.11-.82-1.71-.43-2.01-.98-2.01-1.76 0-.82.57-1.67 2.14-1.67s2.15.91 2.2 1.68H74.11c-.06-.26-.24-.7-.99-.7-.59 0-.78.28-.78.57 0 .33.19.49 1.12.71 1.77.43 2.05 1.05 2.05 1.88 0 .96-.71 1.76-2.28 1.76-1.58 0-2.27-.8-2.4-1.8Z"/><path d="M80.09 22.83c-.01-.75-.33-1.37-1.14-1.37s-1.14.58-1.21 1.37Zm-2.38.87c0 .86.42 1.59 1.23 1.59.71 0 .92-.33 1.08-.7h1.33c-.2.7-.8 1.78-2.44 1.78-1.78 0-2.53-1.41-2.53-2.88 0-1.74.86-3.04 2.59-3.04 1.84 0 2.46 1.43 2.46 2.77 0 .18 0 .32-.02.47Z"/><path d="M82.05 20.59h.88V19.01h1.32v1.58h1.12v1.05H84.26v2.97c0 .47.13.68.59.68.1 0 .26 0 .39-.03v.96c-.28.1-.66.11-.95.11-.99 0-1.35-.54-1.35-1.52V21.64h-.88Z"/><path d="M87.35 24.57c.13.51.51.8 1.14.8.64 0 .88-.26.88-.66 0-.42-.24-.6-1.11-.82-1.71-.43-2.01-.98-2.01-1.76 0-.82.57-1.67 2.14-1.67s2.15.91 2.2 1.68H89.32c-.06-.26-.24-.7-.99-.7-.59 0-.78.28-.78.57 0 .33.19.49 1.12.71 1.77.43 2.05 1.05 2.05 1.88 0 .96-.71 1.76-2.28 1.76-1.58 0-2.27-.8-2.4-1.8Z"/><path d="M101.61 21.49l-1.94 2.78c-.86 1.24-1.46 2.09-2.99 2.09-1.56 0-2.29-1.06-2.29-2.08 0-1.07.65-1.72 2.02-2.41.82-.36 1.48-.77 1.48-1.49 0-.45-.25-.87-.77-.87-.48 0-.79.34-.79.9 0 .46.36.85.83 1.31l4.5 4.54H99.94l-3.91-3.97c-.5-.5-.91-1.06-.91-1.78 0-1.09.77-1.96 2.01-1.96 1.23 0 1.95.86 1.95 1.82 0 .95-.66 1.52-2 2.2-1.06.49-1.33 1.03-1.33 1.57 0 .56.38 1.08 1.07 1.08.8 0 1.16-.39 2.07-1.71l1.36-1.99Z"/><path d="M106.7 24.06c.18.81.74 1.2 1.66 1.2.95 0 1.35-.42 1.35-1.03 0-.67-.36-.99-1.69-1.32-1.91-.47-2.44-1.17-2.44-2.21 0-1.26.91-2.17 2.62-2.17 1.89 0 2.65 1.07 2.75 2.15h-1.4c-.1-.54-.4-1.06-1.39-1.06-.73 0-1.16.32-1.16.93s.35.83 1.57 1.13c2.13.52 2.57 1.35 2.57 2.4 0 1.33-.97 2.29-2.87 2.29-1.86 0-2.79-.98-2.95-2.29Z"/><path d="M113.46 23.42c0 1.14.5 1.87 1.32 1.87.83 0 1.29-.72 1.29-1.86 0-1.21-.47-1.88-1.31-1.88-.81 0-1.3.64-1.3 1.87m3.96-.01c0 1.68-.96 2.97-2.68 2.97-1.65 0-2.63-1.25-2.63-2.94 0-1.72.99-2.98 2.7-2.98 1.58 0 2.61 1.18 2.61 2.95"/><path d="M123.32 24.6c0 .55 0 1.2.01 1.64h-1.3c-.02-.15-.03-.47-.04-.72-.31.59-.8.85-1.56.85-1.05 0-1.82-.62-1.82-2.09v-3.7h1.32v3.42c0 .67.2 1.24.94 1.24.8 0 1.12-.45 1.12-1.66V20.59h1.32Z"/><path d="M124.87 22.13c0-.64 0-1.12-.01-1.54h1.3c.02.14.03.66.03 1.05.26-.69.87-1.17 1.79-1.18v1.32c-1.11-.01-1.79.4-1.79 1.91v2.56h-1.32Z"/><path d="M133.53 24.45c-.2.95-.84 1.93-2.39 1.93-1.64 0-2.53-1.19-2.53-2.92 0-1.65.95-3 2.61-3 1.76 0 2.28 1.3 2.32 1.97h-1.3c-.11-.5-.39-.88-1.05-.88-.79 0-1.23.71-1.23 1.86 0 1.23.45 1.89 1.21 1.89.58 0 .89-.34 1.06-.85Z"/><path d="M138.08 22.83c-.01-.75-.33-1.37-1.14-1.37s-1.14.58-1.21 1.37Zm-2.38.87c0 .86.42 1.59 1.23 1.59.71 0 .92-.33 1.08-.7h1.33c-.2.7-.8 1.78-2.44 1.78-1.78 0-2.53-1.41-2.53-2.88 0-1.74.86-3.04 2.59-3.04 1.84 0 2.46 1.43 2.46 2.77 0 .18 0 .32-.02.47Z"/><path d="M141.54 24.57c.13.51.51.8 1.14.8.64 0 .88-.26.88-.66 0-.42-.24-.6-1.11-.82-1.71-.43-2.01-.98-2.01-1.76 0-.82.57-1.67 2.14-1.67s2.14.91 2.2 1.68h-1.26c-.06-.26-.24-.7-.99-.7-.59 0-.77.28-.77.57 0 .33.19.49 1.12.71 1.77.43 2.05 1.05 2.05 1.88 0 .96-.71 1.76-2.28 1.76-1.58 0-2.27-.8-2.4-1.8Z"/><path d="M146.08 26.25h1.41V24.42h-1.41Z" fill-rule="evenodd"/></g></g></svg>