<?xml version="1.0" encoding="UTF-8"?><!DOCTYPE svg PUBLIC "-//W3C//DTD SVG 1.0//EN" "http://www.w3.org/TR/2001/REC-SVG-20010904/DTD/svg10.dtd" []><svg xmlns="http://www.w3.org/2000/svg" xmlns:xlink="http://www.w3.org/1999/xlink" height="34" stroke="#000" stroke-linecap="square" stroke-miterlimit="10" viewBox="0 0 473.47 33.73" width="473"><defs><clipPath id="a"><path d="M0 0V33.73H473.47V0Z"/></clipPath><clipPath clip-path="url(#a)" id="b"><path d="M-393.79 345.78H566.33v-540H-393.79Z"/></clipPath></defs><g><g fill="#fff" stroke="none"><path clip-path="url(#b)" d="M9.63 10.01c-.86-2.29-1.3-3.39-1.45-3.9H8.17c-.19.58-.68 1.95-1.38 3.9Zm-3.05.55l-.98 2.66H5l2.83-7.7h.7l2.95 7.7h-.65l-1-2.66Z"/><path clip-path="url(#b)" d="M11.72 7.72h1.02V6h.55V7.72H14.6v.52H13.29v3.58c0 .62.13.97.66.97.16 0 .4-.01.57-.07v.48c-.19.08-.45.1-.68.1-.7 0-1.1-.35-1.1-1.23V8.23H11.72Z"/><path clip-path="url(#b)" d="M18.57 9.33c0 1.77.98 3.44 2.83 3.44 1.99 0 2.83-1.63 2.83-3.45 0-1.79-.95-3.37-2.8-3.37-1.98 0-2.85 1.64-2.85 3.38m6.29-.02c0 2.1-1.12 4.02-3.5 4.02-2.17 0-3.43-1.75-3.43-3.96 0-2.18 1.22-3.96 3.51-3.96 2.11 0 3.42 1.66 3.42 3.91"/><path clip-path="url(#b)" d="M26.49 9.21c0-.92-.01-1.32-.01-1.5h.54c.01.18.02.53.02 1.23.32-.83 1.02-1.32 1.91-1.36v.59c-1.14.08-1.91.87-1.91 2.18v2.86h-.55Z"/><path clip-path="url(#b)" d="M34.12 11.6c-.26.97-.9 1.75-2.13 1.75-1.38 0-2.35-1.02-2.35-2.86 0-1.51.8-2.9 2.42-2.9 1.4 0 1.97.99 2.07 1.76h-.56c-.17-.64-.58-1.24-1.52-1.24-1.17 0-1.83.99-1.83 2.37 0 1.31.62 2.37 1.77 2.37.8 0 1.29-.41 1.57-1.23Z"/><path clip-path="url(#b)" d="M36.05 5.11V8.64c.31-.57.85-1.06 1.82-1.06.78 0 1.86.4 1.86 2.14v3.5h-.55V9.83c0-1.09-.49-1.71-1.41-1.71-1.09 0-1.72.67-1.72 2.02v3.07H35.5V5.11Z"/><path clip-path="url(#b)" d="M41.64 7.72h.55v5.5h-.55Zm0-2.61h.55V6.18h-.55Z"/><path clip-path="url(#b)" d="M44.25 10.51c0 1.51.78 2.32 1.73 2.32 1.45 0 1.85-1 1.85-2.5 0-1.42-.34-2.23-1.75-2.23-1.09 0-1.83.87-1.83 2.41m4.1-5.4v6.52c0 .53 0 1.03.01 1.58h-.53c-.02-.13-.03-.65-.03-.92-.28.67-.89 1.06-1.85 1.06-1.43 0-2.29-1.17-2.29-2.82 0-1.69.94-2.95 2.43-2.95 1.1 0 1.54.47 1.7.83V5.11Z"/><path clip-path="url(#b)" d="M56.66 10.01c-.86-2.29-1.3-3.39-1.45-3.9H55.2c-.19.58-.68 1.95-1.38 3.9Zm-3.05.55l-.98 2.66h-.61l2.83-7.7h.7l2.95 7.7h-.65l-1-2.66Z"/><path clip-path="url(#b)" d="M60.07 11.7c.19.72.69 1.14 1.56 1.14.98 0 1.38-.45 1.38-1.07 0-.63-.27-.93-1.5-1.23-1.42-.34-1.77-.77-1.77-1.5 0-.76.57-1.46 1.82-1.46s1.84.76 1.92 1.54h-.55c-.1-.46-.46-1.03-1.4-1.03-.96 0-1.23.47-1.23.91 0 .51.26.76 1.35 1.02 1.55.37 1.94.88 1.94 1.7 0 1-.81 1.62-1.97 1.62-1.25 0-1.96-.66-2.11-1.65Z"/><path clip-path="url(#b)" d="M65.2 11.7c.19.72.69 1.14 1.56 1.14.98 0 1.38-.45 1.38-1.07 0-.63-.27-.93-1.5-1.23-1.42-.34-1.77-.77-1.77-1.5 0-.76.57-1.46 1.82-1.46s1.84.76 1.92 1.54h-.55c-.1-.46-.46-1.03-1.4-1.03-.96 0-1.23.47-1.23.91 0 .51.26.76 1.35 1.02 1.55.37 1.94.88 1.94 1.7 0 1-.81 1.62-1.97 1.62-1.25 0-1.96-.66-2.11-1.65Z"/><path clip-path="url(#b)" d="M73.8 10.05c-.01-1.09-.6-1.95-1.68-1.95-1.13 0-1.65.79-1.77 1.95Zm-3.49.48c.01 1.42.73 2.3 1.78 2.3 1.03 0 1.39-.58 1.58-1.03h.56c-.23.72-.81 1.55-2.17 1.55-1.67 0-2.32-1.44-2.32-2.84 0-1.57.78-2.93 2.39-2.93 1.69 0 2.23 1.46 2.23 2.5 0 .15 0 .31-.01.45Z"/><path clip-path="url(#b)" d="M75.82 9.14c0-.47 0-.99-.01-1.42h.54c.01.19.03.66.02.98.23-.55.74-1.11 1.65-1.11.77 0 1.38.39 1.6 1.09.27-.57.82-1.09 1.79-1.09.85 0 1.73.49 1.73 2.01v3.62h-.55V9.66c0-.74-.26-1.54-1.29-1.54-1.07 0-1.55.86-1.55 1.93v3.17h-.54V9.67c0-.8-.24-1.55-1.26-1.55-1.07 0-1.58.95-1.58 2.07v3.02h-.55Z"/><path clip-path="url(#b)" d="M89.16 10.36c0-1.38-.68-2.26-1.73-2.26-1.38 0-1.86.93-1.86 2.38 0 1.3.43 2.35 1.79 2.35 1.11 0 1.79-.92 1.79-2.48m-4.1-5.25h.55V8.64c.26-.55.8-1.06 1.88-1.06 1.3 0 2.26 1.07 2.26 2.76 0 1.74-.86 3-2.4 3-.92 0-1.45-.37-1.74-1 0 .35-.01.71-.02.87h-.54c.01-.63.01-1.25.01-1.88Z"/><path clip-path="url(#b)" d="M91.21 13.22h.55V5.11h-.55Z" fill-rule="evenodd"/><path clip-path="url(#b)" d="M93.64 7.72c1.11 3.15 1.6 4.44 1.78 5.04h.01c.22-.67.66-1.95 1.73-5.04h.57l-2.07 5.82c-.58 1.63-.98 1.99-1.97 1.99-.2 0-.33-.01-.51-.03v-.55c.17.02.32.03.49.03.79 0 1.05-.39 1.45-1.52l-2.1-5.74Z"/><path clip-path="url(#b)" d="M97.56 14.47c.54-1.07.74-2.05.77-2.66h.55c-.08.91-.43 2-.82 2.66Z"/><path clip-path="url(#b)" d="M102.8 7.72c.81 2.84 1.29 4.47 1.38 4.95h.01c.09-.44.64-2.17 1.5-4.95h.59c1.02 3.4 1.33 4.38 1.43 4.81h.01c.15-.6.41-1.43 1.42-4.81h.58l-1.74 5.5h-.61c-.6-1.95-1.31-4.33-1.42-4.84h-.01c-.11.54-.74 2.51-1.45 4.84h-.66l-1.62-5.5Z"/><path clip-path="url(#b)" d="M114.57 10.05c-.01-1.09-.6-1.95-1.68-1.95-1.13 0-1.65.79-1.77 1.95Zm-3.49.48c.01 1.42.73 2.3 1.78 2.3 1.03 0 1.39-.58 1.58-1.03h.56c-.23.72-.82 1.55-2.17 1.55-1.67 0-2.32-1.44-2.32-2.84 0-1.57.78-2.93 2.39-2.93 1.69 0 2.23 1.46 2.23 2.5 0 .15 0 .31-.01.45Z"/><path clip-path="url(#b)" d="M123.09 11.61c0 .54.01 1.4.01 1.61h-.53c-.02-.14-.03-.51-.03-.96-.23.65-.79 1.09-1.77 1.09-.79 0-1.8-.31-1.8-1.99V7.72h.54v3.51c0 .8.25 1.58 1.34 1.58 1.23 0 1.69-.69 1.69-2.27V7.72h.55Z"/><path clip-path="url(#b)" d="M125 9.1c0-.48 0-.95-.01-1.39h.54c.02.18.03.89.02 1.04.24-.56.69-1.18 1.83-1.18.98 0 1.85.55 1.85 2.07v3.56h-.55V9.74c0-.98-.41-1.62-1.36-1.62-1.31 0-1.76 1.09-1.76 2.29v2.8H125Z"/><path clip-path="url(#b)" d="M131.28 10.51c0 1.51.78 2.32 1.73 2.32 1.45 0 1.85-1 1.85-2.5 0-1.42-.34-2.23-1.75-2.23-1.09 0-1.83.87-1.83 2.41m4.1-5.4v6.52c0 .53 0 1.03.01 1.58h-.53c-.02-.13-.03-.65-.03-.92-.28.67-.89 1.06-1.85 1.06-1.43 0-2.29-1.17-2.29-2.82 0-1.69.93-2.95 2.43-2.95 1.1 0 1.54.47 1.71.83V5.11Z"/><path clip-path="url(#b)" d="M140.91 10.05c-.01-1.09-.6-1.95-1.68-1.95-1.13 0-1.65.79-1.77 1.95Zm-3.49.48c.01 1.42.73 2.3 1.78 2.3 1.03 0 1.39-.58 1.58-1.03h.56c-.23.72-.81 1.55-2.17 1.55-1.67 0-2.32-1.44-2.32-2.84 0-1.57.78-2.93 2.39-2.93 1.69 0 2.23 1.46 2.23 2.5 0 .15 0 .31-.01.45Z"/><path clip-path="url(#b)" d="M142.93 9.21c0-.92-.01-1.32-.01-1.5h.54c.01.18.02.53.02 1.23.32-.83 1.02-1.32 1.91-1.36v.59c-1.14.08-1.91.87-1.91 2.18v2.86h-.55Z"/><path clip-path="url(#b)" d="M146.65 11.7c.19.72.69 1.14 1.56 1.14.98 0 1.38-.45 1.38-1.07 0-.63-.27-.93-1.5-1.23-1.42-.34-1.77-.77-1.77-1.5 0-.76.57-1.46 1.82-1.46s1.84.76 1.92 1.54h-.55c-.1-.46-.46-1.03-1.4-1.03-.96 0-1.23.47-1.23.91 0 .51.27.76 1.35 1.02 1.55.37 1.94.88 1.94 1.7 0 1-.82 1.62-1.97 1.62-1.25 0-1.96-.66-2.11-1.65Z"/><path clip-path="url(#b)" d="M150.78 7.72h1.02V6h.55V7.72h1.31v.52h-1.31v3.58c0 .62.13.97.66.97.16 0 .4-.01.57-.07v.48c-.19.08-.45.1-.68.1-.7 0-1.1-.35-1.1-1.23V8.23h-1.02Z"/><path clip-path="url(#b)" d="M158.13 10.41h-1.08c-1.22 0-1.98.32-1.98 1.27 0 .69.5 1.17 1.27 1.17 1.57 0 1.79-1.04 1.79-2.23Zm.54 1.76c0 .48.04.87.08 1.04h-.53c-.04-.13-.08-.37-.1-.85-.19.41-.67.98-1.8.98-1.28 0-1.83-.83-1.83-1.65 0-1.21.94-1.76 2.58-1.76h1.05V9.38c0-.55-.16-1.29-1.42-1.29-1.11 0-1.28.58-1.4 1.03h-.55c.07-.61.44-1.54 1.96-1.54 1.25 0 1.96.53 1.96 1.74Z"/><path clip-path="url(#b)" d="M160.6 9.1c0-.48 0-.95-.01-1.39h.54c.02.18.03.89.02 1.04.24-.56.69-1.18 1.83-1.18.98 0 1.85.55 1.85 2.07v3.56h-.55V9.74c0-.98-.41-1.62-1.36-1.62-1.31 0-1.76 1.09-1.76 2.29v2.8h-.55Z"/><path clip-path="url(#b)" d="M166.88 10.51c0 1.51.78 2.32 1.73 2.32 1.45 0 1.85-1 1.85-2.5 0-1.42-.34-2.23-1.75-2.23-1.09 0-1.83.87-1.83 2.41m4.1-5.4v6.52c0 .53 0 1.03.01 1.58h-.53c-.02-.13-.03-.65-.03-.92-.28.67-.89 1.06-1.85 1.06-1.43 0-2.29-1.17-2.29-2.82 0-1.69.94-2.95 2.43-2.95 1.1 0 1.54.47 1.71.83V5.11Z"/><path clip-path="url(#b)" d="M174.45 7.72h1.02V6h.55V7.72h1.31v.52h-1.31v3.58c0 .62.13.97.66.97.16 0 .4-.01.57-.07v.48c-.19.08-.45.1-.68.1-.7 0-1.1-.35-1.1-1.23V8.23h-1.02Z"/><path clip-path="url(#b)" d="M179.08 5.11V8.64c.31-.57.85-1.06 1.82-1.06.78 0 1.86.4 1.86 2.14v3.5h-.55V9.83c0-1.09-.49-1.71-1.41-1.71-1.09 0-1.72.67-1.72 2.02v3.07h-.55V5.11Z"/><path clip-path="url(#b)" d="M187.84 10.41h-1.08c-1.22 0-1.98.32-1.98 1.27 0 .69.5 1.17 1.27 1.17 1.57 0 1.79-1.04 1.79-2.23Zm.54 1.76c0 .48.04.87.08 1.04h-.53c-.04-.13-.08-.37-.1-.85-.19.41-.67.98-1.8.98-1.28 0-1.83-.83-1.83-1.65 0-1.21.94-1.76 2.59-1.76h1.05V9.38c0-.55-.16-1.29-1.42-1.29-1.11 0-1.28.58-1.4 1.03h-.55c.07-.61.44-1.54 1.96-1.54 1.25 0 1.96.53 1.96 1.74Z"/><path clip-path="url(#b)" d="M189.42 7.72h1.02V6h.55V7.72h1.31v.52h-1.31v3.58c0 .62.13.97.66.97.16 0 .4-.01.57-.07v.48c-.19.08-.45.1-.68.1-.7 0-1.1-.35-1.1-1.23V8.23h-1.02Z"/><path clip-path="url(#b)" d="M195.91 9.14c0-.47 0-.99-.01-1.42h.54c.01.19.03.66.02.98.23-.55.74-1.11 1.65-1.11.77 0 1.38.39 1.59 1.09.28-.57.83-1.09 1.79-1.09.85 0 1.73.49 1.73 2.01v3.62h-.55V9.66c0-.74-.26-1.54-1.29-1.54-1.07 0-1.55.86-1.55 1.93v3.17h-.54V9.67c0-.8-.24-1.55-1.26-1.55-1.07 0-1.58.95-1.58 2.07v3.02h-.55Z"/><path clip-path="url(#b)" d="M208.75 10.05c-.01-1.09-.6-1.95-1.68-1.95-1.13 0-1.65.79-1.77 1.95Zm-3.49.48c.01 1.42.73 2.3 1.78 2.3 1.03 0 1.39-.58 1.58-1.03h.56c-.23.72-.81 1.55-2.17 1.55-1.67 0-2.32-1.44-2.32-2.84 0-1.57.78-2.93 2.39-2.93 1.69 0 2.23 1.46 2.23 2.5 0 .15 0 .31-.01.45Z"/><path clip-path="url(#b)" d="M214.01 10.41h-1.08c-1.22 0-1.98.32-1.98 1.27 0 .69.5 1.17 1.27 1.17 1.57 0 1.79-1.04 1.79-2.23Zm.54 1.76c0 .48.04.87.08 1.04h-.53c-.04-.13-.08-.37-.1-.85-.19.41-.67.98-1.8.98-1.28 0-1.83-.83-1.83-1.65 0-1.21.94-1.76 2.59-1.76H214V9.38c0-.55-.16-1.29-1.42-1.29-1.11 0-1.28.58-1.4 1.03h-.55c.07-.61.44-1.54 1.96-1.54 1.25 0 1.96.53 1.96 1.74Z"/><path clip-path="url(#b)" d="M216.47 9.1c0-.48 0-.95-.01-1.39H217c.02.18.03.89.02 1.04.24-.56.69-1.18 1.83-1.18.98 0 1.85.55 1.85 2.07v3.56h-.55V9.74c0-.98-.41-1.62-1.36-1.62-1.31 0-1.76 1.09-1.76 2.29v2.8h-.55Z"/><path clip-path="url(#b)" d="M222.61 7.72h.55v5.5h-.55Zm0-2.61h.55V6.18h-.55Z"/><path clip-path="url(#b)" d="M225.07 9.1c0-.48 0-.95-.01-1.39h.54c.02.18.03.89.02 1.04.24-.56.69-1.18 1.83-1.18.98 0 1.85.55 1.85 2.07v3.56h-.55V9.74c0-.98-.41-1.62-1.36-1.62-1.31 0-1.76 1.09-1.76 2.29v2.8h-.55Z"/><path clip-path="url(#b)" d="M231.35 10.45c0 1.31.69 2.26 1.75 2.26 1.38 0 1.79-.91 1.79-2.34 0-1.45-.44-2.26-1.76-2.26-1.27 0-1.78 1.09-1.78 2.34m4.06 2.4c0 1.76-.78 2.68-2.38 2.68-1.43 0-2.02-.8-2.16-1.64h.56c.2.76.83 1.12 1.62 1.12 1.43 0 1.83-.92 1.83-2.32v-.57c-.3.72-.84 1.1-1.84 1.1-1.29 0-2.28-1.04-2.28-2.75 0-1.85 1.06-2.88 2.35-2.88 1.12 0 1.61.53 1.76.97.01-.32.02-.71.03-.84h.52c0 .2-.02 1.07-.02 1.6Z"/><path clip-path="url(#b)" d="M237.55 13.22V8.23h-.95V7.72h.95V6.94c0-.92.26-1.94 1.5-1.94.16 0 .41.03.54.08v.53c-.16-.04-.43-.07-.59-.07-.65 0-.89.46-.89 1.42v.76h1.2v.52h-1.2v4.98Z"/><path clip-path="url(#b)" d="M244.43 11.61c0 .54.01 1.4.01 1.61h-.53c-.02-.14-.03-.51-.03-.96-.23.65-.79 1.09-1.77 1.09-.79 0-1.8-.31-1.8-1.99V7.72h.54v3.51c0 .8.25 1.58 1.34 1.58 1.23 0 1.69-.69 1.69-2.27V7.72h.55Z"/><path clip-path="url(#b)" d="M246.35 13.22h.55V5.11h-.55Z" fill-rule="evenodd"/><path clip-path="url(#b)" d="M254.8 10.05c-.01-1.09-.6-1.95-1.68-1.95-1.13 0-1.65.79-1.77 1.95Zm-3.49.48c.01 1.42.73 2.3 1.78 2.3 1.03 0 1.39-.58 1.58-1.03h.56c-.23.72-.81 1.55-2.17 1.55-1.67 0-2.32-1.44-2.32-2.84 0-1.57.78-2.93 2.39-2.93 1.69 0 2.23 1.46 2.23 2.5 0 .15 0 .31-.01.45Z"/><path clip-path="url(#b)" d="M256.79 7.72c.91 1.35 1.31 1.96 1.53 2.29h.01c.26-.37.81-1.17 1.61-2.29h.63l-1.92 2.66 1.95 2.84h-.66c-.79-1.18-1.36-2.01-1.63-2.4h-.01c-.21.32-.7 1.07-1.61 2.4h-.64L258 10.42l-1.86-2.71Z"/><path clip-path="url(#b)" d="M265.78 10.35c0-1.28-.62-2.23-1.71-2.23-1.33 0-1.88.84-1.88 2.33 0 1.47.43 2.39 1.81 2.39 1.14 0 1.78-.97 1.78-2.49m-3.55 2.06v3.01h-.55V9.07c0-.45 0-.94-.01-1.35h.54c.02.21.02.54.02.99.34-.66.95-1.12 1.94-1.12 1.3 0 2.2 1.09 2.2 2.74 0 1.98-1.06 3.02-2.39 3.02-.97 0-1.47-.43-1.75-.95"/><path clip-path="url(#b)" d="M271.52 10.05c-.01-1.09-.6-1.95-1.68-1.95-1.13 0-1.65.79-1.77 1.95Zm-3.49.48c.01 1.42.73 2.3 1.78 2.3 1.03 0 1.39-.58 1.58-1.03h.56c-.23.72-.81 1.55-2.17 1.55-1.67 0-2.32-1.44-2.32-2.84 0-1.57.78-2.93 2.39-2.93 1.69 0 2.23 1.46 2.23 2.5 0 .15 0 .31-.01.45Z"/><path clip-path="url(#b)" d="M273.54 9.21c0-.92-.01-1.32-.01-1.5h.54c.01.18.02.53.02 1.23.32-.83 1.02-1.32 1.91-1.36v.59c-1.14.08-1.91.87-1.91 2.18v2.86h-.55Z"/><path clip-path="url(#b)" d="M277.13 7.72h.55v5.5h-.55Zm0-2.61h.55V6.18h-.55Z"/><path clip-path="url(#b)" d="M283.2 10.05c-.01-1.09-.6-1.95-1.68-1.95-1.13 0-1.65.79-1.77 1.95Zm-3.49.48c.01 1.42.72 2.3 1.78 2.3 1.03 0 1.39-.58 1.58-1.03h.56c-.23.72-.81 1.55-2.17 1.55-1.67 0-2.32-1.44-2.32-2.84 0-1.57.78-2.93 2.39-2.93 1.69 0 2.23 1.46 2.23 2.5 0 .15 0 .31-.01.45Z"/><path clip-path="url(#b)" d="M285.22 9.1c0-.48 0-.95-.01-1.39h.54c.02.18.03.89.02 1.04.24-.56.69-1.18 1.83-1.18.98 0 1.85.55 1.85 2.07v3.56h-.55V9.74c0-.98-.41-1.62-1.36-1.62-1.31 0-1.76 1.09-1.76 2.29v2.8h-.55Z"/><path clip-path="url(#b)" d="M295.41 11.6c-.26.97-.9 1.75-2.14 1.75-1.38 0-2.35-1.02-2.35-2.86 0-1.51.8-2.9 2.42-2.9 1.4 0 1.97.99 2.07 1.76h-.56c-.17-.64-.58-1.24-1.52-1.24-1.17 0-1.83.99-1.83 2.37 0 1.31.62 2.37 1.77 2.37.8 0 1.29-.41 1.57-1.23Z"/><path clip-path="url(#b)" d="M300.46 10.05c-.01-1.09-.61-1.95-1.68-1.95-1.13 0-1.65.79-1.77 1.95Zm-3.49.48c.01 1.42.72 2.3 1.78 2.3 1.03 0 1.39-.58 1.58-1.03h.56c-.23.72-.81 1.55-2.17 1.55-1.67 0-2.32-1.44-2.32-2.84 0-1.57.78-2.93 2.39-2.93 1.69 0 2.23 1.46 2.23 2.5 0 .15 0 .31-.01.45Z"/><path clip-path="url(#b)" d="M302.62 11.7c.19.72.69 1.14 1.56 1.14.98 0 1.38-.45 1.38-1.07 0-.63-.27-.93-1.5-1.23-1.42-.34-1.77-.77-1.77-1.5 0-.76.57-1.46 1.82-1.46s1.84.76 1.92 1.54h-.55c-.1-.46-.46-1.03-1.4-1.03-.96 0-1.23.47-1.23.91 0 .51.26.76 1.35 1.02 1.55.37 1.94.88 1.94 1.7 0 1-.82 1.62-1.97 1.62-1.25 0-1.96-.66-2.11-1.65Z"/><path clip-path="url(#b)" d="M310.13 10.51c0 1.51.78 2.32 1.73 2.32 1.45 0 1.85-1 1.85-2.5 0-1.42-.34-2.23-1.75-2.23-1.09 0-1.83.87-1.83 2.41m4.1-5.4v6.52c0 .53 0 1.03.01 1.58h-.53c-.02-.13-.03-.65-.03-.92-.28.67-.89 1.06-1.85 1.06-1.43 0-2.29-1.17-2.29-2.82 0-1.69.94-2.95 2.43-2.95 1.1 0 1.54.47 1.71.83V5.11Z"/><path clip-path="url(#b)" d="M316.29 10.47c0 1.31.7 2.37 1.87 2.37 1.19 0 1.86-.98 1.86-2.37 0-1.3-.66-2.37-1.88-2.37-1.25 0-1.85 1.05-1.85 2.37m4.31-.01c0 1.53-.85 2.89-2.49 2.89-1.48 0-2.41-1.22-2.41-2.88 0-1.57.87-2.88 2.47-2.88 1.46 0 2.43 1.15 2.43 2.87"/><path clip-path="url(#b)" d="M322.08 9.1c0-.48 0-.95-.01-1.39h.54c.02.18.03.89.02 1.04.24-.56.69-1.18 1.83-1.18.98 0 1.85.55 1.85 2.07v3.56h-.55V9.74c0-.98-.41-1.62-1.36-1.62-1.31 0-1.76 1.09-1.76 2.29v2.8h-.55Z"/><path clip-path="url(#b)" d="M327.42 7.77c.3-.87.47-2.09.49-2.66h.56c-.06.83-.34 2.09-.57 2.66Z"/><path clip-path="url(#b)" d="M329.35 7.72h1.02V6h.55V7.72h1.31v.52h-1.31v3.58c0 .62.13.97.66.97.16 0 .4-.01.57-.07v.48c-.19.08-.45.1-.68.1-.7 0-1.1-.35-1.1-1.23V8.23h-1.02Z"/><path clip-path="url(#b)" d="M336.39 5.11V8.64c.31-.57.85-1.06 1.82-1.06.78 0 1.86.4 1.86 2.14v3.5h-.55V9.83c0-1.09-.49-1.71-1.41-1.71-1.09 0-1.72.67-1.72 2.02v3.07h-.55V5.11Z"/><path clip-path="url(#b)" d="M345.15 10.41h-1.08c-1.22 0-1.98.32-1.98 1.27 0 .69.5 1.17 1.27 1.17 1.57 0 1.79-1.04 1.79-2.23Zm.54 1.76c0 .48.04.87.08 1.04h-.53c-.04-.13-.08-.37-.1-.85-.19.41-.67.98-1.8.98-1.28 0-1.83-.83-1.83-1.65 0-1.21.94-1.76 2.58-1.76h1.05V9.38c0-.55-.16-1.29-1.42-1.29-1.11 0-1.28.58-1.4 1.03h-.55c.07-.61.44-1.54 1.96-1.54 1.25 0 1.96.53 1.96 1.74Z"/><path clip-path="url(#b)" d="M351.72 10.35c0-1.28-.62-2.23-1.7-2.23-1.33 0-1.88.84-1.88 2.33 0 1.47.43 2.39 1.8 2.39 1.14 0 1.78-.97 1.78-2.49m-3.55 2.06v3.01h-.55V9.07c0-.45 0-.94-.01-1.35h.54c.02.21.02.54.02.99.34-.66.95-1.12 1.94-1.12 1.3 0 2.2 1.09 2.2 2.74 0 1.98-1.06 3.02-2.39 3.02-.97 0-1.47-.43-1.75-.95"/><path clip-path="url(#b)" d="M357.89 10.35c0-1.28-.62-2.23-1.71-2.23-1.33 0-1.88.84-1.88 2.33 0 1.47.43 2.39 1.8 2.39 1.14 0 1.78-.97 1.78-2.49m-3.55 2.06v3.01h-.55V9.07c0-.45 0-.94-.01-1.35h.54c.02.21.02.54.02.99.34-.66.95-1.12 1.94-1.12 1.3 0 2.2 1.09 2.2 2.74 0 1.98-1.06 3.02-2.39 3.02-.97 0-1.47-.43-1.75-.95"/><path clip-path="url(#b)" d="M363.63 10.05c-.01-1.09-.61-1.95-1.68-1.95-1.13 0-1.65.79-1.77 1.95Zm-3.49.48c.01 1.42.72 2.3 1.78 2.3 1.03 0 1.39-.58 1.58-1.03h.56c-.23.72-.81 1.55-2.17 1.55-1.67 0-2.32-1.44-2.32-2.84 0-1.57.78-2.93 2.39-2.93 1.69 0 2.23 1.46 2.23 2.5 0 .15 0 .31-.01.45Z"/><path clip-path="url(#b)" d="M365.65 9.1c0-.48 0-.95-.01-1.39h.54c.02.18.03.89.02 1.04.24-.56.69-1.18 1.83-1.18.98 0 1.85.55 1.85 2.07v3.56h-.55V9.74c0-.98-.41-1.62-1.36-1.62-1.31 0-1.76 1.09-1.76 2.29v2.8h-.55Z"/><path clip-path="url(#b)" d="M378.27 10.36c0-1.38-.68-2.26-1.73-2.26-1.38 0-1.86.93-1.86 2.38 0 1.3.43 2.35 1.79 2.35 1.11 0 1.79-.92 1.79-2.48m-4.1-5.25h.55V8.64c.26-.55.8-1.06 1.88-1.06 1.3 0 2.26 1.07 2.26 2.76 0 1.74-.86 3-2.4 3-.92 0-1.45-.37-1.74-1 0 .35-.01.71-.02.87h-.54c.01-.63.01-1.25.01-1.88Z"/><path clip-path="url(#b)" d="M380.29 7.72c1.11 3.15 1.6 4.44 1.78 5.04h.01c.22-.67.66-1.95 1.73-5.04h.57l-2.07 5.82c-.58 1.63-.98 1.99-1.97 1.99-.2 0-.33-.01-.51-.03v-.55c.16.02.32.03.49.03.79 0 1.05-.39 1.45-1.52l-2.1-5.74Z"/><path clip-path="url(#b)" d="M391.16 10.41h-1.08c-1.22 0-1.98.32-1.98 1.27 0 .69.5 1.17 1.27 1.17 1.57 0 1.79-1.04 1.79-2.23Zm.54 1.76c0 .48.04.87.08 1.04h-.53c-.04-.13-.08-.37-.1-.85-.19.41-.67.98-1.8.98-1.28 0-1.83-.83-1.83-1.65 0-1.21.94-1.76 2.59-1.76h1.05V9.38c0-.55-.17-1.29-1.42-1.29-1.11 0-1.27.58-1.4 1.03h-.55c.07-.61.44-1.54 1.96-1.54 1.25 0 1.96.53 1.96 1.74Z"/><path clip-path="url(#b)" d="M397.67 11.6c-.27.97-.9 1.75-2.14 1.75-1.38 0-2.35-1.02-2.35-2.86 0-1.51.8-2.9 2.42-2.9 1.4 0 1.97.99 2.07 1.76h-.56c-.17-.64-.58-1.24-1.52-1.24-1.17 0-1.83.99-1.83 2.37 0 1.31.62 2.37 1.77 2.37.8 0 1.29-.41 1.57-1.23Z"/><path clip-path="url(#b)" d="M403.16 11.6c-.27.97-.9 1.75-2.14 1.75-1.38 0-2.35-1.02-2.35-2.86 0-1.51.8-2.9 2.42-2.9 1.4 0 1.97.99 2.07 1.76h-.56c-.16-.64-.58-1.24-1.52-1.24-1.17 0-1.83.99-1.83 2.37 0 1.31.62 2.37 1.77 2.37.8 0 1.29-.41 1.57-1.23Z"/><path clip-path="url(#b)" d="M404.69 7.72h.55v5.5h-.55Zm0-2.61h.55V6.18h-.55Z"/><path clip-path="url(#b)" d="M407.29 10.51c0 1.51.78 2.32 1.73 2.32 1.45 0 1.85-1 1.85-2.5 0-1.42-.34-2.23-1.75-2.23-1.09 0-1.83.87-1.83 2.41m4.1-5.4v6.52c0 .53 0 1.03.01 1.58h-.53c-.02-.13-.03-.65-.03-.92-.28.67-.89 1.06-1.85 1.06-1.43 0-2.29-1.17-2.29-2.82 0-1.69.93-2.95 2.43-2.95 1.1 0 1.54.47 1.7.83V5.11Z"/><path clip-path="url(#b)" d="M416.92 10.05c-.01-1.09-.6-1.95-1.68-1.95-1.13 0-1.65.79-1.77 1.95Zm-3.49.48c.01 1.42.72 2.3 1.78 2.3 1.03 0 1.39-.58 1.58-1.03h.56c-.23.72-.81 1.55-2.17 1.55-1.67 0-2.32-1.44-2.32-2.84 0-1.57.78-2.93 2.39-2.93 1.69 0 2.23 1.46 2.23 2.5 0 .15 0 .31-.01.45Z"/><path clip-path="url(#b)" d="M418.94 9.1c0-.48 0-.95-.01-1.39h.54c.02.18.03.89.02 1.04.24-.56.69-1.18 1.83-1.18.98 0 1.85.55 1.85 2.07v3.56h-.55V9.74c0-.98-.41-1.62-1.36-1.62-1.31 0-1.76 1.09-1.76 2.29v2.8h-.55Z"/><path clip-path="url(#b)" d="M424.22 7.72h1.02V6h.55V7.72h1.31v.52H425.8v3.58c0 .62.13.97.66.97.17 0 .4-.01.57-.07v.48c-.19.08-.45.1-.68.1-.7 0-1.1-.35-1.1-1.23V8.23h-1.02Z"/><path clip-path="url(#b)" d="M428.31 13.22h.55V11.8h-.55Z" fill-rule="evenodd"/><path clip-path="url(#b)" d="M433.09 5.52h.59v7.15h4.14l-.11.55h-4.62Z"/><path clip-path="url(#b)" d="M439.23 7.72h.55v5.5h-.55Zm0-2.61h.55V6.18h-.55Z"/><path clip-path="url(#b)" d="M442.24 10.56c.51-.54 2.05-2.1 2.78-2.84h.7l-2.18 2.19 2.45 3.31h-.68l-2.17-2.96-.91.88v2.08h-.55V5.11h.55Z"/><path clip-path="url(#b)" d="M450.49 10.05c-.01-1.09-.61-1.95-1.68-1.95-1.13 0-1.65.79-1.77 1.95Zm-3.49.48c.01 1.42.73 2.3 1.78 2.3 1.03 0 1.39-.58 1.58-1.03h.56c-.23.72-.81 1.55-2.17 1.55-1.67 0-2.32-1.44-2.32-2.84 0-1.57.78-2.93 2.39-2.93 1.69 0 2.23 1.46 2.23 2.5 0 .15 0 .31-.01.45Z"/><path clip-path="url(#b)" d="M454.07 7.72h1.02V6h.55V7.72h1.31v.52h-1.31v3.58c0 .62.13.97.66.97.16 0 .4-.01.57-.07v.48c-.19.08-.45.1-.68.1-.7 0-1.1-.35-1.1-1.23V8.23h-1.02Z"/><path clip-path="url(#b)" d="M458.7 5.11V8.64c.31-.57.85-1.06 1.82-1.06.78 0 1.86.4 1.86 2.14v3.5h-.55V9.83c0-1.09-.49-1.71-1.41-1.71-1.09 0-1.72.67-1.72 2.02v3.07h-.55V5.11Z"/><path clip-path="url(#b)" d="M467.9 10.05c-.01-1.09-.61-1.95-1.68-1.95-1.13 0-1.65.79-1.77 1.95Zm-3.49.48c.01 1.42.73 2.3 1.78 2.3 1.03 0 1.39-.58 1.58-1.03h.56c-.23.72-.81 1.55-2.17 1.55-1.67 0-2.32-1.44-2.32-2.84 0-1.57.78-2.93 2.39-2.93 1.69 0 2.23 1.46 2.23 2.5 0 .15 0 .31-.01.45Z"/><path clip-path="url(#b)" d="M5.76 23.67c0 1.31.7 2.36 1.87 2.36 1.19 0 1.86-.98 1.86-2.36 0-1.3-.66-2.37-1.88-2.37-1.25 0-1.85 1.05-1.85 2.37m4.31-.01c0 1.53-.85 2.89-2.49 2.89-1.48 0-2.41-1.22-2.41-2.88 0-1.57.87-2.88 2.46-2.88 1.46 0 2.43 1.14 2.43 2.87"/><path clip-path="url(#b)" d="M11.55 22.41c0-.92-.01-1.32-.01-1.5h.54c.01.18.02.53.02 1.23.32-.82 1.02-1.32 1.91-1.36v.59c-1.14.08-1.91.87-1.91 2.18v2.86h-.55Z"/><path clip-path="url(#b)" d="M19.18 24.8c-.26.97-.9 1.75-2.13 1.75-1.38 0-2.35-1.02-2.35-2.86 0-1.51.8-2.9 2.42-2.9 1.4 0 1.97.99 2.07 1.76h-.56c-.17-.64-.58-1.24-1.52-1.24-1.17 0-1.83.99-1.83 2.37 0 1.31.62 2.36 1.77 2.36.8 0 1.29-.41 1.57-1.23Z"/><path clip-path="url(#b)" d="M21.11 18.31v3.53c.31-.57.85-1.06 1.82-1.06.78 0 1.86.4 1.86 2.13v3.5h-.55V23.03c0-1.09-.49-1.7-1.41-1.7-1.09 0-1.72.67-1.72 2.02v3.07h-.55V18.31Z"/><path clip-path="url(#b)" d="M26.7 20.92h.55v5.5H26.7Zm0-2.61h.55v1.07H26.7Z"/><path clip-path="url(#b)" d="M29.31 23.71c0 1.51.78 2.32 1.73 2.32 1.45 0 1.85-1 1.85-2.5 0-1.42-.34-2.23-1.75-2.23-1.09 0-1.83.87-1.83 2.41m4.1-5.4v6.52c0 .53 0 1.03.01 1.58H32.9c-.02-.13-.03-.65-.03-.92-.28.67-.89 1.06-1.85 1.06-1.43 0-2.29-1.17-2.29-2.82 0-1.7.94-2.95 2.43-2.95 1.1 0 1.54.47 1.71.82v-3.3Z"/><path clip-path="url(#b)" d="M34.43 27.67c.54-1.07.74-2.05.77-2.66h.55c-.08.91-.43 2-.83 2.66Z"/><path clip-path="url(#b)" d="M39.43 20.92h1.02V19.2H41v1.72h1.31v.52H41v3.58c0 .62.13.97.66.97.17 0 .4-.01.57-.07v.48c-.19.08-.45.1-.68.1-.7 0-1.1-.35-1.1-1.23V21.43H39.43Z"/><path clip-path="url(#b)" d="M44.06 18.31v3.53c.31-.57.85-1.06 1.82-1.06.78 0 1.86.4 1.86 2.13v3.5h-.55V23.03c0-1.09-.49-1.7-1.41-1.7-1.09 0-1.72.67-1.72 2.02v3.07h-.55V18.31Z"/><path clip-path="url(#b)" d="M53.26 23.25c-.01-1.09-.6-1.95-1.68-1.95-1.13 0-1.65.79-1.77 1.95Zm-3.49.48c.01 1.42.73 2.3 1.78 2.3 1.03 0 1.39-.58 1.58-1.03h.56c-.23.73-.81 1.55-2.17 1.55-1.67 0-2.32-1.44-2.32-2.84 0-1.57.78-2.93 2.39-2.93 1.69 0 2.23 1.46 2.23 2.5 0 .15 0 .31-.01.45Z"/><path clip-path="url(#b)" d="M55.33 20.92c1.11 3.15 1.6 4.44 1.78 5.04h.01c.22-.67.66-1.95 1.73-5.04h.57l-2.07 5.82c-.58 1.63-.98 1.99-1.97 1.99-.2 0-.33-.01-.51-.03v-.55c.17.02.32.03.49.03.79 0 1.05-.39 1.45-1.52l-2.1-5.74Z"/><path clip-path="url(#b)" d="M63.55 22.41c0-.92-.01-1.32-.01-1.5h.54c.01.18.02.53.02 1.23.32-.82 1.02-1.32 1.91-1.36v.59c-1.14.08-1.91.87-1.91 2.18v2.86h-.55Z"/><path clip-path="url(#b)" d="M70.75 23.25c-.01-1.09-.6-1.95-1.68-1.95-1.13 0-1.65.79-1.77 1.95Zm-3.49.48c.01 1.42.73 2.3 1.78 2.3 1.03 0 1.39-.58 1.58-1.03h.56c-.23.73-.81 1.55-2.17 1.55-1.67 0-2.32-1.44-2.32-2.84 0-1.57.78-2.93 2.39-2.93 1.69 0 2.23 1.46 2.23 2.5 0 .15 0 .31-.01.45Z"/><path clip-path="url(#b)" d="M72.97 23.7c0 1.2.57 2.33 1.78 2.33 1.36 0 1.8-.91 1.8-2.4 0-1.45-.37-2.32-1.76-2.32-1.18 0-1.83 1-1.83 2.39m3.57 1.78c-.26.63-.78 1.07-1.88 1.07-1.27 0-2.27-1.04-2.27-2.82 0-1.9 1.12-2.95 2.41-2.95 1.12 0 1.61.55 1.74.96-.01-.24.01-.54.02-.83h.53c-.01.65-.01 1.02-.01 1.53v6.17h-.54Z"/><path clip-path="url(#b)" d="M83.1 24.81c0 .54.01 1.4.01 1.61h-.53c-.02-.14-.03-.51-.03-.96-.23.65-.79 1.09-1.77 1.09-.79 0-1.8-.31-1.8-1.99V20.92h.54v3.51c0 .8.25 1.58 1.34 1.58 1.23 0 1.69-.69 1.69-2.27V20.92h.55Z"/><path clip-path="url(#b)" d="M85.01 20.92h.55v5.5h-.55Zm0-2.61h.55v1.07h-.55Z"/><path clip-path="url(#b)" d="M87.48 22.41c0-.92-.01-1.32-.01-1.5h.54c.01.18.02.53.02 1.23.32-.82 1.02-1.32 1.91-1.36v.59c-1.14.08-1.91.87-1.91 2.18v2.86h-.55Z"/><path clip-path="url(#b)" d="M94.67 23.25c-.01-1.09-.61-1.95-1.68-1.95-1.13 0-1.65.79-1.77 1.95Zm-3.49.48c.01 1.42.73 2.3 1.78 2.3 1.03 0 1.39-.58 1.58-1.03h.56c-.23.73-.81 1.55-2.17 1.55-1.67 0-2.32-1.44-2.32-2.84 0-1.57.78-2.93 2.39-2.93 1.69 0 2.23 1.46 2.23 2.5 0 .15 0 .31-.01.45Z"/><path clip-path="url(#b)" d="M96.98 24.99h.53v1.43h-.53Zm0-4.07h.53v1.42h-.53Z"/></g></g></svg>