<?xml version="1.0" encoding="UTF-8"?><!DOCTYPE svg PUBLIC "-//W3C//DTD SVG 1.0//EN" "http://www.w3.org/TR/2001/REC-SVG-20010904/DTD/svg10.dtd" []><svg xmlns="http://www.w3.org/2000/svg" xmlns:xlink="http://www.w3.org/1999/xlink" height="27" stroke="#000" stroke-linecap="square" stroke-miterlimit="10" viewBox="0 0 183.81 27.05" width="184"><defs><clipPath id="a"><path d="M0 0V27.05H183.81V0Z"/></clipPath><clipPath clip-path="url(#a)" id="b"><path d="M-248.41 207.02H711.71V-333.1H-248.41Z"/></clipPath></defs><g><g fill="#FF00A4" stroke="none"><path clip-path="url(#b)" d="M5 5.67h.98v5.48h7.26V5.67h.98v12.6h-.98V12.07H5.98v6.19H5Z"/><path clip-path="url(#b)" d="M17.28 9.26c1.74 5.11 2.51 7.25 2.8 8.22h.02c.35-1.1 1.04-3.18 2.71-8.22h.94l-3.27 9.53c-.92 2.66-1.55 3.26-3.13 3.26-.31 0-.53-.02-.81-.05v-.92c.26.03.5.05.78.05 1.25 0 1.65-.62 2.29-2.46l-3.33-9.4Z"/><path clip-path="url(#b)" d="M32.22 13.58c0-2.24-1.07-3.67-2.72-3.67-2.16 0-2.92 1.52-2.92 3.87 0 2.11.67 3.83 2.82 3.83 1.75 0 2.82-1.51 2.82-4.03M25.72 5h.91v5.76c.42-.89 1.27-1.72 2.97-1.72 2.07 0 3.57 1.75 3.57 4.52 0 2.84-1.36 4.92-3.8 4.92-1.46 0-2.29-.61-2.75-1.63 0 .57-.02 1.16-.04 1.41h-.89c.02-1.03.02-2.05.02-3.08Z"/><path clip-path="url(#b)" d="M35.5 11.71c0-1.5-.02-2.15-.02-2.45h.89c.02.29.04.87.04 2.01.5-1.34 1.61-2.15 3.03-2.22v1c-1.81.12-3.03 1.4-3.03 3.55v4.67H35.5Z"/><path clip-path="url(#b)" d="M41.22 9.26h.91v9.01h-.91Zm0-4.26h.91V6.76h-.91Z"/><path clip-path="url(#b)" d="M45.41 13.83c0 2.45 1.23 3.78 2.72 3.78 2.29 0 2.9-1.63 2.9-4.06 0-2.31-.53-3.64-2.75-3.64-1.72 0-2.87 1.41-2.87 3.92M51.9 5V15.67c0 .86 0 1.69.02 2.59h-.87c-.04-.22-.05-1.06-.05-1.5-.44 1.09-1.41 1.72-2.92 1.72-2.27 0-3.63-1.91-3.63-4.61 0-2.77 1.48-4.83 3.86-4.83 1.73 0 2.43.77 2.69 1.34V5Z"/><path clip-path="url(#b)" d="M69.86 10.17l-3.04 4.85c-1.48 2.35-2.54 3.42-4.51 3.42-2 0-3.17-1.64-3.17-3.21 0-1.54.69-2.7 3.26-4.14 1.77-1.17 2.44-1.68 2.44-2.83 0-.98-.6-1.93-1.76-1.93-1.09 0-1.85.7-1.85 2 0 .81.54 1.56 1.58 2.58l7.22 7.35H68.68L62.1 11.56c-1.12-1.11-1.79-1.94-1.79-3.22 0-1.43.93-2.85 2.8-2.85 1.58 0 2.66 1.23 2.66 2.78 0 1.23-.66 2.03-2.8 3.39-2.44 1.42-2.86 2.31-2.86 3.5 0 1.29 1.07 2.38 2.2 2.38 1.41 0 2.34-.51 3.91-3.09l2.59-4.27Z"/><path clip-path="url(#b)" d="M80.4 18.27L75.88 5.67h1.05l2.36 6.57c.68 1.9 1.43 4 1.7 5.06h.04c.26-.94 1.09-3.14 1.77-4.99l2.44-6.64h1.03l-4.7 12.6Z"/><path clip-path="url(#b)" d="M87.9 9.26h.91v9.01H87.9ZM87.9 5h.91V6.76H87.9Z"/><path clip-path="url(#b)" d="M91.82 11.71c0-1.5-.02-2.15-.02-2.45h.89c.02.29.04.87.04 2.01.5-1.34 1.61-2.15 3.03-2.22v1c-1.81.12-3.03 1.4-3.03 3.55v4.67h-.91Z"/><path clip-path="url(#b)" d="M96.92 9.26h1.62V6.45h.91v2.8h2.07v.87H99.45v5.82c0 1 .21 1.57 1.04 1.57.26 0 .62-.02.9-.11v.81c-.3.13-.73.16-1.09.16-1.13 0-1.76-.58-1.76-2.03V10.13H96.92Z"/><path clip-path="url(#b)" d="M109.77 15.64c0 .88.02 2.28.02 2.63h-.87c-.04-.24-.05-.83-.05-1.56-.37 1.06-1.26 1.77-2.8 1.77-1.27 0-2.86-.52-2.86-3.26V9.26h.89V15c0 1.31.4 2.58 2.11 2.58 1.93 0 2.66-1.12 2.66-3.68V9.26h.91Z"/><path clip-path="url(#b)" d="M117.91 13.68h-1.69c-1.92 0-3.11.52-3.11 2.06 0 1.12.78 1.89 1.99 1.89 2.47 0 2.82-1.7 2.82-3.63Zm.89 2.86c0 .79.07 1.44.12 1.73h-.87c-.07-.21-.12-.61-.16-1.38-.3.66-1.06 1.59-2.85 1.59-2.02 0-2.9-1.35-2.9-2.71 0-1.98 1.48-2.89 4.1-2.89h1.65v-.91c0-.9-.26-2.09-2.23-2.09-1.74 0-2.01.94-2.2 1.68h-.9c.11-1 .71-2.53 3.12-2.53 2 0 3.12.87 3.12 2.85Z"/><path clip-path="url(#b)" d="M121.84 18.27h.91V5h-.91Z" fill-rule="evenodd"/><path clip-path="url(#b)" d="M137.93 12.09h-6.21v5.25h6.8l-.14.93h-7.64V5.67h7.5V6.6h-6.52v4.57h6.21Z"/><path clip-path="url(#b)" d="M140.64 9.26c1.4 4.1 2.37 6.91 2.7 8.06h.02c.19-.69 1.17-3.37 2.84-8.06h.96l-3.29 9.01h-1.08l-3.1-9.01Z"/><path clip-path="url(#b)" d="M154.73 13.07c-.02-1.77-.95-3.16-2.64-3.16-1.78 0-2.59 1.29-2.78 3.16Zm-5.48.81c.02 2.3 1.14 3.73 2.8 3.73 1.62 0 2.18-.94 2.49-1.68h.92c-.36 1.19-1.29 2.55-3.45 2.55-2.65 0-3.69-2.36-3.69-4.65 0-2.58 1.24-4.79 3.79-4.79 2.69 0 3.55 2.39 3.55 4.1 0 .25 0 .5-.02.74Z"/><path clip-path="url(#b)" d="M157.96 11.53c0-.79 0-1.55-.02-2.27h.89c.04.29.05 1.45.04 1.7.38-.91 1.1-1.91 2.89-1.91 1.56 0 2.93.91 2.93 3.39v5.84h-.91V12.58c0-1.59-.64-2.63-2.14-2.63-2.05 0-2.76 1.76-2.76 3.71v4.6h-.91Z"/><path clip-path="url(#b)" d="M166.35 9.26h1.61V6.45h.91v2.8h2.07v.87h-2.07v5.82c0 1 .21 1.57 1.04 1.57.26 0 .62-.02.9-.11v.81c-.3.13-.73.16-1.09.16-1.13 0-1.76-.58-1.76-2.03V10.13h-1.61Z"/><path clip-path="url(#b)" d="M173.23 15.77c.29 1.16 1.09 1.86 2.46 1.86 1.54 0 2.16-.73 2.16-1.73 0-1.02-.42-1.52-2.35-2-2.26-.56-2.82-1.27-2.82-2.46 0-1.24.91-2.4 2.89-2.4s2.93 1.25 3.06 2.53h-.9c-.15-.75-.72-1.68-2.2-1.68-1.5 0-1.93.77-1.93 1.48 0 .82.42 1.23 2.14 1.66 2.47.61 3.07 1.45 3.07 2.8 0 1.64-1.29 2.65-3.14 2.65-2 0-3.12-1.09-3.36-2.71Z"/></g></g></svg>