<?xml version="1.0" encoding="UTF-8"?><!DOCTYPE svg PUBLIC "-//W3C//DTD SVG 1.0//EN" "http://www.w3.org/TR/2001/REC-SVG-20010904/DTD/svg10.dtd" []><svg xmlns="http://www.w3.org/2000/svg" xmlns:xlink="http://www.w3.org/1999/xlink" height="88" stroke="#000" stroke-linecap="square" stroke-miterlimit="10" viewBox="0 0 171.05 88.13" width="171"><defs><clipPath id="a"><path d="M0 0V88.13H171.05V0Z"/></clipPath><clipPath clip-path="url(#a)" id="b"><path d="M-300.79 248.65H659.33V-291.47H-300.79Z"/></clipPath></defs><g><g fill="#fff" stroke="none" stroke-linecap="butt"><path clip-path="url(#b)" d="M8.98 16.78L5 5.6H6.19L8.2 11.32c.58 1.67 1.21 3.44 1.44 4.42h.03c.23-.87.91-2.72 1.5-4.36L13.26 5.6h1.15L10.29 16.78Z"/><path clip-path="url(#b)" d="M20.15 12.08c-.02-1.47-.77-2.64-2.21-2.64-1.5 0-2.17 1.08-2.33 2.64Zm-4.58.83c.01 1.88.93 3.11 2.35 3.11 1.36 0 1.81-.76 2.08-1.39h1.05c-.32 1.05-1.15 2.33-3.17 2.33-2.41 0-3.36-2.09-3.36-4.15 0-2.34 1.13-4.29 3.45-4.29 2.45 0 3.24 2.12 3.24 3.72 0 .23 0 .45-.02.66Z"/><path clip-path="url(#b)" d="M23.19 10.75c0-.7 0-1.4-.02-2.03h1.01c.03.25.05 1.21.04 1.44.33-.76.97-1.63 2.53-1.63 1.42 0 2.61.86 2.61 3.04v5.2H28.33V11.73c0-1.33-.52-2.22-1.8-2.22-1.68 0-2.3 1.39-2.3 3.09v4.18H23.19Z"/><path clip-path="url(#b)" d="M37.89 14.43c0 .79.01 1.97.02 2.35h-1c-.03-.21-.05-.72-.05-1.31-.35.92-1.13 1.51-2.44 1.51-1.21 0-2.57-.55-2.57-2.93V8.72h1.02V13.8c0 1.12.34 2.19 1.77 2.19 1.6 0 2.21-.93 2.21-3.1V8.72h1.04Z"/><path clip-path="url(#b)" d="M45.54 12.08c-.02-1.47-.77-2.64-2.21-2.64-1.5 0-2.17 1.08-2.33 2.64Zm-4.58.83c.01 1.88.93 3.11 2.35 3.11 1.36 0 1.81-.76 2.08-1.39h1.05c-.32 1.05-1.15 2.33-3.17 2.33-2.41 0-3.36-2.09-3.36-4.15 0-2.34 1.14-4.29 3.45-4.29 2.45 0 3.24 2.12 3.24 3.72 0 .23 0 .45-.02.66Z"/><path clip-path="url(#b)" d="M52.99 14.52c.25.97.92 1.55 2.07 1.55 1.28 0 1.79-.59 1.79-1.42 0-.84-.37-1.25-1.99-1.65-2.11-.53-2.59-1.19-2.59-2.27 0-1.12.81-2.2 2.68-2.2s2.71 1.15 2.82 2.29H56.75c-.13-.61-.58-1.39-1.85-1.39-1.24 0-1.6.62-1.6 1.22 0 .68.35 1.01 1.84 1.39 2.27.56 2.79 1.34 2.79 2.54 0 1.44-1.12 2.4-2.9 2.4-1.89 0-2.88-1.01-3.09-2.45Z"/><path clip-path="url(#b)" d="M64.98 12.08c-.02-1.47-.77-2.64-2.21-2.64-1.5 0-2.17 1.08-2.33 2.64Zm-4.58.83c.01 1.88.93 3.11 2.35 3.11 1.36 0 1.81-.76 2.08-1.39h1.05c-.32 1.05-1.15 2.33-3.17 2.33-2.41 0-3.36-2.09-3.36-4.15 0-2.34 1.14-4.29 3.45-4.29 2.45 0 3.24 2.12 3.24 3.72 0 .23 0 .45-.02.66Z"/><path clip-path="url(#b)" d="M68.08 16.78h1.04V5H68.08Z" fill-rule="evenodd"/><path clip-path="url(#b)" d="M76.76 12.08c-.02-1.47-.77-2.64-2.21-2.64-1.5 0-2.17 1.08-2.33 2.64Zm-4.58.83c.01 1.88.93 3.11 2.35 3.11 1.36 0 1.81-.76 2.08-1.39h1.05c-.32 1.05-1.15 2.33-3.17 2.33-2.41 0-3.36-2.09-3.36-4.15 0-2.34 1.14-4.29 3.45-4.29 2.45 0 3.24 2.12 3.24 3.72 0 .23 0 .45-.02.66Z"/><path clip-path="url(#b)" d="M85.83 14.36c-.35 1.4-1.26 2.61-3.11 2.61-2.04 0-3.4-1.54-3.4-4.18 0-2.24 1.19-4.26 3.49-4.26 2.1 0 2.9 1.54 3.02 2.63H84.79c-.21-.88-.76-1.69-2-1.69-1.53 0-2.39 1.35-2.39 3.28 0 1.88.82 3.28 2.33 3.28 1.06 0 1.7-.57 2.06-1.67Z"/><path clip-path="url(#b)" d="M86.79 8.72h1.4V6.27h1.04V8.72h1.79v.93H89.23v5c0 .85.19 1.31.91 1.31.21 0 .52-.01.75-.08v.86c-.29.12-.71.15-1.06.15-1.1 0-1.65-.58-1.65-1.89V9.65h-1.4Z"/><path clip-path="url(#b)" d="M92.68 8.72h1.04v8.05H92.68Zm0-3.72h1.04V6.64H92.68Z"/><path clip-path="url(#b)" d="M96.81 12.75c0 1.85.93 3.28 2.47 3.28 1.57 0 2.45-1.34 2.45-3.27 0-1.86-.87-3.28-2.48-3.28-1.63 0-2.44 1.39-2.44 3.28m6-.02c0 2.28-1.24 4.24-3.59 4.24-2.16 0-3.49-1.79-3.49-4.21 0-2.34 1.27-4.22 3.57-4.22 2.11 0 3.51 1.68 3.51 4.2"/><path clip-path="url(#b)" d="M104.82 10.75c0-.7 0-1.4-.02-2.03h1.01c.03.25.05 1.21.04 1.44.33-.76.97-1.63 2.53-1.63 1.42 0 2.61.86 2.61 3.04v5.2h-1.04V11.73c0-1.33-.52-2.22-1.8-2.22-1.68 0-2.3 1.39-2.3 3.09v4.18h-1.04Z"/><path clip-path="url(#b)" d="M112.39 18.61c.78-1.66 1.04-3.07 1.09-4.02h1.05c-.12 1.38-.62 2.99-1.26 4.02Z"/><path clip-path="url(#b)" d="M120.88 8.72c1.16 3.51 1.99 6 2.26 7.02h.01c.18-.73 1.03-3.14 2.39-7.02h1.07l-2.91 8.05h-1.18l-2.75-8.05Z"/><path clip-path="url(#b)" d="M133.22 12.08c-.02-1.47-.77-2.64-2.21-2.64-1.5 0-2.17 1.08-2.33 2.64Zm-4.58.83c.01 1.88.93 3.11 2.35 3.11 1.36 0 1.81-.76 2.08-1.39h1.05c-.32 1.05-1.15 2.33-3.17 2.33-2.41 0-3.36-2.09-3.36-4.15 0-2.34 1.14-4.29 3.45-4.29 2.45 0 3.24 2.12 3.24 3.72 0 .23 0 .45-.02.66Z"/><path clip-path="url(#b)" d="M136.27 10.75c0-.7 0-1.4-.02-2.03h1.01c.03.25.05 1.21.04 1.44.33-.76.97-1.63 2.53-1.63 1.42 0 2.61.86 2.61 3.04v5.2h-1.04V11.73c0-1.33-.52-2.22-1.8-2.22-1.68 0-2.3 1.39-2.3 3.09v4.18h-1.04Z"/><path clip-path="url(#b)" d="M145.53 12.8c0 2.09 1.01 3.21 2.3 3.21 1.95 0 2.44-1.43 2.44-3.43 0-1.95-.43-3.11-2.31-3.11-1.47 0-2.42 1.21-2.42 3.32M151.27 5v9.48c0 .76 0 1.51.02 2.3h-1c-.03-.2-.05-.9-.06-1.26-.39.92-1.22 1.45-2.54 1.45-2.01 0-3.24-1.69-3.24-4.13 0-2.48 1.33-4.31 3.46-4.31 1.48 0 2.1.64 2.32 1.13V5Z"/><path clip-path="url(#b)" d="M154.34 12.75c0 1.85.93 3.28 2.47 3.28 1.57 0 2.45-1.34 2.45-3.27 0-1.86-.87-3.28-2.48-3.28-1.63 0-2.44 1.39-2.44 3.28m6-.02c0 2.28-1.24 4.24-3.59 4.24-2.16 0-3.49-1.79-3.49-4.21 0-2.34 1.27-4.22 3.57-4.22 2.11 0 3.51 1.68 3.51 4.2"/><path clip-path="url(#b)" d="M162.34 10.91c0-1.25-.01-1.85-.02-2.19h1.02c.02.24.04.81.04 1.73.43-1.15 1.4-1.87 2.67-1.92V9.64c-1.61.08-2.67 1.11-2.67 3.08v4.06h-1.04Z"/><path clip-path="url(#b)" d="M11.96 35.36c-.35 1.4-1.26 2.61-3.11 2.61-2.04 0-3.4-1.54-3.4-4.18 0-2.24 1.19-4.26 3.49-4.26 2.1 0 2.9 1.54 3.02 2.63H10.92c-.21-.88-.76-1.69-2-1.69-1.53 0-2.39 1.35-2.39 3.28 0 1.88.82 3.28 2.33 3.28 1.06 0 1.69-.57 2.06-1.67Z"/><path clip-path="url(#b)" d="M14.42 33.75c0 1.85.93 3.28 2.47 3.28 1.57 0 2.45-1.34 2.45-3.27 0-1.86-.87-3.28-2.48-3.28-1.63 0-2.44 1.39-2.44 3.28m6-.02c0 2.28-1.24 4.24-3.59 4.24-2.16 0-3.49-1.79-3.49-4.21 0-2.34 1.27-4.22 3.57-4.22 2.11 0 3.51 1.68 3.51 4.2"/><path clip-path="url(#b)" d="M23 33.75c0 1.85.93 3.28 2.47 3.28 1.57 0 2.45-1.34 2.45-3.27 0-1.86-.87-3.28-2.48-3.28-1.63 0-2.44 1.39-2.44 3.28m6-.02c0 2.28-1.24 4.24-3.59 4.24-2.16 0-3.49-1.79-3.49-4.21 0-2.34 1.27-4.22 3.57-4.22 2.11 0 3.51 1.68 3.51 4.2"/><path clip-path="url(#b)" d="M31 31.91c0-1.25-.01-1.85-.02-2.19H32c.02.24.04.81.04 1.73.43-1.15 1.4-1.87 2.67-1.92v1.11c-1.61.08-2.67 1.11-2.67 3.08v4.06H31Z"/><path clip-path="url(#b)" d="M36.75 33.8c0 2.09 1.01 3.21 2.3 3.21 1.95 0 2.44-1.43 2.44-3.43 0-1.95-.43-3.11-2.31-3.11-1.47 0-2.42 1.21-2.42 3.32M42.48 26v9.48c0 .76 0 1.51.02 2.3h-1c-.03-.2-.05-.9-.06-1.26-.39.92-1.22 1.45-2.54 1.45-2.01 0-3.24-1.69-3.24-4.13 0-2.48 1.33-4.31 3.46-4.31 1.48 0 2.1.64 2.32 1.13V26Z"/><path clip-path="url(#b)" d="M45.07 29.72h1.04v8.05H45.07Zm0-3.72h1.04v1.64H45.07Z"/><path clip-path="url(#b)" d="M48.71 31.75c0-.7 0-1.4-.02-2.03h1.01c.03.25.05 1.21.04 1.44.33-.76.97-1.63 2.53-1.63 1.42 0 2.61.86 2.61 3.04v5.2H53.85V32.73c0-1.33-.52-2.22-1.8-2.22-1.68 0-2.3 1.39-2.3 3.09v4.18H48.71Z"/><path clip-path="url(#b)" d="M61.93 33.75H60.52c-1.65 0-2.61.46-2.61 1.73 0 .93.63 1.59 1.67 1.59 2.07 0 2.35-1.43 2.35-3.04Zm1.01 2.39c0 .72.06 1.39.11 1.63h-.99c-.06-.19-.11-.55-.14-1.15-.27.57-.92 1.35-2.49 1.35-1.82 0-2.6-1.22-2.6-2.44 0-1.78 1.34-2.6 3.67-2.6h1.41v-.76c0-.76-.23-1.74-1.86-1.74-1.45 0-1.68.77-1.84 1.41H57.2c.1-.99.69-2.32 2.88-2.32 1.84 0 2.86.79 2.86 2.59Z"/><path clip-path="url(#b)" d="M64.37 29.72h1.4V27.27h1.04v2.45H68.6v.93H66.81v5c0 .85.19 1.31.91 1.31.21 0 .52-.01.75-.08v.86c-.3.12-.71.15-1.06.15-1.1 0-1.65-.58-1.65-1.89V30.65h-1.4Z"/><path clip-path="url(#b)" d="M70.26 29.72H71.3v8.05H70.26Zm0-3.72H71.3v1.64H70.26Z"/><path clip-path="url(#b)" d="M74.39 33.75c0 1.85.93 3.28 2.47 3.28 1.57 0 2.45-1.34 2.45-3.27 0-1.86-.87-3.28-2.48-3.28-1.63 0-2.44 1.39-2.44 3.28m6-.02c0 2.28-1.24 4.24-3.59 4.24-2.16 0-3.49-1.79-3.49-4.21 0-2.34 1.27-4.22 3.57-4.22 2.11 0 3.51 1.68 3.51 4.2"/><path clip-path="url(#b)" d="M82.4 31.75c0-.7 0-1.4-.02-2.03h1.01c.03.25.05 1.21.04 1.44.33-.76.97-1.63 2.53-1.63 1.42 0 2.61.86 2.61 3.04v5.2H87.54V32.73c0-1.33-.52-2.22-1.8-2.22-1.68 0-2.3 1.39-2.3 3.09v4.18H82.4Z"/><path clip-path="url(#b)" d="M89.98 39.61c.78-1.66 1.04-3.07 1.09-4.02h1.05c-.12 1.38-.62 2.99-1.26 4.02Z"/><path clip-path="url(#b)" d="M98.85 33.8c0 2.09 1.01 3.21 2.3 3.21 1.95 0 2.44-1.43 2.44-3.43 0-1.95-.43-3.11-2.31-3.11-1.47 0-2.42 1.21-2.42 3.32m5.73-7.8v9.48c0 .76 0 1.51.02 2.3h-1c-.03-.2-.05-.9-.06-1.26-.39.92-1.22 1.45-2.54 1.45-2.02 0-3.24-1.69-3.24-4.13 0-2.48 1.33-4.31 3.46-4.31 1.48 0 2.1.64 2.32 1.13V26Z"/><path clip-path="url(#b)" d="M112.21 33.08c-.02-1.47-.77-2.64-2.21-2.64-1.5 0-2.17 1.08-2.33 2.64Zm-4.58.83c.01 1.88.93 3.11 2.35 3.11 1.36 0 1.81-.76 2.08-1.39h1.05c-.32 1.05-1.15 2.33-3.17 2.33-2.41 0-3.36-2.09-3.36-4.15 0-2.34 1.13-4.29 3.45-4.29 2.45 0 3.24 2.12 3.24 3.72 0 .23 0 .45-.02.66Z"/><path clip-path="url(#b)" d="M115.71 35.52c.25.97.92 1.55 2.08 1.55 1.28 0 1.79-.59 1.79-1.42 0-.84-.37-1.25-1.99-1.65-2.11-.53-2.59-1.19-2.59-2.27 0-1.12.81-2.2 2.68-2.2s2.71 1.15 2.82 2.29h-1.02c-.13-.61-.58-1.39-1.85-1.39-1.24 0-1.6.62-1.6 1.22 0 .68.35 1.01 1.84 1.39 2.27.56 2.79 1.34 2.79 2.54 0 1.44-1.12 2.4-2.9 2.4-1.89 0-2.88-1.01-3.09-2.45Z"/><path clip-path="url(#b)" d="M122.65 29.72h1.04v8.05h-1.04Zm0-3.72h1.04v1.64h-1.04Z"/><path clip-path="url(#b)" d="M126.79 33.71c0 1.82.92 3.1 2.32 3.1 1.83 0 2.37-1.26 2.37-3.21 0-1.98-.55-3.11-2.33-3.11-1.63 0-2.36 1.44-2.36 3.23m5.67 3.44c0 2.58-1.07 3.99-3.46 3.99-2.18 0-2.97-1.26-3.14-2.43h1.06c.26 1.01 1.05 1.51 2.12 1.51 1.91 0 2.41-1.27 2.41-3.22v-.75c-.42.98-1.16 1.52-2.53 1.52-1.87 0-3.23-1.57-3.23-4 0-2.67 1.49-4.22 3.35-4.22 1.54 0 2.2.75 2.4 1.34.02-.42.04-.97.06-1.15h.98c0 .37-.03 1.56-.03 2.33Z"/><path clip-path="url(#b)" d="M135.05 31.75c0-.7 0-1.4-.02-2.03h1.01c.03.25.05 1.21.04 1.44.33-.76.97-1.63 2.53-1.63 1.42 0 2.61.86 2.61 3.04v5.2h-1.04V32.73c0-1.33-.52-2.22-1.8-2.22-1.68 0-2.3 1.39-2.3 3.09v4.18h-1.04Z"/><path clip-path="url(#b)" d="M6.54 54.8c0 2.09 1.01 3.21 2.3 3.21 1.95 0 2.44-1.43 2.44-3.43 0-1.95-.43-3.11-2.31-3.11-1.47 0-2.42 1.21-2.42 3.32M12.27 47v9.48c0 .76 0 1.51.02 2.3h-1c-.03-.2-.05-.9-.06-1.26-.39.92-1.22 1.45-2.54 1.45-2.02 0-3.24-1.69-3.24-4.13 0-2.48 1.33-4.31 3.46-4.31 1.48 0 2.1.64 2.32 1.13V47Z"/><path clip-path="url(#b)" d="M19.9 54.08c-.02-1.47-.77-2.64-2.21-2.64-1.5 0-2.17 1.08-2.33 2.64Zm-4.58.83c.01 1.88.93 3.11 2.35 3.11 1.36 0 1.81-.76 2.08-1.39h1.05c-.32 1.05-1.15 2.33-3.17 2.33-2.41 0-3.36-2.09-3.36-4.15 0-2.34 1.14-4.29 3.45-4.29 2.45 0 3.24 2.12 3.24 3.72 0 .23 0 .45-.02.66Z"/><path clip-path="url(#b)" d="M23.25 50.72c1.17 3.51 1.99 6 2.26 7.02h.01c.18-.73 1.03-3.14 2.39-7.02h1.07l-2.91 8.05H24.89l-2.75-8.05Z"/><path clip-path="url(#b)" d="M35.59 54.08c-.02-1.47-.77-2.64-2.21-2.64-1.5 0-2.17 1.08-2.33 2.64Zm-4.58.83c.01 1.88.93 3.11 2.35 3.11 1.36 0 1.81-.76 2.08-1.39h1.05c-.32 1.05-1.15 2.33-3.17 2.33-2.41 0-3.36-2.09-3.36-4.15 0-2.34 1.14-4.29 3.45-4.29 2.45 0 3.24 2.12 3.24 3.72 0 .23 0 .45-.02.66Z"/><path clip-path="url(#b)" d="M38.69 58.78h1.04V47H38.69Z" fill-rule="evenodd"/><path clip-path="url(#b)" d="M42.82 54.75c0 1.85.93 3.28 2.47 3.28 1.56 0 2.45-1.34 2.45-3.27 0-1.86-.87-3.28-2.48-3.28-1.63 0-2.44 1.39-2.44 3.28m6-.02c0 2.28-1.24 4.24-3.59 4.24-2.16 0-3.49-1.79-3.49-4.21 0-2.34 1.27-4.22 3.57-4.22 2.12 0 3.51 1.68 3.51 4.2"/><path clip-path="url(#b)" d="M56.54 54.58c0-1.8-.82-3.09-2.26-3.09-1.76 0-2.48 1.15-2.48 3.23 0 2.04.57 3.3 2.37 3.3 1.53 0 2.37-1.32 2.37-3.44m-4.69 3.09v4.3H50.82V52.7c0-.66 0-1.35-.02-1.97h1.01c.03.29.04.77.04 1.37.45-.9 1.28-1.56 2.65-1.56 1.82 0 3.11 1.58 3.11 4.01 0 2.89-1.5 4.43-3.39 4.43-1.32 0-2.01-.59-2.38-1.29"/><path clip-path="url(#b)" d="M59.63 52.8c0-.69 0-1.44-.02-2.08h1.01c.02.26.05.91.04 1.35.34-.77 1.04-1.54 2.31-1.54 1.1 0 1.91.57 2.21 1.53.4-.8 1.16-1.53 2.51-1.53 1.23 0 2.45.74 2.45 2.95v5.3H69.12V53.61c0-1.01-.35-2.1-1.7-2.1-1.4 0-2.02 1.14-2.02 2.64v4.63H64.39V53.64c0-1.11-.32-2.13-1.65-2.13-1.39 0-2.07 1.23-2.07 2.82v4.44H59.63Z"/><path clip-path="url(#b)" d="M77.8 54.08c-.02-1.47-.77-2.64-2.21-2.64-1.5 0-2.17 1.08-2.33 2.64Zm-4.58.83c.01 1.88.93 3.11 2.35 3.11 1.36 0 1.81-.76 2.08-1.39h1.05c-.32 1.05-1.15 2.33-3.17 2.33-2.41 0-3.36-2.09-3.36-4.15 0-2.34 1.13-4.29 3.45-4.29 2.45 0 3.24 2.12 3.24 3.72 0 .23 0 .45-.02.66Z"/><path clip-path="url(#b)" d="M80.85 52.75c0-.7 0-1.4-.02-2.03h1.01c.03.25.05 1.21.04 1.44.33-.76.97-1.63 2.53-1.63 1.42 0 2.61.86 2.61 3.04v5.2H85.99V53.73c0-1.33-.52-2.22-1.8-2.22-1.68 0-2.3 1.39-2.3 3.09v4.18H80.85Z"/><path clip-path="url(#b)" d="M88.46 50.72h1.4V48.27H90.9v2.45h1.79v.93H90.9v5c0 .85.19 1.31.91 1.31.21 0 .52-.01.75-.08v.86c-.3.12-.71.15-1.06.15-1.1 0-1.65-.58-1.65-1.89V51.65h-1.4Z"/><path clip-path="url(#b)" d="M93.83 60.61c.78-1.66 1.04-3.07 1.09-4.02h1.05c-.12 1.38-.62 2.99-1.26 4.02Z"/><path clip-path="url(#b)" d="M102.71 54.8c0 2.09 1.01 3.21 2.3 3.21 1.95 0 2.44-1.43 2.44-3.43 0-1.95-.43-3.11-2.31-3.11-1.47 0-2.42 1.21-2.42 3.32m5.73-7.8v9.48c0 .76 0 1.51.02 2.3h-1c-.03-.2-.05-.9-.06-1.26-.39.92-1.22 1.45-2.54 1.45-2.01 0-3.24-1.69-3.24-4.13 0-2.48 1.33-4.31 3.46-4.31 1.48 0 2.1.64 2.32 1.13V47Z"/><path clip-path="url(#b)" d="M116.07 54.08c-.02-1.47-.77-2.64-2.21-2.64-1.5 0-2.17 1.08-2.33 2.64Zm-4.58.83c.01 1.88.93 3.11 2.35 3.11 1.36 0 1.81-.76 2.08-1.39h1.05c-.32 1.05-1.15 2.33-3.17 2.33-2.41 0-3.36-2.09-3.36-4.15 0-2.34 1.14-4.29 3.45-4.29 2.45 0 3.24 2.12 3.24 3.72 0 .23 0 .45-.02.66Z"/><path clip-path="url(#b)" d="M118.13 50.72h1.4V48.27h1.04v2.45h1.79v.93h-1.79v5c0 .85.19 1.31.91 1.31.21 0 .52-.01.75-.08v.86c-.29.12-.71.15-1.06.15-1.1 0-1.65-.58-1.65-1.89V51.65h-1.4Z"/><path clip-path="url(#b)" d="M128.58 54.75h-1.41c-1.65 0-2.62.46-2.62 1.73 0 .93.64 1.59 1.67 1.59 2.07 0 2.35-1.43 2.35-3.04Zm1.01 2.39c0 .72.06 1.39.11 1.63h-.99c-.06-.19-.11-.55-.14-1.15-.27.57-.92 1.35-2.49 1.35-1.82 0-2.6-1.22-2.6-2.44 0-1.78 1.34-2.6 3.67-2.6h1.41v-.76c0-.76-.23-1.74-1.86-1.74-1.45 0-1.68.77-1.84 1.41h-1.02c.1-.99.69-2.32 2.88-2.32 1.84 0 2.86.79 2.86 2.59Z"/><path clip-path="url(#b)" d="M132.21 50.72h1.04v8.05h-1.04Zm0-3.72h1.04v1.64h-1.04Z"/><path clip-path="url(#b)" d="M135.85 58.78h1.04V47h-1.04Z" fill-rule="evenodd"/><path clip-path="url(#b)" d="M144.53 54.08c-.02-1.47-.77-2.64-2.21-2.64-1.5 0-2.17 1.08-2.33 2.64Zm-4.58.83c.01 1.88.93 3.11 2.35 3.11 1.36 0 1.81-.76 2.08-1.39h1.05c-.32 1.05-1.15 2.33-3.17 2.33-2.41 0-3.36-2.09-3.36-4.15 0-2.34 1.13-4.29 3.45-4.29 2.45 0 3.24 2.12 3.24 3.72 0 .23 0 .45-.02.66Z"/><path clip-path="url(#b)" d="M148.16 54.8c0 2.09 1.01 3.21 2.3 3.21 1.95 0 2.44-1.43 2.44-3.43 0-1.95-.43-3.11-2.31-3.11-1.47 0-2.42 1.21-2.42 3.32M153.9 47v9.48c0 .76 0 1.51.02 2.3h-1c-.03-.2-.05-.9-.06-1.26-.39.92-1.22 1.45-2.54 1.45-2.01 0-3.24-1.69-3.24-4.13 0-2.48 1.33-4.31 3.46-4.31 1.48 0 2.1.64 2.32 1.13V47Z"/><path clip-path="url(#b)" d="M6.34 77.52c.25.97.92 1.55 2.08 1.55 1.28 0 1.79-.59 1.79-1.42 0-.84-.37-1.25-1.99-1.65-2.11-.53-2.59-1.19-2.59-2.27 0-1.12.81-2.2 2.68-2.2s2.71 1.15 2.82 2.29H10.1c-.13-.61-.58-1.39-1.85-1.39-1.23 0-1.6.62-1.6 1.22 0 .68.35 1.01 1.84 1.39 2.27.56 2.78 1.34 2.78 2.54 0 1.44-1.12 2.4-2.9 2.4-1.89 0-2.88-1.01-3.09-2.45Z"/><path clip-path="url(#b)" d="M19.22 77.36c-.35 1.4-1.26 2.61-3.11 2.61-2.04 0-3.4-1.54-3.4-4.18 0-2.24 1.19-4.26 3.49-4.26 2.1 0 2.9 1.54 3.02 2.63H18.18c-.22-.88-.76-1.69-2-1.69-1.53 0-2.39 1.35-2.39 3.28 0 1.88.82 3.28 2.33 3.28 1.06 0 1.7-.57 2.06-1.67Z"/><path clip-path="url(#b)" d="M22.14 68v5c.42-.78 1.16-1.47 2.51-1.47 1.17 0 2.63.64 2.63 3.12v5.13H26.24V74.84c0-1.49-.64-2.33-1.86-2.33-1.48 0-2.24.97-2.24 2.81v4.45H21.1V68Z"/><path clip-path="url(#b)" d="M34.91 75.08c-.02-1.47-.77-2.64-2.21-2.64-1.5 0-2.17 1.08-2.33 2.64Zm-4.58.83c.01 1.88.93 3.11 2.35 3.11 1.36 0 1.81-.76 2.08-1.39h1.05c-.32 1.05-1.15 2.33-3.17 2.33-2.41 0-3.36-2.09-3.36-4.15 0-2.34 1.14-4.29 3.45-4.29 2.45 0 3.24 2.12 3.24 3.72 0 .23 0 .45-.02.66Z"/><path clip-path="url(#b)" d="M38.55 75.8c0 2.09 1.01 3.21 2.3 3.21 1.95 0 2.44-1.43 2.44-3.43 0-1.95-.43-3.11-2.31-3.11-1.47 0-2.42 1.21-2.42 3.32M44.28 68v9.48c0 .76 0 1.51.02 2.3h-1c-.03-.2-.05-.9-.06-1.26-.39.92-1.22 1.45-2.54 1.45-2.01 0-3.24-1.69-3.24-4.13 0-2.48 1.33-4.31 3.46-4.31 1.48 0 2.1.64 2.32 1.13V68Z"/><path clip-path="url(#b)" d="M52.89 77.43c0 .79.01 1.97.01 2.35h-1c-.03-.21-.05-.72-.05-1.31-.35.92-1.13 1.51-2.44 1.51-1.21 0-2.57-.55-2.57-2.93V71.72h1.02V76.8c0 1.12.34 2.19 1.77 2.19 1.6 0 2.21-.93 2.21-3.1V71.72h1.04Z"/><path clip-path="url(#b)" d="M55.48 79.78h1.04V68H55.48Z" fill-rule="evenodd"/><path clip-path="url(#b)" d="M59.12 71.72h1.04v8.05H59.12Zm0-3.72h1.04v1.64H59.12Z"/><path clip-path="url(#b)" d="M62.77 73.75c0-.7 0-1.4-.02-2.03h1.01c.03.25.05 1.21.04 1.44.33-.76.97-1.63 2.53-1.63 1.42 0 2.61.86 2.61 3.04v5.2H67.91V74.73c0-1.33-.52-2.22-1.8-2.22-1.68 0-2.3 1.39-2.3 3.09v4.18H62.77Z"/><path clip-path="url(#b)" d="M72.03 75.71c0 1.82.92 3.1 2.32 3.1 1.83 0 2.37-1.26 2.37-3.21 0-1.98-.55-3.11-2.33-3.11-1.63 0-2.37 1.44-2.37 3.23m5.67 3.44c0 2.58-1.07 3.99-3.46 3.99-2.18 0-2.97-1.26-3.14-2.43h1.06c.26 1.01 1.05 1.51 2.12 1.51 1.91 0 2.41-1.27 2.41-3.22v-.75c-.42.98-1.16 1.52-2.53 1.52-1.87 0-3.23-1.57-3.23-4 0-2.67 1.49-4.22 3.35-4.22 1.54 0 2.2.75 2.4 1.34.02-.42.04-.97.05-1.15h.98c0 .37-.03 1.56-.03 2.33Z"/><path clip-path="url(#b)" d="M79.78 79.78h1.07v-2.2H79.78Z" fill-rule="evenodd"/></g></g></svg>